<?xml version="1.0" encoding="utf-8"?>
<!-- Generator: Adobe Illustrator 21.0.2, SVG Export Plug-In . SVG Version: 6.00 Build 0)  -->
<svg version="1.1" id="Layer_1" xmlns="http://www.w3.org/2000/svg" xmlns:xlink="http://www.w3.org/1999/xlink" x="0px" y="0px"
	 viewBox="0 0 40 40" style="enable-background:new 0 0 40 40;" xml:space="preserve">
<style type="text/css">
	.st0{fill:none;stroke:#0094EA;stroke-width:2;stroke-linecap:round;stroke-linejoin:round;stroke-miterlimit:10;}
	.st1{fill:#0094EA;}
</style>
<path class="st0" d="M31,39H7c-1.1,0-2-0.9-2-2V3c0-1.1,0.9-2,2-2h24c1.1,0,2,0.9,2,2v34C33,38.1,32.1,39,31,39z"/>
<g>
	<path class="st1" d="M28,6v2H10V6H28 M29,4H9C8.4,4,8,4.4,8,5v4c0,0.6,0.4,1,1,1h20c0.5,0,1-0.4,1-1V5C30,4.4,29.5,4,29,4L29,4z"/>
</g>
<g>
	<path class="st1" d="M28,16v2h-2v-2H28 M29,14h-4c-0.5,0-1,0.4-1,1v4c0,0.5,0.5,1,1,1h4c0.5,0,1-0.5,1-1v-4C30,14.4,29.5,14,29,14
		L29,14z"/>
</g>
<g>
	<path class="st1" d="M20,16v2h-2v-2H20 M21,14h-4c-0.5,0-1,0.4-1,1v4c0,0.5,0.5,1,1,1h4c0.5,0,1-0.5,1-1v-4C22,14.4,21.5,14,21,14
		L21,14z"/>
</g>
<g>
	<path class="st1" d="M12,16v2h-2v-2H12 M13,14H9c-0.6,0-1,0.4-1,1v4c0,0.5,0.4,1,1,1h4c0.5,0,1-0.5,1-1v-4C14,14.4,13.5,14,13,14
		L13,14z"/>
</g>
<g>
	<path class="st1" d="M28,24v2h-2v-2H28 M29,22h-4c-0.5,0-1,0.5-1,1v4c0,0.5,0.5,1,1,1h4c0.5,0,1-0.5,1-1v-4C30,22.5,29.5,22,29,22
		L29,22z"/>
</g>
<g>
	<path class="st1" d="M20,24v2h-2v-2H20 M21,22h-4c-0.5,0-1,0.5-1,1v4c0,0.5,0.5,1,1,1h4c0.5,0,1-0.5,1-1v-4C22,22.5,21.5,22,21,22
		L21,22z"/>
</g>
<g>
	<path class="st1" d="M12,24v2h-2v-2H12 M13,22H9c-0.6,0-1,0.5-1,1v4c0,0.5,0.4,1,1,1h4c0.5,0,1-0.5,1-1v-4C14,22.5,13.5,22,13,22
		L13,22z"/>
</g>
<g>
	<path class="st1" d="M28,32v2h-2v-2H28 M29,30h-4c-0.5,0-1,0.5-1,1v4c0,0.5,0.5,1,1,1h4c0.5,0,1-0.5,1-1v-4C30,30.5,29.5,30,29,30
		L29,30z"/>
</g>
<g>
	<path class="st1" d="M20,32v2h-2v-2H20 M21,30h-4c-0.5,0-1,0.5-1,1v4c0,0.5,0.5,1,1,1h4c0.5,0,1-0.5,1-1v-4C22,30.5,21.5,30,21,30
		L21,30z"/>
</g>
<g>
	<path class="st1" d="M12,32v2h-2v-2H12 M13,30H9c-0.6,0-1,0.5-1,1v4c0,0.5,0.4,1,1,1h4c0.5,0,1-0.5,1-1v-4C14,30.5,13.5,30,13,30
		L13,30z"/>
</g>
</svg>
