<?xml version="1.0" encoding="utf-8"?>
<!-- Generator: Adobe Illustrator 21.1.0, SVG Export Plug-In . SVG Version: 6.00 Build 0)  -->
<svg version="1.1" id="Layer_1" xmlns="http://www.w3.org/2000/svg" xmlns:xlink="http://www.w3.org/1999/xlink" x="0px" y="0px"
	 viewBox="0 0 140.1 40.1" style="enable-background:new 0 0 140.1 40.1;" xml:space="preserve">
<style type="text/css">
	.st0{fill:#003469;}
</style>
<title>Group</title>
<desc>Created using Figma</desc>
<g id="Canvas" transform="translate(-1567 2023)">
	<g id="Group">
		<g id="Ð_x9A_Ð_xB0_Ñ_x81_Ð_xBA_Ð_xB0_Ð_xB4__-_Ð_x9C_">
			<g>
				<path id="path0_fill" class="st0" d="M1642.3-2008.7v4.5h0.4l3.5-4.5h1.4l-3.8,4.6c0.4,0.1,0.8,0.2,1.1,0.3
					c0.3,0.1,0.6,0.3,0.8,0.6c0.2,0.2,0.4,0.5,0.6,0.8c0.2,0.3,0.3,0.6,0.4,1c0.2,0.5,0.4,1,0.5,1.5c0.2,0.5,0.3,0.9,0.6,1.3h-1.2
					c-0.2-0.3-0.4-0.7-0.5-1.1c-0.1-0.4-0.3-0.8-0.4-1.2c-0.1-0.3-0.3-0.6-0.4-0.9c-0.1-0.3-0.3-0.5-0.6-0.7
					c-0.2-0.2-0.5-0.4-0.8-0.5c-0.3-0.1-0.7-0.2-1.1-0.2h-0.4v4.6h-1.2v-10.1H1642.3z M1652.9-2002.3c-0.4,0-0.7,0-1.1,0
					c-0.4,0-0.7,0.1-1,0.2c-0.3,0.1-0.6,0.3-0.8,0.5c-0.2,0.2-0.3,0.5-0.3,0.9c0,0.4,0.1,0.8,0.4,1c0.3,0.2,0.5,0.3,0.9,0.3
					c0.3,0,0.5,0,0.7-0.1c0.2-0.1,0.4-0.2,0.5-0.3c0.2-0.1,0.3-0.3,0.4-0.4c0.1-0.1,0.2-0.3,0.2-0.5c0-0.1,0-0.1,0.1-0.2
					c0-0.1,0-0.1,0-0.2V-2002.3z M1654-2000.3c0,0.3,0,0.6,0,0.9c0,0.3,0.1,0.6,0.1,0.8h-1.1l-0.1-0.9h0c-0.2,0.3-0.5,0.5-0.9,0.8
					c-0.4,0.2-0.8,0.3-1.4,0.3c-0.4,0-0.7-0.1-1-0.2c-0.3-0.1-0.5-0.3-0.7-0.5c-0.2-0.2-0.3-0.4-0.4-0.7c-0.1-0.2-0.1-0.5-0.1-0.7
					c0-0.9,0.4-1.5,1.1-2c0.7-0.5,1.8-0.7,3.2-0.7v-0.2c0-0.1,0-0.3-0.1-0.5c0-0.2-0.1-0.4-0.2-0.6c-0.1-0.2-0.3-0.3-0.5-0.5
					c-0.2-0.1-0.5-0.2-0.9-0.2c-0.3,0-0.7,0-1,0.1c-0.3,0.1-0.6,0.2-0.9,0.4l-0.3-0.8c0.3-0.2,0.6-0.3,1-0.5
					c0.4-0.1,0.8-0.2,1.3-0.2c0.6,0,1,0.1,1.3,0.3c0.4,0.2,0.6,0.4,0.8,0.7c0.2,0.3,0.3,0.6,0.4,1c0.1,0.3,0.1,0.7,0.1,1.1V-2000.3z
					 M1661.3-1998.9c-0.2,0.1-0.4,0.2-0.8,0.3c-0.4,0.1-0.8,0.2-1.3,0.2c-0.5,0-1-0.1-1.5-0.3c-0.4-0.2-0.8-0.4-1.1-0.7
					c-0.3-0.3-0.5-0.7-0.7-1.2c-0.2-0.5-0.3-1-0.3-1.5c0-0.6,0.1-1.1,0.3-1.5c0.2-0.5,0.4-0.9,0.8-1.2c0.3-0.3,0.7-0.6,1.2-0.8
					c0.5-0.2,1-0.3,1.6-0.3c0.4,0,0.8,0,1.1,0.1c0.3,0.1,0.6,0.2,0.7,0.3l-0.3,0.9c-0.2-0.1-0.4-0.2-0.6-0.2
					c-0.3-0.1-0.6-0.1-0.9-0.1c-0.4,0-0.8,0.1-1.1,0.2c-0.3,0.1-0.6,0.3-0.8,0.6c-0.2,0.3-0.4,0.6-0.5,0.9c-0.1,0.3-0.2,0.7-0.2,1.1
					c0,0.4,0.1,0.8,0.2,1.2c0.1,0.3,0.3,0.6,0.5,0.9c0.2,0.2,0.5,0.4,0.8,0.5c0.3,0.1,0.7,0.2,1,0.2c0.4,0,0.7,0,1-0.1
					c0.3-0.1,0.5-0.2,0.7-0.3L1661.3-1998.9z M1664-2005.8v3.2h0.3l2.8-3.2h1.5l-3.2,3.3c0.6,0.1,1.1,0.3,1.5,0.7
					c0.4,0.4,0.7,0.9,1,1.6c0.1,0.2,0.2,0.5,0.3,0.8c0.1,0.3,0.3,0.6,0.4,0.9h-1.2c-0.1-0.2-0.2-0.4-0.3-0.6
					c-0.1-0.3-0.2-0.5-0.3-0.8c-0.3-0.6-0.6-1-1-1.3c-0.4-0.3-0.9-0.4-1.5-0.4h-0.3v3.2h-1.2v-7.2H1664z M1673.7-2002.3
					c-0.4,0-0.7,0-1.1,0c-0.4,0-0.7,0.1-1,0.2c-0.3,0.1-0.6,0.3-0.8,0.5c-0.2,0.2-0.3,0.5-0.3,0.9c0,0.4,0.1,0.8,0.4,1
					c0.3,0.2,0.5,0.3,0.9,0.3c0.3,0,0.5,0,0.7-0.1c0.2-0.1,0.4-0.2,0.5-0.3c0.2-0.1,0.3-0.3,0.4-0.4c0.1-0.1,0.2-0.3,0.2-0.5
					c0-0.1,0-0.1,0.1-0.2c0-0.1,0-0.1,0-0.2V-2002.3z M1674.8-2000.3c0,0.3,0,0.6,0,0.9c0,0.3,0.1,0.6,0.1,0.8h-1.1l-0.1-0.9h0
					c-0.2,0.3-0.5,0.5-0.9,0.8c-0.4,0.2-0.8,0.3-1.4,0.3c-0.4,0-0.7-0.1-1-0.2c-0.3-0.1-0.5-0.3-0.7-0.5c-0.2-0.2-0.3-0.4-0.4-0.7
					c-0.1-0.2-0.1-0.5-0.1-0.7c0-0.9,0.4-1.5,1.1-2c0.7-0.5,1.8-0.7,3.2-0.7v-0.2c0-0.1,0-0.3-0.1-0.5c0-0.2-0.1-0.4-0.2-0.6
					c-0.1-0.2-0.3-0.3-0.5-0.5c-0.2-0.1-0.5-0.2-0.9-0.2c-0.3,0-0.7,0-1,0.1c-0.3,0.1-0.6,0.2-0.9,0.4l-0.3-0.8
					c0.3-0.2,0.6-0.3,1.1-0.5c0.4-0.1,0.8-0.2,1.3-0.2c0.6,0,1,0.1,1.3,0.3c0.4,0.2,0.6,0.4,0.8,0.7c0.2,0.3,0.3,0.6,0.4,1
					c0.1,0.3,0.1,0.7,0.1,1.1V-2000.3z M1678.8-2003.7c0,0.5,0,1-0.1,1.5c-0.1,0.5-0.2,0.9-0.3,1.3c-0.1,0.3-0.2,0.5-0.3,0.7
					c-0.1,0.2-0.2,0.4-0.3,0.6h3.4v-5.4h-2.5V-2003.7z M1682.4-2005.8v6.3l0.7,0l-0.1,3.2h-0.9l-0.1-2.3h-5.1l-0.1,2.3h-0.9
					l-0.1-3.2l0.6,0c0.3-0.5,0.5-1,0.7-1.5c0.2-0.5,0.3-0.9,0.3-1.4c0.1-0.5,0.1-1,0.1-1.5v-1.9H1682.4z M1687.9-2002.7v-1h3.6v1
					H1687.9z M1705.5-2003.1c0-0.3,0-0.7-0.1-1.1c0-0.4,0-0.8-0.1-1.2c0-0.4,0-0.8-0.1-1.1c0-0.4,0-0.7,0-1h0
					c-0.2,0.6-0.4,1.2-0.6,1.8s-0.4,1.3-0.7,2l-1.8,5h-0.9l-1.7-4.9c-0.2-0.7-0.5-1.4-0.7-2c-0.2-0.6-0.4-1.3-0.5-1.8h0
					c0,0.3,0,0.6,0,1c0,0.4,0,0.7,0,1.1c0,0.4,0,0.8-0.1,1.2c0,0.4,0,0.8-0.1,1.2l-0.3,4.4h-1.1l0.7-10.1h1.5l1.8,5.1
					c0.2,0.6,0.4,1.2,0.6,1.8c0.2,0.6,0.3,1.1,0.4,1.6h0.1c0.1-0.5,0.3-1,0.4-1.6c0.2-0.6,0.4-1.1,0.6-1.8l1.9-5.1h1.5l0.6,10.1
					h-1.2L1705.5-2003.1z"/>
			</g>
		</g>
		<g id="Vector">
			<g>
				<path id="path1_fill" class="st0" d="M1612.7-1992.6h-3c-0.5,0-0.6,0.1-0.6,0.7v1.6h3.6V-1992.6z M1614.3-1993.9v6.8h-1.6v-2
					h-3.6v2h-1.6v-5.4c0-0.9,0.4-1.5,1.6-1.5H1614.3z M1605.9-1992.4v3.7c0,1.2-0.7,1.7-1.6,1.7h-5v-6.8h5
					C1605.7-1993.9,1605.9-1993,1605.9-1992.4z M1604.3-1992c0-0.4-0.2-0.6-0.7-0.6h-2.7v4.3h2.7c0.6,0,0.7-0.4,0.7-0.7V-1992z
					 M1567-1993.9h1.6v2.7h3.5v-2.7h1.6v6.8h-1.6v-2.8h-3.5v2.8h-1.6L1567-1993.9z M1576.4-1993.9l2,2.8l2-2.8h1.9l-3.1,4.4v2.5
					h-1.6v-2.5l-3.1-4.4H1576.4z M1591.2-1993.9h5.1c0.7,0,1.4,0.1,1.4,1.5v5.4h-1.6v-4.9c0-0.6-0.1-0.7-0.6-0.7h-2.8v5.6h-1.6
					L1591.2-1993.9L1591.2-1993.9z M1617.4-1993.9v6.8h-1.6v-6.8H1617.4z M1583.1-1987h5.1c1,0,1.4-0.3,1.4-1.7v-5.2h-1.6v4.9
					c0,0.6-0.1,0.7-0.6,0.7h-2.8v-5.5h-1.6L1583.1-1987L1583.1-1987z"/>
			</g>
		</g>
		<g id="Vector_1_">
			<g>
				<path id="path2_fill" class="st0" d="M1607.4-2014.8c-1-0.5-2-0.9-3.1-1.3c-4.8-1.5-10.4-2.1-15.8-1.5c-4.9,0.6-9.7,1.7-13.5,5
					c-1.8,1.6-2.9,4-2,6.3c1.1,2.8,4.2,4.7,6.9,5.7c8.1,3.1,19,3,26.8-0.6c2.7-1.3,5.7-3.4,6-6.5
					C1613.1-2011,1610.1-2013.4,1607.4-2014.8z M1589.4-2013.5c0.7-1.2,1.9-2.7,3.5-2.7c3.5,0,6.9,0.5,10.1,1.3
					c0.2,0.1,0.4,0.1,0.5,0.3c0.1,0.2-0.1,0.3-0.2,0.5c-2.6,1.9-5.7,3-8.7,4c-1.6,0.4-3.1,1-4.9,0.6c-0.4-0.1-0.8-0.4-1-0.7
					C1588.3-2011.4,1588.9-2012.5,1589.4-2013.5z M1578.7-2003.3c-0.4,0.4-0.8-0.1-1.2-0.3c-1.9-1.2-3.5-3-3-5.3
					c0.8-2.9,3.9-4.5,6.6-5.5c1.6-0.6,3.2-1,4.9-1.3c0.2,0,0.4,0,0.5,0.1l-0.1,0.2C1582.9-2011.7,1580.7-2007.5,1578.7-2003.3z
					 M1595.8-2001.9c-0.8,1.1-2,2.1-3.5,1.9c-3.4-0.1-6.7-0.5-9.8-1.4c-0.2,0-0.3-0.1-0.3-0.2c-0.1-0.2,0-0.3,0.2-0.4
					c2.8-2.2,6.1-3.2,9.5-4.2c1.2-0.3,2.5-0.7,3.9-0.5c0.6,0.1,1.1,0.4,1.3,0.9C1597.3-2004.4,1596.5-2003.2,1595.8-2001.9z
					 M1611.1-2007.3c-0.8,3-4.2,4.6-7,5.6c-1.5,0.5-3,0.9-4.6,1.1c-0.1,0-0.3,0-0.3-0.1l0-0.2c2.3-2.5,4.1-5.3,5.6-8.1
					c0.7-1.3,1.4-2.6,2-3.9c0.1-0.1,0.2-0.1,0.3-0.2c0.6,0.1,1,0.5,1.4,0.8C1610.2-2011.1,1611.6-2009.4,1611.1-2007.3z"/>
			</g>
		</g>
		<g id="Rectangle">
			<g>
				<path id="path3_fill" class="st0" d="M1628.3-2023h0.6v40h-0.6V-2023z"/>
			</g>
		</g>
	</g>
</g>
</svg>
