<?xml version="1.0" encoding="utf-8"?>
<!-- Generator: Adobe Illustrator 21.1.0, SVG Export Plug-In . SVG Version: 6.00 Build 0)  -->
<svg version="1.1" id="Иконки" xmlns="http://www.w3.org/2000/svg" xmlns:xlink="http://www.w3.org/1999/xlink" x="0px"
	 y="0px" viewBox="0 0 17.4 18.6" style="enable-background:new 0 0 17.4 18.6;" xml:space="preserve">
<g>
	<path d="M9.2,11.7c0.3,0,0.6-0.2,0.8-0.5l2.9-4C13,7.2,13,7,12.9,6.9c-0.1-0.1-0.3-0.1-0.4,0l-4,2.9C8.2,9.9,8.1,10.2,8,10.6
		c0,0.3,0.1,0.6,0.3,0.9C8.6,11.6,8.9,11.8,9.2,11.7C9.2,11.8,9.2,11.8,9.2,11.7L9.2,11.7z M8.7,10.6c0-0.1,0.1-0.3,0.2-0.4l2.4-1.8
		l-1.8,2.4c-0.1,0.1-0.2,0.2-0.4,0.2c-0.1,0-0.3,0-0.4-0.1C8.7,10.9,8.6,10.8,8.7,10.6L8.7,10.6z M8.7,10.6"/>
	<path d="M16.2,6.1C16.2,6,16.2,6,16.2,6.1C16.1,6,16.1,6,16.2,6.1C15.8,5.5,15.5,5,15,4.5l0.7-0.7l0.4,0.4L17.4,3l-1.3-1.3L14.8,3
		l0.4,0.4l-0.7,0.7c-0.5-0.4-1-0.8-1.5-1.1c0,0,0,0,0,0c0,0,0,0,0,0c-1-0.6-2-0.9-3.2-1.1V1.5h0.5c0.4,0,0.8-0.3,0.8-0.8
		c0-0.4-0.3-0.8-0.8-0.8H7.6C7.1,0,6.8,0.3,6.8,0.8c0,0.4,0.3,0.8,0.8,0.8H8v0.4C7.7,1.9,7.4,2,7,2.1c-0.2,0-0.3,0.2-0.2,0.4
		c0,0.2,0.2,0.3,0.4,0.2C7.5,2.6,7.8,2.6,8,2.5l0.3,0c0.1,0,0.2,0,0.3,0v0.6c0,0.2,0.1,0.3,0.3,0.3c0.2,0,0.3-0.1,0.3-0.3V2.5
		c1.2,0.1,2.3,0.4,3.2,0.9l-0.3,0.5c-0.1,0.1,0,0.3,0.1,0.4c0,0,0.1,0,0.2,0c0.1,0,0.2-0.1,0.3-0.2L13,3.7c1,0.6,1.8,1.4,2.4,2.4
		l-0.5,0.3c-0.1,0.1-0.2,0.3-0.1,0.4C14.9,6.9,15,7,15.1,7c0.1,0,0.1,0,0.2,0l0.5-0.3c0.5,1,0.8,2.1,0.9,3.3H16
		c-0.2,0-0.3,0.1-0.3,0.3c0,0.2,0.1,0.3,0.3,0.3h0.6c0,1.2-0.4,2.3-0.9,3.3l-0.5-0.3c-0.1-0.1-0.3,0-0.4,0.1c-0.1,0.1,0,0.3,0.1,0.4
		l0.5,0.3c-0.6,1-1.4,1.8-2.4,2.4l-0.3-0.5c-0.1-0.1-0.3-0.2-0.4-0.1c-0.1,0.1-0.2,0.3-0.1,0.4l0.3,0.5c-1,0.5-2.1,0.8-3.2,0.9v-0.6
		C9.3,17.1,9.1,17,9,17c-0.2,0-0.3,0.1-0.3,0.3v0.6c-0.5,0-1-0.1-1.5-0.2c-0.2,0-0.3,0.1-0.4,0.2c0,0.2,0.1,0.3,0.2,0.4
		c0.6,0.1,1.2,0.2,1.9,0.2c0,0,0,0,0,0c0,0,0,0,0,0c0,0,0,0,0,0c1.5,0,2.9-0.4,4.1-1.1c0,0,0,0,0,0c0,0,0,0,0,0c1.2-0.7,2.3-1.8,3-3
		c0,0,0,0,0,0c0,0,0,0,0,0c0.7-1.2,1.1-2.6,1.1-4.2C17.3,8.7,16.9,7.3,16.2,6.1L16.2,6.1z M16.1,2.6L16.6,3l-0.4,0.4L15.7,3
		L16.1,2.6z M8.7,1.9V0.9H7.6c-0.1,0-0.2-0.1-0.2-0.2s0.1-0.2,0.2-0.2h2.8c0.1,0,0.2,0.1,0.2,0.2s-0.1,0.2-0.2,0.2H9.3v0.9
		c-0.1,0-0.2,0-0.3,0c0,0,0,0,0,0c0,0,0,0,0,0c-0.1,0-0.1,0-0.2,0C8.7,1.9,8.7,1.9,8.7,1.9L8.7,1.9z M8.7,1.9"/>
	<path d="M6.2,4.3H4.6c-0.2,0-0.3,0.1-0.3,0.3c0,0.2,0.1,0.3,0.3,0.3h1.5c0.2,0,0.3-0.1,0.3-0.3C6.5,4.5,6.4,4.3,6.2,4.3L6.2,4.3z
		 M6.2,4.3"/>
	<path d="M6.2,6.5H3.1c-0.2,0-0.3,0.1-0.3,0.3c0,0.2,0.1,0.3,0.3,0.3h3.1c0.2,0,0.3-0.1,0.3-0.3C6.5,6.6,6.4,6.5,6.2,6.5L6.2,6.5z
		 M6.2,6.5"/>
	<path d="M6.2,8.7H1.5C1.4,8.7,1.2,8.8,1.2,9c0,0.2,0.1,0.3,0.3,0.3h4.6c0.2,0,0.3-0.1,0.3-0.3C6.5,8.8,6.4,8.7,6.2,8.7L6.2,8.7z
		 M6.2,8.7"/>
	<path d="M6.2,10.8H0.3C0.1,10.8,0,11,0,11.1c0,0.2,0.1,0.3,0.3,0.3h5.9c0.2,0,0.3-0.1,0.3-0.3C6.5,11,6.4,10.8,6.2,10.8L6.2,10.8z
		 M6.2,10.8"/>
	<path d="M6.2,13h-4c-0.2,0-0.3,0.1-0.3,0.3c0,0.2,0.1,0.3,0.3,0.3h4c0.2,0,0.3-0.1,0.3-0.3C6.5,13.1,6.4,13,6.2,13L6.2,13z M6.2,13
		"/>
	<path d="M6.2,15.2H4c-0.2,0-0.3,0.1-0.3,0.3c0,0.2,0.1,0.3,0.3,0.3h2.2c0.2,0,0.3-0.1,0.3-0.3C6.5,15.3,6.4,15.2,6.2,15.2L6.2,15.2
		z M6.2,15.2"/>
</g>
</svg>
