<?xml version="1.0" encoding="utf-8"?>
<!-- Generator: Adobe Illustrator 21.1.0, SVG Export Plug-In . SVG Version: 6.00 Build 0)  -->
<svg version="1.1" id="Слой_1" xmlns="http://www.w3.org/2000/svg" xmlns:xlink="http://www.w3.org/1999/xlink" x="0px" y="0px"
	 viewBox="0 0 64.8 89.7" style="enable-background:new 0 0 64.8 89.7;" xml:space="preserve">
<g>
	<path d="M39.3,4.7H8.6C6.6,4.7,5,6.3,5,8.3v27c0,2,1.6,3.6,3.6,3.6h30.8c2,0,3.6-1.6,3.6-3.6v-27C43,6.3,41.3,4.7,39.3,4.7z
		 M40,35.3c0,0.3-0.3,0.6-0.6,0.6H25L14.2,24.4L12,26.5l8.9,9.5H8.6c-0.3,0-0.6-0.3-0.6-0.6v-27C8,8,8.2,7.7,8.6,7.7h30.8
		C39.7,7.7,40,8,40,8.3V35.3z"/>
	<path d="M60.5,55.1c-2.4-9.7-5.2-20.7-5.7-29.7l1,0l-0.4-8.8l-2.9-6.8l-2.8,1.2l2.7,6.3l0.4,8.3l-1,0.1c0.5,9.2,3.3,20.4,5.8,30.3
		c2.8,11.1,5.6,22.6,3.6,25.8c-0.2,0.4-0.5,0.6-1,0.7c-0.5,0.1-0.9,0-1.2-0.2c-2.2-1.6-3.1-8.4-3.9-14.4c-1.2-8.6-2.3-16.8-7.2-17.8
		V7.2c0-4-3.2-7.2-7.2-7.2H7.2C3.2,0,0,3.2,0,7.2v75.3c0,4,3.2,7.2,7.2,7.2h33.5c4,0,7.2-3.2,7.2-7.2V53.1c2.4,1.6,3.4,9,4.2,15
		c1,7.2,1.9,14.1,5.1,16.4c0.8,0.6,1.7,0.9,2.6,0.9c0.3,0,0.6,0,0.9-0.1c1.2-0.2,2.3-0.9,2.9-2C66.4,79,63.8,68.4,60.5,55.1z
		 M44.9,82.5c0,2.3-1.9,4.2-4.2,4.2H7.2c-2.3,0-4.2-1.9-4.2-4.2V7.2C3,4.9,4.9,3,7.2,3h33.5c2.3,0,4.2,1.9,4.2,4.2V82.5z"/>
	<rect x="10.2" y="18.3" transform="matrix(0.7072 -0.707 0.707 0.7072 -10.6619 14.0792)" width="3" height="3.2"/>
	<rect x="35.2" y="18.4" transform="matrix(0.7071 -0.7071 0.7071 0.7071 -3.3036 31.8477)" width="3.2" height="3"/>
	<rect x="22.3" y="15" width="3" height="3.2"/>
</g>
</svg>
