<?xml version="1.0" encoding="iso-8859-1"?>
<!-- Generator: Adobe Illustrator 19.0.0, SVG Export Plug-In . SVG Version: 6.00 Build 0)  -->
<svg version="1.1" id="Capa_1" xmlns="http://www.w3.org/2000/svg" xmlns:xlink="http://www.w3.org/1999/xlink" x="0px" y="0px"
	 viewBox="0 0 512 512" style="enable-background:new 0 0 512 512;" xml:space="preserve">
<g>
	<g>
		<path d="M399.062,0H112.938C80.847,0,54.739,26.108,54.74,58.199v395.602c0,32.091,26.107,58.199,58.198,58.199h286.125
			c32.091,0,58.199-26.108,58.198-58.199V58.199C457.26,26.108,431.153,0,399.062,0z M427.415,453.801
			c0,15.635-12.719,28.354-28.353,28.354H112.937c-15.634,0-28.353-12.72-28.353-28.354V58.199c0-15.635,12.72-28.354,28.354-28.354
			h286.124c15.634,0,28.353,12.72,28.353,28.354V453.801z"/>
	</g>
</g>
<g>
	<g>
		<path d="M386.014,57.38H125.987c-8.241,0-14.922,6.681-14.922,14.922v76.843c0,8.241,6.681,14.922,14.922,14.922h260.026
			c8.242,0,14.922-6.681,14.923-14.922V72.302C400.937,64.061,394.255,57.38,386.014,57.38z M371.092,134.223H140.909V87.225
			h230.183V134.223z"/>
	</g>
</g>
<g>
	<g>
		<path d="M178.624,180.547h-52.638c-8.241,0-14.922,6.681-14.922,14.922v52.637c0,8.241,6.681,14.922,14.922,14.922h52.638
			c8.241,0,14.922-6.68,14.922-14.922v-52.637C193.546,187.228,186.865,180.547,178.624,180.547z M163.702,233.183h-22.793v-22.792
			h22.793V233.183z"/>
	</g>
</g>
<g>
	<g>
		<path d="M282.321,180.547h-52.637c-8.241,0-14.922,6.681-14.922,14.922v52.637c0,8.241,6.681,14.922,14.922,14.922h52.637
			c8.242,0,14.922-6.68,14.922-14.922v-52.637C297.244,187.228,290.562,180.547,282.321,180.547z M267.399,233.183h-22.792v-22.792
			h22.792V233.183z"/>
	</g>
</g>
<g>
	<g>
		<path d="M386.013,180.547h-52.638c-8.241,0-14.922,6.681-14.922,14.922v52.637c0,8.241,6.681,14.922,14.922,14.922h52.638
			c8.242,0,14.922-6.68,14.922-14.922v-52.637C400.936,187.228,394.254,180.547,386.013,180.547z M371.092,233.183h-22.793v-22.792
			h22.793V233.183z"/>
	</g>
</g>
<g>
	<g>
		<path d="M178.624,276.343h-52.638c-8.241,0-14.922,6.681-14.922,14.922v52.637c0,8.241,6.681,14.922,14.922,14.922h52.638
			c8.241,0,14.922-6.68,14.922-14.922v-52.637C193.546,283.024,186.865,276.343,178.624,276.343z M163.702,328.979h-22.793v-22.792
			h22.793V328.979z"/>
	</g>
</g>
<g>
	<g>
		<path d="M282.321,276.343h-52.637c-8.241,0-14.922,6.681-14.922,14.922v52.637c0,8.241,6.681,14.922,14.922,14.922h52.637
			c8.242,0,14.922-6.68,14.922-14.922v-52.637C297.244,283.024,290.562,276.343,282.321,276.343z M267.399,328.979h-22.792v-22.792
			h22.792V328.979z"/>
	</g>
</g>
<g>
	<g>
		<path d="M386.013,276.343h-52.638c-8.241,0-14.922,6.681-14.922,14.922v52.637c0,8.241,6.681,14.922,14.922,14.922h52.638
			c8.242,0,14.922-6.68,14.922-14.922v-52.637C400.936,283.024,394.254,276.343,386.013,276.343z M371.092,328.979h-22.793v-22.792
			h22.793V328.979z"/>
	</g>
</g>
<g>
	<g>
		<path d="M178.624,372.138h-52.638c-8.241,0-14.922,6.681-14.922,14.922v52.638c0,8.241,6.681,14.922,14.922,14.922h52.638
			c8.241,0,14.922-6.681,14.922-14.922V387.06C193.546,378.819,186.865,372.138,178.624,372.138z M163.702,424.775h-22.793v-22.793
			h22.793V424.775z"/>
	</g>
</g>
<g>
	<g>
		<path d="M282.321,372.138h-52.637c-8.241,0-14.922,6.681-14.922,14.922v52.638c0,8.241,6.681,14.922,14.922,14.922h52.637
			c8.242,0,14.922-6.681,14.922-14.922V387.06C297.244,378.819,290.562,372.138,282.321,372.138z M267.399,424.775h-22.792v-22.793
			h22.792V424.775z"/>
	</g>
</g>
<g>
	<g>
		<path d="M386.013,372.138h-52.638c-8.241,0-14.922,6.681-14.922,14.922v52.638c0,8.241,6.681,14.922,14.922,14.922h52.638
			c8.242,0,14.922-6.681,14.922-14.922V387.06C400.936,378.819,394.254,372.138,386.013,372.138z M371.092,424.775h-22.793v-22.793
			h22.793V424.775z"/>
	</g>
</g>
<g>
</g>
<g>
</g>
<g>
</g>
<g>
</g>
<g>
</g>
<g>
</g>
<g>
</g>
<g>
</g>
<g>
</g>
<g>
</g>
<g>
</g>
<g>
</g>
<g>
</g>
<g>
</g>
<g>
</g>
</svg>
