<?xml version="1.0" encoding="utf-8"?>
<!-- Generator: Adobe Illustrator 21.1.0, SVG Export Plug-In . SVG Version: 6.00 Build 0)  -->
<svg version="1.1" id="Слой_1" xmlns="http://www.w3.org/2000/svg" xmlns:xlink="http://www.w3.org/1999/xlink" x="0px" y="0px"
	 viewBox="0 0 68.9 63.3" style="enable-background:new 0 0 68.9 63.3;" xml:space="preserve">
<g>
	<path d="M68.2,27.6C68.1,27,68,26.5,67.8,26c-0.1-0.3-0.1-0.5-0.2-0.8c-0.5-1.9-1.3-3.8-2.1-5.6c-0.4-0.9-0.9-1.8-1.4-2.6v0
		c-0.3-0.4-0.5-0.8-0.8-1.3c-0.8-1.2-1.7-2.4-2.6-3.5c-0.2-0.3-0.4-0.5-0.7-0.7c-0.4-0.4-0.7-0.8-1.1-1.2c-0.1-0.1-0.1-0.1-0.1-0.1
		L57.6,9l0,0l-0.8-0.7C53.1,5,48.6,2.6,43.7,1.3C43.4,1.2,43,1.1,42.6,1c-0.4-0.1-0.8-0.2-1.1-0.3c-0.1,0-0.1,0-0.2,0
		c-0.3-0.1-0.5-0.1-0.8-0.1c-0.3,0-0.6-0.1-0.8-0.1c-0.8-0.1-1.7-0.2-2.5-0.3c0,0-0.1,0-0.1,0c-0.3,0-0.6,0-1-0.1c-0.5,0-1,0-1.5,0
		h-0.2c-0.3,0-0.6,0-0.9,0s-0.6,0-0.9,0c-1.7,0.1-3.3,0.3-4.8,0.6c-0.3,0-0.5,0.1-0.8,0.2v0c-1,0.2-2,0.5-3,0.8c0,0,0,0.1,0,0.1
		C10.1,6.1,0,19.2,0,34.6c0,0.9,0,1.7,0.1,2.6c0,0-0.1,0-0.1,0c0.1,1,0.2,1.9,0.3,2.9c0.1,0,0.1,0,0.2,0C2,49.3,7.2,57.6,15.1,63
		c0.2,0.2,0.5,0.3,0.8,0.3h37.2c0.1,0,0.3,0,0.4-0.1c0.3-0.1,0.5-0.2,0.7-0.4c2.1-1.5,4-3.2,5.7-5c0.3-0.3,0.5-0.6,0.8-0.9
		c0.3-0.4,0.6-0.7,0.9-1.1c0.2-0.2,0.3-0.4,0.5-0.7c0.2-0.2,0.3-0.5,0.5-0.7c0.2-0.2,0.3-0.5,0.5-0.7c1.3-2,2.5-4.1,3.3-6.3
		c0.1-0.3,0.2-0.5,0.3-0.8c0.4-1,0.7-1.9,1-2.9c0.1-0.4,0.2-0.8,0.3-1.1c0.1-0.3,0.1-0.6,0.2-0.9c0.1-0.3,0.1-0.7,0.2-1
		c0.1-0.3,0.1-0.7,0.2-1c0.1-0.3,0.1-0.7,0.1-1c0-0.3,0.1-0.5,0.1-0.8c0-0.2,0-0.4,0.1-0.6c0-0.3,0-0.5,0.1-0.8c0-0.3,0-0.7,0-1
		c0-0.3,0-0.7,0-1.1C68.9,32.1,68.7,29.8,68.2,27.6z M52.6,60.2H16.4C8.2,54.4,3.3,45.1,3,35.1h5.9c0.8,0,1.5-0.7,1.5-1.5
		c0-0.8-0.7-1.5-1.5-1.5H3.1c0.5-7,3.4-13.4,7.8-18.4l4.4,4.4c0.3,0.3,0.7,0.4,1.1,0.4c0.4,0,0.8-0.1,1.1-0.4c0.6-0.6,0.6-1.5,0-2.1
		L13,11.5c5.3-5,12.3-8.1,20-8.5v6.4c0,0.8,0.7,1.5,1.5,1.5S36,10.2,36,9.4V3c7.1,0.3,13.5,3,18.6,7.3l-5.5,5.5
		c-0.6,0.6-0.6,1.5,0,2.1c0.3,0.3,0.7,0.4,1.1,0.4c0.4,0,0.8-0.1,1.1-0.4l5.6-5.6c4.4,4.4,7.5,10.2,8.6,16.6c0,0.1,0.3,3,0.3,3.1
		h-5.7c-0.8,0-1.5,0.7-1.5,1.5c0,0.8,0.7,1.5,1.5,1.5H66C65.8,45,60.9,54.4,52.6,60.2z"/>
	<path d="M54.7,32.1H41.4c-0.7-3.2-3.5-5.5-6.9-5.5c-3.9,0-7,3.2-7,7c0,3.8,3.2,7,7,7c3.4,0,6.2-2.4,6.9-5.5h13.4
		c0.8,0,1.5-0.7,1.5-1.5C56.3,32.8,55.5,32.1,54.7,32.1z M34.5,37.6c-2.2,0-4-1.8-4-4c0-2.2,1.8-4,4-4s4.1,1.8,4.1,4
		C38.6,35.8,36.7,37.6,34.5,37.6z"/>
</g>
</svg>
