<?xml version="1.0" encoding="utf-8"?>
<!-- Generator: Adobe Illustrator 21.1.0, SVG Export Plug-In . SVG Version: 6.00 Build 0)  -->
<svg version="1.1" id="Иконки" xmlns="http://www.w3.org/2000/svg" xmlns:xlink="http://www.w3.org/1999/xlink" x="0px"
	 y="0px" viewBox="0 0 16.9 16.9" style="enable-background:new 0 0 16.9 16.9;" xml:space="preserve">
<g>
	<path d="M16.2,5.2c-0.9-2.1-2.4-3.6-4.5-4.5C10.7,0.2,9.6,0,8.4,0C7.3,0,6.2,0.2,5.2,0.7C3.1,1.6,1.6,3.1,0.7,5.2
		C0.2,6.2,0,7.3,0,8.4c0,1.1,0.2,2.2,0.7,3.3c0.9,2.1,2.4,3.6,4.5,4.5c1,0.4,2.1,0.7,3.3,0.7c1.1,0,2.2-0.2,3.3-0.7
		c2.1-0.9,3.6-2.4,4.5-4.5c0.4-1,0.7-2.1,0.7-3.3C16.9,7.3,16.7,6.2,16.2,5.2L16.2,5.2z M14.9,12.2c-0.7,1.1-1.6,2-2.7,2.7
		c-1.1,0.7-2.4,1-3.7,1c-1,0-2-0.2-2.9-0.6c-0.9-0.4-1.7-0.9-2.4-1.6C2.5,13,2,12.2,1.6,11.3C1.2,10.4,1,9.4,1,8.4
		c0-1.3,0.3-2.6,1-3.7c0.7-1.1,1.6-2,2.7-2.7c1.1-0.7,2.4-1,3.7-1c1.3,0,2.6,0.3,3.7,1c1.1,0.7,2.1,1.6,2.7,2.7c0.7,1.1,1,2.4,1,3.7
		C15.9,9.8,15.5,11,14.9,12.2L14.9,12.2z M14.9,12.2"/>
	<path d="M9,8.4V3.6c0-0.3-0.2-0.5-0.5-0.5c-0.3,0-0.5,0.2-0.5,0.5v4.9c0,0,0,0,0,0.1c0,0.2,0,0.3,0.1,0.4l2.8,2.8
		c0.2,0.2,0.5,0.2,0.7,0c0.2-0.2,0.2-0.5,0-0.7L9,8.4z M9,8.4"/>
</g>
</svg>
