<?xml version="1.0" encoding="utf-8"?>
<!-- Generator: Adobe Illustrator 21.1.0, SVG Export Plug-In . SVG Version: 6.00 Build 0)  -->
<svg version="1.1" id="Иконки" xmlns="http://www.w3.org/2000/svg" xmlns:xlink="http://www.w3.org/1999/xlink" x="0px"
	 y="0px" viewBox="0 0 18.6 18.6" style="enable-background:new 0 0 18.6 18.6;" xml:space="preserve">
<g>
	<path d="M18.2,11.7C18.2,11.7,18.2,11.7,18.2,11.7c0.2-0.8,0.3-1.6,0.3-2.4c0-0.8-0.1-1.6-0.3-2.4c0,0,0,0,0,0c0,0,0,0,0,0
		c-0.2-0.8-0.5-1.5-0.9-2.2c0,0,0,0,0,0c0,0,0,0,0,0c-0.4-0.7-0.9-1.3-1.4-1.9c0,0,0,0,0,0c0,0,0,0,0,0c-0.6-0.6-1.2-1-1.9-1.4
		c0,0,0,0,0,0c0,0,0,0,0,0c-0.7-0.4-1.4-0.7-2.2-0.9c0,0,0,0,0,0c0,0,0,0,0,0C10.9,0.1,10.1,0,9.3,0C8.4,0,7.6,0.1,6.9,0.3
		c0,0,0,0,0,0c0,0,0,0,0,0C6.1,0.5,5.3,0.8,4.7,1.2c0,0,0,0,0,0c0,0,0,0,0,0C3.9,1.7,3.3,2.1,2.7,2.7c0,0,0,0,0,0c0,0,0,0,0,0
		c-0.6,0.6-1,1.2-1.4,1.9c0,0,0,0,0,0c0,0,0,0,0,0C0.8,5.3,0.5,6.1,0.3,6.9c0,0,0,0,0,0c0,0,0,0,0,0C0.1,7.6,0,8.4,0,9.3
		c0,0.8,0.1,1.6,0.3,2.4c0,0,0,0,0,0c0,0,0,0,0,0c0.2,0.8,0.5,1.5,0.9,2.2c0,0,0,0,0,0c0,0,0,0,0,0c0.4,0.7,0.9,1.3,1.4,1.9
		c0,0,0,0,0,0c0,0,0,0,0,0c0.6,0.6,1.2,1,1.9,1.4c0,0,0,0,0,0c0,0,0,0,0,0c0.7,0.4,1.4,0.7,2.2,0.9c0,0,0,0,0,0c0,0,0,0,0,0
		c0.8,0.2,1.6,0.3,2.4,0.3c0.8,0,1.6-0.1,2.4-0.3c0,0,0,0,0,0c0,0,0,0,0,0c0.8-0.2,1.5-0.5,2.2-0.9c0,0,0,0,0,0c0,0,0,0,0,0
		c0.7-0.4,1.3-0.9,1.9-1.4c0,0,0,0,0,0c0,0,0,0,0,0c0.6-0.6,1-1.2,1.4-1.9c0,0,0,0,0,0c0,0,0,0,0,0C17.7,13.2,18,12.5,18.2,11.7
		C18.2,11.7,18.2,11.7,18.2,11.7L18.2,11.7z M17,11.7l0.6,0.2c-0.2,0.5-0.4,1-0.6,1.5L16.4,13c-0.1-0.1-0.3,0-0.4,0.1
		c-0.1,0.1,0,0.3,0.1,0.4l0.5,0.3c-0.3,0.5-0.6,0.9-1,1.3l-0.4-0.4c-0.1-0.1-0.3-0.1-0.4,0c-0.1,0.1-0.1,0.3,0,0.4l0.4,0.4
		c-0.4,0.4-0.8,0.7-1.3,1l-0.3-0.5c-0.1-0.1-0.3-0.2-0.4-0.1c-0.1,0.1-0.2,0.3-0.1,0.4l0.3,0.5c-0.5,0.3-1,0.5-1.5,0.6L11.7,17
		c0-0.2-0.2-0.3-0.4-0.2c-0.2,0-0.3,0.2-0.2,0.4l0.2,0.6c-0.5,0.1-1.1,0.2-1.6,0.2v-1.2c0-0.2-0.1-0.3-0.3-0.3S9,16.5,9,16.7v1.2
		c-0.6,0-1.1-0.1-1.6-0.2l0.2-0.6c0-0.2-0.1-0.3-0.2-0.4c-0.2,0-0.3,0.1-0.4,0.2l-0.2,0.6c-0.5-0.2-1-0.4-1.5-0.6l0.3-0.5
		c0.1-0.1,0-0.3-0.1-0.4c-0.1-0.1-0.3,0-0.4,0.1l-0.3,0.5c-0.5-0.3-0.9-0.6-1.3-1l0.4-0.4c0.1-0.1,0.1-0.3,0-0.4
		c-0.1-0.1-0.3-0.1-0.4,0l-0.4,0.4c-0.4-0.4-0.7-0.8-1-1.3l0.5-0.3c0.1-0.1,0.2-0.3,0.1-0.4C2.5,13,2.3,12.9,2.2,13l-0.5,0.3
		c-0.3-0.5-0.5-1-0.6-1.5l0.6-0.2c0.2,0,0.3-0.2,0.2-0.4c0-0.2-0.2-0.3-0.4-0.2l-0.6,0.2c-0.1-0.5-0.2-1.1-0.2-1.6h1.2
		c0.2,0,0.3-0.1,0.3-0.3C2.2,9.1,2,9,1.9,9H0.6c0-0.6,0.1-1.1,0.2-1.6l0.6,0.2c0,0,0.1,0,0.1,0c0.1,0,0.3-0.1,0.3-0.2
		c0-0.2-0.1-0.3-0.2-0.4L1,6.7c0.2-0.5,0.4-1,0.6-1.5l0.5,0.3c0,0,0.1,0,0.2,0c0.1,0,0.2-0.1,0.3-0.2c0.1-0.1,0-0.3-0.1-0.4L1.9,4.7
		c0.3-0.5,0.6-0.9,1-1.3l0.4,0.4c0.1,0.1,0.1,0.1,0.2,0.1c0.1,0,0.2,0,0.2-0.1c0.1-0.1,0.1-0.3,0-0.4L3.4,2.9c0.4-0.4,0.8-0.7,1.3-1
		L5,2.5C5,2.6,5.2,2.6,5.3,2.6c0.1,0,0.1,0,0.2,0c0.1-0.1,0.2-0.3,0.1-0.4L5.2,1.6c0.5-0.3,1-0.5,1.5-0.6l0.2,0.6
		c0,0.1,0.2,0.2,0.3,0.2c0,0,0.1,0,0.1,0c0.2,0,0.3-0.2,0.2-0.4L7.3,0.8C7.9,0.7,8.4,0.6,9,0.6v1.2C9,2,9.1,2.2,9.3,2.2
		S9.6,2,9.6,1.9V0.6c0.6,0,1.1,0.1,1.6,0.2l-0.2,0.6c0,0.2,0.1,0.3,0.2,0.4c0,0,0.1,0,0.1,0c0.1,0,0.3-0.1,0.3-0.2L11.8,1
		c0.5,0.2,1,0.4,1.5,0.6L13,2.2c-0.1,0.1,0,0.3,0.1,0.4c0,0,0.1,0,0.2,0c0.1,0,0.2-0.1,0.3-0.2l0.3-0.5c0.5,0.3,0.9,0.6,1.3,1
		l-0.4,0.4c-0.1,0.1-0.1,0.3,0,0.4c0.1,0.1,0.1,0.1,0.2,0.1c0.1,0,0.2,0,0.2-0.1l0.4-0.4c0.4,0.4,0.7,0.8,1,1.3L16.1,5
		c-0.1,0.1-0.2,0.3-0.1,0.4c0.1,0.1,0.2,0.2,0.3,0.2c0.1,0,0.1,0,0.2,0l0.5-0.3c0.3,0.5,0.5,1,0.6,1.5L17,6.9
		c-0.2,0-0.3,0.2-0.2,0.4c0,0.1,0.2,0.2,0.3,0.2c0,0,0.1,0,0.1,0l0.6-0.2c0.1,0.5,0.2,1.1,0.2,1.6h-1.2c-0.2,0-0.3,0.1-0.3,0.3
		c0,0.2,0.1,0.3,0.3,0.3h1.2c0,0.6-0.1,1.1-0.2,1.6l-0.6-0.2c-0.2,0-0.3,0.1-0.4,0.2C16.7,11.4,16.8,11.6,17,11.7L17,11.7z M17,11.7
		"/>
	<path d="M12.7,9h-2.2C10.4,8.5,10,8.2,9.6,8.1V4c0-0.2-0.1-0.3-0.3-0.3S9,3.8,9,4v4.1C8.4,8.2,8,8.7,8,9.3c0,0.7,0.6,1.2,1.2,1.2
		c0.6,0,1.1-0.4,1.2-0.9h2.2c0.2,0,0.3-0.1,0.3-0.3C13,9.1,12.9,9,12.7,9L12.7,9z M9.3,9.9c-0.3,0-0.6-0.3-0.6-0.6
		c0-0.3,0.3-0.6,0.6-0.6c0.3,0,0.6,0.3,0.6,0.6C9.9,9.6,9.6,9.9,9.3,9.9L9.3,9.9z M9.3,9.9"/>
	<path d="M9.3,10.8c-1.4,0-2.5,1.1-2.5,2.5c0,1.4,1.1,2.5,2.5,2.5c1.4,0,2.5-1.1,2.5-2.5C11.8,11.9,10.6,10.8,9.3,10.8L9.3,10.8z
		 M9.3,15.2c-1,0-1.9-0.8-1.9-1.9c0-1,0.8-1.9,1.9-1.9c1,0,1.9,0.8,1.9,1.9C11.1,14.3,10.3,15.2,9.3,15.2L9.3,15.2z M9.3,15.2"/>
	<path d="M8.6,12.2c-0.1-0.1-0.3-0.1-0.4,0c-0.1,0.1-0.1,0.3,0,0.4l0.9,0.9c0.1,0.1,0.1,0.1,0.2,0.1c0.1,0,0.2,0,0.2-0.1
		c0.1-0.1,0.1-0.3,0-0.4L8.6,12.2z M8.6,12.2"/>
</g>
</svg>
