<?xml version="1.0" encoding="utf-8"?>
<!-- Generator: Adobe Illustrator 21.1.0, SVG Export Plug-In . SVG Version: 6.00 Build 0)  -->
<svg version="1.1" id="Слой_1" xmlns="http://www.w3.org/2000/svg" xmlns:xlink="http://www.w3.org/1999/xlink" x="0px" y="0px"
	 viewBox="0 0 79.5 87.8" style="enable-background:new 0 0 79.5 87.8;" xml:space="preserve">
<g>
	<path d="M79.1,9c-0.3-0.3-0.7-0.5-1.1-0.5H62.8v-7c0-0.8-0.7-1.5-1.5-1.5H18.6c-0.8,0-1.5,0.7-1.5,1.5v7H1.5C1.1,8.5,0.7,8.7,0.4,9
		S0,9.7,0,10.1c0,0.3,0.3,6.7,2.6,14.1c3.2,9.9,8.6,16.9,15.8,20.1c2.4,8,7.9,14.3,14.8,16.8v0.3c0,8.3-6.3,14.9-14.4,14.9
		c-0.8,0-1.5,0.7-1.5,1.5v8.5c0,0.8,0.7,1.5,1.5,1.5h42.5c0.8,0,1.5-0.7,1.5-1.5v-8.5c0-0.8-0.7-1.5-1.5-1.5
		c-8.2,0-14.9-6.7-14.9-14.9v-0.2c7.2-2.5,12.8-8.9,15.2-17.1c6.9-3.3,12.2-10.2,15.3-19.9c2.4-7.4,2.6-13.9,2.6-14.1
		C79.6,9.7,79.4,9.3,79.1,9z M3.1,11.5h14v24c0,1.7,0.1,3.3,0.4,4.9C6.1,33.6,3.6,16.7,3.1,11.5z M59.8,79.2v5.5H20.3v-5.5
		c8.8-0.7,15.6-8,15.8-17.3c1.2,0.2,2.5,0.4,3.8,0.4c1.2,0,2.4-0.1,3.5-0.3C43.8,71.1,50.9,78.5,59.8,79.2z M59.8,9.1V11v24.6
		c0,10.9-6.2,20.1-14.6,22.9l-1.3,0.4c-1.3,0.3-2.6,0.5-3.9,0.5c-1.5,0-3-0.2-4.4-0.6c-0.3-0.1-0.8-0.3-1-0.3
		c-8.3-2.8-14.5-12-14.5-22.9V3.1h39.7V9.1z M62.5,40.2c0.2-1.5,0.4-3.1,0.4-4.7v-24h13.6C76,16.7,73.6,33.1,62.5,40.2z"/>
	<path d="M30.8,31l-1.4,8.2c-0.2,0.9,0.2,1.8,1,2.4c0.4,0.3,0.9,0.5,1.5,0.5c0.4,0,0.8-0.1,1.1-0.3l7.6-3.8l7.2,3.8
		c0.8,0.4,1.8,0.4,2.6-0.2s1.1-1.5,1-2.4L50,31l6-5.8c0.7-0.7,0.9-1.6,0.6-2.5c-0.5-0.9-1.2-1.6-2.2-1.7l-8.2-1.2l-3.7-7.5
		c-0.4-0.8-1.3-1.4-2.2-1.4c-0.9,0-1.8,0.5-2.2,1.4l-3.7,7.5L26.2,21c-0.9,0.1-1.7,0.8-2,1.7c-0.3,0.9-0.1,1.9,0.6,2.5L30.8,31z
		 M35.7,22.6c0.5-0.1,0.9-0.4,1.1-0.8l3.5-7.2l3.5,7.2c0.2,0.4,0.6,0.8,1.1,0.8l7.9,1.2l-5.6,5.6c-0.4,0.3-0.5,0.8-0.4,1.3l1.4,7.9
		L41.3,35c-0.4-0.2-0.9-0.2-1.4,0l-7.4,3.7l1.4-8c0.1-0.5-0.1-1-0.4-1.3l-5.7-5.6L35.7,22.6z"/>
</g>
</svg>
