<?xml version="1.0" encoding="utf-8"?>
<!-- Generator: Adobe Illustrator 21.1.0, SVG Export Plug-In . SVG Version: 6.00 Build 0)  -->
<svg version="1.1" id="Иконки" xmlns="http://www.w3.org/2000/svg" xmlns:xlink="http://www.w3.org/1999/xlink" x="0px"
	 y="0px" viewBox="0 0 14.2 18.6" style="enable-background:new 0 0 14.2 18.6;" xml:space="preserve">
<g>
	<path d="M7.1,18.6c-2.5,0-7.1-0.4-7.1-1.9V16c0-1,0.6-2,1.5-2.4l2.9-1.7c0,0,0.1,0,0.2-0.1H2.3c-0.1,0-0.8,0.1-1.3-0.3
		c-0.2-0.1-0.4-0.3-0.4-0.6c-0.1-0.3,0-0.5,0.1-0.8C1.1,9.3,2.3,7,2.5,4.6c0.1-0.8,0.2-1.5,0.5-2C3.5,1.4,4.6,0,7,0
		c4.1,0,4.2,4.2,4.2,4.2c0,2.5,1.6,4.9,2.2,5.8c0.2,0.2,0.2,0.6,0.1,0.8c-0.1,0.3-0.3,0.5-0.6,0.6c-0.7,0.3-1.7,0.2-1.7,0.2l-2.4,0
		c0.1,0.2,0.2,0.3,0.3,0.3l3.4,1.5c1,0.5,1.6,1.4,1.6,2.5v0.6C14.2,18.2,9.6,18.6,7.1,18.6L7.1,18.6z M2.2,11.1h2.5
		c0.2,0,0.5,0.1,0.5,0.4c0.1,0.2,0,0.5-0.2,0.6c-0.3,0.2-0.4,0.3-0.4,0.3l-2.9,1.7c-0.7,0.4-1.1,1.1-1.1,1.9v0.7
		c0,0.4,2.3,1.2,6.5,1.2c4.2,0,6.5-0.8,6.5-1.2v-0.6c0-0.8-0.5-1.6-1.2-1.9L9,12.7c-0.3-0.2-0.5-0.4-0.6-0.7c-0.1-0.2-0.1-0.4,0-0.6
		c0.1-0.2,0.3-0.3,0.5-0.3h2.4c0,0,0.8,0.1,1.4-0.2c0.1,0,0.2-0.1,0.2-0.2c0-0.1,0-0.2-0.1-0.3c-0.7-1-2.3-3.5-2.3-6.2
		c0-0.1-0.1-3.6-3.6-3.6C5,0.6,4,1.8,3.5,2.9C3.3,3.4,3.2,4,3.1,4.7c-0.2,2.5-1.4,4.8-2,5.7c-0.1,0.1-0.1,0.2,0,0.3
		c0,0.1,0.1,0.2,0.2,0.2C1.7,11.2,2.2,11.1,2.2,11.1L2.2,11.1z M2.2,11.1"/>
</g>
</svg>
