<?xml version="1.0" encoding="utf-8"?>
<!-- Generator: Adobe Illustrator 21.1.0, SVG Export Plug-In . SVG Version: 6.00 Build 0)  -->
<svg version="1.1" id="Слой_1" xmlns="http://www.w3.org/2000/svg" xmlns:xlink="http://www.w3.org/1999/xlink" x="0px" y="0px"
	 viewBox="0 0 94.1 94.8" style="enable-background:new 0 0 94.1 94.8;" xml:space="preserve">
<g>
	<path d="M62.5,33.4c-0.8-0.1-1.5,0.1-2.2,0.6L30,58c-0.6,0.5-1.1,1.4-1.1,2.2c0,0.8,0.2,1.5,0.7,2c0.6,0.7,1.4,1.1,2.3,1.1
		c0.3,0,1.2,0,1.9-0.7l30.2-24c0.6-0.5,1.1-1.4,1.1-2.2c0-0.8-0.2-1.5-0.7-2C64,33.9,63.3,33.5,62.5,33.4z"/>
	<path d="M39.1,47.4c0.4,0,0.9,0,1.5-0.1c2.4-0.4,4.5-1.6,5.9-3.6c1.4-2,2-4.4,1.6-6.8c-0.4-2.4-1.7-4.5-3.6-6
		c-1.9-1.4-4.3-2-6.7-1.7c-2.4,0.4-4.5,1.7-6,3.6c-1.4,1.9-2,4.3-1.7,6.7C30.8,44,34.7,47.4,39.1,47.4z M38.6,35.3
		c0.1,0,0.3,0,0.5-0.1l0.1,0c1.5,0,2.8,1.1,3,2.6c0.1,0.8-0.1,1.6-0.5,2.3c-0.5,0.7-1.2,1.1-2,1.2c-0.8,0.1-1.6-0.1-2.3-0.5
		c-0.7-0.5-1.1-1.2-1.2-2C35.8,37.2,37,35.6,38.6,35.3z"/>
	<path d="M55.1,49.4c-5,0-9.1,4.1-9.1,9.1s4.1,9.1,9.1,9.1s9.1-4.1,9.1-9.1C64.1,53.5,60,49.4,55.1,49.4z M55.1,61.5
		c-1.7,0-3.1-1.4-3.1-3.1s1.4-3.1,3.1-3.1s3.1,1.4,3.1,3C58.1,60.1,56.8,61.5,55.1,61.5z"/>
	<path d="M94.1,47c0-5.2-5.1-7.7-9.2-9.7c-2.4-1.2-5.3-2.7-5.9-3.9c-0.6-1.4,0.7-4.8,1.4-6.8c1.5-4.1,3.4-9.2-0.1-12.7
		c-3.3-3.3-7.9-2.3-11.9-1.4l-0.8,0.2c-2.3,0.5-4.9,1-6.2,0.5c-1.5-0.6-3.1-3.1-4.3-5.1l-0.2-0.3C54.7,4.3,51.9,0,47,0
		c-5.1,0-7.9,4.7-10,8.1c-1.4,2.3-2.7,4.6-4.2,5.2c-1.5,0.6-4.7-0.2-6.8-0.7c-4.2-1-8.9-2.2-12.2,1.1c-3.4,3.4-1.9,8.2-0.5,12.4
		l0.1,0.2c0.7,2.1,1.8,5.3,1.1,6.9c-0.6,1.3-3.1,2.7-5.3,3.8l-0.4,0.2C4.8,39.4,0,42,0,47c0,0.1,0,0.3,0,0.5c0,0.1,0,0.2,0,0.3
		c0,5.3,5.4,8,8.9,9.7l0.3,0.1c2.2,1.2,4.8,2.5,5.3,3.8c0.6,1.3-0.3,4.1-1,6.6l-0.2,0.6c-1.3,4.2-2.9,9,0.5,12.4
		c3.4,3.4,8,2.2,12.1,1.1l0.1,0c2.1-0.5,5.2-1.3,6.8-0.7c1.4,0.6,2.8,2.9,4.2,5.2c2.1,3.4,4.9,8.1,10,8.1c5.1,0,8-4.6,10.1-8
		c1.2-2,2.8-4.5,4.3-5.1c1.6-0.6,4.2-0.1,6.7,0.6l0.2,0c4.1,0.9,8.7,2,12-1.3c3.5-3.5,1.6-8.6,0.1-12.7c-0.9-2.6-2-5.4-1.4-6.8
		c0.6-1.4,3.4-2.7,5.9-3.9l0.3-0.1c4-2,8.9-4.6,8.9-9.6c0-0.2,0-0.3,0-0.4C94.1,47.3,94.1,47.1,94.1,47z M88,48.2
		c0.1,1.1-4.2,3.2-5.9,4l-0.4,0.2c-3.4,1.8-6.9,3.6-8.3,6.8c-1.5,3.3-0.2,7,1,10.5l0.3,0.9c0.8,2.2,2,5.4,1.2,6.2
		c-1,1-4.1,0.3-6.6-0.3c-3.8-0.9-7.2-1.6-10.4-0.2c-3.4,1.4-5.5,4.9-7,7.4l-0.1,0.1c-1.7,2.6-3.2,5.1-5,5.1c-1.7,0-3.3-2.7-4.9-5.3
		c-2-3.4-3.9-6.3-7-7.6c-1.3-0.5-2.6-0.7-3.9-0.7c-2.2,0-4.4,0.5-6.6,1.2l-0.2,0.1c-2.5,0.6-5.4,1.3-6.3,0.4c-0.9-0.9,0.3-4.4,1-6.5
		l0.1-0.3c1.1-3.6,2.3-7.4,0.9-10.7c-1.4-3.5-5.3-5.4-8.4-7c-2.7-1.4-5.6-2.9-5.6-4.5c0-0.1,0-0.3,0-0.5c0-0.1,0-0.2,0-0.3
		c0-1.4,2.7-2.9,5.3-4.3l0.3-0.2c3.1-1.6,7-3.5,8.4-7c1.4-3.6,0.1-7.7-1-11c-0.7-2.3-1.8-5.7-1-6.5c1-1,4.1-0.2,6.6,0.5l0.4,0.1
		c3.4,0.8,6.9,1.7,10.2,0.3c3.1-1.3,5-4.2,7-7.6l0.2-0.3c1.6-2.6,3.1-5,4.8-5c1.7,0,3.3,2.5,5,5.1l0.1,0.1c1.9,2.9,3.8,6,7,7.4
		c3.2,1.3,6.6,0.6,9.9-0.1l0.5-0.1c2.5-0.6,5.5-1.3,6.6-0.3c0.7,0.7-0.4,4-1.2,6.1l-0.1,0.2c-1.3,3.6-2.8,7.6-1.3,11.2
		c1.4,3.3,4.9,5.1,8.3,6.8l0.4,0.2c2.2,1.1,5.9,2.8,5.9,4.5c0,0.1,0,0.3,0,0.5C88,47.9,88,48,88,48.2z"/>
</g>
</svg>
