<?xml version="1.0" encoding="utf-8"?>
<!-- Generator: Adobe Illustrator 22.0.1, SVG Export Plug-In . SVG Version: 6.00 Build 0)  -->
<svg version="1.1" id="Слой_1" xmlns="http://www.w3.org/2000/svg" xmlns:xlink="http://www.w3.org/1999/xlink" x="0px" y="0px"
	 viewBox="0 0 190 191" style="enable-background:new 0 0 190 191;" xml:space="preserve">
<style type="text/css">
	.st0{clip-path:url(#SVGID_2_);}
	.st1{fill:#4485E0;}
	.st1{fill: none; stroke: #4485E0;}
	.st2{clip-path:url(#SVGID_4_);}
	.st3{clip-path:url(#SVGID_6_);}
	.st4{clip-path:url(#SVGID_8_);}
	.st5{clip-path:url(#SVGID_10_);}
	.st6{clip-path:url(#SVGID_12_);}
	.st7{clip-path:url(#SVGID_14_);}
	.st8{clip-path:url(#SVGID_16_);}
</style>
<g>
	<defs>
		<rect id="SVGID_1_" x="-1325" y="-444" width="1920" height="1080"/>
	</defs>
	<clipPath id="SVGID_2_">
		<use xlink:href="#SVGID_1_"  style="overflow:visible;"/>
	</clipPath>
	<g class="st0">
		<path class="st1" d="M51,0v190h139V0H51z M101.6,189H52V1h49.6V189z M102.6,189H189V1h-86.4V189z"/>
	</g>
</g>
<g>
	<defs>
		<rect id="SVGID_3_" x="-1325" y="-444" width="1920" height="1080"/>
	</defs>
	<clipPath id="SVGID_4_">
		<use xlink:href="#SVGID_3_"  style="overflow:visible;"/>
	</clipPath>
	<g class="st2">
		<path class="st1" d="M88.8,120.7H64.5V18h24.3V120.7z M87.8,119.7H65.5V19h22.3V119.7z"/>
	</g>
</g>
<g>
	<defs>
		<rect id="SVGID_5_" x="-1325" y="-444" width="1920" height="1080"/>
	</defs>
	<clipPath id="SVGID_6_">
		<use xlink:href="#SVGID_5_"  style="overflow:visible;"/>
	</clipPath>
	<g class="st3">
		<path class="st1" d="M76.7,143.6c6.2,0,11.2,5,11.2,11.2c0,6.2-5,11.2-11.2,11.2s-11.2-5-11.2-11.2
			C65.5,148.6,70.5,143.6,76.7,143.6 M76.7,167c6.7,0,12.2-5.4,12.2-12.2v0c0-6.7-5.4-12.2-12.2-12.2s-12.2,5.4-12.2,12.2v0
			C64.5,161.5,69.9,167,76.7,167"/>
	</g>
</g>
<g>
	<defs>
		<rect id="SVGID_7_" x="-1325" y="-444" width="1920" height="1080"/>
	</defs>
	<clipPath id="SVGID_8_">
		<use xlink:href="#SVGID_7_"  style="overflow:visible;"/>
	</clipPath>
	<g class="st4">
		<path class="st1" d="M38,120.7H13.7V18H38V120.7z M37,119.7H14.7V19H37V119.7z"/>
	</g>
</g>
<g>
	<defs>
		<rect id="SVGID_9_" x="-1325" y="-444" width="1920" height="1080"/>
	</defs>
	<clipPath id="SVGID_10_">
		<use xlink:href="#SVGID_9_"  style="overflow:visible;"/>
	</clipPath>
	<g class="st5">
		<path class="st1" d="M25.8,166c-6.2,0-11.2-5-11.2-11.2c0-6.2,5-11.2,11.2-11.2s11.2,5,11.2,11.2C37,161,32,166,25.8,166
			 M25.8,142.6L25.8,142.6c-6.7,0-12.2,5.4-12.2,12.2v0c0,6.7,5.4,12.2,12.2,12.2c6.7,0,12.2-5.4,12.2-12.2v0
			C38,148.1,32.6,142.6,25.8,142.6"/>
	</g>
</g>
<g>
	<defs>
		<rect id="SVGID_11_" x="-1325" y="-444" width="1920" height="1080"/>
	</defs>
	<clipPath id="SVGID_12_">
		<use xlink:href="#SVGID_11_"  style="overflow:visible;"/>
	</clipPath>
	<g class="st6">
		<path class="st1" d="M0,190h38v-1h-1H1V1h36h1V0H0V190z"/>
	</g>
</g>
<g>
	<defs>
		<rect id="SVGID_13_" x="-1325" y="-444" width="1920" height="1080"/>
	</defs>
	<clipPath id="SVGID_14_">
		<use xlink:href="#SVGID_13_"  style="overflow:visible;"/>
	</clipPath>
	<g class="st7">
		<path class="st1" d="M123,57.7h45.3v-1H123V57.7z"/>
	</g>
</g>
<g>
	<defs>
		<rect id="SVGID_15_" x="-1325" y="-444" width="1920" height="1080"/>
	</defs>
	<clipPath id="SVGID_16_">
		<use xlink:href="#SVGID_15_"  style="overflow:visible;"/>
	</clipPath>
	<g class="st8">
		<path class="st1" d="M123,77.5h32.5v-1H123V77.5z"/>
	</g>
</g>
</svg>
