<?xml version="1.0" encoding="utf-8"?>
<!-- Generator: Adobe Illustrator 21.1.0, SVG Export Plug-In . SVG Version: 6.00 Build 0)  -->
<svg version="1.1" id="Слой_1" xmlns="http://www.w3.org/2000/svg" xmlns:xlink="http://www.w3.org/1999/xlink" x="0px" y="0px"
	 viewBox="0 0 92.3 91.5" style="enable-background:new 0 0 92.3 91.5;" xml:space="preserve">
<path d="M79.6,20.8l-6.6-0.2l4.8-4.8c0.6-0.6,0.6-1.5,0-2.1c-0.6-0.6-1.5-0.6-2.1,0L71.4,18l0.1-5.7l4.9-4.6c0,0,0,0,0,0l2.7-2.6
	l-0.2,6.8c0,0.8,0.6,1.5,1.5,1.5l6.8,0.2L79.6,20.8z M46.5,42.9c-2-1.6-4.6-2.5-7.4-2.5c-6.6,0-12,5.4-12,12s5.4,12,12,12
	s12-5.4,12-12c0-2.8-1-5.3-2.5-7.4l9.4-9.4c4,4.5,6.4,10.3,6.4,16.8c0,13.9-11.3,25.3-25.3,25.3c-13.9,0-25.3-11.3-25.3-25.3
	c0-13.9,11.3-25.3,25.3-25.3c6.4,0,12.3,2.4,16.8,6.4L46.5,42.9z M48.2,52.4c0,5-4.1,9-9,9s-9-4.1-9-9c0-5,4.1-9,9-9
	c1.9,0,3.7,0.6,5.2,1.7l-6.3,6.3c-0.6,0.6-0.6,1.5,0,2.1c0.3,0.3,0.7,0.4,1.1,0.4s0.8-0.1,1.1-0.4l6.3-6.3
	C47.5,48.7,48.2,50.5,48.2,52.4z M75.2,52.4c0,19.9-16.2,36.1-36.1,36.1S3,72.3,3,52.4c0-19.9,16.2-36.1,36.1-36.1
	c9.4,0,18,3.6,24.4,9.6L58,31.4c-5-4.5-11.6-7.3-18.9-7.3c-15.6,0-28.3,12.7-28.3,28.3c0,15.6,12.7,28.3,28.3,28.3
	c15.6,0,28.3-12.7,28.3-28.3c0-7.3-2.8-13.9-7.3-18.9l5.6-5.6C71.6,34.4,75.2,43,75.2,52.4z M92.2,11.6c-0.2-0.6-0.8-0.9-1.4-1
	L82,10.4l0.2-8.9c0-0.6-0.3-1.2-0.9-1.4c-0.6-0.2-1.2-0.1-1.6,0.3L69,10.6c-0.3,0.3-0.5,0.7-0.5,1l-0.2,9.5l-2.6,2.6
	c-7-6.5-16.3-10.4-26.6-10.4C17.6,13.3,0,30.9,0,52.4C0,74,17.6,91.5,39.1,91.5S78.2,74,78.2,52.4c0-10.3-4-19.6-10.4-26.6l2.3-2.3
	l10,0.2c0,0,0,0,0,0c0.4,0,0.8-0.1,1-0.4l10.6-10.1C92.3,12.8,92.4,12.2,92.2,11.6z"/>
</svg>
