<svg width="71" height="56" viewBox="0 0 71 56" fill="none" xmlns="http://www.w3.org/2000/svg">
<path d="M15.621 9.61381C10.7555 9.51163 7.07744 9.2197 3.58762 7.83301C2.53054 7.4097 1.53137 6.76744 0.604615 6.11059C-0.0904534 5.6143 -0.191817 4.94285 0.329485 4.2568C0.865267 3.57075 1.53137 2.91389 2.26988 2.47599C4.1958 1.32285 6.36789 0.81196 8.56894 0.476234C13.7096 -0.297395 18.8212 -0.195218 23.8315 1.27906C24.8886 1.58559 25.8877 2.09647 26.8724 2.59277C27.3358 2.82631 27.7847 3.17664 28.1178 3.57075C29.3341 5.00123 29.0445 5.67268 27.8716 6.5193C26.0905 7.81841 24.0342 8.46067 21.9056 8.81099C19.4584 9.2343 16.9677 9.45325 15.621 9.61381Z" transform="translate(42.098 6.92627)" fill="#870C29"/>
<path d="M14.4728 9.56314C10.9106 9.51935 7.3773 9.22741 4.0178 7.98668C2.87384 7.56338 1.78779 6.95031 0.78863 6.26427C-0.18157 5.59281 -0.253972 4.80459 0.556942 3.91419C1.17961 3.22814 1.96156 2.64427 2.77247 2.20636C4.8432 1.11161 7.11665 0.64451 9.41907 0.352575C14.328 -0.275086 19.1935 -0.129118 23.9576 1.31596C25.0147 1.63709 26.0138 2.14798 26.9985 2.65886C27.4619 2.89241 27.8674 3.27193 28.2294 3.66604C29.214 4.7608 29.1416 5.59282 27.9832 6.46862C26.3324 7.72394 24.392 8.3808 22.3937 8.71652C19.7872 9.16902 17.1517 9.41717 14.5307 9.76749C14.4873 9.69451 14.4873 9.62152 14.4728 9.56314Z" transform="translate(23.9574 20.625)" fill="#870C29"/>
<path d="M14.4656 9.70902C10.7875 9.53385 7.1674 9.18353 3.72101 7.86982C2.67841 7.47571 1.67925 6.87724 0.766972 6.22039C-0.159786 5.56353 -0.24667 4.84829 0.506322 3.98708C1.12899 3.27184 1.91094 2.65878 2.75081 2.22087C5.08219 0.994745 7.65974 0.527649 10.2518 0.25031C14.7552 -0.231383 19.2153 -0.0708189 23.5884 1.1991C24.6889 1.52023 25.746 2.03112 26.7886 2.51281C27.252 2.73176 27.7009 3.08208 28.0629 3.4616C29.1489 4.61474 29.3082 5.56353 27.8312 6.57071C25.9198 7.89902 23.7477 8.55587 21.5032 8.90619C19.1718 9.27111 16.8115 9.44627 14.4656 9.70902Z" fill="#870C29"/>
<path d="M0.0343748 0.0145969C4.50888 2.75879 9.40332 3.28427 14.3702 3.28427C19.337 3.28427 24.2315 2.75879 28.706 -2.22729e-07C28.706 1.02177 28.7494 1.98516 28.677 2.94855C28.6625 3.24048 28.4019 3.6054 28.1412 3.75137C27.0697 4.39363 26.0126 5.10887 24.8541 5.53218C21.1036 6.88968 17.1939 7.19621 13.2407 7.09403C10.055 7.00645 6.8837 6.67072 3.87173 5.53218C2.75673 5.10887 1.72861 4.46661 0.686002 3.86814C0.179181 3.57621 -0.0380282 3.07992 0.00541358 2.45226C0.0778166 1.66403 0.0343748 0.875806 0.0343748 0.0145969Z" transform="translate(0.123779 7.60693)" fill="#870C29"/>
<path d="M28.6918 8.90916e-07C28.6918 1.02177 28.7497 1.97056 28.6629 2.89016C28.6339 3.24048 28.3008 3.62 28.0112 3.86814C26.8093 4.88992 25.3758 5.45919 23.8698 5.85331C17.1942 7.60492 10.5187 7.63411 3.91551 5.51758C2.74258 5.15266 1.69998 4.39363 0.613935 3.76597C0.165036 3.50322 -0.0376917 3.03613 0.00575009 2.46685C0.0636725 1.67863 0.0202294 0.875807 0.0202294 8.90916e-07C4.46577 2.7296 9.36022 3.26968 14.3271 3.26968C19.2794 3.28427 24.1739 2.74419 28.6918 8.90916e-07Z" transform="translate(24.0752 38.5522)" fill="#870C29"/>
<path d="M28.7135 -8.90916e-07C28.7135 1.00718 28.7569 1.92677 28.6845 2.84637C28.6556 3.18209 28.3949 3.6054 28.1198 3.78056C27.0772 4.42282 26.0346 5.15266 24.8906 5.51758C17.7372 7.75088 10.5548 7.75089 3.43035 5.35702C2.40222 5.00669 1.47547 4.33524 0.563188 3.70758C0.259095 3.48863 0.0853269 2.94855 0.0418851 2.52524C-0.0305178 1.70782 0.0129244 0.890402 0.0129244 -8.90916e-07C4.47295 2.74419 9.35291 3.28427 14.3198 3.28427C19.3156 3.26968 24.21 2.74419 28.7135 -8.90916e-07Z" transform="translate(24.0529 28.2324)" fill="#870C29"/>
<path d="M28.7135 4.45458e-07C28.7135 1.02177 28.7424 1.98516 28.6845 2.93395C28.67 3.19669 28.4239 3.54702 28.1922 3.69298C27.0482 4.36444 25.9332 5.12347 24.7168 5.56137C21.3139 6.7875 17.7661 7.09403 14.1749 7.07943C10.5838 7.06483 7.03602 6.71451 3.66204 5.43C2.56151 5.00669 1.53339 4.32064 0.534226 3.66379C0.244614 3.47403 0.0853283 2.94855 0.0418865 2.55444C-0.0305165 1.73702 0.0129257 0.905 0.0129257 4.45458e-07C4.47295 2.715 9.36739 3.26968 14.3632 3.26968C19.359 3.25508 24.239 2.7004 28.7135 4.45458e-07Z" transform="translate(24.038 33.3994)" fill="#870C29"/>
<path d="M0.0193075 0.0291938C6.40525 4.48121 22.6814 4.34984 28.6909 -4.45458e-07C28.6909 1.08016 28.7633 2.08734 28.6475 3.07992C28.604 3.43024 28.1696 3.79516 27.8365 4.0579C26.374 5.19645 24.6653 5.78032 22.8842 6.18903C16.4403 7.64871 10.0109 7.63411 3.69738 5.53218C2.53893 5.15266 1.49633 4.36443 0.453725 3.69298C0.193075 3.53242 0.0482687 3.05072 0.0193075 2.7004C-0.0241343 1.83919 0.0193075 0.977984 0.0193075 0.0291938Z" transform="translate(0.140137 12.7305)" fill="#870C29"/>
<path d="M28.6918 0.0145968C28.6918 1.03637 28.7352 2.01436 28.6628 2.96315C28.6483 3.25508 28.3877 3.62 28.127 3.76597C27.0989 4.37903 26.0853 5.07968 24.9703 5.48839C20.7419 7.02105 16.3543 7.28379 11.9232 7.03564C9.12849 6.88968 6.34821 6.49556 3.71274 5.47379C2.64118 5.06508 1.6565 4.42282 0.671817 3.83895C0.164996 3.54702 -0.0377309 3.05072 0.00571091 2.40847C0.0636333 1.63484 0.0201902 0.861208 0.0201902 -8.90916e-07C4.46573 2.7296 9.37466 3.26967 14.3705 3.26967C19.3228 3.28427 24.2173 2.74419 28.6918 0.0145968Z" transform="translate(24.0752 43.7051)" fill="#870C29"/>
<path d="M0.141521 -1.78183e-06C6.00616 4.26225 22.3258 4.48121 28.7407 -1.78183e-06C28.7407 1.05097 28.7986 2.02895 28.7117 3.00693C28.6828 3.34266 28.3063 3.76596 27.9877 3.94113C26.6555 4.64177 25.3233 5.43 23.8897 5.8679C19.7338 7.15242 15.4475 7.29839 11.1323 6.99185C8.45338 6.8021 5.81791 6.335 3.31277 5.34242C3.19693 5.29863 3.09556 5.25484 2.97972 5.21105C0.170481 3.98492 -0.292897 3.1529 0.141521 -1.78183e-06Z" transform="translate(24.0111 48.8721)" fill="#870C29"/>
<path d="M28.6861 0.0145963C28.6861 1.05097 28.7874 2.02895 28.6426 2.97774C28.5847 3.40105 28.1213 3.89734 27.7159 4.10169C26.2968 4.80234 24.8777 5.57597 23.3717 5.99927C19.1434 7.19621 14.8137 7.31298 10.4695 6.93347C10.2812 6.91887 10.093 6.84588 9.91921 6.7583C7.42855 5.44459 4.73516 4.84613 1.96936 4.46661C0.738512 4.29145 8.83826e-07 3.48863 8.83826e-07 2.23331C8.83826e-07 1.51806 8.83826e-07 0.802822 8.83826e-07 -2.22729e-07C4.48899 2.715 9.38343 3.28427 14.3503 3.26968C19.3171 3.26968 24.1971 2.7296 28.6861 0.0145963Z" transform="translate(42.2247 14.5405)" fill="#870C29"/>
<path d="M28.6747 0C28.776 1.64943 28.7615 1.59105 27.328 2.14572C25.9813 2.67121 24.678 3.28427 23.4182 3.98492C22.6073 4.42282 22.0136 5.15266 21.724 6.08685C21.666 6.26201 21.362 6.46637 21.1447 6.48096C18.6251 6.69992 16.1055 6.99185 13.5859 7.05024C10.2988 7.10863 7.02616 6.67072 3.91283 5.53217C2.75439 5.10887 1.6973 4.39363 0.611257 3.76597C0.147878 3.50323 -0.0258892 3.03613 0.00307202 2.45226C0.0609944 1.66403 0.0175526 0.861209 0.0175526 0C4.49206 2.68581 9.37202 3.24048 14.3533 3.24048C19.3492 3.24048 24.2291 2.68581 28.6747 0Z" transform="translate(0.126709 17.9561)" fill="#870C29"/>
<path d="M21.7338 2.7004C21.7338 3.92653 21.7338 5.15266 21.7338 6.55395C19.8513 6.74371 17.9689 7.00645 16.0864 7.09403C11.7712 7.29838 7.49939 6.94806 3.41587 5.4008C2.40222 5.00669 1.46098 4.37903 0.548707 3.75137C0.259095 3.54702 0.0853278 3.03613 0.041886 2.64201C-0.030517 1.81 0.0129248 0.963386 0.0129248 -8.90916e-07C2.63391 1.7808 5.50107 2.48145 8.44063 2.91935C12.7848 3.56161 17.1435 3.50322 21.4732 2.715C21.5456 2.7004 21.618 2.7004 21.7338 2.7004Z" transform="translate(0.131226 23.0503)" fill="#870C29"/>
<path d="M0.015639 -1.78183e-06C3.46202 2.21871 7.19802 2.84637 11.0064 3.1821C14.5831 3.50323 18.1309 3.29887 21.7221 2.65661C21.7221 3.91193 21.7221 5.13806 21.7221 6.45177C20.6939 6.59774 19.6658 6.7875 18.6087 6.88967C13.555 7.38596 8.53023 7.19621 3.69371 5.47379C2.53526 5.06508 1.49266 4.30605 0.450057 3.62C0.203887 3.45943 0.0590809 2.97774 0.0301197 2.62742C-0.0278027 1.81 0.015639 0.948788 0.015639 -1.78183e-06Z" transform="translate(0.143188 38.8735)" fill="#870C29"/>
<path d="M0.0951573 4.45458e-07C5.38058 3.05073 11.0715 3.41564 16.8637 3.1675C18.5 3.09452 20.1218 2.84637 21.845 2.67121C21.845 3.79516 21.8595 4.94831 21.8161 6.10145C21.8161 6.23282 21.4975 6.42258 21.3092 6.45177C17.5298 7.13782 13.7359 7.24 9.92748 6.80209C7.62507 6.53935 5.35161 6.08685 3.19401 5.22564C2.91887 5.12347 2.6727 4.99209 2.39757 4.87532C0.761265 4.17468 -0.3103 3.1383 0.0806767 1.15314C0.15308 0.802822 0.0951573 0.423307 0.0951573 4.45458e-07Z" transform="translate(0.0640869 28.2905)" fill="#870C29"/>
<path d="M0.0173515 0C1.98671 1.3721 4.07192 2.07274 6.24401 2.52524C11.1819 3.56161 16.1487 3.6054 21.1301 2.78798C21.2749 2.75879 21.4197 2.74419 21.5645 2.7296C21.6079 2.7296 21.6514 2.74419 21.7383 2.77339C21.7383 3.97032 21.7383 5.18185 21.7383 6.52476C20.4205 6.69992 19.0883 6.91887 17.7561 7.02105C13.2092 7.37137 8.67675 7.19621 4.30361 5.73653C3.01484 5.31322 1.84191 4.5396 0.654498 3.88274C0.162157 3.6054 -0.0260903 3.12371 0.00287088 2.52524C0.0607933 1.73702 0.0173515 0.934193 0.0173515 0Z" transform="translate(0.141602 33.356)" fill="#870C29"/>
<path d="M0.579225 7.00645C0.304093 5.76572 0.999162 4.43742 8.83826e-07 3.24048C5.8212 3.31347 11.4542 3.07992 16.6527 8.90916e-07C16.6527 1.03637 16.7396 2.04355 16.6092 3.03613C16.5658 3.40105 16.0879 3.78056 15.7404 4.04331C14.2923 5.13806 12.5836 5.69274 10.846 6.11605C7.64576 6.91887 4.37314 7.15242 1.08605 7.05024C0.926759 7.05024 0.752992 7.02105 0.579225 7.00645Z" transform="translate(54.2445 19.7222)" fill="#870C29"/>
<path d="M16.1024 8.90916e-07C16.1024 1.00718 16.1748 1.92677 16.0735 2.84637C16.03 3.24048 15.668 3.66379 15.335 3.92653C14.0607 4.9775 12.5257 5.53217 10.9763 5.95548C7.60231 6.88967 4.14145 7.16701 0.666108 7.07943C0.448899 7.07943 0.24617 7.03564 0 7.00645C0 5.76572 0 4.55419 0 3.28427C5.53159 3.28427 11.0342 3.05073 16.1024 8.90916e-07Z" transform="translate(54.8081 35.1948)" fill="#870C29"/>
<path d="M16.0735 0C16.0735 1.05097 16.1603 2.04355 16.03 3.00694C15.9721 3.40105 15.5087 3.85355 15.1177 4.0579C13.7711 4.74395 12.4099 5.47379 10.9763 5.89709C7.52991 6.93347 3.96768 7.15242 0.390974 7.06484C0.27513 7.06484 0.159287 7.03564 8.83826e-07 7.02105C8.83826e-07 5.76573 8.83826e-07 4.55419 8.83826e-07 3.28427C5.54607 3.25508 11.0487 3.02153 16.0735 0Z" transform="translate(54.823 24.8896)" fill="#870C29"/>
<path d="M-8.83826e-07 6.97726C-8.83826e-07 5.72193 -8.83826e-07 4.525 -8.83826e-07 3.25508C5.56055 3.26968 11.0487 2.99234 16.0879 0C16.0879 1.05097 16.1893 2.07274 16.0445 3.05072C15.9866 3.45943 15.4653 3.91193 15.0453 4.11629C13.7421 4.77314 12.4099 5.4446 11.0342 5.8825C7.834 6.87508 2.99748 7.28379 -8.83826e-07 6.97726Z" transform="translate(54.7932 30.0713)" fill="#870C29"/>
</svg>
