<svg width="51" height="51" viewBox="0 0 51 51" fill="none" xmlns="http://www.w3.org/2000/svg">
<path d="M25.5391 0.000255767C39.7066 0.062736 51.0312 11.4498 50.9999 25.6172C50.9687 39.6127 39.4879 51.0622 25.5391 50.9997C11.3248 50.9373 -0.0622246 39.5346 0.000255894 25.4609C0.0627364 11.3092 11.481 -0.0622245 25.5391 0.000255767ZM48.2664 26.1795C48.6257 13.949 39.113 3.13989 26.1483 2.73377C13.8084 2.34326 3.04618 12.0121 2.71816 25.008C2.42137 37.176 11.9496 47.8601 24.8675 48.2506C37.3011 48.6255 47.8447 38.8786 48.2664 26.1795Z" fill="#ECECEC"/>
<path d="M2.0238e-05 19.9C-0.0155999 9.02841 9.01283 -0.0155994 19.8688 2.06797e-05C30.881 2.06797e-05 39.8626 8.91907 39.8938 19.9156C39.925 30.8496 30.881 39.9093 19.9313 39.9093C8.96597 39.878 0.0312605 30.9121 2.0238e-05 19.9ZM21.384 2.93659C21.3683 3.07717 21.3215 3.23337 21.3215 3.37395C21.3215 6.88846 21.3059 10.403 21.3371 13.9175C21.3371 14.1674 21.6183 14.4642 21.8369 14.6204C22.368 14.9797 22.9928 15.214 23.4927 15.6201C23.9144 15.9637 24.1956 15.9793 24.6486 15.7138C27.4914 14.0425 30.3655 12.4023 33.224 10.7466C33.4896 10.5904 33.7551 10.4186 34.005 10.2624C31.5683 6.04498 25.5858 2.82725 21.384 2.93659ZM18.5411 2.93659C14.0269 2.82725 8.2162 6.2949 5.8888 10.2624C6.13873 10.4186 6.40427 10.5904 6.66981 10.7466C9.48143 12.3711 12.3087 13.98 15.1047 15.6357C15.667 15.9637 16.0263 15.9637 16.5261 15.5264C16.9478 15.1515 17.4789 14.8859 18.01 14.6829C18.4786 14.5111 18.6192 14.2611 18.6192 13.7769C18.6036 10.3874 18.6036 7.01343 18.6036 3.62387C18.588 3.38957 18.5567 3.17089 18.5411 2.93659ZM35.3483 27.3039C37.6757 23.3676 37.7695 16.9009 35.4577 12.746C35.3796 12.7616 35.3015 12.746 35.239 12.7772C32.0837 14.5892 28.9285 16.4011 25.7888 18.2442C25.617 18.338 25.5389 18.6972 25.5233 18.9315C25.492 19.6032 25.6014 20.2905 25.4764 20.9465C25.3827 21.4307 25.5233 21.6494 25.8982 21.8681C27.7882 22.9459 29.6782 24.0393 31.5683 25.1327C32.8491 25.8512 34.0987 26.5697 35.3483 27.3039ZM4.46737 12.6679C2.18684 16.6198 2.28056 24.8515 4.60795 27.2883C7.77884 25.4607 10.9497 23.6332 14.105 21.79C14.2924 21.6807 14.3861 21.3058 14.4018 21.0559C14.433 20.3842 14.308 19.6969 14.4018 19.0409C14.4799 18.5566 14.3393 18.3536 13.9488 18.1349C11.2621 16.6041 8.59108 15.0578 5.90442 13.5114C5.45144 13.2146 4.98284 12.949 4.46737 12.6679ZM18.5411 36.9258C18.5567 36.7072 18.588 36.4885 18.588 36.2542C18.588 32.8959 18.5723 29.5532 18.6036 26.1949C18.6036 25.6169 18.4474 25.3201 17.8694 25.1327C17.3696 24.9609 16.8697 24.6641 16.4636 24.3048C16.0419 23.9456 15.7451 23.9924 15.3077 24.2424C12.871 25.6794 10.403 27.0852 7.95066 28.491C7.27899 28.8815 6.62295 29.272 5.95129 29.6625C7.48206 33.1614 14.8391 37.3944 18.5411 36.9258ZM33.9738 29.6781C30.7404 27.8037 27.5539 25.9606 24.3518 24.133C24.18 24.0393 23.8363 24.1174 23.6176 24.2267C23.0397 24.5235 22.5242 24.9453 21.9307 25.1796C21.4621 25.367 21.3215 25.6013 21.3215 26.0855C21.3371 29.5219 21.3215 32.9427 21.3371 36.3791C21.3371 36.5822 21.384 36.7696 21.3996 36.9571C25.742 36.9415 31.4902 33.8487 33.9738 29.6781ZM22.8522 19.9625C22.8679 18.338 21.5714 17.0415 19.9625 17.0415C18.338 17.0415 17.0572 18.338 17.0572 19.9625C17.0572 21.5557 18.3224 22.8209 19.9157 22.8522C21.5245 22.8522 22.8366 21.5713 22.8522 19.9625Z" transform="translate(5.54541 5.56079)" fill="#ECECEC"/>
</svg>
