<svg width="18" height="16" viewBox="0 0 18 16" fill="none" xmlns="http://www.w3.org/2000/svg">
<path d="M14.1667 4.16667H2.5C1.08333 4.16667 0 5.25 0 6.66667V11.6667H3.33333V15H13.3333V11.6667H16.6667V6.66667C16.6667 5.25 15.5833 4.16667 14.1667 4.16667ZM11.6667 13.3333H5V9.16667H11.6667V13.3333ZM14.1667 7.5C13.75 7.5 13.3333 7.16667 13.3333 6.66667C13.3333 6.16667 13.75 5.83333 14.1667 5.83333C14.5833 5.83333 15 6.16667 15 6.66667C15 7.16667 14.5833 7.5 14.1667 7.5ZM13.3333 0H3.33333V3.33333H13.3333V0Z" transform="translate(0.666016 0.5)" stroke="black" stroke-miterlimit="10"/>
</svg>
