<svg width="76" height="27" viewBox="0 0 76 27" fill="none" xmlns="http://www.w3.org/2000/svg">
<path d="M18.0123 20.3073C17.6931 20.3073 17.4343 20.5588 17.4343 20.869C17.4343 21.1792 17.6931 21.4307 18.0123 21.4307C18.3315 21.4307 18.5903 21.1792 18.5903 20.869C18.5903 20.5588 18.3315 20.3073 18.0123 20.3073ZM19.8263 21.4999C19.8049 21.5577 19.781 21.6143 19.7541 21.6694L21.1572 23.0328C21.4844 22.5848 21.7124 22.0638 21.8109 21.4999H19.8263ZM18.6615 22.6319V24.5602C19.2418 24.4645 19.7778 24.2426 20.2389 23.9249L18.8358 22.5614C18.7791 22.5874 18.7211 22.6112 18.6615 22.6319ZM65.0531 20.2381H67.0375C66.939 19.6742 66.7107 19.1533 66.3838 18.7052L64.9806 20.0687C65.0074 20.1237 65.0318 20.1802 65.0531 20.2381ZM18.0123 21.9011C17.877 21.9011 17.7673 22.0077 17.7673 22.1392C17.7673 22.2707 17.8769 22.3773 18.0123 22.3773C18.1476 22.3773 18.2573 22.2708 18.2573 22.1392C18.2572 22.0078 18.1476 21.9011 18.0123 21.9011ZM20.2389 17.813C19.7778 17.4952 19.2418 17.2735 18.6615 17.1778V19.1061C18.7211 19.1268 18.7792 19.1504 18.8359 19.1765L20.2389 17.813ZM18.0123 14.7378C14.5277 14.7378 11.7028 17.4829 11.7028 20.8689C11.7028 24.2551 14.5277 27 18.0123 27C21.4969 27 24.3218 24.255 24.3218 20.8689C24.3218 17.4829 21.4969 14.7378 18.0123 14.7378ZM18.0123 25.2484C15.5233 25.2484 13.5055 23.2877 13.5055 20.869C13.5055 18.4503 15.5233 16.4896 18.0123 16.4896C20.5014 16.4896 22.5191 18.4503 22.5191 20.869C22.5191 23.2877 20.5014 25.2484 18.0123 25.2484ZM65.4655 17.813C65.0045 17.4952 64.4685 17.2735 63.8882 17.1778V19.1061C63.9477 19.1268 64.0058 19.1504 64.0625 19.1765L65.4655 17.813ZM17.1888 19.1766C17.2455 19.1505 17.3035 19.1267 17.3631 19.106V17.1777C16.7828 17.2734 16.2468 17.4953 15.7857 17.813L17.1888 19.1766ZM16.2705 20.0685L14.8674 18.7052C14.5402 19.1532 14.3122 19.6742 14.2137 20.2381H16.1983C16.2196 20.1802 16.2436 20.1236 16.2705 20.0685ZM18.0123 19.8367C18.1476 19.8367 18.2573 19.7301 18.2573 19.5986C18.2573 19.4671 18.1476 19.3605 18.0123 19.3605C17.877 19.3605 17.7673 19.467 17.7673 19.5986C17.7673 19.73 17.877 19.8367 18.0123 19.8367ZM19.0745 20.8689C19.0745 21.0004 19.1842 21.107 19.3195 21.107C19.4549 21.107 19.5646 21.0005 19.5646 20.8689C19.5646 20.7373 19.4549 20.6308 19.3195 20.6308C19.1842 20.6308 19.0745 20.7374 19.0745 20.8689ZM16.1981 21.4999H14.2137C14.3122 22.0638 14.5404 22.5847 14.8675 23.0327L16.2706 21.6693C16.2437 21.6142 16.2194 21.5577 16.1981 21.4999ZM19.8264 20.2381H21.8108C21.7124 19.6742 21.4841 19.1533 21.157 18.7052L19.7539 20.0687C19.7808 20.1237 19.8051 20.1802 19.8264 20.2381ZM15.7856 23.9249C16.2467 24.2427 16.7828 24.4645 17.3631 24.5601V22.6319C17.3035 22.6112 17.2454 22.5876 17.1887 22.5615L15.7856 23.9249ZM16.95 20.8689C16.95 20.7374 16.8404 20.6308 16.705 20.6308C16.5697 20.6308 16.46 20.7373 16.46 20.8689C16.46 21.0005 16.5697 21.107 16.705 21.107C16.8404 21.1069 16.95 21.0004 16.95 20.8689ZM35.1923 0.0373026C35.1598 0.0365513 35.126 0.0359672 35.0922 0.0355498C35.1095 0.0361342 35.1273 0.0367182 35.1448 0.0373026C35.1609 0.0373026 35.1762 0.0373026 35.1923 0.0373026ZM65.053 21.4999C65.0316 21.5577 65.0076 21.6143 64.9807 21.6694L66.3838 23.0328C66.7109 22.5848 66.939 22.0638 67.0375 21.4999H65.053ZM63.239 14.7378C59.7543 14.7378 56.9295 17.4829 56.9295 20.8689C56.9295 24.2551 59.7544 27 63.239 27C66.7235 27 69.5483 24.255 69.5483 20.8689C69.5483 17.4829 66.7235 14.7378 63.239 14.7378ZM63.239 25.2484C60.7499 25.2484 58.7322 23.2877 58.7322 20.869C58.7322 18.4503 60.7499 16.4896 63.239 16.4896C65.728 16.4896 67.7456 18.4503 67.7456 20.869C67.7456 23.2877 65.728 25.2484 63.239 25.2484ZM26.233 0.636804C26.2472 0.632964 26.2617 0.629458 26.2759 0.625534C26.2342 0.63238 26.2211 0.635969 26.233 0.636804ZM64.3012 20.8689C64.3012 21.0004 64.4108 21.107 64.5462 21.107C64.6816 21.107 64.7912 21.0005 64.7912 20.8689C64.7912 20.7373 64.6816 20.6308 64.5462 20.6308C64.4108 20.6308 64.3012 20.7374 64.3012 20.8689ZM63.8882 22.6319V24.5602C64.4685 24.4645 65.0044 24.2426 65.4655 23.9249L64.0624 22.5614C64.0057 22.5874 63.9477 22.6112 63.8882 22.6319ZM35.0922 0.0354657C32.8198 -0.0399207 31.879 0.026867 34.557 0.0362173C34.7484 0.0333788 34.9277 0.0329612 35.0922 0.0354657ZM75.8867 18.6068C75.6589 18.4722 74.9068 18.3346 74.4858 18.3251C74.2681 16.3274 71.4103 12.9597 71.7123 13.232C68.5233 10.0904 58.9164 7.90228 52.5553 7.90228C51.9434 7.9649 51.3314 7.74792 50.7197 7.81045C50.4236 7.21888 50.0055 6.66529 49.6569 6.12064C49.0107 5.11081 48.4347 4.08429 47.773 3.11654C47.4727 2.67725 46.5082 1.90727 46.0858 1.6822C43.9038 0.520176 38.2891 0.143495 35.1448 0.0372198C34.9321 0.0371363 34.7364 0.0368024 34.5569 0.0361345C31.7726 0.0777932 26.4021 0.647908 26.2329 0.636721C25.1092 0.937849 23.9437 1.02225 22.8462 1.37756C20.6208 2.09803 18.3378 2.80381 16.5677 4.00832C14.7864 5.22043 13.2656 6.68884 11.5439 7.95129C10.9557 8.38257 10.4893 9.02139 9.90151 9.45334C8.99213 10.1216 8.12553 10.9156 7.43789 11.8003C7.18574 12.1248 6.77181 12.3681 6.52009 12.6922C6.23967 13.0534 5.52248 13.9708 5.16758 14.1942C4.90992 14.2726 4.65228 14.3508 4.39471 14.429C3.92065 14.629 2.66891 15.3429 2.60739 15.8842C3.10646 16.1189 3.60578 16.3537 4.10484 16.5883C3.89547 17.308 3.68611 18.0279 3.47682 18.7476C3.31583 18.7476 3.15474 18.7476 2.99374 18.7476C2.79185 18.87 2.36014 18.753 2.07594 18.7946C1.61906 18.8613 1.02455 18.8898 0.530124 18.8884C0.397476 19.0773 0.180461 19.2726 0.0954084 19.4987C-0.487935 21.0488 1.74561 20.6979 2.94537 20.6722C2.94537 20.7035 2.94537 20.7348 2.94537 20.7661C2.72913 21.05 2.76934 21.5036 2.60722 21.8458C2.55301 21.96 1.75179 22.69 1.64105 22.7376C1.35127 22.7376 1.06132 22.7376 0.771537 22.7376C0.771537 23.0193 0.771537 23.301 0.771537 23.5826C4.58148 23.5671 11.7786 23.5362 11.7786 23.5362L11.9717 23.5355C11.5865 22.7164 11.3715 21.8059 11.3715 20.8465C11.3715 17.2703 14.3549 14.3712 18.0352 14.3712C21.7153 14.3712 24.6987 17.2703 24.6987 20.8465C24.6987 21.7878 24.4918 22.6821 24.1201 23.4891L24.237 23.4886H57.1766C56.8051 22.6818 56.5982 21.7877 56.5982 20.8465C56.5982 17.2703 59.5817 14.3712 63.2618 14.3712C66.9419 14.3712 69.9254 17.2703 69.9254 20.8465C69.9254 21.7877 69.7185 22.6818 69.347 23.4886C69.7984 23.4886 70.8481 23.4886 71.4424 23.4886C71.5034 23.3994 72.2907 22.6738 72.3602 22.6437C72.6977 22.497 73.1427 22.6905 73.4229 22.5498C73.5483 22.4868 74.3767 21.517 74.4373 21.3762C74.5018 21.1103 74.5661 20.8443 74.6306 20.5783C74.791 20.4569 75.4404 20.5643 75.645 20.4374C76.0804 20.0349 76.0556 19.2137 75.8867 18.6068ZM32.75 8.58151C32.4864 8.76785 32.0788 8.69797 32.0788 8.69797L21.9616 8.72126C21.9616 8.72126 20.8943 8.60447 20.8587 7.5797C20.8427 7.1187 20.8136 6.74644 21.1033 6.43713C23.6743 3.69308 31.7192 3.10661 31.7192 3.10661C31.7192 3.10661 32.4383 3.15327 32.6781 3.24644C32.9178 3.33961 32.8459 6.01879 32.8459 6.01879C32.8459 6.01879 33.0138 8.39509 32.75 8.58151ZM35.2194 8.6048C35.2194 8.6048 35.0036 8.67476 34.8597 8.51163C34.7159 8.34859 34.7397 8.13888 34.7397 8.13888V3.59599C34.7397 3.59599 34.7118 3.20812 34.8836 3.08348C35.8587 2.3757 43.898 3.45624 43.898 3.45624L44.761 8.51163L35.2194 8.6048ZM48.0936 8.51155L45.3845 8.46497L44.5214 3.54932C44.5214 3.54932 45.9359 3.96858 46.2716 4.20159C46.6071 4.43451 48.6451 7.39319 48.717 8.02225C48.7888 8.65139 48.0936 8.51155 48.0936 8.51155ZM71.7123 13.232C71.7519 13.2711 71.7913 13.3101 71.829 13.3495C71.7718 13.2899 71.7341 13.2518 71.7123 13.232ZM63.239 20.3073C62.9197 20.3073 62.6609 20.5588 62.6609 20.869C62.6609 21.1792 62.9197 21.4307 63.239 21.4307C63.5582 21.4307 63.817 21.1792 63.817 20.869C63.817 20.5588 63.5582 20.3073 63.239 20.3073ZM61.4972 20.0685L60.0941 18.7052C59.767 19.1532 59.5389 19.6742 59.4404 20.2381H61.425C61.4462 20.1802 61.4703 20.1236 61.4972 20.0685ZM63.239 19.8367C63.3742 19.8367 63.484 19.7301 63.484 19.5986C63.484 19.4671 63.3743 19.3605 63.239 19.3605C63.1036 19.3605 62.9939 19.467 62.9939 19.5986C62.9939 19.73 63.1036 19.8367 63.239 19.8367ZM61.4247 21.4999H59.4403C59.5388 22.0638 59.7671 22.5847 60.0941 23.0327L61.4972 21.6693C61.4704 21.6142 61.4461 21.5577 61.4247 21.4999ZM62.4155 19.1766C62.4722 19.1505 62.5302 19.1267 62.5897 19.106V17.1777C62.0094 17.2734 61.4735 17.4953 61.0124 17.813L62.4155 19.1766ZM63.239 21.9011C63.1036 21.9011 62.9939 22.0077 62.9939 22.1392C62.9939 22.2707 63.1036 22.3773 63.239 22.3773C63.3742 22.3773 63.484 22.2708 63.484 22.1392C63.484 22.0078 63.3742 21.9011 63.239 21.9011ZM61.0123 23.9249C61.4733 24.2427 62.0094 24.4645 62.5897 24.5601V22.6319C62.5302 22.6112 62.472 22.5876 62.4153 22.5615L61.0123 23.9249ZM62.1766 20.8689C62.1766 20.7374 62.067 20.6308 61.9316 20.6308C61.7964 20.6308 61.6866 20.7373 61.6866 20.8689C61.6866 21.0005 61.7963 21.107 61.9316 21.107C62.0669 21.1069 62.1766 21.0004 62.1766 20.8689Z" fill="#870C29"/>
</svg>
