<?xml version="1.0" encoding="utf-8"?>
<!-- Generator: Adobe Illustrator 21.1.0, SVG Export Plug-In . SVG Version: 6.00 Build 0)  -->
<svg version="1.1" id="Слой_1" xmlns="http://www.w3.org/2000/svg" xmlns:xlink="http://www.w3.org/1999/xlink" x="0px" y="0px"
	 viewBox="0 0 92.7 88.7" style="enable-background:new 0 0 92.7 88.7;" xml:space="preserve">
<path d="M89.3,35.9L68.9,55.8L73.7,84c0.1,0.5-0.1,1.1-0.6,1.4c-0.4,0.3-1,0.4-1.5,0.1l-24.7-13L21.1,85.6c-0.5,0.2-1.1,0.2-1.5-0.1
	c-0.4-0.3-0.7-0.8-0.6-1.4l4.8-28.2L3.4,35.9C3,35.5,2.9,35,3.1,34.5c0.2-0.5,0.6-0.9,1.2-1l28.2-4.1L45.1,3.8
	C45.3,3.3,45.8,3,46.4,3c0.6,0,1,0.3,1.3,0.8l12.6,25.6l28.2,4.1c0.6,0.1,1,0.4,1.2,1C89.8,35,89.7,35.5,89.3,35.9z M92.5,33.5
	c-0.5-1.6-1.9-2.8-3.6-3l-26.7-3.9L50.3,2.5c-0.8-1.5-2.3-2.5-4-2.5c-1.7,0-3.2,0.9-4,2.5L30.5,26.6L3.8,30.5c-1.7,0.2-3,1.4-3.6,3
	c-0.5,1.6-0.1,3.4,1.1,4.5l19.3,18.8l-4.6,26.7c-0.3,1.7,0.4,3.3,1.7,4.3c0.8,0.6,1.7,0.9,2.6,0.9c0.7,0,1.4-0.2,2-0.5l24.5-12.4
	l23.3,12.3c1.5,0.8,3.3,0.7,4.7-0.3c1.4-1,2-2.7,1.8-4.3l-4.6-26.6l19.3-18.8C92.6,36.9,93,35.1,92.5,33.5z"/>
</svg>
