<svg width="33" height="37" viewBox="0 0 33 37" fill="none" xmlns="http://www.w3.org/2000/svg">
<g style="mix-blend-mode:luminosity">
<path d="M2.90465 32.6821L0 0H31.9171L29.0094 32.677L15.939 36.312L2.90465 32.6821Z" transform="translate(0.132812 0.0981445)" fill="#E44D26"/>
<path d="M0 30.8613L10.5615 27.924L13.0463 0H0V30.8613Z" transform="translate(16.0918 2.77148)" fill="#F16529"/>
<path d="M10.0193 8.11295H4.73194L4.36678 4.00837H10.0193V0H10.0055H0L0.0956447 1.07538L1.07771 12.1212H10.0193V8.11295Z" transform="translate(6.06836 6.78027)" fill="#EBEBEB"/>
<path d="M8.76305 4.39754L8.74554 4.40222L4.29551 3.19682L4.01104 0H1.84868H0L0.559794 6.29364L8.74466 8.573L8.76305 8.56788V4.39754Z" transform="translate(7.32812 20.9053)" fill="#EBEBEB"/>
<path d="M0 0V4.00828H4.92024L4.45645 9.20677L0 10.4134V14.5836L8.19137 12.3062L8.25147 11.629L9.19041 1.07635L9.28791 0H8.21117H0Z" transform="translate(16.0762 14.8936)" fill="white"/>
<path d="M0 0V2.48953V3.99857V4.00837H9.63864H9.65149L9.73164 3.10741L9.9137 1.07538L10.0093 0H0Z" transform="translate(16.0762 6.78027)" fill="white"/>
</g>
</svg>
