<svg width="20" height="20" viewBox="0 0 20 20" fill="none" xmlns="http://www.w3.org/2000/svg">
<path d="M10 20C4.4858 20 0 15.5143 0 9.99968C0 4.4863 4.4858 0 10 0C15.5142 0 20 4.4863 20 9.99968C20.0006 15.5143 15.5142 20 10 20ZM10 1.14299C5.11623 1.14299 1.14302 5.11607 1.14302 9.99968C1.14302 14.8839 5.11623 18.857 10 18.857C14.8838 18.857 18.857 14.8839 18.857 9.99968C18.8576 5.11607 14.8844 1.14299 10 1.14299Z"/>
<path d="M3.63835 10.6971C3.49153 10.6971 3.346 10.6417 3.23395 10.5296L0.167429 7.46321C0.0598881 7.35568 0 7.21079 0 7.05882V0.571171C0 0.255643 0.25565 0 0.571833 0C0.887372 0 1.14302 0.254999 1.14302 0.571171V6.8225L4.04212 9.7215C4.26557 9.94494 4.26557 10.3068 4.04212 10.5296C3.93007 10.6417 3.78389 10.6971 3.63835 10.6971Z" transform="translate(9.42773 2.94092)"/>
</svg>
