<svg width="16" height="16" viewBox="0 0 16 16" fill="none" xmlns="http://www.w3.org/2000/svg">
<path d="M11.5845 0H4.41533C1.98072 0 0 1.98081 0 4.41542V11.5846C0 14.0193 1.98072 16 4.41533 16H11.5845C14.0193 16 16 14.0192 16 11.5846V4.41542C16.0001 1.98081 14.0193 0 11.5845 0ZM14.5805 11.5846C14.5805 13.2365 13.2365 14.5804 11.5846 14.5804H4.41533C2.76348 14.5805 1.4196 13.2365 1.4196 11.5846V4.41542C1.4196 2.76358 2.76348 1.4196 4.41533 1.4196H11.5845C13.2364 1.4196 14.5804 2.76358 14.5804 4.41542V11.5846H14.5805Z" fill="#7F7F7F"/>
<path d="M4.1228 0C1.84945 0 0 1.84945 0 4.12279C0 6.39604 1.84945 8.2454 4.1228 8.2454C6.39614 8.2454 8.24559 6.39604 8.24559 4.12279C8.24559 1.84945 6.39614 0 4.1228 0ZM4.1228 6.82571C2.63231 6.82571 1.4196 5.61318 1.4196 4.1227C1.4196 2.63212 2.63222 1.4195 4.1228 1.4195C5.61337 1.4195 6.82599 2.63212 6.82599 4.1227C6.82599 5.61318 5.61328 6.82571 4.1228 6.82571Z" transform="translate(3.87695 3.87793)" fill="#7F7F7F"/>
<path d="M1.04104 0C0.76753 0 0.498847 0.110729 0.305687 0.30474C0.111581 0.497806 0 0.766583 0 1.04104C0 1.31464 0.111675 1.58332 0.305687 1.77734C0.498752 1.9704 0.76753 2.08208 1.04104 2.08208C1.31549 2.08208 1.58333 1.9704 1.77734 1.77734C1.97135 1.58332 2.08208 1.31455 2.08208 1.04104C2.08208 0.766583 1.97135 0.497806 1.77734 0.30474C1.58427 0.110729 1.31549 0 1.04104 0Z" transform="translate(11.2549 2.67334)" fill="#7F7F7F"/>
</svg>
