<svg width="36" height="38" viewBox="0 0 36 38" fill="none" xmlns="http://www.w3.org/2000/svg">
<path d="M34.9219 16.6594L19.3808 0.689846C18.4866 -0.229949 17.0351 -0.229949 16.1397 0.689846L12.9128 4.00647L17.0061 8.2131C17.9577 7.88291 19.0484 8.1043 19.8066 8.88362C20.5687 9.66779 20.7825 10.7983 20.4532 11.7795L24.3984 15.8339C25.3529 15.4959 26.4541 15.7143 27.2162 16.4989C28.2818 17.5936 28.2818 19.3675 27.2162 20.4625C26.1506 21.5579 24.4245 21.5579 23.3582 20.4625C22.557 19.6385 22.3588 18.4287 22.7646 17.4142L19.0853 13.633L19.085 23.5832C19.3448 23.7154 19.5899 23.8918 19.8064 24.1133C20.8716 25.2078 20.8716 26.9814 19.8064 28.0778C18.7409 29.1724 17.014 29.1724 15.9496 28.0778C14.8842 26.9815 14.8842 25.2079 15.9496 24.1133C16.2129 23.8432 16.5175 23.6387 16.8426 23.5017V13.459C16.5174 13.3226 16.2131 13.1197 15.9494 12.8474C15.1424 12.0187 14.9481 10.8015 15.3619 9.78315L11.3268 5.6356L0.67147 16.5856C-0.223823 17.5061 -0.223823 18.9978 0.67147 19.9176L16.2117 35.8872C17.1064 36.807 18.5574 36.807 19.4534 35.8872L34.9218 19.9931C35.8168 19.0729 35.8168 17.5807 34.9218 16.6607" transform="translate(0.183594 0.480469)" fill="#F05133"/>
</svg>
