<svg width="22" height="46" viewBox="0 0 22 46" fill="none" xmlns="http://www.w3.org/2000/svg">
<g style="mix-blend-mode:luminosity">
<path d="M16.3176 44.4465L16.7683 37.1101L18.0126 35.0348C18.0126 35.0348 15.1805 36.1667 10.4392 36.1667C5.69782 36.1667 2.90869 35.0558 2.90869 35.0558L4.30321 37.3195L4.79653 44.4465C4.79653 45.2105 7.37557 45.8299 10.5571 45.8299C13.7385 45.8299 16.3176 45.2105 16.3176 44.4465ZM14.8961 10.1866L15.842 6.5338L21.08 1.14885L19.6995 0L14.1539 5.73631L13.0557 10.1004C12.2291 10.0734 11.4022 10.0599 10.5751 10.0601C4.73467 10.0601 0 10.7104 0 11.5125C0 12.3146 4.73467 12.9648 10.5751 12.9648C16.4155 12.9648 21.1501 12.3146 21.1501 11.5125C21.1501 10.9218 18.5823 10.4135 14.8961 10.1866Z" transform="translate(0.126953 0.0581055)" fill="#D34A47"/>
<path d="M2.07933 0.499099C2.07933 0.499099 1.87447 0.543963 1.27188 0.546478C0.669112 0.548912 0.24114 0.542664 0.0706659 0.390955C0.0248297 0.350229 -0.000247272 0.269345 1.83825e-06 0.214584C0.000500059 0.110334 0.0762297 0.0489199 0.172718 0.0104653L0.263976 0.15033C0.224284 0.163716 0.201615 0.179536 0.201532 0.196411C0.2012 0.275592 0.81783 0.329784 1.28948 0.323943C1.76121 0.318264 2.33118 0.280296 2.33167 0.202251C2.33167 0.178643 2.28858 0.156415 2.21359 0.138891L2.30444 0C2.42667 0.0370754 2.53337 0.108711 2.53312 0.232674C2.53196 0.443445 2.25744 0.475491 2.07933 0.499099Z" transform="translate(12.3945 11.7925)" fill="white"/>
<path d="M20.9958 1.21905C21.1275 1.07043 20.9277 0.690263 20.5494 0.370051C20.171 0.0500018 19.7575 -0.0890514 19.6256 0.0595749C19.4938 0.208201 19.6937 0.588366 20.0721 0.908416C20.4504 1.22855 20.8641 1.36776 20.9958 1.21905ZM15.9918 26.5862C15.8677 25.4193 18.6043 23.7292 17.902 23.6751C16.39 23.7595 15.6376 25.4062 14.8769 27.1308C14.5981 27.7629 13.6443 30.4581 13.0187 30.1263C12.3932 29.7946 13.8295 27.5783 14.2321 26.2621C13.7676 26.5949 12.0641 27.888 11.6251 26.677C10.9192 27.2626 9.41105 27.5799 9.58119 26.0415C9.2057 26.6913 8.36296 27.5986 7.35141 27.2216C6.02299 26.7266 8.12116 22.5923 8.64288 22.8009C9.16468 23.0094 8.53759 23.9512 8.37334 24.3169C8.01213 25.1218 7.59487 26.1336 7.87363 26.3407C8.35117 26.6956 9.6507 24.9983 9.67959 24.961C9.92264 24.6472 10.6151 22.5948 11.1732 22.8305C11.7313 23.0661 9.78115 25.7761 10.5103 26.3139C10.6574 26.4224 11.259 26.2469 11.6251 25.86C11.8619 25.6097 11.7804 25.0554 12.5699 23.2161C13.3593 21.3768 14.0629 19.0863 14.6043 19.2608C15.1457 19.4352 14.6994 20.6108 14.5052 21.0491C13.5938 23.106 12.0177 26.5042 12.761 26.2469C13.5043 25.9897 13.8913 25.9747 14.6191 25.1425C15.3469 24.3104 15.3134 22.9397 15.7985 22.9689C16.2838 22.9981 16.2023 23.4375 16.0846 23.7722C16.5621 23.2384 18.3479 22.1141 18.779 23.2276C19.2897 24.5458 16.2241 26.45 16.9884 26.3529C17.7337 26.2582 18.941 25.5111 19.4565 24.8318L20.8754 12.3685C20.8754 12.3685 19.4476 13.5229 10.3639 13.5229C1.2801 13.5229 0 12.3925 0 12.3925L1.20802 23.7685C1.84923 21.988 3.37187 18.3866 5.77197 18.5075C6.86373 18.5625 8.3212 20.6164 7.07274 20.686C6.54429 20.7154 6.49065 19.6608 5.86489 19.5059C5.41333 19.3941 4.78466 19.7528 4.37836 20.1414C3.56809 20.9162 1.8254 23.973 2.05566 25.497C2.34903 27.4399 4.79986 24.8218 5.21454 24.0445C5.50658 23.497 5.70388 21.8748 6.3426 22.045C6.9814 22.2152 6.28688 23.8893 5.82387 25.3695C5.30372 27.0316 5.03028 28.7848 4.37836 28.5832C3.72636 28.3816 4.7884 26.236 4.74995 25.86C4.13714 26.4124 3.00817 27.8109 1.56383 27.1187L2.31407 34.1832C2.31407 34.1832 4.30803 35.7224 10.3147 35.7224C16.3213 35.7224 18.3891 34.2072 18.3891 34.2072L19.3207 26.0249C18.5585 26.75 16.1462 28.0377 15.9918 26.5862Z" transform="translate(0.197266)" fill="#D34A47"/>
</g>
</svg>
