<svg width="50" height="50" viewBox="0 0 50 50" fill="none" xmlns="http://www.w3.org/2000/svg">
<path d="M4.19712 0C1.87469 0 0 1.87453 0 4.19712C0 6.51972 1.87453 8.39425 4.19712 8.39425C6.51972 8.39425 8.39425 6.51972 8.39425 4.19712C8.39409 1.87453 6.51956 0 4.19712 0ZM4.19712 6.2376C3.06911 6.2376 2.15665 5.32514 2.15665 4.19712C2.15665 3.06911 3.06911 2.15665 4.19712 2.15665C5.32514 2.15665 6.2376 3.06911 6.2376 4.19712C6.2376 5.32514 5.32514 6.2376 4.19712 6.2376Z" transform="translate(41.6055)" fill="#2D9CDB"/>
<path d="M4.19712 0C1.87453 0 0 1.87469 0 4.19712C0 6.51956 1.87453 8.39425 4.19712 8.39425C6.51972 8.39425 8.39425 6.51972 8.39425 4.19712C8.39425 1.87453 6.51956 0 4.19712 0ZM4.19712 6.2376C3.06911 6.2376 2.15665 5.32514 2.15665 4.19712C2.15665 3.06911 3.06911 2.15665 4.19712 2.15665C5.32514 2.15665 6.2376 3.06911 6.2376 4.19712C6.2376 5.32514 5.32514 6.2376 4.19712 6.2376Z" transform="translate(0 23.9214)" fill="#2D9CDB"/>
<path d="M4.19712 0C1.87469 0 0 1.87453 0 4.19712C0 6.51956 1.87453 8.39425 4.19712 8.39425C6.51956 8.39425 8.39425 6.51972 8.39425 4.19712C8.39425 1.87453 6.51956 0 4.19712 0ZM4.19712 6.2376C3.06911 6.2376 2.15665 5.32514 2.15665 4.19712C2.15665 3.06911 3.06911 2.15665 4.19712 2.15665C5.32514 2.15665 6.2376 3.06911 6.2376 4.19712C6.2376 5.32514 5.32514 6.2376 4.19712 6.2376Z" transform="translate(12.4746 11.4468)" fill="#2D9CDB"/>
<path d="M4.19712 0C1.87469 0 0 1.87453 0 4.19712C0 6.51956 1.87453 8.39425 4.19712 8.39425C6.51972 8.39425 8.39425 6.51972 8.39425 4.19712C8.39425 1.87469 6.51972 0 4.19712 0ZM4.19712 6.2376C3.06911 6.2376 2.15665 5.32514 2.15665 4.19712C2.15665 3.06911 3.06911 2.15665 4.19712 2.15665C5.32514 2.15665 6.2376 3.06911 6.2376 4.19712C6.2376 5.32514 5.32529 6.2376 4.19712 6.2376Z" transform="translate(21.3164 20.2886)" fill="#2D9CDB"/>
<path d="M22.4451 0H0V2.15665H22.4451V0Z" transform="translate(26.9629 21.5088) rotate(-45.0567)" fill="#2D9CDB"/>
<path d="M2.15665 0H0V6.27072H2.15665V0Z" transform="translate(18.123 18.6099) rotate(-45.1053)" fill="#2D9CDB"/>
<path d="M11.3966 0H0V2.15665H11.3966V0Z" transform="translate(5.65039 25.1411) rotate(-45)" fill="#2D9CDB"/>
<path d="M49.9336 0H0V2.15665H49.9336V0Z" transform="translate(0.0332031 47.8433)" fill="#2D9CDB"/>
<path d="M2.15665 0H0V31.2043H2.15665V0Z" transform="translate(44.7246 17.7173)" fill="#2D9CDB"/>
<path d="M2.15665 0H0V15.5939H2.15665V0Z" transform="translate(24.9668 33.3276)" fill="#2D9CDB"/>
<path d="M2.15665 0H0V12.475H2.15665V0Z" transform="translate(3.11914 36.4468)" fill="#2D9CDB"/>
<path d="M2.15665 0H0V21.848H2.15665V0Z" transform="translate(15.5938 27.0737)" fill="#2D9CDB"/>
</svg>
