<svg width="400" height="35" viewBox="0 0 400 35" fill="none" xmlns="http://www.w3.org/2000/svg">
<path d="M0 8.3107H10.3235V33.4219H19.4641V8.3107H29.7876V0H0V8.3107Z" transform="translate(0 0.537354)" fill="black"/>
<path d="M30.1819 11.4451C30.1819 8.16741 29.1066 5.40912 27.0634 3.45682C24.6976 1.18212 21.1668 0 16.8295 0H-2.18784e-06V33.4219H9.14061V23.338H14.1231L21.2564 33.4219H32.0638L23.6581 21.6365C27.8878 19.7379 30.1819 16.1557 30.1819 11.4451ZM16.3814 15.296H9.17646L9.15853 8.16741H16.238C18.3888 8.16741 20.9517 8.77638 20.9517 11.7138C20.9517 13.9885 19.2849 15.296 16.3814 15.296Z" transform="translate(46.2939 0.537354)" fill="black"/>
<path d="M23.5147 19.0036C23.5147 23.3201 20.3244 25.6127 16.3276 25.6127C12.3309 25.6127 9.14061 23.2485 9.14061 18.7886V0H-2.18784e-06V18.9677C-2.18784e-06 28.4785 6.59558 33.9234 16.238 33.9234C26.0059 33.9234 32.6732 28.3889 32.6732 18.7349V0H23.5326L23.5147 19.0036Z" transform="translate(93.1621 0.537354)" fill="black"/>
<path d="M-4.37568e-06 33.4219H26.92V25.344H9.08684V20.6514H26.92V12.5556H9.08684V8.07785H26.92V0H-4.37568e-06V33.4219Z" transform="translate(143.222 0.537354)" fill="black"/>
<path d="M14.1411 15.3497C6.79273 13.7736 5.07215 12.0183 5.07215 8.86594C5.07215 5.76734 7.85017 3.38518 12.1875 3.38518C15.6286 3.38518 18.7293 4.47775 21.8299 7.0032L24.0165 4.10162C20.6291 1.37915 17.1521 -2.13516e-09 12.2771 -2.13516e-09C5.93243 -2.13516e-09 1.30837 3.86877 1.30837 9.11669C1.30837 14.687 4.83915 17.1766 12.528 18.8424C19.5537 20.3111 21.2206 22.0843 21.2206 25.1829C21.2206 28.568 18.2633 30.9502 13.7826 30.9502C9.15853 30.9502 5.80697 29.374 2.32996 26.2217L-4.37568e-06 28.98C4.0147 32.5443 8.35201 34.3175 13.6213 34.3354C20.2527 34.3354 25.0202 30.6278 25.0202 24.8963C25.0202 19.6842 21.579 16.9796 14.1411 15.3497Z" transform="translate(188.386 0.125366)" fill="black"/>
<path d="M0 3.47473H11.2017L11.2196 33.3861H15.0372V3.47473H26.2569V-8.54062e-09H0V3.47473Z" transform="translate(223.765 0.591064)" fill="black"/>
<path d="M24.0523 19.4155C24.0523 26.7053 20.1452 30.4308 13.9798 30.4308C7.58133 30.4308 3.76379 26.3829 3.76379 19.1827V8.54062e-09H4.37568e-06V19.4155C4.37568e-06 28.8546 5.62776 33.9234 13.8722 33.9234C22.2242 33.9234 27.8161 28.8546 27.8161 19.1289V8.54062e-09H24.0523V19.4155Z" transform="translate(262.28 0.57312)" fill="black"/>
<path d="M11.596 8.54062e-09H8.75135e-06V33.3861H11.596C22.0988 33.3861 29.3575 26.0963 29.3575 16.693C29.3575 7.20022 22.0988 8.54062e-09 11.596 8.54062e-09ZM11.6139 29.9113L3.78171 29.8934V3.47473H11.6139C20.0556 3.47473 25.4503 9.2958 25.4503 16.693C25.4503 24.1798 20.0556 29.9113 11.6139 29.9113Z" transform="translate(304.741 0.57312)" fill="black"/>
<path d="M3.76379 0H4.37568e-06V33.3861H3.76379V0Z" transform="translate(348.133 0.57312)" fill="black"/>
<path d="M17.0804 0C6.91819 0 -8.75135e-06 8.05994 -8.75135e-06 17.2662C-8.75135e-06 26.5799 6.82858 34.5324 16.9908 34.5324C27.153 34.5324 34.0712 26.4724 34.0712 17.2662C34.0712 7.97039 27.2426 0 17.0804 0ZM17.0804 31.0576C9.4453 31.0576 3.90716 24.8425 3.90716 17.2662C3.90716 9.58238 9.35569 3.47473 16.9908 3.47473C24.6259 3.47473 30.164 9.68984 30.164 17.2662C30.164 24.95 24.7155 31.0576 17.0804 31.0576Z" transform="translate(365.929)" fill="black"/>
</svg>
