<svg width="44" height="44" viewBox="0 0 44 44" fill="none" xmlns="http://www.w3.org/2000/svg">
<path d="M9.86207 4.55172H6.06897V0.758621C6.06897 0.339103 5.7291 0 5.31035 0C4.89159 0 4.55172 0.339103 4.55172 0.758621V4.55172H0.758621C0.339862 4.55172 0 4.89083 0 5.31035C0 5.72986 0.339862 6.06897 0.758621 6.06897H4.55172V9.86207C4.55172 10.2816 4.89159 10.6207 5.31035 10.6207C5.7291 10.6207 6.06897 10.2816 6.06897 9.86207V6.06897H9.86207C10.2808 6.06897 10.6207 5.72986 10.6207 5.31035C10.6207 4.89083 10.2808 4.55172 9.86207 4.55172Z" transform="translate(6.06836 6.06885)" fill="#2D9CDB"/>
<path d="M9.86207 0H0.758621C0.339862 0 0 0.339103 0 0.758621C0 1.17814 0.339862 1.51724 0.758621 1.51724H9.86207C10.2808 1.51724 10.6207 1.17814 10.6207 0.758621C10.6207 0.339103 10.2808 0 9.86207 0Z" transform="translate(27.3125 10.6206)" fill="#2D9CDB"/>
<path d="M22.7586 0H21.2414H0V21.2414V22.7586V44H21.2414H22.7586H44V22.7586V21.2414V0H22.7586ZM1.51724 1.51724H21.2414V21.2414H1.51724V1.51724ZM1.51724 42.4828V22.7586H21.2414V42.4828H1.51724ZM42.4828 42.4828H22.7586V22.7586H42.4828V42.4828ZM22.7586 21.2414V1.51724H42.4828V21.2414H22.7586Z" fill="#2D9CDB"/>
<path d="M0.758621 1.51724H9.86207C10.2808 1.51724 10.6207 1.17814 10.6207 0.758621C10.6207 0.339103 10.2808 0 9.86207 0H0.758621C0.339862 0 0 0.339103 0 0.758621C0 1.17814 0.339862 1.51724 0.758621 1.51724Z" transform="translate(27.3125 34.1377)" fill="#2D9CDB"/>
<path d="M0.758621 1.51724H9.86207C10.2808 1.51724 10.6207 1.17814 10.6207 0.758621C10.6207 0.339103 10.2808 0 9.86207 0H0.758621C0.339862 0 0 0.339103 0 0.758621C0 1.17814 0.339862 1.51724 0.758621 1.51724Z" transform="translate(27.3125 29.5859)" fill="#2D9CDB"/>
<path d="M8.88136 0.222466C8.58474 -0.0741552 8.10529 -0.0741552 7.80867 0.222466L4.55191 3.47922L1.29515 0.222466C0.998534 -0.0741552 0.519086 -0.0741552 0.222466 0.222466C-0.0741552 0.519086 -0.0741552 0.998536 0.222466 1.29516L3.47922 4.55192L0.222466 7.80867C-0.0741552 8.10529 -0.0741552 8.58474 0.222466 8.88136C0.370397 9.02929 0.564603 9.10364 0.75881 9.10364C0.953017 9.10364 1.14722 9.02929 1.29515 8.88136L4.55191 5.62461L7.80867 8.88136C7.9566 9.02929 8.15081 9.10364 8.34502 9.10364C8.53922 9.10364 8.73343 9.02929 8.88136 8.88136C9.17798 8.58474 9.17798 8.10529 8.88136 7.80867L5.6246 4.55192L8.88136 1.29516C9.17798 0.998536 9.17798 0.519086 8.88136 0.222466Z" transform="translate(6.82617 28.0684)" fill="#2D9CDB"/>
</svg>
