<svg width="50" height="38" viewBox="0 0 50 38" fill="none" xmlns="http://www.w3.org/2000/svg">
<g style="mix-blend-mode:luminosity">
<path d="M42.7971 21.551C41.0588 21.5609 39.5537 21.9814 38.2913 22.6074C37.8251 21.6783 37.359 20.8664 37.2814 20.2602C37.194 19.556 37.0872 19.1256 37.194 18.2846C37.3008 17.4435 37.7863 16.2503 37.7863 16.1525C37.7765 16.0645 37.6794 15.6342 36.6793 15.6244C35.6791 15.6146 34.8148 15.82 34.7177 16.084C34.6206 16.3481 34.4264 16.9545 34.3001 17.5804C34.1253 18.4997 32.2997 21.7564 31.2606 23.4679C30.9207 22.8029 30.6294 22.2161 30.5711 21.7465C30.4838 21.0425 30.3768 20.6121 30.4838 19.7711C30.5906 18.9299 31.0761 17.7369 31.0761 17.6391C31.0664 17.551 30.9693 17.1207 29.9692 17.1109C28.9689 17.1012 28.1047 17.3065 28.0076 17.5706C27.9105 17.8347 27.8037 18.4606 27.59 19.0669C27.386 19.6733 24.9583 25.1109 24.3271 26.529C24.0066 27.2527 23.7251 27.8298 23.5211 28.221C23.3172 28.6122 23.5114 28.2503 23.492 28.2894C23.3172 28.6219 23.2201 28.8078 23.2201 28.8078V28.8176C23.0841 29.0621 22.9385 29.2968 22.8704 29.2968C22.8218 29.2968 22.7247 28.6415 22.8898 27.7418C23.2491 25.8542 24.1231 22.9105 24.1135 22.803C24.1135 22.7541 24.2785 22.2356 23.5501 21.9717C22.8413 21.7076 22.5889 22.1477 22.5305 22.1477C22.4722 22.1477 22.4237 22.3042 22.4237 22.3042C22.4237 22.3042 23.2103 18.9889 20.9185 18.9889C19.4813 18.9889 17.5003 20.5635 16.5195 22.0011C15.898 22.3434 14.5774 23.067 13.179 23.8397C12.6449 24.1331 12.0914 24.4461 11.567 24.7297L11.4603 24.6122C8.68299 21.6293 3.54597 19.5168 3.75961 15.507C3.83729 14.0498 4.34225 10.2063 13.6259 5.55104C21.2295 1.73686 27.3181 2.78331 28.3765 5.11094C29.8817 8.43612 25.1234 14.6171 17.2189 15.507C14.2085 15.8493 12.6256 14.6757 12.2275 14.2356C11.81 13.776 11.7517 13.7564 11.5963 13.8444C11.3438 13.9814 11.4992 14.3921 11.5963 14.6366C11.8294 15.2527 12.8005 16.3481 14.4513 16.8958C15.8981 17.375 19.433 17.6391 23.7057 15.9765C28.4931 14.1085 32.2318 8.92512 31.1345 4.5926C30.0177 0.181848 22.7541 -1.26559 15.8885 1.18918C11.8002 2.65617 7.37203 4.94468 4.18688 7.94713C0.399665 11.507 -0.202406 14.6171 0.0500752 15.908C0.933856 20.5144 7.23608 23.5168 9.76089 25.7369C9.63465 25.8052 9.51812 25.8737 9.4113 25.9325C8.14889 26.5583 3.34204 29.0914 2.1379 31.771C0.778386 34.8028 2.35154 36.9838 3.40031 37.2772C6.64372 38.1867 9.96481 36.5535 11.7613 33.864C13.548 31.1745 13.3345 27.6831 12.509 26.0889L12.4798 26.0303L13.4703 25.4435C14.1113 25.062 14.7425 24.71 15.296 24.4067C14.9853 25.2575 14.7619 26.2649 14.6454 27.7319C14.5095 29.4532 15.2087 31.683 16.1312 32.5632C16.539 32.9445 17.0246 32.9544 17.3256 32.9544C18.3938 32.9544 18.8793 32.0643 19.4134 30.9984C20.0738 29.6976 20.6564 28.1915 20.6564 28.1915C20.6564 28.1915 19.9281 32.2698 21.9188 32.2698C22.6471 32.2698 23.3754 31.3211 23.7056 30.8321V30.8419C23.7056 30.8419 23.725 30.8126 23.7639 30.7441C23.8046 30.6834 23.8435 30.6215 23.8804 30.5584V30.5388C24.1717 30.0303 24.8224 28.8664 25.7934 26.9398C27.046 24.4557 28.2503 21.3457 28.2503 21.3457C28.2503 21.3457 28.3668 22.1085 28.7261 23.3603C28.9396 24.1037 29.4058 24.9153 29.7651 25.7075C29.4737 26.1183 29.2989 26.3531 29.2989 26.3531L29.3087 26.3629C29.0757 26.6758 28.8134 27.0084 28.5416 27.3409C27.5511 28.534 26.3664 29.8935 26.211 30.2847C26.0265 30.7443 26.0653 31.0866 26.4246 31.3605C26.6868 31.5561 27.153 31.5951 27.6482 31.5561C28.5416 31.4973 29.1631 31.2725 29.4738 31.1355C29.9594 30.9594 30.5129 30.6954 31.047 30.3042C32.0181 29.5806 32.6104 28.5537 32.5522 27.1845C32.523 26.4314 32.2803 25.6882 31.9792 24.984C32.0666 24.8569 32.1541 24.7296 32.2414 24.5928C33.7757 22.3335 34.9604 19.8495 34.9604 19.8495C34.9604 19.8495 35.077 20.6124 35.4363 21.8642C35.6207 22.4999 35.9898 23.1944 36.32 23.879C34.8828 25.0623 33.9797 26.4315 33.6689 27.3313C33.096 28.9939 33.5427 29.7469 34.3875 29.923C34.7661 30.0012 35.31 29.8252 35.7178 29.6491C36.2228 29.4829 36.8345 29.1992 37.3979 28.7787C38.3689 28.055 39.3012 27.0477 39.2526 25.6883C39.2235 25.0623 39.0584 24.4462 38.8351 23.8594C40.0586 23.3508 41.6414 23.0574 43.6516 23.3019C47.9729 23.8105 48.8275 26.5293 48.6625 27.6638C48.4974 28.7984 47.5943 29.4242 47.2932 29.6198C46.9921 29.8056 46.895 29.8742 46.9242 30.011C46.963 30.2165 47.099 30.2066 47.3612 30.1676C47.7205 30.1088 49.6335 29.2385 49.7112 27.1457C49.8277 24.4558 47.2932 21.5218 42.7971 21.551ZM9.46956 32.8664C8.04207 34.441 6.03194 35.0376 5.17738 34.529C4.25486 33.9911 4.61406 31.6733 6.37181 30.0009C7.44 28.9838 8.82865 28.0449 9.74147 27.4679C9.94539 27.3408 10.2561 27.155 10.6252 26.93C10.6834 26.891 10.7223 26.8713 10.7223 26.8713C10.7902 26.8322 10.8679 26.7833 10.9456 26.7344C11.5962 29.1207 10.9747 31.2136 9.46956 32.8664ZM19.9087 25.7173C19.4134 26.9398 18.3647 30.0792 17.7335 29.9031C17.1896 29.7564 16.8595 27.3799 17.6265 25.0327C18.015 23.8492 18.8404 22.441 19.3259 21.8932C20.1126 21.013 20.9671 20.7196 21.1808 21.0815C21.4333 21.551 20.2194 24.9545 19.9087 25.7173ZM28.5222 29.864C28.3085 29.9717 28.1143 30.0498 28.0269 29.9912C27.959 29.9521 28.1142 29.8054 28.1142 29.8054C28.1142 29.8054 29.1921 28.6416 29.6194 28.1037C29.8622 27.7908 30.1535 27.429 30.4642 27.0181V27.1355C30.4643 28.5437 29.1242 29.4826 28.5222 29.864ZM35.1643 28.3383C35.0089 28.221 35.0284 27.8591 35.5527 26.7246C35.7567 26.2748 36.2228 25.5217 37.0288 24.8078C37.1259 25.1012 37.1842 25.3847 37.1744 25.6488C37.1648 27.4092 35.9218 28.0645 35.1643 28.3383Z" transform="translate(0.216797 0.0981445)" fill="#CF649A"/>
</g>
</svg>
