<svg width="26" height="15" viewBox="0 0 26 15" fill="none" xmlns="http://www.w3.org/2000/svg">
<path d="M24.0842 11.0312C23.536 10.3882 22.9166 9.81405 22.3176 9.25882C22.1071 9.06365 21.8893 8.86184 21.6796 8.66148C21.6795 8.66143 21.6795 8.66138 21.6794 8.66133C21.3974 8.39207 21.2593 8.20096 21.2448 8.0598C21.2307 7.92105 21.3275 7.71519 21.5504 7.41091C21.8836 6.95323 22.2388 6.49478 22.5824 6.05146C22.8878 5.65738 23.2035 5.24985 23.5062 4.84001L23.5741 4.748C24.1646 3.94817 24.7751 3.12112 25.1023 2.11327C25.1957 1.8243 25.2927 1.39669 25.0587 1.0213C24.8246 0.645807 24.3905 0.534519 24.0847 0.483549C23.9352 0.458497 23.7935 0.456425 23.6615 0.456425L19.8314 0.453101C19.1692 0.442309 18.7098 0.749483 18.4594 1.36634C18.2591 1.85899 18.0224 2.42993 17.7483 2.97153C17.2238 4.01711 16.5573 5.22138 15.5913 6.22475L15.5484 6.26946C15.4826 6.33816 15.3751 6.45051 15.3199 6.47628C15.2153 6.41192 15.0945 6.0438 15.1 5.85095C15.1002 5.84618 15.1002 5.84146 15.1002 5.83674L15.0968 1.50552C15.0968 1.4835 15.0953 1.46148 15.0923 1.43966C15.0064 0.821748 14.8389 0.202294 13.8396 0.00929816C13.8075 0.00308338 13.775 3.52856e-08 13.7424 3.52856e-08H9.75818C9.0086 3.52856e-08 8.61212 0.335935 8.29427 0.70015C8.20226 0.806332 7.9578 1.08826 8.08234 1.43292C8.20836 1.78167 8.58387 1.85128 8.70713 1.87412C9.14131 1.95477 9.36584 2.19493 9.43535 2.65405C9.57274 3.54613 9.58957 4.50046 9.48841 5.65588C9.46021 5.96609 9.40773 6.20187 9.32306 6.39795C9.29963 6.45224 9.27905 6.48587 9.26468 6.50567C9.24174 6.49661 9.20605 6.47927 9.15662 6.44617C8.85151 6.24186 8.62158 5.92423 8.39922 5.61715C7.51106 4.38995 6.764 3.03455 6.11504 1.4729C5.84778 0.832973 5.34537 0.475551 4.70129 0.466301C3.47416 0.446308 2.33923 0.44679 1.2328 0.467843C0.71095 0.476707 0.344997 0.637473 0.144938 0.945755C-0.0553663 1.25461 -0.0480315 1.64841 0.166795 2.1164C1.70248 5.45841 3.09688 7.88959 4.6879 9.99944C5.80816 11.4848 6.93585 12.5159 8.23677 13.2443C9.60361 14.0096 11.1451 14.3847 12.9334 14.3846C13.1368 14.3846 13.3437 14.3798 13.5533 14.37C14.6567 14.3208 15.1056 13.8913 15.1545 12.8396C15.182 12.2838 15.2452 11.8336 15.4645 11.4424C15.5259 11.3329 15.5951 11.2594 15.6496 11.246C15.7076 11.2318 15.8104 11.2666 15.9248 11.3393C16.1339 11.4721 16.3139 11.6523 16.4619 11.8105C16.6119 11.9713 16.7636 12.1373 16.9103 12.2979C17.2226 12.6398 17.5454 12.9934 17.8837 13.3306C18.6489 14.0939 19.5309 14.444 20.5064 14.3706L24.0116 14.3722C24.0117 14.3722 24.0118 14.3722 24.0118 14.3722C24.023 14.3722 24.0341 14.3719 24.0452 14.3712C24.4495 14.3448 24.7991 14.1258 25.0044 13.77C25.2515 13.3416 25.2478 12.799 24.9942 12.318C24.7295 11.8179 24.3862 11.3874 24.0842 11.0312ZM24.13 13.2869C24.0817 13.3706 24.0221 13.3859 23.9913 13.3896L20.4869 13.388C20.4868 13.388 20.4867 13.388 20.4865 13.388C20.4727 13.388 20.4588 13.3885 20.4451 13.3897C19.7547 13.4459 19.1679 13.2084 18.6004 12.6424C18.2785 12.3214 17.9635 11.9766 17.659 11.6431C17.5105 11.4806 17.3571 11.3125 17.2029 11.1474C17.0117 10.943 16.7754 10.7082 16.4717 10.5152C16.017 10.2263 15.6403 10.2351 15.4043 10.2933C15.1708 10.3508 14.8389 10.5151 14.5842 10.9701C14.2542 11.5588 14.1814 12.1938 14.1517 12.7938C14.1346 13.1607 14.0712 13.2576 14.0447 13.2822C14.01 13.3145 13.894 13.3713 13.5071 13.3886C11.6475 13.4741 10.0869 13.1482 8.73544 12.3915C7.5598 11.7332 6.53036 10.7877 5.49586 9.41602C3.9489 7.36471 2.58778 4.98922 1.08266 1.71369C1.02812 1.59503 1.01128 1.52098 1.00641 1.48133C1.04481 1.469 1.11983 1.45277 1.25136 1.4504C2.34657 1.42964 3.46963 1.42906 4.68568 1.44891C4.85217 1.45132 5.04174 1.50022 5.18529 1.84396C5.86334 3.47565 6.64659 4.89566 7.57993 6.18525C7.82774 6.52754 8.1362 6.95362 8.58953 7.25718C9.00476 7.53545 9.34172 7.52215 9.55133 7.46202C9.76103 7.40185 10.0521 7.23468 10.2481 6.78047C10.3745 6.4877 10.451 6.15803 10.4889 5.74149C10.597 4.50562 10.5778 3.47811 10.4286 2.50894C10.3234 1.81457 9.95701 1.31296 9.37992 1.0568C9.48241 1.00458 9.59789 0.982803 9.75828 0.982803H13.6904C13.9116 1.03136 13.9554 1.08841 13.9704 1.10792C14.0341 1.19083 14.0706 1.38696 14.0928 1.54021L14.0962 5.83149C14.0873 6.24287 14.2916 7.15524 14.9872 7.40542C14.9929 7.40749 14.9986 7.40942 15.0044 7.41125C15.6376 7.61378 16.0565 7.17629 16.2814 6.94124L16.3215 6.89951C17.3796 5.80037 18.0922 4.51607 18.6489 3.40633C18.9391 2.83327 19.1848 2.2405 19.3926 1.72954C19.4966 1.47329 19.5912 1.43109 19.8169 1.43576C19.82 1.43586 19.8231 1.43586 19.8262 1.43586L23.6613 1.43918C23.7505 1.43918 23.8435 1.44019 23.9158 1.45228C24.0985 1.48273 24.1738 1.51983 24.1986 1.5352C24.2011 1.56367 24.2005 1.64557 24.1453 1.8165C23.8671 2.67351 23.3295 3.40165 22.7604 4.17257L22.6924 4.26474C22.3967 4.66518 22.0845 5.06808 21.7826 5.45778C21.4345 5.90684 21.0748 6.37111 20.7337 6.83968C20.0044 7.83544 20.0685 8.49623 20.9786 9.36495C21.1937 9.57043 21.4141 9.77479 21.6273 9.97241C22.2319 10.5328 22.803 11.0622 23.3126 11.6598C23.5794 11.9746 23.8819 12.3527 24.1023 12.7693C24.2173 12.9874 24.1891 13.1844 24.13 13.2869Z" fill="#7F7F7F"/>
</svg>
