<svg width="470" height="598" viewBox="0 0 470 598" fill="none" xmlns="http://www.w3.org/2000/svg">
<path d="M-4.58301e-05 1.14712e-05C0.203318 0.579504 0.391015 1.16683 0.563092 1.76198C0.334955 1.18838 0.146808 0.599651 -4.58301e-05 1.14712e-05Z" transform="translate(157.008 2.49805)" fill="#E3DCDC"/>
<path d="M0.87987 -1.14712e-05L-6.87452e-05 0.646066C0.281512 0.422883 0.574825 0.199678 0.87987 -1.14712e-05Z" transform="translate(133.225 75.5972)" fill="#E3DCDC"/>
<path fill-rule="evenodd" clip-rule="evenodd" d="M324.521 0L340.98 139.116L55.661 213.728L0 84.8592L324.521 0ZM323.514 1.47734L135.976 50.5246L1.61972 85.6498L56.3383 212.337L339.695 138.238L323.514 1.47734Z" transform="translate(-49.4395 10.7578)" fill="#E3DCDC"/>
<path fill-rule="evenodd" clip-rule="evenodd" d="M0 0H237.989V7.52895H0V0ZM1.17334 1.17456V6.3544H236.815V1.17456H1.17334Z" transform="matrix(0.967459 -0.253026 0.252464 0.967606 34.5801 224.501)" fill="#E3DCDC"/>
<path fill-rule="evenodd" clip-rule="evenodd" d="M2.12382 1.17456C1.59889 1.17456 1.17334 1.60054 1.17334 2.12595V71.0138C1.17334 71.5392 1.59889 71.9652 2.12382 71.9652H100.544C101.069 71.9652 101.494 71.5393 101.494 71.0138V2.12595C101.494 1.60047 101.069 1.17456 100.544 1.17456H2.12382ZM0 2.12595C0 0.951782 0.950938 0 2.12382 0H100.544C101.717 0 102.667 0.951853 102.667 2.12595V71.0138C102.667 72.1879 101.717 73.1397 100.544 73.1397H2.12382C0.950938 73.1397 0 72.188 0 71.0138V2.12595Z" transform="matrix(0.967459 -0.253026 0.252464 0.967606 134.768 340.51)" fill="#E3DCDC"/>
<path fill-rule="evenodd" clip-rule="evenodd" d="M315.338 1.13652L0.296476 83.5145L0 82.378L315.042 0L315.338 1.13652Z" transform="translate(-37.1836 39.8945)" fill="#E3DCDC"/>
<path fill-rule="evenodd" clip-rule="evenodd" d="M65.2248 0L72.5619 39.4513L10.0928 55.7835L0 17.0583L65.2248 0ZM1.43139 17.898L10.9318 54.3502L71.2085 38.5911L64.3021 1.45539L1.43139 17.898Z" transform="translate(135.924 59.9502)" fill="#E3DCDC"/>
<path fill-rule="evenodd" clip-rule="evenodd" d="M29.8936 0L32.254 19.4305L3.35949 26.9926L0 7.81241L29.8936 0ZM1.34235 8.67561L4.2951 25.5336L30.9656 18.5536L28.8911 1.47602L1.34235 8.67561Z" transform="translate(219.246 58.4487)" fill="#E3DCDC"/>
<path fill-rule="evenodd" clip-rule="evenodd" d="M0 0H271.816V107.002H0V0ZM1.17334 1.17456V105.828H270.643V1.17456H1.17334Z" transform="matrix(0.967459 -0.253026 0.252464 0.967606 22.4863 245.174)" fill="#E3DCDC"/>
<path fill-rule="evenodd" clip-rule="evenodd" d="M62.5477 0L66.1739 40.4075L66.1174 40.4223L69.6358 78.8771L13.3412 93.5962L5.54042 55.0543L64.9165 39.5224L61.5032 1.48707L0.296391 17.4867L0 16.3501L62.5477 0ZM64.9668 40.7233L6.9107 55.9099L14.2448 92.1459L68.3767 77.9922L64.9668 40.7233Z" transform="translate(201.561 43.4897)" fill="#E3DCDC"/>
<path fill-rule="evenodd" clip-rule="evenodd" d="M0 0H35.0007V9.64314H0V0ZM1.17334 1.17456V8.46859H33.8274V1.17456H1.17334Z" transform="matrix(0.967459 -0.253026 0.252464 0.967606 91.0508 181.289)" fill="#E3DCDC"/>
<path fill-rule="evenodd" clip-rule="evenodd" d="M0 0H35.0006V9.64316H0V0ZM1.17334 1.17456V8.4686H33.8273V1.17456H1.17334Z" transform="matrix(0.969928 -0.250279 0.249722 0.970072 126.643 171.801)" fill="#E3DCDC"/>
<path fill-rule="evenodd" clip-rule="evenodd" d="M0 0H35.0008V9.64314H0V0ZM1.17334 1.17456V8.46859H33.8275V1.17456H1.17334Z" transform="matrix(0.967459 -0.253026 0.252464 0.967606 161.84 162.5)" fill="#E3DCDC"/>
<path fill-rule="evenodd" clip-rule="evenodd" d="M152.592 0L162.811 37.9244L15.3608 76.3661L0 39.8924L152.592 0ZM1.60757 40.6862L16.0475 74.9732L161.37 37.0863L151.762 1.43092L1.60757 40.6862Z" transform="translate(-5.74219 114.303)" fill="#E3DCDC"/>
<path fill-rule="evenodd" clip-rule="evenodd" d="M54.3644 0L59.2075 14.0233L5.78731 27.949L0 14.2166L54.3644 0ZM1.60786 15.0102L6.47377 26.5563L57.6841 13.2067L53.6104 1.41124L1.60786 15.0102Z" transform="translate(-9.66016 108.192)" fill="#E3DCDC"/>
<path fill-rule="evenodd" clip-rule="evenodd" d="M89.2593 0L90.5884 4.35628L1.64944 27.5926L0 23.6094L89.2593 0ZM1.59815 24.4016L2.3419 26.1977L89.1091 3.52876L88.4672 1.42448L1.59815 24.4016Z" transform="translate(-2.09766 116.432)" fill="#E3DCDC"/>
<path fill-rule="evenodd" clip-rule="evenodd" d="M89.2754 0L90.5888 4.35724L1.6654 27.5926L0 23.6104L89.2754 0ZM1.60278 24.4015L2.35435 26.1986L89.1136 3.52873L88.4795 1.42541L1.60278 24.4015Z" transform="translate(-20.4043 73.686)" fill="#E3DCDC"/>
<path fill-rule="evenodd" clip-rule="evenodd" d="M59.6159 1.13655L0.296374 16.6419L0 15.5053L59.3195 0L59.6159 1.13655Z" transform="translate(155.91 135.804)" fill="#E3DCDC"/>
<path fill-rule="evenodd" clip-rule="evenodd" d="M62.8041 24.056L0 1.10343L0.402306 0L63.2064 22.9526L62.8041 24.056Z" transform="translate(207.607 98.4204)" fill="#E3DCDC"/>
<path fill-rule="evenodd" clip-rule="evenodd" d="M0 52.9178L51.7521 0L52.5904 0.821798L0.838314 53.7396L0 52.9178Z" transform="translate(214.957 83.0439)" fill="#E3DCDC"/>
<path fill-rule="evenodd" clip-rule="evenodd" d="M71.2282 22.4921L0 1.12522L0.33674 0L71.5649 21.3668L71.2282 22.4921Z" transform="translate(136.412 77.0425)" fill="#E3DCDC"/>
<path fill-rule="evenodd" clip-rule="evenodd" d="M0 54.3979L54.2394 0L55.0697 0.829882L0.830331 55.2278L0 54.3979Z" transform="translate(146.021 60.2051)" fill="#E3DCDC"/>
<path fill-rule="evenodd" clip-rule="evenodd" d="M161.404 1.17443L0.0227698 4.31073L0 3.1363L161.381 0L161.404 1.17443Z" transform="translate(-4.94922 150.868)" fill="#E3DCDC"/>
<path fill-rule="evenodd" clip-rule="evenodd" d="M0 74.872L135.757 0L136.323 1.02887L0.56609 75.9008L0 74.872Z" transform="translate(10.5352 114.467)" fill="#E3DCDC"/>
<path fill-rule="evenodd" clip-rule="evenodd" d="M24.1426 0L28.6586 21.1663L5.35983 27.2723L0 6.342L24.1426 0ZM1.42624 7.18175L6.20347 25.837L27.2771 20.3141L23.2519 1.44838L1.42624 7.18175Z" transform="translate(166.221 112.249)" fill="#E3DCDC"/>
<path fill-rule="evenodd" clip-rule="evenodd" d="M88.7445 0L90.0593 4.34514L1.64967 27.4519L0 23.4687L88.7445 0ZM1.59823 24.261L2.34205 26.057L88.5828 3.51703L87.9498 1.42509L1.59823 24.261Z" transform="translate(-18.043 79.3008)" fill="#E3DCDC"/>
<path fill-rule="evenodd" clip-rule="evenodd" d="M262.143 1.13652L0.296484 69.6067L0 68.4701L261.846 0L262.143 1.13652Z" transform="translate(26.8164 191.119)" fill="#E3DCDC"/>
<path fill-rule="evenodd" clip-rule="evenodd" d="M262.131 1.13653L0.296448 69.595L0 68.4584L261.835 0L262.131 1.13653Z" transform="translate(31.4629 208.233)" fill="#E3DCDC"/>
<path fill-rule="evenodd" clip-rule="evenodd" d="M262.131 1.13653L0.296448 69.5949L0 68.4584L261.835 0L262.131 1.13653Z" transform="translate(24.7051 182.333)" fill="#E3DCDC"/>
<path fill-rule="evenodd" clip-rule="evenodd" d="M262.143 1.13653L0.296436 69.5949L0 68.4584L261.846 0L262.143 1.13653Z" transform="translate(35.9336 225.383)" fill="#E3DCDC"/>
<path fill-rule="evenodd" clip-rule="evenodd" d="M262.143 1.13652L0.296484 69.6067L0 68.4701L261.846 0L262.143 1.13652Z" transform="translate(40.3438 242.956)" fill="#E3DCDC"/>
<path fill-rule="evenodd" clip-rule="evenodd" d="M262.131 1.13652L0.296496 69.6067L0 68.4702L261.835 0L262.131 1.13652Z" transform="translate(44.9199 260.493)" fill="#E3DCDC"/>
<path fill-rule="evenodd" clip-rule="evenodd" d="M4.84553 18.8565L0 0.297063L1.13511 0L5.98065 18.5594L4.84553 18.8565Z" transform="translate(63.8008 324.332)" fill="#E3DCDC"/>
<path fill-rule="evenodd" clip-rule="evenodd" d="M4.84553 18.8565L0 0.297063L1.13511 0L5.98065 18.5594L4.84553 18.8565Z" transform="translate(82.125 319.54)" fill="#E3DCDC"/>
<path fill-rule="evenodd" clip-rule="evenodd" d="M4.84553 18.8565L0 0.297063L1.13511 0L5.98065 18.5594L4.84553 18.8565Z" transform="translate(99.6426 314.959)" fill="#E3DCDC"/>
<path fill-rule="evenodd" clip-rule="evenodd" d="M4.7281 18.4216L0 0.29683L1.13517 0L5.86327 18.1248L4.7281 18.4216Z" transform="translate(117.219 291.23)" fill="#E3DCDC"/>
<path fill-rule="evenodd" clip-rule="evenodd" d="M4.72824 18.4332L0 0.296658L1.13522 0L5.86346 18.1365L4.72824 18.4332Z" transform="translate(135.203 286.52)" fill="#E3DCDC"/>
<path fill-rule="evenodd" clip-rule="evenodd" d="M4.72824 18.4332L0 0.296658L1.13522 0L5.86346 18.1365L4.72824 18.4332Z" transform="translate(152.592 281.974)" fill="#E3DCDC"/>
<path fill-rule="evenodd" clip-rule="evenodd" d="M4.73998 18.4339L0 0.297348L1.13504 0L5.87502 18.1365L4.73998 18.4339Z" transform="translate(169.781 277.476)" fill="#E3DCDC"/>
<path fill-rule="evenodd" clip-rule="evenodd" d="M4.72824 18.4332L0 0.296659L1.13522 0L5.86346 18.1365L4.72824 18.4332Z" transform="translate(186.922 273)" fill="#E3DCDC"/>
<path fill-rule="evenodd" clip-rule="evenodd" d="M4.72809 18.4216L0 0.29683L1.13517 0L5.86327 18.1248L4.72809 18.4216Z" transform="translate(205.354 268.185)" fill="#E3DCDC"/>
<path fill-rule="evenodd" clip-rule="evenodd" d="M4.72824 18.4332L0 0.296658L1.13522 0L5.86346 18.1365L4.72824 18.4332Z" transform="translate(223.209 263.509)" fill="#E3DCDC"/>
<path fill-rule="evenodd" clip-rule="evenodd" d="M4.72824 18.4216L0 0.296839L1.13517 0L5.86341 18.1248L4.72824 18.4216Z" transform="translate(241.02 258.858)" fill="#E3DCDC"/>
<path fill-rule="evenodd" clip-rule="evenodd" d="M4.72824 18.4216L0 0.296839L1.13517 0L5.86341 18.1248L4.72824 18.4216Z" transform="translate(258.408 254.312)" fill="#E3DCDC"/>
<path fill-rule="evenodd" clip-rule="evenodd" d="M4.7281 18.4216L0 0.29683L1.13517 0L5.86327 18.1248L4.7281 18.4216Z" transform="translate(81.5859 300.545)" fill="#E3DCDC"/>
<path fill-rule="evenodd" clip-rule="evenodd" d="M4.72824 18.4216L0 0.296839L1.13517 0L5.86341 18.1248L4.72824 18.4216Z" transform="translate(99.8301 295.776)" fill="#E3DCDC"/>
<path fill-rule="evenodd" clip-rule="evenodd" d="M4.72809 18.4332L0 0.29665L1.13522 0L5.86332 18.1365L4.72809 18.4332Z" transform="translate(102.988 276.29)" fill="#E3DCDC"/>
<path fill-rule="evenodd" clip-rule="evenodd" d="M4.72824 18.4216L0 0.296839L1.13517 0L5.86341 18.1248L4.72824 18.4216Z" transform="translate(120.973 271.591)" fill="#E3DCDC"/>
<path fill-rule="evenodd" clip-rule="evenodd" d="M4.72824 18.4216L0 0.296839L1.13517 0L5.86341 18.1248L4.72824 18.4216Z" transform="translate(138.361 267.044)" fill="#E3DCDC"/>
<path fill-rule="evenodd" clip-rule="evenodd" d="M4.72824 18.4217L0 0.296838L1.13517 0L5.86341 18.1248L4.72824 18.4217Z" transform="translate(155.561 262.545)" fill="#E3DCDC"/>
<path fill-rule="evenodd" clip-rule="evenodd" d="M4.72824 18.4332L0 0.296658L1.13522 0L5.86346 18.1365L4.72824 18.4332Z" transform="translate(172.689 258.059)" fill="#E3DCDC"/>
<path fill-rule="evenodd" clip-rule="evenodd" d="M4.7281 18.4332L0 0.29665L1.13522 0L5.86332 18.1365L4.7281 18.4332Z" transform="translate(191.121 253.242)" fill="#E3DCDC"/>
<path fill-rule="evenodd" clip-rule="evenodd" d="M4.72824 18.4216L0 0.296839L1.13517 0L5.86341 18.1248L4.72824 18.4216Z" transform="translate(208.979 248.58)" fill="#E3DCDC"/>
<path fill-rule="evenodd" clip-rule="evenodd" d="M4.72824 18.4332L0 0.296658L1.13522 0L5.86346 18.1365L4.72824 18.4332Z" transform="translate(226.789 243.916)" fill="#E3DCDC"/>
<path fill-rule="evenodd" clip-rule="evenodd" d="M4.72824 18.4332L0 0.296658L1.13522 0L5.86346 18.1365L4.72824 18.4332Z" transform="translate(244.178 239.371)" fill="#E3DCDC"/>
<path fill-rule="evenodd" clip-rule="evenodd" d="M4.73998 18.4339L0 0.297348L1.13504 0L5.87502 18.1365L4.73998 18.4339Z" transform="translate(263.031 234.437)" fill="#E3DCDC"/>
<path fill-rule="evenodd" clip-rule="evenodd" d="M4.7281 18.4332L0 0.29665L1.13522 0L5.86332 18.1365L4.7281 18.4332Z" transform="translate(67.3555 285.604)" fill="#E3DCDC"/>
<path fill-rule="evenodd" clip-rule="evenodd" d="M4.72824 18.4332L0 0.296658L1.13522 0L5.86346 18.1365L4.72824 18.4332Z" transform="translate(85.5996 280.835)" fill="#E3DCDC"/>
<path fill-rule="evenodd" clip-rule="evenodd" d="M4.4935 17.5172L0 0.296914L1.13515 0L5.62865 17.2203L4.4935 17.5172Z" transform="translate(94.9961 260.314)" fill="#E3DCDC"/>
<path fill-rule="evenodd" clip-rule="evenodd" d="M4.49365 17.5288L0 0.296733L1.1352 0L5.62884 17.2321L4.49365 17.5288Z" transform="translate(112.984 255.604)" fill="#E3DCDC"/>
<path fill-rule="evenodd" clip-rule="evenodd" d="M4.4935 17.5288L0 0.296724L1.1352 0L5.6287 17.2321L4.4935 17.5288Z" transform="translate(130.371 251.058)" fill="#E3DCDC"/>
<path fill-rule="evenodd" clip-rule="evenodd" d="M4.4935 17.5288L0 0.296724L1.1352 0L5.6287 17.232L4.4935 17.5288Z" transform="translate(147.561 246.559)" fill="#E3DCDC"/>
<path fill-rule="evenodd" clip-rule="evenodd" d="M4.4935 17.5288L0 0.296724L1.1352 0L5.6287 17.232L4.4935 17.5288Z" transform="translate(164.699 242.083)" fill="#E3DCDC"/>
<path fill-rule="evenodd" clip-rule="evenodd" d="M4.4935 17.5288L0 0.296724L1.1352 0L5.6287 17.2321L4.4935 17.5288Z" transform="translate(183.131 237.268)" fill="#E3DCDC"/>
<path fill-rule="evenodd" clip-rule="evenodd" d="M4.49365 17.5288L0 0.296733L1.1352 0L5.62885 17.2321L4.49365 17.5288Z" transform="translate(200.988 232.592)" fill="#E3DCDC"/>
<path fill-rule="evenodd" clip-rule="evenodd" d="M4.4935 17.5288L0 0.296724L1.1352 0L5.6287 17.2321L4.4935 17.5288Z" transform="translate(218.797 227.94)" fill="#E3DCDC"/>
<path fill-rule="evenodd" clip-rule="evenodd" d="M4.49365 17.5172L0 0.296922L1.13515 0L5.62879 17.2203L4.49365 17.5172Z" transform="translate(236.186 223.395)" fill="#E3DCDC"/>
<path fill-rule="evenodd" clip-rule="evenodd" d="M4.49365 17.5288L0 0.296733L1.1352 0L5.62885 17.2321L4.49365 17.5288Z" transform="translate(254.982 218.474)" fill="#E3DCDC"/>
<path fill-rule="evenodd" clip-rule="evenodd" d="M4.4935 17.5288L0 0.296724L1.1352 0L5.6287 17.232L4.4935 17.5288Z" transform="translate(272.369 213.927)" fill="#E3DCDC"/>
<path fill-rule="evenodd" clip-rule="evenodd" d="M4.4935 17.5172L0 0.296914L1.13515 0L5.62865 17.2203L4.4935 17.5172Z" transform="translate(59.3652 269.629)" fill="#E3DCDC"/>
<path fill-rule="evenodd" clip-rule="evenodd" d="M4.4935 17.5172L0 0.296913L1.13515 0L5.62865 17.2203L4.4935 17.5172Z" transform="translate(77.6094 264.86)" fill="#E3DCDC"/>
<path fill-rule="evenodd" clip-rule="evenodd" d="M4.49365 17.5288L0 0.296733L1.1352 0L5.62884 17.232L4.49365 17.5288Z" transform="translate(82.8066 245.09)" fill="#E3DCDC"/>
<path fill-rule="evenodd" clip-rule="evenodd" d="M4.4935 17.5288L0 0.296724L1.1352 0L5.6287 17.232L4.4935 17.5288Z" transform="translate(100.793 240.392)" fill="#E3DCDC"/>
<path fill-rule="evenodd" clip-rule="evenodd" d="M4.4935 17.5172L0 0.296914L1.13515 0L5.62865 17.2203L4.4935 17.5172Z" transform="translate(118.18 235.847)" fill="#E3DCDC"/>
<path fill-rule="evenodd" clip-rule="evenodd" d="M4.4935 17.5288L0 0.296724L1.1352 0L5.6287 17.2321L4.4935 17.5288Z" transform="translate(135.381 231.348)" fill="#E3DCDC"/>
<path fill-rule="evenodd" clip-rule="evenodd" d="M4.4935 17.5172L0 0.296913L1.13515 0L5.62865 17.2203L4.4935 17.5172Z" transform="translate(152.508 226.872)" fill="#E3DCDC"/>
<path fill-rule="evenodd" clip-rule="evenodd" d="M4.49365 17.5288L0 0.296733L1.1352 0L5.62884 17.2321L4.49365 17.5288Z" transform="translate(170.941 222.044)" fill="#E3DCDC"/>
<path fill-rule="evenodd" clip-rule="evenodd" d="M4.49365 17.5288L0 0.296733L1.1352 0L5.62884 17.232L4.49365 17.5288Z" transform="translate(188.799 217.381)" fill="#E3DCDC"/>
<path fill-rule="evenodd" clip-rule="evenodd" d="M4.4935 17.5288L0 0.296724L1.1352 0L5.6287 17.232L4.4935 17.5288Z" transform="translate(206.607 212.717)" fill="#E3DCDC"/>
<path fill-rule="evenodd" clip-rule="evenodd" d="M4.49365 17.5288L0 0.296733L1.1352 0L5.62884 17.2321L4.49365 17.5288Z" transform="translate(223.996 208.171)" fill="#E3DCDC"/>
<path fill-rule="evenodd" clip-rule="evenodd" d="M4.49365 17.5288L0 0.296733L1.1352 0L5.62884 17.2321L4.49365 17.5288Z" transform="translate(241.02 203.72)" fill="#E3DCDC"/>
<path fill-rule="evenodd" clip-rule="evenodd" d="M4.4935 17.5288L0 0.296724L1.1352 0L5.6287 17.2321L4.4935 17.5288Z" transform="translate(258.408 199.174)" fill="#E3DCDC"/>
<path fill-rule="evenodd" clip-rule="evenodd" d="M4.49365 17.5288L0 0.296733L1.1352 0L5.62885 17.2321L4.49365 17.5288Z" transform="translate(47.1758 254.406)" fill="#E3DCDC"/>
<path fill-rule="evenodd" clip-rule="evenodd" d="M4.4935 17.5288L0 0.296724L1.1352 0L5.6287 17.2321L4.4935 17.5288Z" transform="translate(65.418 249.636)" fill="#E3DCDC"/>
<path fill-rule="evenodd" clip-rule="evenodd" d="M2.27618 9.03577L0 0.296391L1.13529 0L3.41147 8.73938L2.27618 9.03577Z" transform="translate(83.8516 235.647)" fill="#E3DCDC"/>
<path fill-rule="evenodd" clip-rule="evenodd" d="M2.27618 9.04715L0 0.296018L1.13539 0L3.41157 8.75113L2.27618 9.04715Z" transform="translate(101.836 230.937)" fill="#E3DCDC"/>
<path fill-rule="evenodd" clip-rule="evenodd" d="M2.27604 9.04713L0 0.296001L1.13539 0L3.41143 8.75113L2.27604 9.04713Z" transform="translate(119.225 226.391)" fill="#E3DCDC"/>
<path fill-rule="evenodd" clip-rule="evenodd" d="M2.28778 9.04853L0 0.297432L1.13502 0L3.4228 8.7511L2.28778 9.04853Z" transform="translate(136.414 221.891)" fill="#E3DCDC"/>
<path fill-rule="evenodd" clip-rule="evenodd" d="M2.27604 9.0471L0 0.296002L1.13539 0L3.41143 8.7511L2.27604 9.0471Z" transform="translate(153.555 217.416)" fill="#E3DCDC"/>
<path fill-rule="evenodd" clip-rule="evenodd" d="M2.27618 9.03577L0 0.296391L1.13529 0L3.41147 8.73938L2.27618 9.03577Z" transform="translate(171.986 212.601)" fill="#E3DCDC"/>
<path fill-rule="evenodd" clip-rule="evenodd" d="M2.27618 9.04713L0 0.296019L1.13539 0L3.41157 8.75111L2.27618 9.04713Z" transform="translate(189.842 207.925)" fill="#E3DCDC"/>
<path fill-rule="evenodd" clip-rule="evenodd" d="M2.27604 9.03575L0 0.296374L1.13529 0L3.41133 8.73938L2.27604 9.03575Z" transform="translate(207.652 203.274)" fill="#E3DCDC"/>
<path fill-rule="evenodd" clip-rule="evenodd" d="M2.27618 9.03577L0 0.296391L1.13529 0L3.41147 8.73937L2.27618 9.03577Z" transform="translate(225.039 198.728)" fill="#E3DCDC"/>
<path fill-rule="evenodd" clip-rule="evenodd" d="M2.28778 9.04855L0 0.297431L1.13502 0L3.4228 8.75111L2.28778 9.04855Z" transform="translate(242.744 194.087)" fill="#E3DCDC"/>
<path fill-rule="evenodd" clip-rule="evenodd" d="M2.28778 9.04856L0 0.29743L1.13502 0L3.4228 8.75113L2.28778 9.04856Z" transform="translate(260.133 189.542)" fill="#E3DCDC"/>
<path fill-rule="evenodd" clip-rule="evenodd" d="M2.28778 9.03718L0 0.297805L1.13492 0L3.4227 8.73937L2.28778 9.03718Z" transform="translate(48.2188 244.961)" fill="#E3DCDC"/>
<path fill-rule="evenodd" clip-rule="evenodd" d="M2.27604 9.03575L0 0.296374L1.13529 0L3.41133 8.73938L2.27604 9.03575Z" transform="translate(66.4629 240.193)" fill="#E3DCDC"/>
<path fill-rule="evenodd" clip-rule="evenodd" d="M4.84553 18.8565L0 0.297063L1.13511 0L5.98065 18.5594L4.84553 18.8565Z" transform="translate(210.021 286.098)" fill="#E3DCDC"/>
<path fill-rule="evenodd" clip-rule="evenodd" d="M4.83379 18.8558L0 0.296389L1.13529 0L5.96908 18.5594L4.83379 18.8558Z" transform="translate(233.723 279.907)" fill="#E3DCDC"/>
<path fill-rule="evenodd" clip-rule="evenodd" d="M4.84553 18.868L0 0.296887L1.13516 0L5.98069 18.5712L4.84553 18.868Z" transform="translate(251.168 275.337)" fill="#E3DCDC"/>
<path d="M204.404 46.4548C203.298 44.3165 201.392 42.7033 199.101 41.9676L72.5074 0.420392C71.4129 0.0663503 70.2591 -0.0660687 69.113 0.0307309C67.9668 0.127531 66.8514 0.451663 65.8317 0.984271C63.734 2.06364 62.1481 3.93013 61.4202 6.17619L0.411139 192.369C-1.11409 197.068 1.73682 202.19 6.77007 203.846L132.05 244.958C134.414 245.761 136.994 245.63 139.265 244.594C140.402 244.059 141.416 243.294 142.243 242.348C143.071 241.402 143.695 240.295 144.076 239.097L204.909 53.2795C205.284 52.1659 205.433 50.9882 205.346 49.8161C205.26 48.6439 204.94 47.501 204.404 46.4548ZM143.466 238.885C143.106 239.988 142.528 241.008 141.767 241.882C141.005 242.756 140.075 243.468 139.033 243.975C137.99 244.481 136.856 244.772 135.699 244.83C134.541 244.888 133.384 244.712 132.296 244.312L7.01655 203.2C2.32354 201.661 -0.328062 196.904 1.09157 192.628L62.1007 6.43458C62.7662 4.38012 64.2123 2.67037 66.1267 1.67469C68.041 0.679017 70.2698 0.477414 72.3314 1.11346L198.925 42.6607C199.969 42.9865 200.939 43.5164 201.777 44.2197C202.615 44.923 203.305 45.7857 203.808 46.7579C204.311 47.7302 204.617 48.7926 204.707 49.8838C204.797 50.975 204.67 52.0733 204.334 53.1151L143.466 238.885Z" transform="translate(-85 352.522)" fill="#E3DCDC"/>
<path d="M196.882 41.8681L70.3001 0.344332C69.4197 0.0548262 68.4899 -0.0538569 67.5666 0.0248598C66.6433 0.103576 65.7453 0.368091 64.9265 0.802461C63.2207 1.67278 61.9296 3.18514 61.3364 5.00764L0.327351 191.201C-0.916295 194.983 1.50059 199.177 5.59524 200.539L130.887 241.652C132.837 242.325 134.972 242.22 136.847 241.358C137.773 240.921 138.6 240.297 139.274 239.524C139.948 238.752 140.456 237.849 140.766 236.871L201.599 51.0538C201.901 50.1536 202.018 49.2016 201.943 48.2549C201.869 47.3082 201.604 46.3863 201.164 45.5447C200.279 43.8005 198.739 42.4786 196.882 41.8681ZM140.167 236.636C139.89 237.522 139.435 238.342 138.83 239.045C138.224 239.748 137.482 240.319 136.647 240.724C134.924 241.503 132.969 241.595 131.18 240.982L5.88855 199.87C2.09895 198.625 -0.0715602 194.819 1.05476 191.389L62.0638 5.19563C62.6055 3.54581 63.7726 2.17491 65.3138 1.37803C66.0552 0.989245 66.8662 0.751664 67.6999 0.679074C68.5337 0.606485 69.3736 0.700347 70.1709 0.955171L196.659 42.5142C197.502 42.7795 198.284 43.2086 198.96 43.777C199.637 44.3454 200.194 45.0419 200.601 45.8266C200.996 46.5904 201.234 47.4259 201.301 48.2835C201.367 49.141 201.261 50.0032 200.988 50.8189L140.167 236.636Z" transform="translate(-83.3086 354.243)" fill="#E3DCDC"/>
<path d="M178.902 40.6384L55.1829 0.0426431C55.0773 0.00777383 54.9659 -0.00594585 54.855 0.00235065C54.7442 0.0106471 54.6361 0.0407706 54.5369 0.0909654C54.4378 0.14116 54.3495 0.210441 54.2771 0.294865C54.2048 0.37929 54.1497 0.477179 54.1152 0.582935L0.0400413 165.727C-0.027521 165.942 -0.00909279 166.174 0.0916002 166.376C0.192293 166.578 0.367329 166.732 0.579691 166.807L124.334 207.356C124.44 207.393 124.551 207.407 124.663 207.4C124.774 207.392 124.883 207.363 124.982 207.312C125.082 207.262 125.17 207.192 125.242 207.107C125.314 207.021 125.369 206.922 125.402 206.816L179.477 41.7308C179.513 41.6214 179.527 41.5058 179.517 41.3909C179.508 41.2761 179.475 41.1643 179.422 41.0623C179.368 40.9603 179.294 40.8702 179.205 40.7974C179.116 40.7245 179.013 40.6705 178.902 40.6384ZM124.569 206.604L0.849516 165.997L54.9246 0.841394L178.644 41.4489L124.569 206.604Z" transform="translate(-71.9922 371.589)" fill="#E3DCDC"/>
<path d="M0.868134 2.47272C1.19024 2.57321 1.53873 2.54339 1.83916 2.3897C2.13959 2.23601 2.36807 1.97066 2.47548 1.65046C2.55067 1.41193 2.55376 1.15651 2.48436 0.91623C2.41496 0.675956 2.27609 0.461542 2.08535 0.300014C1.89461 0.138486 1.6604 0.0370237 1.41222 0.00835985C1.16405 -0.020304 0.913008 0.0251125 0.690543 0.138916C0.468077 0.252719 0.284141 0.429806 0.161921 0.647949C0.0396999 0.866092 -0.0153086 1.11557 0.00366333 1.36497C0.0226352 1.61436 0.114811 1.85256 0.268619 2.04965C0.422427 2.24675 0.631021 2.39396 0.868134 2.47272ZM1.50159 0.534528C1.59712 0.565379 1.68565 0.61475 1.76211 0.679853C1.83857 0.744955 1.90153 0.824494 1.94729 0.913936C1.99305 1.00338 2.0207 1.10098 2.02878 1.20115C2.03687 1.30131 2.02522 1.40211 1.99441 1.49775C1.9636 1.59339 1.91421 1.68202 1.84919 1.75857C1.78416 1.83512 1.70479 1.89809 1.61545 1.9439C1.52612 1.98971 1.42863 2.01747 1.32858 2.02556C1.22854 2.03366 1.12779 2.02193 1.03226 1.99108C0.840028 1.92407 0.681336 1.78505 0.58943 1.60321C0.497523 1.42137 0.479661 1.21094 0.53959 1.01617C0.603835 0.824905 0.741136 0.666857 0.921412 0.576612C1.10169 0.486367 1.31021 0.471225 1.50159 0.534528Z" transform="translate(46.4043 382.385)" fill="#E3DCDC"/>
<path d="M0.473359 1.33727C0.644508 1.39293 0.83073 1.3785 0.99124 1.29705C1.15175 1.2156 1.27346 1.07376 1.32981 0.902657C1.38578 0.72972 1.37163 0.541739 1.29042 0.379142C1.20922 0.216545 1.06748 0.0923637 0.895713 0.0334298C0.723016 -0.0226465 0.535113 -0.00773898 0.373392 0.0748694C0.211672 0.157478 0.0893999 0.30102 0.0333901 0.473922C-0.0226197 0.646825 -0.00772971 0.834951 0.0747805 0.996864C0.157291 1.15878 0.300663 1.28119 0.473359 1.33727Z" transform="translate(43.5156 381.852)" fill="#E3DCDC"/>
<path fill-rule="evenodd" clip-rule="evenodd" d="M0 0H23.3856V6.72991H0V0ZM1.17339 1.17451V5.55541H22.2122V1.17451H1.17339Z" transform="matrix(0.949259 0.314495 -0.313822 0.949482 32.5957 390.43)" fill="#E3DCDC"/>
<path fill-rule="evenodd" clip-rule="evenodd" d="M0 0H23.3857V6.72999H0V0ZM1.17339 1.17451V5.55548H22.2123V1.17451H1.17339Z" transform="matrix(0.949259 0.314495 -0.313822 0.949482 56.9824 398.511)" fill="#E3DCDC"/>
<path fill-rule="evenodd" clip-rule="evenodd" d="M0 0H23.3856V6.72999H0V0ZM1.17339 1.17451V5.55548H22.2122V1.17451H1.17339Z" transform="matrix(0.949259 0.314495 -0.313822 0.949482 81.1348 406.515)" fill="#E3DCDC"/>
<path fill-rule="evenodd" clip-rule="evenodd" d="M0 0H23.3856V6.72991H0V0ZM1.17339 1.17451V5.55541H22.2122V1.17451H1.17339Z" transform="matrix(0.949259 0.314495 -0.313822 0.949482 -17.4258 542.847)" fill="#E3DCDC"/>
<path fill-rule="evenodd" clip-rule="evenodd" d="M0 0H23.3856V6.72999H0V0ZM1.17339 1.17451V5.55548H22.2122V1.17451H1.17339Z" transform="matrix(0.949259 0.314495 -0.313822 0.949482 6.74805 550.854)" fill="#E3DCDC"/>
<path fill-rule="evenodd" clip-rule="evenodd" d="M0 0H41.444V5.22651H0V0ZM1.17339 1.17451V4.052H40.2707V1.17451H1.17339Z" transform="matrix(0.949259 0.314495 -0.313822 0.949482 -8.7207 390.044)" fill="#E3DCDC"/>
<path fill-rule="evenodd" clip-rule="evenodd" d="M0 0H29.8627V5.22651H0V0ZM1.17339 1.17451V4.052H28.6893V1.17451H1.17339Z" transform="matrix(0.949259 0.314495 -0.313822 0.949482 -11.3242 397.967)" fill="#E3DCDC"/>
<path fill-rule="evenodd" clip-rule="evenodd" d="M0 0H61.1099V5.2266H0V0ZM1.17339 1.17451V4.05208H59.9365V1.17451H1.17339Z" transform="matrix(0.949891 0.310333 -0.309667 0.950109 -26.1543 451.35)" fill="#E3DCDC"/>
<path fill-rule="evenodd" clip-rule="evenodd" d="M0 0H43.8848V5.22658H0V0ZM1.17339 1.17451V4.05207H42.7114V1.17451H1.17339Z" transform="matrix(0.949259 0.314495 -0.313822 0.949482 -33.8281 466.039)" fill="#E3DCDC"/>
<path fill-rule="evenodd" clip-rule="evenodd" d="M0 0H41.7844V38.0071H0V0ZM1.17339 1.17451V36.8326H40.611V1.17451H1.17339Z" transform="matrix(0.949259 0.314495 -0.313822 0.949482 12.3652 422.162)" fill="#E3DCDC"/>
<path fill-rule="evenodd" clip-rule="evenodd" d="M0 0H41.7844V38.0071H0V0ZM1.17339 1.17451V36.8326H40.611V1.17451H1.17339Z" transform="matrix(0.949259 0.314495 -0.313822 0.949482 -26.1895 409.401)" fill="#E3DCDC"/>
<path fill-rule="evenodd" clip-rule="evenodd" d="M0 0H41.7844V38.0071H0V0ZM1.17339 1.17451V36.8326H40.611V1.17451H1.17339Z" transform="matrix(0.949259 0.314495 -0.313822 0.949482 50.9141 434.945)" fill="#E3DCDC"/>
<path fill-rule="evenodd" clip-rule="evenodd" d="M0 0H18.6452V17.0186H0V0ZM1.17339 1.17451V15.8441H17.4718V1.17451H1.17339Z" transform="matrix(0.949259 0.314495 -0.313822 0.949482 58.6074 448.542)" fill="#E3DCDC"/>
<path fill-rule="evenodd" clip-rule="evenodd" d="M0 0H82.3954V38.0072H0V0ZM1.17339 1.17451V36.8327H81.222V1.17451H1.17339Z" transform="matrix(0.949259 0.314495 -0.313822 0.949482 -37.752 444.356)" fill="#E3DCDC"/>
<path fill-rule="evenodd" clip-rule="evenodd" d="M0 0H82.3954V38.0071H0V0ZM1.17339 1.17451V36.8326H81.222V1.17451H1.17339Z" transform="matrix(-0.949259 -0.314495 0.313822 -0.949482 55.3164 554.301)" fill="#E3DCDC"/>
<path fill-rule="evenodd" clip-rule="evenodd" d="M0 0H41.7844V38.0072H0V0ZM1.17339 1.17451V36.8327H40.611V1.17451H1.17339Z" transform="matrix(0.949259 0.314495 -0.313822 0.949482 39.3418 469.908)" fill="#E3DCDC"/>
<path fill-rule="evenodd" clip-rule="evenodd" d="M26.9848 48.3162L0 0.578557L1.02107 0L28.0059 47.7377L26.9848 48.3162Z" transform="translate(12.1152 422.722)" fill="#E3DCDC"/>
<path fill-rule="evenodd" clip-rule="evenodd" d="M0 22.0129L50.6611 0L51.1282 1.07754L0.467094 23.0904L0 22.0129Z" transform="translate(0.835938 435.428)" fill="#E3DCDC"/>
<path fill-rule="evenodd" clip-rule="evenodd" d="M26.9965 48.328L0 0.57864L1.02102 0L28.0176 47.7494L26.9965 48.328Z" transform="translate(39.1016 470.458)" fill="#E3DCDC"/>
<path fill-rule="evenodd" clip-rule="evenodd" d="M50.5842 1.07427L0.474567 23.2634L0 22.1891L50.1097 0L50.5842 1.07427Z" transform="translate(27.8184 482.99)" fill="#E3DCDC"/>
<path d="M48.1614 0.0115629C46.774 0.102306 45.4201 0.478173 44.1841 1.11573L43.6209 1.39764L5.60757 20.192L5.04443 20.474C3.78324 21.0634 2.65992 21.9119 1.74752 22.9642C1.03315 23.8106 0.51608 24.8058 0.233982 25.8773C-0.222615 27.7512 -0.00663878 29.7262 0.844095 31.4569L2.15813 34.1233L51.0711 133.111L52.3968 135.777C53.2487 137.51 54.6872 138.884 56.4562 139.654C57.4805 140.079 58.5873 140.268 59.6944 140.206C61.0794 140.122 62.4309 139.746 63.66 139.102L64.2349 138.82L102.248 120.025L102.811 119.743C104.071 119.151 105.193 118.303 106.108 117.253C106.822 116.411 107.34 115.42 107.622 114.352C108.081 112.474 107.865 110.494 107.012 108.76L105.686 106.094L56.773 7.10647L55.459 4.44C54.5993 2.70889 53.1579 1.33644 51.3879 0.563684C50.3678 0.138223 49.2647 -0.0505594 48.1614 0.0115629ZM56.1629 7.41189L105.076 106.388L106.402 109.066C107.184 110.65 107.384 112.459 106.965 114.175C106.706 115.149 106.233 116.052 105.58 116.818C104.73 117.802 103.688 118.601 102.518 119.168L101.943 119.45L63.9299 138.244L63.3667 138.526C62.2157 139.126 60.9536 139.482 59.6592 139.571C58.6551 139.622 57.6525 139.445 56.7261 139.054C55.106 138.362 53.7869 137.112 53.007 135.531L51.6812 132.864L2.76824 33.8884L1.45421 31.2219C0.666826 29.6354 0.46729 27.8206 0.891071 26.1005C1.14957 25.127 1.62256 24.2239 2.27543 23.4575C3.12267 22.4706 4.16554 21.6706 5.33774 21.1082L5.91262 20.8263L43.9143 2.03199L44.4891 1.75009C45.6386 1.1483 46.9018 0.796067 48.1965 0.716394C49.2 0.657075 50.2036 0.829898 51.1296 1.22148C52.7474 1.91755 54.0656 3.16649 54.8489 4.74542L56.1629 7.41189Z" transform="translate(346.162 448.601)" fill="#E3DCDC"/>
<path d="M53.8406 0.705953C52.44 0.153313 50.9339 -0.0796395 49.432 0.0239928C47.9301 0.127625 46.4701 0.565246 45.1585 1.30503L44.9942 0.976171C44.8896 0.787775 44.7189 0.644927 44.5151 0.575469C44.3114 0.506011 44.0891 0.514888 43.8914 0.600275L35.1976 4.91121C35.0115 5.01781 34.8713 5.18956 34.8042 5.39343C34.737 5.59729 34.7476 5.81885 34.8338 6.01538L34.9863 6.34424L6.60546 20.44L6.03057 20.722C4.64935 21.3181 3.41792 22.2144 2.4256 23.3461C1.43328 24.4777 0.704928 25.8163 0.293356 27.2647C-0.274482 29.5594 -0.0126267 31.9813 1.03251 34.1012L2.34655 36.7676L4.86907 41.8656L4.51703 42.03C4.35712 42.113 4.23585 42.2551 4.17889 42.4262C4.12194 42.5973 4.13377 42.7838 4.21198 42.9463L6.69926 47.9737C6.77985 48.133 6.91973 48.2542 7.08868 48.3113C7.25763 48.3685 7.44217 48.3569 7.60269 48.2791L7.95472 48.103L9.23353 50.6989L8.88149 50.8751C8.71417 50.9756 8.58808 51.1325 8.52574 51.3176C8.46339 51.5027 8.46896 51.7039 8.54135 51.8853L12.3895 59.685C12.4856 59.8507 12.6381 59.9763 12.819 60.0388C12.9999 60.1013 13.1974 60.0966 13.3751 60.0256L13.7505 59.8377L14.783 61.9285L14.4194 62.1165C14.251 62.2068 14.1226 62.3571 14.0596 62.5377C13.9966 62.7182 14.0035 62.9158 14.0791 63.0914L17.9625 70.9616C18.063 71.1287 18.2211 71.2532 18.407 71.3116C18.5929 71.37 18.7937 71.3583 18.9716 71.2787L19.3235 71.1025L51.2593 135.708L52.5851 138.375C53.6333 140.483 55.3968 142.148 57.5597 143.073C58.96 143.625 60.4654 143.859 61.9668 143.757C63.4683 143.656 64.9284 143.221 66.2418 142.486L66.8049 142.204L104.818 123.41L105.393 123.128C106.773 122.525 108.002 121.626 108.994 120.493C109.985 119.36 110.715 118.021 111.13 116.573C111.697 114.282 111.436 111.864 110.391 109.748L109.065 107.07L60.1527 8.09453L58.8386 5.42806C57.7824 3.31212 56.0116 1.63914 53.8406 0.705953ZM35.2563 5.80395C35.2297 5.72781 35.229 5.64497 35.2545 5.56843C35.2799 5.4919 35.3302 5.42601 35.3971 5.3811L44.0908 1.07009C44.1668 1.04342 44.2496 1.04279 44.3261 1.0683C44.4025 1.09381 44.4683 1.14402 44.5131 1.21104L44.6774 1.53998H44.5836L35.4204 6.0741L35.2563 5.80395ZM7.35635 47.7976C7.31565 47.8142 7.27014 47.815 7.22889 47.7998C7.18763 47.7846 7.15354 47.7544 7.13336 47.7153L4.64607 42.6878C4.62944 42.6471 4.62873 42.6016 4.64393 42.5603C4.65912 42.519 4.68922 42.4848 4.72828 42.4646L5.06843 42.2885L7.70824 47.6213L7.35635 47.7976ZM13.1287 59.544C13.0719 59.557 13.0127 59.5527 12.9584 59.5318C12.9041 59.5109 12.8572 59.4742 12.8237 59.4265L8.97545 51.6269C8.95874 51.5696 8.95987 51.5084 8.97874 51.4518C8.99761 51.3951 9.03327 51.3456 9.081 51.3097L9.43303 51.1335L13.5042 59.3561L13.1287 59.544ZM18.7251 70.7972C18.6671 70.8146 18.6053 70.815 18.5471 70.7983C18.4888 70.7817 18.4368 70.7486 18.3967 70.7032L14.5132 62.8448C14.4964 62.791 14.4977 62.7332 14.5167 62.6802C14.5358 62.6272 14.5715 62.5819 14.6187 62.5511L14.9825 62.3631L19.0654 70.5857L18.7251 70.7972ZM59.5308 8.41163L108.444 107.387L109.758 110.054C110.723 112.026 110.968 114.274 110.45 116.409C110.06 117.764 109.375 119.016 108.444 120.074C107.512 121.132 106.358 121.971 105.065 122.529L104.49 122.811L66.4883 141.605L65.9134 141.887C64.6863 142.576 63.3219 142.986 61.9183 143.085C60.5146 143.185 59.1063 142.972 57.7944 142.462C55.7808 141.589 54.1424 140.028 53.1717 138.057L51.846 135.391L2.93317 36.4035L1.61914 33.737C0.64294 31.768 0.397637 29.5156 0.926958 27.3822C1.31383 26.0269 1.99806 24.7752 2.92973 23.7185C3.86141 22.6617 5.01697 21.8266 6.31214 21.274L6.88702 20.9804L44.8887 2.18602L45.4635 1.90412C46.6886 1.20902 48.0533 0.796643 49.4579 0.697063C50.8626 0.597484 52.2718 0.813225 53.5825 1.32855C55.5962 2.20187 57.2344 3.76301 58.205 5.73348L59.5308 8.41163Z" transform="translate(344.4 446.815)" fill="#E3DCDC"/>
<path d="M2.08856 2.73699C2.42859 2.56329 2.68681 2.26274 2.80752 1.90017C2.92824 1.5376 2.90183 1.14202 2.73391 0.798796C2.60629 0.543175 2.40584 0.331226 2.15788 0.189677C1.90992 0.0481286 1.62553 -0.0166101 1.34082 0.00362925C1.0561 0.0238686 0.783763 0.12818 0.558266 0.303385C0.332769 0.47859 0.164304 0.716818 0.0740418 0.987927C-0.0162204 1.25904 -0.0241299 1.55085 0.05127 1.82647C0.12667 2.10209 0.281896 2.34909 0.497541 2.53632C0.713186 2.72354 0.979564 2.84259 1.26276 2.8783C1.54596 2.91402 1.83328 2.86483 2.08856 2.73699ZM1.03261 0.599126C1.25396 0.49275 1.5082 0.477416 1.74068 0.556467C1.97317 0.635519 2.16546 0.802645 2.27632 1.02198C2.33234 1.13202 2.36581 1.25219 2.37486 1.37536C2.38391 1.49854 2.36837 1.62223 2.32903 1.73929C2.28969 1.85635 2.22743 1.96439 2.14585 2.05704C2.06427 2.14969 1.96503 2.22511 1.85397 2.27886C1.63573 2.36012 1.39509 2.35725 1.17883 2.27083C0.962582 2.18441 0.786097 2.02065 0.683726 1.81127C0.581354 1.60189 0.560384 1.36184 0.624863 1.13784C0.689341 0.913838 0.834642 0.721848 1.03261 0.599126Z" transform="translate(371.609 462.58)" fill="#E3DCDC"/>
<path d="M0.504418 1.01018C0.783045 1.01018 1.00898 0.784047 1.00898 0.505089C1.00898 0.226131 0.783045 0 0.504418 0C0.225791 0 0 0.226131 0 0.505089C0 0.784047 0.225791 1.01018 0.504418 1.01018Z" transform="translate(372.559 463.543)" fill="#E3DCDC"/>
<path d="M1.97019 6.59841L10.2534 2.4989C10.567 2.34243 10.806 2.06801 10.9181 1.73564C11.0302 1.40328 11.0064 1.03998 10.8518 0.725176C10.6957 0.414081 10.4229 0.177605 10.093 0.0675198C9.76314 -0.0425656 9.40318 -0.0172855 9.09191 0.137852L0.796937 4.23736C0.632267 4.30792 0.483803 4.41144 0.360549 4.54156C0.237295 4.67168 0.14192 4.82565 0.0802686 4.99402C0.0186176 5.1624 -0.00797822 5.34165 0.00207096 5.52069C0.0121201 5.69974 0.0585985 5.87485 0.138702 6.03525C0.218806 6.19564 0.330781 6.33789 0.46782 6.45337C0.604858 6.56885 0.764045 6.6551 0.935574 6.70674C1.1071 6.75838 1.28742 6.77435 1.46534 6.7537C1.64327 6.73305 1.81501 6.67621 1.97019 6.58665V6.59841ZM1.10199 4.8482L9.38522 0.736934C9.53791 0.663556 9.71322 0.653245 9.87345 0.708184C10.0337 0.763123 10.166 0.878908 10.2417 1.0306C10.3128 1.18252 10.3234 1.35592 10.271 1.51532C10.2187 1.67473 10.1074 1.80806 9.9601 1.88806L1.66513 5.98757C1.59051 6.0259 1.50914 6.04905 1.42553 6.05561C1.34192 6.06217 1.25786 6.05201 1.17819 6.02578C1.09852 5.99956 1.02476 5.95778 0.961353 5.90283C0.897941 5.84787 0.846027 5.78085 0.808681 5.70567C0.735391 5.5528 0.725164 5.3772 0.780038 5.21678C0.834911 5.05636 0.950487 4.92399 1.10199 4.8482Z" transform="translate(369.791 465.237)" fill="#E3DCDC"/>
<path d="M3.30263 0.6211C2.2504 1.14268 1.37633 1.96492 0.790854 2.98387C0.205375 4.00283 -0.0652876 5.17275 0.0133174 6.34564C0.0919224 7.51853 0.516204 8.64175 1.2324 9.57326C1.94859 10.5048 2.92467 11.2028 4.03706 11.5789C5.14946 11.9551 6.34825 11.9926 7.48191 11.6866C8.61558 11.3806 9.63318 10.7449 10.406 9.85997C11.1789 8.975 11.6722 7.88049 11.8237 6.71479C11.9753 5.5491 11.7782 4.36462 11.2573 3.31109C10.9126 2.61043 10.4331 1.98478 9.84632 1.47011C9.25955 0.955438 8.57704 0.561879 7.83795 0.311952C7.09887 0.0620247 6.31787 -0.0393581 5.53957 0.0137019C4.76128 0.066762 4.00105 0.273172 3.30263 0.6211ZM8.26546 10.6761C7.33576 11.1435 6.2885 11.3243 5.25614 11.1954C4.22378 11.0664 3.25277 10.6336 2.46623 9.95188C1.67969 9.27012 1.11291 8.37005 0.837687 7.36557C0.562461 6.36108 0.591192 5.29736 0.920181 4.30922C1.24917 3.32108 1.86363 2.45293 2.68579 1.81467C3.50794 1.17642 4.50077 0.796836 5.53857 0.72391C6.57637 0.650984 7.61252 0.887991 8.51567 1.40501C9.41881 1.92203 10.1483 2.69575 10.612 3.62819C11.2212 4.88296 11.3103 6.32801 10.8597 7.64826C10.4092 8.96851 9.45566 10.0569 8.20689 10.6761H8.26546Z" transform="translate(419.848 564.658)" fill="#E3DCDC"/>
<path d="M49.0601 0.0768282L0.381858 24.1806C0.300481 24.2193 0.227743 24.2741 0.168032 24.3416C0.10832 24.4092 0.0628978 24.4881 0.0344082 24.5736C0.00591865 24.6592 -0.00510837 24.7496 0.00218391 24.8395C0.00947619 24.9295 0.0348941 25.017 0.0768011 25.0969L42.8184 111.61C42.9013 111.77 43.0431 111.891 43.214 111.948C43.3849 112.005 43.5712 111.993 43.7334 111.915L92.4116 87.7995C92.4915 87.7607 92.5629 87.7064 92.6216 87.6398C92.6803 87.5731 92.7251 87.4954 92.7535 87.4112C92.7819 87.327 92.7933 87.238 92.787 87.1494C92.7807 87.0608 92.7567 86.9743 92.7167 86.895L49.9752 0.382248C49.9366 0.300774 49.8819 0.22795 49.8144 0.168167C49.7469 0.108385 49.6681 0.0629084 49.5827 0.0343849C49.4972 0.00586147 49.4068 -0.00510697 49.317 0.00219398C49.2272 0.00949493 49.1398 0.0348714 49.0601 0.0768282ZM92.1066 87.1887L43.4284 111.304L0.675171 24.7914L49.3651 0.687668L92.1066 87.1887Z" transform="translate(353.711 462.772)" fill="#E3DCDC"/>
<path fill-rule="evenodd" clip-rule="evenodd" d="M0 0H14.9625V4.4039H0V0ZM0.880145 0.880779V3.52312H14.0823V0.880779H0.880145Z" transform="matrix(0.896045 -0.443964 0.443117 0.896464 358.99 489.566)" fill="#E3DCDC"/>
<path fill-rule="evenodd" clip-rule="evenodd" d="M0 0H14.9625V4.4039H0V0ZM0.880145 0.880779V3.52312H14.0823V0.880779H0.880145Z" transform="matrix(0.896045 -0.443964 0.443117 0.896464 373.584 482.332)" fill="#E3DCDC"/>
<path fill-rule="evenodd" clip-rule="evenodd" d="M0 0H14.9625V4.4039H0V0ZM0.880145 0.880779V3.52312H14.0823V0.880779H0.880145Z" transform="matrix(0.896045 -0.443964 0.443117 0.896464 388.045 475.165)" fill="#E3DCDC"/>
<path fill-rule="evenodd" clip-rule="evenodd" d="M0 0H14.9625V4.4039H0V0ZM0.880145 0.880779V3.52312H14.0823V0.880779H0.880145Z" transform="matrix(0.896045 -0.443964 0.443117 0.896464 395.328 563.083)" fill="#E3DCDC"/>
<path fill-rule="evenodd" clip-rule="evenodd" d="M0 0H14.9625V4.4039H0V0ZM0.880145 0.880779V3.52312H14.0823V0.880779H0.880145Z" transform="matrix(0.896045 -0.443964 0.443117 0.896464 409.939 555.848)" fill="#E3DCDC"/>
<path fill-rule="evenodd" clip-rule="evenodd" d="M0 0H14.9625V4.4039H0V0ZM0.880145 0.880779V3.52312H14.0823V0.880779H0.880145Z" transform="matrix(0.896045 -0.443964 0.443117 0.896464 424.389 548.693)" fill="#E3DCDC"/>
<path fill-rule="evenodd" clip-rule="evenodd" d="M0 0H26.4043V3.45266H0V0ZM0.880145 0.880779V2.57188H25.5242V0.880779H0.880145Z" transform="matrix(0.896045 -0.443964 0.443117 0.896464 371.742 492.179)" fill="#E3DCDC"/>
<path fill-rule="evenodd" clip-rule="evenodd" d="M0 0H19.0698V3.45266H0V0ZM0.880145 0.880779V2.57188H18.1897V0.880779H0.880145Z" transform="matrix(0.896045 -0.443964 0.443117 0.896464 377.176 494.91)" fill="#E3DCDC"/>
<path fill-rule="evenodd" clip-rule="evenodd" d="M0 0H17.1804V3.06517H0V0ZM0.880145 0.880779V2.18439H16.3003V0.880779H0.880145Z" transform="matrix(0.896045 -0.443964 0.443117 0.896464 383.15 528.135)" fill="#E3DCDC"/>
<path fill-rule="evenodd" clip-rule="evenodd" d="M0 0H12.4981V3.06517H0V0ZM0.880145 0.880779V2.18439H11.6179V0.880779H0.880145Z" transform="matrix(0.896045 -0.443964 0.443117 0.896464 385.133 532.163)" fill="#E3DCDC"/>
<path fill-rule="evenodd" clip-rule="evenodd" d="M0 0H17.1804V3.06509H0V0ZM0.880145 0.880779V2.18432H16.3003V0.880779H0.880145Z" transform="matrix(0.896045 -0.443964 0.443117 0.896464 410.875 536.317)" fill="#E3DCDC"/>
<path fill-rule="evenodd" clip-rule="evenodd" d="M0 0H12.4981V3.06509H0V0ZM0.880145 0.880779V2.18432H11.6179V0.880779H0.880145Z" transform="matrix(0.896045 -0.443964 0.443117 0.896464 412.867 540.352)" fill="#E3DCDC"/>
<path fill-rule="evenodd" clip-rule="evenodd" d="M0 0H21.9919V20.0113H0V0ZM0.880145 0.880779V19.1305H21.1117V0.880779H0.880145Z" transform="matrix(0.896045 -0.443964 0.443117 0.896464 370.092 506.863)" fill="#E3DCDC"/>
<path fill-rule="evenodd" clip-rule="evenodd" d="M0 0H21.992V20.0114H0V0ZM0.880145 0.880779V19.1306H21.1119V0.880779H0.880145Z" transform="matrix(0.896045 -0.443964 0.443117 0.896464 388.99 497.492)" fill="#E3DCDC"/>
<path fill-rule="evenodd" clip-rule="evenodd" d="M0 0H9.96323V9.11314H0V0ZM0.880145 0.880779V8.23236H9.08308V0.880779H0.880145Z" transform="matrix(0.896045 -0.443964 0.443117 0.896464 396.801 499.704)" fill="#E3DCDC"/>
<path fill-rule="evenodd" clip-rule="evenodd" d="M0 0H21.9919V20.0113H0V0ZM0.880145 0.880779V19.1305H21.1117V0.880779H0.880145Z" transform="matrix(0.896045 -0.443964 0.443117 0.896464 378.559 524.016)" fill="#E3DCDC"/>
<path fill-rule="evenodd" clip-rule="evenodd" d="M0 0H43.0918V20.0113H0V0ZM0.880145 0.880779V19.1305H42.2117V0.880779H0.880145Z" transform="matrix(-0.896045 0.443964 -0.443117 -0.896464 434.531 539.688)" fill="#E3DCDC"/>
<path fill-rule="evenodd" clip-rule="evenodd" d="M0 0H21.9919V20.0114H0V0ZM0.880145 0.880779V19.1306H21.1117V0.880779H0.880145Z" transform="matrix(0.896045 -0.443964 0.443117 0.896464 397.477 514.662)" fill="#E3DCDC"/>
<path fill-rule="evenodd" clip-rule="evenodd" d="M0 0H21.9919V20.0113H0V0ZM0.880145 0.880779V19.1305H21.1117V0.880779H0.880145Z" transform="matrix(0.896045 -0.443964 0.443117 0.896464 405.965 531.811)" fill="#E3DCDC"/>
<path fill-rule="evenodd" clip-rule="evenodd" d="M27.3954 8.62373L0 0.847579L0.240013 0L27.6354 7.77615L27.3954 8.62373Z" transform="translate(370.549 506.499)" fill="#E3DCDC"/>
<path fill-rule="evenodd" clip-rule="evenodd" d="M0 26.6645L10.7 0L11.5166 0.328431L0.816506 26.9929L0 26.6645Z" transform="translate(378.744 497.243)" fill="#E3DCDC"/>
<path fill-rule="evenodd" clip-rule="evenodd" d="M27.3954 8.6354L0 0.847484L0.240349 0L27.6357 7.78791L27.3954 8.6354Z" transform="translate(397.947 514.275)" fill="#E3DCDC"/>
<path fill-rule="evenodd" clip-rule="evenodd" d="M11.249 0.322618L0.818814 26.8578L0 26.5352L10.4302 0L11.249 0.322618Z" transform="translate(406.139 505.164)" fill="#E3DCDC"/>
<path fill-rule="evenodd" clip-rule="evenodd" d="M27.3838 8.62378L0 0.847552L0.24011 0L27.6239 7.77623L27.3838 8.62378Z" transform="translate(387.469 540.833)" fill="#E3DCDC"/>
<path fill-rule="evenodd" clip-rule="evenodd" d="M11.249 0.322741L0.818766 26.8463L0 26.5235L10.4302 0L11.249 0.322741Z" transform="translate(395.662 531.722)" fill="#E3DCDC"/>
<path fill-rule="evenodd" clip-rule="evenodd" d="M0.105553 1.01101L0 0.141763L1.16468 0L1.27023 0.869245L0.105553 1.01101Z" transform="translate(439.67 149.681)" fill="#E3DCDC"/>
<path fill-rule="evenodd" clip-rule="evenodd" d="M68.2833 32.8394L0 1.06522L0.494499 0L68.7778 31.7742L68.2833 32.8394Z" transform="translate(380.688 127.124)" fill="#E3DCDC"/>
<path fill-rule="evenodd" clip-rule="evenodd" d="M39.7625 0L68.8514 13.5447L68.3567 14.6098L40.3318 1.56055L1.06394 86.1427L0 85.6476L39.7625 0Z" transform="translate(312.33 113.581)" fill="#E3DCDC"/>
<path fill-rule="evenodd" clip-rule="evenodd" d="M66.7676 113.208L119.317 0L120.381 0.495048L67.337 114.769L0 83.4283L0.494585 82.3631L66.7676 113.208Z" transform="translate(334.227 201.118)" fill="#E3DCDC"/>
<path fill-rule="evenodd" clip-rule="evenodd" d="M19.4717 10.121L0 1.06532L0.494273 0L21.0302 9.55067L5.6364 42.7151L4.57243 42.22L19.4717 10.121Z" transform="translate(448.971 158.898)" fill="#E3DCDC"/>
<path fill-rule="evenodd" clip-rule="evenodd" d="M0 44.0727L20.4498 0L21.5139 0.494892L1.06404 44.5676L0 44.0727Z" transform="translate(339.902 136.254)" fill="#E3DCDC"/>
<path fill-rule="evenodd" clip-rule="evenodd" d="M0.494513 0L85.6375 39.6208L85.1429 40.686L0 1.06521L0.494513 0Z" transform="translate(340.186 180.042)" fill="#E3DCDC"/>
<path fill-rule="evenodd" clip-rule="evenodd" d="M0.494633 0L85.6376 39.6326L85.143 40.6977L0 1.06515L0.494633 0Z" transform="translate(328.617 204.957)" fill="#E3DCDC"/>
<path fill-rule="evenodd" clip-rule="evenodd" d="M0.494442 0L79.2901 36.6607L78.7956 37.726L0 1.06524L0.494442 0Z" transform="translate(324.559 213.707)" fill="#E3DCDC"/>
<path fill-rule="evenodd" clip-rule="evenodd" d="M0.494513 0L85.6373 39.6208L85.1428 40.686L0 1.06521L0.494513 0Z" transform="translate(320.498 222.447)" fill="#E3DCDC"/>
<path fill-rule="evenodd" clip-rule="evenodd" d="M0.49452 0L72.9896 33.7359L72.4951 34.8011L0 1.06521L0.49452 0Z" transform="translate(321.098 233.359)" fill="#E3DCDC"/>
<path fill-rule="evenodd" clip-rule="evenodd" d="M0.494601 0L73.682 34.0648L73.1874 35.1299L0 1.06517L0.494601 0Z" transform="translate(324.336 245.493)" fill="#E3DCDC"/>
<path fill-rule="evenodd" clip-rule="evenodd" d="M0.494399 0L23.9007 10.889L23.4063 11.9542L0 1.06526L0.494399 0Z" transform="translate(327.492 257.604)" fill="#E3DCDC"/>
<path fill-rule="evenodd" clip-rule="evenodd" d="M50.397 0L53.4236 18.9126L57.1861 14.6829L59.5322 19.3092L77.5224 1.2736L77.8438 12.7552L89.2025 3.4613L90.4201 8.61567L100.47 2.68862L101.065 3.70072L89.6446 10.4364L88.4925 5.55928L76.7379 15.1771L76.426 4.03508L59.2187 21.2858L56.9185 16.7499L52.6561 21.5415L49.5583 2.18411L31.7344 16.5518L30.0697 5.98505L15.498 16.3644L10.63 5.42206L0.557255 10.8651L0 9.83141L11.1867 3.78641L15.9863 14.575L30.9335 3.92822L32.5775 14.3641L50.397 0Z" transform="translate(341.611 167.079)" fill="#E3DCDC"/>
<path fill-rule="evenodd" clip-rule="evenodd" d="M1.30395 4.42095L28.5158 1.16635L28.3766 0L0 3.39391L5.40769 48.778L6.57268 48.6389L1.30395 4.42095Z" transform="translate(315.859 131.396)" fill="#E3DCDC"/>
<path fill-rule="evenodd" clip-rule="evenodd" d="M48.5415 79.1972L39.1078 0.139343L40.2728 0L49.8457 80.2242L0.139118 86.1671L0 85.0007L48.5415 79.1972Z" transform="translate(414.385 200.569)" fill="#E3DCDC"/>
<path fill-rule="evenodd" clip-rule="evenodd" d="M63.0817 0L67.7505 39.1469L66.5855 39.2862L62.0559 1.30583L0.139305 8.7186L0 7.55226L63.0817 0Z" transform="translate(381.885 119.345)" fill="#E3DCDC"/>
<path fill-rule="evenodd" clip-rule="evenodd" d="M16.0398 1.17454C7.82932 1.17454 1.17336 7.83718 1.17336 16.056V58.5627C1.17336 66.7815 7.82932 73.4441 16.0398 73.4441H26.7526C34.9631 73.4441 41.6189 66.7815 41.6189 58.5627V16.056C41.6189 7.83717 34.9631 1.17454 26.7526 1.17454H16.0398ZM0 16.056C0 7.18849 7.18131 0 16.0398 0H26.7526C35.6111 0 42.7922 7.1885 42.7922 16.056V58.5627C42.7922 67.4302 35.6111 74.6187 26.7526 74.6187H16.0398C7.18131 74.6187 0 67.4302 0 58.5627V16.056Z" transform="matrix(0.961942 0.273252 -0.272652 0.962113 261.689 423.185)" fill="#E3DCDC"/>
<path fill-rule="evenodd" clip-rule="evenodd" d="M6.7462 1.17465C3.66834 1.17465 1.17325 3.67271 1.17325 6.75422C1.17325 9.83573 3.66834 12.3338 6.7462 12.3338C9.82405 12.3338 12.3191 9.83573 12.3191 6.75422C12.3191 3.67271 9.82405 1.17465 6.7462 1.17465ZM0 6.75422C0 3.02397 3.02038 0 6.7462 0C10.472 0 13.4924 3.02397 13.4924 6.75422C13.4924 10.4845 10.472 13.5084 6.7462 13.5084C3.02038 13.5084 0 10.4845 0 6.75422Z" transform="translate(270.27 441.809)" fill="#E3DCDC"/>
<path fill-rule="evenodd" clip-rule="evenodd" d="M335.602 1.96922C333.535 0.865002 331.163 1.07267 329.606 1.62314L329.583 1.63123L7.53717 86.2026C4.18029 87.5561 2.50491 89.5885 1.73929 91.5409C0.9681 93.5074 1.10188 95.4401 1.45251 96.6034C10.1541 117.453 23.3755 149.005 34.7751 175.936C40.4774 189.407 45.7233 201.721 49.7194 210.96C51.7175 215.58 53.4024 219.429 54.6753 222.269C55.9572 225.129 56.803 226.924 57.1324 227.474C59.8687 232.04 62.6702 232.189 63.4834 231.917L63.5011 231.911L63.5192 231.907C110.938 219.377 182.36 200.553 242.515 184.803C272.592 176.928 299.852 169.821 319.887 164.654C329.904 162.07 338.116 159.971 343.971 158.503C346.898 157.769 349.238 157.192 350.92 156.791C351.761 156.591 352.44 156.434 352.947 156.324C353.439 156.216 353.803 156.144 353.99 156.125C356.168 155.907 357.253 154.976 357.784 153.981C358.337 152.946 358.343 151.746 358.169 150.964L358.164 150.939L358.16 150.914C352.491 108.443 340.912 20.8728 339.972 10.5196C339.515 5.48444 337.631 3.05348 335.602 1.96922ZM336.154 0.932895C338.632 2.25666 340.659 5.11162 341.141 10.4133C342.077 20.7319 353.646 108.231 359.32 150.735C359.532 151.715 359.531 153.203 358.819 154.535C358.08 155.918 356.623 157.042 354.107 157.294C354.001 157.305 353.708 157.359 353.197 157.471C352.701 157.58 352.03 157.735 351.192 157.934C349.517 158.333 347.182 158.909 344.256 159.642C338.405 161.109 330.196 163.208 320.18 165.791C300.147 170.958 272.888 178.064 242.811 185.939C182.666 201.687 111.254 220.508 63.8353 233.038C62.2938 233.538 59.0097 232.889 56.1264 228.078C55.7518 227.453 54.8719 225.577 53.6049 222.75C52.3289 219.903 50.6416 216.048 48.6427 211.427C44.6448 202.183 39.3975 189.866 33.6948 176.394C22.2893 149.449 9.0605 117.88 0.358657 97.0292L0.347648 97.0028L0.33925 96.9755C-0.086287 95.591 -0.237805 93.3684 0.647198 91.1116C1.54114 88.832 3.47469 86.5645 7.13494 85.0986L7.16875 85.085L329.239 0.507241C331.006 -0.110999 333.724 -0.365174 336.154 0.932895Z" transform="translate(-58.3281)" fill="#E3DCDC"/>
<path fill-rule="evenodd" clip-rule="evenodd" d="M292.978 1.2799L6.6903 76.6747C3.79562 77.355 2.36451 78.6033 1.69829 79.7938C1.02377 80.9992 1.08086 82.2362 1.32516 82.9826L1.33102 83.0005L34.6109 213.198C57.1006 220.898 103.706 235.766 111.979 238.106C116.288 239.326 117.461 242.445 118.498 244.914C118.498 246.088 119.085 246.088 118.498 248.438L117.912 250.787L108.526 277.217C147.083 267.007 207.608 251.252 256.155 238.34C305.156 225.306 344.981 214.663 347.039 213.965C348.914 213.328 349.91 211.971 350.405 210.49C350.903 209 350.881 207.409 350.705 206.405C342.222 173.909 329.473 124.885 318.785 83.392C313.439 62.6405 308.61 43.7718 305.087 29.7961C303.326 22.8084 301.891 17.0425 300.882 12.8755C300.378 10.7923 299.979 9.10652 299.699 7.86669C299.424 6.64778 299.253 5.81566 299.22 5.47498C299.01 3.34152 297.945 2.24151 296.712 1.68429C295.444 1.11141 293.961 1.10176 292.978 1.2799ZM297.181 0.607454C298.772 1.32648 300.117 2.77895 300.371 5.35776C300.395 5.60612 300.544 6.3509 300.827 7.60269C301.105 8.83357 301.502 10.5123 302.005 12.5934C303.013 16.7549 304.447 22.5166 306.208 29.5032C309.729 43.4759 314.559 62.3422 319.904 83.0931C330.594 124.595 343.347 173.631 351.829 206.126L351.835 206.149L351.839 206.172C352.046 207.329 352.078 209.141 351.5 210.87C350.915 212.62 349.694 214.305 347.405 215.082C345.298 215.797 305.404 226.458 256.448 239.48C207.469 252.507 145.911 268.181 107.353 278.391V277.804L116.739 250.2V249.025C117.185 247.662 117.325 247.263 116.739 244.914C115.565 242.565 114.979 241.39 111.669 239.242C103.321 236.88 56.3759 221.439 34.0243 213.786L0.221736 83.3365C-0.106962 82.3152 -0.159673 80.7348 0.693294 79.2105C1.55907 77.6634 3.30695 76.2622 6.42266 75.5283C6.42515 75.5277 6.42765 75.5272 6.43014 75.5266L292.73 0.12842L292.751 0.124563C293.889 -0.0861525 295.633 -0.0919425 297.181 0.607454Z" transform="translate(2.99414 155.535)" fill="#E3DCDC"/>
</svg>
