<svg width="27" height="23" viewBox="0 0 27 23" fill="none" xmlns="http://www.w3.org/2000/svg">
<path d="M24.9574 1.9161C22.2339 -0.638699 17.8175 -0.638699 15.0941 1.9161L1.53258 14.6376C-0.510859 16.5544 -0.510859 19.6604 1.53258 21.5773C3.21685 23.1573 5.75724 23.4124 7.74316 22.3869C7.95062 22.3771 8.15462 22.3035 8.31332 22.1563L21.8747 9.43485C23.2364 8.15749 23.2364 6.08684 21.8747 4.80947C20.513 3.53211 18.3057 3.53211 16.944 4.80947L5.8479 15.2182C5.50788 15.5372 5.50788 16.0557 5.8479 16.3745C6.18792 16.6935 6.74063 16.6935 7.08057 16.3745L18.1766 5.9658C18.8584 5.32629 19.962 5.32629 20.6421 5.9658C21.3238 6.60531 21.3238 7.6406 20.6421 8.27853L7.6961 20.4226C6.3344 21.6999 4.12703 21.6999 2.76533 20.4226C1.40363 19.1452 1.40363 17.0746 2.76533 15.7972L16.3267 3.07242C18.3702 1.15555 21.6812 1.15555 23.7247 3.07242C25.7682 4.9893 25.7682 8.09524 23.7247 10.0122L11.396 21.5773C11.056 21.8963 11.056 22.4148 11.396 22.7337C11.736 23.0526 12.2887 23.0526 12.6286 22.7337L24.9574 11.1685C27.6809 8.61379 27.6809 4.47089 24.9574 1.9161Z" fill="#2D9CDB"/>
</svg>
