<svg width="84" height="31" viewBox="0 0 84 31" fill="none" xmlns="http://www.w3.org/2000/svg">
<path d="M13.8919 0.000991815C16.6697 0.000991815 18.705 0.775034 19.9987 2.23678C21.2914 3.69853 21.7583 5.70012 21.4005 8.23064C21.2541 9.38773 20.922 10.524 20.4063 11.6364C19.8905 12.7489 19.1595 13.7541 18.2131 14.6482C17.0563 15.7825 15.8133 16.5039 14.4823 16.8086C13.1513 17.1142 11.7667 17.2671 10.3294 17.2671H6.08572L4.91642 23.5189H0L4.41406 0H13.8919V0.000991815ZM8.62813 3.75211L6.78136 13.5695C6.94212 13.5914 7.56504 13.6023 7.73058 13.6023C9.98976 13.6241 11.9418 13.6192 13.3675 12.9642C14.909 12.2566 15.8831 10.9418 16.3252 8.21476C16.685 5.92439 16.2037 4.68989 14.9483 4.18478C14.3895 3.96051 13.8115 3.84738 13.1063 3.76502C12.2556 3.66578 11.183 3.74021 10.1496 3.75112C9.8845 3.77395 8.62813 3.75211 8.62813 3.75211Z" transform="translate(0.611328 7.17139)" fill="#383838"/>
<path d="M9.30081 0L8.12481 6.25187H12.5102C14.9071 6.35111 16.7128 6.76393 17.928 7.63621C19.1432 8.50949 19.5327 10.1727 19.0963 12.6159L17.0457 23.5189H12.0949L14.0526 13.1121C14.2574 12.0215 14.1675 11.2464 13.7828 10.7879C13.3972 10.3295 12.5925 10.0556 11.3428 10.0556L7.42534 9.99803L4.88006 23.5189H0L4.42075 0H9.30081Z" transform="translate(22.0898 0.918945)" fill="#383838"/>
<path d="M13.8919 0.000991815C16.6697 0.000991815 18.705 0.775034 19.9987 2.23678C21.2914 3.69853 21.7583 5.70012 21.4005 8.23064C21.2541 9.38773 20.922 10.524 20.4063 11.6364C19.8905 12.7489 19.1595 13.7541 18.2131 14.6482C17.0563 15.7825 15.8133 16.5039 14.4823 16.8086C13.1513 17.1142 11.7667 17.2671 10.3285 17.2671H6.08476L4.91546 23.5189H0L4.41406 0H13.8919V0.000991815ZM8.62813 3.75211L6.78136 13.5695C6.94211 13.5914 7.56504 13.6023 7.73058 13.6023C9.98976 13.6241 11.9418 13.6192 13.3675 12.9642C14.909 12.2566 15.8831 10.9418 16.3252 8.21476C16.685 5.92439 16.2037 4.68989 14.9483 4.18478C14.3895 3.96051 13.8115 3.84738 13.1063 3.76502C12.2556 3.66578 11.183 3.74021 10.1496 3.75112C9.8845 3.77395 8.62813 3.75211 8.62813 3.75211Z" transform="translate(40.127 7.16943)" fill="#383838"/>
<path d="M0 4.06868L0.00382539 0H20.2522V4.07166L6.58233 23.5189H0.45834L14.6335 4.06868H0Z" transform="translate(62.875 0.918945)" fill="#383838"/>
</svg>
