<?xml version="1.0" encoding="utf-8"?>
<!-- Generator: Adobe Illustrator 21.1.0, SVG Export Plug-In . SVG Version: 6.00 Build 0)  -->
<svg version="1.1" id="Слой_1" xmlns="http://www.w3.org/2000/svg" xmlns:xlink="http://www.w3.org/1999/xlink" x="0px" y="0px"
	 viewBox="0 0 1000 296" style="enable-background:new 0 0 1000 296;" xml:space="preserve">
<style type="text/css">
	.st0{fill:#8B3333;}
	.st1{fill:#FFFFFF;}
</style>
<path class="st0" d="M0,0h1000v296H0V0z"/>
<path class="st1" d="M168.7,79c-17.7,0-35.1,7.3-47.6,20l0,0c-12.7,13.1-19.6,30-19.6,47.7s7,34.7,19.6,47.7
	c12.3,12.7,29.7,20,47.6,20c18.1,0,35.1-7.1,47.8-20c12.7-13.1,19.6-30,19.6-47.7s-7-34.7-19.6-47.8C203.6,86.1,186.6,79,168.7,79z
	 M168.7,191c-11.4,0-22.6-4.8-30.8-13.1c-8.3-8.3-12.9-19.4-12.9-31.1s4.6-22.8,12.9-31.2c8.1-8.3,19.3-13.1,30.8-13.1
	s22.8,4.8,31.1,13.1c8.2,8.4,12.7,19.5,12.7,31.2s-4.5,22.8-12.7,31.1C191.6,186.3,180.2,191,168.7,191z"/>
<path class="st1" d="M467.1,170.4h45.7c-6.9,13.1-20.1,20.8-36.1,20.8c-23.8,0-41.7-19-41.7-44.2c0-24.9,17.9-43.7,41.7-43.7
	c15.5,0,33.7,6.9,38.5,26.1l0.5,1.9h24.6l-0.6-3c-7.1-35.7-38.4-48.4-63-48.4c-37.1,0-65.1,28.8-65.1,67.1c0,18.7,6.6,35.7,18.6,48
	c11.9,12.2,28.4,18.9,46.4,18.9c25.8,0,51.7-17.8,60.3-41.4h0.1c1.8-4.6,2.7-12.1,3.6-22.7l0.2-2.7H467L467.1,170.4L467.1,170.4z"/>
<polygon class="st1" points="364.7,80.7 324,140.5 283.3,80.7 264.6,80.7 264.6,212.9 288,212.9 288,129 317.4,172.8 330.4,172.8 
	359.9,129 359.9,212.9 383.1,212.9 383.1,80.7 "/>
<g>
	<path class="st1" d="M595.5,108.4l-7.9-27.6h4.9l6,21.4l6.6-21.4h5l5.7,21.3l6.9-21.3h4.3l-9,27.6h-5L607.1,87l-6.6,21.4H595.5z"/>
	<path class="st1" d="M652.6,107.5c-3.4,1-6.2,1.5-8.6,1.5c-4.1,0-7.4-1.3-10-4s-3.8-6.2-3.8-10.5c0-4.2,1.1-7.6,3.4-10.3
		c2.3-2.7,5.2-4,8.7-4c3.3,0,5.9,1.2,7.7,3.6s2.7,5.8,2.7,10.1v1.5h-17.4c0.7,6.5,3.9,9.8,9.6,9.8c2.1,0,4.6-0.6,7.7-1.7
		L652.6,107.5L652.6,107.5z M635.5,91.6h12.2c0-5.1-1.9-7.7-5.7-7.7C638.1,83.9,635.9,86.5,635.5,91.6z"/>
	<path class="st1" d="M677.8,108.4V80.8h5V86c2.4-3.9,5.6-5.8,9.4-5.8c3.7,0,6.2,1.9,7.5,5.8c2.4-3.9,5.5-5.8,9.2-5.8
		c2.4,0,4.3,0.7,5.7,2.1c1.3,1.4,2,3.4,2,6v20.1h-5V89.1c0-3.1-1.2-4.7-3.7-4.7c-2.6,0-5.3,1.8-8.2,5.5v18.5h-5V89.1
		c0-3.2-1.3-4.8-3.8-4.8s-5.2,1.8-8.1,5.5v18.5h-5V108.4z"/>
	<path class="st1" d="M737.4,109c-4,0-7.3-1.3-9.6-3.9c-2.4-2.6-3.5-6.1-3.5-10.5s1.2-7.9,3.5-10.5c2.4-2.6,5.6-3.9,9.6-3.9
		s7.3,1.3,9.6,3.9c2.4,2.6,3.5,6.1,3.5,10.5s-1.2,8-3.5,10.5C744.6,107.7,741.4,109,737.4,109z M737.4,105.3c2.5,0,4.4-0.9,5.8-2.8
		c1.4-1.9,2.1-4.5,2.1-7.9s-0.7-6-2.1-7.9s-3.3-2.8-5.8-2.8s-4.4,0.9-5.8,2.8s-2,4.5-2,7.9s0.7,6,2,7.9
		C733,104.3,734.9,105.3,737.4,105.3z"/>
	<path class="st1" d="M770.7,108.4c-1.5,0.4-2.9,0.6-4,0.6c-2.5,0-4.5-0.7-5.9-2.2s-2.1-3.5-2.1-6.1V84.5h-3.5v-3.8h3.5v-5l5-0.5
		v5.5h7.2v3.8h-7.2v15.3c0,3.6,1.6,5.4,4.7,5.4c0.7,0,1.5-0.1,2.4-0.3v3.5H770.7z"/>
	<path class="st1" d="M777.8,75.8v-5h5v5H777.8z M777.8,108.4V80.8h5v27.6H777.8z"/>
	<path class="st1" d="M798.6,108.4l-10.3-27.6h5l8,21.5l8.5-21.5h4.7l-10.9,27.6H798.6z"/>
	<path class="st1" d="M834,104.9c-3,2.8-5.9,4.1-8.7,4.1c-2.3,0-4.2-0.7-5.7-2.1s-2.3-3.2-2.3-5.4c0-3,1.3-5.3,3.8-7
		c2.5-1.6,6.2-2.4,10.9-2.4h1.2v-3.3c0-3.2-1.7-4.8-5-4.8c-2.6,0-5.4,0.8-8.5,2.4v-4.1c3.4-1.4,6.5-2.1,9.5-2.1
		c3.1,0,5.3,0.7,6.8,2.1s2.2,3.6,2.2,6.5v12.5c0,2.9,0.9,4.3,2.6,4.3c0.2,0,0.5,0,1-0.1l0.4,2.8c-1.1,0.5-2.4,0.8-3.8,0.8
		C836.2,109,834.7,107.6,834,104.9z M833.3,102.2V95l-1.6-0.1c-2.8,0-5,0.5-6.7,1.6c-1.7,1-2.6,2.4-2.6,4.1c0,1.2,0.4,2.2,1.3,3
		c0.8,0.8,1.9,1.2,3.1,1.2C828.9,104.9,831,104,833.3,102.2z"/>
	<path class="st1" d="M860.8,108.4c-1.5,0.4-2.9,0.6-4,0.6c-2.5,0-4.5-0.7-5.9-2.2s-2.1-3.5-2.1-6.1V84.5h-3.5v-3.8h3.5v-5l5-0.5
		v5.5h7.2v3.8h-7.2v15.3c0,3.6,1.6,5.4,4.7,5.4c0.7,0,1.5-0.1,2.4-0.3v3.5H860.8z"/>
	<path class="st1" d="M888.2,107.5c-3.4,1-6.2,1.5-8.6,1.5c-4.1,0-7.4-1.3-10-4s-3.8-6.2-3.8-10.5c0-4.2,1.1-7.6,3.4-10.3
		c2.3-2.7,5.2-4,8.7-4c3.3,0,5.9,1.2,7.7,3.6s2.7,5.8,2.7,10.1v1.5h-17.4c0.7,6.5,3.9,9.8,9.6,9.8c2.1,0,4.6-0.6,7.7-1.7
		L888.2,107.5L888.2,107.5z M871.2,91.6h12.2c0-5.1-1.9-7.7-5.7-7.7C873.7,83.9,871.6,86.5,871.2,91.6z"/>
	<path class="st1" d="M595.5,160.4l-7.9-27.6h4.9l6,21.4l6.6-21.4h5l5.7,21.3l6.9-21.3h4.3l-9,27.6h-5l-5.9-21.4l-6.6,21.4H595.5z"
		/>
	<path class="st1" d="M652.6,159.5c-3.4,1-6.2,1.5-8.6,1.5c-4.1,0-7.4-1.3-10-4s-3.8-6.2-3.8-10.5c0-4.2,1.1-7.6,3.4-10.3
		c2.3-2.7,5.2-4,8.7-4c3.3,0,5.9,1.2,7.7,3.6c1.8,2.4,2.7,5.8,2.7,10.1v1.5h-17.4c0.7,6.5,3.9,9.8,9.6,9.8c2.1,0,4.6-0.6,7.7-1.7
		L652.6,159.5L652.6,159.5z M635.5,143.7h12.2c0-5.1-1.9-7.7-5.7-7.7C638.1,136,635.9,138.5,635.5,143.7z"/>
	<path class="st1" d="M677.9,169.6l0.6-4.3c2.9,1.4,5.8,2,8.6,2c5.6,0,8.4-3,8.4-9V154c-0.9,1.8-2.1,3.3-3.7,4.3
		c-1.6,1-3.4,1.5-5.4,1.5c-3.3,0-6-1.2-7.9-3.6c-2-2.4-2.9-5.6-2.9-9.7c0-4.2,1.1-7.6,3.3-10.3c2.2-2.6,5.1-4,8.6-4
		c3.1,0,5.7,1.3,8,3.8v-3.2h5v20.1c0,4.3-0.2,7.5-0.7,9.6c-0.4,2.1-1.3,3.8-2.5,5.1c-2.2,2.3-5.6,3.5-10.2,3.5
		C683.9,171.1,680.9,170.6,677.9,169.6z M695.5,150.8v-11.4c-2.2-2.3-4.6-3.4-7.2-3.4c-2.3,0-4.1,0.9-5.4,2.8c-1.3,1.8-2,4.4-2,7.7
		c0,6,2.1,9,6.4,9C690.3,155.4,693,153.9,695.5,150.8z"/>
	<path class="st1" d="M727.5,160.4v-5.2c-2.7,3.9-5.9,5.8-9.7,5.8c-2.4,0-4.3-0.8-5.7-2.3s-2.1-3.6-2.1-6.1v-19.8h5V151
		c0,2.1,0.3,3.5,0.9,4.4c0.6,0.9,1.6,1.3,3,1.3c3,0,5.9-2,8.6-6v-17.9h5v27.6L727.5,160.4L727.5,160.4z"/>
	<path class="st1" d="M742.6,127.8v-5h5v5H742.6z M742.6,160.4v-27.6h5v27.6H742.6z"/>
	<path class="st1" d="M775.3,160.4v-5.2c-2,3.9-5.1,5.8-9.2,5.8c-3.3,0-5.9-1.2-7.8-3.6c-1.9-2.4-2.9-5.7-2.9-9.9
		c0-4.6,1.1-8.3,3.2-11.1c2.2-2.8,5-4.2,8.5-4.2c3.3,0,6,1.3,8.1,3.8v-15.7h5v40.1H775.3z M775.3,139.4c-2.6-2.3-5.1-3.4-7.4-3.4
		c-2.3,0-4.1,1-5.3,2.9c-1.3,1.9-1.9,4.6-1.9,8.1c0,6.5,2.1,9.7,6.4,9.7c2.8,0,5.5-1.5,8.2-4.5V139.4z"/>
	<path class="st1" d="M810.6,159.5c-3.4,1-6.2,1.5-8.6,1.5c-4.1,0-7.4-1.3-10-4s-3.8-6.2-3.8-10.5c0-4.2,1.1-7.6,3.4-10.3
		c2.3-2.7,5.2-4,8.7-4c3.3,0,5.9,1.2,7.7,3.6c1.8,2.4,2.7,5.8,2.7,10.1v1.5h-17.4c0.7,6.5,3.9,9.8,9.6,9.8c2.1,0,4.6-0.6,7.7-1.7
		L810.6,159.5L810.6,159.5z M793.5,143.7h12.2c0-5.1-1.9-7.7-5.7-7.7C796.1,136,793.9,138.5,793.5,143.7z"/>
	<path class="st1" d="M595.5,212.5l-7.9-27.6h4.9l6,21.4l6.6-21.4h5l5.7,21.3l6.9-21.3h4.3l-9,27.6h-5l-5.9-21.4l-6.6,21.4H595.5z"
		/>
	<path class="st1" d="M652.6,211.6c-3.4,1-6.2,1.5-8.6,1.5c-4.1,0-7.4-1.3-10-4s-3.8-6.2-3.8-10.5c0-4.2,1.1-7.6,3.4-10.3
		c2.3-2.7,5.2-4,8.7-4c3.3,0,5.9,1.2,7.7,3.6s2.7,5.8,2.7,10.1v1.5h-17.4c0.7,6.5,3.9,9.8,9.6,9.8c2.1,0,4.6-0.6,7.7-1.7
		L652.6,211.6L652.6,211.6z M635.5,195.7h12.2c0-5.1-1.9-7.7-5.7-7.7C638.1,188,635.9,190.6,635.5,195.7z"/>
	<path class="st1" d="M677.8,212.5v-27.6h5v5.2c2.4-3.9,5.6-5.8,9.4-5.8c3.7,0,6.2,1.9,7.5,5.8c2.4-3.9,5.5-5.8,9.2-5.8
		c2.4,0,4.3,0.7,5.7,2.1c1.3,1.4,2,3.4,2,6v20.1h-5v-19.3c0-3.1-1.2-4.7-3.7-4.7c-2.6,0-5.3,1.8-8.2,5.5v18.5h-5v-19.3
		c0-3.2-1.3-4.8-3.8-4.8s-5.2,1.8-8.1,5.5v18.5h-5V212.5z"/>
	<path class="st1" d="M746.6,211.6c-3.4,1-6.2,1.5-8.6,1.5c-4.1,0-7.4-1.3-10-4s-3.8-6.2-3.8-10.5c0-4.2,1.1-7.6,3.4-10.3
		c2.3-2.7,5.2-4,8.7-4c3.3,0,5.9,1.2,7.7,3.6s2.7,5.8,2.7,10.1v1.5h-17.4c0.7,6.5,3.9,9.8,9.6,9.8c2.1,0,4.6-0.6,7.7-1.7
		L746.6,211.6L746.6,211.6z M729.5,195.7h12.2c0-5.1-1.9-7.7-5.7-7.7C732.1,188,730,190.6,729.5,195.7z"/>
	<path class="st1" d="M755.4,212.5v-27.6h5v5.2c2.6-3.9,5.9-5.8,9.7-5.8c2.4,0,4.3,0.8,5.7,2.3s2.1,3.6,2.1,6.1v19.8h-5v-18.2
		c0-2-0.3-3.5-0.9-4.4c-0.6-0.9-1.6-1.3-3-1.3c-3.1,0-6,2-8.7,6v17.9H755.4z"/>
	<path class="st1" d="M800,212.5c-1.5,0.4-2.9,0.6-4,0.6c-2.5,0-4.5-0.7-5.9-2.2s-2.1-3.5-2.1-6.1v-16.2h-3.5v-3.8h3.5v-5l5-0.5v5.5
		h7.2v3.8H793v15.3c0,3.6,1.6,5.4,4.7,5.4c0.7,0,1.5-0.1,2.4-0.3v3.5H800z"/>
	<path class="st1" d="M818.1,213.1c-4,0-7.3-1.3-9.6-3.9s-3.5-6.1-3.5-10.5s1.2-7.9,3.5-10.5c2.4-2.6,5.6-3.9,9.6-3.9
		s7.3,1.3,9.6,3.9c2.4,2.6,3.5,6.1,3.5,10.5s-1.2,8-3.5,10.5S822.2,213.1,818.1,213.1z M818.1,209.3c2.5,0,4.4-0.9,5.8-2.8
		c1.4-1.9,2.1-4.5,2.1-7.9s-0.7-6-2.1-7.9c-1.4-1.9-3.3-2.8-5.8-2.8s-4.4,0.9-5.8,2.8c-1.4,1.9-2,4.5-2,7.9s0.7,6,2,7.9
		C813.7,208.4,815.6,209.3,818.1,209.3z"/>
	<path class="st1" d="M839.1,212.5v-27.6h5v5.2c2-3.9,4.9-5.8,8.6-5.8c0.5,0,1,0,1.6,0.1v4.7c-0.9-0.3-1.6-0.4-2.3-0.4
		c-3.2,0-5.8,1.9-8,5.6v18.2H839.1z"/>
</g>
</svg>
