<?xml version="1.0" encoding="utf-8"?>
<!-- Generator: Adobe Illustrator 21.1.0, SVG Export Plug-In . SVG Version: 6.00 Build 0)  -->
<svg version="1.1" id="Иконки" xmlns="http://www.w3.org/2000/svg" xmlns:xlink="http://www.w3.org/1999/xlink" x="0px"
	 y="0px" viewBox="0 0 15.5 15.5" style="enable-background:new 0 0 15.5 15.5;" xml:space="preserve">
<g style="fill: #fff">
	<g>
		<path d="M12.3,9.6c-0.3-0.3-0.7-0.5-1.1-0.5c-0.4,0-0.8,0.2-1.1,0.5l-1,1c-0.1,0-0.2-0.1-0.3-0.1c-0.1-0.1-0.2-0.1-0.3-0.2
			c-1-0.6-1.9-1.4-2.7-2.5C5.3,7.4,5,6.9,4.8,6.5C5.1,6.2,5.4,6,5.6,5.7c0.1-0.1,0.2-0.2,0.3-0.3c0.7-0.7,0.7-1.6,0-2.3L5,2.3
			C4.9,2.2,4.8,2.1,4.7,2C4.5,1.8,4.3,1.6,4.1,1.4C3.7,1.1,3.4,0.9,3,0.9S2.2,1.1,1.8,1.4c0,0,0,0,0,0L0.7,2.5C0.3,2.9,0.1,3.4,0,4
			c-0.1,1,0.2,1.8,0.4,2.4C1,7.9,1.8,9.2,2.9,10.6c1.4,1.7,3.2,3.1,5.1,4c0.8,0.4,1.8,0.8,2.9,0.9c0.1,0,0.1,0,0.2,0
			c0.8,0,1.4-0.3,1.9-0.8c0,0,0,0,0,0c0.2-0.2,0.4-0.4,0.6-0.6c0.1-0.1,0.3-0.3,0.4-0.4c0.3-0.3,0.5-0.7,0.5-1.1
			c0-0.4-0.2-0.8-0.5-1.1L12.3,9.6z M13.4,13.1C13.4,13.1,13.4,13.1,13.4,13.1c-0.1,0.1-0.3,0.3-0.4,0.4c-0.2,0.2-0.4,0.4-0.6,0.7
			c-0.3,0.4-0.7,0.5-1.2,0.5c0,0-0.1,0-0.2,0c-1-0.1-1.9-0.4-2.6-0.8C6.6,13,5,11.7,3.6,10.1C2.5,8.7,1.8,7.5,1.3,6.2
			C1,5.3,0.8,4.7,0.9,4.1c0-0.4,0.2-0.7,0.5-1L2.5,2C2.6,1.9,2.8,1.8,3,1.8c0.2,0,0.4,0.1,0.5,0.2c0,0,0,0,0,0
			C3.7,2.2,3.8,2.4,4,2.6c0.1,0.1,0.2,0.2,0.3,0.3l0.9,0.9c0.3,0.3,0.3,0.7,0,1C5.2,4.9,5.1,5,5,5.1C4.7,5.4,4.4,5.7,4.1,5.9
			c0,0,0,0,0,0C3.8,6.2,3.9,6.5,4,6.7c0,0,0,0,0,0C4.2,7.3,4.5,7.8,5,8.4l0,0c0.9,1.1,1.9,2,2.9,2.6c0.1,0.1,0.3,0.2,0.4,0.2
			c0.1,0.1,0.2,0.1,0.3,0.2c0,0,0,0,0,0c0.1,0.1,0.2,0.1,0.3,0.1c0.3,0,0.4-0.2,0.5-0.2l1.1-1.1c0.1-0.1,0.3-0.2,0.5-0.2
			c0.2,0,0.4,0.1,0.5,0.2c0,0,0,0,0,0l1.8,1.8C13.8,12.4,13.8,12.7,13.4,13.1z"/>
		<path d="M8.4,3.7c0.9,0.1,1.6,0.6,2.3,1.2s1,1.4,1.2,2.3c0,0.2,0.2,0.4,0.4,0.4c0,0,0,0,0.1,0c0.2,0,0.4-0.3,0.4-0.5
			c-0.2-1-0.7-2-1.4-2.7C10.5,3.5,9.6,3,8.5,2.8C8.3,2.8,8.1,2.9,8,3.2C8,3.4,8.1,3.7,8.4,3.7z"/>
		<path d="M15.5,6.8c-0.3-1.7-1.1-3.3-2.3-4.5s-2.8-2-4.5-2.3C8.4,0,8.2,0.1,8.1,0.4c0,0.2,0.1,0.5,0.4,0.5c1.5,0.3,2.9,1,4,2.1
			c1.1,1.1,1.8,2.5,2.1,4c0,0.2,0.2,0.4,0.4,0.4c0,0,0,0,0.1,0C15.4,7.3,15.5,7.1,15.5,6.8z"/>
	</g>
</g>
</svg>
