<svg version="1.1" xmlns="http://www.w3.org/2000/svg" xmlns:xlink="http://www.w3.org/1999/xlink">

<symbol id="icon-omg-item-1" viewBox="0 0 87.8 87">
	<path d="M57,47.1c0.5-1.5,0.8-3.1,0.8-4.7V36c0-0.9-0.1-1.9-0.3-2.7c1.6-1,3.4-1.7,5.2-2.1c0.7-0.2,1.2-0.8,1.2-1.5v-5
	c0-0.6-0.3-1.1-0.8-1.3c-2.8-1.4-4.6-4.2-4.6-7.3v-4.8c0-4.5,3.7-8.2,8.2-8.2s8.2,3.7,8.2,8.2v4.8c0,3.1-1.9,6-4.7,7.4
	c-0.5,0.2-0.9,0.8-0.9,1.4v4.8c0,0.7,0.5,1.3,1.2,1.5c7.7,1.7,13.4,8.3,14.1,16L57,47.1z M48.3,52.6c-0.5,0.2-0.9,0.8-0.9,1.4v6.4
	c0,0.7,0.5,1.3,1.2,1.5C59.2,64.2,67,73.4,67.7,84.1H19.3c0.6-10.7,8.2-19.7,18.8-22.1c0.7-0.2,1.2-0.8,1.2-1.5v-6.6
	c0-0.6-0.3-1.1-0.8-1.3c-3.9-1.9-6.3-5.8-6.3-10.1v-6.4c0-6.3,5.1-11.3,11.3-11.3c6.2,0,11.3,5.1,11.3,11.3v6.3
	C54.8,46.7,52.3,50.7,48.3,52.6z M3,47.1c0.6-7.8,6.2-14.2,13.9-16c0.7-0.2,1.2-0.8,1.2-1.5v-5c0-0.6-0.3-1.1-0.8-1.3
	c-2.8-1.4-4.6-4.2-4.6-7.3v-4.8c0-4.5,3.7-8.2,8.2-8.2s8.2,3.7,8.2,8.2V16c0,3.1-1.9,6-4.7,7.4c-0.5,0.2-0.9,0.8-0.9,1.4v4.8
	c0,0.7,0.5,1.3,1.2,1.5c1.7,0.4,3.3,1,4.8,1.8c-0.2,1-0.3,2-0.3,3.1v6.4c0,1.6,0.3,3.2,0.8,4.7H3z M72.4,28.4v-2.7
	c3.4-2,5.6-5.7,5.6-9.7v-4.8C78,5,73,0,66.8,0S55.5,5,55.5,11.2V16c0,3.9,2,7.5,5.4,9.5v2.9c-1.5,0.4-2.9,1-4.3,1.8
	c-2.2-5.1-7.3-8.7-13.2-8.7c-5.8,0-10.7,3.4-13,8.4c-1.3-0.6-2.6-1.2-3.9-1.5v-2.7c3.4-2,5.6-5.7,5.6-9.7v-4.8C32.1,5,27.1,0,20.9,0
	S9.7,5,9.7,11.2V16c0,3.9,2,7.5,5.4,9.5v2.9C6.1,31,0,39.1,0,48.5C0,49.3,0.7,50,1.5,50h29.6c0.1,0,0.2,0,0.3,0
	c1.2,1.9,2.9,3.5,4.9,4.7v4.5c-11.9,3.2-20,13.9-20,26.3c0,0.8,0.7,1.5,1.5,1.5h51.5c0.8,0,1.5-0.7,1.5-1.5
	c0-12.3-8.5-23.2-20.3-26.3v-4.3c2.1-1.2,3.8-2.8,5.1-4.8h30.7c0.8,0,1.5-0.7,1.5-1.5C87.7,39.2,81.3,30.9,72.4,28.4z"/>
</symbol>




<symbol id="icon-omg-item-2"  viewBox="0 0 95.8 87.1">
	<path d="M19.6,29.5h16.8v42.9H19.6V29.5z M74,72.4H58.3V29.5H74V72.4z M39.3,72.4V29.5h16.1v42.9H39.3z M10.3,72.4
	c-0.8,0-1.5,0.6-1.5,1.5s0.6,1.5,1.5,1.5H85c0.8,0,1.5-0.7,1.5-1.5s-0.7-1.5-1.5-1.5h-8.1V29.5H85c0.8,0,1.5-0.6,1.5-1.5
	s-0.7-1.5-1.5-1.5H18.6c-0.1,0-0.3-0.1-0.4-0.1c-0.1,0-0.3,0-0.4,0.1h-7.5c-0.8,0-1.5,0.7-1.5,1.5s0.7,1.5,1.5,1.5h6.5v42.9H10.3z"
	/>
<path d="M93.8,84.2H1.5c-0.8,0-1.5,0.6-1.5,1.5s0.7,1.5,1.5,1.5h92.4c0.8,0,1.5-0.7,1.5-1.5S94.6,84.2,93.8,84.2z"/>
<path d="M95.1,26.6L48.9,0.2c-0.4-0.3-1-0.3-1.4,0L1,26.6c-0.7,0.4-0.9,1.3-0.5,2c0.3,0.5,0.8,0.7,1.3,0.7c0.2,0,0.5-0.1,0.7-0.2
	l45.8-26l45.5,26c0.7,0.4,1.6,0.2,2-0.5C96,27.9,95.8,27,95.1,26.6z"/>
</symbol>




<symbol id="icon-omg-item-3" viewBox="0 0 82.3 82.8">
	<g>
	<path d="M22.7,44.8c0.7-5.1,5.1-9,10.4-9c5.3,0,9.6,3.9,10.4,9H22.7z M33,32.8c-7.4,0-13.5,6-13.5,13.5c0,0.8,0.7,1.5,1.5,1.5H45
		c0.8,0,1.5-0.7,1.5-1.5C46.5,38.9,40.4,32.8,33,32.8z"/>
	<path d="M32.8,18.3c2.9,0,5.2,2.3,5.2,5.2c0,2.9-2.3,5.2-5.2,5.2c-2.8,0-5.2-2.3-5.2-5.2C27.6,20.7,30,18.3,32.8,18.3z M32.8,31.7
		c4.5,0,8.2-3.7,8.2-8.2c0-4.5-3.7-8.2-8.2-8.2c-4.5,0-8.2,3.7-8.2,8.2C24.6,28,28.3,31.7,32.8,31.7z"/>
	<path d="M74,79.2L60.5,65.7l4.7-4.7l13.5,13.5L74,79.2z M3,33C3,16.5,16.5,3,33,3s30,13.5,30,30S49.6,63,33,63S3,49.6,3,33z
		 M81.9,73.4L66.2,57.8c-0.3-0.3-0.7-0.4-1.1-0.4c0,0,0,0,0,0c-0.4,0-0.8,0.2-1.1,0.4l-2.6,2.6l-4.6-4.6C62.6,49.8,66,41.8,66,33
		C66,14.8,51.2,0,33,0C14.8,0,0,14.8,0,33c0,18.2,14.8,33,33,33c8.3,0,15.9-3.1,21.8-8.2l4.7,4.7l-2.2,2.2c-0.6,0.6-0.6,1.5,0,2.1
		l15.6,15.6c0.3,0.3,0.7,0.4,1.1,0.4c0.4,0,0.8-0.2,1.1-0.4l6.8-6.8c0.3-0.3,0.4-0.7,0.4-1.1C82.3,74.1,82.2,73.7,81.9,73.4z"/>
</g>
</symbol>




<symbol id="icon-omg-item-4"  viewBox="0 0 97.8 79">
<path d="M57.2,68.5v-14h10v14H57.2z M88.8,0H35.6c-4.9,0-9,4-9,9v9.7c0,0.8,0.7,1.5,1.5,1.5s1.5-0.7,1.5-1.5V9c0-3.3,2.7-6,6-6h53.2
	c3.3,0,6,2.7,6,6v36.6c0,3.3-2.7,6-6,6H68.9c0,0,0,0-0.1,0c0,0,0,0-0.1,0h-13c-0.8,0-1.5,0.7-1.5,1.5v15.5H39.9
	c-0.8,0-1.5,0.7-1.5,1.5c0,0.8,0.7,1.5,1.5,1.5h15.8h13h15.8c0.8,0,1.5-0.7,1.5-1.5c0-0.8-0.7-1.5-1.5-1.5H70.2v-14h18.6
	c4.9,0,9-4,9-9V9C97.8,4,93.7,0,88.8,0z"/>
<path d="M18.2,33c3.4-3.8,8.1-5.8,12.9-5.8c4.1,0,8.1,1.4,11.4,4.3c7.1,6.3,7.8,17.2,1.5,24.3c-6.3,7.1-17.2,7.8-24.3,1.5
	C12.6,51,11.9,40.1,18.2,33z M4.9,75.3l-1.3-1.1l9-10.1c0.1,0.3,0.2,0.5,0.4,0.7c0.3,0.2,0.6,0.3,0.9,0.4L4.9,75.3z M31.1,64.7
	c5.6,0,11.1-2.3,15.1-6.8c7.4-8.3,6.6-21.2-1.7-28.6C36.2,21.9,23.4,22.7,16,31c-7.1,8-6.7,20,0.6,27.5l-2.5,2.8l-0.6-0.5
	c-0.6-0.5-1.6-0.5-2.1,0.1L0.4,73.3C0.1,73.6,0,74,0,74.4c0,0.4,0.2,0.8,0.5,1L4,78.6C4.3,78.8,4.6,79,5,79c0.4,0,0.8-0.2,1.1-0.5
	L17.2,66c0.3-0.3,0.4-0.7,0.4-1.1c0-0.4-0.2-0.8-0.5-1l-0.7-0.6l2.5-2.8C22.5,63.3,26.8,64.7,31.1,64.7z"/>
<path d="M64.1,12.2c0,1.2-0.6,1.8-1.8,1.8c-1.2,0-1.8-0.6-1.8-1.8s0.6-1.8,1.8-1.8C63.5,10.4,64.1,11,64.1,12.2z"/>
</symbol>


<symbol id="icon-phone" viewBox="0 0 19.2 19.2">
	<path d="M0,9.3C0,9,0.1,8.6,0.1,8.3c0.2-1.5,0.7-2.8,1.6-4c1.5-2.2,3.5-3.6,6.1-4C11.7-0.5,15,0.8,17.4,4c1,1.3,1.5,2.7,1.7,4.3
	c0.3,2.2-0.1,4.3-1.3,6.3c-0.2,0.3-0.5,0.3-0.6,0.1c-0.1-0.1-0.1-0.3,0-0.4c0.5-0.8,0.8-1.7,1-2.6c0.5-2.4,0.2-4.7-1.2-6.7
	c-1.3-2.1-3.3-3.5-5.7-4c-2.6-0.5-5,0-7.1,1.6c-1.9,1.4-3,3.3-3.4,5.7c-0.6,3.4,1,7,3.9,8.9c1.2,0.8,2.6,1.3,4,1.4
	c1.5,0.1,2.9,0,4.2-0.6c0.5-0.2,1-0.6,1.4-1.1c0.2-0.2,0.3-0.5,0.4-0.8c0-0.1,0-0.3-0.1-0.4c-0.1-0.2-0.3-0.2-0.4-0.1
	c-0.7,0.8-1.6,0.8-2.5,0.5c-0.9-0.3-1.7-0.8-2.4-1.3c-2-1.5-3.8-3.3-5.2-5.4C3.7,8.7,3.2,7.9,3.1,7.1C3,6.7,2.9,6.3,3,5.9
	c0.1-0.3,0.2-0.5,0.4-0.7c0.3-0.3,0.7-0.7,1-1c0.6-0.6,1.5-0.5,2,0.1c0.4,0.5,0.8,1.1,1.2,1.6c0.4,0.6,0.4,1.2,0,1.7
	C7.7,7.7,7.6,7.8,7.5,7.9c-0.2,0.3-0.2,0.6,0,0.8c1,1,2,2,3,3c0.2,0.2,0.6,0.2,0.8,0.1c0.1-0.1,0.2-0.1,0.3-0.2
	c0.6-0.5,1.2-0.5,1.8,0c0.5,0.4,1,0.8,1.5,1.2c0.7,0.6,0.8,1.4,0.1,2.1c0,0-0.1,0.1-0.1,0.1c0,0,0,0,0,0c0.5,0.4,0.6,0.9,0.4,1.5
	c-0.2,0.6-0.6,1.1-1.1,1.5c-0.8,0.6-1.8,1-2.8,1.2c-0.4,0.1-0.8,0.1-1.2,0.1c-0.1,0-0.1,0-0.2,0c-0.2,0-0.5,0-0.7,0
	c-0.1,0-0.1,0-0.2,0c-0.5-0.1-1-0.1-1.5-0.2c-1.7-0.3-3.2-1.1-4.4-2.2c-1.8-1.6-2.9-3.7-3.2-6.1c0-0.3-0.1-0.5-0.1-0.8
	C0,9.7,0,9.5,0,9.3z M3.7,6.5c0,0.2,0,0.4,0.1,0.5C4,7.8,4.4,8.5,4.9,9.2c0.8,1.2,1.8,2.2,2.8,3.2c0.9,0.8,1.8,1.6,2.8,2.3
	c0.6,0.4,1.3,0.8,2.1,0.9c0.4,0.1,0.7,0.1,1-0.2c0.4-0.3,0.7-0.7,1.1-1.1c0.3-0.3,0.3-0.7-0.1-0.9c-0.5-0.4-1.1-0.9-1.7-1.3
	c-0.3-0.2-0.5-0.2-0.8,0c-0.1,0.1-0.3,0.2-0.4,0.3c-0.5,0.4-1.3,0.3-1.7-0.1c-1-1-2-2-3-3C6.6,8.7,6.5,8,6.9,7.5
	C7,7.4,7.1,7.3,7.2,7.1c0.2-0.3,0.2-0.6,0-0.9C6.8,5.7,6.4,5.2,6,4.7C5.7,4.3,5.3,4.3,5,4.6C4.7,4.9,4.4,5.3,4,5.6
	C3.8,5.8,3.7,6.1,3.7,6.5z"/>
</symbol>

<symbol id="icon-box" viewBox="0 0 18.4 11.5">
	<path d="M17.2,0H1.2C0.5,0,0,0.5,0,1.2v9.2c0,0.6,0.5,1.2,1.2,1.2h16.1c0.6,0,1.2-0.5,1.2-1.2V1.2C18.4,0.5,17.8,0,17.2,0z M1.2,0.8
	h16.1c0.2,0,0.4,0.2,0.4,0.4v0.3L9.3,5L0.8,1.5V1.2C0.8,0.9,0.9,0.8,1.2,0.8z M17.2,10.8H1.2c-0.2,0-0.4-0.2-0.4-0.4v-8l8.6,3.4
	l8.3-3.5v8.1C17.6,10.6,17.4,10.8,17.2,10.8z"/>
</symbol>

<symbol id="icon-map-marker" viewBox="0 0 13.1 18.9">
	<g>
	<g>
		<defs>
			<rect id="SVGID_1_" width="13.1" height="18.9"/>
		</defs>
		<clipPath id="SVGID_2_">
			<use xlink:href="#SVGID_1_"  style="overflow:visible;"/>
		</clipPath>
		<path class="st0" d="M6.5,4.1c-1.3,0-2.4,1.1-2.4,2.4c0,1.3,1.1,2.4,2.4,2.4c1.3,0,2.4-1.1,2.4-2.4C8.9,5.2,7.8,4.1,6.5,4.1
			L6.5,4.1z M6.5,8.2c-0.9,0-1.7-0.8-1.7-1.7c0-0.9,0.8-1.7,1.7-1.7c0.9,0,1.7,0.8,1.7,1.7C8.2,7.4,7.5,8.2,6.5,8.2L6.5,8.2z
			 M6.5,8.2"/>
		<path class="st0" d="M11.1,1.9C9.8,0.7,8.2,0,6.5,0C4.7,0,3.1,0.7,1.9,1.9C-0.4,4.2-0.6,8.5,1.3,11l5.2,7.5l5.2-7.5
			C13.6,8.5,13.3,4.2,11.1,1.9L11.1,1.9z M11.1,10.7l-4.6,6.7l-4.6-6.7C0.1,8.3,0.3,4.5,2.4,2.4c1.1-1.1,2.6-1.7,4.1-1.7
			c1.5,0,3,0.6,4.1,1.7C12.6,4.5,12.9,8.3,11.1,10.7L11.1,10.7z M11.1,10.7"/>
	</g>
</g>
</symbol>

<symbol id="icon-true-studio" viewBox="0 0 2231.8 192.8">
	<g>
	<polygon points="0,49.4 57.6,49.4 57.6,189.6 108.6,189.6 108.6,49.4 166.2,49.4 166.2,3 0,3 	"/>
	<path d="M426.7,66.9c0-18.3-6-33.7-17.4-44.6C396.1,9.6,376.4,3,352.2,3h-93.9v186.6h51v-56.3h27.8l39.8,56.3h60.3l-46.9-65.8
		C413.9,113.2,426.7,93.2,426.7,66.9z M349.7,88.4h-40.2l-0.1-39.8h39.5c12,0,26.3,3.4,26.3,19.8C375.2,81.1,365.9,88.4,349.7,88.4z
		"/>
	<path d="M651,109.1c0,24.1-17.8,36.9-40.1,36.9s-40.1-13.2-40.1-38.1V3h-51v105.9c0,53.1,36.8,83.5,90.6,83.5
		c54.5,0,91.7-30.9,91.7-84.8V3h-51L651,109.1z"/>
	<polygon points="799.1,189.6 949.3,189.6 949.3,144.5 849.8,144.5 849.8,118.3 949.3,118.3 949.3,73.1 849.8,73.1 849.8,48.1 
		949.3,48.1 949.3,3 799.1,3 	"/>
	<path d="M1130,86.4c-41-8.8-50.6-18.6-50.6-36.2c0-17.3,15.5-30.6,39.7-30.6c19.2,0,36.5,6.1,53.8,20.2l12.2-16.2
		c-18.9-15.2-38.3-22.9-65.5-22.9c-35.4,0-61.2,21.6-61.2,50.9c0,31.1,19.7,45,62.6,54.3c39.2,8.2,48.5,18.1,48.5,35.4
		c0,18.9-16.5,32.2-41.5,32.2c-25.8,0-44.5-8.8-63.9-26.4l-13,15.4c22.4,19.9,46.6,29.8,76,29.9c37,0,63.6-20.7,63.6-52.7
		C1190.7,110.6,1171.5,95.5,1130,86.4z"/>
	<polygon points="1248.5,22.7 1311,22.7 1311.1,189.7 1332.4,189.7 1332.4,22.7 1395,22.7 1395,3.3 1248.5,3.3 	"/>
	<path d="M1597.6,111.6c0,40.7-21.8,61.5-56.2,61.5c-35.7,0-57-22.6-57-62.8V3.2h-21v108.4c0,52.7,31.4,81,77.4,81
		c46.6,0,77.8-28.3,77.8-82.6V3.2h-21L1597.6,111.6L1597.6,111.6z"/>
	<path d="M1765,3.2h-64.7v186.4h64.7c58.6,0,99.1-40.7,99.1-93.2C1864.1,43.4,1823.6,3.2,1765,3.2z M1765.1,170.2l-43.7-0.1V22.6
		h43.7c47.1,0,77.2,32.5,77.2,73.8C1842.3,138.2,1812.2,170.2,1765.1,170.2z"/>
	<rect x="1942.4" y="3.2" width="21" height="186.4"/>
	<path d="M2137,0c-56.7,0-95.3,45-95.3,96.4c0,52,38.1,96.4,94.8,96.4s95.3-45,95.3-96.4C2231.8,44.5,2193.7,0,2137,0z M2137,173.4
		c-42.6,0-73.5-34.7-73.5-77c0-42.9,30.4-77,73-77s73.5,34.7,73.5,77C2210,139.3,2179.6,173.4,2137,173.4z"/>
</g>
</symbol>

<symbol id="icon-complite" viewBox="0 0 34.7 34.7">
	<g>
	<path class="st0" d="M17.4,0C7.8,0,0,7.8,0,17.4c0,9.6,7.8,17.4,17.4,17.4c9.6,0,17.4-7.8,17.4-17.4C34.7,7.8,26.9,0,17.4,0z
		 M17.4,33.3c-8.8,0-16-7.2-16-16c0-8.8,7.2-16,16-16s16,7.2,16,16C33.3,26.2,26.2,33.3,17.4,33.3z"/>
	<path class="st0" d="M25.9,11L14.6,22.3L11,18.7c-0.3-0.3-0.7-0.3-1,0c-0.3,0.3-0.3,0.7,0,1l4.1,4.1c0.1,0.1,0.3,0.2,0.5,0.2
		s0.3-0.1,0.5-0.2l11.8-11.8c0.3-0.3,0.3-0.7,0-1C26.6,10.7,26.2,10.7,25.9,11z"/>
</g>
</symbol>

<symbol id="icon-play" viewBox="0 0 30.051 30.051">
	<g>
	<path fill="#d7d7d7" d="M19.982,14.438l-6.24-4.536c-0.229-0.166-0.533-0.191-0.784-0.062c-0.253,0.128-0.411,0.388-0.411,0.669v9.069
		c0,0.284,0.158,0.543,0.411,0.671c0.107,0.054,0.224,0.081,0.342,0.081c0.154,0,0.31-0.049,0.442-0.146l6.24-4.532
		c0.197-0.145,0.312-0.369,0.312-0.607C20.295,14.803,20.177,14.58,19.982,14.438z"/>
	<path fill="#d7d7d7" d="M15.026,0.002C6.726,0.002,0,6.728,0,15.028c0,8.297,6.726,15.021,15.026,15.021c8.298,0,15.025-6.725,15.025-15.021
		C30.052,6.728,23.324,0.002,15.026,0.002z M15.026,27.542c-6.912,0-12.516-5.601-12.516-12.514c0-6.91,5.604-12.518,12.516-12.518
		c6.911,0,12.514,5.607,12.514,12.518C27.541,21.941,21.937,27.542,15.026,27.542z"/>
	<g>
	</g>
	<g>
	</g>
	<g>
	</g>
	<g>
	</g>
	<g>
	</g>
	<g>
	</g>
	<g>
	</g>
	<g>
	</g>
	<g>
	</g>
	<g>
	</g>
	<g>
	</g>
	<g>
	</g>
	<g>
	</g>
	<g>
	</g>
	<g>
	</g>
</g>
<g>
</g>
<g>
</g>
<g>
</g>
<g>
</g>
<g>
</g>
<g>
</g>
<g>
</g>
<g>
</g>
<g>
</g>
<g>
</g>
<g>
</g>
<g>
</g>
<g>
</g>
<g>
</g>
<g>
</g>
</symbol>

</svg>