<?xml version="1.0" encoding="utf-8"?>
<!-- Generator: Adobe Illustrator 21.1.0, SVG Export Plug-In . SVG Version: 6.00 Build 0)  -->
<svg version="1.1" id="Слой_1" xmlns="http://www.w3.org/2000/svg" xmlns:xlink="http://www.w3.org/1999/xlink" x="0px" y="0px"
	 viewBox="0 0 863.6 285.1" style="enable-background:new 0 0 863.6 285.1;" xml:space="preserve">
<style type="text/css">
	.st0{fill:url(#SVGID_1_);}
	.st1{fill:url(#SVGID_2_);}
	.st2{fill:url(#SVGID_3_);}
	.st3{fill:url(#SVGID_4_);}
	.st4{fill:url(#SVGID_5_);}
	.st5{fill:#0073B5;}
	.st6{fill:#FFFFFF;}
	.st7{enable-background:new    ;}
	.st8{fill:url(#SVGID_6_);}
	.st9{fill:#004686;}
	.st10{fill:url(#SVGID_7_);}
	.st11{fill:#0091E8;}
	.st12{fill:url(#SVGID_8_);}
	.st13{fill:url(#SVGID_9_);}
	.st14{fill:url(#SVGID_10_);}
</style>
<linearGradient id="SVGID_1_" gradientUnits="userSpaceOnUse" x1="197.2823" y1="200.0675" x2="122.8735" y2="157.1075" gradientTransform="matrix(1 0 0 -1 0 286.5)">
	<stop  offset="0" style="stop-color:#0088D1"/>
	<stop  offset="1" style="stop-color:#00457D"/>
</linearGradient>
<polygon class="st0" points="205,99.8 205,106.3 132,145.2 132,99.8 "/>
<linearGradient id="SVGID_2_" gradientUnits="userSpaceOnUse" x1="210.0345" y1="164.3799" x2="126.9222" y2="116.3951" gradientTransform="matrix(1 0 0 -1 0 286.5)">
	<stop  offset="0" style="stop-color:#0088D1"/>
	<stop  offset="1" style="stop-color:#00457D"/>
</linearGradient>
<polygon class="st1" points="205,113.4 205,139.9 132,178.9 132,152.3 "/>
<linearGradient id="SVGID_3_" gradientUnits="userSpaceOnUse" x1="210.251" y1="130.405" x2="126.7057" y2="82.17" gradientTransform="matrix(1 0 0 -1 0 286.5)">
	<stop  offset="0" style="stop-color:#0088D1"/>
	<stop  offset="1" style="stop-color:#00457D"/>
</linearGradient>
<polygon class="st2" points="205,147 205,174.5 132,213.5 132,185.9 "/>
<linearGradient id="SVGID_4_" gradientUnits="userSpaceOnUse" x1="209.6881" y1="96.78" x2="127.3119" y2="49.22" gradientTransform="matrix(1 0 0 -1 0 286.5)">
	<stop  offset="0" style="stop-color:#0088D1"/>
	<stop  offset="1" style="stop-color:#00457D"/>
</linearGradient>
<polygon class="st3" points="205,181.6 205,206.5 132,245.4 132,220.5 "/>
<linearGradient id="SVGID_5_" gradientUnits="userSpaceOnUse" x1="218.9329" y1="48.8675" x2="135.0845" y2="0.4575" gradientTransform="matrix(1 0 0 -1 0 286.5)">
	<stop  offset="0" style="stop-color:#0088D1"/>
	<stop  offset="1" style="stop-color:#00457D"/>
</linearGradient>
<polygon class="st4" points="205,213.5 205,281.1 132,280.7 132,252.4 "/>
<rect x="87.7" y="150.1" class="st5" width="65.3" height="131"/>
<ellipse class="st6" cx="186.3" cy="282.8" rx="186.3" ry="2.3"/>
<g class="st7">
	<path class="st6" d="M403.3,116.2h-9.5v-43h30v8.5h-20.6V116.2z"/>
	<path class="st6" d="M427.8,94.7c0-12.2,9.6-22.2,22.9-22.2c13.3,0,22.8,9.9,22.8,22.2c0,12.2-9.6,22.2-22.9,22.2
		S427.8,107,427.8,94.7z M463.6,94.7c0-7.4-5.4-13.5-13-13.5c-7.6,0-12.9,6-12.9,13.5c0,7.4,5.4,13.5,13,13.5
		C458.3,108.2,463.6,102.2,463.6,94.7z"/>
	<path class="st6" d="M482.9,73.2h17.6c10.3,0,16.5,6.1,16.5,15c0,9.9-7.7,15.1-17.4,15.1h-7.2v12.9h-9.5V73.2z M499.8,94.9
		c4.7,0,7.5-2.8,7.5-6.6c0-4.2-2.9-6.5-7.7-6.5h-7.3v13.1H499.8z"/>
	<path class="st6" d="M523,94.7c0-12.2,9.6-22.2,22.9-22.2c13.3,0,22.8,9.9,22.8,22.2c0,12.2-9.6,22.2-22.9,22.2S523,107,523,94.7z
		 M558.8,94.7c0-7.4-5.4-13.5-13-13.5c-7.6,0-12.9,6-12.9,13.5c0,7.4,5.4,13.5,13,13.5C553.5,108.2,558.8,102.2,558.8,94.7z"/>
	<path class="st6" d="M572.9,107.7h4.1c3.2-7.4,4.7-14.7,4.7-29.4v-5h31.2v34.4h5.2l-1.2,17.5h-7.9v-9H582l-0.6,9h-8.5V107.7z
		 M590.8,81.7v4.4c0,9.1-1.4,15.6-3.9,21.5h16.6V81.7H590.8z"/>
</g>
<g class="st7">
	<path class="st6" d="M393.9,146.9h9.5v17h17.4v-17h9.5v43h-9.5v-17.2h-17.4v17.2h-9.5V146.9z"/>
	<path class="st6" d="M439.6,168.4c0-12.2,9.6-22.2,22.9-22.2c13.3,0,22.8,9.9,22.8,22.2c0,12.2-9.6,22.2-22.9,22.2
		S439.6,180.7,439.6,168.4z M475.4,168.4c0-7.4-5.4-13.5-13-13.5c-7.6,0-12.9,6-12.9,13.5c0,7.4,5.4,13.5,13,13.5
		C470.1,181.9,475.4,175.9,475.4,168.4z"/>
	<path class="st6" d="M494.7,146.9h20c4.9,0,8.8,1.4,11.2,3.8c2,2,2.9,4.4,2.9,7.4c0,4.8-2.6,7.5-5.6,9.3c5,1.9,8,4.8,8,10.7
		c0,7.9-6.4,11.8-16.1,11.8h-20.4V146.9z M512.6,164.3c4.2,0,6.8-1.4,6.8-4.7c0-2.8-2.2-4.4-6.2-4.4h-9.3v9.1H512.6z M515.1,181.6
		c4.2,0,6.7-1.5,6.7-4.8c0-2.9-2.1-4.7-7-4.7h-10.9v9.5H515.1z"/>
	<path class="st6" d="M538.1,168.4c0-12.2,9.6-22.2,22.9-22.2c13.3,0,22.8,9.9,22.8,22.2c0,12.2-9.6,22.2-22.9,22.2
		S538.1,180.7,538.1,168.4z M573.9,168.4c0-7.4-5.4-13.5-13-13.5c-7.6,0-12.9,6-12.9,13.5c0,7.4,5.4,13.5,13,13.5
		C568.6,181.9,573.9,175.9,573.9,168.4z"/>
	<path class="st6" d="M591.2,168.4c0-12.2,9.2-22.2,22.4-22.2c8.1,0,12.6,3.1,16.6,7l-5.6,6.5c-3.3-3-6.1-4.8-11-4.8
		c-7.2,0-12.5,6-12.5,13.5c0,7.4,5.1,13.5,12.5,13.5c4.9,0,7.9-2,11.3-5l6,6.4c-4.4,4.7-9.3,7.3-17.6,7.3
		C600.6,190.6,591.2,180.9,591.2,168.4z"/>
	<path class="st6" d="M649.4,155.6h-13.1v-8.7H672v8.7h-13.1v34.3h-9.5V155.6z"/>
	<path class="st6" d="M680.2,146.9h17.6c10.3,0,16.5,6.1,16.5,15c0,9.9-7.7,15.1-17.4,15.1h-7.2v12.9h-9.5V146.9z M697.1,168.6
		c4.7,0,7.5-2.8,7.5-6.6c0-4.2-2.9-6.5-7.7-6.5h-7.3v13.1H697.1z"/>
	<path class="st6" d="M720.3,168.4c0-12.2,9.6-22.2,22.9-22.2s22.8,9.9,22.8,22.2c0,12.2-9.6,22.2-22.9,22.2
		C729.8,190.6,720.3,180.7,720.3,168.4z M756.1,168.4c0-7.4-5.4-13.5-13-13.5c-7.6,0-12.9,6-12.9,13.5c0,7.4,5.4,13.5,13,13.5
		C750.8,181.9,756.1,175.9,756.1,168.4z"/>
	<path class="st6" d="M775.4,146.9h32.4v8.4h-23v8.7H805v8.4h-20.3v9h23.3v8.4h-32.7V146.9z"/>
	<path class="st6" d="M817.5,146.9h9.5v18.8l17.4-18.8h11.4l-17.5,18.2l18.3,24.7h-11.4l-13.3-18.3l-5,5.2v13.1h-9.5V146.9z"/>
</g>
<g class="st7">
	<path class="st6" d="M392,232.4h2.9v11.2l10.7-11.2h3.6l-8.2,8.5l8.4,11.1h-3.4l-6.9-8.9l-4.1,4.2v4.7H392V232.4z"/>
	<path class="st6" d="M413.4,232.4h9.4c3.9,0,6.4,1.9,6.4,4.9c0,2.6-1.6,3.8-3.2,4.5c2.3,0.6,4.3,2.1,4.3,4.8c0,3.3-2.8,5.3-7.1,5.3
		h-9.8V232.4z M422.3,240.7c2.3,0,4-1.1,4-3.1c0-1.6-1.4-2.8-3.9-2.8h-6.1v5.9H422.3z M422.8,249.4c2.8,0,4.5-1.2,4.5-3.3
		c0-1.9-1.7-3-4.9-3h-6.1v6.3H422.8z"/>
	<path class="st6" d="M434,246.1c0-4.2,3.4-6.4,8.3-6.4c2.5,0,4.2,0.3,6,0.8V240c0-3.5-2.1-5.3-5.8-5.3c-2.3,0-4.1,0.6-5.9,1.4
		l-0.9-2.4c2.2-1,4.2-1.7,7.1-1.7c2.8,0,4.9,0.8,6.3,2.2c1.4,1.4,2,3.2,2,5.7v11.9h-2.9V249c-1.4,1.7-3.6,3.3-7,3.3
		C437.6,252.3,434,250.2,434,246.1z M448.4,244.7v-1.8c-1.4-0.4-3.3-0.8-5.7-0.8c-3.6,0-5.7,1.6-5.7,4c0,2.5,2.3,3.9,4.9,3.9
		C445.4,250,448.4,247.8,448.4,244.7z"/>
	<path class="st6" d="M457.3,232.4h2.9v3.9c1.6-2.3,3.9-4.3,7.5-4.3c4.7,0,9.3,3.7,9.3,10.2c0,6.4-4.6,10.2-9.3,10.2
		c-3.6,0-6-2-7.5-4.2v9.8h-2.9V232.4z M474.1,242.1c0-4.6-3.2-7.5-6.9-7.5c-3.6,0-7.1,3.1-7.1,7.6c0,4.5,3.4,7.5,7.1,7.5
		C471,249.7,474.1,246.9,474.1,242.1z"/>
	<path class="st6" d="M486.4,234.9h-7v-2.6h16.9v2.6h-7v17h-2.9V234.9z"/>
	<path class="st6" d="M500.5,232.4h2.9v15.4l11.6-15.4h2.8v19.5h-2.9v-15.4l-11.6,15.4h-2.8V232.4z"/>
	<path class="st6" d="M524.3,232.4h2.9v3.9c1.6-2.3,3.9-4.3,7.5-4.3c4.7,0,9.3,3.7,9.3,10.2c0,6.4-4.6,10.2-9.3,10.2
		c-3.6,0-6-2-7.5-4.2v9.8h-2.9V232.4z M541,242.1c0-4.6-3.2-7.5-6.9-7.5c-3.6,0-7.1,3.1-7.1,7.6c0,4.5,3.4,7.5,7.1,7.5
		C538,249.7,541,246.9,541,242.1z"/>
	<path class="st6" d="M549.4,232.4h2.9v7.3h5.2c4.2,0,7.7,1.7,7.7,5.9c0,3.9-2.9,6.3-7.4,6.3h-8.5V232.4z M557.6,249.3
		c2.9,0,4.7-1.2,4.7-3.7c0-2.3-1.8-3.4-4.8-3.4h-5.2v7.1H557.6z M568.7,232.4h2.9v19.5h-2.9V232.4z"/>
	<path class="st6" d="M589.4,232.4h9.4c3.9,0,6.4,1.9,6.4,4.9c0,2.6-1.6,3.8-3.2,4.5c2.3,0.6,4.3,2.1,4.3,4.8c0,3.3-2.8,5.3-7.1,5.3
		h-9.8V232.4z M598.3,240.7c2.3,0,4-1.1,4-3.1c0-1.6-1.4-2.8-3.9-2.8h-6.1v5.9H598.3z M598.8,249.4c2.8,0,4.5-1.2,4.5-3.3
		c0-1.9-1.7-3-4.9-3h-6.1v6.3H598.8z"/>
	<path class="st6" d="M622.2,238.7c0-7.3,5.5-13.7,13.5-13.7c8,0,13.4,6.3,13.4,13.7c0,7.3-5.5,13.7-13.5,13.7
		S622.2,246,622.2,238.7z M646,238.7c0-6-4.4-10.9-10.4-10.9s-10.3,4.8-10.3,10.9c0,6,4.4,10.9,10.4,10.9S646,244.8,646,238.7z"/>
	<path class="st6" d="M654.9,232.4h2.9v3.9c1.6-2.3,3.9-4.3,7.5-4.3c4.7,0,9.3,3.7,9.3,10.2c0,6.4-4.6,10.2-9.3,10.2
		c-3.6,0-6-2-7.5-4.2v9.8h-2.9V232.4z M671.7,242.1c0-4.6-3.2-7.5-6.9-7.5c-3.6,0-7.1,3.1-7.1,7.6c0,4.5,3.4,7.5,7.1,7.5
		C668.6,249.7,671.7,246.9,671.7,242.1z"/>
	<path class="st6" d="M678.8,242.1c0-5.7,4-10.2,9.4-10.2c5.8,0,9.1,4.6,9.1,10.3c0,0.3,0,0.6,0,1h-15.5c0.4,4.1,3.4,6.5,6.9,6.5
		c2.7,0,4.6-1.1,6.2-2.8l1.8,1.6c-2,2.2-4.3,3.7-8,3.7C683.2,252.3,678.8,248.2,678.8,242.1z M694.3,241c-0.3-3.5-2.4-6.6-6.2-6.6
		c-3.4,0-5.9,2.8-6.3,6.6H694.3z"/>
	<path class="st6" d="M702.4,232.4h2.9v8.4h11.3v-8.4h2.9v19.5h-2.9v-8.5h-11.3v8.5h-2.9V232.4z"/>
	<path class="st6" d="M725.2,241.4c0-6.3,0.5-12.3,7.3-14l10.9-2.6l0.6,2.5l-10.6,2.6c-4,1-5.4,3.2-5.7,6.9c1.4-2.3,3.9-4.2,8.1-4.2
		c5.1,0,9.4,4.3,9.4,9.7c0,5.4-4.2,10-10,10C729.2,252.3,725.2,248.1,725.2,241.4z M742.1,242.4c0-4.1-3.1-7.4-7-7.4
		c-4,0-6.9,3.3-6.9,7.4s3.1,7.4,7,7.4C739.2,249.7,742.1,246.4,742.1,242.4z"/>
	<path class="st6" d="M748.4,257.1l1-2.3c0.9,0.5,1.8,0.7,3.1,0.7c1.7,0,2.8-0.9,4-3.7l-8.9-19.4h3.2l7.1,16.3l6.3-16.3h3.1
		l-8.2,20.2c-1.7,4-3.5,5.5-6.5,5.5C751,258,749.8,257.7,748.4,257.1z"/>
	<path class="st6" d="M771.9,232.4h2.9v3.9c1.6-2.3,3.9-4.3,7.5-4.3c4.7,0,9.3,3.7,9.3,10.2c0,6.4-4.6,10.2-9.3,10.2
		c-3.6,0-6-2-7.5-4.2v9.8h-2.9V232.4z M788.6,242.1c0-4.6-3.2-7.5-6.9-7.5c-3.6,0-7.1,3.1-7.1,7.6c0,4.5,3.4,7.5,7.1,7.5
		C785.5,249.7,788.6,246.9,788.6,242.1z"/>
	<path class="st6" d="M796.9,232.4h13.3v2.6h-10.3v17h-2.9V232.4z"/>
	<path class="st6" d="M812.4,242.1c0-5.7,4-10.2,9.4-10.2c5.8,0,9.1,4.6,9.1,10.3c0,0.3,0,0.6,0,1h-15.5c0.4,4.1,3.4,6.5,6.9,6.5
		c2.7,0,4.6-1.1,6.2-2.8l1.8,1.6c-2,2.2-4.3,3.7-8,3.7C816.8,252.3,812.4,248.2,812.4,242.1z M828,241c-0.3-3.5-2.4-6.6-6.2-6.6
		c-3.4,0-5.9,2.8-6.3,6.6H828z"/>
</g>
<linearGradient id="SVGID_6_" gradientUnits="userSpaceOnUse" x1="280.6775" y1="251.2604" x2="149.7225" y2="24.4396" gradientTransform="matrix(1 0 0 -1 0 286.5)">
	<stop  offset="0" style="stop-color:#004686"/>
	<stop  offset="1" style="stop-color:#002E66"/>
</linearGradient>
<rect x="182.7" y="16.2" class="st8" width="65" height="264.9"/>
<rect x="187.4" class="st9" width="55.6" height="10"/>
<rect x="47" y="114.5" class="st9" width="45.3" height="10"/>
<g>
	
		<linearGradient id="SVGID_7_" gradientUnits="userSpaceOnUse" x1="109.3125" y1="148.6913" x2="30.6875" y2="12.5086" gradientTransform="matrix(1 0 0 -1 0 286.5)">
		<stop  offset="0" style="stop-color:#004686"/>
		<stop  offset="1" style="stop-color:#002E66"/>
	</linearGradient>
	<polygon class="st10" points="92.3,168.3 92.3,173.6 97,173.6 97,205.7 92.3,205.7 92.3,211.3 97,211.3 97,243.4 92.3,243.4 
		92.3,249 97,249 97,281.1 43,281.1 43,249 47,249 47,243.4 43,243.4 43,211.3 47,211.3 47,205.7 43,205.7 43,173.6 47,173.6 
		47,168.3 43,168.3 43,130.7 97,130.7 97,168.3 	"/>
</g>
<g>
	<polygon class="st6" points="107.1,149.7 106.8,107.8 106.6,65.9 106.6,65.8 106.6,65.8 113.9,32.8 114.4,30.7 114.9,32.8 
		122.7,65.8 122.8,65.8 122.8,65.9 122.6,107.8 122.3,149.7 122,107.8 121.9,65.9 121.9,66 113.9,33 114.9,33 107.5,66 107.5,65.9 
		107.4,107.8 	"/>
</g>
<g>
	<polygon class="st6" points="18.5,83.1 26,74.9 26.4,74.5 26.7,74.9 34.2,83 26,75.6 26.7,75.6 	"/>
</g>
<g>
	<polygon class="st6" points="34.2,83.1 41.7,74.9 42.1,74.5 42.4,74.9 49.9,83 41.7,75.6 42.4,75.6 	"/>
</g>
<g>
	<polygon class="st6" points="49.9,83.1 57.4,74.9 57.7,74.5 58.1,74.9 65.6,83 57.4,75.6 58.1,75.6 	"/>
</g>
<g>
	<polygon class="st6" points="65.6,83.1 73.1,74.9 73.4,74.5 73.8,74.9 81.2,83 73.1,75.6 73.8,75.6 	"/>
</g>
<g>
	<polygon class="st6" points="81.2,83.1 88.8,74.9 89.1,74.5 89.5,74.9 96.9,83 88.8,75.6 89.5,75.6 	"/>
</g>
<g>
	<path class="st6" d="M96.9,83.1c1-1.6,2.3-3,3.6-4.3c1.3-1.3,2.7-2.6,4.3-3.6c-1,1.6-2.3,3-3.6,4.3C99.9,80.8,98.5,82,96.9,83.1z"
		/>
</g>
<g>
	<polygon class="st6" points="211.6,83.1 203.4,75.6 204.1,75.6 195.9,83 203.4,74.9 203.7,74.5 204.1,74.9 	"/>
</g>
<g>
	<polygon class="st6" points="227.3,83.1 219.1,75.6 219.8,75.6 211.6,83 219.1,74.9 219.4,74.5 219.8,74.9 	"/>
</g>
<g>
	<polygon class="st6" points="195.9,83.1 187.7,75.6 188.4,75.6 180.2,83 187.7,74.9 188.1,74.5 188.4,74.9 	"/>
</g>
<g>
	<polygon class="st6" points="258.7,83.1 250.5,75.6 251.2,75.6 243,83 250.5,74.9 250.8,74.5 251.2,74.9 	"/>
</g>
<g>
	<polygon class="st6" points="274.4,83.1 266.1,75.6 266.8,75.6 258.7,83 266.1,74.9 266.5,74.5 266.8,74.9 	"/>
</g>
<g>
	<polygon class="st6" points="290.1,83.1 281.8,75.6 282.5,75.6 274.4,83 281.8,74.9 282.2,74.5 282.5,74.9 	"/>
</g>
<g>
	<polygon class="st6" points="243,83.1 234.8,75.6 235.5,75.6 227.3,83 234.8,74.9 235.1,74.5 235.5,74.9 	"/>
</g>
<g>
	<polygon class="st6" points="180.2,83.1 172,75.6 172.7,75.6 164.6,83 172,74.9 172.4,74.5 172.7,74.9 	"/>
</g>
<g>
	<polygon class="st6" points="164.6,83.1 156.3,75.6 157,75.6 148.9,83 156.3,74.9 156.7,74.5 157,74.9 	"/>
</g>
<g>
	<polygon class="st6" points="148.9,83.1 140.6,75.6 141.3,75.6 133.2,83 140.6,74.9 141,74.5 141.3,74.9 	"/>
</g>
<g>
	<path class="st6" d="M133.2,83.1c-1.6-1-3-2.3-4.3-3.6c-1.3-1.3-2.6-2.7-3.6-4.3c1.6,1,3,2.3,4.3,3.6
		C130.9,80.1,132.1,81.5,133.2,83.1z"/>
</g>
<g>
	<path class="st6" d="M28.9,73.3c6.3-0.1,12.5-0.1,18.8-0.1s12.5,0.1,18.8,0.1c6.3,0.1,12.5,0.2,18.8,0.4l9.4,0.3
		c3.1,0.1,6.3,0.2,9.4,0.4c-3.1,0.1-6.3,0.1-9.4,0.1h-9.4c-6.3,0-12.5-0.1-18.8-0.1C60.2,74.3,54,74.2,47.7,74
		C41.5,73.7,35.2,73.6,28.9,73.3z"/>
</g>
<g>
	<path class="st6" d="M8.6,83.5c8-0.1,15.9-0.1,23.9-0.1l23.9,0.1l23.9,0.4l11.9,0.3l11.9,0.4l-11.9,0.1H80.3l-23.9-0.1l-23.9-0.4
		C24.5,84,16.6,83.8,8.6,83.5z"/>
</g>
<g>
	<path class="st6" d="M40.4,72.5l18.5-10.2l18.5-10.2l37.1-20.2l0.2-0.1l0.2,0.1c16.9,6.7,33.8,13.5,50.7,20.2l25.3,10.2l25.3,10.3
		l-25.5-9.8l-25.4-9.9c-16.9-6.7-33.9-13.3-50.8-20.1h0.4l-37.2,20l-18.6,9.9L40.4,72.5z"/>
</g>
<g>
	<polygon class="st6" points="124.6,73.8 144,73.5 163.5,73.4 202.5,73.3 241.5,73.4 260.9,73.5 280.4,73.8 260.9,74 241.5,74.2 
		202.5,74.3 163.5,74.2 144,74 	"/>
</g>
<g>
	<polygon class="st6" points="124.6,84 146.2,83.8 167.8,83.6 210.9,83.5 254.1,83.6 275.7,83.8 297.3,84 275.7,84.3 254.1,84.4 
		210.9,84.5 167.8,84.4 146.2,84.3 	"/>
</g>
<g>
	<path class="st6" d="M111.2,149.3l9.2-9.5v0.3L107.8,128l-0.3-0.2l0.3-0.2l12.4-12.2v0.6l-12.5-11.7l-0.4-0.3l0.4-0.4
		c4.1-4.2,8.3-8.3,12.5-12.5v0.7L107.8,80l-0.3-0.3l0.3-0.3l12.6-12.9v0.4l-9.8-10.6l-0.1-0.1l0.1-0.1l5.8-9.9l-5.5,10.1v-0.2
		l10,10.4l0.2,0.2l-0.2,0.2L108.5,80v-0.6L121,91l0.4,0.3l-0.3,0.3c-4.2,4.2-8.3,8.4-12.5,12.5v-0.7l12.5,11.8l0.3,0.3l-0.3,0.3
		l-12.6,12.1v-0.5l12.4,12.4l0.1,0.1l-0.1,0.1L111.2,149.3z"/>
</g>
<g>
	<path class="st6" d="M273.3,85.5c3-0.4,6-0.5,9-0.5s6,0.1,9,0.5c-3,0.4-6,0.5-9,0.5C279.2,85.9,276.2,85.8,273.3,85.5z"/>
</g>
<g>
	<path class="st6" d="M279.5,96.8c-0.4,0.4-0.6,0.9-0.5,1.4c0,0.5,0.2,1,0.5,1.4c0.6,0.8,1.5,1.3,2.3,1.2c1.7-0.2,3-1.7,2.7-3.8
		c-0.1-1-0.7-1.8-1.4-2.6c-0.7-0.8-1.4-1.8-1.6-2.9s0-2.2-0.1-3.3V85l0.2,3.2c0.1,1.1,0.1,2.2,0.3,3.2c0.2,1,0.9,1.8,1.7,2.5
		c0.8,0.7,1.6,1.7,1.8,2.9c0.1,0.3,0.1,0.6,0.2,0.9c0,0.3,0.1,0.6,0.1,0.9c0,0.6-0.2,1.3-0.5,1.9c-0.7,1.2-2.1,1.8-3.4,1.6
		c-0.6,0-1.4-0.3-1.8-0.7c-0.5-0.4-0.8-0.9-1.1-1.5c-0.2-0.5-0.3-1.1-0.3-1.7C278.8,97.6,279.1,97.1,279.5,96.8z"/>
</g>
<circle class="st6" cx="281.7" cy="89" r="1.3"/>
<rect x="241.4" y="106.3" class="st11" width="80.6" height="26.2"/>
<linearGradient id="SVGID_8_" gradientUnits="userSpaceOnUse" x1="284.5905" y1="135.5234" x2="216.6095" y2="17.7766" gradientTransform="matrix(1 0 0 -1 0 286.5)">
	<stop  offset="0" style="stop-color:#0091E8"/>
	<stop  offset="1" style="stop-color:#002E66"/>
</linearGradient>
<rect x="237.7" y="138.8" class="st12" width="25.8" height="142.1"/>
<linearGradient id="SVGID_9_" gradientUnits="userSpaceOnUse" x1="316.1906" y1="135.5233" x2="248.2094" y2="17.7766" gradientTransform="matrix(1 0 0 -1 0 286.5)">
	<stop  offset="0" style="stop-color:#0091E8"/>
	<stop  offset="1" style="stop-color:#002E66"/>
</linearGradient>
<rect x="269.3" y="138.8" class="st13" width="25.8" height="142.1"/>
<linearGradient id="SVGID_10_" gradientUnits="userSpaceOnUse" x1="347.7906" y1="135.5233" x2="279.8094" y2="17.7766" gradientTransform="matrix(1 0 0 -1 0 286.5)">
	<stop  offset="0" style="stop-color:#0091E8"/>
	<stop  offset="1" style="stop-color:#002E66"/>
</linearGradient>
<rect x="300.9" y="138.8" class="st14" width="25.8" height="142.1"/>
<g>
	<path class="st6" d="M242.5,105.4c2.9-0.8,5.9-1.4,8.8-2.1c3-0.7,5.9-1.2,8.9-1.8c3-0.6,5.9-1.1,8.9-1.6l4.5-0.7
		c1.5-0.2,3-0.4,4.5-0.6c-1.5,0.4-2.9,0.7-4.4,1.1l-4.4,1c-3,0.7-5.9,1.2-8.9,1.8c-3,0.6-5.9,1.1-8.9,1.6
		C248.5,104.6,245.5,105.1,242.5,105.4z"/>
</g>
<g>
	<path class="st6" d="M321.4,105.4c-3-0.4-6-0.8-9-1.3s-6-1-8.9-1.6c-3-0.6-5.9-1.2-8.9-1.8l-4.4-1c-1.5-0.4-2.9-0.7-4.4-1.1
		c1.5,0.2,3,0.4,4.5,0.6l4.5,0.7c3,0.5,6,1,8.9,1.6c3,0.6,5.9,1.2,8.9,1.8C315.5,104,318.5,104.7,321.4,105.4z"/>
</g>
</svg>
