<?xml version="1.0" encoding="utf-8"?>
<!-- Generator: Adobe Illustrator 21.1.0, SVG Export Plug-In . SVG Version: 6.00 Build 0)  -->
<svg version="1.1" id="Слой_1" xmlns="http://www.w3.org/2000/svg" xmlns:xlink="http://www.w3.org/1999/xlink" x="0px" y="0px"
	 viewBox="0 0 861.5 285.1" style="enable-background:new 0 0 861.5 285.1;" xml:space="preserve">
<style type="text/css">
	.st0{fill:url(#SVGID_1_);}
	.st1{fill:url(#SVGID_2_);}
	.st2{fill:url(#SVGID_3_);}
	.st3{fill:url(#SVGID_4_);}
	.st4{fill:url(#SVGID_5_);}
	.st5{fill:#0073B5;}
	.st6{fill:url(#SVGID_6_);}
	.st7{fill:#004686;}
	.st8{fill:url(#SVGID_7_);}
	.st9{fill:#0091E8;}
	.st10{fill:url(#SVGID_8_);}
	.st11{fill:url(#SVGID_9_);}
	.st12{fill:url(#SVGID_10_);}
</style>
<g>
	<path d="M403.3,126.5h-9.5v-43h30V92h-20.6V126.5z"/>
	<path d="M428.4,105c0-12.2,9.6-22.2,22.9-22.2S474,92.6,474,105c0,12.2-9.6,22.2-22.9,22.2C437.9,127.2,428.4,117.3,428.4,105z
		 M464.2,105c0-7.4-5.4-13.5-13-13.5c-7.6,0-12.9,6-12.9,13.5c0,7.4,5.4,13.5,13,13.5C458.9,118.5,464.2,112.5,464.2,105z"/>
	<path d="M484,83.5h17.6c10.3,0,16.5,6.1,16.5,15c0,9.9-7.7,15.1-17.4,15.1h-7.2v12.9H484V83.5z M500.9,105.2c4.7,0,7.5-2.8,7.5-6.6
		c0-4.2-2.9-6.5-7.7-6.5h-7.3v13.1H500.9z"/>
	<path d="M524.6,105c0-12.2,9.6-22.2,22.9-22.2s22.8,9.9,22.8,22.2c0,12.2-9.6,22.2-22.9,22.2C534.2,127.2,524.6,117.3,524.6,105z
		 M560.4,105c0-7.4-5.4-13.5-13-13.5c-7.6,0-12.9,6-12.9,13.5c0,7.4,5.4,13.5,13,13.5C555.1,118.5,560.4,112.5,560.4,105z"/>
	<path d="M575.1,117.9h4.1c3.2-7.4,4.7-14.7,4.7-29.4v-5h31.2v34.4h5.2l-1.2,17.5h-7.9v-9h-26.9l-0.6,9h-8.5V117.9z M593,92v4.4
		c0,9.1-1.4,15.6-3.9,21.5h16.6V92H593z"/>
	<path d="M393.9,157.2h9.5v17h17.4v-17h9.5v43h-9.5v-17.2h-17.4v17.2h-9.5V157.2z"/>
	<path d="M440.2,178.6c0-12.2,9.6-22.2,22.9-22.2s22.8,9.9,22.8,22.2c0,12.2-9.6,22.2-22.9,22.2C449.7,200.9,440.2,191,440.2,178.6z
		 M476,178.6c0-7.4-5.4-13.5-13-13.5c-7.6,0-12.9,6-12.9,13.5c0,7.4,5.4,13.5,13,13.5C470.7,192.1,476,186.1,476,178.6z"/>
	<path d="M495.8,157.2h20c4.9,0,8.8,1.4,11.2,3.8c2,2,2.9,4.4,2.9,7.4c0,4.8-2.6,7.6-5.6,9.3c5,1.9,8,4.8,8,10.7
		c0,7.9-6.4,11.8-16.1,11.8h-20.4V157.2z M513.7,174.5c4.2,0,6.8-1.4,6.8-4.7c0-2.8-2.2-4.4-6.2-4.4H505v9.1H513.7z M516.2,191.8
		c4.2,0,6.7-1.5,6.7-4.8c0-2.9-2.1-4.7-7-4.7H505v9.5H516.2z"/>
	<path d="M539.7,178.6c0-12.2,9.6-22.2,22.9-22.2s22.8,9.9,22.8,22.2c0,12.2-9.6,22.2-22.9,22.2C549.3,200.9,539.7,191,539.7,178.6z
		 M575.5,178.6c0-7.4-5.4-13.5-13-13.5c-7.6,0-12.9,6-12.9,13.5c0,7.4,5.4,13.5,13,13.5C570.2,192.1,575.5,186.1,575.5,178.6z"/>
	<path d="M593.5,178.6c0-12.2,9.2-22.2,22.4-22.2c8.1,0,12.6,3.1,16.6,7l-5.6,6.5c-3.3-3-6.1-4.8-11-4.8c-7.2,0-12.5,6-12.5,13.5
		c0,7.4,5.1,13.5,12.5,13.5c4.9,0,7.9-2,11.3-5l6,6.4c-4.4,4.7-9.3,7.3-17.6,7.3C602.8,200.9,593.5,191.1,593.5,178.6z"/>
	<path d="M652.2,165.9h-13.1v-8.7h35.6v8.7h-13.1v34.3h-9.5V165.9z"/>
	<path d="M683.5,157.2h17.6c10.3,0,16.5,6.1,16.5,15c0,9.9-7.7,15.1-17.4,15.1H693v12.9h-9.5V157.2z M700.5,178.8
		c4.7,0,7.5-2.8,7.5-6.6c0-4.2-2.9-6.5-7.7-6.5H693v13.1H700.5z"/>
	<path d="M724.2,178.6c0-12.2,9.6-22.2,22.9-22.2s22.8,9.9,22.8,22.2c0,12.2-9.6,22.2-22.9,22.2C733.7,200.9,724.2,191,724.2,178.6z
		 M759.9,178.6c0-7.4-5.4-13.5-13-13.5c-7.6,0-12.9,6-12.9,13.5c0,7.4,5.4,13.5,13,13.5C754.7,192.1,759.9,186.1,759.9,178.6z"/>
	<path d="M779.8,157.2h32.4v8.4h-23v8.7h20.3v8.4h-20.3v9h23.3v8.4h-32.7V157.2z"/>
	<path d="M822.4,157.2h9.5v18.8l17.4-18.8h11.4l-17.5,18.2l18.3,24.7h-11.4l-13.3-18.3l-5,5.2v13.1h-9.5V157.2z"/>
	<path d="M392,242.6h2.9v11.2l10.7-11.2h3.6l-8.2,8.5l8.4,11.1h-3.4l-6.9-8.9l-4.1,4.2v4.7H392V242.6z"/>
	<path d="M414.3,242.6h9.4c3.9,0,6.4,1.9,6.4,4.9c0,2.6-1.6,3.8-3.2,4.5c2.3,0.6,4.3,2.1,4.3,4.8c0,3.3-2.8,5.3-7.1,5.3h-9.8V242.6z
		 M423.2,251c2.3,0,4-1.1,4-3.1c0-1.6-1.4-2.8-3.9-2.8h-6.1v5.9H423.2z M423.7,259.6c2.8,0,4.5-1.2,4.5-3.3c0-1.9-1.7-3-4.9-3h-6.1
		v6.3H423.7z"/>
	<path d="M435.9,256.4c0-4.2,3.4-6.4,8.3-6.4c2.5,0,4.2,0.3,6,0.8v-0.6c0-3.5-2.1-5.3-5.8-5.3c-2.3,0-4.1,0.6-5.9,1.4l-0.9-2.4
		c2.2-1,4.2-1.7,7.1-1.7c2.8,0,4.9,0.8,6.3,2.2c1.4,1.4,2,3.2,2,5.7v11.9h-2.9v-2.9c-1.4,1.7-3.6,3.3-7,3.3
		C439.5,262.5,435.9,260.5,435.9,256.4z M450.2,255v-1.8c-1.4-0.4-3.3-0.8-5.7-0.8c-3.6,0-5.7,1.6-5.7,4c0,2.5,2.3,3.9,4.9,3.9
		C447.3,260.2,450.2,258,450.2,255z"/>
	<path d="M460.2,242.6h2.9v3.9c1.6-2.3,3.9-4.3,7.5-4.3c4.7,0,9.3,3.7,9.3,10.2c0,6.4-4.6,10.2-9.3,10.2c-3.6,0-6-2-7.5-4.2v9.8
		h-2.9V242.6z M476.9,252.3c0-4.6-3.2-7.5-6.9-7.5c-3.6,0-7.1,3.1-7.1,7.6c0,4.5,3.4,7.5,7.1,7.5
		C473.8,259.9,476.9,257.1,476.9,252.3z"/>
	<path d="M490.1,245.2h-7v-2.6h16.9v2.6h-7v17h-2.9V245.2z"/>
	<path d="M505.2,242.6h2.9V258l11.6-15.4h2.8v19.5h-2.9v-15.4L508,262.1h-2.8V242.6z"/>
	<path d="M530,242.6h2.9v3.9c1.6-2.3,3.9-4.3,7.5-4.3c4.7,0,9.3,3.7,9.3,10.2c0,6.4-4.6,10.2-9.3,10.2c-3.6,0-6-2-7.5-4.2v9.8H530
		V242.6z M546.7,252.3c0-4.6-3.2-7.5-6.9-7.5c-3.6,0-7.1,3.1-7.1,7.6c0,4.5,3.4,7.5,7.1,7.5C543.6,259.9,546.7,257.1,546.7,252.3z"
		/>
	<path d="M556,242.6h2.9v7.3h5.2c4.2,0,7.7,1.7,7.7,5.9c0,3.9-2.9,6.3-7.4,6.3H556V242.6z M564.2,259.6c2.9,0,4.7-1.2,4.7-3.7
		c0-2.3-1.8-3.4-4.8-3.4h-5.2v7.1H564.2z M575.3,242.6h2.9v19.5h-2.9V242.6z"/>
	<path d="M597.9,242.6h9.4c3.9,0,6.4,1.9,6.4,4.9c0,2.6-1.6,3.8-3.2,4.5c2.3,0.6,4.3,2.1,4.3,4.8c0,3.3-2.8,5.3-7.1,5.3h-9.8V242.6z
		 M606.8,251c2.3,0,4-1.1,4-3.1c0-1.6-1.4-2.8-3.9-2.8h-6.1v5.9H606.8z M607.3,259.6c2.8,0,4.5-1.2,4.5-3.3c0-1.9-1.7-3-4.9-3h-6.1
		v6.3H607.3z"/>
	<path d="M632.6,248.9c0-7.3,5.5-13.7,13.5-13.7c8,0,13.4,6.3,13.4,13.7c0,7.3-5.5,13.7-13.5,13.7S632.6,256.3,632.6,248.9z
		 M656.4,248.9c0-6-4.4-10.9-10.4-10.9s-10.3,4.8-10.3,10.9c0,6,4.4,10.9,10.4,10.9S656.4,255,656.4,248.9z"/>
	<path d="M666.3,242.6h2.9v3.9c1.6-2.3,3.9-4.3,7.5-4.3c4.7,0,9.3,3.7,9.3,10.2c0,6.4-4.6,10.2-9.3,10.2c-3.6,0-6-2-7.5-4.2v9.8
		h-2.9V242.6z M683,252.3c0-4.6-3.2-7.5-6.9-7.5c-3.6,0-7.1,3.1-7.1,7.6c0,4.5,3.4,7.5,7.1,7.5C679.9,259.9,683,257.1,683,252.3z"/>
	<path d="M691.1,252.4c0-5.7,4-10.2,9.4-10.2c5.8,0,9.1,4.6,9.1,10.3c0,0.3,0,0.6,0,1H694c0.4,4.1,3.4,6.5,6.9,6.5
		c2.7,0,4.6-1.1,6.2-2.8l1.8,1.6c-2,2.2-4.3,3.7-8,3.7C695.5,262.6,691.1,258.5,691.1,252.4z M706.6,251.2c-0.3-3.5-2.4-6.6-6.2-6.6
		c-3.4,0-5.9,2.8-6.3,6.6H706.6z"/>
	<path d="M715.6,242.6h2.9v8.4h11.3v-8.4h2.9v19.5h-2.9v-8.5h-11.3v8.5h-2.9V242.6z"/>
	<path d="M739.3,251.6c0-6.3,0.5-12.3,7.3-14l10.9-2.6l0.6,2.5l-10.6,2.6c-4,1-5.4,3.2-5.7,6.9c1.4-2.3,3.9-4.2,8.1-4.2
		c5.1,0,9.4,4.3,9.4,9.7c0,5.4-4.2,10-10,10C743.3,262.6,739.3,258.4,739.3,251.6z M756.2,252.6c0-4.1-3.1-7.4-7-7.4
		c-4,0-6.9,3.3-6.9,7.4s3.1,7.4,7,7.4C753.3,260,756.2,256.7,756.2,252.6z"/>
	<path d="M763.5,267.3l1-2.3c0.9,0.5,1.8,0.7,3.1,0.7c1.7,0,2.8-0.9,4-3.7l-8.9-19.4h3.2l7.1,16.3l6.3-16.3h3.1l-8.2,20.2
		c-1.7,4-3.5,5.5-6.5,5.5C766.1,268.3,764.9,267.9,763.5,267.3z"/>
	<path d="M787.9,242.6h2.9v3.9c1.6-2.3,3.9-4.3,7.5-4.3c4.7,0,9.3,3.7,9.3,10.2c0,6.4-4.6,10.2-9.3,10.2c-3.6,0-6-2-7.5-4.2v9.8
		h-2.9V242.6z M804.6,252.3c0-4.6-3.2-7.5-6.9-7.5c-3.6,0-7.1,3.1-7.1,7.6c0,4.5,3.4,7.5,7.1,7.5
		C801.5,259.9,804.6,257.1,804.6,252.3z"/>
	<path d="M813.9,242.6h13.3v2.6h-10.3v17h-2.9V242.6z"/>
	<path d="M830.4,252.4c0-5.7,4-10.2,9.4-10.2c5.8,0,9.1,4.6,9.1,10.3c0,0.3,0,0.6,0,1h-15.5c0.4,4.1,3.4,6.5,6.9,6.5
		c2.7,0,4.6-1.1,6.2-2.8l1.8,1.6c-2,2.2-4.3,3.7-8,3.7C834.8,262.6,830.4,258.5,830.4,252.4z M845.9,251.2c-0.3-3.5-2.4-6.6-6.2-6.6
		c-3.4,0-5.9,2.8-6.3,6.6H845.9z"/>
</g>
<linearGradient id="SVGID_1_" gradientUnits="userSpaceOnUse" x1="197.277" y1="86.4547" x2="122.8812" y2="129.4072">
	<stop  offset="0" style="stop-color:#0088D1"/>
	<stop  offset="1" style="stop-color:#00457D"/>
</linearGradient>
<polygon class="st0" points="205,99.8 205,106.3 132,145.2 132,99.8 "/>
<linearGradient id="SVGID_2_" gradientUnits="userSpaceOnUse" x1="210.0574" y1="122.1393" x2="126.9623" y2="170.1142">
	<stop  offset="0" style="stop-color:#0088D1"/>
	<stop  offset="1" style="stop-color:#00457D"/>
</linearGradient>
<polygon class="st1" points="205,113.4 205,139.9 132,178.9 132,152.3 "/>
<linearGradient id="SVGID_3_" gradientUnits="userSpaceOnUse" x1="210.2717" y1="156.1172" x2="126.7393" y2="204.3447">
	<stop  offset="0" style="stop-color:#0088D1"/>
	<stop  offset="1" style="stop-color:#00457D"/>
</linearGradient>
<polygon class="st2" points="205,147 205,174.5 132,213.5 132,185.9 "/>
<linearGradient id="SVGID_4_" gradientUnits="userSpaceOnUse" x1="209.7066" y1="189.6885" x2="127.3131" y2="237.2584">
	<stop  offset="0" style="stop-color:#0088D1"/>
	<stop  offset="1" style="stop-color:#00457D"/>
</linearGradient>
<polygon class="st3" points="205,181.6 205,206.5 132,245.4 132,220.5 "/>
<linearGradient id="SVGID_5_" gradientUnits="userSpaceOnUse" x1="218.9373" y1="237.6433" x2="135.1096" y2="286.0413">
	<stop  offset="0" style="stop-color:#0088D1"/>
	<stop  offset="1" style="stop-color:#00457D"/>
</linearGradient>
<polygon class="st4" points="205,213.5 205,281.1 132,280.7 132,252.4 "/>
<rect x="87.7" y="150.1" class="st5" width="65.3" height="131"/>
<ellipse cx="186.3" cy="282.8" rx="186.3" ry="2.3"/>
<linearGradient id="SVGID_6_" gradientUnits="userSpaceOnUse" x1="280.6486" y1="35.2234" x2="149.6978" y2="262.0368">
	<stop  offset="0" style="stop-color:#004686"/>
	<stop  offset="1" style="stop-color:#002E66"/>
</linearGradient>
<rect x="182.7" y="16.2" class="st6" width="65" height="264.9"/>
<rect x="187.4" class="st7" width="55.6" height="10"/>
<rect x="47" y="114.5" class="st7" width="45.3" height="10"/>
<g>
	<linearGradient id="SVGID_7_" gradientUnits="userSpaceOnUse" x1="109.3226" y1="137.7623" x2="30.6889" y2="273.9599">
		<stop  offset="0" style="stop-color:#004686"/>
		<stop  offset="1" style="stop-color:#002E66"/>
	</linearGradient>
	<polygon class="st8" points="92.3,168.3 92.3,173.6 97,173.6 97,205.7 92.3,205.7 92.3,211.3 97,211.3 97,243.4 92.3,243.4 
		92.3,249 97,249 97,281.1 43,281.1 43,249 47,249 47,243.4 43,243.4 43,211.3 47,211.3 47,205.7 43,205.7 43,173.6 47,173.6 
		47,168.3 43,168.3 43,130.7 97,130.7 97,168.3 	"/>
</g>
<g>
	<polygon points="107.1,149.7 106.8,107.8 106.6,65.9 106.6,65.8 106.6,65.8 113.9,32.8 114.4,30.7 114.9,32.8 122.7,65.8 
		122.8,65.8 122.8,65.9 122.6,107.8 122.3,149.7 122,107.8 121.9,65.9 121.9,66 113.9,33 114.9,33 107.5,66 107.5,65.9 107.4,107.8 
			"/>
</g>
<g>
	<polygon points="18.5,83.1 26,74.9 26.4,74.5 26.7,74.9 34.2,83 26,75.6 26.7,75.6 	"/>
</g>
<g>
	<polygon points="34.2,83.1 41.7,74.9 42.1,74.5 42.4,74.9 49.9,83 41.7,75.6 42.4,75.6 	"/>
</g>
<g>
	<polygon points="49.9,83.1 57.4,74.9 57.7,74.5 58.1,74.9 65.6,83 57.4,75.6 58.1,75.6 	"/>
</g>
<g>
	<polygon points="65.6,83.1 73.1,74.9 73.4,74.5 73.8,74.9 81.2,83 73.1,75.6 73.8,75.6 	"/>
</g>
<g>
	<polygon points="81.2,83.1 88.8,74.9 89.1,74.5 89.5,74.9 96.9,83 88.8,75.6 89.5,75.6 	"/>
</g>
<g>
	<path d="M96.9,83.1c1-1.6,2.3-3,3.6-4.3c1.3-1.3,2.7-2.6,4.3-3.6c-1,1.6-2.3,3-3.6,4.3C99.9,80.8,98.5,82,96.9,83.1z"/>
</g>
<g>
	<polygon points="211.6,83.1 203.4,75.6 204.1,75.6 195.9,83 203.4,74.9 203.7,74.5 204.1,74.9 	"/>
</g>
<g>
	<polygon points="227.3,83.1 219.1,75.6 219.8,75.6 211.6,83 219.1,74.9 219.4,74.5 219.8,74.9 	"/>
</g>
<g>
	<polygon points="195.9,83.1 187.7,75.6 188.4,75.6 180.2,83 187.7,74.9 188.1,74.5 188.4,74.9 	"/>
</g>
<g>
	<polygon points="258.7,83.1 250.5,75.6 251.2,75.6 243,83 250.5,74.9 250.8,74.5 251.2,74.9 	"/>
</g>
<g>
	<polygon points="274.4,83.1 266.1,75.6 266.8,75.6 258.7,83 266.1,74.9 266.5,74.5 266.8,74.9 	"/>
</g>
<g>
	<polygon points="290.1,83.1 281.8,75.6 282.5,75.6 274.4,83 281.8,74.9 282.2,74.5 282.5,74.9 	"/>
</g>
<g>
	<polygon points="243,83.1 234.8,75.6 235.5,75.6 227.3,83 234.8,74.9 235.1,74.5 235.5,74.9 	"/>
</g>
<g>
	<polygon points="180.2,83.1 172,75.6 172.7,75.6 164.6,83 172,74.9 172.4,74.5 172.7,74.9 	"/>
</g>
<g>
	<polygon points="164.6,83.1 156.3,75.6 157,75.6 148.9,83 156.3,74.9 156.7,74.5 157,74.9 	"/>
</g>
<g>
	<polygon points="148.9,83.1 140.6,75.6 141.3,75.6 133.2,83 140.6,74.9 141,74.5 141.3,74.9 	"/>
</g>
<g>
	<path d="M133.2,83.1c-1.6-1-3-2.3-4.3-3.6c-1.3-1.3-2.6-2.7-3.6-4.3c1.6,1,3,2.3,4.3,3.6C130.9,80.1,132.1,81.5,133.2,83.1z"/>
</g>
<g>
	<path d="M28.9,73.3c6.3-0.1,12.5-0.1,18.8-0.1c6.3,0,12.5,0.1,18.8,0.1c6.3,0.1,12.5,0.2,18.8,0.4l9.4,0.3c3.1,0.1,6.3,0.2,9.4,0.4
		c-3.1,0.1-6.3,0.1-9.4,0.1l-9.4,0c-6.3,0-12.5-0.1-18.8-0.1c-6.3-0.1-12.5-0.2-18.8-0.4C41.5,73.7,35.2,73.6,28.9,73.3z"/>
</g>
<g>
	<path d="M8.6,83.5c8-0.1,15.9-0.1,23.9-0.1l23.9,0.1l23.9,0.4l11.9,0.3l11.9,0.4l-11.9,0.1l-11.9,0l-23.9-0.1l-23.9-0.4
		C24.5,84,16.6,83.8,8.6,83.5z"/>
</g>
<g>
	<path d="M40.4,72.5l18.5-10.2l18.5-10.2l37.1-20.2l0.2-0.1l0.2,0.1c16.9,6.7,33.8,13.5,50.7,20.2l25.3,10.2l25.3,10.3l-25.5-9.8
		l-25.4-9.9c-16.9-6.7-33.9-13.3-50.8-20.1l0.4,0l-37.2,20l-18.6,9.9L40.4,72.5z"/>
</g>
<g>
	<polygon points="124.6,73.8 144,73.5 163.5,73.4 202.5,73.3 241.5,73.4 260.9,73.5 280.4,73.8 260.9,74 241.5,74.2 202.5,74.3 
		163.5,74.2 144,74 	"/>
</g>
<g>
	<polygon points="124.6,84 146.2,83.8 167.8,83.6 210.9,83.5 254.1,83.6 275.7,83.8 297.3,84 275.7,84.3 254.1,84.4 210.9,84.5 
		167.8,84.4 146.2,84.3 	"/>
</g>
<g>
	<path d="M111.2,149.3l9.2-9.5l0,0.3l-12.6-12.1l-0.3-0.2l0.3-0.2l12.4-12.2l0,0.6l-12.5-11.7l-0.4-0.3l0.4-0.4
		c4.1-4.2,8.3-8.3,12.5-12.5l0,0.7L107.8,80l-0.3-0.3l0.3-0.3l12.6-12.9l0,0.4l-9.8-10.6l-0.1-0.1l0.1-0.1l5.8-9.9l-5.5,10.1l0-0.2
		l10,10.4l0.2,0.2l-0.2,0.2l-12.4,13.1l0-0.6l12.5,11.6l0.4,0.3l-0.3,0.3c-4.2,4.2-8.3,8.4-12.5,12.5l0-0.7l12.5,11.8l0.3,0.3
		l-0.3,0.3l-12.6,12.1l0-0.5l12.4,12.4l0.1,0.1l-0.1,0.1L111.2,149.3z"/>
</g>
<g>
	<path d="M273.3,85.5c3-0.4,6-0.5,9-0.5c3,0,6,0.1,9,0.5c-3,0.4-6,0.5-9,0.5C279.2,85.9,276.2,85.8,273.3,85.5z"/>
</g>
<g>
	<path d="M279.5,96.8c-0.4,0.4-0.6,0.9-0.5,1.4c0,0.5,0.2,1,0.5,1.4c0.6,0.8,1.5,1.3,2.3,1.2c1.7-0.2,3-1.7,2.7-3.8
		c-0.1-1-0.7-1.8-1.4-2.6c-0.7-0.8-1.4-1.8-1.6-2.9c-0.2-1.1,0-2.2-0.1-3.3l0-3.2l0.2,3.2c0.1,1.1,0.1,2.2,0.3,3.2
		c0.2,1,0.9,1.8,1.7,2.5c0.8,0.7,1.6,1.7,1.8,2.9c0.1,0.3,0.1,0.6,0.2,0.9c0,0.3,0.1,0.6,0.1,0.9c0,0.6-0.2,1.3-0.5,1.9
		c-0.7,1.2-2.1,1.8-3.4,1.6c-0.6,0-1.4-0.3-1.8-0.7c-0.5-0.4-0.8-0.9-1.1-1.5c-0.2-0.5-0.3-1.1-0.3-1.7
		C278.8,97.6,279.1,97.1,279.5,96.8z"/>
</g>
<circle cx="281.7" cy="89" r="1.3"/>
<rect x="241.4" y="106.3" class="st9" width="80.6" height="26.2"/>
<linearGradient id="SVGID_8_" gradientUnits="userSpaceOnUse" x1="284.5355" y1="150.9797" x2="216.5703" y2="268.699">
	<stop  offset="0" style="stop-color:#0091E8"/>
	<stop  offset="1" style="stop-color:#002E66"/>
</linearGradient>
<rect x="237.7" y="138.8" class="st10" width="25.8" height="142.1"/>
<linearGradient id="SVGID_9_" gradientUnits="userSpaceOnUse" x1="316.1409" y1="150.9797" x2="248.1756" y2="268.699">
	<stop  offset="0" style="stop-color:#0091E8"/>
	<stop  offset="1" style="stop-color:#002E66"/>
</linearGradient>
<rect x="269.3" y="138.8" class="st11" width="25.8" height="142.1"/>
<linearGradient id="SVGID_10_" gradientUnits="userSpaceOnUse" x1="347.7522" y1="150.9797" x2="279.7869" y2="268.699">
	<stop  offset="0" style="stop-color:#0091E8"/>
	<stop  offset="1" style="stop-color:#002E66"/>
</linearGradient>
<rect x="300.9" y="138.8" class="st12" width="25.8" height="142.1"/>
<g>
	<path d="M242.5,105.4c2.9-0.8,5.9-1.4,8.8-2.1c3-0.7,5.9-1.2,8.9-1.8c3-0.6,5.9-1.1,8.9-1.6l4.5-0.7c1.5-0.2,3-0.4,4.5-0.6
		c-1.5,0.4-2.9,0.7-4.4,1.1l-4.4,1c-3,0.7-5.9,1.2-8.9,1.8c-3,0.6-5.9,1.1-8.9,1.6C248.5,104.6,245.5,105.1,242.5,105.4z"/>
</g>
<g>
	<path d="M321.4,105.4c-3-0.4-6-0.8-9-1.3c-3-0.5-6-1-8.9-1.6c-3-0.6-5.9-1.2-8.9-1.8l-4.4-1c-1.5-0.4-2.9-0.7-4.4-1.1
		c1.5,0.2,3,0.4,4.5,0.6l4.5,0.7c3,0.5,6,1,8.9,1.6c3,0.6,5.9,1.2,8.9,1.8C315.5,104,318.5,104.7,321.4,105.4z"/>
</g>
</svg>
