<?xml version="1.0" encoding="utf-8"?>
<!-- Generator: Adobe Illustrator 21.1.0, SVG Export Plug-In . SVG Version: 6.00 Build 0)  -->
<svg version="1.1" id="Слой_1" xmlns="http://www.w3.org/2000/svg" xmlns:xlink="http://www.w3.org/1999/xlink" x="0px" y="0px"
	 viewBox="0 0 90.4 90.8" style="enable-background:new 0 0 90.4 90.8;" xml:space="preserve">
<path d="M78.9,65.4c0.9-3.1,1.4-6.4,1.4-9.8c0-3.4-0.5-6.7-1.4-9.8c4.8,0.7,8.5,4.8,8.5,9.8C87.4,60.6,83.7,64.7,78.9,65.4z
	 M45.1,87.8c-17.8,0-32.2-14.4-32.2-32.2s14.4-32.2,32.2-32.2c17.8,0,32.2,14.4,32.2,32.2S62.8,87.8,45.1,87.8z M3,55.6
	c0-4.9,3.6-8.9,8.2-9.7c-0.9,3.1-1.4,6.4-1.4,9.7c0,3.4,0.5,6.6,1.4,9.7C6.6,64.5,3,60.5,3,55.6z M90.4,55.6c0-7-5.6-12.7-12.5-12.9
	c-5.1-12.9-17.6-22.1-32.3-22.3c1.2-1.5,2.3-3.3,2.4-5.1c0.1-3.8-2.3-5.1-4-6.1c-1.6-0.9-2.3-1.4-2.3-2.9c0-3,2.8-3.2,3.4-3.3
	c0.8,0,1.5-0.7,1.5-1.5c0-0.8-0.7-1.5-1.5-1.5c-2.2,0.1-6.3,1.5-6.3,6.3c0,3.3,2.2,4.6,3.8,5.5c1.7,1,2.5,1.6,2.5,3.5
	c0,1.4-2.1,3.9-3.7,5.3C28,22,17,30.8,12.3,42.7C5.5,43,0,48.7,0,55.6c0,6.9,5.5,12.6,12.3,12.9c5.1,13.1,17.9,22.3,32.8,22.3
	c14.9,0,27.6-9.3,32.8-22.3C84.8,68.3,90.4,62.6,90.4,55.6z"/>
<path d="M35.8,51.8c0,0.8,0.7,1.5,1.5,1.5s1.5-0.7,1.5-1.5c0-3.8-3.1-7-7-7c-3.8,0-7,3.1-7,7c0,0.8,0.7,1.5,1.5,1.5s1.5-0.7,1.5-1.5
	c0-2.2,1.8-4,4-4C34.1,47.8,35.8,49.6,35.8,51.8z"/>
<path d="M57.9,44.8c-3.8,0-7,3.1-7,7c0,0.8,0.7,1.5,1.5,1.5s1.5-0.7,1.5-1.5c0-2.2,1.8-4,4-4s4,1.8,4,4c0,0.8,0.7,1.5,1.5,1.5
	s1.5-0.7,1.5-1.5C64.9,47.9,61.7,44.8,57.9,44.8z"/>
<path d="M59.1,61.7c-0.8,0-1.5,0.7-1.5,1.5c0,6.9-5.6,12.5-12.5,12.5c-6.9,0-12.5-5.6-12.5-12.5c0-0.8-0.7-1.5-1.5-1.5
	c-0.8,0-1.5,0.7-1.5,1.5c0,8.6,7,15.5,15.5,15.5c8.6,0,15.5-7,15.5-15.5C60.6,62.3,59.9,61.7,59.1,61.7z"/>
</svg>
