<?xml version="1.0" encoding="utf-8"?>
<!-- Generator: Adobe Illustrator 21.1.0, SVG Export Plug-In . SVG Version: 6.00 Build 0)  -->
<svg version="1.1" id="Слой_1" xmlns="http://www.w3.org/2000/svg" xmlns:xlink="http://www.w3.org/1999/xlink" x="0px" y="0px"
	 viewBox="0 0 88.1 82.3" style="enable-background:new 0 0 88.1 82.3;" xml:space="preserve">
<path d="M51.6,79.3V55c1.4,0.6,2.9,0.9,4.5,0.9c2.2,0,4.3-0.6,6.2-1.8c1.9,1.2,4,1.8,6.2,1.8c2.1,0,4.2-0.6,6-1.7
	c1.8,1.1,3.9,1.7,6,1.7c1.6,0,3.2-0.3,4.7-1v24.5H51.6z M7.3,18.1h41.3v61.2H7.3V18.1z M3,10.1h4.4h41.4h4.4v5h-3.1H5.8H3V10.1z
	 M8.9,3h38.4v4.1H8.9V3z M55.2,41.8h5.5v9.6c-1.4,0.9-3,1.4-4.7,1.4c-1.5,0-2.9-0.4-4.2-1.1L55.2,41.8z M63.8,41.8h9.2v9.7
	c-1.4,0.9-2.9,1.3-4.5,1.3c-1.7,0-3.3-0.5-4.7-1.4V41.8z M84.8,51.7c-1.3,0.8-2.8,1.2-4.3,1.2c-1.6,0-3.1-0.5-4.5-1.3v-9.7h5.5
	L84.8,51.7z M84,39.8c-0.2-0.6-0.8-1-1.4-1H54.2c-0.6,0-1.2,0.4-1.4,1l-1.1,3.4V18.1h3.1c0.8,0,1.5-0.7,1.5-1.5v-8
	c0-0.8-0.7-1.5-1.5-1.5h-4.4V1.5c0-0.8-0.7-1.5-1.5-1.5H7.4C6.6,0,5.9,0.7,5.9,1.5v5.6H1.5C0.7,7.1,0,7.8,0,8.6v8
	c0,0.8,0.7,1.5,1.5,1.5h2.8v62.7c0,0.8,0.7,1.5,1.5,1.5h44.3h36.5c0.8,0,1.5-0.7,1.5-1.5V52.7C88.3,52.2,84,39.8,84,39.8z"/>
<path d="M33.2,57.8H23V28.9h10.2V57.8z M34.7,25.9H21.5c-0.8,0-1.5,0.7-1.5,1.5v31.9c0,0.8,0.7,1.5,1.5,1.5h13.2
	c0.8,0,1.5-0.7,1.5-1.5V27.4C36.2,26.6,35.5,25.9,34.7,25.9z"/>
</svg>
