<?xml version="1.0" encoding="utf-8"?>
<!-- Generator: Adobe Illustrator 21.1.0, SVG Export Plug-In . SVG Version: 6.00 Build 0)  -->
<svg version="1.1" id="Слой_1" xmlns="http://www.w3.org/2000/svg" xmlns:xlink="http://www.w3.org/1999/xlink" x="0px" y="0px"
	 viewBox="0 0 75.9 87.2" style="enable-background:new 0 0 75.9 87.2;" xml:space="preserve">
<path d="M3,84.2c0.5-12.7,7.9-23.6,18.4-29.3l-0.2,0.3l17.2,11.9l16.2-11.9l-0.2-0.3c10.5,5.7,17.8,16.6,18.4,29.3L3,84.2z
	 M51.8,53.6l-13.3,9.8l-14.3-9.8c4.2-1.8,8.9-2.8,13.8-2.8C42.9,50.8,47.5,51.8,51.8,53.6z M38,47.8c-20.9,0-38,17-38,38v1.5h75.9
	v-1.5C75.9,64.8,58.9,47.8,38,47.8z"/>
<path d="M18.5,21.4c5.4-0.5,8.1-1.6,12.1-3.3l0.5-0.2c2-0.8,3.5-1.8,4.9-2.7c2.2-1.4,4.1-2.6,7.1-2.8c1.1-0.1,4.9,2.2,7.2,3.5
	c2.3,1.4,4.3,2.5,5.6,2.9c0.2,1,0.3,2,0.3,3c0,10.4-8.4,18.8-18.8,18.8s-18.8-8.4-18.8-18.8C18.5,21.7,18.5,21.5,18.5,21.4z M37.3,3
	c8,0,14.8,5,17.5,12.1c-0.9-0.5-2-1.1-3-1.8c-4.2-2.5-7.1-4.1-9-3.9c-3.8,0.3-6,1.8-8.5,3.3c-1.3,0.8-2.7,1.7-4.4,2.4l-0.5,0.2
	c-3.7,1.5-6,2.5-10.6,3C20.5,9.6,28.2,3,37.3,3z M37.3,43.6c12,0,21.8-9.8,21.8-21.8C59.1,9.8,49.4,0,37.3,0
	c-12,0-21.8,9.8-21.8,21.8C15.5,33.8,25.3,43.6,37.3,43.6z"/>
</svg>
