<?xml version="1.0" encoding="utf-8"?>
<!-- Generator: Adobe Illustrator 21.1.0, SVG Export Plug-In . SVG Version: 6.00 Build 0)  -->
<svg version="1.1" id="Слой_1" xmlns="http://www.w3.org/2000/svg" xmlns:xlink="http://www.w3.org/1999/xlink" x="0px" y="0px"
	 viewBox="0 0 74.1 66.8" style="enable-background:new 0 0 74.1 66.8;" xml:space="preserve">
<path d="M69,55.5H33.3l0-4.7H69V55.5z M49.4,63.8H3V3h46.4v8c-4.6,0.8-8.2,4.8-8.2,9.7c0,2.4,0.8,4.6,2.4,6.4
	c-0.1,1.2-0.5,3.3-1.1,4.7c-2.6,6-7.5,5.7-7.7,5.7c0,0-0.1,0-0.1,0c-3.7,0-6.7,3-6.7,6.7v5.1c0,0.8,0.7,1.5,1.5,1.5h0.8l0,6.2
	c0,0.8,0.7,1.5,1.5,1.5h17.6V63.8z M57.9,20.6c0,1.8-0.7,3.6-2,4.9c-0.3,0.3-0.5,0.7-0.4,1.1c0,0.1,0.1,3.3,1.3,6.2
	c3.3,7.7,10.2,7.7,10.7,7.7c2,0,3.7,1.7,3.7,3.7v3.6h-0.4c-0.1,0-0.2,0-0.3,0c-0.1,0-0.2,0-0.3,0H31v-3.6c0-2,1.6-3.7,3.7-3.7
	c0.8,0,7.2,0.1,10.6-7.5c1.2-2.6,1.4-6.2,1.4-6.4c0-0.4-0.1-0.8-0.4-1.2c-1.3-1.3-2-3-2-4.8c0-3.8,3.1-6.8,6.8-6.8
	C54.8,13.8,57.9,16.9,57.9,20.6z M67.5,37.5C67.4,37.5,67.4,37.5,67.5,37.5c-0.1,0-5.4,0.1-8-5.9c-0.7-1.7-0.9-3.5-1-4.5
	c1.6-1.8,2.4-4.1,2.4-6.5c0-5-3.7-9.1-8.5-9.7V1.5c0-0.8-0.7-1.5-1.5-1.5H1.5C0.7,0,0,0.7,0,1.5v63.8c0,0.8,0.7,1.5,1.5,1.5h49.4
	c0.8,0,1.5-0.7,1.5-1.5v-6.9h18.1c0.8,0,1.5-0.7,1.5-1.5v-6.2h0.7c0.8,0,1.5-0.7,1.5-1.5v-5.1C74.1,40.5,71.1,37.5,67.5,37.5z"/>
<path d="M25,13.5H8.4c-0.8,0-1.5,0.7-1.5,1.5c0,0.8,0.7,1.5,1.5,1.5H25c0.8,0,1.5-0.7,1.5-1.5C26.5,14.2,25.8,13.5,25,13.5z"/>
<path d="M25,21H8.4c-0.8,0-1.5,0.7-1.5,1.5S7.5,24,8.4,24H25c0.8,0,1.5-0.7,1.5-1.5S25.8,21,25,21z"/>
</svg>
