<?xml version="1.0" encoding="utf-8"?>
<!-- Generator: Adobe Illustrator 21.1.0, SVG Export Plug-In . SVG Version: 6.00 Build 0)  -->
<svg version="1.1" id="Слой_1" xmlns="http://www.w3.org/2000/svg" xmlns:xlink="http://www.w3.org/1999/xlink" x="0px" y="0px"
	 viewBox="0 0 60.7 85.4" style="enable-background:new 0 0 60.7 85.4;" xml:space="preserve">
<path d="M57.7,75.8c0,3.7-3,6.6-6.7,6.6H9.7c-3.7,0-6.7-3-6.7-6.6V9.6C3,5.9,6,3,9.7,3H51c3.7,0,6.7,3,6.7,6.6V75.8z M51,0H9.7
	C4.4,0,0,4.3,0,9.6v66.2c0,5.3,4.3,9.6,9.7,9.6H51c5.3,0,9.7-4.3,9.7-9.6V9.6C60.7,4.3,56.4,0,51,0z"/>
<path d="M42.6,9.5H17.9c-0.8,0-1.5,0.7-1.5,1.5c0,0.8,0.7,1.5,1.5,1.5h24.7c0.8,0,1.5-0.7,1.5-1.5C44.1,10.2,43.4,9.5,42.6,9.5z"/>
<path d="M30.4,73.8c-0.5,0-1-0.2-1.4-0.6s-0.6-0.9-0.6-1.4c0-1.1,0.9-2,2-2s2,0.9,2,2C32.4,72.9,31.5,73.8,30.4,73.8z M30.3,66.8
	c-2.8,0-5,2.3-5,5c0,1.3,0.5,2.6,1.5,3.5c0.9,0.9,2.2,1.4,3.5,1.4c2.8,0,5-2.3,5-5S33.1,66.8,30.3,66.8z"/>
</svg>
