<?xml version="1.0" encoding="utf-8"?>
<!-- Generator: Adobe Illustrator 21.1.0, SVG Export Plug-In . SVG Version: 6.00 Build 0)  -->
<svg version="1.1" id="Слой_1" xmlns="http://www.w3.org/2000/svg" xmlns:xlink="http://www.w3.org/1999/xlink" x="0px" y="0px"
	 viewBox="0 0 53.7 89.3" style="enable-background:new 0 0 53.7 89.3;" xml:space="preserve">
<path d="M26.8,86.3C12.8,86.3,3,81.4,3,77c0-4,7.4-7.8,17.3-9l4.9,8.2c0.3,0.4,0.8,0.7,1.3,0.7c0,0,0,0,0,0c0.5,0,1-0.3,1.3-0.7
	l5.1-8.2c10.1,1.1,17.8,5,17.8,9C50.7,81.4,40.9,86.3,26.8,86.3z M6.7,39.4c-2.4-3.8-3.7-8.2-3.7-12.6C3.1,13.7,13.8,3,26.9,3
	C40,3,50.7,13.7,50.7,26.8c0,4.5-1.3,8.8-3.7,12.6c0,0.1-0.1,0.2-0.1,0.2L31,65.1c-0.2,0.4-0.3,0.4-0.6,0.9l-4,6.4L6.9,39.7
	C6.8,39.6,6.8,39.5,6.7,39.4z M34.6,65.1l15-24.1c0-0.1,0.1-0.2,0.1-0.2c2.6-4.2,4-9,4-14C53.7,12,41.6,0,26.9,0
	C12.1,0,0.1,12,0.1,26.8c0,4.9,1.4,9.8,4,14c0,0.1,0.1,0.1,0.1,0.2l14.5,24.2C7.4,66.8,0,71.4,0,77c0,6.9,11.8,12.4,26.8,12.4
	S53.7,83.9,53.7,77C53.7,71.3,45.9,66.6,34.6,65.1z"/>
<path d="M20.1,26.8c0-3.7,3-6.7,6.7-6.7s6.7,3,6.7,6.7s-3,6.7-6.7,6.7S20.1,30.5,20.1,26.8z M36.6,26.8c0-5.4-4.4-9.7-9.7-9.7
	s-9.7,4.4-9.7,9.7c0,5.4,4.4,9.7,9.7,9.7S36.6,32.2,36.6,26.8z"/>
</svg>
