<?xml version="1.0" encoding="utf-8"?>
<!-- Generator: Adobe Illustrator 21.1.0, SVG Export Plug-In . SVG Version: 6.00 Build 0)  -->
<svg version="1.1" id="Слой_1" xmlns="http://www.w3.org/2000/svg" xmlns:xlink="http://www.w3.org/1999/xlink" x="0px" y="0px"
	 viewBox="0 0 83.2 83.2" style="enable-background:new 0 0 83.2 83.2;" xml:space="preserve">
<path d="M41.6,71.7c-16.6,0-30-13.5-30-30s13.5-30,30-30s30,13.5,30,30S58.2,71.7,41.6,71.7z M41.6,8C23.1,8,8,23.1,8,41.6
	c0,18.6,15.1,33.6,33.7,33.6c18.6,0,33.7-15.1,33.7-33.6C75.3,23.1,60.2,8,41.6,8z"/>
<path d="M50.1,36.2l-7.3,7.3V17.6c0-1-0.8-1.8-1.8-1.8s-1.8,0.8-1.8,1.8v30.2c0,0.1,0,0.2,0,0.4c0,0.1,0,0.1,0,0.1
	c0,0.1,0,0.1,0.1,0.2c0,0.1,0.1,0.1,0.1,0.2c0,0,0,0.1,0.1,0.1c0.1,0.2,0.3,0.4,0.5,0.5c0,0,0.1,0,0.1,0.1c0.1,0,0.1,0.1,0.2,0.1
	c0.1,0,0.1,0,0.2,0.1c0.1,0,0.1,0,0.2,0.1c0.1,0,0.2,0,0.4,0c0.1,0,0.2,0,0.4,0c0.1,0,0.1,0,0.2-0.1c0.1,0,0.1,0,0.2-0.1
	c0.1,0,0.1-0.1,0.2-0.1c0,0,0.1,0,0.1-0.1c0.1-0.1,0.2-0.1,0.3-0.2l10.3-10.3c0.7-0.7,0.7-1.8,0-2.6C52,35.4,50.8,35.4,50.1,36.2z"
	/>
<path d="M41.6,79.6c-21,0-38-17.1-38-38s17.1-38,38-38s38,17.1,38,38S62.6,79.6,41.6,79.6z M41.6,0C18.7,0,0,18.7,0,41.6
	c0,23,18.7,41.6,41.6,41.6s41.6-18.7,41.6-41.6C83.2,18.7,64.6,0,41.6,0z"/>
</svg>
