<?xml version="1.0" encoding="utf-8"?>
<!-- Generator: Adobe Illustrator 22.1.0, SVG Export Plug-In . SVG Version: 6.00 Build 0)  -->
<svg version="1.1" id="レイヤー_1" xmlns="http://www.w3.org/2000/svg" xmlns:xlink="http://www.w3.org/1999/xlink" x="0px"
	 y="0px" viewBox="0 0 113.4 104.1" style="enable-background:new 0 0 113.4 104.1;" xml:space="preserve">
<style type="text/css">
	.st0{fill:#FFFFFF;}
	.st1{fill-rule:evenodd;clip-rule:evenodd;fill:url(#in_sf_base_1_);}
	.st2{fill-rule:evenodd;clip-rule:evenodd;fill:url(#in_sf_base_2_);}
	.st3{fill-rule:evenodd;clip-rule:evenodd;fill:url(#SVGID_1_);}
	.st4{fill-rule:evenodd;clip-rule:evenodd;fill:url(#out_sf_base_1_);}
	.st5{opacity:0.74;fill-rule:evenodd;clip-rule:evenodd;fill:url(#SVGID_2_);}
	.st6{fill-rule:evenodd;clip-rule:evenodd;fill:url(#in_up_right_1_);}
	.st7{fill-rule:evenodd;clip-rule:evenodd;fill:url(#in_up_right_2_);}
	.st8{fill-rule:evenodd;clip-rule:evenodd;fill:url(#SVGID_3_);}
	.st9{opacity:0.9;fill-rule:evenodd;clip-rule:evenodd;fill:url(#SVGID_4_);}
	.st10{fill:#241F1F;}
	.st11{fill:#717071;}
	.st12{fill:#5B5B5B;}
	.st13{opacity:0.2;fill-rule:evenodd;clip-rule:evenodd;fill:url(#SVGID_5_);}
	.st14{opacity:0.2;fill-rule:evenodd;clip-rule:evenodd;fill:url(#SVGID_6_);fill-opacity:0.42;}
	.st15{opacity:0.5;fill:#C4C4C4;}
	.st16{fill:none;}
	.st17{fill-rule:evenodd;clip-rule:evenodd;fill:url(#SVGID_7_);}
	.st18{opacity:0.9;fill-rule:evenodd;clip-rule:evenodd;fill:url(#SVGID_8_);}
	.st19{fill:url(#wing_low_sf_1_);}
	.st20{fill-rule:evenodd;clip-rule:evenodd;fill:url(#SVGID_9_);}
	.st21{fill-rule:evenodd;clip-rule:evenodd;fill:url(#SVGID_10_);}
	.st22{fill-rule:evenodd;clip-rule:evenodd;fill:url(#SVGID_11_);}
	.st23{fill-rule:evenodd;clip-rule:evenodd;fill:url(#SVGID_12_);}
	.st24{fill-rule:evenodd;clip-rule:evenodd;fill:#444243;}
	.st25{fill:#C4C4C4;}
	.st26{fill:url(#SVGID_13_);fill-opacity:0.8;}
	.st27{fill:#444243;}
	.st28{fill-rule:evenodd;clip-rule:evenodd;fill:url(#SVGID_14_);}
	.st29{fill-rule:evenodd;clip-rule:evenodd;fill:#D9DADA;}
	.st30{fill-rule:evenodd;clip-rule:evenodd;fill:url(#SVGID_15_);}
	.st31{fill-rule:evenodd;clip-rule:evenodd;fill:url(#SVGID_16_);}
	.st32{fill-rule:evenodd;clip-rule:evenodd;fill:url(#SVGID_17_);}
	.st33{fill-rule:evenodd;clip-rule:evenodd;fill:url(#SVGID_18_);}
	.st34{fill:#4B6698;}
	.st35{fill:url(#SVGID_19_);}
	.st36{fill:url(#SVGID_20_);}
</style>
<g>
	<g>
		<g>
			<path class="st0" d="M56.7,76.5c-15.6,0-28.5-3.6-36.1-10C13.1,60.2,9.3,50.9,8.8,38.1C8.4,26.3,13.3,15,21.5,8.7
				c7.8-6,18.9-8.7,35-8.7c16.6,0,27.8,2.8,35.3,8.8c8,6.4,12.9,17.9,12.6,29.4C104,51,100.2,60,92.4,66.4
				C84.6,72.9,71.9,76.5,56.7,76.5z M56.7,5.5c-4.4,0-8.6,0.4-11.8,1c-5.5,1.1-8.3,2.3-12.3,4.9c-10.1,6.8-12.2,18.1-12.2,26.4
				c0,12.6,4.2,21.8,12.5,27.3C38,68.5,45.4,70,56.7,70c10.5,0,17-1.4,23.1-4.9c6-3.4,13.1-11,13.1-27.4c0-12-4.1-20.9-12.2-26.3
				c-3.8-2.5-6.2-3.7-12.3-4.9C65.2,5.8,61.1,5.5,56.7,5.5L56.7,5.5z"/>
			<path class="st0" d="M56.8,55.5c-0.7,0-0.9-0.5-1.6-2c-0.3-0.7-0.8-1.7-1.5-3.1c-2.8-5.6-7.7-10.2-13.5-12.5
				c-1.6-0.7-3.9-1.3-6.1-2l0,0c-4.5-1.3-9.5-2.8-13.3-5.1l-0.1-2.4v-6.1l4.1-2.7c0.3,0.2,2.2,1.4,5,2.7c1.3,0.6,2.6,1.2,4.1,1.8
				l0.1,0c4.8,2.1,10.3,4.5,12.5,6.1c3.7,2.7,7.2,6.6,9.5,10.7c0.3,0.6,0.6,0.8,0.8,0.8c0.1,0,0.4-0.2,0.8-0.9
				c2.3-4.5,6.5-8.7,9.5-10.8c3-2,8-4,12.4-5.8l0,0c2-0.8,4-1.6,5.4-2.3c2.3-1.1,3.8-2.1,3.9-2.2l3.9,2.4v6.2l-0.1,2.3
				c-2.6,1.5-4.2,2.4-10.5,4.1l-0.3,0.1c-11.6,2.9-19,8.2-22,15.6c-0.4,0.9-0.6,1.7-0.9,2.3l0,0.1C58.1,54.6,57.8,55.5,56.8,55.5z"
				/>
		</g>
		<g>
			<linearGradient id="in_sf_base_1_" gradientUnits="userSpaceOnUse" x1="47.3008" y1="1.951" x2="66.4408" y2="73.3826">
				<stop  offset="0.2121" style="stop-color:#241F1F"/>
				<stop  offset="0.2712" style="stop-color:#282324"/>
				<stop  offset="0.3767" style="stop-color:#343132"/>
				<stop  offset="0.5153" style="stop-color:#4B4A4B"/>
				<stop  offset="0.5939" style="stop-color:#5B5B5B"/>
				<stop  offset="0.7847" style="stop-color:#959191"/>
				<stop  offset="1" style="stop-color:#FFFFFF"/>
			</linearGradient>
			<path id="in_sf_base_8_" class="st1" d="M45.8,69.5c-10-1.4-25.5-6.7-25.5-32.1c0-14.5,6.5-31.9,36.4-31.9
				c27,0,36.3,14.5,36.3,31.9c0,23.9-13.9,30.2-25.3,32.1C62.1,70.3,52.3,70.4,45.8,69.5z M99.5,37.5c0-19.4-9.1-35.4-42.7-35.4
				c-35.3,0-42.7,19.4-42.7,35.5c0,26.8,18,33.4,31.1,34.9c6.6,0.8,16.2,0.7,22.4,0C80.6,70.9,99.5,64.5,99.5,37.5z"/>
			<linearGradient id="in_sf_base_2_" gradientUnits="userSpaceOnUse" x1="47.3008" y1="1.951" x2="66.4408" y2="73.3826">
				<stop  offset="0" style="stop-color:#241F1F"/>
				<stop  offset="0.5636" style="stop-color:#444243"/>
				<stop  offset="0.6097" style="stop-color:#4F4D4E"/>
				<stop  offset="0.6671" style="stop-color:#585757"/>
				<stop  offset="0.7091" style="stop-color:#5B5B5B"/>
				<stop  offset="0.8364" style="stop-color:#FFFFFF"/>
				<stop  offset="0.8909" style="stop-color:#FFFFFF"/>
				<stop  offset="1" style="stop-color:#9EA1A9"/>
			</linearGradient>
			<path id="in_sf_base_7_" class="st2" d="M45.8,69.5c-10-1.4-25.5-6.7-25.5-32.1c0-14.5,6.5-31.9,36.4-31.9
				c27,0,36.3,14.5,36.3,31.9c0,23.9-13.9,30.2-25.3,32.1C62.1,70.3,52.3,70.4,45.8,69.5z M99.5,37.5c0-19.4-9.1-35.4-42.7-35.4
				c-35.3,0-42.7,19.4-42.7,35.5c0,26.8,18,33.4,31.1,34.9c6.6,0.8,16.2,0.7,22.4,0C80.6,70.9,99.5,64.5,99.5,37.5z"/>
			
				<linearGradient id="SVGID_1_" gradientUnits="userSpaceOnUse" x1="273.6367" y1="-6.265659e-02" x2="292.233" y2="69.3398" gradientTransform="matrix(-1 0 0 1 320.4384 0)">
				<stop  offset="0" style="stop-color:#353233;stop-opacity:0"/>
				<stop  offset="0.6061" style="stop-color:#353233"/>
				<stop  offset="0.6337" style="stop-color:#363434"/>
				<stop  offset="0.656" style="stop-color:#3B3939"/>
				<stop  offset="0.6763" style="stop-color:#434242"/>
				<stop  offset="0.6954" style="stop-color:#504E4F"/>
				<stop  offset="0.7091" style="stop-color:#5B5B5B"/>
				<stop  offset="0.8667" style="stop-color:#EEEEEE"/>
				<stop  offset="1" style="stop-color:#D9DADA;stop-opacity:0"/>
			</linearGradient>
			<path class="st3" d="M56.9,2.6v2.4C29.6,5.1,20.3,19.6,20.3,37.9c0,16.7,7.2,25.2,15.4,29c9.2,4.3,19.8,3.5,14.8,5.4
				c-1.2,0.5-2.2,1.2-6.7,0.7c-13-1.5-29.6-7.9-29.6-34.9C14.2,18.7,23.4,2.7,56.9,2.6z"/>
			<linearGradient id="out_sf_base_1_" gradientUnits="userSpaceOnUse" x1="70.4274" y1="76.3629" x2="42.545" y2="-0.2435">
				<stop  offset="3.636360e-02" style="stop-color:#414140"/>
				<stop  offset="0.1939" style="stop-color:#444243"/>
				<stop  offset="0.2897" style="stop-color:#5D5959"/>
				<stop  offset="0.4966" style="stop-color:#A29D9D"/>
				<stop  offset="0.6483" style="stop-color:#DEDCDC"/>
				<stop  offset="0.7273" style="stop-color:#FFFFFF"/>
				<stop  offset="1" style="stop-color:#777C82"/>
			</linearGradient>
			<path id="out_sf_base_4_" class="st4" d="M104.1,38.3c0,10.3-3.5,21-11.8,27.9c-8.7,7.2-22.2,10.2-35.8,10.2
				c-14.5,0-27-2.7-36.5-10.7C12.6,59.4,9,48.2,9,38.2c0-10.9,3.5-22.4,12.6-29.4c8.4-6.4,23.3-8.7,35-8.7C70,0.1,83,2.3,91.7,9.2
				C100.1,16,104.1,27.6,104.1,38.3z M99.3,37.9c0-18-10.5-35.4-42.7-35.4C21.4,2.5,13.9,21.9,13.9,38c0,27.4,18.7,33.6,31.9,35
				c7.1,0.8,14.2,0.8,22,0C75.5,72.1,99.3,66.9,99.3,37.9z"/>
			<linearGradient id="SVGID_2_" gradientUnits="userSpaceOnUse" x1="22.8723" y1="34.615" x2="33.258" y2="-1.6044">
				<stop  offset="0" style="stop-color:#FFFFFF;stop-opacity:0"/>
				<stop  offset="0.4606" style="stop-color:#FFFFFF"/>
				<stop  offset="0.5458" style="stop-color:#E9E8E9;stop-opacity:0.8421"/>
				<stop  offset="1" style="stop-color:#999A99;stop-opacity:0"/>
			</linearGradient>
			<path class="st5" d="M14.9,29c1.6-4.7,3.7-12.4,9.7-17.8c6.8-6,18.7-8.1,22.2-8.6c-1.4-0.8-2.1-1-4.1-1.6
				c-9.8,1.4-18.1,4.2-24,10.4c-5.9,6.2-8.4,14.1-9.2,19.3C11.5,30,12.3,29.8,14.9,29z"/>
			<linearGradient id="in_up_right_1_" gradientUnits="userSpaceOnUse" x1="28.1474" y1="9.4356" x2="85.2983" y2="9.4356">
				<stop  offset="0" style="stop-color:#241F1F"/>
				<stop  offset="1.537012e-02" style="stop-color:#292425;stop-opacity:0.9846"/>
				<stop  offset="7.357303e-02" style="stop-color:#3D3A3B;stop-opacity:0.9264"/>
				<stop  offset="0.1345" style="stop-color:#535051;stop-opacity:0.8655"/>
				<stop  offset="0.1974" style="stop-color:#656364;stop-opacity:0.8026"/>
				<stop  offset="0.2631" style="stop-color:#737272;stop-opacity:0.7369"/>
				<stop  offset="0.3326" style="stop-color:#7E7D7D;stop-opacity:0.6674"/>
				<stop  offset="0.4085" style="stop-color:#848483;stop-opacity:0.5915"/>
				<stop  offset="0.503" style="stop-color:#868685;stop-opacity:0.497"/>
				<stop  offset="1" style="stop-color:#241F1F"/>
			</linearGradient>
			<path id="in_up_right_8_" class="st6" d="M56.3,4.1c11.4,0,22.2,1.9,29,10.7c-10.4-12.9-45.6-13.2-57.2,0
				C34.9,7,44.9,4.1,56.3,4.1z"/>
			
				<linearGradient id="in_up_right_2_" gradientUnits="userSpaceOnUse" x1="3.1029" y1="-36.6136" x2="56.9075" y2="-36.6136" gradientTransform="matrix(-1 0 0 -1 87.1044 30.1856)">
				<stop  offset="0" style="stop-color:#241F1F"/>
				<stop  offset="0.136" style="stop-color:#333031"/>
				<stop  offset="0.4387" style="stop-color:#656466"/>
				<stop  offset="0.503" style="stop-color:#717071"/>
				<stop  offset="1" style="stop-color:#241F1F"/>
			</linearGradient>
			<path id="in_up_right_7_" class="st7" d="M56.7,71.2c-12.4,0-19.7-1.6-26-7.3c-0.8-0.7-0.7-0.7,0.2,0c1.8,1.3,4,2.7,6.4,3.6
				c5.7,2.1,12.9,2.7,19.5,2.7c6.6,0,12.3-0.7,17.4-2.3c3.7-1.2,6.5-3.2,9.1-5.1c0.9-0.7,1-0.7,0.2,0.1
				C76.6,68.8,68.6,71.2,56.7,71.2z"/>
			
				<linearGradient id="SVGID_3_" gradientUnits="userSpaceOnUse" x1="189.9438" y1="55.6161" x2="187.2163" y2="63.1096" gradientTransform="matrix(-1 0 0 1 283.1044 0)">
				<stop  offset="0.2364" style="stop-color:#241F1F;stop-opacity:0"/>
				<stop  offset="0.4424" style="stop-color:#241F1F"/>
				<stop  offset="0.6909" style="stop-color:#241F1F;stop-opacity:0.7394"/>
				<stop  offset="1" style="stop-color:#241F1F;stop-opacity:0"/>
			</linearGradient>
			<path class="st8" d="M100.7,54.8c0.6-1.3,0.6-1.2,0.8-2.1c0.1-0.4-0.1,0.2-0.3,0.7c-0.3,0.6-0.3,0.6-0.7,1.2
				c-0.5,0.7-0.6,0.8-1.6,1.3c-0.7,0.5-1.6,0.8-3.1,1.6c-0.4,0.2-0.6,0.4-1.3,1.3c-0.6,0.7-1.1,1.5-1.4,1.9
				c-0.9,1.1-3.5,3.1-4.8,4.3c-1.2,1-0.8,1.1,0.9,0.5c1.5-0.5,3.8-1.5,5.1-2c0.8-0.3,1.5-0.9,1.8-1.3
				C97.6,60.4,99.5,57.3,100.7,54.8z"/>
			
				<linearGradient id="SVGID_4_" gradientUnits="userSpaceOnUse" x1="48.379" y1="-2.4452" x2="25.1967" y2="39.3767" gradientTransform="matrix(1 0 0 1 -11.166 0)">
				<stop  offset="0" style="stop-color:#FFFFFF;stop-opacity:0"/>
				<stop  offset="0.3697" style="stop-color:#FFFFFF"/>
				<stop  offset="1" style="stop-color:#999A99;stop-opacity:0"/>
			</linearGradient>
			<path class="st9" d="M14.1,37.9c0-8.7,3.1-20,10.5-26.5c6.8-6,18.4-8.3,21.9-8.7c-1.4-0.8-2.1-1-4.1-1.6
				c-9.8,1.4-18.1,4.3-24.1,10.5C12,18.3,9,29.2,8.8,36.5C10.6,37,11.9,37.4,14.1,37.9z"/>
			<path id="in_line_8_" class="st10" d="M56.7,5.5L56.7,5.5c4.4,0,8.5,0.4,11.7,1c6.1,1.3,8.5,2.4,12.3,4.9
				c8.1,5.4,12.2,14.2,12.2,26.3c0,16.4-7.1,23.9-13.1,27.4C73.7,68.6,67.3,70,56.7,70C45.4,70,38,68.4,32.9,65
				c-8.3-5.5-12.5-14.7-12.5-27.3c0-8.3,2.1-19.5,12.2-26.3c3.9-2.6,6.8-3.8,12.3-4.9C48.1,5.9,52.3,5.5,56.7,5.5z M56.7,5.4
				c-4.2,0-8.5,0.3-11.9,1c-5.4,1.1-8.4,2.3-12.3,4.9c-9.6,6.4-12.3,17-12.3,26.4c0,12.9,4.3,21.9,12.6,27.4
				c6,3.9,14.5,4.9,23.9,4.9c9.7,0,16.6-1.1,23.1-4.9C87.4,60.8,93,52.3,93,37.7c0-11.1-3.6-20.6-12.2-26.4
				c-3.9-2.6-6.3-3.7-12.3-4.9C65.1,5.7,60.9,5.4,56.7,5.4L56.7,5.4z"/>
			<path id="in_line_7_" class="st11" d="M56.7,5.4c4.2,0,8.5,0.3,11.8,1c6,1.2,8.5,2.3,12.3,4.9C89.4,17.1,93,26.6,93,37.7
				c0,14.6-5.6,23.1-13.1,27.5c-6.5,3.8-13.4,4.9-23.1,4.9c-9.4,0-18-1-23.9-4.9c-8.2-5.4-12.6-14.4-12.6-27.4
				c0-9.4,2.7-20,12.3-26.4c3.9-2.7,6.9-3.8,12.3-4.9C48.2,5.7,52.4,5.4,56.7,5.4z M56.7,5.2L56.7,5.2c-4.4,0-8.6,0.4-11.9,1
				c-5.5,1.1-8.4,2.3-12.4,5C22.2,18,20,29.4,20,37.8c0,12.7,4.3,22,12.7,27.5c5.2,3.4,12.6,5,24,5c10.6,0,17.1-1.4,23.2-4.9
				c6-3.5,13.2-11.1,13.2-27.7c0-12.2-4.1-21.1-12.3-26.5c-3.8-2.6-6.3-3.7-12.4-5C65.3,5.5,61.1,5.2,56.7,5.2L56.7,5.2z"/>
			<path id="outline_8_" class="st10" d="M56.5,0.1c13.9,0,26.7,2,35.2,8.8c8.5,6.8,12.9,18.8,12.5,29.3
				c-0.4,11.9-3.6,21.2-11.9,28.1c-8.7,7.2-22.1,10.1-35.7,10.1c-13.6,0-27.4-2.7-36.1-10C12.7,59.8,9.3,50,8.9,38.1
				C8.5,26.5,13.1,15.3,21.6,8.8C30.9,1.7,44.1,0.1,56.5,0.1z M56.5,0c-16.1,0-27.2,2.8-35,8.7C13.2,15,8.4,26.3,8.8,38.1
				c0.4,12.8,4.3,22.1,11.8,28.4c7.7,6.5,20.5,10,36.2,10c15.1,0,27.8-3.6,35.7-10.1C100.2,60,104,51,104.4,38.2
				c0.3-11.5-4.6-23-12.6-29.4C84.3,2.8,73.1,0,56.5,0L56.5,0z"/>
			<path id="outline_7_" class="st12" d="M56.5,0.3C73,0.3,84.1,3.1,91.6,9c7.9,6.3,12.8,17.8,12.5,29.2
				c-0.4,12.7-4.1,21.6-11.8,27.9c-7.8,6.5-20.4,10.1-35.5,10.1c-15.6,0-28.3-3.5-36-9.9C13.4,60,9.6,50.8,9.1,38.1
				C8.7,26.4,13.5,15.2,21.7,9C29.4,3.1,40.5,0.3,56.5,0.3z M56.5,0.1c-12.4,0-25.6,1.6-35,8.7C13.1,15.3,8.5,26.5,8.9,38.1
				C9.3,50,12.7,59.8,20.6,66.4c8.7,7.3,22.5,10,36.1,10c13.5,0,26.9-2.9,35.7-10.1c8.3-6.9,11.5-16.2,11.9-28.1
				c0.3-10.5-4-22.5-12.5-29.3C83.2,2.1,70.4,0.1,56.5,0.1L56.5,0.1z"/>
			<linearGradient id="SVGID_5_" gradientUnits="userSpaceOnUse" x1="81.2006" y1="10.1362" x2="94.8859" y2="10.1362">
				<stop  offset="0" style="stop-color:#241F1F"/>
				<stop  offset="8.962709e-02" style="stop-color:#241F1F;stop-opacity:0.9104"/>
				<stop  offset="1" style="stop-color:#241F1F;stop-opacity:0"/>
			</linearGradient>
			<path class="st13" d="M81.2,6.9c2,0.3,9.3,1.8,11.7,3.3c2.3,1.4,1.9,1.5,1.9,1.5l-4.4,1.7C90.5,13.4,87.5,10,81.2,6.9z"/>
			
				<linearGradient id="SVGID_6_" gradientUnits="userSpaceOnUse" x1="143.9328" y1="6.5061" x2="143.9328" y2="15.3653" gradientTransform="matrix(-1 0 0 1 168.1044 0)">
				<stop  offset="0" style="stop-color:#241F1F"/>
				<stop  offset="1" style="stop-color:#241F1F;stop-opacity:0"/>
			</linearGradient>
			<path class="st14" d="M31.7,6.8c-4.3,1-10.1,2.5-12.4,4c-1.1,0.7-4,4.6-4,4.6l4.2-3.5c2.1-0.5,2.2-0.6,3.7-1
				c1.7-0.4,2.7-0.6,4.7-1.8C29.7,7.7,36,5.8,31.7,6.8z"/>
			<path class="st0" d="M56.8,73.8c-4.2,0-8.6-0.3-13.7-1c-10.9-1.4-29.3-7.9-29.3-34.9c0-15.9,7.7-27.8,21-32.7
				C40.6,3.1,48,2,56.8,2c15.8,0,27.1,3.9,34.5,11.8c5.6,6,8.3,13.8,8.3,24c0,25.6-16.8,33.3-31,35.2C64.4,73.5,60.7,73.8,56.8,73.8
				z M56.8,2.7c-8.7,0-16.1,1-21.8,3.1c-13.1,4.7-20.6,16.4-20.6,32c0,25.2,15.6,32.6,28.7,34.3c9.7,1.3,16.6,1.3,25.4,0.2
				c13.9-1.9,30.4-9.4,30.4-34.5c0-10-2.7-17.7-8.1-23.5C83.6,6.5,72.4,2.7,56.8,2.7z"/>
			<path class="st15" d="M56.8,73.9L56.8,73.9c-4.3,0-8.6-0.3-13.8-1c-8-1.1-14.6-3.9-19.5-8.4c-6.6-6.1-9.9-15-9.9-26.7
				c0-16,7.7-27.9,21.1-32.8C40.5,3,48,1.9,56.8,1.9c15.9,0,27.2,3.9,34.6,11.8c5.6,6,8.3,13.9,8.3,24c0,25.7-16.9,33.4-31.1,35.3
				C64.4,73.6,60.7,73.9,56.8,73.9z M56.8,2.2c-8.8,0-16.2,1.1-22,3.1c-13.3,4.8-21,16.7-21,32.6c0,11.6,3.3,20.5,9.9,26.5
				c4.9,4.5,11.4,7.3,19.4,8.3c5.1,0.7,9.5,1,13.7,1l0,0c3.9,0,7.6-0.3,11.8-0.8c14.1-1.9,30.9-9.5,30.9-35
				c0-10.1-2.7-17.9-8.3-23.9C83.8,6,72.6,2.2,56.8,2.2z"/>
			<path class="st16" d="M56.8,2.7c-8.7,0-16.1,1-21.8,3.1c-13.1,4.7-20.6,16.4-20.6,32c0,25.2,15.6,32.6,28.7,34.3
				c5.1,0.7,9.4,1,13.7,1l0,0c3.8,0,7.6-0.3,11.7-0.8c13.9-1.9,30.4-9.4,30.4-34.5c0-10-2.7-17.7-8.1-23.5
				C83.6,6.5,72.4,2.7,56.8,2.7z"/>
			
				<linearGradient id="SVGID_7_" gradientUnits="userSpaceOnUse" x1="327.4324" y1="58.9169" x2="323.569" y2="69.5317" gradientTransform="matrix(1 0 0 1 -299.0254 0)">
				<stop  offset="4.848480e-02" style="stop-color:#241F1F;stop-opacity:0"/>
				<stop  offset="0.1024" style="stop-color:#2C2829;stop-opacity:0.254"/>
				<stop  offset="0.2067" style="stop-color:#3D3B3B;stop-opacity:0.7457"/>
				<stop  offset="0.2606" style="stop-color:#444243"/>
				<stop  offset="0.3139" style="stop-color:#423F40;stop-opacity:0.971"/>
				<stop  offset="0.384" style="stop-color:#3A3738;stop-opacity:0.9329"/>
				<stop  offset="0.4632" style="stop-color:#2F2B2C;stop-opacity:0.8898"/>
				<stop  offset="0.5333" style="stop-color:#241F1F;stop-opacity:0.8517"/>
				<stop  offset="0.5704" style="stop-color:#252021;stop-opacity:0.8315"/>
				<stop  offset="0.6077" style="stop-color:#292526;stop-opacity:0.8111"/>
				<stop  offset="0.6452" style="stop-color:#322F30;stop-opacity:0.7907"/>
				<stop  offset="0.6827" style="stop-color:#3E3C3D;stop-opacity:0.7703"/>
				<stop  offset="0.72" style="stop-color:#504F50;stop-opacity:0.75"/>
				<stop  offset="0.7394" style="stop-color:#5B5B5B;stop-opacity:0.7394"/>
				<stop  offset="0.7414" style="stop-color:#595859;stop-opacity:0.7337"/>
				<stop  offset="0.757" style="stop-color:#494748;stop-opacity:0.6893"/>
				<stop  offset="0.7747" style="stop-color:#3C393A;stop-opacity:0.6393"/>
				<stop  offset="0.7947" style="stop-color:#322F30;stop-opacity:0.5825"/>
				<stop  offset="0.8181" style="stop-color:#2B2728;stop-opacity:0.5162"/>
				<stop  offset="0.8469" style="stop-color:#272223;stop-opacity:0.4342"/>
				<stop  offset="0.8875" style="stop-color:#241F20;stop-opacity:0.3192"/>
				<stop  offset="1" style="stop-color:#241F1F;stop-opacity:0"/>
			</linearGradient>
			<path class="st17" d="M12.3,53.5c0.3,0.6,0.6,1.5,1.7,2c0.9,0.4,1.6,0.7,2.4,1c1.4,0.5,2.5,2.4,3.4,3.6c0.9,1.2,3.7,3.8,5.1,5
				c2.1,1.7,6,4.1,9,5.3c0.2,0.1,8.3,3.5,7.4,4.3c-0.3,0.2-7.7-1.9-8.1-2c-6.4-1.9-13.2-5.8-17.7-12.3c-0.6-0.9-2.9-5-3.4-6.6
				C11.8,52.7,11.9,52.7,12.3,53.5z"/>
			
				<linearGradient id="SVGID_8_" gradientUnits="userSpaceOnUse" x1="46.5916" y1="31.9714" x2="56.1757" y2="-1.4525" gradientTransform="matrix(-1 0 0 1 136.1044 0)">
				<stop  offset="0" style="stop-color:#FFFFFF;stop-opacity:0"/>
				<stop  offset="0.1086" style="stop-color:#D5D3D4;stop-opacity:0.2358"/>
				<stop  offset="0.3418" style="stop-color:#8C8A8A;stop-opacity:0.742"/>
				<stop  offset="0.4606" style="stop-color:#717071"/>
				<stop  offset="0.4727" style="stop-color:#717071"/>
				<stop  offset="0.6442" style="stop-color:#757475;stop-opacity:0.6749"/>
				<stop  offset="0.8226" style="stop-color:#818181;stop-opacity:0.3364"/>
				<stop  offset="1" style="stop-color:#999A99;stop-opacity:0"/>
			</linearGradient>
			<path class="st18" d="M98.4,29.1c-1.6-4.7-3.7-12.4-9.7-17.8c-6.8-6-18.7-8.1-22.2-8.6c1.4-0.8,2.1-1,4.1-1.6
				c9.8,1.4,18.1,4.3,24.1,10.5c5,5.2,7.2,11.4,8.3,16.4C101.3,28.6,100.7,28.6,98.4,29.1z"/>
			<linearGradient id="wing_low_sf_1_" gradientUnits="userSpaceOnUse" x1="19.6826" y1="40.5904" x2="94.4467" y2="40.5904">
				<stop  offset="0" style="stop-color:#241F1F"/>
				<stop  offset="2.315785e-02" style="stop-color:#2D2829"/>
				<stop  offset="7.804912e-02" style="stop-color:#434041"/>
				<stop  offset="0.1355" style="stop-color:#5A5758"/>
				<stop  offset="0.1948" style="stop-color:#6D6B6C"/>
				<stop  offset="0.2567" style="stop-color:#7D7C7C"/>
				<stop  offset="0.3223" style="stop-color:#898888"/>
				<stop  offset="0.3939" style="stop-color:#909090"/>
				<stop  offset="0.483" style="stop-color:#929392"/>
				<stop  offset="0.497" style="stop-color:#FFFFFF;stop-opacity:0.7679"/>
				<stop  offset="0.498" style="stop-color:#241F1F;stop-opacity:0.9"/>
				<stop  offset="0.5058" style="stop-color:#272223;stop-opacity:0.9146"/>
				<stop  offset="0.5185" style="stop-color:#302D2E;stop-opacity:0.9383"/>
				<stop  offset="0.5345" style="stop-color:#424041;stop-opacity:0.9682"/>
				<stop  offset="0.5515" style="stop-color:#5B5B5B"/>
				<stop  offset="0.5553" style="stop-color:#5F5E5F"/>
				<stop  offset="0.5639" style="stop-color:#636263"/>
				<stop  offset="0.5879" style="stop-color:#646464"/>
				<stop  offset="1" style="stop-color:#241F1F"/>
			</linearGradient>
			<path id="wing_low_sf_4_" class="st19" d="M70.3,32c0,0-0.1,0-0.1,0.1C67.9,33.2,57,45.2,56.7,45.4c-0.3,0.3-11.9-9.2-12.1-9.6
				c-0.2-0.4-20.1-7.5-20.1-7.5l-4.8-0.4c0,0,0.3,1.2,1.6,3c5,3.2,14.9,5.3,20,7.3c6.2,2.5,10.5,8.1,12.8,12.1
				c1.5,2.7,1.8,5.1,2.9,5.1c1.1,0,1.6-2.5,2.3-4.1c3.5-8,7.7-12.8,22.7-16.6c9.2-2.3,10.6-4.3,10.6-4.3l2-4.7
				C94.4,25.7,73.1,30.8,70.3,32z"/>
			
				<linearGradient id="SVGID_9_" gradientUnits="userSpaceOnUse" x1="-159.6814" y1="38.8806" x2="-192.458" y2="32.5095" gradientTransform="matrix(-1 0 0 1 -139.1808 0)">
				<stop  offset="0" style="stop-color:#241F1F"/>
				<stop  offset="6.543791e-02" style="stop-color:#272223"/>
				<stop  offset="0.5061" style="stop-color:#413F40"/>
				<stop  offset="0.8299" style="stop-color:#545353"/>
				<stop  offset="1" style="stop-color:#5B5B5B"/>
			</linearGradient>
			<path class="st20" d="M18.9,26.5c0.8,2.1,2.1,4.4,2.1,4.4s2.3,1.2,5.3,2.2c6.6,2.2,15,3.4,17.5,4.6c8.7,4.2,10.7,8.1,12.8,11.5
				c-0.9-2.3-1.7-4.4-4.8-8.3c-4.5-5.6-7.4-6.9-13.9-9.3c-2.2-0.8-5.3-2.1-9.1-3.5c-3.8-1.4-8.5-3.9-11.4-5.9
				C17.2,22.2,18.3,24.8,18.9,26.5z"/>
			<linearGradient id="SVGID_10_" gradientUnits="userSpaceOnUse" x1="56.708" y1="31.4406" x2="96.798" y2="31.4406">
				<stop  offset="0" style="stop-color:#241F1F"/>
				<stop  offset="2.069543e-02" style="stop-color:#322D2E"/>
				<stop  offset="5.651366e-02" style="stop-color:#4B4749"/>
				<stop  offset="9.624520e-02" style="stop-color:#686468"/>
				<stop  offset="0.1396" style="stop-color:#848287"/>
				<stop  offset="0.1879" style="stop-color:#9E9DA4"/>
				<stop  offset="0.2431" style="stop-color:#B3B5BD"/>
				<stop  offset="0.3096" style="stop-color:#C3C7D0"/>
				<stop  offset="0.3987" style="stop-color:#CED3DC"/>
				<stop  offset="0.6061" style="stop-color:#D2D7E1"/>
				<stop  offset="0.8242" style="stop-color:#FFFFFF"/>
			</linearGradient>
			<path class="st21" d="M62.3,34.5c1.8-2,3.1-3.3,6.5-5.3c6.1-3.6,15.7-5.6,22-10.5c4.2-3.3,5.4-4.9,5.4-4.9s0.5,1.4,0.5,3.2
				c0,1,0.1,2,0,3.1c-0.1,1.1-0.4,2-0.4,2c-3,2-7.1,4.3-10.9,5.7c-3.8,1.4-7.4,2.7-9.7,3.5c-9.8,3.7-14,9.2-17.2,14.9
				c-1.5,2.7-1.9,3-1.9,3c0-0.1,0-6.3,0-7.2c0.1,0,0.2,0,0.6-0.8C58.1,39.8,60.1,37,62.3,34.5z"/>
			<linearGradient id="SVGID_11_" gradientUnits="userSpaceOnUse" x1="73.5133" y1="29.1502" x2="79.397" y2="48.3949">
				<stop  offset="0" style="stop-color:#241F1F"/>
				<stop  offset="3.041890e-02" style="stop-color:#241F1F"/>
				<stop  offset="0.3394" style="stop-color:#241F1F"/>
				<stop  offset="0.3456" style="stop-color:#252021"/>
				<stop  offset="0.4507" style="stop-color:#3C3A3B"/>
				<stop  offset="0.5284" style="stop-color:#4E4D4D"/>
				<stop  offset="0.5697" style="stop-color:#555454"/>
				<stop  offset="0.8061" style="stop-color:#241F1F"/>
			</linearGradient>
			<path class="st22" d="M96,22.3c-2.9,2-8,4.3-11.7,5.7c-3.8,1.4-6,2-8.2,2.8c-6.3,2.3-10.3,4.7-14.9,10.5c-3.1,3.9-3.6,6-4.4,7.7
				c0,1,0.1,6.2,0.1,6.2s0.3,0.1,0.6-0.3c0.1-0.2,0-1.8,0-3.1c0-1,0.1-1.3,0.6-2.3c0.4-0.8,0.9-1.6,1.2-2.1
				c2.6-4.1,7.6-7.2,12.5-9.5c4.3-2,10.7-3.4,15-4.8c2.9-1,5.7-2.3,5.7-2.3s1.1-1.6,1.9-3.7C94.9,25.3,96.1,22.2,96,22.3z"/>
			
				<linearGradient id="SVGID_12_" gradientUnits="userSpaceOnUse" x1="-195.9214" y1="31.3035" x2="-155.9298" y2="31.3035" gradientTransform="matrix(-1 0 0 1 -139.1808 0)">
				<stop  offset="0" style="stop-color:#241F1F"/>
				<stop  offset="1.250340e-02" style="stop-color:#2B2728"/>
				<stop  offset="4.804009e-02" style="stop-color:#413F42"/>
				<stop  offset="8.338725e-02" style="stop-color:#56565A"/>
				<stop  offset="0.1179" style="stop-color:#67686E"/>
				<stop  offset="0.1514" style="stop-color:#73767C"/>
				<stop  offset="0.1833" style="stop-color:#7A7E85"/>
				<stop  offset="0.2121" style="stop-color:#7C8188"/>
				<stop  offset="0.3041" style="stop-color:#9EA2A7"/>
				<stop  offset="0.4178" style="stop-color:#C1C3C6"/>
				<stop  offset="0.5335" style="stop-color:#DCDDDF"/>
				<stop  offset="0.6502" style="stop-color:#F0F0F1"/>
				<stop  offset="0.7685" style="stop-color:#FBFBFC"/>
				<stop  offset="0.8909" style="stop-color:#FFFFFF"/>
				<stop  offset="1" style="stop-color:#AEAEAF"/>
			</linearGradient>
			<path class="st23" d="M55.8,41.3c0.4,0.8,0.8,0.7,1,0.7c0,1.1,0,7,0,7.1c0,0-0.1-0.4-1.6-3c-5.9-10.6-11.6-12.6-16.9-14.6
				c-2.3-0.8-6.5-2.5-10.3-3.9c-3.8-1.4-8.1-3.8-11.1-5.8c-0.2-0.1,0-0.7-0.1-1.8c-0.1-1.1-0.1-2.4-0.1-3.4c0.1-1.8,0.4-3.1,0.4-3.1
				s2,2.8,6.5,5.7c2.8,1.8,6.1,3.5,9.4,4.9c4,1.7,8.1,3.4,11.4,5.4c3.3,2,5,3.6,6.8,5.6C53.5,37.7,54.9,39.8,55.8,41.3z"/>
			<path class="st24" d="M47.7,31.7c2.7,2.8,3.9,4.2,5.8,7.8c1.3,2.5,1.5,2.7,3.2,8.9l-0.4-6.2c0,0-2.2-3.5-3.6-5.3
				C51.2,35.2,49.3,33.1,47.7,31.7z"/>
			<path class="st10" d="M56.8,55.5c-0.7,0-1-0.5-1.6-2c-0.3-0.7-0.8-1.7-1.5-3.1c-2.8-5.6-7.7-10.1-13.5-12.5
				c-1.6-0.6-3.8-1.3-6.1-2c-4.5-1.3-9.6-2.8-13.4-5.1l0.1-0.2c3.8,2.3,8.9,3.8,13.3,5.1c2.3,0.7,4.5,1.3,6.1,2
				c5.8,2.3,10.8,6.9,13.6,12.6c0.7,1.4,1.1,2.4,1.5,3.1c0.7,1.6,0.9,1.9,1.4,1.9c0.8,0,1.1-0.8,1.7-2.5c0.2-0.7,0.5-1.5,0.9-2.4
				c1.9-4.8,5.7-8.7,11.3-11.7c4.5-2.4,8.8-3.5,10.8-4l0.3-0.1c6.3-1.6,7.9-2.5,10.5-4l0.1,0.2c-2.6,1.5-4.2,2.4-10.5,4.1l-0.3,0.1
				C70,37.8,62.7,43.1,59.7,50.4c-0.4,0.9-0.7,1.7-0.9,2.4C58.1,54.6,57.8,55.5,56.8,55.5z"/>
			<path class="st11" d="M56.9,55.3c-0.7,0-0.9-0.5-1.6-2c-0.3-0.8-0.8-1.8-1.5-3.2C51,44.6,46,40,40.2,37.7c-1.6-0.6-3.7-1.3-6-1.9
				c-4.5-1.3-9.6-2.8-13.5-5.2l0.1-0.1c3.9,2.4,9,3.9,13.5,5.2c2.3,0.6,4.4,1.3,6,1.9c5.8,2.3,10.8,6.9,13.6,12.6
				c0.7,1.4,1.2,2.4,1.5,3.2c0.7,1.5,0.8,1.9,1.5,1.9c0.8,0,1.1-0.9,1.7-2.5c0.2-0.7,0.5-1.5,0.9-2.5c1.9-4.8,5.7-8.7,11.2-11.6
				c4.4-2.4,8.7-3.5,10.8-4l0.3-0.1c6.4-1.6,8.1-2.6,10.7-4.1l0.1,0.1c-2.5,1.5-4.4,2.4-10.7,4.1l-0.3,0.1c-11.6,3-19,8.2-22,15.6
				c-0.4,1-0.7,1.8-0.9,2.5C58.1,54.5,57.8,55.3,56.9,55.3z"/>
			<path class="st0" d="M56.7,49.2c-0.1,0-0.2-0.1-0.3-0.2c0,0-1.3-3.1-4-6.9c-1.7-2.4-3.5-4-5-5.4l-0.1-0.1
				c-1.5-1.3-3.2-2.7-8.5-4.7c-0.8-0.3-2-0.7-3.2-1.2c-2.8-1-6.2-2.3-8-3c-1-0.4-1.8-0.8-2.5-1.1c-2.7-1.2-3.2-1.4-8-4.4
				c-0.2-0.1-0.2-0.3-0.1-0.4c0.1-0.2,0.3-0.2,0.4-0.1c4.8,3,5.3,3.2,7.9,4.4c0.7,0.3,1.4,0.6,2.5,1.1c1.7,0.8,5.2,2,7.9,3
				c1.3,0.5,2.4,0.9,3.3,1.2c5.4,2,7.2,3.4,8.7,4.8l0.1,0.1c1.6,1.4,3.4,3.1,5.1,5.5c2,2.8,3.2,5.2,3.7,6.3c0.5-1.1,1.7-3.5,3.9-6.5
				c1.9-2.5,4-4.8,6.3-6.6c2.5-2,5.5-3.2,8.4-4.3c1.8-0.7,3.2-1.2,4.6-1.7c2.5-0.9,4.7-1.6,8.1-3.2c5.5-2.5,8-4.2,8-4.2
				c0.1-0.1,0.3-0.1,0.4,0.1c0.1,0.1,0.1,0.3-0.1,0.5c-0.1,0.1-2.6,1.8-8.1,4.3c-3.4,1.5-5.6,2.3-8.1,3.2c-1.4,0.5-2.8,1-4.6,1.7
				c-2.8,1.1-5.8,2.3-8.2,4.2c-2.2,1.7-4.3,3.9-6.2,6.4c-2.9,4-4,7-4.1,7C57,49.1,56.9,49.2,56.7,49.2
				C56.7,49.2,56.7,49.2,56.7,49.2z"/>
			<path class="st11" d="M56.6,42.2c-0.3,0-0.6-0.3-0.9-0.9c-2.3-4.1-5.7-8-9.4-10.6c-2.2-1.6-7.7-4-12.6-6.2
				c-1.5-0.6-2.8-1.2-4.1-1.8c-3-1.3-5.3-2.9-5.3-2.9l0.1-0.2c0,0,2.4,1.6,5.3,2.9c1.2,0.6,2.6,1.2,4.1,1.8
				c4.9,2.1,10.4,4.6,12.6,6.2c3.7,2.7,7.2,6.6,9.5,10.7c0.3,0.6,0.6,0.8,0.7,0.8c0.1,0,0.4-0.2,0.8-0.8c2.3-4.6,6.5-8.7,9.5-10.8
				c3-2,8-4.1,12.4-5.8c2-0.8,4-1.6,5.4-2.3c2.4-1.1,4.3-2.4,4.3-2.4l0.1,0.2c0,0-1.9,1.3-4.3,2.4c-1.5,0.7-3.4,1.5-5.5,2.3
				c-4.4,1.8-9.4,3.8-12.4,5.8c-3,2.1-7.1,6.2-9.5,10.8C57.3,41.9,56.9,42.2,56.6,42.2z"/>
			<path class="st10" d="M56.6,42c-0.3,0-0.6-0.3-0.9-0.9c-2.3-4.1-5.7-8-9.4-10.6c-2.2-1.6-7.7-4-12.6-6.2
				c-1.5-0.6-2.8-1.2-4.1-1.8c-3-1.3-5-2.7-5-2.7l0.1-0.2c0,0,2.1,1.4,5,2.7c1.2,0.6,2.6,1.2,4.1,1.8c4.9,2.1,10.4,4.6,12.6,6.2
				c3.7,2.7,7.2,6.6,9.5,10.7c0.3,0.6,0.6,0.8,0.7,0.8c0.1,0,0.4-0.2,0.8-0.8c2.3-4.6,6.5-8.7,9.5-10.9c3-2,8-4.1,12.4-5.8
				c2.1-0.8,4-1.6,5.5-2.3c2.4-1.1,3.9-2.2,3.9-2.2l0.1,0.2c0,0-1.6,1.1-4,2.2c-1.5,0.7-3.4,1.5-5.5,2.3c-4.4,1.8-9.4,3.8-12.4,5.8
				c-3,2.1-7.1,6.3-9.5,10.8C57.3,41.7,56.9,42,56.6,42z"/>
			<polygon class="st0" points="56.8,48 56.6,42.3 56.8,42.3 			"/>
			<g>
				<path class="st0" d="M23.2,13.4C26.4,10,30.3,7.5,35,5.8C40.7,3.7,48,2.7,56.8,2.7c15.2,0,26.1,3.6,33.4,10.9
					c0,0,0.1,0.1,0.2,0.2c0.2-0.1,0.4-0.4,0.5-0.4c-0.1-0.1-0.2-0.2-0.2-0.2C83.3,5.7,72.2,2,56.8,2c-8.8,0-16.2,1.1-22,3.1
					c-4.8,1.7-8.9,4.4-12.2,7.9c0,0-0.1,0,0,0.1c0,0,0.1,0.1,0.2,0.1c0.1,0.1,0.2,0.2,0.3,0.2C23.1,13.5,23.2,13.4,23.2,13.4z"/>
				<path class="st25" d="M90.3,13.9L90.3,13.9c-0.1-0.1-0.2-0.2-0.2-0.2c0,0,0,0,0,0C82.8,6.4,71.9,2.8,56.8,2.8
					c-8.7,0-16,1-21.7,3.1c-4.6,1.7-8.5,4.2-11.7,7.5c-0.1,0.1-0.1,0.1-0.2,0.1l0,0l0,0c-0.1,0-0.2-0.1-0.2-0.2c0,0-0.1-0.1-0.1-0.1
					c0,0-0.1,0-0.1-0.1c-0.1,0-0.1-0.1-0.1-0.1l0,0l0-0.1c0-0.1,0.1-0.1,0.1-0.1c3.3-3.5,7.4-6.1,12.2-7.9C40.5,3,48,1.9,56.8,1.9
					c15.4,0,26.6,3.7,34,11.2c0,0,0,0,0,0c0,0,0.1,0.1,0.2,0.2l0.1,0.2l-0.2,0c0,0-0.1,0.1-0.2,0.2C90.6,13.8,90.5,13.8,90.3,13.9
					L90.3,13.9z M56.8,2.6c15.2,0,26.2,3.6,33.5,11l0,0c0,0,0,0,0.1,0.1c0.1,0,0.1-0.1,0.2-0.1c0.1-0.1,0.1-0.1,0.2-0.1
					c0,0,0,0-0.1-0.1c0,0,0,0,0,0C83.2,5.8,72.1,2.2,56.8,2.2c-8.8,0-16.2,1.1-22,3.1C30.1,7,26,9.6,22.7,13.1c0,0,0,0,0,0
					c0,0,0.1,0,0.1,0.1c0,0,0.1,0.1,0.1,0.1c0,0,0.1,0.1,0.1,0.1c0,0,0,0,0,0c0,0,0,0,0,0c3.2-3.4,7.2-5.9,11.8-7.6
					C40.7,3.6,48,2.6,56.8,2.6z"/>
			</g>
			<path class="st0" d="M95.8,21.7c-0.5,0.3-3,2-7.9,4.2c-3.3,1.5-5.5,2.3-8.1,3.2c-1.4,0.5-2.8,1-4.6,1.7c-2.9,1.1-5.8,2.3-8.4,4.3
				c-2.3,1.8-4.4,4-6.3,6.6c-2.2,3-3.3,5.4-3.9,6.5c-0.5-1.1-1.8-3.5-3.7-6.3c-1.7-2.5-3.5-4.1-5.1-5.5l-0.1-0.1
				c-1.5-1.4-3.3-2.8-8.7-4.8c-0.8-0.3-2-0.7-3.3-1.2c-2.8-1-6.2-2.2-7.9-3c-1-0.5-1.8-0.8-2.5-1.1c-2.6-1.1-3.2-1.4-7.8-4.3
				c-0.5-0.3-0.7-0.1-0.9,0.3c-2,4.6-3,9.9-3,15.8c0,11.6,3.3,20.5,9.9,26.6c4.9,4.5,11.4,7.3,19.4,8.4c5.1,0.7,9.5,1,13.8,1l0,0
				c3.9,0,7.6-0.3,11.8-0.8c14.1-1.9,31-9.5,31-35.2c0-6-1-11.3-2.9-15.8C96.5,21.6,96.1,21.5,95.8,21.7z M68.5,72.3
				c-4.2,0.6-7.9,0.8-11.7,0.8l0,0c-4.2,0-8.6-0.3-13.7-1C30,70.4,14.4,63.1,14.4,37.9c0-5.8,1-11,3-15.5c4.6,2.9,5.1,3.1,7.8,4.3
				c0.6,0.3,1.4,0.6,2.4,1.1c1.7,0.8,5.2,2,8,3c1.2,0.4,2.4,0.9,3.2,1.2c5.3,2,7,3.3,8.5,4.7l0.1,0.1c1.6,1.4,3.3,3,5,5.4
				c2.7,3.8,4,6.9,4,6.9c0.1,0.1,0.2,0.2,0.3,0.2c0,0,0,0,0,0c0.1,0,0.3-0.1,0.3-0.2c0,0,1.2-3.1,4.1-7c1.8-2.5,3.9-4.7,6.2-6.4
				c2.5-1.9,5.4-3.1,8.2-4.2c1.8-0.7,3.2-1.2,4.6-1.7c2.5-0.9,4.7-1.7,8.1-3.2c4.8-2.2,7.2-3.7,7.9-4.2c1.9,4.4,2.9,9.6,2.9,15.5
				C98.9,63,82.4,70.5,68.5,72.3z"/>
			<linearGradient id="SVGID_13_" gradientUnits="userSpaceOnUse" x1="14.289" y1="47.7012" x2="99.0483" y2="47.7012">
				<stop  offset="0" style="stop-color:#5B5B5B"/>
				<stop  offset="0.1046" style="stop-color:#747474"/>
				<stop  offset="0.327" style="stop-color:#B3B3B3"/>
				<stop  offset="0.5697" style="stop-color:#FFFFFF"/>
				<stop  offset="0.7099" style="stop-color:#FDFDFD;stop-opacity:0.6742"/>
				<stop  offset="0.7708" style="stop-color:#F6F6F6;stop-opacity:0.5327"/>
				<stop  offset="0.8163" style="stop-color:#EAE9E9;stop-opacity:0.427"/>
				<stop  offset="0.8542" style="stop-color:#D8D7D7;stop-opacity:0.3389"/>
				<stop  offset="0.8873" style="stop-color:#C1C0C0;stop-opacity:0.2619"/>
				<stop  offset="0.9171" style="stop-color:#A5A3A3;stop-opacity:0.1926"/>
				<stop  offset="0.9445" style="stop-color:#848181;stop-opacity:0.129"/>
				<stop  offset="0.9699" style="stop-color:#5D5A5A;stop-opacity:6.999499e-02"/>
				<stop  offset="0.9928" style="stop-color:#332E2E;stop-opacity:1.667285e-02"/>
				<stop  offset="1" style="stop-color:#241F1F;stop-opacity:0"/>
			</linearGradient>
			<path class="st26" d="M56.8,73.3L56.8,73.3c-4.2,0-8.6-0.3-13.7-1C30,70.5,14.3,63.1,14.3,37.9c0-5.7,1-10.9,3-15.5l0.1-0.1
				l0.1,0.1c4.6,2.9,5.1,3.1,7.8,4.3c0.6,0.3,1.4,0.6,2.5,1.1c1.7,0.8,5.2,2,8,3c1.2,0.4,2.4,0.9,3.2,1.2c5.3,2,7.1,3.4,8.5,4.7
				l0.1,0.1c1.6,1.4,3.3,3,5,5.5c2.7,3.8,4,6.9,4,6.9c0,0.1,0.1,0.1,0.2,0.1c0.1,0,0.2-0.1,0.2-0.1c0,0,1.1-3.1,4.1-7.1
				c1.8-2.5,4-4.7,6.2-6.5c2.5-1.9,5.4-3.1,8.2-4.2c1.8-0.7,3.2-1.2,4.6-1.7c2.5-0.9,4.7-1.6,8.1-3.2c4.8-2.2,7.2-3.7,7.9-4.2
				l0.1-0.1l0.1,0.1c1.9,4.4,2.9,9.5,2.9,15.5C99,63,82.5,70.6,68.5,72.4C64.4,73,60.6,73.3,56.8,73.3z M17.4,22.5
				c-1.9,4.6-2.9,9.7-2.9,15.3C14.5,63,30.1,70.3,43.2,72c5.1,0.7,9.4,1,13.7,1l0,0c3.8,0,7.5-0.3,11.7-0.8
				c13.8-1.9,30.3-9.3,30.3-34.4c0-5.9-0.9-10.9-2.8-15.3c-0.8,0.5-3.3,2-7.8,4.1c-3.4,1.5-5.6,2.3-8.1,3.2c-1.4,0.5-2.8,1-4.6,1.7
				c-2.8,1.1-5.7,2.3-8.2,4.2c-2.2,1.7-4.3,3.9-6.1,6.4c-2.9,4-4,7-4,7c-0.1,0.2-0.2,0.3-0.4,0.3l0,0c-0.2,0-0.3-0.1-0.4-0.3
				c0,0-1.3-3.1-4-6.9c-1.7-2.4-3.5-4-5-5.4l-0.1-0.1C45.8,35.4,44,34,38.8,32c-0.8-0.3-2-0.7-3.2-1.2c-2.8-1-6.2-2.3-8-3
				c-1-0.5-1.8-0.8-2.4-1.1C22.5,25.6,21.9,25.4,17.4,22.5z"/>
			<path class="st27" d="M92.6,30.4C92.6,30.4,92.6,30.4,92.6,30.4C92.6,30.4,92.6,30.3,92.6,30.4c0-0.1,1.2-2.3,1.7-3.5
				c0.5-1.2,1.6-4.3,1.7-4.4c0,0,0,0,0.1,0c0,0,0,0,0,0.1c0,0-1.1,3.2-1.7,4.4C93.9,28.1,92.7,30.3,92.6,30.4
				C92.7,30.4,92.6,30.4,92.6,30.4z"/>
			<linearGradient id="SVGID_14_" gradientUnits="userSpaceOnUse" x1="16.938" y1="21.7998" x2="16.938" y2="13.4909">
				<stop  offset="0" style="stop-color:#F8F9F9"/>
				<stop  offset="0.9385" style="stop-color:#F8F9F9"/>
				<stop  offset="1" style="stop-color:#F8F9F9"/>
			</linearGradient>
			<path class="st28" d="M17.1,13.8c0.1-0.4,0.2-0.3,0.1,0c-0.2,1-0.3,2.9-0.2,4.9c0,1.4,0.3,2.9,0.3,2.9c-0.2,0-0.4,0-0.5,0.3
				C16.6,19.5,16.4,16.9,17.1,13.8z"/>
			<path class="st29" d="M96.4,14.1C96.3,13.7,96.2,13.7,96.4,14.1c0.1,1,0.2,2.8,0.2,4.8c0,1.4-0.2,2.8-0.2,2.8s0.3,0.2,0.4,0.5
				C97.1,18.7,96.8,16.1,96.4,14.1z"/>
			
				<linearGradient id="SVGID_15_" gradientUnits="userSpaceOnUse" x1="328.7306" y1="15.8881" x2="337.1798" y2="15.8881" gradientTransform="matrix(1 0 0 1 -241.0625 0)">
				<stop  offset="0" style="stop-color:#241F1F"/>
				<stop  offset="0.1514" style="stop-color:#262121"/>
				<stop  offset="0.3455" style="stop-color:#2B2828"/>
				<stop  offset="0.5629" style="stop-color:#363435"/>
				<stop  offset="0.7955" style="stop-color:#484647"/>
				<stop  offset="1" style="stop-color:#5B5B5B"/>
			</linearGradient>
			<path class="st30" d="M92.9,16.9l-3.8,3l-1.4-2.2c0.9-1.3,2.4-3.5,2.6-3.8c0.2-0.2,0.6-0.6,1-0.7c0.4-0.1,2-0.9,3.3-1.4l1.7,1.9
				L92.9,16.9z"/>
			
				<linearGradient id="SVGID_16_" gradientUnits="userSpaceOnUse" x1="433.0787" y1="15.5922" x2="441.526" y2="15.5922" gradientTransform="matrix(-1 0 0 1 458.8544 0)">
				<stop  offset="0" style="stop-color:#241F1F"/>
				<stop  offset="0.1514" style="stop-color:#262121"/>
				<stop  offset="0.3455" style="stop-color:#2B2828"/>
				<stop  offset="0.5629" style="stop-color:#363435"/>
				<stop  offset="0.7955" style="stop-color:#484647"/>
				<stop  offset="1" style="stop-color:#5B5B5B"/>
			</linearGradient>
			<path class="st31" d="M20.6,16.6l3.8,3l1.4-2.2c-0.9-1.3-2.4-3.5-2.6-3.8c-0.2-0.2-0.6-0.6-1-0.7c-0.4-0.1-2-0.9-3.3-1.4
				l-1.7,1.9L20.6,16.6z"/>
			
				<linearGradient id="SVGID_17_" gradientUnits="userSpaceOnUse" x1="-1.9222" y1="15.7439" x2="6.7438" y2="15.7439" gradientTransform="matrix(1 0 0 1 19.125 0)">
				<stop  offset="0" style="stop-color:#AEAEAF"/>
				<stop  offset="3.808844e-02" style="stop-color:#A4A4A4"/>
				<stop  offset="0.3638" style="stop-color:#6C6B6B"/>
				<stop  offset="0.5273" style="stop-color:#5B5B5B"/>
			</linearGradient>
			<path class="st32" d="M25.9,17.4c0,0-0.5,0.8-0.8,1.2c-0.3,0.4-0.7,1.2-0.7,1.2s-2.2-1.5-4.1-3.2c-1.7-1.5-2.4-2.4-3.1-3.2
				c0.3-0.4,1.7-1.8,1.7-1.8s-0.1,0.1,0.2,0.5c0.9,1.1,4.6,4.2,6.1,5.1C25.6,17.6,25.9,17.4,25.9,17.4z"/>
			<path class="st0" d="M94.4,11.9c-0.6,0.2-2.8,1-3.3,1.2c-0.2,0.1-0.6,0.1-0.8-0.1C83,5.6,72,2,56.8,2c-8.8,0-16.2,1.1-22,3.1
				c-4.6,1.7-8.6,4.2-11.7,7.4c-0.1,0.1-0.4,0.2-0.5,0.2c-0.3-0.1-2.8-0.9-3.5-1.2l-0.1,0.1c0.6,0.3,3,1.3,3.3,1.5
				c0.3,0.1,0.8,0.4,0.9,0.7c0.1,0.2,2.7,3.7,2.7,3.7l0,0c0,0-1.8-2.7-2.4-3.5c-0.2-0.3-0.2-0.6,0-0.8c3.1-3.2,7-5.6,11.5-7.3
				C40.7,3.7,48,2.7,56.8,2.7c15,0,25.9,3.5,33.2,10.7c0.2,0.2,0.2,0.4,0.1,0.6c-0.3,0.4-1.8,2.9-2.4,3.7l0,0
				c0.6-0.8,2.6-3.7,2.6-3.8c0.2-0.2,0.6-0.5,0.9-0.7C91.4,13.3,93.8,12.2,94.4,11.9L94.4,11.9z"/>
			
				<linearGradient id="SVGID_18_" gradientUnits="userSpaceOnUse" x1="102.424" y1="15.9177" x2="111.0099" y2="15.9177" gradientTransform="matrix(-1 0 0 1 198.6669 0)">
				<stop  offset="0" style="stop-color:#999A99"/>
				<stop  offset="0.1425" style="stop-color:#828281"/>
				<stop  offset="0.3903" style="stop-color:#656464"/>
				<stop  offset="0.5273" style="stop-color:#5B5B5B"/>
			</linearGradient>
			<path class="st33" d="M87.7,17.7l1.5,2.3c0,0,2.2-1.5,4-3.1c1.7-1.5,1.6-1.6,3.1-3.2l-1.7-2c0,0,0.1,0.3-0.3,0.8
				c-0.9,1-4.4,4-5.9,5C87.9,17.9,87.7,17.7,87.7,17.7z"/>
			<path class="st27" d="M20.8,30.5C20.8,30.5,20.8,30.5,20.8,30.5c-0.1-0.1-1.3-2.3-1.8-3.5c-0.5-1.2-1.6-4.3-1.7-4.4
				c0,0,0-0.1,0-0.1c0,0,0.1,0,0.1,0c0,0,1.1,3.2,1.7,4.4C19.6,28.1,20.8,30.4,20.8,30.5C20.9,30.4,20.9,30.4,20.8,30.5
				C20.8,30.5,20.8,30.5,20.8,30.5z"/>
		</g>
	</g>
	<g>
		<path class="st34" d="M100.8,104.1c-2.6,0-4-0.2-4.3-0.3c-2.5-0.6-3.6-3-3.5-5c0-1.9,1-4.3,3.7-5c0.8-0.2,2-0.3,3.6-0.3h7.5v-0.9
			c0-1.4-0.9-1.6-2.6-1.6h-11v-4.1h12.3c2.5,0,4.3,0.3,5.7,1.6c1.3,1.2,1.2,2.7,1.2,4.8v10.8H100.8z M100.9,96.9
			c-0.7,0-1.6,0.1-2.1,0.6c-0.3,0.3-0.4,0.7-0.4,1.1c0,0.5,0.1,0.8,0.4,1.1c0.5,0.5,1.4,0.6,2.1,0.6h6.9v-3.4H100.9z M56,104.1
			l5.8-4.2h7.5v4.2H56z M36.7,104.1c-2.3,0-3.7-0.1-4.2-0.3c-2.5-0.6-3.6-3-3.6-5c0-1.9,1-4.3,3.7-5c0.9-0.2,1.9-0.3,3.4-0.3h7.7
			v-0.9c0-1.4-0.9-1.6-2.6-1.6H30.5v-4.1h11.8c2.5,0,4.3,0.3,5.7,1.6c1.3,1.2,1.2,2.7,1.2,4.8v7.4l18.8-13.8h14.7
			c3,0,4.3,0.1,5.8,0.6c1.6,0.6,2.5,1.3,3.2,2.7c0.8,1.5,0.9,3.7,0.9,5.3c0,1.6-0.1,3.8-0.9,5.3c-0.7,1.4-1.6,2.1-3.2,2.7
			c-1.5,0.5-2.9,0.6-5.8,0.6H71.5V90.3l-18.9,13.8H36.7z M36.8,96.9c-0.9,0-1.5,0.1-2,0.6c-0.3,0.3-0.4,0.7-0.4,1.1
			c0,0.5,0.1,0.8,0.4,1.1c0.4,0.5,1.1,0.6,2,0.6h7v-3.4H36.8z M82.3,99.8c2.3,0,2.9-0.2,3.5-0.6c0.9-0.7,1.2-1.6,1.2-3.8
			c0-2.2-0.3-3.1-1.2-3.8c-0.5-0.4-1.2-0.6-3.5-0.6h-5.1v8.7H82.3z M22.8,104.1V93.8c0-0.9-0.2-1.4-0.6-1.8c-0.4-0.5-1.1-0.7-2-0.7
			H17v12.8h-5.6V91.3H5.7v12.8H0V86.9h21.4c5.2,0,7.1,1.5,7.1,5.4v11.8H22.8z M51.1,91.1v-4.2h13.8l-5.8,4.2H51.1z"/>
		<linearGradient id="SVGID_19_" gradientUnits="userSpaceOnUse" x1="56.6931" y1="87.7393" x2="56.6931" y2="103.2256">
			<stop  offset="0" style="stop-color:#DBDBDC"/>
			<stop  offset="0.72" style="stop-color:#707070"/>
			<stop  offset="1" style="stop-color:#939393"/>
		</linearGradient>
		<path class="st35" d="M100.8,103.2c-2.6,0-3.9-0.2-4.1-0.2c-2-0.5-2.9-2.5-2.9-4.2c0-1.6,0.8-3.6,3-4.2c0.8-0.2,1.8-0.3,3.4-0.3
			h8.4v-1.8c0-2.4-2.3-2.4-3.4-2.4H95.1v-2.4h11.4c2.3,0,3.9,0.2,5.1,1.3c1,0.9,1,2,1,4.2v9.9H100.8z M100.9,96
			c-0.9,0-2,0.1-2.7,0.8c-0.4,0.4-0.6,1-0.6,1.7c0,0.7,0.2,1.3,0.6,1.7c0.7,0.7,1.8,0.8,2.7,0.8h7.7V96H100.9z M58.6,103.2l3.5-2.5
			h6.4v2.5H58.6z M36.7,103.2c-2.4,0-3.6-0.2-4-0.2c-2-0.5-2.9-2.5-2.9-4.2c0-1.6,0.8-3.6,3-4.2c0.8-0.2,1.7-0.3,3.2-0.3h8.5v-1.8
			c0-2.4-2.3-2.4-3.4-2.4h-9.8v-2.4h11c2.3,0,3.9,0.2,5.1,1.3c1,0.9,1,2,1,4.2v9.1l19.9-14.6h14.4c2.9,0,4.2,0.1,5.6,0.6
			c1.4,0.5,2.1,1.1,2.7,2.3c0.7,1.3,0.8,3.4,0.8,4.9c0,1.5-0.1,3.6-0.8,4.9c-0.6,1.2-1.3,1.8-2.7,2.3c-1.4,0.4-2.7,0.6-5.6,0.6H72.4
			V88.6l-20.1,14.6H36.7z M36.8,96c-0.9,0-1.9,0.1-2.6,0.8c-0.4,0.4-0.6,1-0.6,1.7c0,0.7,0.2,1.3,0.6,1.7c0.7,0.7,1.6,0.8,2.6,0.8
			h7.9V96H36.8z M76.4,100.7h5.9c2.3,0,3.2-0.2,4-0.8c1.3-1,1.5-2.3,1.5-4.5c0-2.2-0.2-3.5-1.5-4.5c-0.8-0.6-1.6-0.8-4-0.8h-5.9
			V100.7z M23.6,103.2v-9.5c0-1.1-0.3-1.8-0.8-2.4c-0.6-0.6-1.4-0.9-2.7-0.9h-4v12.8h-3.9V90.4H4.9v12.8h-4V87.7h20.6
			c5.3,0,6.3,1.5,6.3,4.6v10.9H23.6z M51.9,90.3v-2.5h10.3l-3.4,2.5H51.9z"/>
		<linearGradient id="SVGID_20_" gradientUnits="userSpaceOnUse" x1="56.6931" y1="87.7393" x2="56.6931" y2="103.2256">
			<stop  offset="0" style="stop-color:#EFEEEF"/>
			<stop  offset="0.7212" style="stop-color:#C6C6C7"/>
			<stop  offset="1" style="stop-color:#D5D5D4"/>
		</linearGradient>
		<path class="st36" d="M58.6,103.2h9.8v-2.5h-6.4L58.6,103.2z M68.2,100.9v2.1h-9l2.9-2.1H68.2z M111.5,89.1
			c-1.1-1.1-2.8-1.3-5.1-1.3H95.1v2.4h10.1c1.1,0,3.4,0,3.4,2.4v1.8h-8.4c-1.5,0-2.6,0.1-3.4,0.3c-2.2,0.5-3,2.6-3,4.2
			c0,1.7,0.9,3.7,2.9,4.2c0.3,0.1,1.5,0.2,4.1,0.2h11.7v-9.9C112.5,91.1,112.5,90,111.5,89.1z M112.3,93.3v9.7h-11.5
			c-2.6,0-3.8-0.2-4.1-0.2c-1.9-0.5-2.8-2.4-2.8-4c0-1.5,0.8-3.4,2.9-4c0.8-0.2,1.8-0.3,3.3-0.3h8.6v-2c0-2.7-2.5-2.7-3.6-2.7h-9.9
			v-2h11.2c2.2,0,3.9,0.2,4.9,1.3C112.3,90.1,112.3,91.1,112.3,93.3z M34.1,96.7c-0.5,0.5-0.7,1.1-0.7,1.9c0,0.8,0.2,1.4,0.7,1.9
			c0.7,0.8,1.7,0.9,2.7,0.9h8.1v-5.5h-8.1C35.8,95.8,34.8,95.9,34.1,96.7z M44.7,101.1h-7.9c-0.9,0-1.9-0.1-2.6-0.8
			c-0.4-0.4-0.6-1-0.6-1.7c0-0.7,0.2-1.3,0.6-1.7c0.7-0.7,1.6-0.8,2.6-0.8h7.9V101.1z M21.4,87.7H0.9v15.5h4V90.4h7.5v12.8h3.9V90.4
			h4c1.2,0,2,0.3,2.7,0.9c0.6,0.6,0.8,1.3,0.8,2.4v9.5h4.1V92.3C27.7,89.3,26.7,87.7,21.4,87.7z M27.5,103h-3.6v-9.3
			c0-1.2-0.3-2-0.9-2.6c-0.7-0.7-1.5-1-2.8-1H16V103h-3.4V90.2H4.7V103H1.1V88h20.4c5.2,0,6.1,1.4,6.1,4.4V103z M62.2,87.7H51.9v2.5
			h6.9L62.2,87.7z M52.1,90.1V88h9.5l-2.9,2.1H52.1z M88.3,88.3c-1.4-0.4-2.7-0.6-5.6-0.6H68.3l-19.9,14.6v-9.1c0-2.2,0-3.3-1-4.2
			c-1.1-1.1-2.8-1.3-5.1-1.3h-11v2.4h9.8c1.1,0,3.4,0,3.4,2.4v1.8h-8.5c-1.5,0-2.4,0.1-3.2,0.3c-2.2,0.5-3,2.6-3,4.2
			c0,1.7,0.9,3.7,2.9,4.2c0.3,0.1,1.6,0.2,4,0.2h15.6l20.1-14.6v14.6h10.3c2.9,0,4.2-0.1,5.6-0.6c1.4-0.5,2.1-1.1,2.7-2.3
			c0.7-1.3,0.8-3.4,0.8-4.9c0-1.5-0.1-3.6-0.8-4.9C90.4,89.4,89.7,88.8,88.3,88.3z M90.8,100.3c-0.6,1.1-1.3,1.7-2.6,2.2
			c-1.3,0.4-2.6,0.6-5.5,0.6H72.6V88.2L52.3,103H36.7c-2.4,0-3.6-0.2-3.9-0.2c-1.9-0.5-2.8-2.4-2.7-4c0-1.5,0.8-3.4,2.9-4
			c0.8-0.2,1.7-0.3,3.2-0.3h8.7v-2c0-2.7-2.5-2.7-3.6-2.7h-9.6v-2h10.8c2.2,0,3.9,0.2,4.9,1.3c0.9,0.9,0.9,1.9,0.9,4.1v9.5L68.4,88
			h14.3c2.9,0,4.1,0.1,5.5,0.6c1.4,0.5,2,1,2.6,2.2c0.7,1.3,0.7,3.4,0.7,4.8C91.6,96.9,91.5,99,90.8,100.3z M86.4,90.9
			c-0.8-0.6-1.7-0.8-4.1-0.8h-6.1v10.8h6.1c2.4,0,3.3-0.2,4.1-0.8c1.4-1,1.6-2.4,1.6-4.6C88,93.3,87.8,91.9,86.4,90.9z M86.3,99.9
			c-0.8,0.6-1.6,0.8-4,0.8h-5.9V90.3h5.9c2.3,0,3.2,0.2,4,0.8c1.3,1,1.5,2.3,1.5,4.5C87.8,97.6,87.6,99,86.3,99.9z M98,96.7
			c-0.5,0.5-0.7,1.1-0.7,1.9s0.2,1.4,0.7,1.9c0.8,0.8,1.9,0.9,2.9,0.9h7.9v-5.5h-7.9C100,95.8,98.8,95.9,98,96.7z M108.6,101.1h-7.7
			c-0.9,0-2-0.1-2.7-0.8c-0.4-0.4-0.6-1-0.6-1.7c0-0.7,0.2-1.3,0.6-1.7c0.7-0.7,1.8-0.8,2.7-0.8h7.7V101.1z"/>
	</g>
</g>
</svg>
