<svg width="56" height="56" viewBox="0 0 56 56" fill="none" xmlns="http://www.w3.org/2000/svg">
<path fill-rule="evenodd" clip-rule="evenodd" d="M28 54C42.3594 54 54 42.3594 54 28C54 13.6406 42.3594 2 28 2C13.6406 2 2 13.6406 2 28C2 42.3594 13.6406 54 28 54ZM28 56C43.464 56 56 43.464 56 28C56 12.536 43.464 0 28 0C12.536 0 0 12.536 0 28C0 43.464 12.536 56 28 56Z" fill="#281812"/>
<path d="M8.47705 28.92C8.47705 32.72 10.6431 35.228 13.4931 35.228C16.0011 35.228 17.8061 33.347 17.8061 30.763C17.8061 28.236 16.1151 26.336 13.5691 26.336C12.3911 26.336 11.1751 26.83 10.6051 27.59H10.5671C10.8521 25.367 12.1441 23.087 14.5761 23.087C15.2411 23.087 16.0771 23.296 16.5141 23.524L17.1221 21.909C16.3241 21.529 15.3931 21.358 14.5001 21.358C10.3581 21.358 8.47705 25.462 8.47705 28.92ZM13.5501 33.499C11.6311 33.499 10.4531 31.333 10.4531 29.889C10.4531 28.673 11.7831 27.913 13.1891 27.913C14.9181 27.913 15.9441 29.091 15.9441 30.763C15.9441 32.302 14.9941 33.499 13.5501 33.499Z" fill="#281812"/>
<path d="M20.061 30.402H25.609V28.768H20.061V30.402Z" fill="#281812"/>
<path d="M28.5281 34.677C29.3451 35.076 30.2761 35.228 31.1311 35.228C35.2921 35.228 37.1731 31.124 37.1731 27.685C37.1731 23.847 35.0261 21.358 32.1571 21.358C29.6491 21.358 27.8441 23.201 27.8441 25.842C27.8441 28.331 29.5351 30.25 32.0811 30.25C33.2591 30.25 34.4941 29.756 35.0451 28.996H35.0831C34.7981 31.219 33.5251 33.499 31.0551 33.499C30.3331 33.499 29.5921 33.271 29.1361 33.043L28.5281 34.677ZM32.4611 28.673C30.7511 28.673 29.7251 27.476 29.7251 25.842C29.7251 24.265 30.6371 23.087 32.1761 23.087C33.8861 23.087 35.2161 25.044 35.2161 26.792C35.2161 27.742 33.9811 28.673 32.4611 28.673Z" fill="#281812"/>
<path d="M39.8651 34.677C40.6821 35.076 41.6131 35.228 42.4681 35.228C46.6291 35.228 48.5101 31.124 48.5101 27.685C48.5101 23.847 46.363 21.358 43.494 21.358C40.986 21.358 39.181 23.201 39.181 25.842C39.181 28.331 40.8721 30.25 43.4181 30.25C44.5961 30.25 45.8311 29.756 46.382 28.996H46.4201C46.1351 31.219 44.8621 33.499 42.3921 33.499C41.6701 33.499 40.9291 33.271 40.473 33.043L39.8651 34.677ZM43.798 28.673C42.0881 28.673 41.062 27.476 41.062 25.842C41.062 24.265 41.974 23.087 43.5131 23.087C45.223 23.087 46.5531 25.044 46.5531 26.792C46.5531 27.742 45.3181 28.673 43.798 28.673Z" fill="#281812"/>
</svg>
