<svg width="45" height="58" viewBox="0 0 45 58" fill="none" xmlns="http://www.w3.org/2000/svg">
<path fill-rule="evenodd" clip-rule="evenodd" d="M32.5957 17.4545C32.5957 26.9451 25.4426 34.9091 16.2979 34.9091C7.15315 34.9091 0 26.9451 0 17.4545C0 7.96402 7.15315 0 16.2979 0C25.4426 0 32.5957 7.96402 32.5957 17.4545ZM16.2979 32.9091C24.1944 32.9091 30.5957 25.9899 30.5957 17.4545C30.5957 8.91924 24.1944 2 16.2979 2C8.40138 2 2 8.91924 2 17.4545C2 25.9899 8.40138 32.9091 16.2979 32.9091Z" fill="#281812"/>
<path fill-rule="evenodd" clip-rule="evenodd" d="M13.9399 38.5425C15.356 37.5581 16.1915 36.905 16.1915 35.6364H18.1915C18.1915 38.0275 16.4462 39.2381 15.1869 40.1115C15.1514 40.1362 15.1162 40.1606 15.0815 40.1847C13.6654 41.1691 12.8298 41.8222 12.8298 43.0909C12.8298 44.3596 13.6654 45.0127 15.0815 45.9971C15.1162 46.0212 15.1514 46.0456 15.1869 46.0703C16.4462 46.9437 18.1915 48.1543 18.1915 50.5454C18.1915 52.9366 16.4462 54.1472 15.1869 55.0206C15.1514 55.0453 15.1162 55.0697 15.0815 55.0938C13.6654 56.0782 12.8298 56.7313 12.8298 58H10.8298C10.8298 55.6089 12.5752 54.3982 13.8345 53.5248C13.87 53.5001 13.9052 53.4758 13.9399 53.4516C15.356 52.4672 16.1915 51.8141 16.1915 50.5454C16.1915 49.2768 15.356 48.6237 13.9399 47.6393C13.9052 47.6151 13.87 47.5907 13.8345 47.5661C12.5752 46.6926 10.8298 45.482 10.8298 43.0909C10.8298 40.6998 12.5752 39.4892 13.8345 38.6157C13.87 38.5911 13.9052 38.5667 13.9399 38.5425Z" fill="#281812"/>
<ellipse cx="16.7446" cy="36.0909" rx="3.12766" ry="3.18182" fill="#281812"/>
<path fill-rule="evenodd" clip-rule="evenodd" d="M36.0596 4.16827C34.3657 3.80075 32.2314 3.90099 29.5649 4.76904L28.9458 2.86727C31.8644 1.91717 34.3657 1.7542 36.4837 2.21375C38.6109 2.67531 40.286 3.75115 41.5596 5.16558C44.0752 7.95923 45 12.033 45 15.3589C45 18.7552 43.8458 22.3225 41.8972 25.0588C39.9514 27.7911 37.1133 29.8182 33.7234 29.8182V27.8182C36.256 27.8182 38.5561 26.3025 40.2681 23.8986C41.9772 21.4987 43 18.3363 43 15.3589C43 12.311 42.1376 8.79625 40.0734 6.5039C39.0572 5.37533 37.7442 4.5338 36.0596 4.16827Z" fill="#281812"/>
<path fill-rule="evenodd" clip-rule="evenodd" d="M31.367 30.8974C32.4496 30.1481 32.9468 29.731 32.9468 28.9362H34.9468C34.9468 30.8582 33.5333 31.8329 32.6006 32.4761C32.5682 32.4984 32.5364 32.5203 32.5053 32.5419C31.4228 33.2911 30.9255 33.7082 30.9255 34.503C30.9255 35.2977 31.4228 35.7148 32.5053 36.4641C32.5364 36.4856 32.5682 36.5075 32.6006 36.5298C33.5333 37.173 34.9468 38.1477 34.9468 40.0697C34.9468 41.9916 33.5333 42.9663 32.6006 43.6095C32.5682 43.6318 32.5364 43.6537 32.5053 43.6753C31.4228 44.4245 30.9255 44.8416 30.9255 45.6364H28.9255C28.9255 43.7145 30.3391 42.7397 31.2718 42.0966C31.3041 42.0742 31.3359 42.0523 31.367 42.0308C32.4496 41.2815 32.9468 40.8644 32.9468 40.0697C32.9468 39.2749 32.4496 38.8578 31.367 38.1086C31.3359 38.087 31.3041 38.0651 31.2718 38.0428C30.3391 37.3996 28.9255 36.4249 28.9255 34.503C28.9255 32.581 30.3391 31.6063 31.2718 30.9631C31.3041 30.9408 31.3359 30.9189 31.367 30.8974Z" fill="#281812"/>
<ellipse cx="33.6116" cy="29.2757" rx="2.34574" ry="2.37603" fill="#281812"/>
</svg>
