<svg width="56" height="56" viewBox="0 0 56 56" fill="none" xmlns="http://www.w3.org/2000/svg">
<path fill-rule="evenodd" clip-rule="evenodd" d="M28 54C42.3594 54 54 42.3594 54 28C54 13.6406 42.3594 2 28 2C13.6406 2 2 13.6406 2 28C2 42.3594 13.6406 54 28 54ZM28 56C43.464 56 56 43.464 56 28C56 12.536 43.464 0 28 0C12.536 0 0 12.536 0 28C0 43.464 12.536 56 28 56Z" fill="#281812"/>
<circle cx="17.5" cy="18.5" r="2.5" fill="#281812"/>
<circle cx="38.5" cy="18.5" r="2.5" fill="#281812"/>
<path fill-rule="evenodd" clip-rule="evenodd" d="M11.6681 31.5785C14.53 37.7349 20.7679 42 28 42C35.2321 42 41.47 37.7349 44.3319 31.5785L46.1455 32.4215C42.9679 39.2572 36.0389 44 28 44C19.9612 44 13.0321 39.2572 9.85449 32.4215L11.6681 31.5785Z" fill="#281812"/>
</svg>
