<svg width="160" height="131" viewBox="0 0 160 131" fill="none" xmlns="http://www.w3.org/2000/svg">
<path d="M59.8468 69.6062C57.3401 71.3267 54.8334 73.2038 52.2484 74.8461C50.3684 76.0193 48.8018 77.6617 46.5301 78.2091C46.4518 78.0527 46.3734 77.9745 46.2951 77.8181C46.6084 77.3488 47.0001 76.9578 47.3134 76.4885C48.2534 76.4103 48.8801 75.8629 49.5851 74.9243C48.2534 75.159 47.6268 75.6282 47.3134 76.5667C46.6084 76.3321 46.0601 76.7231 45.4334 77.036C40.7334 79.7733 36.1118 82.5888 31.4118 85.3261C26.5551 88.1416 21.6201 90.8007 16.7634 93.6162C13.0818 95.7279 9.55678 97.9177 5.87512 100.029C5.40512 100.264 4.85679 100.499 4.30845 100.733C4.23012 100.264 4.07345 99.8729 4.23012 99.7947C4.70012 99.4037 5.24845 99.0126 5.87512 98.6998C11.2801 95.5714 16.6068 92.5213 22.0118 89.393C31.0201 84.153 40.0284 78.8348 48.9584 73.5948C53.7368 70.7793 58.5151 67.9638 63.2934 65.2265C64.8601 64.3662 66.4268 63.5841 68.0718 62.7238C68.4634 62.8802 68.8551 63.1148 69.3251 63.3495C70.4218 62.802 71.2051 62.0199 71.6751 60.7686C71.9884 59.8301 71.6751 59.3608 70.5001 59.2044C70.3434 59.2044 70.1868 59.1262 70.0301 59.048C70.1084 58.3441 70.5784 58.0313 71.2051 58.1095C72.7718 58.3441 73.5551 60.1429 72.6151 61.316C71.6751 62.5674 70.5784 63.7405 69.6384 64.9918C69.1684 65.5393 68.7768 66.165 68.1501 66.8689C69.2468 67.5727 70.2651 68.042 71.3618 68.042C72.6934 68.042 74.1034 68.3548 75.2784 67.8856C76.6101 67.3381 77.7851 66.3214 78.8034 65.2265C80.2134 63.6623 81.7018 62.7238 83.8168 62.5674C84.6001 62.4892 85.4618 62.1763 86.2451 61.8635C87.1068 61.5507 87.9684 61.0814 88.9084 60.6122C88.9084 59.9865 88.8301 59.3608 88.8301 58.7351C88.7518 57.171 89.6134 55.7632 91.0234 55.2157C92.0418 54.8247 92.8251 55.1375 93.5301 55.8414C93.3734 55.9978 93.2951 56.2325 93.1384 56.2325C92.5118 56.3107 92.0418 56.6235 92.1984 57.3274C92.3551 58.0313 92.9818 58.0313 93.5301 58.0313C93.9218 58.0313 94.2351 57.8749 94.6268 57.7184C95.8801 57.171 96.1934 56.0761 95.4884 54.9811C95.0184 54.199 94.3918 53.4169 94.0001 52.5567C93.1384 50.7579 92.6684 48.8808 93.2951 46.8474C93.6868 45.5961 94.0001 44.3447 94.4701 42.7806C93.8434 41.9985 92.5901 41.3728 92.5118 39.8868C92.4334 38.3227 92.6684 36.9149 93.4518 35.6636C94.3134 35.3507 95.0184 35.4289 95.4101 36.2892C95.6451 36.9149 94.8618 36.8367 94.5484 37.1495C94.8618 37.3842 95.0968 37.7752 95.4101 37.9316C95.7234 38.0098 96.2718 38.088 96.4284 37.8534C96.9768 37.0713 97.5251 36.2892 97.7601 35.4289C98.1518 33.943 96.8201 32.457 95.1751 32.457C94.5484 32.457 93.9218 32.6916 93.2168 32.7698C90.8668 33.1609 89.6918 32.3788 89.1434 30.0325C89.0651 29.7979 89.0651 29.4851 88.9868 29.1722C88.9868 29.0158 88.8301 28.8594 88.7518 28.6248C87.8901 28.3119 87.1851 28.8594 86.4018 29.0158C84.8351 29.4069 83.2684 28.7812 82.3284 27.2952C82.2501 27.1388 82.3284 26.9042 82.3284 26.7478C82.4851 26.6696 82.6418 26.5132 82.7984 26.5132C83.5818 26.6696 84.0518 26.3567 84.3651 25.6529C84.6001 24.949 84.6784 24.1669 84.1301 23.5412C83.1118 22.2899 81.4668 21.8988 80.0568 22.6027C79.3518 22.9155 78.7251 23.3066 78.0984 23.7758C76.7668 24.7144 75.2784 25.2618 73.7118 25.5746C70.2651 26.3567 67.7584 24.6361 67.2884 21.1168C67.2101 20.7257 67.2101 20.3347 67.2101 20.0218L67.1318 20.1C67.6801 20.3347 67.9151 20.7257 68.0718 21.3514C68.5418 23.3848 69.9518 24.7926 71.8318 24.7926C74.2601 24.8708 76.4534 24.1669 78.1768 22.3681C78.8034 21.7424 79.1951 20.8821 79.7434 20.1782C80.2918 19.8654 80.9184 19.5526 81.4668 19.2397C82.2501 20.1 80.6051 20.4129 81.0751 21.1168C83.5818 21.586 83.8168 21.6642 85.7751 24.0887C86.0101 23.072 86.2451 22.0553 86.4801 21.0385C86.5584 21.0385 86.6368 21.0385 86.7151 21.0385C86.7934 21.977 86.7934 22.9938 86.8718 24.1669C87.2634 23.8541 87.4201 23.6976 87.6551 23.5412C87.8118 23.3848 88.0468 23.2284 88.1251 23.2284C89.5351 24.6361 87.7334 25.8093 87.9684 27.2952C89.6134 26.1221 90.1618 24.7144 90.3968 23.1502C90.6318 21.195 90.4751 19.2397 89.5351 17.4409C89.3784 17.2063 89.2218 16.9717 88.9868 16.8153C88.1251 16.1114 87.2634 15.4075 86.4018 14.7036C85.7751 14.1562 85.0701 14.078 84.2868 14.2344C83.1901 14.469 82.4068 15.0165 81.6234 15.7203C79.5868 17.5974 77.2368 17.9102 74.5734 17.2845C73.3201 16.9717 72.6151 16.346 72.4584 15.0165C72.4584 14.9383 72.2234 14.8601 72.0668 14.7818C71.3618 15.0947 71.2051 15.6421 71.2834 16.4242C71.5184 18.3794 72.6151 19.8654 74.1818 20.8821C72.6151 21.8988 71.4401 20.1782 70.0301 20.3347C69.9518 20.4911 69.8734 20.6475 69.9518 20.7257C70.1868 21.4296 70.4218 22.0553 70.6568 22.7591L70.7351 22.6809C70.6568 22.6809 70.5001 22.6809 70.4218 22.6027C68.9334 21.4296 68.3068 19.6308 68.6201 17.5191C69.6384 17.7538 69.1684 19.3962 70.3434 19.4744C70.7351 18.1448 70.7351 18.1448 69.9518 16.1896C70.8918 13.9998 72.3018 12.201 74.5734 11.2625C74.6518 11.2625 74.8084 11.4189 74.9651 11.4971C74.4951 11.9663 74.1034 12.4356 73.5551 12.983C74.4951 13.7651 75.4351 14.2344 76.4534 13.9998C77.2368 13.8433 77.9418 13.2177 78.4901 12.6702C79.0384 12.201 79.3518 11.4971 79.7434 10.8714C80.1351 10.2457 80.5268 9.62007 80.9184 9.07261C81.8584 9.54186 82.4851 10.0111 82.7201 10.9496C82.7984 11.3407 83.0334 11.5753 83.5818 11.4971C83.9734 10.4022 84.5218 9.30723 83.8951 7.97768C82.6418 7.89948 81.4668 7.89948 80.2918 7.82127C79.9001 8.1341 79.5868 8.29052 79.3518 8.60335C78.5684 9.69828 77.4718 10.0111 76.1401 9.85469C75.7484 9.77648 75.4351 9.77648 75.0434 9.69828C72.7718 9.46365 71.0484 10.4022 69.9518 12.4356C69.7168 12.9048 69.4818 13.3741 69.0901 14.078C68.6201 12.8266 69.7951 12.201 69.4034 11.106C69.0901 10.1675 69.3251 9.07261 69.2468 8.05589C69.3251 7.97768 69.4818 7.89948 69.5601 7.74306C71.0484 7.11739 71.6751 5.70963 72.5368 4.5365L72.4584 4.61471C72.7718 4.77113 73.0851 4.92754 73.4768 5.08396C72.9284 6.10068 71.6751 6.49172 71.3618 7.82127C72.9284 7.66485 73.9468 6.25709 75.8268 6.25709C74.8084 7.11739 74.0251 7.74306 73.0068 8.60335C73.9468 8.68156 74.6518 8.60335 75.2001 8.75977C76.7668 9.15081 78.0984 8.91619 79.1951 7.50843C79.5084 7.03918 80.2918 6.88276 80.9184 6.80455C81.5451 6.72634 82.2501 6.96097 82.8768 6.88276C84.0518 6.72634 84.8351 7.1956 85.3051 8.21231C86.6368 7.50843 87.9684 6.80455 89.2218 6.17888C88.0468 4.69292 87.8901 4.5365 86.0884 4.84934C85.5401 4.92754 84.9918 5.31859 84.6784 4.61471C85.7751 3.91083 86.8718 3.75441 88.1251 4.06725C88.7518 4.22367 89.3784 4.45829 90.0051 4.61471C90.1618 4.77113 90.3184 4.84934 90.3968 5.00575C90.7101 5.70963 90.9451 6.49172 91.3368 7.1956C91.7284 7.82127 92.3551 8.29052 92.8251 8.83798C92.9034 8.9944 92.9034 9.15081 92.9818 9.38544L92.8251 9.46365C92.1984 9.07261 91.5718 8.68156 91.0234 8.21231C89.8484 7.1956 88.5951 7.35201 87.4201 8.1341C86.3234 8.83798 85.3834 9.62007 84.9134 11.0278C84.5218 12.201 83.6601 13.1395 82.1718 12.8266C82.0934 12.592 82.0151 12.4356 82.0151 12.2792C82.0151 11.8099 82.2501 11.2625 81.7018 11.0278C80.9968 10.715 80.7618 11.3407 80.4484 11.8099C80.2134 12.1227 80.1351 12.5138 79.9001 12.8266C78.2551 15.2511 76.7668 15.7203 73.8684 14.7036C73.3984 15.6421 73.4768 16.1896 74.1818 16.4242C76.2968 17.1281 78.4118 17.2845 80.3701 15.8768C81.3101 15.2511 82.1718 14.5472 83.1118 13.9215C84.5218 12.983 85.9318 12.983 87.2634 14.2344C88.6734 15.5639 90.5534 16.4242 91.1018 18.4577C91.4934 18.3794 91.7284 18.3794 91.9634 18.3012C92.0418 19.0051 92.1201 19.7872 92.2768 20.4911C92.4334 21.0385 92.5118 21.586 91.9634 21.977C91.8068 22.1335 91.6501 22.5245 91.7284 22.7591C92.3551 24.1669 91.4151 25.1054 90.7101 25.9657C89.3784 27.6081 89.9268 29.3287 90.3968 31.0493C90.6318 31.9096 91.4934 32.3006 92.4334 32.1442C93.1384 31.9878 93.9218 31.7531 94.6268 31.6749C97.1334 31.2839 99.0918 33.1609 98.7001 35.6636C98.4651 37.2277 97.7601 38.4791 96.1934 39.3394C95.5668 39.1048 94.7834 38.7919 93.9218 38.4009C93.6084 39.4958 93.4518 40.3561 94.1568 41.1382C94.8618 41.8421 95.8018 42.0767 96.7418 41.7639C98.0734 41.2946 99.3268 40.8253 100.658 40.2779C101.05 40.6689 101.442 41.1382 101.912 41.6856C101.05 42.937 100.267 44.3447 100.188 45.9871C100.188 46.3 99.8751 46.691 99.6401 46.8474C98.5434 47.4731 98.7001 48.3334 98.8568 49.1937C99.4834 49.7411 99.9534 49.1937 100.502 49.1937C101.99 49.0373 102.617 49.6629 102.93 51.5399C102.303 51.5399 101.677 51.6181 100.815 51.6181C100.893 52.4002 101.05 53.1041 101.128 53.8862C101.99 53.5734 102.617 53.2605 103.243 53.1823C103.87 53.1041 104.497 53.3387 105.202 53.4952C104.34 55.294 102.46 54.199 101.363 55.2157C102.068 56.076 103.008 56.3107 104.027 56.3889C105.202 56.5453 105.907 55.9196 106.22 54.6683C106.455 53.7298 106.69 52.8695 106.925 51.931C107.395 50.1322 107.395 50.1322 106.533 48.0205C107.082 48.0205 107.473 48.0205 107.943 48.0988C108.492 50.2886 108.492 50.2886 107.865 53.3387C108.962 52.6349 109.353 51.7746 109.353 50.7579C109.353 49.5847 109.118 48.568 107.865 48.0988C106.612 47.2385 105.437 46.4564 104.183 45.5961C103.478 45.9871 103.635 46.691 104.105 47.1603C104.575 47.7859 105.28 48.2552 106.142 49.1155C104.34 49.1155 103.4 48.177 102.46 47.5513C102.303 45.6743 101.442 43.8755 103.087 41.9985C103.322 42.5459 103.478 42.8588 103.635 43.2498C103.792 43.1716 103.948 43.1716 104.027 43.0934C104.575 42.2331 105.123 41.3728 105.672 40.5125C107.082 40.3561 108.257 39.9651 108.1 38.2445C108.1 38.0098 108.57 37.8534 108.805 37.6188V37.5406C109.04 37.697 109.197 37.9316 109.432 37.9316C109.588 37.9316 109.745 37.8534 109.902 37.697C112.565 35.0379 112.565 33.5519 109.98 30.8928C109.197 30.1108 108.257 29.4851 107.395 28.7812C107.473 27.7645 107.787 26.9042 108.727 26.4349C109.432 26.0439 109.902 25.5746 110.058 24.7144C110.215 23.6194 110.058 22.6809 109.51 21.7424C107.708 19.0051 104.497 18.7705 102.303 19.7872C101.285 20.2565 100.423 20.9603 99.8751 22.4463C99.7184 21.6642 99.7184 21.2732 99.6401 20.8039C98.7784 20.1782 97.2901 20.8821 96.8201 19.5526C96.7418 19.3962 96.8984 19.2397 96.9768 18.9269C97.5251 19.2397 98.0734 19.6308 98.7001 19.709C99.7184 19.8654 100.737 19.7872 101.677 19.2397C103.322 18.223 105.123 17.832 107.003 18.6141C108.022 19.0051 109.902 18.0666 110.215 16.9717C110.607 15.3293 110.45 13.8433 109.118 12.592C108.962 12.8266 108.805 12.983 108.727 13.1395C108.257 14.078 107.865 15.2511 106.69 15.2511C105.202 15.2511 103.635 15.2511 102.538 13.9215C102.147 13.4523 101.677 12.8266 101.677 12.201C101.677 11.0278 101.207 10.0893 100.893 9.07261C100.11 6.64814 100.11 6.56993 97.0551 5.47501C97.6818 6.49172 98.4651 7.27381 98.8568 8.29052C99.1701 9.22902 98.9351 10.3239 99.0918 11.3407C99.2484 12.8266 99.4051 12.983 101.128 14.469C100.58 14.7818 100.11 15.1729 99.4834 15.5639C98.2301 14.6254 97.6818 13.4523 97.8384 11.9663C97.8384 11.6535 97.9168 11.4189 97.9951 11.106C98.2301 10.4022 98.7001 9.77648 98.3868 8.9944C97.9951 7.97768 97.2901 7.1956 96.4284 6.64814C95.6451 6.10067 94.7834 5.78784 93.9218 5.31859V5.3968C93.9218 5.31859 94.0001 5.24038 94.0001 5.16217C93.6868 2.11203 92.5118 1.09532 89.5351 1.01711C88.9084 1.01711 88.2818 0.860691 87.2634 0.704273C88.7518 -0.156023 89.9268 -0.077814 91.1018 0.156812C91.8068 0.31323 92.5118 0.626065 93.2168 0.938899C94.0784 1.32994 94.7051 1.8774 94.8618 2.97233C95.0968 4.38008 95.3318 4.45829 96.7418 4.61471C97.2901 4.69292 97.8384 4.69292 98.3868 4.84934C101.363 5.94426 102.852 8.1341 102.773 11.2625C102.695 13.5305 104.575 14.2344 106.768 13.8433C106.925 13.8433 107.082 13.6087 107.16 13.5305C107.238 13.2959 107.317 12.983 107.395 12.592C106.69 12.201 105.985 11.8099 105.123 11.3407C105.75 10.0893 106.768 9.62007 108.022 9.54186C109.275 9.54186 110.137 10.0893 110.607 11.3407C110.842 11.9663 110.998 12.592 111.312 13.1395C112.33 15.1729 111.938 16.8935 110.607 18.6141C110.372 18.9269 110.137 19.1615 109.823 19.5526C110.685 20.9603 111.625 22.3681 111.468 24.1669C111.312 25.9657 110.215 26.9824 108.962 27.8427C108.962 28.7812 109.667 29.0158 110.137 29.4069C110.998 30.2672 111.86 31.1275 112.722 31.9878C113.662 33.0045 113.662 34.1776 113.427 35.4289C113.348 35.9764 113.035 36.5239 112.643 36.8367C111.703 37.7752 110.685 38.5573 109.667 39.4176C107.943 40.9036 106.377 42.4677 105.75 44.6576C106.063 45.7525 106.925 46.3 107.787 46.6128C110.058 47.4731 110.842 49.1937 110.45 51.5399C110.45 51.6964 110.528 51.931 110.528 52.0874C111.155 52.5567 111.625 52.4002 111.782 51.6964C112.095 50.2886 112.878 49.1155 113.583 47.9423C114.367 46.7692 115.463 46.0653 116.795 45.9871C118.44 45.9089 120.163 45.5179 121.573 46.9256C121.808 47.1603 122.592 47.0038 123.14 47.0038C123.218 45.6743 123.062 44.5012 123.297 43.328C123.453 42.7024 124.237 42.2331 124.707 41.6856C124.472 42.7024 124.158 43.7191 124.08 44.7358C123.923 45.7525 124.315 46.691 125.333 47.0038C126.743 47.3949 127.448 48.4116 127.997 49.6629C128.153 50.054 128.153 50.6014 128.858 50.6014C129.172 49.4283 130.112 48.2552 128.858 46.7692C129.642 46.8474 130.19 47.0038 130.738 46.9256C131.287 46.8474 131.835 46.5346 132.383 46.4564C133.95 46.2217 134.89 47.0038 135.203 48.8026C134.733 48.7244 134.342 48.568 133.872 48.568C132.932 48.568 132.462 49.1937 132.54 49.9758C132.618 50.8361 133.245 51.3835 134.028 51.3053C134.577 51.2271 135.125 51.0707 135.673 50.9143C136.613 50.5232 137.553 50.1322 138.493 49.7411C138.65 49.3501 138.728 48.8808 138.885 48.4898C139.512 48.0988 139.668 47.6295 139.277 46.9256C138.807 46.1435 138.493 46.3782 138.102 46.8474C138.415 47.3949 138.65 47.9423 138.963 48.568C138.102 48.0988 137.083 48.0988 136.222 47.3949C136.535 46.9256 136.77 46.5346 137.083 46.1435L137.005 46.2217C137.318 45.8307 137.788 45.4397 138.023 44.9704C138.258 44.5012 139.198 44.7358 138.963 43.7973C136.613 42.7024 134.42 42.4677 132.383 44.5794C132.07 44.8922 131.678 45.205 131.287 45.4397C129.642 46.3 128.075 45.7525 127.605 43.8755C127.37 42.937 127.37 41.9203 127.292 40.8253C126.352 41.1382 125.49 41.3728 124.628 41.6856C125.177 40.4343 126.117 39.8086 127.448 39.8086C128.153 39.8086 128.858 39.8868 129.955 39.8868C129.563 40.4343 129.485 40.7471 129.25 40.9036C128.075 41.7638 127.918 42.8588 128.467 44.1101C129.72 44.7358 130.817 44.6576 131.757 43.6409C132.148 43.2498 132.618 42.8588 133.01 42.5459C133.323 42.3113 133.637 42.0767 134.028 42.0767C136.378 41.9203 138.728 42.1549 140.687 43.7191C141.548 44.4229 142.097 45.2832 142.253 46.3C142.41 47.082 142.41 47.9423 142.488 48.8808C143.193 49.0373 143.977 49.1155 144.682 49.2719C146.17 49.5847 147.58 50.2104 148.677 51.2271C149.93 52.4784 150.713 53.8862 150.478 55.7632C150.322 56.7799 150.635 57.4838 151.34 58.2659C153.142 60.1429 153.142 60.1429 153.455 62.6456C157.058 65.2265 157.137 65.3829 157.215 69.6844C157.45 69.8408 157.763 69.9972 158.155 70.0754C159.722 70.7011 160.27 71.5614 159.878 73.0473C159.487 74.7679 158.625 76.1757 156.823 76.8014C156.745 77.427 156.745 77.9745 156.667 78.5219C156.588 79.9297 155.962 80.9464 154.943 81.8849C153.063 83.6055 153.142 83.6837 152.437 85.7954C153.063 86.4992 153.612 85.4825 154.395 85.7171C155.1 86.421 154.787 87.2031 154.16 87.8288C152.202 89.9404 150.478 90.2533 148.363 89.1583C147.972 88.9237 147.58 88.6891 147.11 88.3763C146.875 88.4545 146.562 88.4545 146.327 88.5327C144.212 90.0186 142.097 91.5828 139.982 93.147C139.12 93.7727 138.65 94.7112 138.572 95.8061C138.493 96.4317 138.65 96.9792 139.198 97.292C139.668 97.6049 140.295 97.6049 140.765 97.2138C141 96.9792 141.313 96.7446 141.783 96.2753C141.94 97.1356 142.175 97.7613 142.097 98.387C142.018 98.8562 141.627 99.4037 141.235 99.7947C140.138 100.811 138.807 101.124 137.318 100.655C135.752 100.108 134.107 99.7165 132.462 99.2473C130.973 100.733 131.678 102.219 132.462 103.471C130.66 104.644 129.093 103.783 127.605 103.627C126.665 104.096 126.195 105.504 124.785 105.113V105.191C125.177 104.722 125.647 104.253 126.038 103.705C126.352 103.158 126.665 102.532 125.96 101.985C125.882 101.985 125.725 101.985 125.725 101.985C125.098 103.314 124.315 104.487 122.513 103.862C122.435 103.862 122.122 104.409 121.887 104.8C122.513 105.035 123.062 105.269 123.532 105.504V105.426C122.67 106.286 121.652 106.208 120.633 105.895C120.242 105.817 119.928 105.348 119.458 104.956C120.947 104.018 122.357 103.158 121.417 100.968C120.32 101.281 119.302 101.515 118.205 101.828C117.97 103.314 118.283 104.722 118.518 106.051C118.988 109.962 119.537 113.872 120.007 117.783C120.007 118.096 120.085 118.33 120.085 118.643C120.085 119.034 119.928 119.425 119.458 119.425C119.223 119.425 118.91 119.112 118.91 118.956C118.753 118.096 118.597 117.313 118.518 116.453C118.048 112.777 117.578 109.023 117.108 105.348C117.03 105.035 116.873 104.722 116.638 104.018C116.638 108.398 116.56 112.465 116.482 116.453C116.482 116.61 116.247 116.688 116.09 116.844C115.385 116.688 115.385 116.062 115.385 115.515C115.385 112.621 115.385 109.727 115.385 106.834C115.385 105.817 115.228 104.8 115.15 103.314C114.445 104.409 114.523 105.191 114.445 105.973C114.053 111.135 113.662 116.219 113.348 121.38C113.192 123.179 113.113 124.9 112.957 126.699C112.878 127.246 112.722 127.872 111.86 127.637C111.782 127.402 111.625 127.168 111.625 126.933C112.487 116.766 113.27 106.677 114.132 96.4317C114.993 96.1971 115.777 95.5714 116.952 95.8061C117.265 97.3703 117.657 99.0126 117.97 100.655C120.947 100.968 122.513 98.9344 123.845 95.3368C124.472 95.2586 124.628 95.7279 124.55 96.1971C124.393 96.8228 124.158 97.4485 123.845 97.9959C123.532 98.6998 122.983 99.2473 122.748 99.9511C122.592 100.342 122.827 100.968 122.983 101.515C124.707 100.577 124.628 99.0126 124.707 97.6831C125.49 96.9792 126.665 97.2138 126.978 95.9625C126.587 95.8843 126.117 95.8061 125.725 95.6497C125.725 95.4932 125.647 95.2586 125.725 95.1804C126.195 94.7112 126.587 94.1637 126.43 93.4598C126.117 92.1303 126.508 90.8789 126.665 89.5494H126.587C127.683 89.4712 128.623 89.7058 129.485 90.4097C130.347 91.1136 131.287 91.7392 132.148 92.3649C132.227 92.9906 132.227 93.538 132.305 94.0855C132.54 94.1637 132.697 94.2419 132.853 94.2419C134.89 93.9291 136.77 93.2252 138.65 92.2867C141.235 91.0353 143.663 89.4712 146.092 87.7506C145.857 87.1249 145.622 86.5774 145.465 86.03C145.23 85.9518 144.995 85.8736 144.838 85.8736C143.585 86.4992 142.332 87.1249 140.843 86.7339C138.337 86.1082 137.162 83.9184 138.337 81.5721C138.728 80.7118 139.355 80.0079 139.825 79.2258C140.06 78.8348 140.452 78.5219 140.765 78.1309C142.723 75.8629 142.88 75.3154 142.645 72.3435C142.802 72.2653 143.115 72.187 143.115 72.187C143.898 73.282 144.838 73.8294 146.17 73.673C146.327 73.673 146.562 73.9858 146.797 74.1423C147.345 74.6897 147.345 75.3154 147.188 75.9411C146.718 77.6617 146.248 79.304 145.7 81.181C146.483 80.4772 147.267 79.7733 148.05 79.1476C149.225 78.2091 149.538 77.1142 148.677 75.7064C148.442 75.3154 148.442 74.8461 149.068 74.4551C149.93 75.2372 150.792 76.0975 152.202 75.3154C152.358 75.2372 152.75 75.4718 152.985 75.55C153.69 75.8629 154.395 76.2539 155.257 76.6449C155.1 75.6282 154.552 75.159 153.69 74.9243C152.593 74.6115 151.497 74.4551 150.4 74.1423C149.225 73.7512 148.05 73.673 146.875 74.1423C144.682 71.5614 144.525 71.2485 144.368 68.3548C143.35 67.0253 142.175 66.8688 140.765 67.7291C139.747 68.3548 138.572 68.6676 137.475 69.2151C136.77 68.1202 137.945 67.8856 138.258 67.2599L138.18 67.3381C138.807 67.4945 139.433 67.4945 139.825 66.7124C137.867 65.9303 135.987 65.3047 134.655 67.7291L134.733 67.6509C133.088 68.042 133.167 69.5279 132.853 70.7793C132.54 71.796 132.853 72.8127 133.558 73.673C133.793 73.9858 134.107 74.2205 134.42 74.2987C135.517 74.6115 136.535 74.9243 137.632 75.159C137.788 75.2372 138.102 74.9243 138.572 74.6897C137.397 74.1423 136.457 73.673 135.517 73.2038C135.908 72.4217 136.378 73.1255 136.692 72.9691C137.475 72.5781 137.083 71.8742 137.24 71.405C137.71 69.919 138.65 69.1369 140.138 69.3715C141.157 69.5279 142.097 69.919 143.115 70.2318C143.272 70.31 143.35 70.6229 143.507 70.8575C142.802 71.405 142.488 70.6229 141.94 70.6229C141.235 70.6229 140.452 70.3882 139.747 70.5447C138.337 70.7793 137.867 72.2652 138.885 73.282C139.355 73.7512 140.06 74.064 140.687 74.4551C139.825 75.6282 138.65 76.2539 137.318 76.1757C135.752 76.0193 134.107 75.7064 132.932 74.4551C131.757 73.2038 131.522 71.6396 131.835 69.9972C132.148 68.3548 133.01 67.0253 134.342 66.0868C135.047 65.6175 135.83 65.3047 136.457 64.9136C136.378 64.0533 135.908 63.9751 135.517 63.8187C134.498 63.2712 133.637 62.6456 132.932 61.7071C132.07 60.5339 131.6 60.5339 130.425 61.4724C129.955 61.7853 129.563 62.1763 129.25 62.4892C129.015 63.7405 130.19 64.1315 130.582 65.2265C129.407 65.2265 128.623 64.3662 127.448 64.2098C127.762 66.4778 130.347 66.3214 131.208 67.8074C130.895 68.5112 130.347 68.8241 129.642 68.7459C129.093 68.7459 128.545 68.5894 127.997 68.3548C126.665 67.8074 125.255 67.6509 123.845 67.8074C123.532 67.8074 123.218 67.7291 122.592 67.7291C124.08 66.4778 125.647 66.8689 127.292 66.8689C126.117 65.9303 125.177 64.9918 124.08 64.3662C123.062 63.7405 121.965 63.8969 121.025 64.6008C120.555 64.6008 120.085 64.6008 119.615 64.6008C118.988 64.9918 118.205 65.2265 117.735 65.6957C115.62 67.7291 116.012 71.0921 118.44 72.3435C119.145 72.7345 119.928 72.8909 120.79 72.2653C120.555 72.1088 120.398 71.9524 120.32 71.796C118.753 70.31 118.753 70.1536 119.693 68.1984C120.007 67.5727 120.242 66.8688 120.555 66.0868C119.928 66.165 119.458 66.2432 118.988 66.3214C119.223 65.5393 119.458 64.9918 119.693 64.4444C120.163 64.8354 120.633 64.7572 121.103 64.4444C122.043 64.5226 122.983 64.679 123.688 65.3829C123.845 65.9303 123.453 66.0086 123.062 66.0868C122.2 66.3214 121.495 66.556 121.573 67.7291C121.573 68.1984 120.79 68.7459 120.477 69.2933C120.007 70.0754 120.398 70.7011 121.26 70.9357C121.495 71.0139 121.808 70.9357 122.122 71.0139C122.67 71.1703 122.905 71.9524 122.592 72.4217C122.122 73.0473 121.495 73.4384 120.79 73.5948C117.187 74.2205 115.072 71.1703 115.307 68.5112C115.542 66.2432 116.717 64.4444 118.91 63.5841C120.477 62.9584 122.122 62.6456 124.002 63.0366C124.08 62.4892 124.158 62.0199 124.237 61.6289C124.315 61.1596 124.158 60.6904 124.315 60.2211C125.098 57.562 126.587 56.5453 129.328 56.9363C130.582 57.0928 131.835 57.4838 133.48 57.8748C133.715 57.6402 134.107 57.2492 134.577 56.7799C135.047 56.3889 135.517 55.9978 136.065 55.5286C134.263 54.3555 134.263 54.3555 134.185 53.1041C134.733 53.4952 135.203 53.8862 135.752 54.199C135.83 54.2772 136.143 54.199 136.222 54.0426C136.3 53.9644 136.378 53.6516 136.378 53.5734C135.83 53.1823 135.987 52.5567 135.987 52.0092C136.613 52.7131 137.397 52.8695 138.258 52.9477C138.885 52.9477 139.433 53.0259 140.138 53.1041C139.355 54.0426 137.632 53.1823 137.397 54.8247C139.042 55.1375 140.687 55.4504 142.253 55.685C142.41 54.3555 142.41 53.2605 141.548 52.4002C140.608 51.5399 139.59 51.0707 138.337 50.9925C137.318 50.9143 136.535 51.1489 135.987 52.1656C135.438 52.1656 134.89 52.1656 134.342 52.1656C132.54 52.2438 131.992 51.931 131.522 50.2104C131.365 49.6629 131.208 49.1937 131.052 48.568C129.25 50.2886 129.407 51.3835 131.6 53.7298C130.582 54.199 130.112 53.2605 129.407 53.0259C129.328 52.7913 129.25 52.5567 129.093 52.322C129.015 52.2438 128.858 52.2438 128.702 52.2438C128.702 52.4002 128.702 52.6349 128.78 52.6349C129.015 52.7913 129.25 52.8695 129.485 52.9477C129.798 54.7465 129.798 54.7465 131.757 56.076C130.033 56.3107 130.033 56.3107 128.31 54.1208C127.997 54.2772 127.683 54.4337 127.37 54.6683C126.273 55.5286 125.098 55.294 123.923 54.7465C123.218 54.3555 122.748 53.808 122.748 52.9477C122.748 51.931 123.61 51.8528 124.393 51.6181C124.158 51.1489 124.002 50.6796 123.688 50.2104C125.098 50.5232 125.49 50.9143 125.568 51.8528C125.647 52.4784 125.098 52.9477 123.923 53.2605C124.158 54.4337 125.098 54.3555 125.882 54.2772C126.822 54.1208 127.605 53.3387 127.527 52.6349C127.448 51.8528 127.135 50.9925 126.9 50.2104C126.822 49.9758 126.508 49.8194 126.352 49.5847C125.725 48.8026 125.412 47.7859 124.158 47.7859C122.827 47.7859 121.73 48.0205 120.947 49.1155C121.025 50.445 121.103 51.6964 121.182 53.417C121.887 54.1208 122.748 55.294 122.435 56.9363C122.122 58.4223 121.573 59.7519 120.32 60.8468C121.182 61.316 121.182 61.316 122.435 60.925C122.513 59.439 122.592 57.9531 123.532 56.6235C123.767 56.7799 124.002 56.8581 124.002 57.0146C124.002 58.1877 123.218 59.2826 123.453 60.5339C123.532 60.8468 123.062 61.3942 122.748 61.6289C121.573 62.4892 120.32 62.5674 119.067 61.7853C118.127 61.1596 117.265 60.5339 116.247 59.8301C115.777 60.2993 115.385 60.6904 114.993 61.0814C114.445 61.7071 114.288 62.3327 114.758 63.1148C114.993 63.5059 114.993 63.9751 115.072 64.4444C115.072 64.5226 114.602 64.6008 114.367 64.679L114.445 64.7572C114.445 64.0533 114.053 63.6623 113.583 63.3495L113.662 63.4277C112.957 62.2545 111.39 62.6456 110.685 61.7853C108.648 62.0199 107.63 63.3495 106.533 64.6008C106.377 64.8354 106.22 65.07 106.142 65.3047C105.515 66.9471 106.847 70.6229 108.335 71.5614C109.667 72.4217 110.998 72.3435 112.095 71.1703C112.565 70.6229 113.035 70.0754 113.505 69.4497C114.288 69.6844 114.053 70.1536 113.818 70.5447C113.662 70.7793 113.505 71.0139 113.348 71.2485C111.782 73.4384 110.45 73.7512 108.1 72.5781C107.787 72.4217 107.473 72.187 107.16 72.0306C105.907 70.5447 105.28 68.8241 104.967 66.9471C104.81 66.0868 104.81 65.2265 105.28 64.5226C106.22 63.1148 107.317 61.8635 108.962 61.1596C109.823 60.7686 110.685 60.5339 111.703 60.925C112.33 61.1596 113.113 61.2378 113.897 61.3942C114.132 60.6904 114.367 60.2211 114.367 59.6736C114.523 57.7184 115.777 56.7017 117.422 56.076C117.657 55.9978 118.127 56.2325 118.597 56.3889C116.952 57.2492 116.952 57.2492 116.168 58.5005C116.638 58.4223 116.952 58.3441 117.265 58.2659C117.657 58.1877 117.97 57.9531 118.362 58.0313C118.675 58.1095 118.91 58.4223 119.145 58.6569C118.988 58.8134 118.832 58.9698 118.597 59.1262C118.44 59.2044 118.283 59.2826 118.205 59.3608C118.597 60.1429 119.145 60.1429 119.85 59.8301C121.338 59.1262 121.887 56.7017 121.338 55.3722C121.182 54.9029 120.633 54.4337 120.163 54.2772C118.832 53.808 117.422 53.417 116.012 54.199C115.698 54.9029 115.463 55.7632 114.993 56.3889C114.445 57.0928 113.74 57.7184 113.113 58.3441C113.27 59.1262 113.427 59.7519 113.662 60.6904C112.095 59.2826 112.095 59.2826 112.017 58.0313C112.017 57.4838 112.173 56.9363 112.252 56.4671C112.957 56.2325 113.583 56.076 114.21 55.8414C114.132 55.2158 114.132 54.8247 114.053 54.2772C113.74 54.1208 113.427 53.8862 113.035 53.7298C111.233 52.9477 110.137 53.1823 108.805 54.5901C108.335 55.1375 107.787 55.685 107.238 56.2325C106.925 56.6235 106.533 57.0928 106.298 57.562C105.672 58.8134 105.907 60.0647 106.533 61.316C106.612 61.3942 106.377 61.6289 106.22 61.9417C105.672 61.3942 105.202 60.925 104.575 60.3775C104.262 60.5339 103.87 60.6122 103.635 60.8468C103.478 61.0032 103.4 61.316 103.322 61.5507C103.087 61.4724 102.852 61.2378 102.617 61.2378C102.46 61.2378 102.303 61.4725 102.147 61.6289C102.303 61.7071 102.46 61.7853 102.538 61.7853C102.773 61.7071 103.008 61.6289 103.243 61.5507C104.027 61.7853 104.027 61.8635 103.322 62.6456L103.4 62.5674C101.442 63.8969 101.442 66.0868 101.05 68.1984C100.345 67.7291 100.423 67.1035 100.423 66.556C100.423 65.9303 100.58 65.3047 100.658 64.6008C100.658 64.1315 101.52 63.8187 100.815 63.1148C99.5618 64.3662 99.0918 65.8521 98.9351 67.4163C98.9351 67.7291 99.0918 68.2766 98.4651 68.1202C97.7601 66.8688 98.4651 65.5393 98.2301 64.2098C97.7601 64.2098 97.4468 64.2097 97.0551 64.288C95.7234 64.5226 95.4884 64.9136 95.3318 66.0868C95.1751 67.7291 95.8018 68.8241 97.2901 69.4497C97.6818 69.6844 98.2301 69.7626 98.5434 70.0754C99.0918 70.6229 99.5618 71.1703 99.8751 71.796C100.11 72.2653 100.11 72.8909 100.11 73.4384C100.11 74.2987 101.52 73.7512 101.363 74.6897C101.363 74.7679 101.598 74.8461 101.677 74.9243C102.225 74.6897 102.695 74.4551 103.243 74.2205C103.478 74.8461 103.635 75.3154 103.87 75.8629C103.478 76.2539 103.087 76.5667 102.852 76.8796C102.617 77.1924 101.755 77.2706 102.147 78.2091C102.852 77.6617 103.4 77.2706 103.948 76.7231C105.358 75.3936 105.202 73.4384 105.985 71.9524C106.455 71.8742 106.847 71.796 107.16 71.7178C106.925 72.3435 106.69 72.8909 106.455 73.5166C106.142 74.3769 105.985 75.3154 105.672 76.1757C104.888 78.2091 103.322 79.304 101.207 79.6169C100.032 79.7733 98.7784 79.7733 97.4468 79.8515C96.1934 81.4157 96.6634 83.0581 97.2118 84.7786C97.2901 85.0915 97.5251 85.4825 97.7601 85.7171C99.7184 88.0634 101.677 90.4879 103.792 92.9906C104.262 97.0574 105.358 98.4652 108.413 98.9344C108.962 98.387 109.432 97.6831 109.432 96.8228C109.432 95.415 110.215 94.1637 110.293 92.7559C110.372 91.4264 111.547 90.4879 112.8 89.9404C113.192 89.784 113.74 89.784 114.132 89.9404C114.758 90.0968 115.385 90.3315 115.933 90.7225C116.247 90.9571 116.638 91.3482 116.717 91.8174C116.873 92.4431 116.482 92.9124 115.855 93.147C115.777 92.6777 115.855 92.0521 115.62 91.8956C115.072 91.5046 114.367 91.1136 113.662 91.0353C112.643 90.8007 112.095 91.4264 111.703 92.9906C113.27 91.8956 114.602 92.5213 115.933 93.147C115.933 93.4598 115.933 93.8509 115.855 94.1637C115.698 94.1637 115.62 94.2419 115.542 94.2419C114.68 94.0073 114.053 92.9906 112.957 93.538C111.703 94.1637 110.842 95.1022 110.528 96.4317C110.293 97.4485 110.058 98.4652 109.745 99.4037C107.943 106.13 106.142 112.777 104.34 119.503C104.183 120.129 103.87 120.676 103.635 121.224C102.773 121.302 102.695 120.755 102.773 120.364C103.008 119.269 103.4 118.252 103.713 117.157C104.653 113.794 105.515 110.431 106.377 107.146C106.768 105.817 107.238 104.487 107.63 103.158C107.865 102.454 107.943 101.75 108.178 100.968C107.787 100.733 107.473 100.577 107.16 100.499C104.497 99.7165 103.165 97.7613 102.695 95.2586C102.538 94.1637 102.068 93.3816 101.363 92.5995C99.7184 90.8007 98.3084 88.8455 96.7418 86.8903C95.5668 85.4043 95.2534 83.6837 95.3318 81.8849C95.3318 81.2592 95.5668 80.5554 95.6451 79.8515C95.3318 79.304 94.9401 78.6784 94.5484 78.0527C93.2168 76.0193 92.5118 73.9858 94.3134 71.7178C93.7651 71.405 93.3734 71.1703 92.9818 70.9357C92.8251 70.8575 92.5901 70.8575 92.4334 70.8575C88.5168 69.919 87.4201 67.0253 89.7701 63.7405C90.3184 63.0366 90.1618 62.5674 89.4568 62.0981C89.2218 62.1763 88.9084 62.0981 88.7518 62.2545C87.1068 63.2712 85.4618 63.9751 83.5034 64.2098C82.1718 64.3662 81.0751 64.9918 80.0568 66.0086C79.2734 66.7906 78.4118 67.4945 77.5501 68.2766C76.2184 69.528 74.5734 69.919 72.8501 69.7626C71.5968 69.6062 70.2651 69.2151 69.0118 68.9023C68.3851 68.7459 67.7584 68.5894 67.0534 68.3548C66.5051 68.9023 65.9568 69.3715 65.4868 69.919C62.1184 73.673 58.8284 77.5052 55.4601 81.2593C54.0501 82.9016 52.4834 84.3094 50.9951 85.9518C48.4884 88.6891 46.0601 91.5828 43.5534 94.3201C39.4018 98.8562 35.2501 103.392 31.0201 108.007C29.3751 109.805 27.7301 111.604 26.0851 113.403C25.5368 114.029 24.8318 114.42 24.2051 114.889C23.5784 114.185 24.1268 113.872 24.3618 113.559C27.1034 110.509 29.9234 107.459 32.6651 104.409C39.4801 96.901 46.2951 89.4712 53.1101 81.9631C53.6584 81.3375 54.0501 80.6336 54.5984 79.9297C55.2251 79.7733 55.2251 79.304 55.3818 78.8348C55.4601 78.8348 55.5384 78.8348 55.6168 78.8348C55.6951 78.8348 55.6951 78.7566 55.7734 78.6784C55.6168 78.7566 55.5384 78.8348 55.3818 78.913C55.1468 79.304 54.9118 79.6169 54.5984 80.0079C54.2068 80.1643 53.7368 80.3207 53.4234 80.5554C50.7601 83.2145 48.1751 85.8736 45.5118 88.5327C41.9084 92.1303 38.3051 95.6497 34.7018 99.1691C32.1951 101.672 29.7668 104.253 27.2601 106.755C23.8918 110.118 20.4451 113.481 17.0768 116.766C16.5284 117.235 15.9801 117.705 15.4318 118.096C14.8051 117.783 14.8834 117.392 15.1968 117.157C17.1551 115.124 19.1918 113.168 21.1501 111.213C26.5551 105.739 31.9601 100.264 37.4434 94.8676C41.7518 90.5661 46.1384 86.2646 50.4468 81.9631C53.6584 78.6784 56.8701 75.3936 60.0818 72.1088C60.2384 71.6396 60.4734 71.1703 60.6301 70.7011C61.5701 70.8575 61.9618 70.3882 62.1968 69.5279C62.3534 69.4497 62.5101 69.4497 62.5884 69.3715V69.2151C62.4318 69.3715 62.3534 69.5279 62.1968 69.6062C61.6484 69.9972 61.1001 70.3882 60.6301 70.7793C60.2384 71.1703 59.9251 71.5614 60.0818 72.1088C59.7684 72.187 59.2984 72.1088 59.0634 72.2653C57.9668 73.0473 56.9484 73.8294 55.9301 74.6897C52.5618 77.5834 49.2718 80.4772 45.9818 83.3709C42.8484 86.1082 39.7934 88.8455 36.7384 91.5046C35.0151 92.9906 33.2134 94.2419 31.5684 95.7279C30.3934 96.6664 29.3751 97.6831 28.2001 98.6998C23.4218 102.845 18.7218 106.912 13.9434 111.057C13.6301 111.37 13.2385 111.526 12.6118 111.917C12.4551 111.448 12.2201 110.979 12.2985 110.822C12.6901 110.275 13.1601 109.805 13.6301 109.414C21.8551 102.532 30.0801 95.6497 38.2268 88.7673C42.9268 84.7786 47.6268 80.7118 52.2484 76.6449C54.5201 74.6897 56.7134 72.6563 58.9851 70.6229C59.3768 70.31 59.5334 69.919 59.8468 69.6062C60.4734 69.5279 60.8651 69.2933 61.3351 68.042C60.5518 68.8241 60.2384 69.2151 59.8468 69.6062ZM57.6534 76.4103C57.8101 76.4103 57.9668 76.3321 58.1234 76.2539C58.1234 76.2539 58.1234 76.0975 58.1234 76.0193C57.9668 76.2539 57.8101 76.3321 57.6534 76.4103C57.5751 76.5667 57.5751 76.7231 57.4968 76.8014C57.4968 76.7231 57.5751 76.5667 57.6534 76.4103ZM146.64 81.8067C146.875 81.4939 147.188 81.1028 147.423 80.79C147.893 81.4157 147.893 82.1196 147.658 82.8234C147.345 83.2927 146.953 83.6837 146.718 84.153C146.64 84.3876 146.797 84.8569 146.953 85.5607C147.502 84.3876 147.737 83.6055 147.658 82.7452C149.617 82.1978 150.243 81.0246 149.93 78.6002C149.068 79.3822 148.285 80.0861 147.423 80.79C147.188 81.181 146.875 81.4939 146.64 81.8067C146.562 81.9631 146.483 82.1196 146.405 82.1978C146.483 82.0413 146.562 81.8849 146.64 81.8067ZM95.0968 70.1536C94.7834 69.6844 94.3918 69.1369 94.0784 68.6677C93.9218 69.6062 94.3918 69.9972 95.0968 70.1536C95.1751 70.4664 95.1751 70.9357 95.3318 71.0921C96.1151 71.7178 97.2118 72.0306 97.6034 73.1255C97.4468 73.282 97.2901 73.5166 97.0551 73.673C96.5851 73.9858 95.9584 74.2205 96.4284 74.9243C96.8201 75.4718 97.5251 75.2372 97.9168 74.9243C98.2301 74.6897 98.6218 74.2205 98.6218 73.8294C98.7784 72.8127 98.4651 71.9524 97.5251 71.405C96.8201 70.9357 95.9584 70.5447 95.0968 70.1536ZM127.527 97.2138C128.153 97.5267 128.858 97.8395 129.407 98.0741C129.642 98.8562 129.015 99.5601 129.563 100.264C130.19 99.5601 130.738 98.9344 131.287 98.3088C131.992 97.5267 131.835 96.6664 131.913 95.8061C128.937 95.8843 128.937 95.8843 127.527 97.2138C126.43 97.8395 126.587 98.778 126.9 99.7947C127.135 98.9344 127.37 98.0741 127.527 97.2138ZM144.682 59.9865C144.682 59.7519 144.525 59.3608 144.603 59.3608C145.543 58.8916 146.562 58.5005 147.58 58.0313C147.423 57.4056 146.953 57.4056 146.483 57.4838C146.013 57.4838 145.543 57.562 145.073 57.7184C144.603 57.8749 144.133 57.9531 143.742 58.1877C143.35 58.4223 143.037 58.7351 142.645 59.048C142.332 59.2826 142.253 59.9083 141.627 59.8301C141.548 58.7351 140.765 58.1095 139.982 57.562C139.198 57.8748 139.042 58.5005 139.512 59.1262C139.903 59.5954 140.452 59.9865 141 60.3775C142.567 61.4724 142.802 61.3942 144.682 59.9865C145.152 60.0647 145.622 60.4557 146.092 59.9083C146.405 60.1429 146.64 60.4557 147.032 60.5339C148.598 60.925 148.99 62.0981 149.147 63.5059C149.147 63.9751 148.912 64.4444 149.538 64.7572C150.87 64.679 150.087 62.6456 151.497 62.5674C151.653 62.5674 151.81 62.0981 151.81 61.8635C151.81 61.4724 151.81 61.0814 151.653 60.7686C151.262 60.1429 150.792 59.5954 150.4 59.1262C149.46 59.2044 148.755 59.2044 148.05 59.2826C147.267 59.2826 146.562 59.2044 146.092 59.9865C145.622 59.9865 145.152 59.9865 144.682 59.9865ZM138.728 62.5674C140.138 63.2712 140.138 63.2713 140.843 64.3662C139.903 64.9136 138.728 63.4277 137.788 64.7572C138.963 65.7739 140.373 65.4611 141.548 65.9304C142.723 66.3996 143.898 66.9471 145.073 67.4945C147.188 66.3214 147.188 66.3214 148.833 67.2599C148.598 67.8074 148.285 68.3548 147.972 69.1369C148.52 69.2151 148.99 69.4497 149.382 69.3715C149.695 69.2933 150.087 69.0587 150.243 68.7459C150.792 67.8074 150.557 66.6342 149.773 66.2432C148.99 65.8521 148.05 65.5393 147.032 65.1483C147.423 64.4444 147.737 63.8969 147.972 63.3495C148.285 62.411 147.502 61.2378 146.562 61.3942C145.7 61.4725 144.682 61.2378 143.898 61.9417C143.82 62.802 144.917 63.193 144.76 64.288C143.663 63.4277 142.723 62.7238 141.862 61.9417C140.922 61.1596 140.06 60.1429 138.493 60.2211C138.65 61.0814 138.728 61.7853 138.728 62.5674C138.023 62.3327 137.71 61.7853 137.632 61.1596C137.475 59.9865 137.475 58.7351 138.18 57.6402C138.415 57.2492 138.885 56.9363 138.572 56.3889C137.318 56.2325 136.222 56.7799 135.282 57.4838C134.263 58.1877 133.872 59.2044 133.95 60.3775C134.107 61.9417 134.812 62.9584 136.378 63.4277C136.457 63.4277 136.692 63.3495 136.77 63.2713C136.613 62.6456 136.457 62.0981 136.143 61.0032C136.927 61.6289 137.162 61.9417 137.553 62.1763C137.867 62.3327 138.337 62.411 138.728 62.5674ZM90.6318 57.2492C89.6134 57.8748 89.7701 58.6569 89.9268 59.3608C90.2401 60.3775 90.3184 61.4724 91.4151 61.9417C92.9034 62.6456 94.3134 63.8187 96.0368 62.6456C96.1934 62.5674 96.6634 62.5674 96.8201 62.7238C97.6034 63.3495 98.2301 62.9584 98.9351 62.6456C99.3268 62.411 99.7184 62.1763 100.11 61.8635C100.972 61.0814 101.833 60.2211 103.243 60.2993C103.635 60.2993 104.183 59.6736 104.34 59.2044C104.497 58.7351 104.34 58.1095 104.262 57.6402C102.617 57.0928 101.05 56.7799 99.7184 55.8414C98.7001 55.1375 97.8384 55.5286 97.1334 56.6235C96.8984 56.9363 96.8201 57.3274 96.5851 57.562C95.7234 58.6569 94.7051 59.3608 93.2951 59.3608C91.8068 59.2826 91.3368 58.1877 90.6318 57.2492ZM153.69 78.2091C153.377 78.6784 153.22 79.3822 152.828 79.4604C150.635 80.0079 150.008 82.0413 148.912 83.6055C148.05 84.8569 147.972 86.421 149.225 87.7506C149.617 88.1416 149.93 88.5327 150.243 88.9237C151.262 88.8455 152.202 88.5327 152.828 87.516C152.437 87.4377 152.28 87.3595 152.123 87.2813C151.027 86.8903 150.713 86.5774 151.027 85.7954C151.262 85.0133 151.575 84.2312 152.045 83.5273C152.75 82.5888 153.612 81.7285 154.395 80.79C154.708 80.399 155.022 79.9297 155.257 79.5387C154.63 79.0694 154.16 78.6002 153.69 78.2091ZM118.675 52.7913C118.753 51.7746 118.675 50.7579 118.988 49.9758C119.223 49.1155 119.85 48.4116 120.398 47.5513C119.928 47.2385 119.693 46.9256 119.302 46.8474C117.187 46.5346 115.15 46.691 113.897 48.8026C113.427 49.5847 112.957 50.3668 112.565 51.2271C112.408 51.5399 112.408 52.0092 112.8 52.0874C113.505 51.2271 114.132 50.2886 114.837 49.5065C115.072 49.2719 115.463 49.1155 115.855 49.6629C114.993 50.5232 113.975 51.3835 114.367 53.1823C115.15 52.322 115.777 51.6181 116.403 50.9925C116.638 50.7579 116.952 50.5232 117.343 50.9925C117.108 51.4617 116.795 51.931 116.56 52.322C117.108 52.4002 117.735 52.5567 118.675 52.7913ZM145.7 77.5834C143.507 79.2258 143.898 79.5387 141.157 79.0694C140.138 80.399 138.572 81.5721 139.042 83.9184C139.433 83.2927 139.668 82.8234 140.06 82.1978C140.53 83.2145 140.843 84.153 141.313 84.9351C141.548 85.2479 142.018 85.5607 142.41 85.5607C143.037 85.5607 143.742 85.4043 143.742 84.544C143.193 84.544 142.802 84.544 142.253 84.544C143.507 82.0413 144.603 79.8515 145.7 77.5834ZM154.317 68.2766C153.377 68.7459 153.612 70.1536 152.437 70.2318C152.358 70.1536 152.28 70.0754 152.28 69.9972C152.593 69.1369 152.985 68.2766 153.298 67.4163C153.69 66.556 152.672 65.6957 153.377 64.7572C153.612 64.3662 152.672 63.7405 152.202 64.0533C151.497 64.4444 151.105 65.1483 151.34 65.9304C151.732 67.4163 151.732 68.9023 151.183 70.4665C150.165 71.1703 148.99 71.9524 147.58 72.9691C149.382 72.8909 150.792 72.8127 152.28 72.6563C152.672 72.5781 153.298 72.2653 153.377 71.8742C153.69 70.7793 154.552 69.6844 154.317 68.2766ZM139.59 50.054C140.53 50.9925 141.783 51.7746 142.332 52.8695C143.037 54.2772 144.682 54.0426 145.465 55.0593C145.543 55.1375 145.622 55.2157 145.622 55.294C146.405 56.6235 147.658 56.7017 148.912 56.7017C149.225 55.294 149.225 55.294 148.833 53.9644C147.893 54.0426 146.875 53.0259 146.013 54.199C144.995 53.3387 143.507 53.2605 142.958 52.0874C143.115 51.3835 143.193 50.8361 143.272 50.2104C141.862 50.2104 140.687 50.1322 139.59 50.054ZM136.222 98.778C134.968 97.6831 135.047 96.8228 135.203 95.8843C135.282 95.5715 135.125 95.2586 135.047 94.8676C132.932 96.0407 132.697 96.51 133.245 97.9959C133.715 97.7613 133.48 97.3702 133.558 97.0574C133.715 96.51 134.028 96.3535 134.577 96.6664C134.655 97.3703 134.655 98.1523 134.733 98.8562C136.535 99.8729 138.337 100.811 140.373 99.1691C140.138 98.9344 139.982 98.778 139.825 98.778C137.397 97.9177 137.24 97.6049 137.24 95.1804C137.24 94.8676 137.553 94.3983 136.927 94.3983C135.752 95.5714 136.143 96.9792 136.222 98.778ZM132.383 59.6736C130.738 58.1877 129.015 58.1877 127.37 58.1877C126.587 58.1877 125.96 58.6569 125.568 59.3608C124.785 60.7686 124.628 62.1763 125.333 63.6623C125.49 63.8969 125.803 64.1315 126.273 64.5226C126.508 62.802 126.743 61.4725 126.9 60.0647C127.683 60.0647 128.545 59.8301 128.858 60.1429C129.407 60.7686 129.72 60.5339 130.268 60.2993C130.895 60.0647 131.522 59.9083 132.383 59.6736ZM95.8018 47.5513C95.0184 48.8026 94.7051 49.8976 95.4884 51.2271C95.6451 51.4617 95.4101 51.8528 95.3318 52.1656C95.0184 53.3387 95.3318 54.0426 96.4284 54.0426C96.9768 54.0426 97.6034 54.8247 98.1518 54.1208C97.9168 52.1656 97.7601 50.2886 97.5251 48.3334C96.9768 48.0205 96.4284 47.7859 95.8018 47.5513ZM92.4334 64.1315C91.1801 63.7405 91.0234 63.8187 90.4751 64.5226C89.4568 65.7739 89.4568 67.0253 90.1618 68.433C90.6318 69.2933 91.2584 69.6062 92.2768 69.4497C90.7101 67.0253 90.7101 67.0253 92.4334 64.1315ZM95.1751 72.9691C94.0784 74.0641 94.0001 75.0026 94.8618 76.5667C95.4101 77.5052 96.0368 78.2873 97.0551 78.6002C97.3684 78.7566 97.8384 79.0694 98.1518 78.4437C95.4884 76.5667 94.9401 75.4718 95.1751 72.9691ZM155.727 74.9243C157.137 72.4217 157.137 72.4217 155.805 71.4832C155.022 72.1088 154.238 72.7345 153.298 73.4384C154.238 73.9858 154.865 74.4551 155.727 74.9243ZM94.1568 47.2385C94.6268 46.9256 94.8618 46.8474 94.9401 46.691C95.6451 45.4397 96.5068 44.2665 97.6818 43.4062C97.7601 43.328 97.6034 43.0934 97.6034 42.7806C95.1751 43.1716 94.5484 44.8922 94.1568 47.2385ZM127.683 102.376C128.388 102.767 128.937 103.079 129.485 103.314C129.642 103.392 130.112 103.236 130.19 103.079C130.268 102.767 130.347 102.297 130.112 102.141C129.563 101.594 128.858 101.124 128.153 100.577C128.075 101.046 127.918 101.594 127.683 102.376ZM99.2484 43.6409C98.0734 44.7358 97.1334 45.5961 97.1334 47.5513C98.3084 46.3782 99.3268 45.5179 99.2484 43.6409ZM157.92 71.796C157.685 72.8127 157.45 73.9076 157.215 74.9243C158.312 74.1423 158.86 73.2038 157.92 71.796ZM142.802 57.3274C143.585 57.0928 144.133 56.9363 144.682 56.7017C144.838 56.6235 144.995 56.1543 144.917 55.9978C144.682 55.7632 144.368 55.4504 144.055 55.3722C143.742 55.3722 143.35 55.5286 143.193 55.8414C142.958 56.1543 142.958 56.5453 142.802 57.3274ZM129.172 92.4431C129.25 92.2867 129.328 92.1303 129.407 92.0521C128.858 91.661 128.232 91.3482 127.527 90.8007C127.37 91.5046 127.213 92.0521 127.135 92.5995C127.918 92.5213 128.545 92.4431 129.172 92.4431ZM93.7651 65.2265C92.5901 65.0701 92.4334 66.0086 92.0418 66.6342C91.8851 67.0253 91.8851 67.4945 92.5901 67.5727C93.2168 66.9471 93.9218 66.3214 93.7651 65.2265ZM145.622 70.7011C146.327 70.31 146.797 70.0754 147.267 69.8408C147.11 69.1369 146.953 68.5894 146.797 67.8856C145.7 68.5894 145.308 69.2933 145.622 70.7011ZM99.4834 53.5734C99.5618 52.7131 99.6401 52.1656 99.7184 51.6181C99.7184 51.2271 99.6401 50.9143 99.0134 51.0707C98.7001 51.8528 98.6218 52.6349 99.4834 53.5734ZM139.59 44.9704C139.747 45.5961 139.747 45.8307 139.825 46.0653C139.982 46.4564 140.217 46.691 140.608 46.4564C140.687 46.3782 140.687 45.9089 140.608 45.7525C140.452 45.5179 140.138 45.3615 139.59 44.9704ZM143.977 74.9243C143.742 75.0026 143.428 75.0026 143.428 75.0808C143.35 75.3154 143.428 75.55 143.428 75.8629C143.585 75.7846 143.977 75.7846 143.977 75.7064C144.055 75.3936 143.977 75.159 143.977 74.9243ZM114.993 100.733C114.915 100.733 114.837 100.811 114.837 100.811C114.758 101.124 114.758 101.437 114.758 101.828C114.758 101.828 114.993 101.906 114.993 101.828C115.072 101.515 115.15 101.202 115.228 100.89C115.15 100.89 114.993 100.811 114.993 100.733ZM108.335 11.4971C108.257 11.2624 108.178 10.9496 108.1 10.9496C107.865 10.8714 107.552 10.8714 107.317 10.8714C107.395 11.0278 107.395 11.2625 107.552 11.3407C107.787 11.4189 108.022 11.4189 108.335 11.4971ZM128.78 93.9291C128.702 94.0073 128.545 94.1637 128.467 94.2419L128.545 94.4765C128.702 94.4765 128.858 94.3983 129.015 94.3983C128.937 94.2419 128.858 94.0855 128.78 93.9291ZM51.4651 73.8294C51.4651 73.7512 51.4651 73.673 51.4651 73.673C51.3868 73.673 51.3084 73.673 51.2301 73.7512C51.2301 73.7512 51.2301 73.9076 51.2301 73.9858C51.2301 73.8294 51.3868 73.8294 51.4651 73.8294ZM143.428 77.7399C143.428 77.6617 143.507 77.5834 143.507 77.5052C143.507 77.5052 143.428 77.5052 143.35 77.427C143.35 77.5052 143.272 77.5835 143.272 77.6617C143.35 77.6617 143.428 77.6617 143.428 77.7399ZM70.3434 10.3239L70.5001 10.1675L70.3434 10.0893V10.3239ZM145.23 50.7579L144.995 50.8361L145.23 50.9925V50.7579ZM147.737 52.4002L147.502 52.4784L147.658 52.5567L147.737 52.4002ZM152.593 78.2873V78.0527L152.437 78.2873H152.593ZM144.603 82.667L144.447 82.5888V82.8234L144.603 82.667Z" fill="#D4D1D0"/>
<path d="M67.21 20.3347C65.9567 21.4297 65.6434 22.8374 66.035 24.4016C66.1917 25.0273 66.27 25.6529 66.4267 26.3568C66.8967 28.4685 66.1134 30.0326 64.5467 31.284C64.0767 31.675 63.6067 31.9878 63.1367 32.3007C62.3534 32.8481 61.4917 33.161 60.4734 32.7699C59.2984 32.3007 58.045 32.6135 56.87 32.9263C55.225 33.2392 54.3634 34.8816 54.9117 36.3675C54.99 36.6804 55.3817 36.915 55.695 36.9932C55.8517 37.0714 56.2434 36.8368 56.4 36.6804C56.635 36.2893 56.7134 35.8201 57.0267 35.429C57.2617 35.1162 57.7317 34.7251 58.1234 34.7251C58.515 34.7251 58.985 35.1162 59.22 35.429C60.2384 37.4625 59.2984 39.9651 57.2617 40.9036C56.87 41.0601 56.4 41.1383 55.7734 41.2947C56.635 43.4063 56.5567 45.5962 56.2434 47.8642C56.1651 48.0988 56.1651 48.4899 56.2434 48.7245C57.34 50.9144 57.6534 53.3388 59.22 55.294C58.28 57.7967 58.3584 60.2212 59.69 62.5675C60.2384 63.5842 60.7084 63.7406 61.7267 63.2713C63.1367 62.5675 64.625 61.8636 66.035 61.2379C66.4267 61.0815 66.975 60.9251 67.2884 61.5507C64.7034 63.3495 61.805 64.6791 58.9851 66.0868C54.1284 68.5895 49.3501 71.0922 44.4151 73.5167C39.7151 75.8629 34.7801 78.2092 29.9234 80.5555C26.5551 82.1978 23.1867 83.9184 19.8184 85.5608C14.4917 88.1417 9.2434 90.8008 3.91673 93.3817C3.68173 93.5381 3.21173 93.4599 2.8984 93.3035C2.58507 93.1471 2.82007 92.5214 3.3684 92.2086C3.52507 92.1303 3.68173 92.0521 3.8384 91.8957C3.99507 91.8175 4.15173 91.7393 4.3084 91.6611C13.5517 87.125 22.8734 82.6671 32.1167 78.131C36.8167 75.7847 41.5167 73.4385 46.2167 71.0922C50.0551 69.137 53.8934 67.1818 57.7317 65.2265C58.2017 64.9919 58.6717 64.6791 59.0634 64.3663C58.3584 62.3328 57.7317 60.3776 57.0267 58.266C56.4784 58.4224 55.8517 58.7352 55.1467 58.8134C54.5201 58.8916 53.815 58.5788 53.1884 58.7352C51.8567 59.0481 50.9951 58.4224 50.4467 57.3275C50.2901 57.0928 50.2117 56.78 50.0551 56.389C50.9167 55.9979 51.7001 55.6851 52.4834 55.2158C53.2667 54.7466 53.2667 54.3555 52.64 52.9478C52.1701 52.9478 51.6217 52.9478 51.0734 52.9478C50.1334 52.8696 49.1934 52.8696 48.3317 52.5567C46.9217 52.0093 45.7467 50.9144 46.3734 49.0373C46.4517 48.8809 46.4517 48.6463 46.4517 48.4899C46.4517 48.3335 46.4517 48.0988 46.3734 47.7078C46.0601 47.7078 45.3551 47.7078 44.6501 47.4732C43.9451 47.2385 43.2401 46.9257 42.6134 46.5347C40.8901 45.5962 39.9501 44.1884 40.1851 42.155C40.3417 40.8254 40.4201 39.5741 40.4984 38.0881C38.8534 36.4457 37.6001 34.5687 37.6784 31.8314C37.7567 29.1723 38.5401 27.0607 41.0467 25.7311C39.4801 22.8374 40.9684 20.6476 42.5351 18.3013C41.6734 17.3628 40.4984 16.3461 40.7334 14.8601C40.8901 13.6088 41.2817 12.2792 41.8301 11.1061C42.8484 8.75985 44.8851 8.2906 47.3134 8.75985C48.5667 6.80463 50.6034 5.94434 52.4051 4.77121C53.0317 4.38016 53.815 4.14554 54.52 4.06733C55.46 3.91091 56.4 4.22375 56.9484 5.08404C57.34 5.6315 57.7317 6.10075 58.045 6.57001C58.8284 6.72642 58.985 6.17896 59.22 5.86613C60.7867 3.36345 63.45 2.58136 66.1134 1.79927C66.505 1.72107 67.0534 1.87748 67.445 2.11211C67.9934 2.42494 68.5417 2.8942 68.9334 3.20703C69.1684 3.20703 69.4034 3.28524 69.56 3.28524C71.3617 3.59808 72.85 3.05061 74.025 1.64286C74.5734 0.938979 75.435 0.86077 76.375 1.01719C77.8634 1.25181 79.3517 1.33002 80.5267 2.58136C82.1717 1.87748 83.8167 1.0954 85.3834 0.469727C85.8534 0.938979 85.6184 1.25181 85.305 1.40823C84.4434 2.0339 83.5817 2.50315 82.72 3.05061C81.6234 3.8327 80.4484 3.91091 79.3517 3.12882C78.5684 2.58136 77.7067 2.34674 76.6884 2.26853C74.73 2.19032 73.1634 2.73778 72.615 4.84941L72.6934 4.77121C72.2234 4.693 71.7534 4.77121 71.3617 4.53658C70.5 3.98912 69.795 4.14554 69.1684 4.77121C68.7767 5.08404 68.4634 5.55329 68.15 5.86613C68.7767 6.64822 69.2467 7.27389 69.7167 7.89956C69.6384 7.97776 69.4817 8.05597 69.4034 8.21239C68.9334 7.89955 68.5417 7.50851 68.0717 7.35209C67.21 7.03926 66.3484 6.4918 65.4867 6.88284C64.3117 7.4303 63.1367 7.97776 62.98 9.46373C62.4317 9.62015 62.3534 10.0894 62.3534 10.5587C62.3534 10.7151 62.6667 10.8715 62.9017 11.0279C62.98 10.8715 63.1367 10.7151 63.215 10.6369C63.9984 10.4804 64.7817 10.4022 65.6434 10.324C66.8967 10.1676 67.21 10.5587 67.6017 12.201H67.68C66.4267 10.8715 65.095 11.0279 63.6067 12.1228C63.7634 12.7485 63.8417 13.4524 64.0767 14.5473C63.3717 14.078 62.98 13.8434 62.5884 13.6088C62.51 13.4524 62.3534 13.3742 62.275 13.2177C61.8834 12.5139 61.6484 12.9049 61.4917 13.3742C61.1 12.9831 60.7084 12.5921 60.3167 12.201C59.69 13.7652 61.0217 14.3909 61.6484 15.4076C61.2567 15.7986 60.865 16.1897 60.5517 16.5807C59.2984 15.6422 58.045 14.7037 56.4784 14.7037C55.8517 14.7037 55.0684 14.7819 54.6767 15.173C53.1101 16.5025 52.0134 18.0667 52.0134 20.2565C52.0134 21.1168 52.0917 21.9771 52.7967 22.6028C53.0317 22.8374 53.5017 22.9156 54.05 23.072C53.4234 21.195 52.4051 19.5527 53.9717 17.6756C53.9717 18.6141 53.9717 19.2398 54.05 19.8655C54.2067 21.4297 54.755 22.7592 56.4784 23.3067C56.5567 23.3067 56.5567 23.6195 56.6351 23.7759C54.2067 25.0273 53.2667 24.7144 50.9167 21.9771C48.5667 24.0888 47.7051 24.0888 44.6501 21.9771C44.2584 20.4912 45.5901 19.4744 45.9034 17.9103C44.0234 18.6141 43.1617 19.9437 42.3001 21.195C41.5167 22.29 41.3601 23.3849 41.9084 24.6362C42.5351 26.044 43.5534 26.9043 45.3551 27.3735C45.0417 26.8261 44.7284 26.3568 44.4934 25.8876C43.8667 25.0273 44.2584 24.2452 45.0417 24.167C46.2167 24.0888 47.4701 24.167 48.6451 24.2452C48.8801 24.2452 49.1151 24.7144 49.2717 25.0273C49.4284 25.4183 49.5067 25.8094 49.5851 26.1222C51.4651 25.9658 53.1101 25.8876 54.8334 25.8094C55.1467 25.8094 55.3817 25.8094 55.695 25.8094C57.4184 25.5747 58.3584 24.6362 58.6717 22.9156C58.75 22.3682 58.8284 21.8207 58.9067 21.2732C59.2984 19.6309 60.3167 18.4577 61.6484 17.5192C62.4317 17.05 63.215 16.9718 64.0767 17.1282C64.5467 17.2846 65.1734 17.3628 65.1734 18.1449C65.0167 18.1449 64.7817 18.2231 64.625 18.2231C61.8834 17.9885 60.3167 19.0834 59.7684 21.6643C59.69 22.1335 59.69 22.6028 59.6117 23.072C59.0634 25.6529 57.4967 26.9043 54.8334 26.9825C54.05 26.9825 53.3451 26.9825 52.5617 26.9043C51.3084 26.8261 50.3684 27.3735 49.7417 28.3902C47.7051 31.5968 47.7051 34.8816 48.9584 38.3228C49.0367 38.401 49.2717 38.4792 49.5067 38.5574C49.8201 38.2445 50.1334 38.0099 50.4467 37.7753C50.2901 36.7586 50.1334 35.9765 50.0551 35.1162C50.0551 34.6469 50.2901 34.1777 50.9167 34.2559C51.3084 37.7753 51.6217 38.1663 54.4417 39.4177C53.5017 40.5126 52.0134 40.3562 50.5251 40.669C51.8567 41.2947 52.64 41.5293 53.1884 41.3729C54.5984 40.9036 56.0084 40.5126 57.34 39.8087C58.75 39.1048 58.985 37.2278 58.045 35.8201C57.575 36.3675 57.1834 36.9932 56.6351 37.5407C56.0084 38.1663 54.9117 38.0881 54.4417 37.306C54.1284 36.8368 53.7367 36.2893 53.815 35.8201C53.9717 34.5687 54.3634 33.3174 54.7551 32.0661C54.8334 31.7532 55.1467 31.4404 55.3817 31.2058C55.46 31.0493 55.695 31.0493 55.8517 30.9711L56.0084 31.2058C56.0084 31.3622 56.0867 31.5968 56.0867 31.9096C56.4784 31.9096 56.7917 31.9096 57.1834 31.7532C57.7317 31.5968 58.2017 31.3622 58.75 31.1275C59.22 30.8929 59.7684 30.6583 60.2384 30.4237L60.16 30.3455C60.0034 30.8929 59.925 31.5186 60.7084 31.675C61.1784 31.7532 61.6484 31.8314 62.1184 31.675C64.7034 30.8929 66.1134 28.3902 65.4084 25.7311C65.33 25.3401 65.1734 25.0273 65.0167 24.7144C64.39 22.8374 64.9384 21.195 66.27 19.8655C66.74 19.318 66.975 19.9437 67.0534 20.4912L67.21 20.3347ZM54.5984 55.9197C53.4234 55.6851 52.7967 56.3108 51.9351 57.171C52.4051 57.4839 52.7967 57.7967 53.0317 57.7967C54.2067 57.6403 55.3817 57.3275 56.4784 57.0928C56.87 56.4672 57.1834 55.8415 57.6534 55.1376C57.2617 54.2773 57.4967 53.1042 56.4784 52.0093C56.4 52.8696 56.4001 53.417 56.2434 53.8863C56.0084 54.5902 55.695 55.2158 55.3034 55.8415C55.225 56.0761 54.8334 55.9197 54.5984 55.9197C55.3817 54.512 55.3034 53.1824 54.2067 51.3054C54.3634 53.2606 54.52 54.5902 54.5984 55.9197ZM44.2584 16.8936C44.4934 16.5807 44.8851 16.1897 45.0417 15.7986C45.3551 15.0165 45.5901 14.2345 45.9034 13.5306C45.9034 13.4524 46.2167 13.5306 46.4517 13.5306C46.2951 14.3127 46.2167 15.0165 46.0601 15.6422C46.7651 16.5025 48.0967 16.0333 48.3317 17.2064C48.1751 17.2064 48.0184 17.2064 47.8617 17.2064C47.7834 17.2064 47.7051 17.2846 47.6267 17.3628C47.7051 17.3628 47.7834 17.3628 47.8617 17.3628C48.0184 17.2846 48.1751 17.2846 48.3317 17.2064C48.5667 17.7539 49.2717 18.1449 49.0367 19.0052C48.3317 18.8488 47.6267 18.6924 46.9217 18.5359C46.3734 19.1616 45.9034 19.7091 45.5117 20.3347C45.1201 20.8822 45.3551 21.5079 45.9034 21.7425C46.2167 21.8989 46.6084 21.9771 47.0001 22.0553C48.5667 22.4464 48.9584 22.2118 49.6634 20.804C50.3684 19.3962 50.995 17.9103 51.8567 16.5807C52.3267 15.7986 53.0317 15.0948 53.6584 14.3909C54.285 13.687 54.9901 13.4524 55.93 13.6088C57.0267 13.7652 58.045 13.9998 59.1417 14.1563C59.1417 13.2177 59.2984 12.3575 59.22 11.5754C59.1417 10.7151 58.6717 9.93298 58.5934 9.15089C58.4367 8.21239 57.8884 7.58672 57.1834 7.19568C54.2067 5.39688 50.2901 6.25717 48.5667 9.2291C48.1751 9.93298 48.0967 10.8715 48.0967 11.6536C48.0967 12.1228 48.4884 12.7485 49.2717 12.4357C49.8201 11.3407 49.1934 9.77656 50.9167 8.91627C50.6817 9.77656 50.4467 10.4022 50.4467 11.0279C50.4467 11.7318 50.6034 12.5139 50.6817 13.2177C49.8984 13.6088 49.1934 13.9998 48.3317 13.5306C47.5484 13.0613 47.0784 12.4357 46.9217 11.4972C46.8434 10.9497 46.7651 10.4804 46.6084 10.0112C45.2767 9.46373 44.1017 9.46373 43.3184 10.4804C42.1434 11.9664 41.2817 13.6088 41.6734 15.6422C41.9084 17.1282 42.5351 17.441 44.2584 16.8936ZM48.2534 49.5848C48.2534 49.4284 48.2534 49.1938 48.1751 49.0373C48.1751 48.9591 48.0184 48.9591 47.9401 48.9591C47.8617 49.1156 47.7834 49.3502 47.7834 49.3502C48.0184 49.5066 48.1751 49.5066 48.2534 49.5848C47.6267 50.6797 47.6267 50.9144 48.4101 51.3054C48.7234 51.4618 49.0367 51.6964 49.4284 51.8529C50.6034 52.2439 51.6217 52.2439 52.64 51.0708C53.5017 50.0541 54.7551 49.3502 55.1467 47.8642C55.3034 47.1603 55.5384 46.4565 55.6167 45.6744C55.8517 42.7024 55.6167 42.3896 52.7184 42.3896C51.2301 42.3896 49.9767 41.9203 49.0367 40.669C48.4101 39.8869 47.6267 39.183 46.9217 38.4792C47.3917 37.306 47.7051 36.2111 46.4517 35.1162C45.5117 35.5072 44.4151 35.8201 43.7101 34.8034C43.2401 34.0213 42.9267 33.0828 42.7701 32.2225C42.5351 31.2058 42.7701 30.189 43.6317 28.8595C43.6317 30.189 43.4751 31.0493 43.5534 31.8314C43.6317 32.5353 43.7884 33.3174 44.1017 33.9431C44.3367 34.4905 44.8851 34.6469 45.6684 34.1777C45.5901 33.3956 44.6501 32.5353 45.6684 31.675C46.1384 31.7532 46.6867 31.8314 47.2351 31.9096C47.3917 31.1275 47.4701 30.4237 47.7051 29.8762C48.0184 29.1723 48.4884 28.6249 48.8017 27.921C48.9584 27.6082 49.0367 27.2953 49.1151 26.9043C47.8617 26.7479 46.9217 27.2953 45.9817 27.6864C44.9634 28.0774 43.8667 28.0774 43.0051 27.4517C42.3001 26.9043 41.5951 26.5132 40.7334 26.9825C39.9501 27.3735 39.4017 27.921 39.0101 28.7813C38.3051 30.4237 38.0701 32.066 38.5401 33.7084C38.7751 34.6469 39.4017 35.5072 40.0284 36.3675C40.2634 36.6804 40.9684 36.6804 41.5167 36.8368C40.9684 35.5854 40.4984 34.5687 40.1067 33.552C39.7151 32.5353 40.0284 31.5186 40.3417 30.5019C40.8117 28.8595 41.0467 28.6249 42.3001 28.2338C41.8301 29.3287 41.3601 30.3455 41.0467 31.3622C40.3417 33.7866 41.3601 35.3508 43.7884 35.8201C44.2584 35.8983 44.6501 35.9765 45.1984 36.0547C44.5717 38.0099 42.5351 37.4625 41.5167 38.3228C40.8117 40.7472 40.6551 41.6857 40.8901 43.0935C40.9684 43.8756 41.3601 44.5794 41.9867 44.9705C42.7701 45.4397 43.6317 45.9872 44.4934 46.2218C45.7467 46.5347 47.0001 47.0039 48.1751 45.9872C48.4101 45.9872 48.6451 45.909 48.8017 45.909C48.7234 45.8308 48.6451 45.7526 48.6451 45.7526C48.4884 45.8308 48.3317 45.909 48.1751 45.9872C47.0784 45.7526 45.9817 45.518 44.8851 45.2051C43.8667 44.8923 43.0834 44.1884 42.6917 43.1717C42.2217 42.0768 42.1434 41.0601 43.0051 39.9651C43.0834 40.5126 43.2401 40.9818 43.2401 41.4511C43.3967 43.4845 44.7284 44.3448 46.4517 44.8923C46.9217 45.0487 47.3917 44.9705 47.8617 44.9705C49.1151 44.8923 50.0551 45.3615 50.7601 46.3782C50.5251 47.1603 49.2717 47.3167 49.4284 48.3335C50.9951 48.4117 51.2301 46.8475 52.5617 45.9872C52.3267 47.4732 51.7784 48.2553 50.9167 48.8809C50.3684 49.7412 49.3501 49.7412 48.2534 49.5848ZM60.16 10.0112C60.3167 10.0894 60.3951 10.0894 60.5517 10.1676C61.0217 9.38552 61.335 8.36881 62.04 7.97776C63.45 7.19568 64.7034 5.94434 66.4267 5.6315C67.21 5.47508 67.68 4.92762 67.8367 4.14554C67.2884 2.8942 66.27 2.58136 65.095 2.97241C64.4684 3.20703 63.92 3.44166 63.2934 3.67628C61.57 4.30195 60.2384 5.39688 59.5334 7.11747C59.455 7.27389 59.6117 7.50851 59.69 7.89956C60.7084 7.03926 60.865 5.55329 62.6667 5.08404C61.9617 6.10075 61.4134 6.72642 61.1 7.4303C60.7084 8.21239 60.4734 9.07269 60.16 10.0112ZM51.7784 39.1048C51.5434 38.9484 51.3867 38.792 51.1517 38.6356C51.0734 38.792 50.9167 38.9484 50.9167 39.0266C50.9951 39.183 51.1517 39.3395 51.3084 39.3395C51.3867 39.3395 51.5434 39.183 51.7784 39.1048ZM55.3034 5.08404C55.225 5.16225 55.0684 5.24046 54.99 5.31867C55.0684 5.31867 55.1467 5.47508 55.225 5.47508C55.3817 5.39688 55.46 5.31867 55.5384 5.24046C55.46 5.16225 55.3817 5.16225 55.3034 5.08404ZM47.6267 25.3401C47.5484 25.3401 47.4701 25.2619 47.4701 25.2619C47.4701 25.2619 47.3917 25.3401 47.3917 25.4183C47.4701 25.4183 47.5484 25.4965 47.5484 25.4965C47.5484 25.4965 47.5484 25.4183 47.6267 25.3401Z" fill="#D4D1D0"/>
<path d="M106.455 33.4734C106.533 33.5516 106.612 33.5516 106.69 33.6299C107.317 35.3504 106.142 36.68 105.75 38.166C105.515 39.0263 105.358 38.948 103.478 39.9648C103.557 39.1827 103.557 38.4788 103.635 37.3839C102.147 39.1045 100.345 39.4173 98.1517 40.1212C99.875 38.0095 101.755 36.3672 101.363 33.7863C102.147 33.4734 102.303 33.9427 102.303 34.4119C102.303 35.1158 102.225 35.8979 102.147 36.9928C102.695 36.5236 103.008 36.3672 103.165 36.1325C105.123 33.0824 104.34 30.1105 102.617 27.4514C100.972 24.8705 98.3867 23.8538 95.41 23.932C94.47 23.932 93.765 24.2448 93.3733 25.1051C93.2167 25.4961 92.9033 25.8872 92.59 26.2782C91.7283 27.2949 92.355 29.4066 94 29.8758C94.6267 30.0323 95.2533 30.1105 95.9583 30.1887C95.9583 30.8925 95.41 30.8143 95.0183 30.8143C93.53 30.7361 92.2767 30.2669 91.65 28.7809C91.4933 28.3899 91.1017 28.077 90.7883 27.686C90.945 27.4514 91.0233 27.2167 91.18 26.9821C92.7467 25.1051 93.6083 22.9935 93.06 20.4908C92.825 19.3177 93.3733 18.5356 94.47 18.1445C94.7833 20.3344 94.7833 20.3344 96.35 21.7421C95.645 21.7421 95.0183 21.7421 94.3133 21.6639C94.3133 22.055 94.235 22.2896 94.235 22.5242C94.3917 22.6806 94.5483 22.8371 94.705 22.8371C95.5667 22.9153 96.4283 22.8371 97.2117 22.9153C98.0733 23.0717 98.8567 23.3845 99.7183 23.6191C100.267 23.2281 100.815 22.7588 101.363 22.3678L101.52 22.6024C101.363 22.9935 101.207 23.4627 100.972 24.0884C101.363 24.323 101.677 24.7141 102.068 24.7141C103.008 24.7141 103.87 24.5576 105.202 24.4012C104.575 25.4179 103.713 25.2615 103.008 25.5744C104.34 27.6078 104.575 30.0323 106.298 31.7528C106.768 32.2221 106.847 32.926 106.612 33.6299C106.298 33.5516 105.907 33.4734 105.437 33.3952C105.28 34.803 105.202 36.0543 105.045 37.3839C105.045 37.5403 105.202 37.6185 105.358 37.8531C106.298 36.4454 105.828 34.803 106.455 33.4734Z" fill="#D4D1D0"/>
<path d="M46.53 78.2095C46.06 78.6787 45.6683 79.2262 45.1983 79.6172C43.945 80.5557 42.6133 81.416 41.2817 82.2763C37.7567 84.5444 34.2317 86.8124 30.8633 89.3933C29.0617 90.7229 27.1033 91.8178 25.2233 93.0691C23.1867 94.3987 21.2283 95.8847 19.1917 97.2142C17.0767 98.622 14.9617 99.9515 12.8467 101.281C10.4183 102.845 7.99 104.488 5.64 106.13C5.17 106.443 4.7 106.756 4.15167 106.912C3.995 106.99 3.68167 106.756 3.21167 106.521C3.91667 105.974 4.465 105.504 5.01334 105.035C10.6533 101.281 16.215 97.527 21.855 93.773C29.4533 88.6895 36.9733 83.6841 44.5717 78.6787C45.12 78.2877 45.7467 78.0531 46.295 77.7402C46.295 77.9749 46.4517 78.1313 46.53 78.2095Z" fill="#D4D1D0"/>
<path d="M107.003 131C106.69 130.609 106.612 130.531 106.612 130.452C106.612 130.061 106.533 129.67 106.612 129.358C108.413 118.252 110.293 107.224 112.173 96.1188C112.173 95.9624 112.408 95.806 112.643 95.4932C112.8 95.8842 113.035 96.197 112.957 96.4317C112.8 97.9958 112.565 99.56 112.33 101.202C111.233 108.241 110.137 115.28 109.04 122.319C108.648 124.9 108.178 127.481 107.708 130.061C107.63 130.296 107.317 130.531 107.003 131Z" fill="#D4D1D0"/>
<path d="M124.628 78.0533C125.098 78.9918 125.568 80.0085 126.117 80.947C126.587 81.7291 126.665 82.5112 126.273 83.3715C125.098 83.6843 124.002 83.9972 122.827 84.2318C122.2 84.3882 121.73 84.0754 121.495 83.4497C120.947 81.8073 120.712 80.1649 121.103 78.5225C121.338 77.6622 121.495 76.7237 121.73 75.707C123.532 76.1763 125.255 76.802 126.665 78.1315C127.683 79.1482 127.918 79.9303 128.153 81.8073C127.762 81.4945 127.448 81.4163 127.213 81.1816C126.743 80.4778 126.43 79.6957 125.882 79.07C125.568 78.6008 125.02 78.4443 124.628 78.0533C124.472 78.0533 124.315 77.9751 124.158 77.8969C124.315 77.8969 124.472 77.9751 124.628 78.0533ZM124.707 80.7906C124.158 80.0085 123.845 79.461 123.453 79.1482C123.218 78.9136 122.748 78.7572 122.513 78.9136C122.278 78.9918 122.043 79.461 122.043 79.7739C122.043 80.1649 122.2 80.6342 122.357 81.1816C123.062 81.1034 123.688 80.947 124.707 80.7906ZM123.062 82.7458C123.062 82.824 122.983 82.824 122.983 82.9022C123.062 82.9022 123.14 82.824 123.218 82.824C123.218 82.7458 123.14 82.7458 123.062 82.7458Z" fill="#D4D1D0"/>
<path d="M80.4483 41.0601C79.9783 41.1383 79.5866 41.1383 79.1166 41.2165C78.6466 41.2165 78.2549 41.2947 77.7849 41.2947C77.7849 40.9819 77.6283 40.6691 77.7066 40.6691C78.8816 39.8088 80.2133 40.0434 81.4666 40.1998C82.4849 40.3562 83.4249 40.8255 83.8949 41.9204C83.8949 41.9986 83.8949 42.0768 83.8166 42.3897C82.7199 42.6243 81.6233 42.8589 80.4483 43.0935C80.2916 44.032 80.2133 44.8141 80.0566 45.8308C80.9183 45.2834 81.4666 44.8923 82.0933 44.5795C82.2499 44.8141 82.4849 45.0488 82.4066 45.127C81.7016 46.4565 80.6833 47.3168 79.1166 47.3168C78.0983 47.3168 77.0799 47.395 76.0616 47.4732C75.1216 46.6129 75.0433 45.5962 75.7483 44.6577C76.4533 43.641 77.3149 42.7807 78.5683 42.3897C79.2733 42.155 79.9783 41.9204 80.6049 41.6858C80.5266 41.3729 80.5266 41.2165 80.4483 41.0601ZM76.9233 45.5962C76.9233 45.3616 76.8449 45.127 76.8449 44.9706C76.6099 45.127 76.3749 45.2834 76.1399 45.518C76.1399 45.518 76.2966 45.7526 76.3749 45.9091C76.5316 45.8308 76.7666 45.6744 76.9233 45.5962Z" fill="#D4D1D0"/>
<path d="M57.4966 49.5072C58.6716 47.552 59.5332 45.8314 61.2566 44.8929C61.5699 44.7365 61.8832 44.7365 62.5882 44.5801C62.0399 45.284 61.7266 45.7532 61.3349 46.1443C61.5699 46.2225 61.7266 46.3789 61.8832 46.3007C62.6666 45.9878 63.4499 45.675 64.2332 45.4404C64.5466 45.3622 64.8599 45.5186 65.6432 45.675C64.7816 46.3007 64.3116 46.6917 63.7632 47.0828C63.6066 47.9431 63.4499 48.8033 63.2932 49.8201C63.8416 49.8201 64.3116 49.8983 65.0949 49.8983C64.4682 50.915 63.6066 51.306 62.7449 51.4624C61.4132 51.7753 60.1599 51.3842 58.9066 50.8368C58.3582 50.6804 57.9666 50.0547 57.4966 49.5072ZM60.3949 49.429C60.2382 49.2726 60.0816 49.1162 59.8466 49.038C59.7682 49.038 59.5332 49.3508 59.5332 49.3508C59.6116 49.5072 59.8466 49.6636 60.0032 49.8201C60.0816 49.7419 60.2382 49.5854 60.3949 49.429Z" fill="#D4D1D0"/>
<path d="M114.21 64.6787C114.132 65.2262 114.053 65.7736 113.975 66.3993C113.662 67.025 112.33 66.6339 112.565 68.0417C112.722 68.9802 111.703 69.6059 110.685 69.7623C109.98 69.9187 108.962 69.3712 109.04 68.6673C109.118 67.416 108.178 66.9468 107.552 66.0865C107.787 65.4608 108.022 64.8351 108.335 64.3659C108.962 63.3492 109.98 62.8799 111.233 63.0363C111.938 63.1145 112.722 63.3492 113.427 63.5056L113.348 63.4274C112.643 63.9748 111.938 64.5223 111.233 65.0697C110.842 65.3826 110.45 65.7736 110.058 66.1647C109.98 66.2429 110.058 66.4775 110.137 66.7903C111.077 66.3211 111.938 65.8518 112.8 65.3826C113.27 65.148 113.818 64.9915 114.288 64.7569L114.21 64.6787ZM110.607 64.2877C109.353 64.2094 109.04 64.6005 109.04 65.539C109.588 65.148 109.902 64.9133 110.607 64.2877Z" fill="#D4D1D0"/>
<path d="M126.43 89.5499C125.49 89.4717 124.628 89.7846 123.845 90.4102C123.062 91.0359 122.2 91.5834 121.26 92.1308C120.633 91.4269 121.26 90.9577 121.573 90.7231C124.628 88.5332 127.997 87.2819 131.757 87.8293C133.715 88.1422 135.438 89.8628 135.673 91.9744C135.673 92.1308 135.517 92.2872 135.36 92.6001C135.125 92.3655 134.733 92.209 134.655 91.8962C133.715 89.3935 131.835 88.5332 129.328 88.8461C128.31 89.0807 127.37 89.3153 126.43 89.5499C126.352 89.5499 126.43 89.5499 126.43 89.5499Z" fill="#D4D1D0"/>
<path d="M74.4951 41.2946C74.5735 39.4176 75.5918 37.5406 76.8451 36.6803C78.8034 35.3507 80.9185 34.4122 83.2685 34.1776C83.9735 34.0994 84.7568 34.0994 85.3834 34.8815C84.9918 35.1161 84.7568 35.3507 84.4435 35.3507C82.9551 35.6636 81.4668 35.82 80.0568 36.211C78.0984 36.7585 76.5318 37.8534 75.5135 39.7304C75.2785 40.2779 74.8085 40.7471 74.4951 41.2946Z" fill="#D4D1D0"/>
<path d="M106.69 84.8564C108.805 85.3256 110.215 86.6552 112.408 86.6552C114.602 86.6552 116.012 85.4039 117.578 83.9961C118.283 84.7782 117.735 85.4038 117.5 86.0295C116.717 86.4206 115.855 86.968 114.993 87.2027C112.095 88.1412 109.432 87.9847 107.16 85.7167C106.925 85.4821 106.847 85.1692 106.69 84.8564Z" fill="#D4D1D0"/>
<path d="M68.9333 42.2335C67.9933 42.0771 67.1316 41.8425 66.1916 41.7643C65.0949 41.6861 63.9983 41.6078 62.9016 41.6861C61.4916 41.7643 60.1599 42.3117 59.2199 43.4066C58.9066 43.7977 58.4366 44.1105 57.575 44.7362C58.28 42.4681 59.455 41.3732 61.0216 40.8258C63.7633 39.809 66.5833 39.809 68.9333 42.2335Z" fill="#D4D1D0"/>
<path d="M130.425 83.3714C130.425 82.5893 130.503 82.1201 130.503 81.6508C130.582 80.243 130.19 79.0699 129.172 78.1314C127.918 76.8801 126.743 75.6287 125.49 74.2992C125.333 74.1428 125.333 73.7517 125.412 73.5953C125.49 73.4389 125.96 73.3607 126.117 73.4389C126.743 73.9863 127.37 74.5338 127.997 75.0813C128.78 75.8634 129.485 76.7236 130.268 77.5057C131.6 78.9135 131.913 80.6341 131.287 82.4329C131.287 82.7457 130.895 82.9021 130.425 83.3714Z" fill="#D4D1D0"/>
<path d="M95.175 9.07227C95.8016 9.22868 96.115 9.69794 96.115 10.2454C96.1933 11.1057 96.115 11.8878 96.115 12.7481C96.115 13.2955 95.9583 13.843 96.0366 14.3905C96.115 16.1893 97.3683 17.2842 99.17 17.206C99.64 17.206 100.188 16.9713 100.815 16.8149C99.7966 18.3791 98.0733 18.6919 96.82 17.597C95.7233 16.6585 95.0183 15.4854 95.0183 13.9994C95.0966 12.357 95.175 10.7146 95.175 9.07227Z" fill="#D4D1D0"/>
<path d="M79.6649 60.4559C76.2182 57.6404 75.7482 53.73 78.0199 50.5234C78.5682 50.9927 78.0982 51.3837 77.9416 51.6966C77.2366 53.6518 77.3149 55.5288 78.2549 57.4058C78.8032 58.4225 79.1949 59.4392 79.6649 60.4559Z" fill="#D4D1D0"/>
<path d="M74.4949 61.1592C74.1033 58.2654 73.3199 57.2487 71.9099 57.0141C70.8133 56.8577 70.1083 57.3269 68.8549 59.2039C68.6199 57.7962 69.1683 56.7013 70.3433 56.1538C71.7533 55.5281 73.0849 56.1538 74.2599 56.9359C75.6699 57.9526 75.0433 59.2822 74.4949 61.1592Z" fill="#D4D1D0"/>
<path d="M69.56 44.501C71.675 46.2998 71.2833 48.4896 70.735 50.6795C70.5783 51.2269 70.5 52.009 69.4033 51.9308C69.6383 51.0705 69.9517 50.3666 70.1083 49.5845C70.1867 48.646 70.1867 47.7075 70.1083 46.8472C70.03 46.0652 69.795 45.2831 69.56 44.501Z" fill="#D4D1D0"/>
<path d="M90.3967 51.9308C89.8483 50.9923 89.4567 50.132 88.9083 49.5063C88.2817 48.8807 87.4983 48.4114 86.5583 47.7857C86.95 47.5511 87.2633 47.2383 87.4983 47.2383C88.5167 47.2383 89.1433 47.9422 89.77 48.7242C90.6317 49.8192 90.71 50.132 90.3967 51.9308Z" fill="#D4D1D0"/>
<path d="M87.5767 10.95C89.065 10.8718 89.4567 12.5141 90.6317 12.5141C91.0233 13.6091 91.3367 14.5476 90.5533 15.6425C90.0833 14.7822 89.6133 14.0783 89.1433 13.2962C88.6733 12.5924 88.2033 11.8103 87.5767 10.95Z" fill="#D4D1D0"/>
<path d="M92.9034 9.54199C93.0601 9.93304 93.4518 10.3241 93.4518 10.7151C93.5301 11.3408 93.3734 12.0447 93.3734 12.6703C93.3734 13.296 93.3734 13.9999 93.3734 14.6256C93.3734 15.2512 93.3734 15.8769 93.4518 16.659C92.2768 15.173 92.2768 14.782 92.7468 9.6202L92.9034 9.54199Z" fill="#D4D1D0"/>
<path d="M5.405 97.3706C3.76 98.622 2.115 99.8733 0 100.421C0 100.108 0 99.7951 0.0783333 99.7951C1.72333 98.7784 3.44667 97.8399 5.17 96.9014C5.24833 97.0578 5.32666 97.2142 5.405 97.3706Z" fill="#D4D1D0"/>
<path d="M111.86 76.6451C110.685 77.1926 109.667 77.6619 108.57 78.1311C108.492 78.0529 108.335 77.8965 108.335 77.8183C108.413 77.0362 108.962 76.7234 109.588 76.4887C110.293 76.1759 111.077 75.8631 111.86 76.6451Z" fill="#D4D1D0"/>
<path d="M108.492 37.6185C108.57 37.071 108.648 36.5235 108.648 35.9761C108.727 34.4119 108.727 34.1773 107.865 32.7695C109.04 33.0824 109.588 33.5516 109.51 34.4901C109.51 35.585 109.275 36.68 108.492 37.6185Z" fill="#D4D1D0"/>
<path d="M119.928 91.8173C118.91 90.957 118.362 89.8621 117.892 88.2197C118.518 88.4544 118.832 88.5326 119.067 88.7672C119.772 89.6275 120.163 90.6442 119.928 91.8173Z" fill="#D4D1D0"/>
<path d="M70.8916 52.0094C71.8316 51.853 72.7716 51.6965 73.7116 51.4619C73.2416 52.5568 73.0849 52.7133 72.0666 52.8697C71.5966 52.9479 70.9699 52.9479 70.8916 52.0094Z" fill="#D4D1D0"/>
<path d="M94 27.217C94.0783 26.9042 94.235 26.5131 94.3917 26.1221C95.0967 26.4349 95.7233 26.7477 96.35 27.0606C96.9767 27.2952 97.6817 27.5298 99.0133 27.9209C97.6033 28.2337 96.82 27.9209 96.115 27.7645C95.3317 27.5298 94.6267 27.2952 94 27.217Z" fill="#D4D1D0"/>
<path d="M89.6916 3.28574C88.595 2.58187 87.4983 2.58187 86.3233 3.12933C85.8533 3.36395 85.305 3.52037 84.835 3.67679C85.07 2.58187 86.01 2.34724 86.8716 2.11261C87.8116 1.9562 88.7516 2.0344 89.4566 2.73828C89.6916 2.8947 89.6916 3.12933 89.6916 3.28574Z" fill="#D4D1D0"/>
<path d="M93.9216 27.1387C94.94 28.3118 96.5066 28.0772 97.9166 28.7811C95.9583 29.0939 94.3916 28.8593 93.4516 27.9208C93.3733 27.8426 93.4516 27.4515 93.53 27.2169C93.53 27.1387 93.8433 27.2169 93.9216 27.1387Z" fill="#D4D1D0"/>
<path d="M8.6167 95.1021C9.3217 94.3982 10.105 93.8508 11.1234 93.6943C10.575 94.5546 9.63503 94.8675 8.6167 95.1021Z" fill="#D4D1D0"/>
<path d="M66.8184 56.78C66.1918 55.9979 65.5651 55.2158 64.8601 54.2773C66.5051 54.4338 66.5051 54.4338 67.0534 56.6236L66.8184 56.78Z" fill="#D4D1D0"/>
<path d="M136.848 67.025C136.457 67.4161 136.065 67.7289 135.673 68.1199C135.36 68.4328 135.125 68.7456 134.812 69.0584C133.872 68.7456 134.42 68.1199 134.42 67.6507L134.342 67.7289C135.203 67.3378 135.987 66.8686 136.848 67.025Z" fill="#D4D1D0"/>
<path d="M101.363 22.3684C102.303 21.5081 102.303 21.5081 104.105 21.1953C103.008 21.8992 102.303 22.3684 101.52 22.6031L101.363 22.3684Z" fill="#D4D1D0"/>
<path d="M6.97158 109.336C6.97158 109.023 6.89325 108.789 6.97158 108.71C7.44158 108.319 7.91158 108.007 8.92992 107.303C8.38158 108.632 7.75492 108.945 6.97158 109.336Z" fill="#D4D1D0"/>
<path d="M126.195 84.6997C125.882 84.9344 125.647 85.169 125.333 85.2472C125.255 85.2472 125.02 85.0908 124.942 84.9343C125.177 84.6997 125.412 84.4651 125.725 84.2305C125.647 84.2305 125.882 84.4651 126.195 84.6997Z" fill="#D4D1D0"/>
<path d="M95.2533 9.07274C94.7833 8.36886 94.3916 7.74319 93.9216 7.03931C94 6.96111 94.1566 6.8829 94.235 6.80469C95.175 7.27394 95.645 7.97782 95.2533 9.07274C95.175 9.07274 95.2533 9.07274 95.2533 9.07274Z" fill="#D4D1D0"/>
<path d="M11.3584 105.895C11.3584 105.817 11.28 105.739 11.28 105.66C11.28 105.582 11.4367 105.504 11.515 105.504C11.5934 105.504 11.6717 105.504 11.75 105.582C11.6717 105.66 11.515 105.817 11.3584 105.895Z" fill="#D4D1D0"/>
<path d="M23.3432 97.6055C23.1082 97.9965 23.0298 98.4658 22.0898 98.2311C22.6382 97.9965 23.0298 97.8401 23.3432 97.6055Z" fill="#D4D1D0"/>
<path d="M23.4215 97.6832C23.5782 96.9011 23.8915 96.1973 24.9099 96.2755L24.8315 96.1973C24.5965 96.9794 24.0482 97.3704 23.4215 97.6832C23.3432 97.605 23.4215 97.6832 23.4215 97.6832Z" fill="#D4D1D0"/>
<path d="M24.9101 96.2751C24.9884 95.9623 25.1451 95.5712 25.2234 95.2584C25.2234 95.1802 25.5367 95.2584 25.6934 95.2584C25.6934 95.2584 25.6934 95.4148 25.6934 95.493C25.3801 95.8058 25.1451 96.0405 24.9101 96.2751C24.8317 96.2751 24.9101 96.2751 24.9101 96.2751Z" fill="#D4D1D0"/>
<path d="M93.9215 7.03887C92.9815 6.49141 92.9815 6.49141 93.6081 5.47469V5.39648C93.8431 5.86574 94.0781 6.33499 94.2348 6.80424C94.0781 6.88245 93.9998 6.96066 93.9215 7.03887Z" fill="#D4D1D0"/>
<path d="M89.8481 4.84891C89.9265 4.45787 90.0048 4.06682 90.0831 3.67578C90.7881 4.22324 90.3181 4.53608 89.8481 4.84891Z" fill="#D4D1D0"/>
<path d="M84.9917 3.67578C84.9134 4.06682 84.835 4.45787 84.6784 4.84891C84.2867 3.8322 84.2867 3.8322 84.9917 3.67578Z" fill="#D4D1D0"/>
<path d="M138.023 67.3376C137.631 67.2594 137.24 67.1812 136.848 67.103V67.1812C137.318 66.7119 137.71 66.8683 137.945 67.4158L138.023 67.3376Z" fill="#D4D1D0"/>
<path d="M67.0531 56.7021C67.1315 56.9368 67.2098 57.1714 67.2882 57.406C67.2882 57.406 67.1315 57.4842 67.0531 57.5624C66.9748 57.3278 66.9748 57.0932 66.8965 56.7804L67.0531 56.7021Z" fill="#D4D1D0"/>
<path d="M124.55 105.27C124.158 105.348 123.688 105.426 123.297 105.583V105.661C123.688 105.035 124.158 105.192 124.55 105.27Z" fill="#D4D1D0"/>
<path d="M13.5518 92.1309H13.7868L13.7084 92.2873L13.5518 92.1309Z" fill="#D4D1D0"/>
<path d="M16.45 112.073C16.6066 111.995 16.685 111.917 16.7633 111.917C16.685 111.917 16.5283 111.917 16.45 112.073Z" fill="#D4D1D0"/>
<path d="M16.3717 111.995C16.2933 112.152 16.215 112.386 16.1367 112.543C16.1367 112.464 16.0583 112.386 16.0583 112.386C16.215 112.308 16.2933 112.152 16.3717 111.995C16.45 112.073 16.3717 111.995 16.3717 111.995Z" fill="#D4D1D0"/>
<path d="M14.2566 114.576C14.3349 114.419 14.4133 114.263 14.4916 114.106C14.8049 114.576 14.3349 114.419 14.2566 114.576Z" fill="#D4D1D0"/>
<path d="M14.1783 114.498C14.1 114.654 14.0216 114.811 13.9433 114.889C13.865 114.811 13.865 114.733 13.7866 114.654C13.9433 114.654 14.1 114.576 14.1783 114.498Z" fill="#D4D1D0"/>
<path d="M79.8216 20.4908C79.5083 20.6472 79.1166 20.8037 78.725 20.9601C78.255 20.4126 77.8633 19.9434 77.3933 19.4741C77.4716 19.3959 77.4716 19.3177 77.55 19.2395C78.725 18.692 79.9 18.1446 81.075 17.5971C81.31 17.5189 81.545 17.6753 81.9366 17.6753C81.78 18.301 81.6233 18.9266 81.545 19.5523C80.9183 19.8651 80.37 20.178 79.8216 20.4908Z" fill="#D4D1D0"/>
<path d="M62.04 20.4129C62.4317 19.709 62.4317 19.709 63.5284 19.8654C63.2934 21.8206 63.1367 23.8541 62.9017 25.8875C62.51 26.0439 62.4317 25.4964 62.4317 25.2618C62.275 24.3233 62.275 23.463 62.1967 22.5245C62.1184 21.8206 62.04 21.0386 62.04 20.4129Z" fill="#D4D1D0"/>
<path d="M50.8384 32.5359C50.6818 30.7371 51.8567 29.0948 53.7367 28.1562C53.7367 28.2345 53.8151 28.3909 53.8151 28.3909C52.9534 29.7986 52.0134 31.1282 51.0734 32.5359C51.0734 32.5359 50.9168 32.4577 50.8384 32.5359Z" fill="#D4D1D0"/>
<path d="M57.8884 21.9769C56.7134 21.664 56.2434 21.0384 55.9301 20.2563C55.5384 19.2396 55.9301 18.3011 56.6351 17.1279C57.2618 18.1446 56.4001 19.0049 56.7918 19.7088C57.0268 20.4127 57.4184 21.0384 57.8884 21.9769Z" fill="#D4D1D0"/>
<path d="M63.0584 10.8716C62.4317 10.5587 62.7451 10.0113 62.7451 9.62024C63.2151 9.3074 63.6851 9.07278 64.1551 8.75994C64.8601 8.3689 65.6434 8.05606 66.6617 8.3689C65.8784 8.75994 65.2517 8.91636 64.6251 9.38561C64.0767 9.69845 63.6067 10.3241 63.0584 10.8716Z" fill="#D4D1D0"/>
<path d="M54.755 29.7972C54.1283 30.6575 53.5017 31.596 52.875 32.4563C52.17 32.3781 52.405 31.8306 52.4833 31.6742C52.9533 30.7357 53.4233 29.8754 54.52 29.4844C54.5983 29.5626 54.6767 29.719 54.755 29.7972Z" fill="#D4D1D0"/>
<path d="M61.9618 20.335C61.6485 21.7427 61.2568 23.2287 60.9435 24.6364C60.6302 22.9941 60.7085 21.5081 61.9618 20.335Z" fill="#D4D1D0"/>
<path d="M55.9299 30.9711C56.3999 30.189 57.0266 29.5634 58.3583 29.798C57.5749 30.5019 56.9483 30.9711 56.0866 31.2058L55.9299 30.9711Z" fill="#D4D1D0"/>
<path d="M67.3666 12.2793C67.9933 13.296 67.445 13.9999 66.6616 14.6256C66.74 13.7653 67.0533 12.9832 67.3666 12.2793C67.445 12.2793 67.3666 12.2793 67.3666 12.2793Z" fill="#D4D1D0"/>
<path d="M72.85 17.832C73.2416 18.1449 73.555 18.3795 73.9466 18.6923C73.8683 18.7705 73.79 18.927 73.7116 19.0052C73.32 18.7705 72.9283 18.5359 72.5366 18.3013C72.615 18.1449 72.7716 17.9884 72.85 17.832Z" fill="#D4D1D0"/>
<path d="M70.5784 22.9937C71.0484 23.1502 71.5184 23.3066 72.2234 23.463C71.2834 23.854 70.8134 23.7758 70.5784 22.9937C70.6567 22.9155 70.5784 22.9937 70.5784 22.9937Z" fill="#D4D1D0"/>
<path d="M54.52 29.4845C54.755 29.0935 54.99 28.6242 55.7734 29.0153C55.3817 29.3281 55.0684 29.5627 54.755 29.7974C54.6767 29.7191 54.5984 29.5627 54.52 29.4845Z" fill="#D4D1D0"/>
<path d="M61.2566 13.2178C61.6483 13.296 62.0399 13.3742 62.4316 13.4524C61.9616 13.9217 61.5699 13.9217 61.2566 13.2178Z" fill="#D4D1D0"/>
<path d="M60.3166 30.5024C60.3949 30.346 60.4732 30.2677 60.4732 30.1113C60.3949 30.1895 60.3166 30.2677 60.3166 30.5024C60.2382 30.4242 60.3166 30.5024 60.3166 30.5024Z" fill="#D4D1D0"/>
<path d="M103.008 62.8805C103.4 62.8805 103.713 62.9587 104.183 62.9587C103.948 64.0536 103.557 64.9921 103.557 65.9306C103.478 66.7909 103.792 67.7294 103.87 68.5897C103.243 68.9807 103.165 68.4333 103.008 68.1987C102.147 66.3999 102.617 64.6011 103.008 62.8805C103.087 62.8023 103.008 62.8805 103.008 62.8805Z" fill="#D4D1D0"/>
<path d="M136.535 46.1438C134.655 45.6745 134.655 45.6745 134.263 44.1104C135.203 44.8142 136.143 45.1271 136.535 46.1438C136.457 46.222 136.535 46.1438 136.535 46.1438Z" fill="#D4D1D0"/>
<path d="M97.8382 55.8418C98.8566 56.311 99.2482 56.7803 99.0132 57.406C98.5432 58.4227 97.9949 59.3612 97.0549 60.1433C96.4282 59.4394 97.2116 59.1266 97.3683 58.7355C97.5249 58.2663 97.9166 57.9534 97.9166 57.4842C97.9949 56.9367 97.8382 56.4675 97.8382 55.8418Z" fill="#D4D1D0"/>
<path d="M100.658 57.5625C100.502 59.7523 100.502 59.8306 98.23 61.864C98.7783 60.7691 99.0133 59.987 99.405 59.3613C99.7966 58.7356 99.875 57.9535 100.658 57.5625Z" fill="#D4D1D0"/>
<path d="M47.3918 42.7029C46.5301 42.7811 45.9034 42.4683 45.5901 41.7644C45.1201 40.6695 44.5718 39.5746 45.2768 38.3232C46.0601 39.0271 45.6684 39.9656 45.9818 40.6695C46.2951 41.2952 46.9218 41.9208 47.3918 42.7029Z" fill="#D4D1D0"/>
<path d="M54.0499 11.6534C53.9716 11.2624 53.7366 10.7931 53.8933 10.4021C54.1283 9.38538 54.9899 8.6815 55.7733 8.05583C56.1649 7.743 56.6349 8.05583 57.1833 8.75971C55.2249 9.38538 55.2249 9.38538 54.0499 11.6534Z" fill="#D4D1D0"/>
<path d="M44.3367 16.8936C43.3967 16.7372 43.1617 15.9551 43.2401 15.173C43.3967 13.6089 44.0234 12.3575 45.5901 11.3408C45.5117 11.8883 45.5901 12.2011 45.4334 12.2793C44.1017 13.6089 43.8667 15.173 44.3367 16.8936C44.2584 16.8936 44.3367 16.8936 44.3367 16.8936Z" fill="#D4D1D0"/>
<path d="M52.64 11.9665C51.3083 10.8715 51.3083 10.8715 52.3267 9.54199C52.405 9.6202 52.4833 9.6202 52.4833 9.69841C52.4833 10.2459 52.5617 10.9497 52.64 11.9665Z" fill="#D4D1D0"/>
</svg>
