<svg width="182" height="233" viewBox="0 0 182 233" fill="none" xmlns="http://www.w3.org/2000/svg">
<g opacity="0.2">
<path d="M110.718 71.0612C112.465 71.5379 114.053 71.9352 115.721 72.4119C138.748 79.0858 156.217 97.4392 161.775 120.719C163.204 126.677 163.601 132.795 163.363 138.913C162.807 156.075 156.375 170.773 144.385 182.929C134.46 193.02 122.47 199.376 108.495 201.521C77.4479 206.367 51.8004 191.272 38.937 167.833C33.6964 158.299 31.2348 148.05 31.076 137.165C30.9172 125.962 33.1405 115.316 38.4606 105.464C48.3861 87.1104 63.4728 75.5899 83.8796 71.2201C84.356 71.1407 84.8325 71.0612 85.3089 70.9023C85.5471 70.8228 85.8647 70.7434 86.1029 70.6639C86.2617 69.8694 86.1823 68.916 86.5793 68.2804C86.9764 67.5653 87.691 66.9297 88.3262 66.453C90.3113 64.9434 92.4552 63.6722 95.0756 63.7516C95.2344 63.7516 95.552 63.7516 95.6314 63.6722C95.8696 63.4338 96.2666 63.116 96.1872 62.8777C96.1078 62.6393 95.7108 62.2421 95.3932 62.2421C94.9168 62.1626 94.4403 62.3215 94.0433 62.4804C93.1699 62.8777 92.3758 63.3544 91.5024 63.7516C90.0731 64.3078 88.6438 64.5462 87.0558 64.0695C84.9913 63.3544 83.959 61.8448 83.8002 59.8585C83.7208 58.9051 83.8002 57.8722 84.1178 57.0777C84.9913 54.9325 85.9441 52.8668 88.485 51.7544C90.1525 50.9599 91.82 50.0065 93.4875 49.0531C94.5197 48.4175 95.6314 47.7024 96.4254 46.8284C97.8547 45.2394 97.6165 43.5709 95.6314 41.823C95.3138 42.1408 95.0756 42.538 94.7579 42.7764C93.8051 43.5709 92.9317 44.4449 91.8994 45.0805C89.8349 46.3517 88.1674 46.1928 86.4999 44.6038C86.0235 44.2065 85.7853 43.4915 85.5471 42.8558C85.1501 41.6641 84.7531 40.4723 84.5148 39.2805C84.356 38.486 84.2766 37.5326 84.4354 36.7381C84.8325 34.5134 86.1029 32.686 87.4528 31.0175C88.4056 29.9052 89.9143 29.508 91.3436 29.6669C92.2964 29.7463 93.2493 29.9847 94.2021 30.1436C94.9962 29.5874 94.9168 28.7134 94.9962 27.9189C95.2344 25.6148 96.2666 23.7874 97.7753 22.1189C98.4899 21.3244 99.3634 21.4039 99.8398 22.4368C100.872 24.8203 102.54 27.1244 102.301 29.9052C102.301 30.0641 102.381 30.3025 102.46 30.6203C102.937 30.4614 103.492 30.4614 103.969 30.223C105.636 29.1902 107.542 29.3491 109.209 29.8258C111.195 30.3819 112.544 31.971 113.1 34.0367C113.418 35.3874 113.577 36.897 113.577 38.3271C113.577 41.2668 112.386 43.4915 109.606 44.6832C108.336 45.2394 105.795 44.9216 104.763 43.8887C104.445 43.5709 104.207 43.1737 103.969 42.6969C103.651 42.1408 103.492 41.5052 103.175 40.7901C102.857 40.949 102.54 41.0285 102.46 41.2668C102.143 42.0613 101.666 42.9353 101.825 43.7298C102.143 45.0805 102.46 46.5901 104.128 47.0668C104.763 47.3051 105.319 47.6229 105.954 47.9408C108.654 49.3709 110.718 51.4366 111.671 54.3763C111.989 55.2503 112.465 56.1243 112.703 57.0777C112.941 57.8722 113.1 58.7462 113.1 59.6202C113.021 62.7982 111.274 63.4338 108.336 63.2749C107.224 63.1955 106.113 62.7982 105.001 62.5599C104.366 62.4804 103.731 62.6393 102.857 62.6393C103.254 63.8311 103.731 64.4667 104.763 64.7845C105.795 65.1023 106.748 65.4201 107.701 65.8174C109.606 66.6119 110.877 67.8037 110.798 70.1078C110.559 70.3461 110.718 70.6639 110.718 71.0612ZM145.179 155.598C145.259 155.598 145.338 155.518 145.418 155.518C145.338 155.598 145.259 155.598 145.179 155.598C145.1 155.439 145.1 155.28 144.941 155.121C144.862 155.042 144.703 155.201 144.544 155.201C144.624 155.28 144.624 155.359 144.703 155.359C144.941 155.518 145.021 155.518 145.179 155.598ZM115.721 181.181C115.721 181.34 115.721 181.499 115.721 181.658C115.721 181.737 115.8 181.817 115.879 181.817C115.959 181.658 116.118 181.499 116.038 181.42C116.038 181.34 115.8 181.261 115.721 181.181C115.641 180.863 115.562 180.546 115.562 180.069C115.085 180.705 115.165 180.943 115.721 181.181ZM98.9664 95.0556C99.0458 94.42 99.1252 93.7844 99.1252 93.0693C98.4105 93.3871 98.4899 93.7844 98.6487 94.2611C98.7281 94.5789 98.8075 94.8173 98.9664 95.0556C98.8869 95.7707 98.1723 96.5652 98.8075 97.3597C99.8398 96.4063 99.8398 96.4063 98.9664 95.0556ZM51.2446 121.036C51.1652 121.116 51.1652 121.116 51.0858 121.195C51.0858 121.195 51.0064 121.116 50.927 121.116C51.0858 121.036 51.1652 121.036 51.2446 121.036C52.5151 122.387 54.0238 123.023 55.6912 123.42C56.2471 123.817 56.7235 124.214 57.2793 124.532C61.7259 126.995 66.252 129.458 70.6986 132.001C72.1278 132.875 73.5571 133.351 75.2246 133.113C76.9715 132.875 78.7978 132.716 80.5447 132.477C80.6241 132.477 80.7829 132.239 80.9417 131.921C79.433 131.286 78.0831 130.412 76.5745 130.094C74.1129 129.538 71.969 128.425 69.6663 127.551C65.4579 126.042 61.3289 124.453 57.1205 122.943C56.4853 122.705 56.0883 123.182 55.5324 123.42C55.3736 122.625 54.7384 122.149 54.0238 121.91C53.2297 121.672 52.1975 121.354 51.2446 121.036ZM79.2742 175.699C78.0831 176.653 77.7655 177.526 78.1625 179.433C78.639 178.083 79.433 177.05 79.2742 175.699C79.5124 175.381 79.83 175.143 79.9888 174.825C80.3064 174.19 80.3064 173.554 79.433 173.236C78.7978 174.031 79.2742 174.905 79.2742 175.699ZM99.681 100.617C99.681 99.9816 99.681 99.4255 99.681 98.472C98.5693 99.6638 98.2517 100.697 99.2046 101.809C99.0458 102.524 98.8075 103.16 98.6487 103.875C98.4899 104.431 98.7281 104.908 99.2046 105.225C99.0458 106.02 98.8075 106.735 98.5693 107.768C99.2046 107.291 99.6016 107.053 100.237 106.576C99.681 107.768 99.2046 108.721 98.8869 109.675C98.6487 110.31 98.3311 111.105 98.5693 111.582C99.0458 112.614 98.8869 113.488 98.5693 114.521C98.4105 114.998 98.7281 115.395 99.3634 115.395C98.3311 117.302 98.887 119.447 98.7281 121.513C98.7281 121.592 98.9664 121.751 99.1252 121.831C98.9664 122.625 98.7281 123.42 98.6487 124.214C98.5693 124.691 98.8075 125.088 99.284 125.247C99.0458 126.598 97.9341 127.869 98.9664 129.299C98.7281 130.014 98.4899 130.65 98.4105 131.365C98.3311 132.08 99.681 132.636 98.5693 133.59C98.3311 133.828 98.4105 134.464 98.3311 134.94C98.1723 135.655 98.8075 135.894 99.2046 136.212C99.284 136.927 99.5222 137.483 100.396 137.483C103.016 137.483 105.716 137.403 108.336 137.403C118.5 137.403 128.663 137.403 138.827 137.324C141.05 137.324 143.274 137.244 145.973 137.165C143.115 136.132 140.653 135.814 138.192 135.655C136.683 135.576 135.175 135.338 133.666 135.258C129.537 134.94 125.408 133.908 121.279 133.59C117.706 133.351 114.132 132.716 110.559 132.318C108.177 132.08 105.795 132.08 103.651 130.968C103.492 130.888 103.254 130.968 103.095 130.968C103.334 129.697 104.366 128.425 103.016 127.154C102.619 127.313 102.222 127.392 101.904 127.472L101.984 127.551C102.063 127.234 102.143 126.836 102.301 126.518C103.016 125.645 103.254 124.771 102.857 123.738C102.698 123.261 102.857 122.625 102.698 122.149C102.54 121.672 102.222 121.195 101.904 120.798C102.063 120.321 102.222 119.765 102.381 119.288C102.46 118.732 102.143 118.573 101.507 118.812C101.269 118.891 101.031 119.05 100.793 119.129C100.951 118.732 101.11 118.256 101.348 117.858C102.143 116.508 101.904 115.077 101.745 113.727C101.428 113.647 101.348 113.568 101.269 113.568C100.951 113.727 100.554 113.806 100.237 113.965C100.554 113.25 100.951 112.456 101.269 111.661C101.348 111.343 101.507 110.946 100.951 110.708C100.634 110.549 100.316 111.423 99.9192 110.787C100.396 109.993 100.793 109.198 101.19 108.483C101.031 107.371 100.951 106.338 100.793 105.305C100.713 104.669 100.157 104.431 99.681 104.193C99.8398 103.716 100.078 103.319 100.157 102.842C100.316 101.888 100.316 101.173 99.681 100.617ZM81.9739 99.9816C81.8945 99.1077 82.2915 98.1542 81.7357 97.2008C81.4975 97.3597 81.1005 97.4392 81.1005 97.5981C81.0211 98.2337 81.0211 98.8693 81.1799 99.5049C81.1799 99.7433 81.6563 99.8227 81.9739 99.9816C82.2915 100.697 81.8151 101.73 82.6092 102.524C83.4032 101.014 83.562 100.617 83.4032 99.9022C83.3238 99.5844 83.0856 99.346 82.8474 99.0282C82.4503 99.5049 82.2121 99.7433 81.9739 99.9816ZM96.1872 173.157C96.743 172.998 97.2195 172.759 97.1401 171.885C96.5048 171.409 95.8696 170.853 95.155 170.296C95.0756 170.296 94.9962 170.296 94.7579 170.376C94.7579 170.694 94.6785 171.091 94.8374 171.329C95.155 171.965 95.7108 172.521 96.1872 173.157C95.8696 173.236 95.3932 173.236 94.6785 173.236C95.552 173.872 96.1078 174.348 97.2195 175.222C96.5842 174.031 96.346 173.633 96.1872 173.157ZM96.5048 166.483C95.7108 166.244 94.9962 166.085 93.8845 165.768C94.2021 166.403 94.3609 166.801 94.5197 167.039C95.0756 167.595 95.7108 168.151 96.346 168.628C95.7108 168.548 95.155 168.548 94.1227 168.39C95.0756 169.105 95.7108 169.581 96.346 170.058C96.4254 170.137 96.6636 170.058 96.8224 169.979C96.6636 169.502 96.4254 169.025 96.2666 168.548C97.3783 167.913 97.3783 167.913 96.8224 167.118C96.6636 166.88 96.5842 166.642 96.4254 166.483C96.9019 166.244 97.2195 165.927 96.9019 165.45C96.2666 164.496 95.7902 164.338 93.7257 164.099C94.6785 164.894 95.552 165.688 96.5048 166.483ZM55.1354 120.083C56.0883 121.672 56.0883 121.672 57.6763 121.354C57.5175 120.639 57.7557 119.765 56.8029 119.447C56.0883 119.209 55.5324 119.447 55.1354 120.083C54.7384 119.765 54.262 119.288 53.7061 118.971C53.5473 118.891 53.0709 118.971 52.9915 119.129C52.8327 119.288 52.8327 119.765 52.9915 119.845C53.3885 120.162 53.8649 120.56 54.3414 120.719C54.5796 120.719 54.8972 120.321 55.1354 120.083ZM115.165 100.538C115.641 100.299 116.276 100.141 116.197 99.4255C116.118 98.472 115.8 97.6775 115.006 97.0419C114.291 97.5981 114.291 98.1542 114.53 98.8693C114.768 99.4255 115.006 100.061 115.165 100.538C114.688 100.299 114.212 99.9816 113.418 99.5844C113.656 100.856 113.815 101.809 113.974 102.762C113.577 102.524 113.18 101.968 112.941 102.047C112.227 102.206 112.386 102.921 112.465 103.398C112.544 103.636 112.624 103.954 112.703 104.193C111.353 104.431 111.274 104.431 111.274 106.099C110.718 106.099 110.559 106.497 110.48 106.973C110.48 107.53 110.48 108.006 110.559 108.562C109.765 108.721 109.368 109.198 109.448 110.072C109.448 110.31 109.448 110.628 109.368 110.867C108.574 111.105 108.177 111.74 107.86 112.456C107.383 113.568 106.907 114.68 106.51 115.872C106.351 116.349 105.874 116.825 106.272 117.461C106.351 117.461 106.43 117.54 106.51 117.54C107.939 117.064 108.654 115.554 110.162 115.077C110.242 115.077 110.242 114.919 110.242 114.839C110.321 114.68 110.321 114.442 110.401 114.283C110.956 114.124 111.512 114.045 111.989 113.886C112.624 113.727 112.783 113.171 112.703 112.535C113.18 111.899 113.338 111.184 113.021 110.39C112.862 109.993 112.783 109.516 112.703 109.039C113.021 109.119 113.418 109.119 113.974 109.277C113.815 108.403 113.735 107.847 113.577 107.212C113.338 106.258 112.941 105.225 112.624 104.272C113.18 104.908 113.418 105.782 114.212 106.258C114.768 104.908 113.497 103.875 113.735 102.683C114.132 102.921 114.45 103.08 115.006 103.398C115.165 102.842 115.324 102.445 115.244 102.047C115.403 101.571 115.244 101.094 115.165 100.538ZM71.6514 136.053C71.8896 136.45 71.4132 137.324 72.3661 137.244C73.5571 135.894 73.5571 135.894 73.6365 134.623C72.9219 135.179 72.2072 135.655 71.6514 136.053C71.4132 135.099 71.0956 134.781 70.5398 135.02C69.5869 135.497 69.2693 135.814 68.5547 137.086C69.2693 137.483 69.9839 137.483 70.6192 136.847C70.8574 136.609 71.2544 136.291 71.6514 136.053ZM80.6241 168.946C81.0211 169.184 81.3387 169.502 81.7357 169.74C82.6886 169.184 82.5298 168.31 82.5298 167.436C83.6414 166.721 83.959 165.847 83.3238 164.655C82.9268 163.861 82.768 162.907 82.4503 162.033C82.9268 162.748 83.2444 163.622 84.2766 164.179C84.4354 163.781 84.7531 163.464 84.6737 163.225C84.5942 162.669 84.4354 162.192 84.2766 161.636C85.7853 161.874 86.1823 161.477 85.8647 160.206C85.7059 159.65 85.5471 159.173 85.3883 158.617C86.3411 159.332 86.8176 159.253 87.1352 158.458C87.3734 157.822 87.4528 157.187 86.897 156.631C86.6588 156.392 86.2617 156.154 86.0235 156.233C85.7059 156.313 85.3089 156.71 85.3089 156.949C85.2295 157.505 85.3883 158.061 85.4677 158.617C84.1178 157.505 84.1178 157.505 83.165 158.379C83.4032 159.094 83.562 159.809 83.8002 160.524C83.4826 160.206 83.165 159.968 82.8474 159.65C81.9739 160.365 82.3709 161.159 82.5298 162.033C81.4975 162.907 81.1005 163.94 81.7357 165.211C81.8945 165.529 81.9739 165.927 82.0533 166.244C81.7357 166.165 81.4181 166.085 81.0211 165.927C80.8623 166.403 80.7035 166.801 80.7035 167.277C80.5447 167.913 80.6241 168.469 80.6241 168.946C80.3858 169.502 79.9094 169.899 79.83 170.376C79.5918 171.17 80.0682 171.727 80.7829 172.521C80.9417 171.965 81.2593 171.568 81.1799 171.17C81.1005 170.455 80.8623 169.661 80.6241 168.946ZM62.4406 136.688C63.4728 137.801 63.5522 137.801 64.3463 136.927C64.5845 136.609 64.8227 136.212 65.0609 135.814C63.711 135.338 63.314 136.688 62.4406 136.688C62.2818 136.609 62.2818 136.291 62.1229 136.291C61.4877 136.212 60.8525 136.053 60.2967 136.132C59.6614 136.212 59.0262 136.529 59.0262 137.483C60.2967 137.721 61.4877 137.801 62.4406 136.688ZM86.6587 104.987C86.4205 104.51 86.1029 104.113 85.7853 103.557C84.5942 105.782 84.4354 106.894 85.2295 108.245C85.6265 107.053 85.6265 105.782 86.6587 104.908C86.4205 106.656 86.1029 108.403 85.8647 110.072C85.8647 110.39 86.0235 110.708 86.1029 111.025C86.4999 110.946 86.8176 110.866 87.0558 110.787C87.0558 112.058 86.6588 113.33 88.0086 114.521C88.088 113.488 88.088 112.694 88.2468 111.82C88.3262 111.423 88.6438 111.025 88.8027 110.628C88.7233 112.138 88.6438 113.647 88.5644 115.157C88.5644 115.872 88.5644 115.872 89.1997 117.064C89.3585 116.905 89.5173 116.825 89.5967 116.746C90.1525 117.858 89.2791 119.288 90.7878 119.924C90.8672 120.719 90.9466 121.592 91.1848 122.387C91.2642 122.784 91.423 123.34 92.0582 123.102C92.217 120.401 92.2964 117.779 93.1699 115.316C93.4081 114.601 93.1699 114.203 92.4552 113.965C92.1376 114.919 91.82 115.793 91.5024 116.666C91.423 116.666 91.3436 116.666 91.2642 116.587C91.423 115.236 91.5818 113.806 91.7406 112.456C91.1054 111.502 90.4701 110.628 89.8349 109.675C89.4379 109.993 89.1203 110.31 88.8027 110.628C88.8821 109.913 88.9615 109.119 88.8821 108.403C88.8821 107.609 88.3262 107.291 87.6116 107.291C88.0086 106.338 87.1352 105.702 86.6587 104.987ZM133.348 123.579C133.507 123.976 133.666 124.373 133.904 124.929C135.175 123.897 136.842 123.42 136.127 121.434C134.46 121.354 134.063 122.625 133.348 123.658C133.031 122.864 132.475 122.625 131.998 123.023C131.443 123.499 131.046 124.135 130.569 124.691C130.331 124.532 130.093 124.135 129.934 124.214C128.663 124.453 127.393 124.691 126.599 125.883C126.996 126.836 127.314 127.631 127.631 128.505C128.743 128.505 129.378 128.187 129.696 127.234C129.934 126.36 129.854 125.327 130.728 124.691C130.966 125.327 130.49 126.121 131.125 126.677C132.157 126.518 132.634 125.883 132.872 125.009C132.872 124.532 132.713 123.897 133.348 123.579ZM94.5197 141.138C93.9639 141.535 93.3287 141.932 92.7729 142.329C93.3287 141.455 93.9639 140.661 94.5197 139.787C94.7579 139.39 95.3138 139.151 94.9962 138.595C91.82 138.277 54.262 138.675 51.8799 139.151C54.4208 139.469 56.6441 139.787 58.8674 139.866C61.8847 140.025 64.9021 140.423 67.9194 140.979C69.4281 141.297 70.9368 141.376 72.4455 141.535C75.9392 141.932 79.433 142.25 82.9268 142.647C85.8647 143.044 88.7233 143.601 91.7406 143.362C90.7878 145.11 91.1054 146.62 92.4552 147.97C93.4081 148.844 94.5197 149.559 95.552 150.433C95.7902 150.592 96.2666 150.831 95.7108 151.387C94.7579 150.672 93.8051 149.957 92.8523 149.242C92.614 149.083 92.217 149.083 91.7406 149.003C92.1376 150.592 93.5669 150.91 94.1227 151.943C94.0433 152.022 93.9639 152.102 93.8845 152.181C93.4081 152.102 92.9317 151.943 91.82 151.705C92.7729 152.658 93.2493 153.214 93.6463 153.691C93.9639 154.088 94.2815 154.565 94.5197 154.962C93.8051 154.644 93.0905 154.247 92.3758 153.929C92.0582 154.883 92.217 155.677 92.9317 156.313C93.4875 156.79 93.9639 157.346 94.5197 157.822C93.9639 157.743 93.4875 157.664 92.6934 157.584C92.9317 158.14 93.0111 158.617 93.2493 158.935C93.8051 159.57 94.4403 160.127 95.0756 160.683C94.5197 160.762 93.9639 160.842 93.3287 160.921C93.6463 163.066 95.3138 163.464 96.743 164.099C97.2195 163.543 97.2195 163.066 96.9019 162.669C96.2666 161.954 95.6314 161.318 94.9962 160.683C95.6314 160.921 96.346 161.08 96.9813 161.318C97.3783 160.444 97.2989 159.888 96.6636 159.491C95.8696 159.014 94.8374 158.935 94.5197 157.902C95.3932 157.822 96.1872 158.935 97.2195 158.299C96.9019 157.584 96.5842 156.869 96.346 156.233C96.8224 156.154 97.2989 155.916 97.2989 155.359C97.2989 153.77 97.2989 152.181 97.2989 150.672C95.3138 149.162 93.9639 147.335 92.4552 145.507C94.2815 145.984 94.8374 148.209 96.743 148.765C97.2195 148.368 97.4577 147.97 97.0607 147.573C96.0284 146.461 94.9168 145.428 93.8051 144.475C93.3287 144.077 92.9317 143.76 92.8523 143.124C93.6463 143.362 94.3609 143.76 94.9168 144.475C95.3932 145.11 96.1078 145.587 96.743 146.143C97.2989 144.792 97.3783 144.713 96.8224 144.316C95.6314 143.362 94.5991 142.568 94.5197 141.138C95.155 141.614 95.7902 142.17 96.4254 142.647C96.5048 142.727 96.743 142.568 96.9813 142.568C97.0607 142.25 97.0607 141.853 97.1401 141.455C96.4254 141.058 95.7902 140.661 94.9962 140.184C94.8373 140.581 94.6785 140.82 94.5197 141.138ZM63.4728 121.354C62.7582 120.798 62.0435 120.162 60.9319 120.877C60.9319 121.434 61.0113 122.069 61.0113 122.705C60.6143 121.99 60.2173 121.275 59.7408 120.56C59.582 120.321 59.1056 120.242 58.788 120.162C58.7086 120.162 58.4704 120.639 58.5498 120.877C58.788 122.387 59.185 122.705 61.0113 122.625C61.7259 123.261 62.2818 123.976 63.4728 123.738C63.8698 122.943 63.5522 122.149 63.4728 121.354C63.711 121.91 63.9492 122.546 64.1875 123.182C64.3463 123.499 64.3463 124.055 64.5845 124.214C64.9815 124.532 65.5373 124.691 66.0931 124.771C66.1725 124.771 66.4108 124.373 66.5696 124.135C67.3636 124.85 67.6018 126.36 69.2693 125.883C69.1105 125.088 69.0311 124.294 68.8723 123.499C69.2693 124.214 69.7457 124.85 70.0633 125.645C70.4604 126.439 71.0956 126.995 71.969 127.154C72.5249 127.313 73.1601 127.392 74.0335 127.472C73.4777 126.598 73.7953 125.565 72.8425 125.168C72.9219 124.771 73.0013 124.373 73.1601 123.897C74.3512 125.247 74.1923 127.075 75.5422 128.187C75.701 127.154 75.8598 126.36 76.0186 125.565C73.9541 122.784 73.8747 122.228 71.6514 122.625C71.6514 123.102 71.7308 123.579 71.7308 123.976C71.2544 123.499 70.778 122.943 70.3016 122.466C69.9839 122.228 69.5869 122.149 68.9517 121.99C68.9517 122.705 68.9517 123.102 68.9517 123.499C68.5547 123.102 68.2371 122.625 67.84 122.228C67.5224 121.99 67.1254 121.831 66.649 121.592C66.5696 122.069 66.4902 122.387 66.4902 122.625C66.4902 123.102 66.5696 123.579 66.5696 124.055C66.1726 123.34 65.8549 122.625 65.4579 121.91C65.0609 121.036 64.3463 120.957 63.4728 121.354ZM132.237 151.943C131.125 151.546 131.046 150.275 130.251 149.639C130.013 149.401 129.457 149.321 129.219 149.401C128.981 149.48 128.743 149.957 128.743 150.275C128.743 151.546 129.537 152.34 130.569 152.896C131.522 153.453 131.919 153.135 132.237 151.943C133.031 152.102 132.792 153.532 133.983 153.373C134.142 151.307 134.063 151.149 132.475 150.592C132.395 150.751 132.316 150.91 132.316 151.069C132.237 151.387 132.237 151.705 132.237 151.943ZM103.731 141.138C103.572 142.012 102.778 142.886 103.413 143.839C103.572 143.839 103.81 143.839 103.969 143.76C105.239 142.806 105.319 141.058 106.192 139.866C106.43 139.549 106.51 139.072 106.827 138.198C105.636 139.072 104.922 139.549 104.207 140.105C104.207 139.628 104.207 139.151 104.207 138.516C102.143 140.423 101.745 141.138 101.825 142.806C102.54 142.17 103.095 141.614 103.731 141.138ZM89.4379 135.417C89.4379 136.053 89.4379 136.609 89.4379 137.244C89.8349 137.244 90.0731 137.324 90.1525 137.244C90.7878 136.37 91.5818 135.576 92.0582 134.543C92.3758 133.908 91.8994 133.272 90.9466 133.272C90.4701 134.066 89.9143 134.781 89.4379 135.417C89.3585 134.781 89.3585 134.066 89.3585 133.034C88.8027 133.351 88.2468 133.51 87.9292 133.828C87.3734 134.543 86.897 135.338 86.4205 136.132C86.4999 135.258 86.5793 134.384 86.7382 133.272C86.1823 133.351 85.7059 133.351 85.3089 133.59C84.5942 133.987 83.959 134.543 83.2444 135.02C83.3238 134.702 83.3238 134.305 83.4826 133.749C82.2915 133.828 81.2593 133.908 80.227 133.908C78.1625 133.908 77.2891 135.179 76.6539 136.847C77.4479 137.562 78.1625 137.562 78.7184 136.847C79.1948 136.291 79.2742 135.338 80.3064 135.497L80.227 135.417C80.0682 135.973 79.83 136.529 79.6712 137.086C80.9417 137.721 81.7357 137.165 82.4503 136.45C82.8474 137.483 83.7208 137.324 84.5942 137.324C85.3089 137.324 85.5471 136.927 85.7853 136.371C85.8647 136.212 86.1823 136.053 86.4205 135.894C86.5793 136.371 86.4205 137.006 87.1352 137.244C87.7704 137.403 88.2468 137.086 88.5644 136.688C88.9615 136.371 89.1997 135.894 89.4379 135.417ZM133.507 139.072C133.428 138.834 133.348 138.436 133.189 138.436C130.887 137.88 130.251 138.277 129.299 140.82C129.537 140.899 129.775 141.058 130.093 141.058C131.681 141.217 132.554 140.025 133.507 139.072C133.666 139.469 133.745 140.025 133.983 140.184C134.301 140.343 135.016 140.264 135.254 140.025C135.73 139.628 135.969 139.072 136.286 138.516C135.095 138.039 134.381 138.913 133.507 139.072ZM121.993 139.946C122.073 140.661 122.073 141.376 122.152 142.329C122.629 142.091 123.026 141.932 123.264 141.694C123.74 141.138 123.423 140.184 124.296 139.787C124.296 140.343 124.296 140.899 124.296 141.376C125.884 141.853 125.725 140.025 126.758 139.787C126.758 139.946 126.917 140.105 126.837 140.264C126.678 140.661 126.52 141.058 126.996 141.217C127.234 141.297 127.79 141.138 127.949 140.899C128.505 140.184 129.14 139.39 128.981 138.357C126.202 137.96 126.281 137.96 124.534 139.628C124.455 139.707 124.376 139.707 124.296 139.787C124.376 139.31 124.376 138.754 124.455 137.88C123.423 138.913 122.708 139.469 121.993 139.946C121.993 139.549 121.993 138.992 121.993 138.595C121.041 137.96 120.326 138.754 119.611 138.913C118.897 138.198 118.103 138.198 117.388 138.834C116.356 139.787 115.482 140.899 115.165 142.329C115.165 142.568 115.324 142.806 115.403 143.203C116.197 143.044 116.912 142.886 117.547 142.806C117.944 141.773 118.261 140.74 118.738 139.866C118.897 139.469 119.373 139.231 119.691 138.913C119.373 139.946 118.976 141.058 118.659 142.091C118.659 142.25 118.817 142.409 118.976 142.727C119.611 142.647 120.405 142.568 120.961 142.488C121.358 141.455 121.676 140.74 121.993 139.946ZM88.2468 127.551C88.5644 128.108 88.8027 128.664 89.1997 129.299C89.3585 129.061 89.5173 128.902 89.6761 128.743C90.5495 131.127 90.5495 131.127 91.5818 131.127C91.5024 130.173 91.423 129.299 91.3436 128.346C92.3758 127.472 90.7084 126.677 91.2642 125.803C91.2642 125.803 90.7084 125.168 90.4701 125.247C89.5967 125.406 89.5967 125.009 89.5173 124.373C89.5173 124.055 88.9615 123.738 88.5644 123.34C87.9292 124.85 88.3262 126.201 88.2468 127.551C88.088 127.075 87.8498 126.598 87.7704 126.042C87.6116 125.247 87.5322 124.373 87.5322 123.579C87.4528 122.466 86.8176 121.99 85.8647 121.672C85.6265 122.069 85.4677 122.387 85.3089 122.705C85.1501 122.228 84.9119 121.672 84.7531 121.195C84.5148 120.48 84.1972 120.003 83.2444 119.765C83.165 120.56 83.0062 121.275 82.9268 122.069C82.5298 121.116 82.4503 120.162 82.2121 119.288C81.9739 118.414 81.4975 117.779 80.227 117.938C80.227 118.653 80.227 119.447 80.227 120.162C80.227 121.275 80.7035 122.308 81.6563 122.784C82.9268 123.42 83.7208 124.532 84.6737 125.565C84.7531 125.645 84.9913 125.565 85.2295 125.565C85.9441 124.612 85.1501 123.579 85.3089 122.546C86.1823 123.499 85.7853 124.691 85.9441 125.803C86.1029 126.757 86.4999 127.631 87.294 128.108C87.8498 128.425 88.088 128.028 88.2468 127.551ZM81.4181 150.99C82.6886 151.228 82.6886 151.228 83.0856 149.798L83.0062 149.877C83.4826 149.639 84.0384 149.48 84.5942 149.242C84.0384 147.573 84.5943 145.746 83.2444 144.236C82.8474 144.633 82.4503 145.349 82.1327 145.269C81.1005 145.11 80.8623 145.666 80.9417 146.381C81.0211 147.891 81.2593 149.48 81.4181 150.99C80.9417 149.798 80.4652 148.606 79.9094 147.255C79.2742 147.891 78.7978 148.368 78.3213 148.844C78.1625 149.162 78.0831 149.559 77.8449 149.877C77.0509 150.751 76.4951 151.705 76.6539 152.896C75.7804 152.817 75.1452 153.055 75.0658 153.85C74.9864 154.883 75.0658 155.916 74.9864 156.949C74.9864 157.028 74.7482 157.107 74.6688 157.187C74.5894 156.631 74.51 156.154 74.3512 155.439C73.9541 155.757 73.5571 155.836 73.4777 156.075C73.1601 157.107 73.0807 158.22 73.7953 159.491C74.51 158.855 74.9864 158.22 75.5422 157.822C76.7333 157.107 76.8127 156.075 76.7333 154.883L76.6539 154.962C77.0509 155.121 77.4479 155.28 77.9243 155.518C78.2419 155.201 78.639 154.883 78.7978 154.485C78.9566 154.088 78.9566 153.532 78.8772 153.055C78.639 151.625 78.4007 150.275 78.1625 148.844C78.639 149.321 78.8772 149.877 78.9566 150.592C79.1154 151.466 79.1154 152.42 79.7506 153.135C81.0211 152.42 81.0211 152.42 81.4181 150.99ZM103.889 162.033C103.492 164.973 103.492 164.973 105.239 166.085C105.319 165.847 105.477 165.609 105.557 165.291C105.716 163.622 105.716 161.875 106.033 160.206C106.351 158.538 105.477 157.266 104.683 156.075C104.525 155.836 104.048 155.836 103.731 155.757C102.937 158.855 102.778 160.842 103.095 162.669C103.334 162.51 103.492 162.272 103.731 162.113C103.651 162.033 103.81 162.033 103.889 162.033ZM119.135 121.116C118.738 120.083 118.341 119.05 117.944 117.938C116.197 119.129 116.991 120.639 117.07 122.069C116.038 121.751 116.832 120.321 115.641 120.003C115.482 120.242 115.165 120.56 115.165 120.798C115.085 121.831 115.085 122.864 115.006 123.897C114.688 123.261 114.291 122.705 113.894 121.91C113.418 122.308 112.941 122.546 112.544 122.943C112.068 123.42 111.671 123.897 111.512 124.135C111.512 125.724 111.433 126.916 111.512 128.108C111.592 129.061 111.83 129.935 112.147 130.809C112.227 130.968 112.624 131.127 112.783 131.127C112.941 131.047 113.18 130.729 113.259 130.491C113.338 130.173 113.338 129.776 113.418 129.458C113.815 129.538 114.053 129.617 114.291 129.697C114.847 129.14 115.165 128.505 115.085 127.71C114.927 126.439 114.927 125.088 114.927 123.738C116.038 124.612 115.085 126.28 116.197 127.392C116.673 126.598 116.912 125.803 117.467 125.406C119.214 124.294 119.214 122.705 119.135 121.116C119.373 121.434 119.611 121.831 119.85 122.228C120.882 121.354 121.596 120.719 121.438 119.686C121.279 118.335 120.961 116.984 120.008 115.554C119.611 116.269 119.214 116.746 119.135 117.223C119.056 118.414 119.135 119.765 119.135 121.116ZM125.884 150.195C124.852 149.639 125.09 148.368 124.296 147.653C121.358 146.223 119.691 145.666 117.944 145.666C119.135 147.573 120.326 149.401 121.517 151.149C121.755 151.466 122.232 151.943 122.708 151.625C123.264 151.149 123.502 151.307 124.058 151.705C124.534 152.102 125.328 152.42 126.122 152.181C126.043 151.466 125.964 150.831 125.884 150.195C126.281 150.831 126.758 151.546 127.314 152.102C127.472 152.34 127.869 152.42 128.425 152.658C128.425 151.784 128.505 151.149 128.425 150.513C128.266 148.924 128.187 148.844 126.122 148.606C126.043 149.162 125.964 149.718 125.884 150.195ZM105.954 154.962C105.795 152.499 105.636 150.116 105.398 147.653C105.398 147.255 105.16 146.779 104.366 147.017C103.889 149.162 103.651 151.387 103.81 153.691C104.128 153.929 104.366 154.247 104.683 154.406C105.08 154.565 105.557 154.724 105.954 154.962C106.351 155.995 107.066 156.313 108.336 156.392C108.336 155.28 108.336 154.247 108.336 153.214C109.289 157.743 109.289 157.743 110.956 158.299C110.956 156.472 111.036 154.724 110.877 152.976C110.798 152.42 110.321 151.784 109.924 151.307C109.527 150.831 108.812 150.592 108.336 150.195C107.86 149.718 107.542 149.162 107.066 148.686C106.827 148.447 106.51 148.288 105.954 147.97C106.192 150.116 106.351 152.022 106.589 153.85C106.748 154.406 106.351 154.644 105.954 154.962ZM62.0435 149.639C61.8847 149.321 61.7259 149.003 61.5671 148.686C59.185 149.877 58.8674 150.354 59.5026 152.42C60.4555 152.261 61.2495 151.864 61.4083 150.751C61.4877 150.354 61.8053 149.957 62.0435 149.559C62.123 150.116 62.123 150.592 62.2024 151.069C63.4728 151.387 63.7904 149.559 64.9815 150.195C65.7755 149.321 66.9666 149.401 67.84 149.003C68.6341 147.812 68.1576 146.699 68.2371 145.587C68.2371 145.19 68.2371 144.633 68.9517 144.792C68.8723 145.746 68.7135 146.699 68.6341 147.653C68.6341 147.812 68.9517 148.209 69.1105 148.209C69.3487 148.209 69.6663 147.97 69.7457 147.732C69.9045 147.414 69.8251 147.017 69.9839 146.62C70.2221 145.825 69.9045 144.872 70.9368 144.157C71.0162 145.428 69.7457 146.54 71.0162 147.812C73.0013 146.938 75.0658 146.064 77.1303 145.11C77.3685 144.951 77.6861 144.475 77.6067 144.236C77.5273 143.601 76.9715 143.68 76.4951 143.68C75.6216 143.601 75.7804 144.713 75.1452 144.951C75.0658 144.872 74.907 144.872 74.907 144.792C74.7482 144.316 75.2246 143.521 74.4306 143.362C74.1129 143.283 73.7159 143.839 73.3189 144.077C73.1601 144.157 73.0013 144.157 72.9219 144.157C72.6043 143.76 72.4455 143.283 72.0484 143.124C70.9368 142.727 69.9839 142.806 68.8723 143.521C66.0137 145.349 65.6961 145.587 64.4257 148.288C64.3463 148.129 64.1875 147.97 64.108 147.812C63.9492 147.573 63.8698 147.335 63.7904 147.176C62.9964 147.335 62.5994 147.812 62.3612 148.527C62.3612 148.765 62.2024 149.162 62.0435 149.639ZM145.338 153.77C145.497 153.85 145.576 154.009 145.735 154.088C145.735 154.088 145.815 154.009 145.894 154.009C145.656 153.929 145.497 153.929 145.338 153.77C144.862 153.453 144.544 152.976 144.068 152.738C141.05 151.149 138.033 149.559 135.016 148.05C132.316 146.62 129.616 145.269 126.917 143.918C126.361 142.965 125.487 143.044 124.614 143.203C123.582 143.283 122.549 143.362 121.517 143.601C120.882 143.68 120.326 143.998 119.373 144.395C120.405 144.872 121.041 145.269 121.676 145.507C128.346 147.97 135.095 150.354 141.765 152.738C142.956 153.135 144.147 153.453 145.338 153.77ZM118.023 182.294C118.103 182.452 118.182 182.691 118.261 182.85C118.261 182.77 118.341 182.691 118.341 182.691C118.182 182.532 118.103 182.452 118.023 182.294C118.262 181.817 118.103 181.261 117.944 180.705C117.309 178.798 116.753 176.891 116.197 174.984C114.927 170.455 113.735 165.847 112.624 161.398C111.989 160.921 111.433 160.444 110.877 160.047C110.242 159.57 109.686 159.094 109.051 158.776C108.574 158.458 108.098 157.902 107.304 158.061C107.383 158.458 107.383 158.776 107.542 159.014C110.798 166.403 114.053 173.792 117.309 181.181C117.388 181.579 117.706 181.896 118.023 182.294ZM143.036 116.428C136.524 117.54 130.013 118.732 123.661 119.845C122.39 121.513 121.279 122.864 120.247 124.373C119.691 125.088 118.976 125.803 119.135 126.916C118.976 126.916 118.817 126.995 118.659 126.995C118.738 127.075 118.817 127.154 118.817 127.313C118.897 127.154 118.976 127.075 119.056 126.916C119.611 126.757 120.167 126.757 120.644 126.518C123.026 125.565 125.328 124.532 127.631 123.499C132.316 121.513 137.001 119.527 141.686 117.54C142.241 117.302 142.877 117.143 143.036 116.428C143.115 116.349 143.274 116.349 143.353 116.349C143.274 116.428 143.115 116.428 143.036 116.428ZM62.2818 107.053C62.3612 106.894 62.4406 106.735 62.4406 106.576C62.4406 106.497 62.2818 106.417 62.1229 106.338C62.1229 106.417 62.1229 106.497 62.1229 106.576C62.2024 106.735 62.2818 106.894 62.2818 107.053C62.5994 107.371 62.9964 107.688 63.314 108.006C68.9517 114.68 74.51 121.354 80.1476 128.028C81.2593 129.299 82.2915 130.65 83.3238 131.921C86.1823 131.921 86.5793 131.921 88.485 131.047C86.2617 128.902 84.1178 126.757 81.9739 124.691C77.5273 120.401 73.0807 116.19 68.6341 111.979C67.046 110.469 65.4579 108.96 63.8698 107.53C63.3934 107.132 62.917 106.814 62.2818 107.053ZM96.5842 77.4173C96.4254 77.2584 96.346 77.179 96.2666 77.179C95.8696 77.0995 95.552 77.0201 95.155 77.0201C88.7233 77.0995 82.5298 78.4502 76.4951 80.6749C75.701 80.9927 74.907 81.3105 74.3512 82.3433C74.6688 83.0584 74.907 83.9324 75.3834 84.8063C76.0186 86.0776 76.7333 87.2693 77.5273 88.4611C81.6563 94.7378 85.7853 101.014 89.9937 107.212C90.9466 108.721 91.82 110.31 93.3287 111.661C93.4875 110.787 93.7257 110.151 93.8051 109.516C94.1227 106.973 94.3609 104.431 94.5991 101.888C94.7579 99.9816 94.9168 98.1542 95.0756 96.2474C95.4726 90.6063 95.7108 84.8858 96.5842 79.2447C96.6636 78.6886 96.5842 77.9735 96.5842 77.4173ZM72.2867 82.8995C69.6663 83.5351 65.6961 85.7598 61.4083 89.0967C57.3587 92.1954 55.453 94.1022 54.4208 96.009C54.5796 96.2474 54.5796 96.5652 54.8178 96.7241C62.3612 102.286 69.9045 107.847 77.4479 113.409C78.1625 113.965 78.9566 114.442 80.1476 115.157C77.5273 104.193 74.907 93.6255 72.2867 82.8995ZM98.5693 77.3379C98.6487 78.4502 98.7281 79.4036 98.8869 80.2776C99.3634 83.7735 99.8398 87.2693 100.237 90.7652C100.872 96.3268 101.507 101.888 102.143 107.45C102.143 107.768 102.46 108.086 102.619 108.324C102.937 108.165 103.175 108.165 103.254 108.006C108.654 99.4255 114.053 90.8447 119.453 82.1844C119.611 81.9461 119.532 81.6283 119.611 81.3899C114.847 78.768 103.81 76.5434 98.5693 77.3379ZM124.693 132.557C135.333 133.828 145.576 135.099 155.978 136.371C156.058 135.576 156.217 134.861 156.217 134.146C156.058 128.108 155.026 122.228 153.04 116.508C152.882 116.11 152.643 115.713 152.405 115.475C152.008 115.475 151.77 115.475 151.611 115.554C143.194 120.798 134.857 125.962 126.44 131.206C125.964 131.524 125.487 132.001 124.693 132.557ZM151.532 158.22C150.102 157.981 148.753 157.346 147.244 157.187C144.227 156.79 141.289 156.233 138.271 155.677C135.492 155.121 132.634 155.042 129.934 154.088C128.425 153.612 126.758 153.612 125.17 153.453C124.614 153.373 124.058 153.453 123.264 153.453C124.931 156.313 126.758 158.855 128.425 161.477C130.172 164.179 131.919 166.88 133.825 169.502C135.572 172.044 137.16 174.825 139.304 177.05C143.988 172.998 150.341 163.384 151.532 158.22ZM96.1872 194.37C96.1078 193.417 96.0284 192.543 95.949 191.669C95.7108 189.603 95.3138 187.537 95.0756 185.472C94.2815 179.195 93.4875 172.839 92.614 166.562C92.5346 166.085 92.614 165.37 91.7406 165.211C91.5024 165.529 91.1054 165.847 90.8672 166.244C88.3262 170.137 85.7853 174.031 83.2444 177.924C81.0211 181.34 78.7184 184.757 76.4951 188.094C76.0186 188.809 75.4628 189.524 75.8598 190.398C80.7035 192.94 90.9466 195.006 96.1872 194.37ZM121.835 82.3433C121.517 83.4557 121.199 84.3296 121.041 85.2831C120.485 87.6666 120.247 90.2091 119.373 92.5132C118.182 95.9296 117.944 99.5844 116.912 103.001C116.435 104.431 116.197 105.94 115.641 107.371C115.085 108.642 114.688 110.072 114.768 111.582C115.165 111.502 115.482 111.502 115.641 111.343C118.341 109.595 120.961 107.768 123.661 105.94C126.678 103.795 129.696 101.65 132.634 99.5049C134.778 97.9953 136.921 96.4857 139.145 94.8967C139.224 94.8173 139.224 94.7378 139.304 94.6583C136.127 90.5269 127.869 84.7269 121.835 82.3433ZM69.6663 133.431C67.2048 131.603 64.6639 130.253 62.2818 128.823C58.8674 126.757 55.2942 125.009 51.8004 123.102C48.8625 121.513 46.004 119.845 43.1454 118.176C42.5102 117.779 41.9544 117.54 41.3191 118.097C39.0958 123.738 37.9048 133.431 38.937 136.768C39.334 136.768 39.6517 136.768 40.0487 136.768C43.3836 136.45 46.6392 136.212 49.9742 135.894C53.2297 135.576 56.5647 135.179 59.8202 134.781C61.8847 134.543 63.9492 134.225 66.0137 134.146C67.2048 134.066 68.3165 133.987 69.6663 133.431ZM52.7533 97.5981C52.2769 97.9953 52.0387 98.1542 51.8799 98.3926C48.0685 103.08 45.0511 108.245 42.7484 113.806C42.5896 114.203 42.5896 114.68 42.5896 115.077C44.8923 115.951 66.1726 120.003 71.8896 120.719C66.0137 113.091 59.7408 106.02 53.865 98.6309C53.6267 98.3131 53.2297 98.0748 52.7533 97.5981ZM119.77 189.921C118.738 187.458 116.594 186.028 115.403 183.883C114.212 181.737 112.624 179.831 111.195 177.844C109.765 175.858 108.495 173.713 107.066 171.727C105.716 169.74 104.207 167.754 102.619 165.529C102.381 166.244 102.143 166.721 102.143 167.118C101.348 175.143 100.475 183.168 99.7604 191.192C99.681 192.225 99.4428 193.258 99.9192 194.211C104.525 194.926 115.244 192.702 119.77 189.921ZM73.8747 189.683C76.2568 179.831 78.5596 170.217 80.8623 160.524C80.4653 160.524 80.3064 160.524 80.1476 160.603C74.1923 165.053 68.4753 169.899 62.2818 174.11C60.6143 175.302 59.1056 176.811 57.5969 178.162C57.5175 178.242 57.5175 178.321 57.5175 178.4C57.5175 178.48 57.5175 178.559 57.5175 178.639C59.979 182.135 67.7606 187.378 73.8747 189.683ZM38.8576 138.913C38.6988 139.469 38.6194 139.628 38.6194 139.787C39.0164 145.984 40.3663 152.022 42.7484 157.822C42.9072 158.22 43.066 158.776 43.8601 158.776C51.4828 153.453 59.3438 148.209 67.3636 142.488C59.7408 140.82 52.1975 140.82 44.8923 139.39C43.3836 139.072 41.875 139.072 40.3663 138.913C39.8899 138.913 39.4134 138.913 38.8576 138.913ZM44.3365 161.08C46.6392 166.721 52.1975 174.507 56.0883 177.526C59.185 173.951 61.5671 169.82 64.5051 166.085C67.1254 162.828 71.8896 155.836 72.5249 154.168C63.9492 155.757 55.6912 158.299 47.2744 160.127C46.3216 160.444 45.4481 160.762 44.3365 161.08ZM140.733 96.3268C139.701 97.757 138.589 99.1871 137.557 100.617C136.524 102.047 135.413 103.557 134.38 104.987C133.269 106.417 132.157 107.847 131.046 109.277C130.013 110.708 128.822 112.138 127.949 113.727C127.075 115.157 125.805 116.428 125.249 118.414C127.393 118.017 129.219 117.699 131.125 117.461C136.763 116.508 142.241 114.998 147.879 114.124C149.07 113.965 150.499 113.965 151.532 113.012C149.229 106.656 143.988 98.7104 140.733 96.3268ZM114.768 162.987C114.688 163.464 114.609 163.781 114.688 164.02C116.832 171.965 119.056 179.91 121.199 187.855C121.358 188.252 121.596 188.65 121.755 188.968C121.993 189.047 122.152 189.126 122.232 189.047C122.47 188.968 122.788 188.888 123.026 188.809C128.187 186.346 132.951 183.168 137.16 179.274C137.477 178.957 137.636 178.559 138.033 178.003C134.857 177.05 132.951 174.428 130.331 172.918C127.631 171.409 125.17 169.343 122.549 167.674C120.008 166.165 117.467 164.576 114.768 162.987ZM155.82 138.516C151.373 139.231 146.847 139.787 142.4 140.581C137.954 141.297 133.428 141.535 128.425 142.965C130.41 144.236 131.919 145.11 133.507 145.905C135.095 146.699 136.683 147.573 138.351 148.368C139.939 149.162 141.606 149.957 143.194 150.751C144.782 151.546 146.37 152.42 148.038 153.214C149.626 153.929 151.055 155.121 152.802 155.359C154.787 150.91 156.455 141.853 155.82 138.516ZM133.11 170.932C130.41 166.403 127.234 162.351 124.455 157.981C121.676 153.612 118.817 149.242 115.879 144.792C112.783 144.633 109.845 145.587 106.669 146.223C106.907 146.699 106.907 146.938 107.145 147.096C115.562 155.042 124.058 162.987 132.475 170.932C132.554 171.011 132.792 170.932 133.11 170.932ZM98.8869 141.376C98.6487 141.455 98.4899 141.455 98.2517 141.535C98.4105 145.349 98.3311 149.083 98.3311 152.896C98.2517 156.71 98.2517 160.524 98.2517 164.338C98.2517 168.151 98.2517 171.965 98.2517 175.779C98.2517 179.513 98.1723 183.247 98.4899 186.981C98.8075 186.505 98.9664 185.948 99.0458 185.392C99.2046 183.883 99.4428 182.373 99.5222 180.863C99.9192 176.494 100.713 172.203 100.951 167.833C101.11 165.529 101.428 163.305 101.666 161.001C102.143 156.551 102.619 152.102 103.095 147.653C103.095 147.255 103.175 146.858 103.095 146.54C102.937 145.905 102.778 145.19 102.381 144.792C101.19 143.521 99.9986 142.409 98.8869 141.376ZM97.2989 89.494C96.743 90.7652 96.4254 92.1159 96.2666 93.4666C95.7902 99.0282 95.3138 104.669 94.8374 110.231C94.3609 116.269 93.8845 122.387 93.4081 128.425C93.3287 129.538 93.4081 130.729 92.8523 131.762C92.5346 132.398 92.614 133.034 93.0111 133.669C93.8845 135.02 94.9962 136.132 96.6636 137.006C96.9018 136.37 97.2195 135.894 97.2195 135.417C97.2989 133.987 97.2195 132.557 97.2195 131.127C97.2195 122.705 97.2195 114.203 97.2195 105.782C97.2989 100.379 97.2989 94.8967 97.2989 89.494ZM130.966 102.524C130.569 102.524 130.49 102.524 130.41 102.524C125.09 106.338 119.77 110.072 114.45 113.886C110.956 116.349 107.463 118.732 104.207 121.513C104.286 122.308 104.286 123.102 104.366 123.817C104.445 124.612 104.445 125.327 104.683 126.042C104.842 126.757 104.683 127.551 105.239 128.187C105.636 127.949 105.874 127.869 106.113 127.71C114.371 119.527 122.549 111.343 130.728 103.239C130.807 103.08 130.807 102.921 130.966 102.524ZM121.199 191.828C117.388 192.94 113.815 194.132 110.083 194.926C106.43 195.721 102.619 195.959 98.7281 196.515C98.5693 197.866 98.3311 199.217 98.8075 200.647C99.284 200.726 99.681 200.806 99.9986 200.806C107.701 200.647 115.085 198.899 122.152 195.959C122.47 195.8 122.708 195.483 123.026 195.244C122.629 193.814 122.152 192.622 121.199 191.828ZM73.0013 196.039C73.7953 196.357 74.3512 196.674 74.9864 196.913C81.2593 199.137 87.7704 200.567 94.5197 200.726C97.2195 200.806 97.5371 200.567 97.3783 197.866C97.3783 197.31 97.1401 196.833 97.0607 196.436C93.1699 195.959 89.4379 195.721 85.8647 195.006C82.1327 194.291 78.5596 193.178 74.7482 192.225C74.0335 193.417 73.3983 194.529 73.0013 196.039ZM142.877 181.817C148.276 177.447 155.978 165.609 157.011 160.047C155.978 159.411 154.946 159.014 153.596 158.855C152.882 160.365 152.167 161.795 151.452 163.225C150.738 164.655 149.944 166.085 149.07 167.436C148.276 168.707 147.403 169.979 146.529 171.25C145.576 172.521 144.544 173.792 143.512 175.063C142.48 176.255 141.447 177.447 140.336 178.718C141.13 179.831 141.924 180.705 142.877 181.817ZM38.4606 162.669C39.7311 161.557 41.0809 161.239 41.7956 160.127C41.7162 159.809 41.7162 159.57 41.6367 159.411C39.0958 153.135 37.5077 146.62 37.1901 139.787C37.1901 139.31 36.9519 138.913 36.8725 138.516C34.7286 137.88 34.7286 137.88 32.8229 138.198C32.6641 142.965 33.5375 147.653 34.6492 152.261C35.5226 155.757 36.5549 159.253 38.4606 162.669ZM53.1503 183.644C54.5002 184.836 55.85 186.028 57.2793 187.14C58.7086 188.252 60.1379 189.285 61.6465 190.318C63.2346 191.351 64.9021 192.305 66.5696 193.258C68.1576 194.132 69.6663 195.085 71.4132 195.403C72.5249 194.211 73.0013 192.94 73.0807 191.589C72.7631 191.351 72.6837 191.192 72.5249 191.113C66.649 188.411 61.4083 184.995 56.6441 180.625C56.4059 180.387 56.0089 180.307 55.6118 180.069C54.8178 181.181 53.3885 181.658 53.1503 183.644ZM39.0958 164.02C39.2546 164.496 39.4134 164.973 39.5722 165.37C42.5102 171.25 46.2422 176.494 50.7682 181.181C51.0858 181.499 51.4828 181.737 51.8799 181.976C52.8327 180.863 54.0238 180.228 54.5796 178.718C53.4679 177.526 52.3563 176.255 51.2446 174.984C50.0536 173.554 48.9419 172.203 47.9097 170.694C46.8774 169.264 46.0834 167.833 45.1305 166.403C44.1777 164.894 43.5424 163.146 42.4308 161.716C41.0015 162.113 40.1281 163.146 39.0958 164.02ZM70.6192 77.6557C64.4257 79.4831 52.6739 88.0639 50.133 92.4337C50.927 93.2282 51.721 94.0227 52.5151 94.8967C54.5002 93.0693 56.4059 91.1625 58.4704 89.494C60.6143 87.7461 62.8376 86.0776 65.1403 84.568C67.3636 83.1379 69.7457 81.9461 72.2072 80.516C71.6514 79.5625 71.175 78.6091 70.6192 77.6557ZM154.47 114.76C155.264 118.335 156.296 121.751 156.852 125.327C157.408 128.981 157.646 132.636 157.963 136.291C160.028 136.768 160.028 136.768 161.537 136.291C162.331 130.729 159.949 117.779 157.249 113.33C156.296 113.568 155.184 113.806 154.47 114.76ZM101.11 70.1872C101.745 69.8694 101.904 69.8694 102.063 69.79C104.207 67.8037 104.286 67.2475 102.301 65.1818C101.507 64.3873 101.11 63.5133 101.031 62.401C101.031 61.8448 100.951 61.2886 100.872 60.5736C102.619 59.3023 103.016 57.3955 103.016 55.3298C103.016 54.6941 103.095 53.9791 103.016 53.3435C102.857 51.5161 102.619 49.7681 101.348 48.338C101.031 48.0202 100.951 47.5435 100.793 47.0668C100.554 46.2723 100.316 45.3983 100.157 44.6038C100.078 44.0476 99.9192 43.412 100.078 42.9353C100.554 41.4257 101.19 39.9161 102.222 38.6449C103.254 37.4531 104.683 37.2148 106.113 37.2942C106.907 37.2942 107.224 37.9298 107.145 38.7244C106.986 38.8038 106.827 39.0422 106.669 39.0422C105.954 38.9627 105.239 39.2011 104.922 39.7572C104.525 40.4723 104.683 41.2668 105.001 41.9819C105.716 43.4915 107.86 43.8887 109.13 42.7764C110.401 41.6641 110.718 40.2339 110.003 38.7244C109.527 37.6915 108.892 36.7381 108.177 35.8641C107.701 35.2285 106.986 34.8312 106.192 34.8312C104.763 34.9107 103.334 35.2285 102.301 36.3408C101.11 37.5326 100.157 38.9627 99.7604 40.7106C99.2046 43.0942 99.1252 45.6367 97.5371 47.7024C97.4577 47.7819 97.6959 48.0202 97.7753 48.1791C98.4899 48.0202 99.1252 47.7819 99.9986 47.5435C100.316 48.4175 100.793 49.212 100.872 50.0065C101.19 53.3435 101.507 56.6804 100.157 59.8585C99.5222 61.527 99.681 63.1955 100.157 64.864C100.951 66.3735 101.428 68.1215 101.11 70.1872ZM33.0611 136.45C33.9346 136.609 34.8874 136.768 35.8403 136.768C36.3961 136.768 36.9519 136.45 37.0313 135.735C37.1107 134.94 37.1107 134.225 37.1107 133.431C37.1901 129.061 37.746 124.691 38.8576 120.48C39.2546 119.129 39.5722 117.779 39.8899 116.349C38.7782 115.713 37.6666 115.157 36.6343 114.521C34.1728 119.129 32.1083 131.365 33.0611 136.45ZM40.3663 114.68C42.0338 111.343 43.5424 108.086 45.3687 104.908C47.195 101.809 49.4183 98.9487 51.4034 95.9296C50.3712 94.2611 50.3712 94.2611 48.7831 93.7049C44.6541 97.2803 38.3018 107.847 37.1901 113.091C38.143 113.965 39.1752 114.442 40.3663 114.68ZM75.7804 91.4008C75.7804 91.7981 75.701 92.1159 75.7804 92.3542C77.3685 98.3131 78.9566 104.272 80.4653 110.31C80.9417 112.217 81.7357 114.045 81.1005 116.031C84.0384 118.573 87.294 120.798 89.1203 121.592C89.1203 121.275 89.1997 121.036 89.1203 120.798C88.2468 118.176 76.5745 92.5926 75.7804 91.4008ZM124.217 194.768C129.616 192.94 138.907 186.505 141.765 182.77C141.05 181.737 140.495 180.466 139.145 179.831C137.398 181.261 135.73 182.77 133.904 184.121C132.157 185.392 130.331 186.663 128.505 187.776C126.599 188.968 124.534 190 122.549 191.113C123.105 192.384 123.582 193.496 124.217 194.768ZM97.1401 72.253C96.2666 72.253 95.552 72.253 94.9168 72.253C92.2964 72.4119 89.5967 72.5708 86.9764 72.7297C86.4999 72.7297 86.0235 72.6502 85.5471 72.7297C81.5769 73.7626 77.6861 74.7954 73.7953 76.0667C71.969 76.6228 71.8102 77.4173 72.8425 79.0858C73.0807 79.4831 73.4777 79.7214 73.7953 80.1187C77.6067 78.5297 81.4181 77.2584 85.3089 76.6228C89.1997 75.9872 93.1699 75.6694 97.2195 75.1132C97.2989 74.7954 97.3783 74.3982 97.3783 74.0804C97.2989 73.6036 97.2195 73.1269 97.1401 72.253ZM156.772 111.74C156.693 111.264 156.693 111.025 156.693 110.867C153.914 104.113 150.023 98.0748 145.1 92.7515C144.782 92.4337 144.385 92.1954 143.909 91.957C143.115 92.7515 142.4 93.546 141.844 94.1022C141.924 94.42 141.924 94.5789 141.924 94.6583C142.083 94.8967 142.162 95.1351 142.4 95.3734C147.006 100.379 150.499 106.099 153.199 112.376C153.358 112.694 153.596 112.932 153.914 113.33C154.628 113.012 155.184 112.853 155.82 112.535C156.137 112.217 156.455 111.979 156.772 111.74ZM98.7281 75.2721C99.5222 75.3516 99.9986 75.431 100.475 75.5105C102.937 75.7488 105.398 75.9872 107.86 76.305C111.512 76.8612 115.085 77.894 118.579 79.0858C120.961 79.9598 121.438 79.7214 122.708 77.5762C122.788 77.4173 122.708 77.2584 122.708 77.0201C118.976 74.8749 112.783 73.1269 105.001 72.0941C102.937 71.8557 100.872 71.6174 98.7281 72.0941C98.7281 73.1269 98.7281 74.0804 98.7281 75.2721ZM78.4007 182.77C78.639 182.452 78.8772 182.135 79.036 181.817C83.0856 175.62 87.0558 169.343 91.1054 163.146C91.6612 162.272 91.82 161.398 91.6612 160.444C91.423 158.458 91.1848 156.472 90.9466 154.485C90.8672 154.088 90.9466 153.691 90.2319 153.691C85.8647 163.225 82.0533 172.998 78.4007 182.77ZM142.956 90.7652C139.462 86.2365 128.584 78.768 124.137 77.8146C123.661 78.6886 122.867 79.3242 122.708 80.5954C124.931 81.8666 127.075 82.979 129.14 84.2502C131.125 85.5214 133.11 86.8721 134.936 88.3817C136.842 89.8913 138.668 91.5597 140.495 93.1488C141.606 92.5132 142.638 91.957 142.956 90.7652ZM158.122 137.96C157.884 138.436 157.725 138.595 157.725 138.754C157.646 139.151 157.566 139.469 157.566 139.866C157.328 145.349 156.217 150.592 154.549 155.757C154.39 156.233 154.311 156.79 154.231 157.266C156.217 158.14 156.217 158.14 157.805 158.14C160.107 153.453 162.092 142.647 161.457 138.357C160.425 138.198 159.313 138.118 158.122 137.96ZM89.8349 146.381C89.5173 146.461 89.2791 146.381 89.1997 146.54C82.0533 153.453 74.8276 160.444 67.6812 167.357C67.1254 167.833 66.7284 168.469 66.252 169.025C69.2693 167.436 71.7308 165.053 74.51 163.146C77.2097 161.239 79.83 159.094 82.4503 157.028C85.1501 154.883 87.9292 152.896 90.5495 150.672C90.2319 149.162 90.0731 147.812 89.8349 146.381ZM112.147 39.5189C112.227 37.3737 112.068 35.6257 111.512 34.1162C110.956 32.5271 109.845 31.2559 107.78 31.097C104.922 30.8586 102.54 31.7326 100.634 33.8778C100.237 34.3545 99.8398 34.8312 99.4428 35.3079C98.3311 34.8312 97.2989 34.5134 96.5842 33.8778C95.0756 32.6066 93.2493 32.5271 91.5024 32.4477C89.1997 32.2888 87.5322 33.3216 86.2617 35.2285C85.4677 36.4997 85.4677 37.9298 85.6265 39.36C85.7059 39.7572 85.9441 40.075 86.2617 40.7106C86.5793 39.5189 86.6587 38.5655 87.0558 37.6915C88.3262 35.0696 91.8994 34.1162 94.7579 35.4668C95.552 35.8641 96.2666 36.2614 96.9813 36.8175C97.6959 37.3737 98.2517 38.1682 98.8075 38.8038C99.9192 37.4531 100.793 36.1025 101.984 34.9901C104.525 32.4477 108.336 32.8449 110.242 35.8641C110.798 36.897 111.274 38.0093 112.147 39.5189ZM53.3885 157.107C57.0411 156.631 60.4555 155.518 63.9492 154.644C67.443 153.85 70.9368 152.976 74.5894 152.181C75.2246 151.228 75.9392 150.195 76.6539 149.162C77.2891 148.209 78.2419 147.414 78.5596 145.905C69.9839 149.401 61.8053 152.817 53.7061 156.472C53.5473 156.551 53.4679 156.79 53.3885 157.107ZM115.879 91.5597C115.721 91.4803 115.641 91.4803 115.482 91.4008C114.927 92.1954 114.371 92.9104 113.974 93.7049C110.639 99.5049 107.224 105.146 103.413 110.549C102.937 111.184 102.698 111.899 102.857 112.694C103.095 114.203 103.254 115.713 103.492 117.223C103.572 117.62 103.492 118.176 104.286 118.256C108.098 109.675 111.909 101.094 115.641 92.5132C115.721 92.2748 115.8 91.8775 115.879 91.5597ZM96.743 49.4503C95.6314 49.6887 95.0756 50.4038 94.9168 51.1983C94.5991 52.7873 94.2815 54.3763 94.2021 55.9654C94.1227 56.7599 94.4403 57.7133 94.9168 58.3489C95.4726 59.2229 96.0284 60.0174 96.9019 60.7325C98.6487 62.1626 98.5693 63.5133 96.6636 64.864C96.2666 65.1023 95.7902 65.2612 95.3932 65.4201C94.4403 65.7379 94.1227 66.453 94.0433 67.4064C93.9639 68.9955 94.3609 69.7105 95.949 70.1078C96.5842 70.2667 97.2195 70.8228 98.0929 70.505C97.3783 69.0749 96.743 67.7242 97.6165 66.3736C99.284 63.8311 98.8075 61.4475 97.4577 58.9051C96.1872 56.3626 95.7902 53.6613 96.6636 50.8805C96.6636 50.4038 96.6636 49.927 96.743 49.4503ZM97.7753 41.5052C97.6165 38.7244 96.1078 37.612 94.2815 36.6586C92.5346 35.7846 90.9466 36.1819 89.3585 36.8175C88.5644 37.1353 88.1674 37.7709 87.9292 38.5655C87.5322 40.1545 87.5322 41.7435 88.2468 43.2531C88.6438 44.1271 89.5173 44.5243 90.3907 44.0476C91.423 43.412 92.4552 42.6969 93.3287 41.9024C93.7257 41.5846 94.0433 40.949 93.5669 40.3928C93.1699 39.9161 92.614 39.8367 91.9788 39.9956C91.2642 40.2339 90.5495 40.5517 90.3113 41.4257C90.2319 41.7435 89.9937 42.0613 89.8349 42.2997C88.8821 42.0613 88.5644 41.5052 88.9615 40.7901C90.3907 38.3271 93.0111 37.7709 95.3138 39.4394C96.1078 39.9956 96.743 40.6312 97.7753 41.5052ZM93.5669 50.9599C93.1699 50.8805 93.0905 50.801 93.0111 50.801C88.8027 52.7873 89.0409 56.9188 89.6761 60.3352C89.7555 60.5736 89.9937 60.8119 90.1525 61.0503C90.6289 61.6064 91.1848 61.8448 91.8994 61.6064C92.7728 61.2886 93.5669 60.8914 94.5197 60.4147C93.7257 58.8256 92.6934 57.475 92.8523 55.8065C93.0111 54.2969 93.3287 52.7079 93.5669 50.9599ZM103.651 48.6558C105.16 57.5544 104.048 55.9654 103.254 60.7325C104.604 60.8914 105.716 60.4147 106.589 59.5407C107.86 58.2695 108.574 56.6804 107.939 54.8531C107.304 53.1846 106.43 51.5955 105.557 50.0065C105.16 49.3709 104.683 48.6558 103.651 48.6558ZM99.4428 33.3216C101.031 31.097 101.269 29.9847 100.396 27.6806C99.9986 26.5682 99.5222 25.3765 99.0458 24.2641C98.8869 23.9463 98.6487 23.708 98.3311 23.3107C96.5048 25.297 95.949 27.5217 96.2666 29.9052C96.346 30.3025 96.5842 30.7792 96.9019 31.097C97.6959 31.971 98.5693 32.6066 99.4428 33.3216ZM111.989 153.532C111.353 155.518 111.433 158.14 112.306 159.411C112.624 159.888 113.418 160.524 113.815 160.365C114.927 160.127 115.085 160.762 115.482 161.398C115.641 161.716 116.118 161.874 116.753 162.351C116.673 160.603 116.673 159.173 116.515 157.822C116.435 157.028 115.8 156.551 114.768 156.392C114.688 157.107 114.53 157.743 114.45 158.458C114.053 157.664 113.894 156.79 113.894 155.995C113.815 154.644 113.1 154.009 111.989 153.532ZM99.3634 49.1325C98.0929 49.6092 97.8547 49.927 97.4577 51.3572C96.743 54.0585 97.3783 57.1572 99.1252 59.3818C99.8398 58.0311 99.9986 56.601 99.9986 55.2503C99.9192 53.1846 100.396 51.0394 99.3634 49.1325ZM93.7257 70.9818C93.8051 70.8228 93.9639 70.6639 94.0433 70.505C92.0582 69.3927 93.0905 67.4064 92.614 65.7379C90.8672 66.2941 89.4379 67.2475 88.2468 68.3598C87.7704 68.7571 87.5322 69.2338 87.691 69.8694C87.8498 70.5845 88.5644 71.2201 89.2791 71.2201C90.7084 71.1407 92.217 71.0612 93.7257 70.9818ZM89.2791 62.401C88.088 59.8585 88.088 59.8585 88.088 56.8393C88.088 56.3626 88.088 55.8859 88.088 55.4092C88.088 55.012 88.4056 54.4558 87.7704 54.138C85.3089 55.4887 84.9913 57.7133 85.3089 60.1763C85.3883 60.9708 85.7853 61.6859 86.4999 62.0037C87.294 62.401 88.088 63.0366 89.2791 62.401ZM110.639 61.527C111.75 59.7791 111.75 58.3489 111.036 56.8393C110.321 55.3298 109.606 53.7407 108.892 52.2311C108.733 51.9133 108.415 51.7544 108.018 51.4366C107.78 52.4695 108.336 53.0257 108.733 53.6613C109.527 55.0914 109.686 56.5215 108.971 58.0311C108.654 58.8256 108.177 59.5407 107.78 60.3352C107.621 60.7325 107.383 61.0503 107.066 61.6064C108.415 61.527 109.527 61.527 110.639 61.527ZM122.549 132.318C123.74 130.729 123.105 128.981 123.105 127.154C121.279 127.392 121.755 129.061 121.041 129.855C120.802 129.299 120.644 128.743 120.326 127.869C119.691 128.505 119.056 128.902 118.817 129.379C118.5 130.094 118.103 130.968 118.817 131.683C120.008 131.921 121.199 132.08 122.549 132.318ZM105.319 66.9297C104.763 68.2009 104.366 69.3133 103.889 70.505C105.319 70.6639 106.669 70.9023 107.939 70.9818C108.495 71.0612 108.892 70.6639 108.892 70.1078C108.812 69.4722 108.812 68.6777 108.415 68.2804C107.621 67.4064 106.748 66.6914 105.319 66.9297ZM108.018 143.76C110.321 144.157 110.48 144.077 111.115 142.409C111.512 141.455 111.989 140.502 112.386 139.549C112.544 139.231 112.544 138.913 112.624 138.595C111.83 138.277 111.115 138.198 110.639 138.754C109.448 140.343 108.336 141.853 108.018 143.76ZM125.805 111.661C125.884 111.899 125.884 112.138 125.964 112.376C126.043 112.614 126.122 112.853 126.202 113.171C126.44 113.091 126.758 113.012 126.917 112.773C127.155 112.376 127.472 111.979 127.472 111.582C127.393 110.787 127.234 109.913 126.599 109.277C123.423 111.502 123.105 112.614 124.931 115.475C126.043 114.362 125.17 112.932 125.805 111.661ZM79.6712 120.56C79.5918 119.527 79.5918 118.653 79.433 117.858C79.1948 116.825 78.8772 115.793 77.4479 115.872C77.2097 115.872 76.9715 115.395 76.7333 115.157C76.4951 114.919 76.2568 114.68 75.9392 114.362C75.4628 117.223 75.5422 117.461 77.1303 118.176C77.2097 118.017 77.2097 117.858 77.2891 117.699C77.3685 117.54 77.4479 117.461 77.6067 117.223C78.2419 118.176 77.6067 119.924 79.6712 120.56ZM115.959 138.675C114.768 138.198 113.974 138.357 113.497 139.31C112.941 140.581 111.989 141.694 111.83 143.362C112.624 143.362 113.338 143.362 113.974 143.362C114.688 141.694 115.324 140.264 115.959 138.675ZM122.867 113.091C121.517 113.886 121.12 114.203 121.199 114.76C121.517 116.19 121.279 117.699 122.311 118.891C124.137 116.905 124.137 116.746 122.867 113.091ZM106.748 161.239C105.874 163.622 105.557 165.768 105.954 167.833C106.033 168.231 106.192 168.787 106.827 168.548C107.145 166.721 107.542 164.973 107.939 162.907C107.78 162.669 107.542 162.033 107.304 161.398C107.224 161.398 106.986 161.318 106.748 161.239ZM105.001 144.395C105.874 144.713 106.51 144.633 106.907 143.918C107.701 142.409 108.415 140.899 109.13 139.39C109.209 139.151 109.13 138.913 109.13 138.595C107.463 139.072 106.669 140.184 105.001 144.395ZM108.574 171.806C108.971 170.137 109.209 169.025 109.527 167.992C109.845 166.88 109.368 166.006 108.495 164.973C107.542 167.198 106.827 169.264 108.574 171.806ZM119.77 164.258C119.453 162.51 119.214 161.239 118.897 159.968C118.738 159.491 118.103 159.253 117.626 158.855C117.07 162.113 117.309 162.907 119.77 164.258ZM123.82 131.286C124.376 130.968 124.773 130.888 124.931 130.571C125.17 130.173 125.408 129.697 125.408 129.299C125.249 128.266 125.646 127.075 124.852 126.042C123.343 127.154 123.343 127.234 123.82 131.286ZM110.242 168.787C109.051 171.727 109.13 172.6 110.639 173.951C111.671 171.329 111.671 171.25 110.242 168.787ZM111.75 172.6C111.75 173.872 111.671 174.825 111.75 175.779C111.909 177.05 113.497 177.447 113.577 178.798C113.577 178.877 113.894 178.877 114.053 178.957C114.53 176.97 114.53 176.97 112.941 175.779C112.624 174.825 113.18 173.633 111.75 172.6ZM98.4899 138.516C98.5693 140.184 99.5222 140.74 100.554 141.376C101.19 140.502 101.825 139.707 101.904 138.516C100.793 138.516 99.7604 138.516 98.4899 138.516ZM109.13 130.173C109.368 128.823 109.368 128.823 108.733 127.154C107.701 127.949 106.748 128.664 105.954 130.094C107.145 130.253 108.098 130.571 109.13 130.173ZM76.8127 89.9707C77.6067 92.7515 79.1154 94.7378 79.9094 97.2008C80.5447 95.6118 80.7035 95.1351 80.227 94.7378C78.7978 93.4666 78.4007 91.5597 76.8127 89.9707ZM122.232 165.927C122.073 164.735 122.073 163.861 121.835 162.987C121.676 162.272 121.199 161.716 120.247 161.716C120.008 163.066 120.088 164.258 120.882 165.291C121.12 165.529 121.676 165.609 122.232 165.927ZM128.346 110.628C129.696 109.198 130.172 108.006 129.06 106.656C127.393 107.609 127.472 108.88 128.346 110.628ZM143.988 118.494C143.909 118.335 143.83 118.176 143.75 118.017C142.48 118.573 141.13 119.129 139.859 119.765C139.701 119.845 139.621 120.321 139.701 120.48C139.859 120.957 140.256 120.957 140.574 120.798C141.686 120.083 142.797 119.288 143.988 118.494ZM110.083 125.883C109.527 128.823 109.686 129.855 110.718 130.65C111.512 127.869 111.433 127.154 110.083 125.883ZM63.4728 105.225C64.5051 106.814 65.6961 108.006 67.046 109.119C67.1254 109.198 67.3636 109.119 67.6018 109.119C67.6018 108.801 67.6812 108.483 67.5224 108.324C66.4902 107.371 65.4579 106.497 64.4257 105.623C64.108 105.384 63.7904 105.305 63.4728 105.225ZM79.3536 129.617C78.7978 128.823 78.4802 128.266 78.0037 127.71C77.5273 127.075 76.7333 126.836 76.6539 127.234C76.5745 127.631 76.6539 128.108 76.8127 128.505C77.3685 129.379 78.1625 129.697 79.3536 129.617ZM76.8921 134.861C76.4157 134.702 76.2568 134.543 76.098 134.543C74.9864 134.781 74.4306 135.655 73.9541 136.529C73.7953 136.768 74.1923 137.324 74.5894 137.244C74.907 137.165 75.3834 137.086 75.5422 136.847C76.0186 136.37 76.3363 135.735 76.8921 134.861ZM73.1601 112.217C73.5571 115.236 73.5571 115.236 74.907 115.793C74.51 114.442 74.9864 112.853 73.1601 112.217ZM83.8796 105.623C85.1501 102.604 85.1501 102.604 83.8796 101.491C83.7208 102.921 82.9268 104.113 83.8796 105.623ZM99.284 65.9763C98.3311 66.7708 98.4105 67.7242 98.6487 68.5982C98.6487 68.7571 99.0458 69.0749 99.284 69.0749C99.5222 69.0749 99.8398 68.8366 99.9192 68.6777C100.078 67.6448 99.9192 66.7708 99.284 65.9763ZM135.016 151.625C135.492 153.612 135.492 153.612 137.239 153.85C136.921 152.738 136.763 151.705 135.016 151.625ZM85.0707 147.97C86.4999 147.335 86.7382 147.096 86.4205 146.461C86.1029 145.905 86.1823 144.951 85.2295 144.713C84.5943 145.905 84.5942 145.905 85.0707 147.97ZM65.4579 137.006C65.8549 137.165 66.0931 137.483 66.252 137.403C67.2842 137.086 67.9194 136.37 68.3959 134.861C66.9666 135.417 66.0931 135.973 65.4579 137.006ZM56.8029 153.373C58.3116 152.976 58.3116 152.976 57.9939 151.069C56.8029 151.705 56.8029 151.705 56.8029 153.373ZM71.7308 161.159C72.6837 161.001 72.8425 160.444 72.8425 159.729C72.8425 158.538 72.8425 158.538 72.0484 157.981C71.4132 159.014 71.4132 160.047 71.7308 161.159ZM96.6636 180.546C95.7902 181.976 95.8696 182.532 96.8224 184.995C97.1401 183.565 97.0607 182.294 96.6636 180.546ZM72.0484 113.409C72.2866 112.297 72.1278 111.423 71.4926 110.628C71.4132 110.469 71.175 110.39 71.0162 110.39C70.8574 110.39 70.6192 110.549 70.6192 110.628C70.6986 111.74 70.381 112.932 72.0484 113.409ZM123.423 164.179C122.867 165.291 123.264 166.006 123.74 166.721C123.979 167.118 124.296 167.039 124.693 166.642C124.455 165.847 124.455 164.894 123.423 164.179ZM91.5818 137.165C92.3758 137.244 92.8523 137.403 93.2493 137.324C93.4875 137.244 93.8845 136.847 93.8845 136.609C93.8845 136.291 93.6463 135.894 93.4081 135.735C93.1699 135.576 92.6934 135.655 92.4552 135.894C92.1376 136.053 92.0582 136.45 91.5818 137.165ZM71.0162 160.047C69.6663 161.001 69.6663 161.795 69.9045 162.669C69.9045 162.828 70.1427 162.987 70.3016 162.987C70.4604 162.987 70.778 162.828 70.778 162.748C70.8574 161.954 70.9368 161.239 71.0162 160.047ZM116.038 131.127C116.356 131.286 116.515 131.444 116.673 131.444C117.229 131.603 117.626 131.365 117.706 130.809C117.785 130.332 117.785 129.776 117.229 129.617C116.673 129.458 116.356 129.855 116.197 130.332C116.118 130.571 116.118 130.809 116.038 131.127ZM47.7508 137.483C49.4183 137.483 50.53 137.801 51.4034 136.847C50.2124 136.212 49.2595 137.006 47.7508 137.483ZM115.959 94.5789C115.721 96.009 115.721 96.009 116.673 97.2803C117.388 96.3268 117.388 95.4529 115.959 94.5789ZM55.5324 152.817C55.2148 152.896 54.9766 152.896 54.7384 153.055C54.1826 153.294 53.9443 153.77 54.1032 154.406C54.1032 154.565 54.4208 154.644 54.5002 154.644C55.056 154.565 55.5324 154.327 55.6118 153.691C55.6912 153.373 55.6118 153.135 55.5324 152.817ZM136.763 122.625C137.477 122.387 137.954 122.308 138.271 122.069C138.509 121.91 138.748 121.513 138.748 121.275C138.748 121.116 138.43 120.719 138.271 120.719C137.954 120.639 137.477 120.719 137.318 120.957C137.08 121.354 137.001 121.831 136.763 122.625ZM117.388 93.8638C117.864 93.3871 118.023 92.831 117.785 92.1954C117.706 92.0364 117.547 91.8775 117.388 91.8775C117.229 91.8775 116.991 91.957 116.991 92.0364C116.594 92.6721 116.356 93.3871 117.388 93.8638ZM137.08 139.787C137.557 139.787 137.874 139.946 138.112 139.787C138.509 139.628 138.827 139.31 139.145 138.992C139.224 138.913 138.907 138.357 138.827 138.357C138.43 138.436 137.954 138.516 137.636 138.754C137.398 138.992 137.318 139.31 137.08 139.787ZM48.3861 118.653C47.2744 117.382 47.2744 117.382 45.2099 117.54C46.5598 118.017 47.5126 118.335 48.3861 118.653ZM96.743 179.592C96.9813 178.877 96.9018 178.321 96.2666 177.924C96.1078 177.844 95.8696 177.765 95.7108 177.844C95.552 177.924 95.3932 178.083 95.3932 178.242C95.3932 178.877 95.6314 179.116 96.743 179.592ZM95.3138 175.063C95.3932 176.573 95.3932 176.573 96.9813 176.653C96.9018 175.699 96.2666 175.381 95.3138 175.063ZM69.6663 111.184C69.7457 110.39 69.3487 109.913 69.0311 109.277C68.2371 110.39 68.237 110.39 69.6663 111.184ZM136.366 99.7433C136.286 99.6638 136.286 99.6638 136.207 99.5844C135.73 99.9816 135.333 100.379 134.936 100.776C134.857 100.856 135.016 101.094 135.095 101.412C135.492 100.776 135.889 100.22 136.366 99.7433ZM130.41 107.212C131.522 106.497 131.76 105.94 131.443 105.305C131.363 105.146 131.204 104.987 131.046 104.987C130.887 104.987 130.649 105.146 130.649 105.225C130.569 105.702 130.569 106.179 130.41 107.212ZM140.018 154.088C139.304 153.135 139.304 153.135 138.271 152.976C138.748 154.247 138.748 154.247 140.018 154.088ZM57.5969 136.609C57.4381 136.45 57.1999 136.291 57.1999 136.291C56.8029 136.529 56.4853 136.768 56.1677 137.086C56.0883 137.165 56.2471 137.483 56.3265 137.483C56.6441 137.483 57.0411 137.483 57.3587 137.324C57.4381 137.165 57.5175 136.847 57.5969 136.609ZM140.256 139.151C141.13 139.31 141.844 139.549 142.241 138.516C141.527 138.357 140.812 138.118 140.256 139.151ZM53.0709 154.485C52.0387 154.803 51.5622 155.121 50.927 155.916C51.9593 155.757 52.5945 155.598 53.0709 154.485ZM133.348 102.445C132.951 102.921 132.634 103.08 132.554 103.319C132.475 103.636 132.475 104.034 132.554 104.351L132.792 104.431C133.031 104.193 133.348 103.954 133.428 103.636C133.507 103.398 133.348 103.08 133.348 102.445ZM49.4977 118.176C50.2918 118.891 50.53 119.288 50.927 119.447C51.0858 119.527 51.4034 119.368 51.6416 119.288C51.5622 119.05 51.5622 118.653 51.4034 118.573C51.0064 118.414 50.53 118.414 49.4977 118.176ZM131.284 172.124C130.49 170.694 130.49 170.694 129.299 170.535C130.013 171.091 130.49 171.488 131.284 172.124ZM118.976 88.7789C118.103 89.494 118.103 89.494 118.5 90.4474C118.659 89.8118 118.817 89.2556 118.976 88.7789ZM125.646 166.483C125.487 166.721 125.408 166.801 125.408 166.88C125.328 167.516 125.725 168.231 126.122 168.231C126.202 168.231 126.281 168.151 126.281 168.151C126.599 167.754 126.44 167.118 125.964 166.721C125.964 166.562 125.884 166.562 125.646 166.483ZM69.3487 163.622C69.1105 163.305 68.9517 163.146 68.8723 163.066C68.4753 162.987 68.0782 163.464 68.1576 164.02C68.1576 164.179 68.3959 164.258 68.4753 164.417C68.7929 164.258 69.1105 163.94 69.3487 163.622ZM142.48 154.168C142.162 154.088 141.844 153.929 141.527 153.929C141.527 153.929 141.289 154.327 141.368 154.327C141.606 154.485 141.924 154.644 142.162 154.803C142.321 154.644 142.4 154.485 142.48 154.168ZM87.5322 156.075C88.1674 156.075 88.2468 155.677 88.2468 155.28C88.2468 155.121 88.088 154.962 88.0086 154.803C87.7704 155.042 87.4528 155.201 87.2146 155.439C87.1352 155.518 87.4528 155.836 87.5322 156.075ZM128.822 169.502C128.584 169.264 128.425 169.025 128.187 168.787C128.187 168.787 127.949 168.946 127.79 169.025C127.949 169.264 128.108 169.581 128.266 169.82C128.266 169.74 128.505 169.661 128.822 169.502ZM126.202 128.187C126.122 128.266 126.043 128.266 126.043 128.346C126.043 128.743 126.122 129.14 126.202 129.538H126.44C126.44 129.14 126.44 128.743 126.44 128.266C126.44 128.266 126.281 128.187 126.202 128.187ZM66.649 165.37C66.4902 165.768 66.252 166.085 66.1726 166.403C66.1726 166.403 66.252 166.562 66.3314 166.642C66.5696 166.403 66.8078 166.165 66.9666 165.927C67.046 165.847 66.8872 165.609 66.649 165.37ZM54.262 136.927C54.1826 136.847 54.1032 136.768 54.1032 136.768C53.7855 136.847 53.4679 136.847 53.2297 137.006C53.1503 137.006 53.0709 137.324 53.1503 137.403C53.4679 137.801 53.7855 137.642 54.0238 137.324C54.1032 137.244 54.1826 137.086 54.262 136.927ZM96.5048 140.025C96.743 139.946 96.9018 139.866 97.0607 139.787C96.9813 139.549 96.9019 139.39 96.8224 139.151C96.6636 139.231 96.4254 139.231 96.4254 139.31C96.4254 139.549 96.4254 139.787 96.5048 140.025ZM64.9021 168.31C64.9815 168.31 65.1403 168.31 65.1403 168.31C65.2197 168.151 65.2197 167.992 65.2197 167.833C65.1403 167.833 64.9021 167.833 64.9021 167.913C64.9021 167.992 64.9021 168.151 64.9021 168.31ZM87.4528 145.507C87.3734 145.507 87.294 145.428 87.2146 145.428L87.1352 145.587C87.2146 145.666 87.294 145.666 87.3734 145.746C87.3734 145.587 87.3734 145.507 87.4528 145.507ZM98.8869 90.7652C98.8869 90.6858 98.8869 90.6063 98.8869 90.5269C98.8075 90.5269 98.7281 90.5269 98.7281 90.5269C98.7281 90.6063 98.7281 90.6858 98.7281 90.7652C98.7281 90.7652 98.8075 90.7652 98.8869 90.7652ZM143.909 138.675C144.227 138.675 144.465 138.754 144.703 138.754C144.782 138.754 144.862 138.675 144.941 138.595C144.782 138.516 144.544 138.357 144.385 138.357C144.306 138.357 144.147 138.516 143.909 138.675ZM60.8525 103.08C60.8525 103.16 60.8525 103.16 60.9319 103.239C61.0113 103.16 61.0907 103.16 61.2495 103.08C61.1701 103.001 61.1701 103.001 61.0907 102.921C60.9319 103.001 60.9319 103.08 60.8525 103.08ZM51.8799 157.505C51.721 157.505 51.6416 157.505 51.4828 157.425C51.5622 157.505 51.5622 157.505 51.6416 157.584C51.721 157.584 51.8004 157.505 51.8799 157.505Z" fill="#281812"/>
<path d="M104.922 214.71C108.018 216.22 109.289 218.921 110.48 221.622C111.353 223.529 111.353 225.515 110.4 227.422C109.765 228.693 109.051 229.965 108.098 230.998C107.145 232.11 105.954 232.745 104.445 232.904C101.507 233.302 98.9663 232.428 96.5842 230.918C95.3931 230.124 94.7579 229.091 94.9167 227.502C95.0755 226.151 95.3137 224.88 95.7901 223.609C96.1871 222.576 96.9018 221.781 98.0134 221.543C99.2045 221.304 100.475 220.987 101.666 221.066C103.413 221.146 104.128 222.417 103.651 224.085C103.492 224.8 103.016 225.277 102.301 225.277C101.587 225.356 100.793 225.198 99.9985 225.118C99.2839 226.072 99.4427 227.025 99.9985 227.978C100.475 228.773 101.348 228.932 102.222 229.011C104.842 229.329 106.589 226.23 106.351 224.244C106.033 221.384 104.922 219.159 101.984 218.126C101.507 217.967 101.11 217.809 100.554 217.57C98.2516 218.524 95.9489 219.636 93.5668 220.51C91.2641 221.384 89.1202 222.576 86.9763 223.847C87.0557 224.562 87.6909 224.324 88.0085 224.562C88.5644 225.039 88.8026 225.595 88.7232 226.31C88.5644 227.661 87.6909 229.17 85.7852 229.091C83.0855 229.011 81.4974 227.422 81.8944 224.8C81.9738 224.085 82.2915 223.529 82.8473 223.132C85.3088 221.146 87.6115 218.762 90.6289 217.411C92.614 216.537 94.5197 215.504 96.5048 214.472C96.743 213.915 96.1871 213.677 96.1077 213.28C95.9489 212.803 95.7901 212.406 95.5519 211.929C94.0432 208.751 95.9489 204.937 98.6487 203.666C102.142 201.998 103.889 202.395 106.827 204.62C108.177 205.652 108.495 207.4 108.257 209.069C108.098 210.261 107.701 211.452 106.748 212.406C106.033 213.28 105.636 213.915 104.922 214.71ZM86.8969 221.781C87.0557 221.94 87.1351 222.099 87.2939 222.337C90.2319 220.43 93.6462 219.398 96.8224 217.967C99.4427 216.776 101.825 215.187 104.048 213.359C104.763 212.803 105.477 212.088 106.033 211.373C107.145 209.863 107.224 207.718 106.192 206.606C103.969 204.143 101.031 204.063 98.4899 205.811C96.0283 207.4 96.2665 211.373 97.7752 213.28C98.331 213.915 98.4899 213.995 99.6809 213.121C99.4427 212.565 99.1251 212.009 98.8869 211.452C98.1722 209.943 98.7281 208.592 99.7603 207.559C100.872 206.526 102.381 205.97 103.969 206.129C105.319 206.209 105.795 206.765 105.954 208.115C106.192 209.704 105.477 210.896 104.366 211.85C103.016 212.883 101.666 213.915 100.237 214.869C99.2839 215.504 98.2516 215.981 97.2194 216.537C94.8373 217.729 92.3758 218.762 89.9936 219.954C88.882 220.43 87.9291 221.146 86.8969 221.781ZM102.778 223.926C102.381 223.132 102.222 222.814 102.063 222.735C99.8397 222.099 97.6164 223.052 97.0606 224.8C96.743 225.674 96.743 226.707 96.6636 227.581C96.6636 227.899 96.9812 228.296 97.2194 228.455C97.6958 228.693 97.8546 229.091 98.0928 229.488C98.4899 230.044 98.8869 230.6 99.4427 230.839C104.525 232.745 107.78 231.077 109.209 226.23C110.242 222.893 107.383 217.65 104.128 216.299C103.889 216.22 103.572 216.14 103.333 216.14C103.175 216.14 102.936 216.22 102.778 216.22C102.698 216.22 102.539 216.299 102.539 216.378C102.539 216.537 102.46 216.776 102.539 216.935C102.778 217.173 103.095 217.491 103.413 217.57C106.43 218.683 107.542 221.066 107.542 224.085C107.542 224.483 107.621 224.88 107.542 225.198C107.383 228.614 104.922 230.839 101.507 230.521C98.9663 230.282 97.934 229.25 97.7752 226.707C97.6958 224.8 99.0457 223.529 100.951 223.609C101.507 223.688 101.904 223.767 102.778 223.926ZM103.492 207.48C102.778 207.718 102.063 207.877 101.507 208.115C100.237 208.672 99.7603 210.181 100.396 211.452C100.634 211.929 101.11 212.167 101.587 212.009C102.778 211.373 103.889 210.658 104.525 209.387C104.683 209.069 104.604 208.433 104.366 208.115C104.207 207.798 103.81 207.718 103.492 207.48ZM87.2939 226.548C86.3411 226.548 85.6264 226.548 84.9118 226.548C84.753 226.23 84.5148 225.992 84.5148 225.754C84.4354 225.198 84.5148 224.721 84.5148 223.847C83.9589 224.562 83.4825 225.039 83.3237 225.595C83.1649 226.072 83.3237 226.707 83.4825 227.263C83.7207 227.899 84.2766 228.376 84.9912 228.376C85.547 228.376 86.1028 228.217 86.5793 227.899C86.8175 227.581 86.9763 227.104 87.2939 226.548Z" fill="#281812"/>
<path d="M19.88 138.992C20.5153 138.516 21.0711 138.118 21.4681 137.88C21.7063 137.244 21.3887 136.211 20.9123 135.973C20.5947 135.814 20.1977 135.814 19.88 135.973C19.0066 136.37 18.689 137.085 18.4508 137.959C17.9743 139.707 18.0537 141.535 18.2126 143.362C18.292 144.554 18.5302 145.825 18.5302 147.017C18.5302 147.891 18.4508 148.765 18.2126 149.559C17.2597 152.658 15.2746 154.088 12.0191 153.929C9.87515 153.85 7.89005 153.373 6.77839 151.387C5.34912 151.466 4.15807 151.546 2.96701 151.546C2.25237 151.546 1.69655 151.148 1.29953 150.592C0.584891 149.48 -0.0503398 148.209 0.108468 146.858C0.34668 144.951 0.584891 143.124 1.93476 141.535C2.64939 140.661 3.20522 139.628 3.60224 138.595C3.99926 137.721 3.44343 137.085 2.56999 137.006C1.85535 136.926 1.06131 137.006 0.267276 137.006C-0.367955 135.655 0.267276 134.543 0.743699 133.51C1.22012 132.557 2.01416 132.159 3.04641 132C3.91985 131.921 4.7933 131.603 5.58734 131.683C8.76349 132.159 10.5898 135.179 9.55753 138.277C9.0017 139.866 8.04886 141.137 6.8578 142.25C6.22257 142.806 5.58734 143.442 5.50793 144.315C5.50793 144.713 5.50793 145.031 5.50793 145.587C6.61959 145.11 7.25482 144.236 7.89005 143.442C8.44588 142.726 9.0017 141.932 9.95455 141.852C10.7486 142.409 10.5104 143.124 10.5104 143.759C10.5104 144.713 10.431 145.666 10.5104 146.62C10.5898 147.176 10.9074 147.732 11.225 148.129C11.7808 148.765 12.5749 149.003 13.2895 148.685C14.0041 148.447 14.3218 147.891 14.4012 147.176C14.56 145.825 14.7982 144.474 14.3218 143.203C13.4483 140.979 13.7659 138.674 13.9247 136.45C14.0041 135.417 14.4806 134.622 15.0364 133.907C16.0686 132.557 17.4185 131.683 18.9272 131.047C20.5153 130.332 22.1033 130.57 23.3738 131.842C25.0413 133.59 25.9147 135.576 25.8353 138.039C25.8353 138.198 25.8353 138.436 25.8353 138.595C25.5177 139.946 25.2001 141.376 23.6914 141.694C22.2622 142.011 21.1505 141.217 20.3565 140.025C20.1182 139.787 20.1182 139.469 19.88 138.992ZM7.73124 148.765C7.81065 149.003 7.96945 149.321 7.96945 149.718C8.04886 151.148 9.08111 151.863 10.2722 152.34C13.2895 153.452 16.0686 152.102 16.8627 148.924C17.1803 147.652 17.0215 146.461 16.8627 145.269C16.5451 142.965 16.5451 140.74 16.7039 138.436C16.7833 137.324 17.2597 136.37 17.9743 135.655C19.8006 133.669 22.1827 134.146 22.9768 136.688C23.2944 137.721 22.6592 138.516 22.1827 139.31C22.1033 139.469 22.1827 139.628 22.1827 140.025C22.5004 140.184 22.8974 140.422 23.2944 140.581C25.1207 138.039 24.8031 136.132 22.1827 132.954C19.5624 132.318 18.9272 132.398 17.1009 133.748C15.5922 134.861 14.957 136.37 14.957 138.198C14.957 139.548 15.0364 140.899 15.2746 142.17C15.751 144.077 15.5922 145.984 15.4334 147.811C15.354 149.083 14.56 149.957 13.3689 150.354C12.0985 150.751 11.0662 150.592 10.034 149.48C9.31932 148.606 8.9223 147.811 8.76349 146.699C8.68409 146.143 9.08111 145.587 8.28707 145.031C7.73124 145.587 7.17541 146.222 6.61959 146.858C6.22257 147.255 5.90495 147.811 5.50793 148.129C5.19032 148.368 4.55509 148.606 4.23747 148.447C3.91985 148.288 3.60224 147.732 3.60224 147.335C3.52284 145.189 3.84045 143.124 5.58734 141.614C6.06376 141.137 6.54018 140.661 6.9372 140.184C7.89005 139.151 8.12826 137.8 8.20766 136.45C8.20766 135.576 8.04886 134.702 7.25482 134.146C5.82555 133.033 3.52284 132.874 1.85535 133.907C1.37893 134.225 1.06131 134.702 1.45833 135.337C2.25237 135.576 3.04641 135.814 3.84045 136.132C5.11091 136.688 5.26972 137.324 4.8727 138.674C4.39628 140.184 3.68164 141.455 2.7288 142.647C1.37893 144.315 1.14072 146.302 1.29953 148.288C1.37893 149.639 2.01416 150.115 3.28462 150.274C4.15807 150.354 4.95211 150.354 5.58734 149.559C6.30197 149.083 6.77839 148.526 7.73124 148.765Z" fill="#281812"/>
<path d="M106.589 7.97634C105.954 7.42018 105.319 6.86402 104.684 6.2284C103.413 7.18182 102.778 8.3736 102.857 9.88318C102.937 11.9489 102.063 13.7763 101.428 15.6832C101.11 16.7955 100.237 17.3516 99.1253 17.59C96.902 18.0667 95.2345 17.1927 93.6464 14.6503C93.3288 15.2859 93.17 15.9215 92.8524 16.3982C91.4231 18.7818 88.3263 19.4968 85.706 17.5105C85.4678 17.3516 85.309 17.1133 85.2296 16.8749C84.5944 14.8886 84.3561 12.9818 85.4678 11.1544C85.8648 10.4393 86.5 10.0421 87.2941 9.96263C88.2469 9.80373 88.8822 10.4393 88.8028 11.4722C88.7234 11.9489 88.7233 12.5051 88.6439 13.538C89.3586 12.9818 89.835 12.7434 89.9938 12.4256C90.7085 11.3133 91.1055 10.0421 91.1849 8.6914C91.3437 6.54621 92.1377 4.71882 93.4876 2.97088C94.5992 1.54075 96.1079 0.905138 97.6166 0.0311693C97.7754 -0.0482824 98.1724 0.0311693 98.4106 0.190073C98.5694 0.348976 98.6488 0.746235 98.6488 0.98459C98.49 1.6202 98.2518 2.25582 98.093 2.89143C97.6166 4.79827 97.0608 6.78456 96.7431 8.6914C96.5049 10.201 96.7431 11.7106 97.8548 13.1407C98.3312 12.664 98.8076 12.3462 98.9665 11.9489C99.5223 10.201 99.9193 8.45305 100.475 6.78456C100.793 5.67224 101.11 4.63937 101.746 3.6065C103.016 1.69965 104.842 0.825686 106.907 0.428428C108.019 0.190073 108.971 0.587331 109.686 1.4613C111.115 3.12979 111.274 6.94347 110.004 8.77086C109.527 9.48592 108.733 9.56537 107.939 9.48592C107.066 9.00921 106.51 8.77086 106.589 7.97634C107.224 7.81744 108.018 7.73798 108.733 7.73798C109.527 6.30785 109.607 4.87772 109.21 3.52704C108.733 1.85856 107.542 1.3024 105.875 1.85856C103.81 2.57362 102.222 3.9243 101.587 6.0695C101.031 7.65853 100.634 9.32702 100.316 10.9955C100.078 12.0284 99.7605 12.9818 99.0459 13.7763C98.093 14.7297 96.5049 14.4119 96.0285 13.1407C95.3933 11.3928 95.1551 9.64482 95.3933 7.81744C95.6315 6.2284 96.0285 4.63937 96.3461 3.12979C96.4255 2.81198 96.3461 2.49417 96.3461 1.77911C94.2816 3.36814 92.9318 4.87772 92.6935 7.26127C92.2965 9.08866 92.1377 11.075 91.1055 12.7434C90.7084 13.3791 90.1526 13.9352 89.5174 14.253C88.7233 14.6503 87.8499 14.5708 87.1353 13.8558C87.0559 13.2996 86.8971 12.7434 86.8177 12.1873C86.8177 12.1873 86.6589 12.1873 86.4206 12.1873C85.706 13.2996 85.8648 14.4914 86.2618 15.6832C86.3412 16.001 86.6588 16.3188 86.9765 16.4777C88.9616 17.6694 91.3437 16.9544 91.8201 14.8092C92.4553 12.3462 93.17 9.80373 92.6141 7.18182C93.17 6.86402 93.7258 6.62566 94.5198 6.2284C94.5198 7.18182 94.5992 7.81744 94.5198 8.3736C94.361 10.1215 94.5992 11.79 94.9963 13.4585C95.3933 15.127 96.5049 15.7626 97.8548 16.3188C98.8076 16.6366 99.6017 16.3188 99.8399 15.2859C100.316 13.4585 101.349 11.79 101.428 9.80373C101.428 9.16811 101.666 8.45305 101.825 7.89689C102.46 5.99005 103.572 4.55992 105.636 4.00375C106.748 3.68595 107.621 4.24211 107.621 5.35443C107.621 5.83114 107.463 6.38731 107.224 6.62566C106.986 6.94347 106.589 7.34073 106.589 7.97634Z" fill="#281812"/>
<path d="M178.132 141.137C179.164 141.217 179.72 141.296 180.276 141.375C181.149 141.534 181.546 142.09 181.784 142.885C182.499 145.189 181.387 147.732 179.164 148.923C176.782 150.274 172.574 149.797 170.588 147.97C170.033 147.493 169.636 146.778 169.477 146.063C168.762 143.6 169.08 141.217 169.953 138.833C169.874 138.674 169.874 138.436 169.794 138.277C168.286 136.847 167.651 135.178 167.889 133.112C167.889 132.954 167.889 132.715 167.889 132.556C166.856 129.06 170.747 125.644 173.923 125.406C175.114 125.326 176.464 125.406 177.576 125.803C179.323 126.359 180.355 127.71 180.435 129.617C180.435 129.775 180.276 129.934 180.196 130.093C177.973 128.981 176.941 128.822 175.114 129.299C174.32 129.458 173.765 129.934 173.526 130.729C173.368 131.285 173.209 131.841 173.129 132.397C172.812 134.145 173.844 135.417 175.591 135.417C176.544 135.417 177.497 135.337 178.449 135.337C179.005 135.337 179.402 135.655 179.482 136.132C179.561 136.449 179.243 136.926 179.005 137.085C177.576 137.8 176.703 139.071 175.909 140.343C175.432 141.058 175.114 141.852 174.956 142.647C174.717 143.6 175.591 144.553 176.544 144.474C177.1 144.474 177.655 144.236 178.132 143.997C178.688 143.68 178.926 143.203 178.688 142.567C178.449 142.249 178.37 141.932 178.132 141.137ZM180.593 143.997C179.323 144.712 178.37 145.348 177.338 145.745C176.306 146.143 175.273 145.984 174.4 145.189C173.129 144.077 172.732 142.647 173.606 141.058C174.32 139.707 175.194 138.515 175.988 137.244C175.829 137.085 175.75 137.006 175.75 136.926C175.512 136.847 175.194 136.847 174.956 136.847C172.812 136.608 172.018 135.973 171.78 133.907C171.621 132.556 171.859 131.047 172.177 129.696C172.335 129.06 173.129 128.584 173.765 128.186C174.32 127.869 175.035 127.869 175.67 127.71C175.988 127.63 176.226 127.312 176.544 127.074C174.559 126.2 172.891 126.836 171.383 127.63C170.033 128.345 169.318 129.617 169.397 131.206C169.397 132.318 169.477 133.51 169.636 134.622C169.794 136.29 170.43 136.767 172.177 137.006C172.653 137.085 173.129 136.926 173.368 137.8C173.05 138.038 172.732 138.277 172.335 138.515C171.541 138.833 171.144 139.548 170.985 140.263C170.588 141.932 170.43 143.68 170.906 145.348C171.224 146.46 171.859 147.175 172.891 147.652C174.956 148.447 176.941 148.526 178.926 147.334C180.038 146.619 180.752 145.666 180.593 143.997Z" fill="#281812"/>
<path d="M99.0457 136.053C99.0457 134.781 99.9985 134.146 100.793 133.431C100.951 134.781 100.237 135.576 99.0457 136.053Z" fill="#281812"/>
<path d="M101.745 132.636C102.222 132 102.698 131.444 103.175 130.809C103.016 131.762 102.698 132.398 101.745 132.636Z" fill="#281812"/>
<path d="M92.8522 142.25C92.8522 142.488 92.8522 142.647 92.8522 142.885C92.4552 143.044 92.0582 143.282 91.6611 143.441C91.6611 142.647 92.0582 142.329 92.8522 142.25Z" fill="#281812"/>
<path d="M66.9667 146.54C66.8873 146.62 66.8079 146.699 66.6491 146.779C66.6491 146.62 66.5697 146.461 66.6491 146.302C66.6491 146.223 66.7285 146.223 66.8079 146.143C66.8873 146.302 66.9667 146.461 66.9667 146.54Z" fill="#281812"/>
<path d="M100.316 126.519C100.475 126.519 100.475 126.519 100.554 126.519C100.475 126.757 100.475 126.995 100.316 127.234C100.316 127.313 99.9986 127.234 99.9192 127.234C100.078 126.916 100.237 126.757 100.316 126.519Z" fill="#281812"/>
<path d="M101.348 121.751C101.587 121.354 101.745 120.957 101.984 120.56C101.745 120.957 101.587 121.354 101.348 121.751Z" fill="#281812"/>
<path d="M100.475 122.864C100.793 122.466 101.11 122.069 101.428 121.672C101.11 122.069 100.793 122.466 100.475 122.864Z" fill="#281812"/>
<path d="M99.6809 124.532C99.8397 124.135 100.078 123.658 100.237 123.261C100.078 123.658 99.9191 124.055 99.6809 124.532Z" fill="#281812"/>
<path d="M101.825 124.532C101.745 124.611 101.745 124.611 101.666 124.691C101.666 124.611 101.586 124.532 101.586 124.532C101.586 124.452 101.666 124.452 101.666 124.373C101.745 124.373 101.745 124.452 101.825 124.532Z" fill="#281812"/>
<path d="M101.904 127.392C101.825 127.551 101.745 127.789 101.666 127.948C101.666 127.869 101.586 127.71 101.586 127.71C101.666 127.63 101.825 127.551 101.904 127.392C101.983 127.392 101.904 127.392 101.904 127.392Z" fill="#281812"/>
<path d="M100.555 129.378C100.555 129.458 100.634 129.537 100.634 129.617C100.634 129.696 100.555 129.696 100.475 129.776C100.555 129.617 100.555 129.458 100.555 129.378Z" fill="#281812"/>
<path d="M94.0434 151.943C94.9962 152.102 95.7903 152.34 96.4255 153.452C95.2344 153.294 94.361 153.055 93.8052 152.181C93.8846 152.102 93.964 152.022 94.0434 151.943Z" fill="#281812"/>
<path d="M96.2665 156.074C95.393 156.154 94.8372 155.598 94.4402 154.883C95.393 154.803 95.8695 155.359 96.2665 156.074Z" fill="#281812"/>
<path d="M90.3114 113.012C90.3114 113.33 90.3114 113.647 90.3114 113.965C90.232 113.965 90.232 113.965 90.1526 113.965C90.1526 113.647 90.232 113.33 90.232 113.012C90.232 113.012 90.232 113.012 90.3114 113.012Z" fill="#281812"/>
<path d="M113.179 125.724C112.862 124.77 112.782 124.294 113.338 123.817C113.338 124.294 113.259 124.85 113.179 125.724Z" fill="#281812"/>
<path d="M76.8125 154.882C76.6537 154.803 76.5743 154.724 76.4155 154.565C76.4949 154.485 76.6537 154.485 76.7331 154.406C76.7331 154.644 76.7331 154.803 76.8125 154.882Z" fill="#281812"/>
<path d="M103.889 162.034C103.889 161.398 103.81 160.762 103.81 159.968C104.525 160.683 103.81 161.318 103.889 162.034C103.81 161.954 103.889 162.034 103.889 162.034Z" fill="#281812"/>
<path d="M104.207 157.425C104.286 157.425 104.366 157.345 104.445 157.345C104.525 157.345 104.525 157.504 104.604 157.504C104.445 157.584 104.366 157.584 104.207 157.663C104.207 157.584 104.207 157.504 104.207 157.425Z" fill="#281812"/>
<path d="M99.0457 105.146C99.2839 104.748 99.4427 104.351 99.6809 103.875C99.6809 104.431 99.6809 104.987 99.0457 105.146Z" fill="#281812"/>
<path d="M100.316 113.647C100.158 114.044 99.9193 114.441 99.7605 114.839C99.9193 114.441 100.078 114.044 100.316 113.647Z" fill="#281812"/>
<path d="M80.3858 135.576C80.3858 135.338 80.3064 135.02 80.3064 134.782C80.3064 134.623 80.5446 134.543 80.624 134.464C80.7034 134.623 80.8622 134.782 80.7828 134.861C80.7034 135.099 80.4652 135.338 80.3858 135.576C80.3064 135.497 80.3858 135.576 80.3858 135.576Z" fill="#281812"/>
<path d="M83.0857 135.337C82.8475 135.735 82.6887 136.211 82.4504 136.609C82.6887 136.211 82.9269 135.814 83.0857 135.337Z" fill="#281812"/>
<path d="M83.0857 149.798C82.9269 149.48 82.7681 149.083 82.6887 148.765C82.8475 148.765 82.9269 148.686 83.0857 148.686C83.0063 149.083 83.0063 149.48 83.0857 149.798C83.0063 149.877 83.0857 149.798 83.0857 149.798Z" fill="#281812"/>
<path d="M100.237 116.587C100.316 116.269 100.316 115.872 100.475 115.554C100.475 115.475 100.793 115.475 100.951 115.475C101.031 115.554 101.11 115.872 101.031 115.872C100.793 116.19 100.475 116.349 100.237 116.587Z" fill="#281812"/>
<path d="M100.237 116.507C100.158 116.746 100.158 116.984 100.078 117.222C99.9987 117.143 99.8399 117.063 99.7605 116.984C99.9193 116.905 100.078 116.746 100.237 116.507Z" fill="#281812"/>
<path d="M100.872 118.812C100.634 119.209 100.475 119.606 100.237 120.003C100.475 119.606 100.634 119.209 100.872 118.812Z" fill="#281812"/>
<path d="M100.237 119.924C100.078 120.321 99.8397 120.718 99.6809 121.116C99.9191 120.718 100.078 120.321 100.237 119.924Z" fill="#281812"/>
<path d="M109.368 110.787C109.765 111.979 110.162 113.171 110.559 114.283C109.765 113.25 109.368 112.138 109.368 110.787Z" fill="#281812"/>
<path d="M108.574 114.203C108.574 114.283 108.654 114.362 108.654 114.441C108.654 114.521 108.574 114.6 108.495 114.6C108.495 114.521 108.416 114.441 108.416 114.362C108.416 114.362 108.495 114.283 108.574 114.203Z" fill="#281812"/>
<path d="M71.6516 123.976C72.0486 124.373 72.4456 124.77 72.8426 125.167C72.7632 125.565 72.6838 126.041 72.6044 126.518C71.8898 125.724 71.5722 124.929 71.6516 123.976Z" fill="#281812"/>
<path d="M110.559 108.482C111.194 108.959 111.194 109.595 111.194 110.31C110.48 109.913 110.559 109.197 110.559 108.482Z" fill="#281812"/>
<path d="M111.671 111.422C112.068 111.82 112.465 112.217 112.862 112.614C112.068 112.614 111.592 112.217 111.671 111.422Z" fill="#281812"/>
<path d="M111.115 110.231C111.353 110.628 111.512 111.025 111.75 111.502C111.512 111.025 111.274 110.628 111.115 110.231Z" fill="#281812"/>
<path d="M111.353 106.258C112.544 106.893 112.783 108.006 112.862 109.198C111.909 108.403 111.75 107.291 111.353 106.258Z" fill="#281812"/>
<path d="M103.651 141.217C103.889 140.819 104.048 140.422 104.286 139.945C104.207 140.422 104.286 140.978 103.651 141.217Z" fill="#281812"/>
<path d="M87.0556 110.866C87.0556 109.674 86.8173 108.403 87.6908 107.37C87.6114 108.562 87.7702 109.833 87.0556 110.866Z" fill="#281812"/>
<path d="M84.2766 161.795C83.6414 161.636 83.6414 161.08 83.6414 160.603C84.2766 160.762 84.2766 161.239 84.2766 161.795Z" fill="#281812"/>
<path d="M82.5298 167.515C82.0533 167.277 81.8945 166.8 81.8945 166.244C82.5298 166.482 82.5298 167.039 82.5298 167.515Z" fill="#281812"/>
<path d="M99.0457 101.73C99.0457 101.253 99.0457 100.697 99.6809 100.458C99.5221 100.935 99.2839 101.332 99.0457 101.73Z" fill="#281812"/>
</g>
</svg>
