<svg width="101" height="102" viewBox="0 0 101 102" fill="none" xmlns="http://www.w3.org/2000/svg">
<g opacity="0.2">
<path d="M55.7188 57.5814C56.5337 60.8828 59.3859 62.5835 61.8306 64.3843C63.9697 65.9849 66.4144 67.0854 68.6554 68.486C70.4889 69.5864 72.5261 70.4868 74.5634 71.1871C79.1472 72.7878 82.4068 75.9891 84.1385 80.391C86.2776 85.7932 89.0279 90.7953 92.3893 95.4973C93.0005 96.2976 93.3061 97.198 93.8154 97.9983C94.6303 99.2989 95.5471 100.599 96.4638 102C97.1769 101.8 97.9918 101.8 98.2973 101.4C98.9085 100.599 99.6216 99.599 99.8253 98.5986C100.538 93.9967 101.455 89.3947 100.742 84.6928C101.353 81.0913 100.029 77.5898 100.64 73.9883C100.946 72.1875 100.538 70.3868 99.316 68.8861C98.2973 67.5856 97.1769 65.9849 96.0564 64.3843C94.3247 61.9833 91.7781 60.7828 89.2316 59.5823C85.2589 57.7815 81.9993 55.1804 78.4342 52.9795C78.1286 52.7794 77.823 52.5793 77.5174 52.3792C74.6652 50.6785 72.3224 48.3776 70.7945 45.4764C70.4889 44.9761 70.1833 44.4759 69.7758 43.9757C70.0814 42.4751 70.2852 41.0745 70.5907 39.6739C70.8963 37.9732 71.3038 36.4726 72.4243 35.072C73.1373 34.1716 73.5448 32.9711 74.0541 31.8707C74.2578 31.3705 74.4615 30.7702 74.4615 30.17C74.5634 28.7694 73.6466 27.869 72.3224 27.969C71.7112 28.0691 71.1001 28.2692 70.5907 28.3692C68.7572 28.9694 66.9237 29.5697 64.8864 29.5697C63.8678 29.5697 62.7473 30.0699 61.7287 30.4701C60.0989 31.0703 58.4691 31.5705 56.7374 31.5705C54.5983 31.5705 52.6629 30.8702 51.4406 28.8694C50.7276 27.6689 50.0145 26.3684 49.3015 25.1679C49.0977 24.7677 48.9959 24.2675 48.6903 23.8673C46.0419 20.8661 45.227 17.0645 44.1065 13.3629C43.2916 10.7618 42.0692 8.56091 40.3376 6.46003C38.504 4.25911 36.2631 2.75848 33.4109 1.95814C33.0035 2.05818 32.3923 1.95814 31.883 1.75806C25.975 -0.442862 19.9651 -0.142737 13.8533 0.357472C10.1863 0.657597 6.72293 1.65801 3.05588 2.05818C1.93539 2.15822 0.611183 2.25827 7.30078e-06 3.75889C1.62981 5.15948 3.56519 5.85977 5.39872 6.66011C8.04715 7.66053 10.5937 8.66094 13.2421 9.66136C13.6496 9.86145 14.1589 10.1616 14.5664 10.1616C16.1962 10.2616 17.6222 10.8619 18.7427 12.1624C21.6967 12.9627 22.6135 15.3637 23.8358 17.7648C26.0768 22.2666 28.3178 26.8686 31.1699 30.9703C34.2258 35.2721 37.9947 39.0737 41.5599 43.0753C41.8655 43.3755 42.1711 43.7756 42.4767 43.9757C42.3748 44.3759 42.3748 44.676 42.1711 44.7761C39.8283 45.7765 38.8096 47.7773 38.1985 50.0783C37.791 51.879 37.2817 53.5797 36.0593 55.0804C35.2444 55.1804 34.3277 55.1804 33.5128 55.2805C32.2904 55.4805 31.0681 55.6806 29.9476 56.0808C28.5215 56.581 27.5029 57.6815 27.7066 59.3822C27.9103 60.9828 27.7066 62.3834 26.8917 63.884C26.1787 65.1846 26.688 66.4851 28.1141 67.1854C29.1327 67.7857 30.5588 67.8857 31.3737 68.586C33.5128 70.5869 36.2631 70.987 38.8096 72.1875C40.4394 70.2867 41.8655 68.486 42.4767 66.2851C42.8841 65.0846 43.3934 63.9841 44.4121 63.3838C48.0791 61.0829 51.7462 58.882 55.7188 57.5814C56.4318 56.7811 57.2467 56.7811 58.1635 57.0812C58.4691 55.6806 59.5896 54.9803 60.7101 54.28C61.525 53.6798 62.4417 52.9795 63.0529 52.1792C63.5622 51.5789 63.2566 50.8786 62.4417 50.4784C61.1175 50.4784 61.0157 52.4793 59.5896 52.2792C57.9598 52.0791 58.4691 54.18 57.2468 54.4801C57.043 54.4801 56.8393 54.6802 56.6356 54.7802L56.7374 54.6802C55.7188 55.3805 54.7002 56.2809 53.0704 56.3809C53.2741 55.2805 53.376 54.4801 53.5797 53.4797C52.8667 53.9799 52.2555 54.3801 51.7462 54.6802C51.9499 55.2805 52.2555 55.8807 51.3387 56.1808C51.135 57.0812 50.8294 56.3809 50.6257 56.1808C49.6071 56.481 50.0145 58.3817 48.3847 58.0816C48.181 57.5814 48.0791 56.9812 47.8754 56.1808C47.2642 57.3813 46.8568 58.1817 46.5512 59.082C46.1437 60.2825 45.0232 59.9824 44.2083 60.1825C44.0046 60.2825 43.8009 60.7828 43.5972 61.0829C42.8841 61.9833 42.1711 63.0837 41.2543 63.784C40.2357 64.4843 39.8283 65.2846 39.6245 66.3851C39.5227 67.4856 39.1152 68.3859 37.791 69.2863C37.8929 68.1859 37.9947 67.2855 37.9947 66.5852C37.2817 66.6852 36.8742 66.7853 36.3649 66.8853C36.3649 67.0854 36.3649 67.2855 36.3649 67.4856C36.3649 67.2855 36.4668 67.0854 36.4668 66.8853C36.7724 66.185 37.2817 65.5848 36.6705 64.3843C35.8556 65.5848 35.3463 66.4851 34.7351 67.2855C34.3277 67.7857 33.7165 67.8857 33.2072 67.1854C33.5128 65.7848 34.7351 65.0846 35.4482 64.0841C35.8556 63.4839 36.3649 62.8836 35.6519 62.0833C35.1426 62.1833 34.5314 62.1833 33.9202 62.2834C33.8184 61.6831 33.6146 61.1829 33.5128 60.6827C32.6979 60.3826 31.883 60.0825 30.9662 59.6823C31.6792 58.7819 32.3923 57.9816 33.0035 57.1812C34.1239 57.0812 35.2444 57.0812 36.1612 56.9812C37.8929 55.8807 38.7078 54.28 39.3189 52.5793C39.7264 51.2788 40.1338 49.8782 41.2543 48.7777C44.2083 45.9766 47.0605 42.9753 49.9126 39.974C49.7089 39.6739 49.6071 39.3738 49.4033 39.0737C47.0605 39.2738 46.2456 41.5747 44.4121 42.6752C43.8009 40.6743 46.0419 39.974 46.0419 38.2733C45.8381 38.0733 45.5326 37.573 45.227 37.373C44.8195 37.2729 44.3102 37.473 43.9028 37.573C43.9028 37.573 43.9028 38.1733 44.0046 38.3734C44.5139 39.6739 43.699 40.5743 42.986 41.6748C40.6432 40.5743 39.7264 38.4734 38.1985 36.7727C37.9947 36.5726 38.0966 36.0724 38.0966 35.6722C38.8096 35.4722 39.6245 35.4722 40.2357 35.172C40.6432 34.972 40.8469 34.3717 41.2543 33.8715C40.2357 33.3713 39.4208 33.1712 38.8096 32.671C38.0966 32.1708 37.4854 31.6706 36.4668 32.1708C37.1798 32.771 38.4022 32.8711 38.0966 34.1716C38.3003 34.2717 38.504 34.3717 38.7078 34.3717C38.504 34.2717 38.3003 34.1716 38.0966 34.0716C37.3836 33.8715 36.6705 33.8715 35.9575 33.5714C35.3463 33.2712 34.837 32.771 34.3277 32.3709C33.8184 31.8707 33.9202 31.3704 34.124 30.7702C34.5314 29.7698 33.1053 30.4701 33.2072 29.4697C33.6146 28.5693 35.7538 28.3692 35.0407 26.3684C33.9202 27.0686 32.7997 27.6689 31.4755 28.4692C29.1327 25.2679 27.7066 21.3663 25.5675 17.9648C25.0582 17.1645 24.8545 16.2641 24.5489 15.3638C24.8545 14.3633 26.5861 14.4634 26.2805 13.1628C25.5675 13.2629 24.9563 13.2629 24.3452 13.3629L24.447 13.3629C22.7153 12.6626 22.7153 12.6626 23.4284 11.062C22.7153 11.162 22.0023 11.162 20.78 11.3621C21.493 10.5617 22.1042 10.1616 22.3079 9.66136C22.8172 8.66095 22.9191 7.96065 23.2247 6.96023C21.493 7.26036 19.9651 7.56049 17.9278 7.96065C18.539 7.06028 18.9464 6.56007 19.6595 5.75973C18.3353 6.05986 17.4185 6.25994 16.3999 6.35998C16.1962 6.35998 16.0943 6.1599 15.8906 6.05986C16.0943 5.55965 16.298 5.05944 16.6036 4.2591C15.6868 4.35915 15.0757 4.35915 14.4645 4.35915C14.057 4.35915 13.5477 4.55923 13.1403 4.45919C11.5105 4.05902 9.98254 3.55881 8.04715 3.0586C9.06577 2.75848 9.88067 2.45835 10.6956 2.35831C13.9552 2.05818 17.2148 1.75806 20.5762 1.75806C25.3638 1.65802 30.0495 2.75848 34.4295 4.45919C36.2631 5.15948 37.791 6.35999 39.1152 7.86061C41.6618 10.6618 42.7823 14.0632 43.5972 17.5647C44.2083 19.9657 45.227 22.0666 46.5512 24.0674C47.468 25.468 48.2828 26.9686 49.0977 28.3692C49.5052 29.0695 49.9126 29.8698 50.422 30.4701C52.0518 32.671 52.1536 32.671 51.6443 35.4722C53.0704 35.2721 54.4965 35.072 55.9225 34.972C56.5337 33.3713 58.0617 34.2717 59.0803 33.7715C60.2008 33.2712 61.3213 32.771 62.238 32.3709C63.1548 32.8711 63.5622 34.1716 64.5809 33.5714C65.0902 33.2712 65.3958 32.4709 65.5995 32.0707C67.1274 31.4705 68.4516 31.0703 69.8777 30.5701C70.4889 30.37 70.9982 30.1699 71.6094 30.0699C71.8131 30.0699 72.0168 30.27 72.3224 30.4701C72.0168 31.0703 71.7112 31.6706 71.5075 32.3709C70.6926 32.3709 69.9796 32.3709 69.1647 32.3709C69.674 33.0712 70.1833 33.5714 70.4889 33.9715C70.387 36.0724 68.4516 36.3725 67.433 37.573C67.5349 38.1733 67.433 38.8736 67.6367 39.3738C68.146 40.7744 68.2479 41.8748 67.9423 41.8748C66.8218 42.0749 66.9237 42.7752 66.6181 43.4755C66.2107 44.3759 66.1088 45.2763 66.2107 46.1766C66.2107 46.977 65.7013 47.7773 65.3958 48.5776C67.6367 48.9778 67.7386 46.4768 69.2665 46.2767C70.8963 47.8774 72.3224 49.5781 73.9522 50.9787C78.3323 54.7802 83.1198 58.1817 88.4167 60.6827C92.4912 62.5835 95.7508 65.3847 97.8899 69.3864C98.7048 70.987 99.316 72.6877 99.0104 74.5885C98.8067 75.589 99.0104 76.6894 99.0104 77.7899C99.1122 82.4918 99.2141 86.8937 99.316 91.3956C99.316 92.0959 99.1122 92.6961 99.0104 93.3964C97.9918 93.3964 97.6862 92.8962 97.6862 92.2959C97.6862 91.1955 96.6675 91.0954 96.0564 90.6953C96.2601 90.9954 96.4638 91.2955 96.6675 91.5956C96.7694 91.7957 96.7694 91.9958 96.7694 92.1959C96.5657 92.1959 96.362 92.396 96.2601 92.2959C96.0564 92.1959 95.9545 91.9958 95.9545 91.7957C95.9545 91.4956 96.0564 91.0954 96.1582 90.7953C96.1582 90.3951 96.1582 89.8949 96.1582 89.2947C95.1396 89.5948 94.3247 89.6949 93.5098 89.8949C93.2042 89.3947 93.1024 88.9946 92.6949 87.9941C92.593 89.1946 92.593 89.7949 92.4912 90.2951C92.3893 90.5952 92.0837 90.7953 91.7781 90.8954C91.3707 90.9954 90.9632 90.3951 91.0651 89.8949C91.167 89.3947 91.3707 88.9946 91.5744 88.5944C91.88 87.9941 92.2875 87.3939 92.593 86.6936C93.1024 85.6932 92.8986 84.8928 91.88 84.1925C91.3707 83.7924 90.6577 83.6923 89.9446 83.4923C89.5372 84.2926 89.2316 84.9929 88.8241 85.7932C87.0925 84.6928 87.6018 83.4923 88.1111 82.2918L88.213 82.3918C87.7036 82.2918 86.9906 82.3918 86.5832 82.0917C86.1757 81.7915 86.0738 80.9912 86.0738 80.491C86.1757 79.9908 86.5832 79.4906 86.8887 78.9904L86.8887 79.0904C86.1757 78.8903 85.5645 78.8903 85.0552 78.09C83.6291 76.0892 82.3049 73.8882 80.1658 72.3876C79.0453 71.5873 78.7397 70.2867 79.2491 68.8861C79.4528 68.2859 79.2491 67.5856 79.2491 66.3851C78.1286 67.8857 77.4155 68.8861 76.6006 70.0866C74.5634 68.6861 76.3969 66.5852 75.3783 65.3847C73.0354 65.1846 73.4429 67.7857 72.0168 68.486C70.0814 67.1854 72.4243 65.6848 71.6094 64.1842C70.9982 64.7844 70.5907 65.2846 70.0814 65.8849C69.4703 64.1842 71.1001 63.0837 70.8963 61.6831C69.8777 61.8832 68.9609 62.0833 68.0442 62.2834C67.7386 62.7836 67.5349 63.3838 67.2293 63.8841C66.9237 64.3843 66.5162 65.0846 65.9051 64.5843C65.5995 64.3843 65.5995 63.4839 65.8032 62.9837C65.9051 62.3834 66.4144 61.9833 66.6181 61.383C66.8218 60.9828 66.9237 60.4826 66.1088 60.2825C65.3958 61.283 64.5809 62.2834 63.8678 63.2838C62.6455 63.1838 62.5436 62.3834 62.5436 61.483L62.4417 61.283C61.7287 61.1829 61.1175 61.0829 60.2008 60.9828C60.6082 59.8824 60.9138 58.882 61.2194 57.8815C61.2194 57.7815 61.0157 57.5814 60.9138 57.2813C60.3026 57.8815 59.7933 58.4818 59.1821 59.1821C58.4691 58.4818 59.3859 57.2813 58.1635 56.9812C57.4505 57.7815 56.6356 57.5814 55.7188 57.5814ZM32.4942 61.6831C32.2904 63.3838 31.7811 64.9845 31.1699 65.2846C30.5588 65.5848 29.8457 65.6848 29.1327 65.6848C28.929 65.6848 28.7252 65.2846 28.3178 64.7844C29.8457 63.684 31.0681 62.6835 32.4942 61.6831ZM97.2787 99.2989C95.9545 98.1984 95.8526 96.8979 96.5657 95.1972C98.0936 96.4977 97.4824 97.8983 97.2787 99.2989ZM89.7409 87.594C90.0465 87.2938 90.3521 87.0938 90.6577 86.7936C90.6577 86.8937 90.7595 86.9937 90.7595 87.0938C90.5558 87.3939 90.2502 87.694 90.0465 87.9941C89.9446 87.8941 89.8428 87.8941 89.7409 87.594ZM12.631 6.1599C12.631 6.05986 12.7328 5.95982 12.7328 5.95982C12.9365 5.95982 13.1403 6.05986 13.2421 6.05986C13.2421 6.1599 13.1403 6.25994 13.1403 6.25994C13.0384 6.25994 12.8347 6.1599 12.631 6.1599ZM68.7572 63.3838L68.6554 63.684L68.5535 63.3838L68.7572 63.3838Z" fill="#281812"/>
<path d="M25.0581 11.2622C24.4469 11.7624 24.4469 12.3627 24.5488 13.063L24.4469 13.063C24.6506 12.4627 24.8544 11.8625 25.0581 11.2622Z" fill="#281812"/>
<path d="M28.2159 16.7641C29.3364 16.1639 30.4568 15.4636 31.6792 14.8633C31.068 14.063 30.5587 14.7633 29.9475 14.7633C29.7438 14.2631 29.4382 13.8629 29.1326 13.1626C28.5215 13.5628 28.0121 13.9629 27.401 14.4631C27.6047 15.1634 27.7066 15.8637 27.9103 16.464C27.9103 16.564 28.0121 16.6641 28.2159 16.7641Z" fill="#281812"/>
<path d="M88.1111 82.1913C89.639 80.9907 89.639 80.9908 89.9446 78.8899C89.4353 78.4897 89.0278 78.8899 88.8241 79.29C88.4166 80.1904 87.9073 81.1908 88.1111 82.1913C88.2129 82.2913 88.1111 82.1913 88.1111 82.1913Z" fill="#281812"/>
<path d="M23.5302 10.8618C24.0395 10.9619 24.5488 11.0619 25.0581 11.0619C25.9749 10.1615 26.9935 9.3612 28.114 8.26074C26.1786 8.36078 25.7712 8.56087 23.5302 10.8618Z" fill="#281812"/>
<path d="M31.5775 24.7678C32.7998 24.0675 33.411 23.7674 34.124 23.2672C32.4942 22.7669 32.4942 22.7669 31.5775 24.7678Z" fill="#281812"/>
<path d="M31.781 21.2661C30.6605 20.7659 30.1512 21.3662 29.54 22.0665C30.5587 22.5667 31.2717 22.1665 31.781 21.2661Z" fill="#281812"/>
<path d="M56.6356 54.68C56.5338 54.0798 56.4319 53.3795 56.33 52.6792C55.8207 54.0798 55.8207 54.0798 56.6356 54.68C56.7375 54.68 56.6356 54.68 56.6356 54.68Z" fill="#281812"/>
<path d="M90.8613 76.0888C91.6762 76.2889 91.7781 75.6887 92.1855 75.1885C91.0651 74.9884 91.1669 75.7887 90.8613 76.0888Z" fill="#281812"/>
<path d="M28.0123 17.9648C28.3179 19.1653 28.3179 19.1653 29.6421 18.1649C29.0309 18.0649 28.5216 18.0649 28.0123 17.9648Z" fill="#281812"/>
<path d="M97.075 85.3929C97.1769 85.4929 97.1769 85.593 97.2788 85.693C97.2788 85.593 97.3806 85.4929 97.3806 85.3929C97.3806 85.2929 97.2788 85.1928 97.1769 85.0928C97.1769 85.1928 97.075 85.2929 97.075 85.3929Z" fill="#281812"/>
<path d="M92.0837 80.9913C92.1856 81.0913 92.3893 81.1914 92.3893 81.1914C92.593 80.9913 92.7968 80.7912 93.0005 80.5911C93.0005 80.5911 92.8986 80.3911 92.7968 80.291C92.593 80.4911 92.2875 80.6912 92.0837 80.9913Z" fill="#281812"/>
<path d="M86.8886 78.8902C86.9905 78.0899 87.1942 77.1895 87.2961 76.3892L87.3979 76.4892C86.6849 76.5892 86.583 77.0894 86.583 77.6897C86.6849 78.0899 86.7868 78.49 86.8886 78.8902Z" fill="#281812"/>
<path d="M27.8084 16.4644C27.401 16.8645 27.0954 17.1646 26.4842 17.7649C27.1972 17.8649 27.6047 17.965 28.0121 17.965L27.9103 18.065C28.0121 17.6649 28.0122 17.2647 28.114 16.7645C28.0122 16.6644 27.9103 16.5644 27.8084 16.4644Z" fill="#281812"/>
<path d="M84.7497 68.9862C84.7497 69.0862 84.8515 69.1863 84.8515 69.2863C85.0553 69.1863 85.259 69.1862 85.3608 69.0862C85.3608 69.0862 85.259 68.7861 85.259 68.686C85.1571 68.7861 84.9534 68.8861 84.7497 68.9862Z" fill="#281812"/>
<path d="M49.4035 37.5731C49.5053 37.5731 49.5053 37.6731 49.6072 37.6731C49.6072 37.5731 49.5053 37.373 49.5053 37.2729C49.5053 37.373 49.5053 37.473 49.4035 37.5731Z" fill="#281812"/>
<path d="M62.6454 48.9779L62.8491 48.9779L62.7473 48.7778L62.6454 48.9779Z" fill="#281812"/>
<path d="M50.6256 56.1808C50.9311 56.1808 51.1349 56.1808 51.4405 56.1808C51.5423 55.6806 51.6442 55.1804 51.8479 54.6802C50.8293 54.6802 50.6256 55.3805 50.6256 56.1808Z" fill="#281812"/>
<path d="M62.4418 61.2831C62.6455 61.083 62.8493 60.8829 63.053 60.5828C63.053 60.4827 62.8493 60.2827 62.7474 60.1826C62.6455 60.2827 62.5437 60.3827 62.5437 60.3827C62.4418 60.6828 62.4418 60.983 62.4418 61.2831Z" fill="#281812"/>
<path d="M83.4255 71.9878C83.3236 71.9878 83.2218 71.9878 83.2218 72.0878C83.2218 72.1879 83.2218 72.2879 83.3236 72.2879C83.4255 72.2879 83.5273 72.2879 83.5273 72.1879C83.4255 72.1879 83.4255 72.0878 83.4255 71.9878Z" fill="#281812"/>
<path d="M87.398 76.3895C87.4998 76.1894 87.7036 76.0893 87.8054 75.8893C87.1942 75.7892 87.398 76.0893 87.398 76.3895Z" fill="#281812"/>
<path d="M90.8613 76.189C90.7595 76.3891 90.6576 76.4891 90.6576 76.6892C90.7595 76.4891 90.7595 76.289 90.8613 76.189C90.8613 76.089 90.8613 76.189 90.8613 76.189Z" fill="#281812"/>
</g>
</svg>
