<svg width="100" height="80" viewBox="0 0 100 80" fill="none" xmlns="http://www.w3.org/2000/svg">
<path d="M34.74 80C25.3974 80 17.5061 73.9082 14.9663 65.4871C6.34934 63.4266 -3.53774e-06 55.7223 -2.9576e-06 46.5845C-2.78697e-06 43.897 0.544227 41.3886 1.45128 39.1489C0.544228 36.8197 -2.17839e-06 34.3113 -2.01344e-06 31.7133C-1.41623e-06 22.3068 6.71217 14.4233 15.692 12.542C18.7759 5.19597 26.123 1.62084e-06 34.74 2.1555e-06C46.1688 2.86461e-06 55.4207 9.13774 55.4207 20.4255L55.4207 20.6943C57.2348 18.6338 59.8653 17.29 62.8585 17.29C67.938 17.29 72.1105 21.1422 72.6547 26.0694C72.6547 26.0694 73.7431 27.5028 75.6479 28.8466C77.6435 30.28 80.4553 31.6237 84.0835 31.6237L84.0835 30.5487C84.0835 28.5778 85.7162 26.9653 87.7117 26.9653C89.7072 26.9653 91.3399 28.5778 91.3399 30.5487C91.3399 28.5778 92.9726 26.9653 94.9681 26.9653C96.9636 26.9653 98.5963 28.5778 98.5963 30.5487L98.5963 32.2508L202 32.2508L202 64.5913L185.673 64.5913L185.673 45.9574L98.5963 45.9574L98.5963 47.6596C98.5963 49.6305 96.9636 51.243 94.9681 51.243C92.9726 51.243 91.3399 49.6305 91.3399 47.6596C91.3399 49.6305 89.7072 51.243 87.7117 51.243C85.7162 51.243 84.0835 49.6305 84.0835 47.6596L84.0835 46.047C77.0992 46.047 72.9268 51.1534 72.6547 51.6013C72.4733 56.7973 68.1194 61.0078 62.8585 61.0078C59.8653 60.9182 57.1441 59.5745 55.33 57.4244C55.4207 58.1411 55.4207 58.8578 55.4207 59.5745C55.4207 70.8622 46.1688 80 34.74 80ZM70.115 27.8611C70.115 24.0985 67.031 20.963 63.1307 20.963C59.3211 20.963 56.1464 24.009 56.1464 27.8611C56.1464 31.6237 59.2303 34.7592 63.1307 34.7592C67.031 34.7592 70.115 31.6237 70.115 27.8611ZM50.7948 20.4255C50.7948 11.8253 43.7198 4.92721 35.1028 4.92721C26.4859 4.92721 19.4109 11.9149 19.4109 20.4255C19.4109 28.9362 26.4859 35.9238 35.1028 35.9238C43.7198 35.9238 50.7948 29.0258 50.7948 20.4255ZM63.2214 57.6036C67.031 57.6036 70.2056 54.5577 70.2056 50.7055C70.2056 46.9429 67.1217 43.8074 63.2214 43.8074C59.4118 43.8074 56.2371 46.8533 56.2371 50.7055C56.2371 54.4681 59.321 57.6036 63.2214 57.6036ZM35.1028 43.9866C26.3951 43.9866 19.4109 50.9742 19.4109 59.4849C19.4109 67.9955 26.4858 74.9832 35.1028 74.9832C43.7198 74.9832 50.7948 68.0851 50.7948 59.4849C50.7948 50.8847 43.8105 43.9866 35.1028 43.9866Z" fill="#FFD030"/>
</svg>
