<svg width="24" height="24" viewBox="0 0 24 24" fill="none" xmlns="http://www.w3.org/2000/svg">
<path d="M9.54956 4.44631L10.0043 2.67789C6.34114 3.46104 3.46114 6.34104 2.67798 10.0042L4.4464 9.54947C5.22956 7.1242 7.14956 5.22947 9.54956 4.44631Z" fill="#281812"/>
<path d="M19.5537 9.54947L21.3222 10.0042C20.539 6.36631 17.659 3.46104 13.9958 2.67789L14.4506 4.44631C16.8758 5.22947 18.7706 7.1242 19.5537 9.54947Z" fill="#281812"/>
<path d="M4.4464 14.4505L2.67798 13.9958C3.46114 17.6589 6.34114 20.5389 10.0043 21.3221L9.54956 19.5537C7.14956 18.7705 5.22956 16.8758 4.4464 14.4505Z" fill="#281812"/>
<path d="M14.4506 19.5537L13.9958 21.3221C17.6337 20.5389 20.539 17.6589 21.3222 13.9958L19.5537 14.4505C18.7706 16.8758 16.8758 18.7705 14.4506 19.5537Z" fill="#281812"/>
<path d="M23.7726 11.7221L15.5874 9.65053L16.8 7.62947C16.9516 7.35158 16.6484 7.04842 16.3705 7.2L14.3495 8.41263L12.2779 0.227368C12.2021 -0.0757895 11.7979 -0.0757895 11.7221 0.227368L9.65053 8.41263L7.62947 7.2C7.35158 7.04842 7.04842 7.35158 7.2 7.62947L8.41263 9.65053L0.227368 11.7221C-0.0757895 11.7979 -0.0757895 12.2021 0.227368 12.2779L8.41263 14.3495L7.2 16.3705C7.04842 16.6484 7.35158 16.9516 7.62947 16.8L9.65053 15.5874L11.7221 23.7726C11.7979 24.0758 12.2021 24.0758 12.2779 23.7726L14.3495 15.5874L16.3705 16.8C16.6484 16.9516 16.9516 16.6484 16.8 16.3705L15.5874 14.3495L23.7726 12.2779C24.0758 12.2021 24.0758 11.7979 23.7726 11.7221ZM12 13.92C10.9389 13.92 10.08 13.0611 10.08 12C10.08 10.9389 10.9389 10.08 12 10.08C13.0611 10.08 13.92 10.9389 13.92 12C13.92 13.0611 13.0611 13.92 12 13.92Z" fill="#281812"/>
</svg>
