<svg width="88" height="48" viewBox="0 0 88 48" fill="none" xmlns="http://www.w3.org/2000/svg">
<path d="M46.6517 48C45.6207 48 44.5038 48 43.4729 48C43.301 48 43.1292 47.9147 42.9574 47.9147C40.4659 47.8295 38.0602 47.7442 35.5687 47.4885C32.3899 47.2327 29.211 46.8917 26.0322 46.3801C19.5886 45.357 13.2309 43.8224 6.9591 41.7762C6.61544 41.6909 6.27178 41.6057 5.92812 41.6909C4.38165 41.8615 2.83519 42.1172 1.20281 42.2877C0.257744 42.4583 0 42.2877 0 41.2647C0 41.0941 0 41.0089 0 40.8384C0 39.8153 0 38.8774 0 37.8544C0 36.5755 0.0859148 36.4902 1.28872 36.0639C2.3197 35.6377 2.40561 35.4671 2.40561 34.3588C2.3197 30.4369 2.3197 26.4298 2.3197 22.508C2.3197 18.8419 2.49153 15.2611 2.66336 11.595C2.66336 10.8277 2.49153 10.5719 1.7183 10.5719C1.11689 10.5719 0.945062 10.3162 0.945062 9.80462C0.945062 9.0373 0.859148 8.18472 0.945062 7.41741C0.945062 6.30906 1.37464 5.88277 2.49153 5.88277C4.89714 5.88277 7.21684 5.88277 9.62245 5.88277C9.96611 5.88277 10.3957 5.71226 10.7393 5.45648C12.114 4.51865 13.4027 3.4103 14.8633 2.47247C16.6675 1.36412 18.6435 0.511545 20.7914 0.34103C23.2829 0.255773 25.6026 0 28.0082 0C39.7785 0 51.6348 0 63.4051 0.0852576C64.2642 0.0852576 65.1234 0.170515 65.9825 0.255773C70.8797 0.852575 75.0036 2.8135 78.3543 6.30906C78.6979 6.73535 79.2134 6.99112 79.643 7.24689C81.1035 8.09947 82.5641 8.86679 83.5951 10.1456C85.3993 12.5329 86.6021 15.1758 87.2894 18.0746C88.2345 21.8259 88.1485 25.6625 87.5471 29.4991C87.1176 31.9716 86.4302 34.2735 85.1415 36.405C84.626 37.3428 83.8528 38.1954 83.0796 38.8774C81.7908 40.071 80.0726 40.6679 78.4402 41.4352C69.7628 45.4423 60.484 47.2327 50.9475 47.7442C49.5728 47.9147 48.1123 48 46.6517 48ZM24.142 6.39432C24.3139 6.39432 24.4857 6.30906 24.5716 6.30906C26.5477 6.30906 28.4378 6.2238 30.4138 6.2238C31.8744 6.2238 31.8744 6.2238 32.1321 7.67318C32.1321 7.67318 32.1321 7.75844 32.1321 7.84369C31.7025 7.84369 31.273 7.75844 30.8434 7.75844C29.8124 7.67318 28.8674 7.67318 27.8364 7.58792C27.3209 7.50266 27.1491 7.75844 27.235 8.26998C27.235 8.35524 27.235 8.52575 27.235 8.61101C27.1491 9.12256 27.4068 9.29307 27.9223 9.29307C29.211 9.29307 30.4997 9.29307 31.8744 9.29307C31.8744 9.80462 31.8744 10.4867 31.8744 11.1687C31.4448 10.9982 31.0152 10.8277 30.5857 10.8277C29.6406 10.8277 28.6955 10.8277 27.7505 10.8277C27.235 10.8277 27.0632 10.9982 27.0632 11.595C27.1491 12.3623 27.1491 13.1297 27.235 14.0675C26.0322 14.0675 25.0012 14.0675 23.8843 14.0675C24.142 15.6021 23.6266 16.881 22.9392 17.9893C22.5097 18.5861 22.0801 19.1829 21.8223 19.865C21.4787 20.6323 20.9632 21.1439 20.2759 21.5702C19.9322 21.8259 19.5886 22.0817 19.0731 22.4227C19.6745 22.6785 20.0181 22.849 20.3618 22.9343C20.19 23.7869 20.0181 24.5542 19.9322 25.3215C19.6745 27.9645 19.9322 30.6075 21.0491 33.0799C21.4787 34.103 22.0801 35.0409 22.5956 36.0639C22.6815 36.2345 22.7674 36.5755 22.6815 36.746C21.9942 37.9396 21.3069 39.1332 19.9322 39.8153C19.159 40.2416 18.2998 40.4973 17.4407 40.9236C17.7844 41.0941 18.0421 41.3499 18.2998 41.4352C20.4477 42.1172 22.5956 42.5435 24.8294 42.5435C25.9463 42.5435 27.0631 42.4583 28.266 42.4583C34.28 42.4583 40.3799 42.5435 46.394 42.5435C52.9235 42.5435 59.453 42.4583 65.9825 42.2877C67.4431 42.2877 68.9036 41.7762 70.3642 41.4352C70.536 41.4352 70.7078 41.1794 70.9656 41.0089C70.7078 40.9236 70.6219 40.9236 70.4501 40.9236C69.4191 40.9236 68.3882 40.9236 67.3572 41.0089C66.3262 41.0089 65.2952 41.0941 64.2642 41.1794C63.8347 41.1794 63.5769 41.1794 63.5769 40.5826C63.5769 39.9858 63.5769 39.389 63.491 38.7922C63.491 38.3659 63.5769 38.1954 64.0065 38.2806C64.6079 38.3659 65.0375 38.0249 65.3811 37.5133C65.6389 37.0018 65.8966 36.4902 66.2403 35.6377C66.4121 35.9787 66.498 36.2345 66.6699 36.405C67.0135 36.746 67.2713 37.087 67.7008 37.3428C69.2473 38.1101 70.7938 38.7069 72.5121 38.8774C74.0585 39.048 75.5191 38.8774 76.4641 37.4281C77.0655 36.4902 77.4951 35.4671 77.8388 34.444C78.5261 32.2274 78.6979 29.9254 78.7838 27.6234C78.9557 22.9343 78.7838 18.2451 77.6669 13.6412C77.4092 12.5329 77.0655 11.5098 76.2923 10.6572C75.8627 10.0604 74.9177 9.88988 74.3163 10.1456C73.8008 10.3162 73.3712 10.913 73.3712 11.6803C73.3712 16.9663 73.4571 22.2522 73.543 27.5382C73.543 29.0728 73.7149 30.5222 73.7149 32.0568C73.7149 32.9094 73.7149 33.8472 73.7149 34.8703C73.3712 34.6146 73.1135 34.5293 73.0275 34.3588C72.4261 33.5062 71.7388 32.7389 71.2233 31.8863C70.1924 30.1812 69.2473 28.3908 67.7008 27.0266C67.7867 26.8561 67.9586 26.6004 68.0445 26.4298C68.8177 25.3215 69.2473 24.2131 69.3332 22.9343C69.505 20.2913 68.9896 17.9041 66.498 16.54C65.7248 16.1137 65.553 15.6021 65.553 14.8348C65.553 14.238 65.553 13.6412 65.553 13.0444C65.553 12.5329 65.467 12.1066 65.467 11.595C65.2952 10.4014 64.6079 9.80462 63.4051 9.80462C63.3192 9.80462 63.1473 9.80462 62.9755 9.71936C62.9755 9.0373 62.9755 8.4405 62.9755 7.75844C62.9755 6.90586 62.9755 6.90586 63.8347 6.90586C66.3262 6.90586 68.9036 6.90586 71.3952 6.90586C71.6529 6.90586 71.8247 6.90586 72.0825 6.8206C72.0825 6.73535 72.0825 6.65009 72.1684 6.56483C70.8797 5.96803 69.6769 5.20071 68.3022 4.85968C66.4121 4.43339 64.4361 4.17762 62.5459 4.09236C58.8516 4.0071 55.1573 4.0071 51.4629 4.0071C43.0433 4.09236 34.8814 4.09236 26.7195 4.17762C23.4547 4.17762 20.3618 4.94494 17.2689 6.05329C16.9252 6.13854 16.6675 6.39432 16.3238 6.65009C16.3238 6.73535 16.3238 6.8206 16.3238 6.8206C18.2139 7.24689 20.1041 7.50266 21.5646 8.86679C23.0252 10.2309 23.7125 11.9361 23.8843 14.0675C24.0561 13.8117 24.142 13.7265 24.142 13.7265C24.228 11.3393 24.3998 8.86679 24.142 6.39432ZM11.1689 37.8544C12.114 37.8544 12.8872 37.5133 13.4886 36.9165C14.6055 35.9787 15.121 34.6998 15.4647 33.3357C15.8942 31.3748 15.8083 29.3286 15.6365 27.3677C15.5506 26.5151 15.2928 25.5773 14.9492 24.7247C14.7773 24.2131 14.4337 23.8721 13.8323 23.8721C12.8872 23.7869 11.9422 24.0426 11.083 24.3837C11.1689 28.9876 11.1689 33.421 11.1689 37.8544ZM11.5126 15.7726C11.4267 15.7726 11.4267 15.7726 11.3407 15.7726C11.3407 17.4778 11.3407 19.1829 11.3407 20.8881C11.3407 21.2291 11.3407 21.4849 11.7703 21.5702C13.059 21.8259 14.3478 21.2291 14.8633 19.9503C15.121 19.2682 15.3787 18.5009 15.5506 17.7336C15.9801 15.7726 15.6365 13.8117 14.7773 12.0213C14.2619 10.9982 13.5745 10.3162 12.4576 10.0604C11.6844 9.88988 11.5985 9.88988 11.5985 10.7425C11.5126 12.3623 11.5126 14.0675 11.5126 15.7726Z" fill="#281812"/>
<path d="M61.687 28.0497C61.687 28.3908 61.6011 28.5613 61.6011 28.7318C61.687 30.5222 61.687 32.3126 61.7729 34.103C61.7729 34.6146 61.9447 34.8703 62.4602 34.7851C62.9757 34.6998 63.1476 34.9556 63.1476 35.4671C63.1476 36.1492 63.0616 36.9165 63.0616 37.6838C63.0616 38.1101 62.8898 38.1954 62.4602 38.1954C58.3363 38.1954 54.2124 38.1954 50.1744 38.1954C50.0026 38.1954 49.7449 37.9396 49.7449 37.8544C49.7449 36.9165 49.7449 35.8934 49.7449 34.9556C50.604 34.6998 50.6899 34.5293 50.5181 33.6767C50.4322 32.9947 50.2603 32.3979 50.0885 31.7158C50.0026 31.3748 49.8308 31.2895 49.4871 31.2895C48.7998 31.2895 48.1984 31.2895 47.5111 31.2895C47.1674 31.2895 46.9956 31.3748 46.9097 31.7158C46.8237 32.3979 46.6519 32.9947 46.566 33.6767C46.4801 34.1883 46.566 34.6146 47.0815 34.8703C47.2533 34.9556 47.3392 35.2114 47.3392 35.3819C47.4252 36.1492 47.4252 36.8313 47.4252 37.5986C47.4252 37.9396 47.4252 38.1954 46.9097 38.1954C43.2153 38.1954 39.521 38.2807 35.8267 38.2807C35.7407 38.2807 35.6548 38.2806 35.483 38.1954C35.3971 37.1723 35.3971 36.2345 35.3112 35.2114C35.3112 34.7851 35.6548 34.7851 35.9126 34.7851C36.514 34.8703 36.6858 34.6146 36.6858 34.103C36.6858 32.1421 36.7717 30.1812 36.6858 28.2203C36.5999 27.1119 36.1703 26.0036 35.8267 24.9805C35.2253 23.1901 34.452 21.3997 33.8506 19.6945C33.5929 19.0124 33.2492 18.5862 32.5619 18.4156C32.476 18.4156 32.3042 18.2451 32.3042 18.1599C32.2182 17.5631 32.1323 16.9663 32.1323 16.4547C32.1323 16.3695 32.5619 16.1989 32.7337 16.1989C35.1393 16.1989 37.545 16.1989 39.9506 16.1989C40.1224 16.1989 40.2942 16.1989 40.552 16.1989C40.552 16.881 40.552 17.6483 40.552 18.3304C40.3801 18.3304 40.2083 18.4156 40.0365 18.4156C39.0914 18.4156 39.0914 18.4156 39.3492 19.3535C39.7787 20.7176 40.2083 22.167 40.6379 23.5311C40.7238 23.7016 40.8097 23.8721 40.8956 24.2132C40.9815 24.0426 41.1534 23.9574 41.1534 23.7869C41.7548 22.2522 42.4421 20.7176 43.0435 19.183C43.2153 18.6714 43.2153 18.4156 42.6139 18.5009C42.2703 18.5009 42.1844 18.3304 42.1844 17.9894C42.2703 15.9432 41.8407 16.3695 43.8167 16.2842C44.59 16.2842 45.4491 16.2842 46.3083 16.2842C46.3083 16.881 46.3083 17.3925 46.3083 17.9041C46.3083 18.0746 46.0505 18.2451 45.9646 18.4156C45.7069 18.6714 45.4491 18.8419 45.2773 19.0977C44.2463 21.5702 43.3012 24.0426 42.2703 26.6004C42.0984 27.1119 41.9266 27.7087 41.9266 28.3055C41.9266 30.2664 41.9266 32.2274 41.9266 34.2735C41.9266 34.9556 42.0984 35.1261 42.7858 34.9556C43.6449 34.6998 44.2463 34.1883 44.4181 33.421C44.6759 32.3126 44.9336 31.2043 45.1055 30.0959C45.7928 27.1119 46.3942 24.1279 47.0815 21.1439C47.3392 19.7798 47.597 18.4156 47.2533 16.9663C47.2533 16.7957 47.2533 16.7105 47.2533 16.54C47.4252 16.54 47.5111 16.4547 47.6829 16.4547C48.8857 16.4547 50.0026 16.4547 51.2054 16.4547C51.4631 16.4547 51.635 16.4547 51.7209 16.881C52.3223 19.9503 53.0096 23.0195 53.6969 26.0888C54.1265 28.2203 54.5561 30.437 55.0716 32.5684C55.1575 32.9947 55.2434 33.421 55.4152 33.8473C55.5871 34.1883 55.8448 34.6146 56.1885 34.7851C56.7899 35.2114 57.0476 35.0409 57.0476 34.2735C57.0476 29.4139 57.0476 24.6394 57.0476 19.7798C57.0476 18.6714 57.0476 18.6714 55.9307 18.5009L55.8448 18.4156C55.673 16.1989 55.673 16.1989 57.8208 16.1989C59.711 16.1989 61.6011 16.1989 63.4912 16.1989C67.0137 16.1989 69.3334 19.7798 68.6461 22.4227C68.4743 23.0195 68.3884 23.6164 68.2165 24.2132C67.9588 25.151 67.5292 25.9183 66.6701 26.4299C66.4123 26.6004 66.2405 26.7709 66.0687 26.9414C66.756 27.4529 67.5292 27.794 67.9588 28.3908C68.9898 29.7549 69.8489 31.119 70.708 32.5684C71.2235 33.421 71.5672 34.4441 72.5123 35.0409C72.9418 35.2966 73.4573 35.5524 73.8869 35.8082C74.0587 35.8934 74.2306 36.064 74.2306 36.1492C74.2306 36.8313 74.2306 37.5133 74.2306 38.3659C73.5432 38.2807 72.8559 38.2807 72.2545 38.1101C70.8799 37.6838 69.5052 37.3428 68.2165 36.5755C66.6701 35.7229 65.8968 34.103 65.2095 32.5684C64.694 31.3748 64.3504 30.0959 63.2335 29.2433C62.8898 28.7318 62.3743 28.476 61.687 28.0497ZM61.6011 22.167C61.6011 23.1901 61.6011 24.2132 61.6011 25.2362C61.6011 25.7478 61.8588 25.9183 62.2884 25.6625C63.0616 25.3215 63.5771 24.81 63.749 23.9574C63.8349 23.0195 63.8349 22.0817 63.749 21.1439C63.663 20.3766 63.4053 19.524 63.0616 18.7567C62.9757 18.5009 62.3743 18.4156 62.0307 18.2451C61.8588 18.5862 61.687 18.8419 61.6011 19.183C61.5152 20.206 61.6011 21.1439 61.6011 22.167ZM48.628 25.6625C48.542 25.6625 48.542 25.6625 48.4561 25.6625C48.1984 26.6004 48.0266 27.5382 47.7688 28.5613C48.2843 28.5613 48.7139 28.5613 49.1434 28.5613C49.0575 27.5382 48.8857 26.6004 48.628 25.6625Z" fill="#281812"/>
<path d="M20.5337 27.368C20.5337 23.9577 21.3069 21.059 23.1111 18.5012C24.4858 16.5403 26.8914 15.6025 28.8674 16.2845C30.5857 16.8813 31.8744 18.0749 32.7336 19.6096C34.2801 22.4231 34.9674 25.4071 34.4519 28.6469C34.0223 31.1194 33.5068 33.4213 31.9604 35.4675C30.7575 37.0874 29.297 38.1957 27.235 38.1957C25.4308 38.1957 24.1421 37.2579 23.0252 35.8938C21.5647 34.1034 20.8774 31.8867 20.6196 29.5847C20.6196 28.7321 20.5337 27.9648 20.5337 27.368ZM22.252 26.9417C22.3379 27.8796 22.4238 28.9027 22.5956 29.8405C22.9393 31.6309 23.7125 33.3361 25.1731 34.5297C26.4618 35.638 28.1801 35.7233 29.5547 34.6149C30.2421 34.0181 30.8435 33.3361 31.273 32.5687C32.1322 31.1194 32.4758 29.4995 32.5618 27.7943C32.7336 25.3218 32.304 22.9346 30.9294 20.8884C30.5857 20.2916 30.0702 19.7801 29.4688 19.3538C27.7505 18.0749 25.6027 18.5012 24.228 20.3769C22.7675 22.2526 22.3379 24.5545 22.252 26.9417Z" fill="#281812"/>
<path d="M37.8885 6.3089C38.8335 6.3089 39.7786 6.3089 40.7236 6.3089C42.2701 6.39416 42.8715 6.9057 42.8715 8.5256C42.8715 9.88972 42.8715 11.1686 42.8715 12.5327C42.8715 13.8116 42.356 14.4084 40.9814 14.4084C39.4349 14.4084 37.9744 14.3231 36.4279 14.3231C35.6547 14.3231 34.7955 14.2379 34.0223 14.2379C32.9913 14.1526 32.4758 13.641 32.4758 12.7032C32.4758 11.1686 32.4758 9.54869 32.4758 8.01405C32.4758 7.41725 32.8195 6.99096 33.4209 6.82044C34.0223 6.64993 34.5378 6.56467 35.1392 6.47941C36.0842 6.22364 37.0293 6.3089 37.8885 6.3089ZM39.349 10.316C39.349 9.7192 39.349 9.1224 39.349 8.5256C39.349 8.18456 39.1772 8.01405 38.8335 8.01405C38.1462 8.01405 37.373 8.01405 36.6857 8.01405C36.342 8.01405 36.2561 8.18456 36.2561 8.5256C36.2561 9.7192 36.2561 10.9128 36.2561 12.1064C36.2561 12.4474 36.4279 12.618 36.7716 12.618C37.4589 12.618 38.1462 12.618 38.8335 12.618C39.1772 12.618 39.349 12.4474 39.349 12.1064C39.349 11.5096 39.349 10.9128 39.349 10.316Z" fill="#281812"/>
<path d="M52.3221 10.913C53.2672 11.9361 54.2122 12.9591 55.2432 14.1528C54.0404 14.1528 52.8376 14.238 51.8066 14.0675C51.3771 13.9822 50.9475 13.4707 50.6038 13.1297C50.1743 12.6181 49.8306 12.1066 49.401 11.595C48.8855 10.9982 48.2841 10.6572 47.425 10.6572C47.0813 10.6572 46.9095 10.8277 46.9095 11.1687C46.9095 12.1066 46.9095 12.9591 46.9095 13.9822C45.7926 13.9822 44.7616 13.9822 43.7306 13.9822C43.6447 13.9822 43.4729 13.6412 43.4729 13.556C43.4729 12.7034 43.5588 11.7655 43.5588 10.913C43.5588 9.46359 43.5588 8.01421 43.5588 6.47958C43.6447 6.47958 43.9025 6.47958 44.0743 6.47958C46.3081 6.47958 48.456 6.39432 50.6897 6.39432C51.3771 6.39432 52.0644 6.56483 52.7517 6.82061C53.3531 6.99112 53.6108 7.50267 53.6108 8.18473C53.6108 8.52576 53.6108 8.95204 53.6108 9.29307C53.6968 10.1456 53.2672 10.6572 52.5799 10.913C52.4939 10.8277 52.4939 10.8277 52.3221 10.913ZM48.456 9.37833C48.7996 9.37833 49.1433 9.37833 49.401 9.37833C49.8306 9.37833 50.0024 9.20782 49.9165 8.86679C49.9165 8.52576 50.1743 7.92895 49.4869 7.92895C48.7996 7.8437 48.1123 7.8437 47.425 7.92895C47.2531 7.92895 47.0813 8.01421 46.9954 8.18473C46.6517 8.95204 46.9954 9.46359 47.8546 9.46359C48.1123 9.37833 48.2841 9.37833 48.456 9.37833Z" fill="#281812"/>
<path d="M59.9685 13.9822C58.8516 14.0675 57.7347 14.0675 56.5319 14.1528C56.6179 13.7265 56.6179 13.3002 56.7038 12.9591C56.7038 11.3393 56.7038 9.71936 56.7038 8.09947C56.7038 8.01421 56.5319 7.75844 56.3601 7.75844C55.9305 7.67318 55.501 7.67318 55.0714 7.67318C54.1263 7.67318 53.8686 7.50267 53.6108 6.47958C53.7827 6.47958 53.8686 6.39432 54.0404 6.39432C56.6179 6.39432 59.1953 6.39432 61.8587 6.39432C62.546 6.39432 62.4601 6.73535 62.546 7.16164C62.546 7.67318 62.4601 7.8437 61.8587 7.8437C61.515 7.75844 61.0854 7.8437 60.7418 7.75844C60.2263 7.67318 59.9685 7.8437 59.9685 8.4405C59.9685 10.2309 59.9685 12.1066 59.9685 13.9822Z" fill="#281812"/>
<path d="M23.0249 26.9411C23.1108 24.6392 23.5404 22.5078 25.0009 20.6321C26.4615 18.8417 28.5234 18.9269 29.8981 20.7173C30.9291 21.9962 31.3586 23.4456 31.6164 25.0655C31.96 27.4527 31.7023 29.7546 30.6713 31.9713C30.4136 32.5681 29.984 33.0797 29.4685 33.5912C28.1798 34.8701 26.6333 34.8701 25.3446 33.5912C24.0559 32.3124 23.5404 30.7777 23.2826 29.0726C23.1108 28.3905 23.1108 27.6232 23.0249 26.9411ZM28.6953 31.0335C28.6953 30.863 28.7812 30.6925 28.6953 30.522C28.6094 29.8399 28.5234 29.1578 28.4375 28.3905C28.2657 27.2822 28.0939 26.2591 28.7812 25.236C29.0389 24.895 28.953 24.1276 28.7812 23.6161C28.6094 22.934 27.8361 22.6783 27.2347 22.7635C26.6333 22.8488 26.2037 23.3603 26.2037 24.0424C26.2037 24.7244 26.4615 25.3212 26.6333 26.0033C26.7192 26.3443 26.8911 26.6854 26.8052 27.0264C26.7192 28.22 26.4615 29.3284 26.3756 30.522C26.3756 30.6925 26.5474 30.9482 26.6333 30.9482C27.2347 31.1188 27.922 31.0335 28.6953 31.0335ZM27.5784 20.2058C27.4925 20.2058 27.4066 20.2058 27.3206 20.2058C27.2347 20.3763 26.977 20.5468 26.977 20.8026C26.8911 21.1436 27.0629 21.5699 27.4925 21.4847C27.6643 21.4847 28.008 21.1436 28.008 20.9731C27.922 20.7173 27.6643 20.4616 27.5784 20.2058ZM27.3206 33.847C27.4066 33.847 27.4925 33.847 27.5784 33.847C27.7502 33.6765 28.008 33.4207 27.922 33.2502C27.8361 32.9944 27.5784 32.8239 27.4066 32.7387C27.2347 32.7387 26.8911 33.0797 26.8911 33.1649C26.977 33.3355 27.1488 33.5912 27.3206 33.847Z" fill="#281812"/>
</svg>
