<svg width="41" height="34" viewBox="0 0 41 34" fill="none" xmlns="http://www.w3.org/2000/svg">
<path d="M14.7304 34C14.5823 34 14.4343 33.9668 14.2863 33.9004C13.9244 33.726 13.7023 33.3607 13.7023 32.9622V27.6151H3.60241C1.61204 27.6234 0 25.9878 0 23.9868V3.63663C0 1.62735 1.61204 0 3.60241 0H37.3976C39.3797 0 41 1.62735 41 3.63663V23.9868C41 25.9878 39.388 27.6234 37.3976 27.6234H22.8317L15.3801 33.7675C15.191 33.9253 14.9607 34 14.7304 34ZM3.60241 2.0757C2.74704 2.0757 2.05617 2.77314 2.05617 3.63663V23.9868C2.05617 24.842 2.74704 25.5477 3.60241 25.5477H14.7304C15.2979 25.5477 15.7585 26.0127 15.7585 26.5856V30.7785L21.8201 25.7802C22.001 25.6308 22.2313 25.5477 22.4698 25.5477H37.3976C38.2447 25.5477 38.9438 24.8503 38.9438 23.9868V3.63663C38.9438 2.78144 38.253 2.0757 37.3976 2.0757H3.60241Z" fill="#281812"/>
<path d="M13.6448 15.8085C14.735 15.8085 15.6187 14.9163 15.6187 13.8158C15.6187 12.7153 14.735 11.8231 13.6448 11.8231C12.5547 11.8231 11.6709 12.7153 11.6709 13.8158C11.6709 14.9163 12.5547 15.8085 13.6448 15.8085Z" fill="#281812"/>
<path d="M27.3553 15.8085C28.4454 15.8085 29.3292 14.9163 29.3292 13.8158C29.3292 12.7153 28.4454 11.8231 27.3553 11.8231C26.2651 11.8231 25.3813 12.7153 25.3813 13.8158C25.3813 14.9163 26.2651 15.8085 27.3553 15.8085Z" fill="#281812"/>
<path d="M20.6604 15.8085C21.7506 15.8085 22.6344 14.9163 22.6344 13.8158C22.6344 12.7153 21.7506 11.8231 20.6604 11.8231C19.5703 11.8231 18.6865 12.7153 18.6865 13.8158C18.6865 14.9163 19.5703 15.8085 20.6604 15.8085Z" fill="#281812"/>
</svg>
