<svg width="1920" height="31" viewBox="0 0 1920 31" fill="none" xmlns="http://www.w3.org/2000/svg">
<path d="M1599.88 6.2C1562.88 5.8 1526.17 6.2 1489.17 6.4H1601.17C1600.37 6.3 1599.97 6.2 1599.88 6.2C1604.88 6.3 1609.88 6.3 1614.78 6.4C1614.68 6.4 1614.57 6.4 1614.57 6.4H2239.98V31H-319.925V7.3C-320.025 7.3 -320.025 7.3 -319.925 7.2V6.4H-282.225C-288.625 6.1 -294.025 5.6 -299.625 4.8C-292.525 4.4 -273.325 4.5 -274.125 4C-268.425 4.7 -254.725 5 -236.425 5C-234.325 4.2 -255.025 4.6 -249.825 4.4L-245.925 4.3C-248.025 3.9 -251.525 3.6 -257.825 3.6C-235.025 2.4 -192.225 2.6 -176.025 4.2C-157.425 3.4 -188.725 2.9 -198.225 2.3C-132.925 1.7 -88.725 1.8 -22.725 1.7C-21.625 3.2 -16.025 2.6 -6.92499 3.6L-1.32498 3.1C-4.02499 3.4 4.375 4.3 -6.625 4.6C21.575 3.8 32.375 5.4 47.575 6.5H61.275H61.175C62.775 6.5 64.375 6.5 65.775 6.5H117.275C122.075 5.9 78.875 6.5 86.775 5L96.575 5.3C90.975 4.6 84.575 3.3 73.675 2.8C106.675 4 120.975 2.3 156.875 3.3C152.675 2.5 120.375 1.8 111.575 1.7C123.675 1.6 145.375 2.2 146.375 1.4L148.775 2.5C170.175 2.6 145.975 1.5 152.975 0.9C203.575 1.1 159.675 4.3 202.175 4.9C206.375 3.3 222.175 5.2 236.575 4.7C222.875 4.5 226.375 3.5 228.075 3C244.975 5.1 248.775 2.6 279.975 3C280.675 2.3 265.575 2.2 263.775 1.4C280.975 1.9 307.275 2.2 311.175 3.4C340.375 3.4 361.075 3 378.575 3.2C357.475 2.7 374.675 2 359.275 1C380.675 2.4 428.475 4 459.775 5.7C463.575 4.4 464.975 4.3 461.075 3.1C496.175 2.2 471.275 4.3 504.575 3.9L489.275 4C504.175 4.4 505.775 5.5 510.175 6.4H525.775C523.875 6.3 522.675 6.1 522.975 5.8C532.775 6.1 540.175 6.3 544.775 5.6C536.675 4.8 524.475 5.7 520.475 4.5L535.275 5C544.775 4.4 531.675 3.5 540.475 3.6C552.775 5.2 582.875 3 596.575 3.2L591.675 3L612.775 2.2C612.975 2.2 612.775 2.1 612.875 2.1C613.275 2.2 613.575 2.3 613.875 2.4C622.275 1.6 637.975 1 655.575 1.2C662.275 2.1 711.075 1.5 719.175 2.3C711.775 2.1 705.575 2.1 696.375 2.3L697.775 3.4C714.275 3.4 698.775 2.4 714.675 3C711.875 4.5 691.875 3 680.275 3.2C684.475 3.5 690.275 3.8 697.475 4C674.175 4 651.975 4.5 635.875 3C630.275 3.3 631.675 3.8 635.275 4C620.875 3.4 624.475 4.9 610.675 4.2C615.575 5.6 645.375 4.9 659.875 5.7C681.275 4.6 709.375 5.6 733.275 5.8C734.275 4.8 717.375 3.9 726.875 3.3C750.375 2.6 750.375 3.9 763.775 4.4C780.575 4 765.475 2.7 792.175 2.6L776.375 1.9C791.675 0.4 791.075 2.5 802.675 2.2C798.875 2.6 798.875 3 785.475 2.9C784.075 3.4 794.275 3.7 799.175 3.7H796.075C801.675 4.4 803.475 5.2 820.275 4.8C809.675 3.9 833.575 4.1 837.775 3.7L833.375 3.5C845.675 3.8 858.375 3.7 866.175 3.8L865.475 3.6C874.775 4 878.175 5 891.675 4.8C890.275 4.4 874.275 3.2 889.075 3.4C886.975 2.8 870.575 2.7 857.075 2.9C870.475 2.7 877.275 1.6 860.775 1.5C865.275 0.700001 876.275 1.9 884.975 1.5C883.575 1.7 885.775 2 885.675 2.2C887.375 1.2 917.775 2.2 918.275 2.9L902.075 2.3C900.975 3.1 916.875 3.6 915.775 4.1C925.275 3 957.875 4.9 965.775 3.8L959.975 4.5C991.175 4.1 1017.38 5.5 1048.38 6H1052.67C1044.07 5.6 1041.47 4.5 1028.67 4.5C1048.77 4.1 1031.37 3 1040.17 2.3C1064.77 1.7 1052.97 3.7 1060.57 4.2L1043.47 3.9C1065.47 5.7 1107.28 3.5 1141.28 4.6C1143.78 4.1 1134.27 4.3 1129.67 4.2C1144.97 3.3 1144.47 4.4 1153.78 4.7C1169.58 4.6 1188.57 4.1 1178.88 3C1196.28 2.7 1176.97 3.7 1186.28 4L1189.47 3.7L1207.88 5C1222.97 4.6 1241.28 4 1247.97 3C1281.67 3.2 1262.07 5.3 1282.97 5.9H1287.38C1299.07 5.4 1283.18 5.1 1281.78 4.7L1304.47 4.8C1296.38 3.5 1278.07 4.2 1279.47 2.7C1298.47 4.2 1305.17 3.1 1330.67 4.1L1329.07 4.2C1340.38 5.2 1366.57 4.5 1381.47 4.7C1375.47 4.1 1358.97 4 1348.07 3.8C1364.77 3.3 1406.88 3.8 1421.28 5.1C1430.78 4.9 1451.38 4.4 1437.47 3.8C1471.38 3.6 1451.58 5.7 1480.78 5.3L1479.57 4.3C1511.57 2.9 1542.67 5.6 1572.97 4.3L1574.88 5.5C1581.38 5 1594.88 4.8 1597.38 4.3L1581.88 3.9C1594.88 2.9 1597.17 4.9 1613.17 4.2C1613.07 4.9 1599.88 5.8 1599.88 6.2ZM238.975 4.6C236.875 5.4 253.075 5.7 260.075 6.3C268.875 6.4 275.075 6.4 275.875 5.7C285.775 5.8 289.975 6.1 291.475 6.3H326.575C326.775 6.2 327.475 6 328.875 5.9C311.675 2.9 268.175 5.8 238.975 4.6ZM367.875 3.8L328.175 4.2C330.575 4.9 333.975 5.7 340.075 6.4H385.475C369.875 5.5 348.875 4.8 367.875 3.8ZM471.775 6.3L483.875 6.4L471.775 6.3ZM704.775 6.3C704.375 6.3 703.975 6.3 703.475 6.3C703.675 6.3 703.875 6.3 703.975 6.3H704.775ZM735.975 6.3H752.975C746.075 6.3 740.975 6.3 735.975 6.3ZM776.775 5.5C772.275 5.7 767.675 6.1 767.375 6.4H788.175C782.175 6.1 777.975 5.8 776.775 5.5ZM845.775 6.3H852.075C851.175 6.3 850.075 6.3 848.675 6.2C847.575 6.3 846.675 6.3 845.775 6.3ZM874.575 6.3H877.575C877.375 6.3 877.175 6.2 877.075 6.2C875.875 6.3 875.075 6.3 874.575 6.3ZM953.275 5.9C952.675 6 952.775 6.2 953.175 6.3H985.175C978.075 6 959.475 6.5 953.275 5.9ZM1301.97 5.7C1293.88 5.8 1291.28 6.1 1293.28 6.3H1307.57C1306.77 6.1 1305.47 5.8 1301.97 5.7ZM1321.28 6.3H1321.78C1321.88 6.3 1321.97 6.3 1322.07 6.2L1321.28 6.3ZM1408.78 5.4C1401.58 5.7 1388.38 5.4 1390.47 6L1392.78 6.1C1387.08 6 1381.47 6.1 1376.28 6.3H1402.88C1401.78 6.2 1402.38 6.1 1403.57 6L1406.17 6.3H1435.28C1425.18 6.2 1415.07 6.1 1404.97 5.9C1407.47 5.8 1410.47 5.7 1408.78 5.4Z" fill="white"/>
</svg>
