<svg width="24" height="24" viewBox="0 0 24 24" fill="none" xmlns="http://www.w3.org/2000/svg">
<path d="M21.3479 2.34028C20.7306 1.79283 18.2427 0.0424387 12.7016 0.0172273C12.7016 0.0172273 6.16382 -0.364546 2.97677 2.46634C1.20287 4.18432 0.578106 6.69827 0.514885 9.81728C0.447946 12.9363 0.362412 18.7746 6.1787 20.3593H6.18242L6.1787 22.776C6.1787 22.776 6.14151 23.7556 6.80718 23.9537C7.61046 24.195 8.08275 23.4531 8.85255 22.6499C9.27278 22.2105 9.85664 21.5622 10.2955 21.0688C14.2709 21.3929 17.3315 20.651 17.6774 20.543C18.4807 20.2908 23.0251 19.7254 23.7614 13.8871C24.5238 7.8688 23.3895 4.05826 21.3479 2.34028ZM22.021 13.4549C21.3962 18.3316 17.7109 18.6413 17.034 18.8502C16.744 18.9402 14.0589 19.5885 10.6822 19.3724C10.6822 19.3724 8.16457 22.3114 7.37989 23.0785C7.25717 23.1974 7.11213 23.2478 7.01544 23.2226C6.88156 23.1902 6.84437 23.0353 6.84437 22.8084C6.84809 22.4842 6.86669 18.7926 6.86669 18.7926C6.86297 18.7926 6.86297 18.7926 6.86669 18.7926C1.95036 17.4708 2.23671 12.4969 2.2925 9.89292C2.34828 7.28894 2.85404 5.15676 4.35274 3.72331C7.04891 1.36064 12.6012 1.7136 12.6012 1.7136C17.2906 1.73521 19.5368 3.10023 20.0575 3.55764C21.783 4.99469 22.6644 8.42705 22.021 13.4549Z" fill="#281812"/>
<path d="M14.9812 9.98655C14.8138 9.98655 14.6762 9.86049 14.6688 9.69842C14.6167 8.66835 14.1147 8.16412 13.092 8.11009C12.9209 8.10289 12.787 7.95882 12.7945 7.78955C12.8019 7.62387 12.9507 7.49421 13.1255 7.50142C14.4791 7.56985 15.2303 8.31899 15.2973 9.666C15.3047 9.83168 15.1708 9.97574 14.9998 9.98295C14.9923 9.98655 14.9849 9.98655 14.9812 9.98655Z" fill="#281812"/>
<path d="M16.5878 10.5088C16.5841 10.5088 16.5841 10.5088 16.5804 10.5088C16.4056 10.5052 16.2717 10.3647 16.2755 10.199C16.3015 9.16177 15.9928 8.32259 15.3383 7.63108C14.6838 6.93956 13.7875 6.56499 12.6049 6.48216C12.4339 6.47135 12.3037 6.32368 12.3149 6.15801C12.326 5.99233 12.4748 5.86628 12.6496 5.87708C13.9809 5.96712 15.0408 6.42093 15.7994 7.22049C16.5581 8.02005 16.93 9.02851 16.9002 10.2135C16.8965 10.3791 16.7589 10.5088 16.5878 10.5088Z" fill="#281812"/>
<path d="M18.2353 11.1319C18.0642 11.1319 17.9229 10.9986 17.9229 10.8293C17.908 8.9997 17.3427 7.54103 16.2345 6.49656C15.1263 5.45209 13.728 4.91544 12.0731 4.90464C11.8983 4.90464 11.7607 4.76777 11.7607 4.5985C11.7607 4.43282 11.9021 4.29596 12.0731 4.29596C12.0731 4.29596 12.0731 4.29596 12.0768 4.29596C13.8954 4.30676 15.4424 4.90103 16.6696 6.06076C17.9006 7.22409 18.5291 8.82682 18.5439 10.8257C18.5514 10.995 18.41 11.1319 18.2353 11.1319Z" fill="#281812"/>
<path d="M13.1702 13.7503C13.1702 13.7503 13.6128 13.7863 13.8471 13.5017L14.3082 12.9399C14.5313 12.659 15.0706 12.4825 15.5986 12.767C15.8924 12.9291 16.4205 13.2424 16.7478 13.4765C17.0973 13.7251 17.8151 14.3049 17.8151 14.3049C18.1572 14.5822 18.2353 14.9928 18.0047 15.425C18.0047 15.4286 18.001 15.4322 18.001 15.4322C17.763 15.8392 17.4432 16.2246 17.0378 16.5812C17.0341 16.5848 17.0341 16.5848 17.0304 16.5884C16.6994 16.8549 16.3722 17.0097 16.0524 17.0458C16.0152 17.053 15.9668 17.0566 15.911 17.053C15.7697 17.053 15.6321 17.035 15.4945 16.9917L15.4834 16.9773C14.9888 16.8441 14.1669 16.5055 12.7946 15.7744C11.9021 15.299 11.1621 14.8127 10.5373 14.3301C10.2063 14.078 9.8679 13.7899 9.52205 13.4585C9.51089 13.4477 9.49973 13.4369 9.48858 13.4261C9.47742 13.4153 9.46626 13.4045 9.45511 13.3937C9.44395 13.3829 9.43279 13.3721 9.42164 13.3613C9.41048 13.3505 9.39932 13.3397 9.38817 13.3289C9.04603 12.9939 8.74852 12.6662 8.4882 12.3456C7.98988 11.7405 7.48783 11.0202 6.99694 10.1594C6.24202 8.83043 5.89245 8.03446 5.75485 7.55545L5.73997 7.54464C5.69535 7.41138 5.67303 7.27812 5.67675 7.14126C5.67303 7.08723 5.67675 7.04041 5.68419 7.0044C5.72138 6.69465 5.88129 6.37771 6.15648 6.05716C6.1602 6.05356 6.1602 6.05356 6.16392 6.04996C6.53209 5.65738 6.92629 5.34764 7.35024 5.11714C7.35395 5.11714 7.35767 5.11353 7.35767 5.11353C7.80394 4.89023 8.22788 4.96587 8.51424 5.29722C8.51796 5.30082 9.11297 5.99233 9.36957 6.33089C9.6113 6.65143 9.93856 7.15927 10.1022 7.44379C10.396 7.95523 10.2138 8.47746 9.92368 8.69356L9.34354 9.14017C9.04975 9.37067 9.08694 9.79566 9.08694 9.79566C9.08694 9.79566 9.94971 12.9543 13.1702 13.7503Z" fill="#281812"/>
</svg>
