<svg width="24" height="14" viewBox="0 0 24 14" fill="none" xmlns="http://www.w3.org/2000/svg">
<path d="M22.8582 13.5H19.6892C19.6892 13.5 19.6036 13.5 19.5179 13.5C19.261 13.5 18.7471 13.4156 18.0619 12.9937C16.9485 12.2344 15.8351 10.2937 15.0643 10.2937C14.9787 10.2937 14.9787 10.2937 14.893 10.2937C14.1222 10.5469 13.9509 11.2219 13.9509 12.15C13.9509 12.4875 13.694 12.5719 13.0944 12.5719H11.4671C9.58292 12.5719 7.78434 12.5719 5.81446 10.3781C2.81683 7.25625 0.0761304 1.60312 0.0761304 1.60312C0.0761304 1.60312 -0.095163 1.26562 0.0761304 1.09687C0.247424 0.84375 0.590011 0.84375 0.675657 0.84375H0.761304H4.18717C4.18717 0.84375 4.52976 0.928125 4.70105 1.09687C4.87235 1.26562 5.04364 1.51875 5.04364 1.51875C5.04364 1.51875 5.64317 2.61562 6.32834 3.88125C7.61304 5.90625 8.21257 6.58125 8.72645 6.58125C8.8121 6.58125 8.89774 6.58125 8.98339 6.49687C9.66856 6.15937 9.41162 3.12187 9.41162 3.12187C9.41162 3.12187 9.41162 2.025 9.06904 1.51875C8.8121 1.09687 8.21257 1.0125 8.04128 1.0125C7.86998 1.0125 8.12692 0.590625 8.55516 0.3375C9.06904 0.084375 9.9255 0 11.0389 0H11.5528C12.5806 0 12.5806 0.084375 13.0088 0.253125C14.1222 0.50625 13.694 1.60312 13.694 4.21875C13.694 5.0625 13.5227 6.24375 14.1222 6.66562C14.1222 6.66562 14.2078 6.66562 14.2935 6.66562C14.7217 6.66562 15.5782 6.15937 16.8629 3.88125C17.6337 2.61562 18.2332 1.35 18.2332 1.35C18.2332 1.35 18.4045 1.09687 18.5758 1.0125C18.8328 0.84375 18.8328 0.84375 19.0897 0.84375C19.3466 0.84375 22.0873 0.84375 22.6869 0.84375H22.7725C23.372 0.84375 23.8859 0.84375 23.9716 1.18125C24.1429 1.6875 23.5433 2.61562 22.0873 4.55625C19.6892 7.7625 19.4323 7.50937 21.4022 9.36562C23.2864 11.1375 23.7146 11.9812 23.8003 12.0656C24.5711 13.4156 22.8582 13.5 22.8582 13.5Z" fill="#281812"/>
</svg>
