<?xml version="1.0" encoding="utf-8"?>
<!-- Generator: Adobe Illustrator 21.1.0, SVG Export Plug-In . SVG Version: 6.00 Build 0)  -->
<svg version="1.1" id="Слой_1" xmlns="http://www.w3.org/2000/svg" xmlns:xlink="http://www.w3.org/1999/xlink" x="0px" y="0px"
	 viewBox="0 0 34.7 34.7" style="enable-background:new 0 0 34.7 34.7;" xml:space="preserve">
<style type="text/css">
	.st0{fill:#424143;}
</style>
<g>
	<path class="st0" d="M17.4,0C7.8,0,0,7.8,0,17.4c0,9.6,7.8,17.4,17.4,17.4c9.6,0,17.4-7.8,17.4-17.4C34.7,7.8,26.9,0,17.4,0z
		 M17.4,33.3c-8.8,0-16-7.2-16-16c0-8.8,7.2-16,16-16s16,7.2,16,16C33.3,26.2,26.2,33.3,17.4,33.3z"/>
	<path class="st0" d="M25.9,11L14.6,22.3L11,18.7c-0.3-0.3-0.7-0.3-1,0c-0.3,0.3-0.3,0.7,0,1l4.1,4.1c0.1,0.1,0.3,0.2,0.5,0.2
		s0.3-0.1,0.5-0.2l11.8-11.8c0.3-0.3,0.3-0.7,0-1C26.6,10.7,26.2,10.7,25.9,11z"/>
</g>
</svg>
