<?xml version="1.0" encoding="utf-8"?>
<!-- Generator: Adobe Illustrator 21.1.0, SVG Export Plug-In . SVG Version: 6.00 Build 0)  -->
<svg version="1.1" id="Иконки" xmlns="http://www.w3.org/2000/svg" xmlns:xlink="http://www.w3.org/1999/xlink" x="0px"
	 y="0px" viewBox="0 0 18.4 11.5" style="enable-background:new 0 0 18.4 11.5;" xml:space="preserve">
<path d="M17.2,0H1.2C0.5,0,0,0.5,0,1.2v9.2c0,0.6,0.5,1.2,1.2,1.2h16.1c0.6,0,1.2-0.5,1.2-1.2V1.2C18.4,0.5,17.8,0,17.2,0z M1.2,0.8
	h16.1c0.2,0,0.4,0.2,0.4,0.4v0.3L9.3,5L0.8,1.5V1.2C0.8,0.9,0.9,0.8,1.2,0.8z M17.2,10.8H1.2c-0.2,0-0.4-0.2-0.4-0.4v-8l8.6,3.4
	l8.3-3.5v8.1C17.6,10.6,17.4,10.8,17.2,10.8z"/>
</svg>
