<?xml version="1.0" encoding="utf-8"?>
<!-- Generator: Adobe Illustrator 21.1.0, SVG Export Plug-In . SVG Version: 6.00 Build 0)  -->
<svg version="1.1" id="Иконки" xmlns="http://www.w3.org/2000/svg" xmlns:xlink="http://www.w3.org/1999/xlink" x="0px"
	 y="0px" viewBox="0 0 13.1 18.9" style="enable-background:new 0 0 13.1 18.9;" xml:space="preserve">
<style type="text/css">
	.st0{clip-path:url(#SVGID_2_);}
</style>
<g>
	<g>
		<defs>
			<rect id="SVGID_1_" width="13.1" height="18.9"/>
		</defs>
		<clipPath id="SVGID_2_">
			<use xlink:href="#SVGID_1_"  style="overflow:visible;"/>
		</clipPath>
		<path class="st0" d="M6.5,4.1c-1.3,0-2.4,1.1-2.4,2.4c0,1.3,1.1,2.4,2.4,2.4c1.3,0,2.4-1.1,2.4-2.4C8.9,5.2,7.8,4.1,6.5,4.1
			L6.5,4.1z M6.5,8.2c-0.9,0-1.7-0.8-1.7-1.7c0-0.9,0.8-1.7,1.7-1.7c0.9,0,1.7,0.8,1.7,1.7C8.2,7.4,7.5,8.2,6.5,8.2L6.5,8.2z
			 M6.5,8.2"/>
		<path class="st0" d="M11.1,1.9C9.8,0.7,8.2,0,6.5,0C4.7,0,3.1,0.7,1.9,1.9C-0.4,4.2-0.6,8.5,1.3,11l5.2,7.5l5.2-7.5
			C13.6,8.5,13.3,4.2,11.1,1.9L11.1,1.9z M11.1,10.7l-4.6,6.7l-4.6-6.7C0.1,8.3,0.3,4.5,2.4,2.4c1.1-1.1,2.6-1.7,4.1-1.7
			c1.5,0,3,0.6,4.1,1.7C12.6,4.5,12.9,8.3,11.1,10.7L11.1,10.7z M11.1,10.7"/>
	</g>
</g>
</svg>
