<?xml version="1.0" encoding="utf-8"?>
<!-- Generator: Adobe Illustrator 21.1.0, SVG Export Plug-In . SVG Version: 6.00 Build 0)  -->
<svg version="1.1" id="Слой_1" xmlns="http://www.w3.org/2000/svg" xmlns:xlink="http://www.w3.org/1999/xlink" x="0px" y="0px"
	 viewBox="0 0 95.8 87.1" style="enable-background:new 0 0 95.8 87.1;" xml:space="preserve">
<path d="M19.6,29.5h16.8v42.9H19.6V29.5z M74,72.4H58.3V29.5H74V72.4z M39.3,72.4V29.5h16.1v42.9H39.3z M10.3,72.4
	c-0.8,0-1.5,0.6-1.5,1.5s0.6,1.5,1.5,1.5H85c0.8,0,1.5-0.7,1.5-1.5s-0.7-1.5-1.5-1.5h-8.1V29.5H85c0.8,0,1.5-0.6,1.5-1.5
	s-0.7-1.5-1.5-1.5H18.6c-0.1,0-0.3-0.1-0.4-0.1c-0.1,0-0.3,0-0.4,0.1h-7.5c-0.8,0-1.5,0.7-1.5,1.5s0.7,1.5,1.5,1.5h6.5v42.9H10.3z"
	/>
<path d="M93.8,84.2H1.5c-0.8,0-1.5,0.6-1.5,1.5s0.7,1.5,1.5,1.5h92.4c0.8,0,1.5-0.7,1.5-1.5S94.6,84.2,93.8,84.2z"/>
<path d="M95.1,26.6L48.9,0.2c-0.4-0.3-1-0.3-1.4,0L1,26.6c-0.7,0.4-0.9,1.3-0.5,2c0.3,0.5,0.8,0.7,1.3,0.7c0.2,0,0.5-0.1,0.7-0.2
	l45.8-26l45.5,26c0.7,0.4,1.6,0.2,2-0.5C96,27.9,95.8,27,95.1,26.6z"/>
</svg>
