<?xml version="1.0" encoding="utf-8"?>
<!-- Generator: Adobe Illustrator 21.1.0, SVG Export Plug-In . SVG Version: 6.00 Build 0)  -->
<svg version="1.1" id="Слой_1" xmlns="http://www.w3.org/2000/svg" xmlns:xlink="http://www.w3.org/1999/xlink" x="0px" y="0px"
	 viewBox="0 0 82.3 82.8" style="enable-background:new 0 0 82.3 82.8;" xml:space="preserve">
<g>
	<path d="M22.7,44.8c0.7-5.1,5.1-9,10.4-9c5.3,0,9.6,3.9,10.4,9H22.7z M33,32.8c-7.4,0-13.5,6-13.5,13.5c0,0.8,0.7,1.5,1.5,1.5H45
		c0.8,0,1.5-0.7,1.5-1.5C46.5,38.9,40.4,32.8,33,32.8z"/>
	<path d="M32.8,18.3c2.9,0,5.2,2.3,5.2,5.2c0,2.9-2.3,5.2-5.2,5.2c-2.8,0-5.2-2.3-5.2-5.2C27.6,20.7,30,18.3,32.8,18.3z M32.8,31.7
		c4.5,0,8.2-3.7,8.2-8.2c0-4.5-3.7-8.2-8.2-8.2c-4.5,0-8.2,3.7-8.2,8.2C24.6,28,28.3,31.7,32.8,31.7z"/>
	<path d="M74,79.2L60.5,65.7l4.7-4.7l13.5,13.5L74,79.2z M3,33C3,16.5,16.5,3,33,3s30,13.5,30,30S49.6,63,33,63S3,49.6,3,33z
		 M81.9,73.4L66.2,57.8c-0.3-0.3-0.7-0.4-1.1-0.4c0,0,0,0,0,0c-0.4,0-0.8,0.2-1.1,0.4l-2.6,2.6l-4.6-4.6C62.6,49.8,66,41.8,66,33
		C66,14.8,51.2,0,33,0C14.8,0,0,14.8,0,33c0,18.2,14.8,33,33,33c8.3,0,15.9-3.1,21.8-8.2l4.7,4.7l-2.2,2.2c-0.6,0.6-0.6,1.5,0,2.1
		l15.6,15.6c0.3,0.3,0.7,0.4,1.1,0.4c0.4,0,0.8-0.2,1.1-0.4l6.8-6.8c0.3-0.3,0.4-0.7,0.4-1.1C82.3,74.1,82.2,73.7,81.9,73.4z"/>
</g>
</svg>
