<?xml version="1.0" encoding="utf-8"?>
<!-- Generator: Adobe Illustrator 21.1.0, SVG Export Plug-In . SVG Version: 6.00 Build 0)  -->
<svg version="1.1" id="Слой_1" xmlns="http://www.w3.org/2000/svg" xmlns:xlink="http://www.w3.org/1999/xlink" x="0px" y="0px"
	 viewBox="0 0 87.8 87" style="enable-background:new 0 0 87.8 87;" xml:space="preserve">
<path d="M57,47.1c0.5-1.5,0.8-3.1,0.8-4.7V36c0-0.9-0.1-1.9-0.3-2.7c1.6-1,3.4-1.7,5.2-2.1c0.7-0.2,1.2-0.8,1.2-1.5v-5
	c0-0.6-0.3-1.1-0.8-1.3c-2.8-1.4-4.6-4.2-4.6-7.3v-4.8c0-4.5,3.7-8.2,8.2-8.2s8.2,3.7,8.2,8.2v4.8c0,3.1-1.9,6-4.7,7.4
	c-0.5,0.2-0.9,0.8-0.9,1.4v4.8c0,0.7,0.5,1.3,1.2,1.5c7.7,1.7,13.4,8.3,14.1,16L57,47.1z M48.3,52.6c-0.5,0.2-0.9,0.8-0.9,1.4v6.4
	c0,0.7,0.5,1.3,1.2,1.5C59.2,64.2,67,73.4,67.7,84.1H19.3c0.6-10.7,8.2-19.7,18.8-22.1c0.7-0.2,1.2-0.8,1.2-1.5v-6.6
	c0-0.6-0.3-1.1-0.8-1.3c-3.9-1.9-6.3-5.8-6.3-10.1v-6.4c0-6.3,5.1-11.3,11.3-11.3c6.2,0,11.3,5.1,11.3,11.3v6.3
	C54.8,46.7,52.3,50.7,48.3,52.6z M3,47.1c0.6-7.8,6.2-14.2,13.9-16c0.7-0.2,1.2-0.8,1.2-1.5v-5c0-0.6-0.3-1.1-0.8-1.3
	c-2.8-1.4-4.6-4.2-4.6-7.3v-4.8c0-4.5,3.7-8.2,8.2-8.2s8.2,3.7,8.2,8.2V16c0,3.1-1.9,6-4.7,7.4c-0.5,0.2-0.9,0.8-0.9,1.4v4.8
	c0,0.7,0.5,1.3,1.2,1.5c1.7,0.4,3.3,1,4.8,1.8c-0.2,1-0.3,2-0.3,3.1v6.4c0,1.6,0.3,3.2,0.8,4.7H3z M72.4,28.4v-2.7
	c3.4-2,5.6-5.7,5.6-9.7v-4.8C78,5,73,0,66.8,0S55.5,5,55.5,11.2V16c0,3.9,2,7.5,5.4,9.5v2.9c-1.5,0.4-2.9,1-4.3,1.8
	c-2.2-5.1-7.3-8.7-13.2-8.7c-5.8,0-10.7,3.4-13,8.4c-1.3-0.6-2.6-1.2-3.9-1.5v-2.7c3.4-2,5.6-5.7,5.6-9.7v-4.8C32.1,5,27.1,0,20.9,0
	S9.7,5,9.7,11.2V16c0,3.9,2,7.5,5.4,9.5v2.9C6.1,31,0,39.1,0,48.5C0,49.3,0.7,50,1.5,50h29.6c0.1,0,0.2,0,0.3,0
	c1.2,1.9,2.9,3.5,4.9,4.7v4.5c-11.9,3.2-20,13.9-20,26.3c0,0.8,0.7,1.5,1.5,1.5h51.5c0.8,0,1.5-0.7,1.5-1.5
	c0-12.3-8.5-23.2-20.3-26.3v-4.3c2.1-1.2,3.8-2.8,5.1-4.8h30.7c0.8,0,1.5-0.7,1.5-1.5C87.7,39.2,81.3,30.9,72.4,28.4z"/>
</svg>
