<?xml version="1.0" encoding="UTF-8"?><!DOCTYPE svg PUBLIC "-//W3C//DTD SVG 1.1//EN" "http://www.w3.org/Graphics/SVG/1.1/DTD/svg11.dtd"><svg xmlns="http://www.w3.org/2000/svg" xmlns:xlink="http://www.w3.org/1999/xlink"><defs>
        <path id="SVGID_1_" d="M0 0h22.8v25H0z"/>
    </defs><symbol id="icon-cancel" viewBox="0 0 475.2 475.2">
    <path d="M405.6 69.6C360.7 24.7 301.1 0 237.6 0s-123.1 24.7-168 69.6S0 174.1 0 237.6s24.7 123.1 69.6 168 104.5 69.6 168 69.6 123.1-24.7 168-69.6 69.6-104.5 69.6-168-24.7-123.1-69.6-168zm-19.1 316.9c-39.8 39.8-92.7 61.7-148.9 61.7s-109.1-21.9-148.9-61.7c-82.1-82.1-82.1-215.7 0-297.8C128.5 48.9 181.4 27 237.6 27s109.1 21.9 148.9 61.7c82.1 82.1 82.1 215.7 0 297.8z"/>
    <path d="M342.3 132.9c-5.3-5.3-13.8-5.3-19.1 0l-85.6 85.6-85.6-85.6c-5.3-5.3-13.8-5.3-19.1 0-5.3 5.3-5.3 13.8 0 19.1l85.6 85.6-85.6 85.6c-5.3 5.3-5.3 13.8 0 19.1 2.6 2.6 6.1 4 9.5 4s6.9-1.3 9.5-4l85.6-85.6 85.6 85.6c2.6 2.6 6.1 4 9.5 4 3.5 0 6.9-1.3 9.5-4 5.3-5.3 5.3-13.8 0-19.1l-85.4-85.6 85.6-85.6c5.3-5.3 5.3-13.8 0-19.1z"/>
</symbol><symbol id="icon-mouse" viewBox="0 0 217.5 332.8">
    <path d="M119.6 0H94.1C41.3 0 0 43 0 97.9v137c0 54.9 41.3 97.9 94.1 97.9h25.5c54 0 97.9-43.9 97.9-97.9v-137c0-54-43.9-97.9-97.9-97.9zm-11.8 51.3h2c3.1 0 5.6 2.5 5.6 5.6v39.9c0 3.1-2.5 5.6-5.6 5.6h-2c-3.1 0-5.6-2.5-5.6-5.6V56.9c0-3.1 2.5-5.6 5.6-5.6zm96.9 183.6c0 46.9-38.2 85.1-85.1 85.1H94.1c-45.6 0-81.3-37.4-81.3-85.1v-137c0-47.7 35.7-85.1 81.3-85.1h8.2v26.5c-7.5 2.3-12.9 9.3-12.9 17.6v39.9c0 8.2 5.4 15.2 12.9 17.6v32.9c0 3.5 2.9 6.4 6.4 6.4 3.5 0 6.4-2.9 6.4-6.4v-32.9c7.6-2.3 13.1-9.3 13.1-17.6V56.9c0-8.3-5.5-15.3-13.1-17.6V12.8h4.6c46.9 0 85.1 38.2 85.1 85.1v137zm0 0"/>
</symbol><symbol id="icon-play" viewBox="0 0 22.8 25">
    <style>
        .st0{clip-path:url(#SVGID_2_)}
    </style>
    
    <clipPath id="SVGID_2_">
        <use xlink:href="#SVGID_1_" overflow="visible"/>
    </clipPath>
    <path class="st0" d="M4 .5C1.8-.7 0 .3 0 2.9v19c0 2.6 1.8 3.6 4 2.3l16.6-9.5c2.2-1.3 2.2-3.4 0-4.6L4 .5zm0 0"/>
</symbol><symbol id="icon-player" viewBox="0 0 24 24">
    <path d="M16 11.5l-5-3.6c-.2-.1-.4-.2-.6-.1-.2.2-.4.4-.4.6v7.3c0 .2.1.4.3.5.1 0 .2.1.3.1.1 0 .2 0 .4-.1l5-3.6c.2-.1.3-.3.3-.5-.1-.3-.2-.4-.3-.6zm0 0"/>
    <path d="M12 0C5.4 0 0 5.4 0 12s5.4 12 12 12 12-5.4 12-12S18.7 0 12 0zm0 22C6.5 22 2 17.6 2 12 2 6.5 6.5 2 12 2s10 4.5 10 10c0 5.6-4.4 10-10 10zm0 0"/>
</symbol></svg>