<?xml version="1.0" encoding="utf-8"?>
<!-- Generator: Adobe Illustrator 22.0.1, SVG Export Plug-In . SVG Version: 6.00 Build 0)  -->
<svg version="1.1" id="Слой_1" xmlns="http://www.w3.org/2000/svg" xmlns:xlink="http://www.w3.org/1999/xlink" x="0px" y="0px"
	 viewBox="0 0 174 184" style="enable-background:new 0 0 174 184;" xml:space="preserve">
<style type="text/css">
	.st0{clip-path:url(#SVGID_2_);}
	.st1{fill:#4485E0;}
	.st1{fill: none; stroke: #4485E0;}
</style>
<g>
	<defs>
		<rect id="SVGID_1_" x="0.9" y="0.5" width="173" height="183"/>
	</defs>
	<clipPath id="SVGID_2_">
		<use xlink:href="#SVGID_1_"  style="overflow:visible;"/>
	</clipPath>
	<g class="st0">
		<path class="st1" d="M166.6,151.2l7,31.3l0.3,1.1H0.9l0.3-1.1l7-31.3c1.6-6.8,6.8-12.3,13.5-14.1l46.3-9.1V119l-1.3-0.8
			c-10.1-5.9-17.3-15.7-19.7-27.1l-0.2-0.7c-0.2-1.1-0.4-1.6-0.5-2.9l-0.2-3.3c0-0.6-0.1-1.1-0.1-1.7v-5.4c-4.5,0-8.2-3.7-8.2-8.2
			V50c0-27.3,22.2-49.5,49.5-49.5c27.3,0,49.5,22.2,49.5,49.5v18.9c0,4.5-3.7,8.2-8.2,8.2v5.4c0,0.6,0,1.1-0.1,1.7l-0.2,3
			c-0.2,1.9-0.4,2.8-0.5,3.4l-0.1,0.6c-2.4,11.3-9.6,21.2-19.7,27.1l-1.3,0.8v8.9l46.3,9.1C159.9,138.9,165.1,144.3,166.6,151.2z
			 M46.1,76.1V50.6h43.4c13.1,0,26.1-2.1,38.6-6.3l0.7-0.2v32c4,0,7.2-3.2,7.2-7.2V50c0-26.8-21.8-48.5-48.5-48.5S38.9,23.3,38.9,50
			v18.9C38.9,72.9,42.1,76.1,46.1,76.1z M127.8,64.2H93.2v2.6H81.6v-2.6H47.1V51.6h42.5c11.8,0,23.5-1.7,34.8-5l3.4-1V64.2z
			 M47.1,82.5V65.2h8.4v0.9h0v5c0,5.5,4.4,9.9,9.9,9.9h6.3c5.5,0,9.9-4.4,9.9-9.9v-3.3h11.6v3.3c0,5.5,4.4,9.9,9.9,9.9h6.3
			c5.5,0,9.9-4.4,9.9-9.9v-1.9h0v-4h8.4v17.4c0,22.2-18.1,40.3-40.3,40.3h0C65.2,122.9,47.1,104.8,47.1,82.5z M80.6,65.2v5.9
			c0,4.9-4,8.9-8.9,8.9h-6.3c-4.9,0-8.9-4-8.9-8.9v-5h0v-0.9H80.6z M94.2,65.2v5.9c0,4.9,4,8.9,8.9,8.9h6.3c4.9,0,8.9-4,8.9-8.9
			v-1.9h0v-4H94.2z M105.8,128v-8.3l-3.6,1.4c-4.8,1.8-9.8,2.8-14.8,2.8s-10-0.9-14.8-2.8l-3.6-1.4v8.3l18.4,18.1L105.8,128z
			 M9.2,151.4l-7,31.1h170.4l-7-31.1c-1.5-6.5-6.4-11.6-12.8-13.4l-46.4-9.2l-19,18.7l-19-18.7L22,138
			C15.6,139.8,10.7,144.9,9.2,151.4z"/>
	</g>
</g>
</svg>
