<?xml version="1.0" encoding="utf-8"?>
<!-- Generator: Adobe Illustrator 22.0.1, SVG Export Plug-In . SVG Version: 6.00 Build 0)  -->
<svg version="1.1" id="Слой_1" xmlns="http://www.w3.org/2000/svg" xmlns:xlink="http://www.w3.org/1999/xlink" x="0px" y="0px"
	 viewBox="0 0 186 191" style="enable-background:new 0 0 186 191;" xml:space="preserve">
<style type="text/css">
	.st0{clip-path:url(#SVGID_2_);}
	.st1{fill:#4485E0;}
	.st1{fill: none; stroke: #4485E0;}
	.st2{clip-path:url(#SVGID_4_);}
	.st3{clip-path:url(#SVGID_6_);}
</style>
<g>
	<defs>
		<rect id="SVGID_1_" x="-977" y="-444" width="1920" height="1080"/>
	</defs>
	<clipPath id="SVGID_2_">
		<use xlink:href="#SVGID_1_"  style="overflow:visible;"/>
	</clipPath>
	<g class="st0">
		<path class="st1" d="M57.5,76c-5,0-9-4-9-9c0-4.9,4-9,9-9c5,0,9,4,9,9C66.5,71.9,62.5,76,57.5,76 M57.5,57c-5.5,0-10,4.5-10,10
			c0,5.5,4.5,10,10,10c5.5,0,10-4.5,10-10C67.5,61.4,63,57,57.5,57"/>
	</g>
</g>
<g>
	<defs>
		<rect id="SVGID_3_" x="-977" y="-444" width="1920" height="1080"/>
	</defs>
	<clipPath id="SVGID_4_">
		<use xlink:href="#SVGID_3_"  style="overflow:visible;"/>
	</clipPath>
	<g class="st2">
		<path class="st1" d="M146.6,149.7c-0.1,0.1-0.2,0.1-0.4,0.1h-12.7c-0.1,0-0.3-0.1-0.4-0.2c-0.1-0.1-0.1-0.2-0.1-0.4v-19
			c0-3.8,3.1-6.8,6.9-6.9c3.8,0,6.8,3.1,6.8,6.8v19C146.7,149.4,146.6,149.6,146.6,149.7z M139.9,124.5c-3.2,0-5.8,2.6-5.8,5.8v18.5
			h11.6v-18.5C145.7,127.1,143.1,124.5,139.9,124.5z"/>
	</g>
</g>
<g>
	<defs>
		<rect id="SVGID_5_" x="-977" y="-444" width="1920" height="1080"/>
	</defs>
	<clipPath id="SVGID_6_">
		<use xlink:href="#SVGID_5_"  style="overflow:visible;"/>
	</clipPath>
	<g class="st3">
		<path class="st1" d="M181.5,189.4h2.6c0.3,0,0.5,0.2,0.5,0.5c0,0.3-0.2,0.5-0.5,0.5H0.5c-0.3,0-0.5-0.2-0.5-0.5
			c0-0.3,0.2-0.5,0.5-0.5h5.8v-12.7h6.3v-87h-9c-0.2,0-0.4-0.1-0.5-0.3c-0.1-0.2,0-0.4,0.1-0.6l28.4-27.6H13.2
			c-6.8,0-12.5-5.1-13.1-11.9C-0.6,42.5,4,36.4,10.7,35.2l1.9-0.4l0.2-1.9c1.3-9.7,9.6-17,19.4-17c9.8,0,18.1,7.3,19.4,17l0.3,2.1
			c1.2,0.1,3.7,0.3,5.3,1.7l0.7-0.7h0l0.8-0.7l0,0V1h1v4.8h24.8v0.8l-7.7,7.7l7.7,7.7v0.8H59.6v12.1h69.3l2.7,2.6l52.9,51.4
			c0.2,0.1,0.2,0.4,0.1,0.6c-0.1,0.2-0.3,0.3-0.5,0.3h-9v87h6.3v3.7c0,0,0,0,0,0V189.4z M82.8,6.8l-7.5,7.5l7.5,7.5H59.6v-15H82.8z
			 M13.2,60.3C6.5,60.3,1,54.8,1,48.1S6.5,36,13.2,36c0.1,0,0.3-0.1,0.4-0.2c0.1-0.1,0.2-0.2,0.2-0.4C13.7,25.2,22,17,32.2,17
			c10.2,0,18.5,8.3,18.5,18.5c0,0.1,0.1,0.3,0.2,0.4s0.2,0.2,0.4,0.2h0c0.1,0,3.3-0.1,5.2,1.4L32.8,60.3H13.2z M182.9,88.8L128.6,36
			H60.4l54.4,52.8H182.9z M59.1,36.2L5,88.8h108.3L59.1,36.2z M104.5,104.6H13.7V89.8h90.8V104.6z M174.2,104.6h-68.6V89.8h68.6
			V104.6z M25.3,164v12.8H15.2l-1.5,0v-71.1h11.6v12.5h3.2V164H25.3z M26.4,117.1h18v-7l0-4.5h-18V117.1z M42.2,164h3.2v8.1h0v4.7
			h27.5v-9c0,0,0,0,0,0V164H76v-45.8h-3.2v-3.5c0,0,0,0,0,0v-9H45.4v4.5h0v8.1h-3.2V164z M91.8,117.1h-18v-7h0v-4.5h18l0,5.9V117.1z
			 M92.9,164h-3.2v-45.8h3.2v-8.1h0v-4.5h11.6v71.1H92.9V172h0V164z M174.2,105.6v71.1h-68.6v-71.1H174.2z M41.2,118.2V164H29.5
			v-45.8H41.2z M88.7,164v-45.8H77V164H88.7z M26.4,165v11.8h18v-11.5h0V165H26.4z M73.9,172L73.9,172l0-7h18v0.3c0,0,0,0,0,0v11.5
			h-18V172z M110.8,189.4H7.4v-11.6h103.5V189.4z M180.5,189.4h-68.6v-11.6h68.6v6.9h0V189.4z"/>
	</g>
</g>
</svg>
