<?xml version="1.0" encoding="utf-8"?>
<!-- Generator: Adobe Illustrator 22.0.1, SVG Export Plug-In . SVG Version: 6.00 Build 0)  -->
<svg version="1.1" id="Слой_1" xmlns="http://www.w3.org/2000/svg" xmlns:xlink="http://www.w3.org/1999/xlink" x="0px" y="0px"
	 viewBox="0 0 188 190" style="enable-background:new 0 0 188 190;" xml:space="preserve">
<style type="text/css">
	.st0{clip-path:url(#SVGID_2_);}
	.st1{fill:#4485E0;}
	.st1{fill: none; stroke: #4485E0;}
	.st2{clip-path:url(#SVGID_4_);}
	.st3{clip-path:url(#SVGID_6_);}
	.st4{clip-path:url(#SVGID_8_);}
	.st5{clip-path:url(#SVGID_10_);}
	.st6{clip-path:url(#SVGID_12_);}
	.st7{clip-path:url(#SVGID_14_);}
	.st8{clip-path:url(#SVGID_16_);}
</style>
<g>
	<defs>
		<rect id="SVGID_1_" x="-628" y="-445" width="1920" height="1080"/>
	</defs>
	<clipPath id="SVGID_2_">
		<use xlink:href="#SVGID_1_"  style="overflow:visible;"/>
	</clipPath>
	<g class="st0">
		<path class="st1" d="M68.8,24h50v-1h-50V24z"/>
	</g>
</g>
<g>
	<defs>
		<rect id="SVGID_3_" x="-628" y="-445" width="1920" height="1080"/>
	</defs>
	<clipPath id="SVGID_4_">
		<use xlink:href="#SVGID_3_"  style="overflow:visible;"/>
	</clipPath>
	<g class="st2">
		<path class="st1" d="M87,164.3h78.8v-1H87V164.3z"/>
	</g>
</g>
<g>
	<defs>
		<rect id="SVGID_5_" x="-628" y="-445" width="1920" height="1080"/>
	</defs>
	<clipPath id="SVGID_6_">
		<use xlink:href="#SVGID_5_"  style="overflow:visible;"/>
	</clipPath>
	<g class="st3">
		<path class="st1" d="M113.2,144.5h52.6v-1h-52.6V144.5z"/>
	</g>
</g>
<g>
	<defs>
		<rect id="SVGID_7_" x="-628" y="-445" width="1920" height="1080"/>
	</defs>
	<clipPath id="SVGID_8_">
		<use xlink:href="#SVGID_7_"  style="overflow:visible;"/>
	</clipPath>
	<g class="st4">
		<path class="st1" d="M113.2,124.7h52.6v-1h-52.6V124.7z"/>
	</g>
</g>
<g>
	<defs>
		<rect id="SVGID_9_" x="-628" y="-445" width="1920" height="1080"/>
	</defs>
	<clipPath id="SVGID_10_">
		<use xlink:href="#SVGID_9_"  style="overflow:visible;"/>
	</clipPath>
	<g class="st5">
		<path class="st1" d="M113.2,104.9h52.6v-1h-52.6V104.9z"/>
	</g>
</g>
<g>
	<defs>
		<rect id="SVGID_11_" x="-628" y="-445" width="1920" height="1080"/>
	</defs>
	<clipPath id="SVGID_12_">
		<use xlink:href="#SVGID_11_"  style="overflow:visible;"/>
	</clipPath>
	<g class="st6">
		<path class="st1" d="M113.2,84.1L113.2,84.1v1h52.6v-1H113.2z"/>
	</g>
</g>
<g>
	<defs>
		<rect id="SVGID_13_" x="-628" y="-445" width="1920" height="1080"/>
	</defs>
	<clipPath id="SVGID_14_">
		<use xlink:href="#SVGID_13_"  style="overflow:visible;"/>
	</clipPath>
	<g class="st7">
		<path class="st1" d="M113.2,65.3h52.6v-1h-52.6V65.3z"/>
	</g>
</g>
<g>
	<defs>
		<rect id="SVGID_15_" x="0" width="187.3" height="190"/>
	</defs>
	<clipPath id="SVGID_16_">
		<use xlink:href="#SVGID_15_"  style="overflow:visible;"/>
	</clipPath>
	<g class="st8">
		<path class="st1" d="M46.8,0h92.7l47.8,47.8V190H46.8v-35.9c-26.3,0-46.8-6.3-46.8-14.3V123c0-3.2,3.3-6.2,9.4-8.7
			c-5.9-2.4-9.4-5.4-9.4-8.7V88.9c0-3.2,3.3-6.2,9.5-8.7c-6-2.4-9.5-5.4-9.5-8.7V54.7c0-8,20.6-14.3,46.8-14.3V0z M186.3,189H47.8
			v-34.9c25.8-0.2,45.8-6.4,45.8-14.3V123c0-3.2-3.3-6.2-9.4-8.7c5.9-2.4,9.4-5.4,9.4-8.7V88.9c0-3.2-3.3-6.2-9.5-8.7
			c6-2.4,9.5-5.4,9.5-8.7V54.7c0-7.9-20.1-14.2-45.8-14.3V1h91.3l0.2,0.2V48h46.8l0.2,0.2V189z M140.3,2.4L184.9,47h-44.6V2.4z
			 M92.7,54.7c0-7.2-21-13.3-45.8-13.3S1,47.5,1,54.7C1,62,22,68.1,46.8,68.1S92.7,62,92.7,54.7z M1,71.5V57.8
			c0.1,0.2,0.3,0.4,0.4,0.6c0,0,0,0,0,0.1C1.6,58.6,1.8,58.8,2,59c0.1,0.1,0.1,0.1,0.2,0.2c0.1,0.1,0.3,0.3,0.5,0.4
			c0.1,0.1,0.2,0.2,0.3,0.2c0.2,0.1,0.3,0.3,0.5,0.4c0.1,0.1,0.2,0.2,0.3,0.3c0.2,0.1,0.3,0.2,0.5,0.4C4.5,61,4.6,61,4.7,61.1
			c0.2,0.1,0.4,0.2,0.6,0.4c0.1,0.1,0.3,0.2,0.4,0.2c0.2,0.1,0.5,0.3,0.7,0.4c0.1,0.1,0.2,0.1,0.4,0.2c0.4,0.2,0.7,0.4,1.1,0.5
			c0.1,0,0.2,0.1,0.2,0.1c0.3,0.1,0.6,0.3,1,0.4c0.2,0.1,0.3,0.1,0.5,0.2c0.3,0.1,0.5,0.2,0.8,0.3c0.2,0.1,0.4,0.1,0.6,0.2
			c0.3,0.1,0.5,0.2,0.8,0.3c0.2,0.1,0.4,0.1,0.6,0.2c0.3,0.1,0.6,0.2,0.9,0.3c0.2,0.1,0.4,0.1,0.6,0.2c0.3,0.1,0.6,0.2,0.9,0.3
			c0.2,0.1,0.4,0.1,0.6,0.2c0.4,0.1,0.7,0.2,1.1,0.3c0.2,0,0.3,0.1,0.5,0.1c0.5,0.1,1.1,0.3,1.6,0.4c0.1,0,0.3,0.1,0.5,0.1
			c0.4,0.1,0.8,0.2,1.3,0.3c0.2,0,0.4,0.1,0.7,0.1c0.4,0.1,0.7,0.1,1.1,0.2c0.2,0,0.5,0.1,0.7,0.1c0.4,0.1,0.7,0.1,1.1,0.2
			c0.3,0,0.5,0.1,0.8,0.1c0.4,0.1,0.8,0.1,1.1,0.2c0.3,0,0.5,0.1,0.8,0.1c0.4,0.1,0.8,0.1,1.3,0.2c0.2,0,0.5,0.1,0.7,0.1
			c0.5,0.1,1.1,0.1,1.6,0.2c0.1,0,0.2,0,0.4,0c0.7,0.1,1.4,0.1,2.1,0.2c0.2,0,0.4,0,0.6,0.1c0.5,0,1,0.1,1.5,0.1
			c0.3,0,0.5,0,0.8,0.1c0.4,0,0.9,0.1,1.3,0.1c0.3,0,0.6,0,0.9,0.1c0.4,0,0.9,0,1.3,0.1c0.3,0,0.6,0,0.9,0c0.5,0,0.9,0,1.4,0.1
			c0.3,0,0.6,0,0.9,0c0.5,0,1,0,1.5,0c0.2,0,0.5,0,0.7,0c0.8,0,1.5,0,2.3,0s1.5,0,2.3,0c0.2,0,0.5,0,0.7,0c0.5,0,1,0,1.5,0
			c0.3,0,0.6,0,0.9,0c0.5,0,0.9,0,1.4-0.1c0.3,0,0.6,0,0.9,0c0.4,0,0.9,0,1.3-0.1c0.3,0,0.6,0,0.9-0.1c0.4,0,0.9-0.1,1.3-0.1
			c0.3,0,0.5,0,0.8-0.1c0.5,0,1-0.1,1.5-0.1c0.2,0,0.4,0,0.6-0.1c0.7-0.1,1.4-0.1,2.1-0.2c0.1,0,0.2,0,0.4,0
			c0.5-0.1,1.1-0.1,1.6-0.2c0.2,0,0.5-0.1,0.7-0.1c0.4-0.1,0.8-0.1,1.3-0.2c0.3,0,0.5-0.1,0.8-0.1c0.4-0.1,0.8-0.1,1.1-0.2
			c0.3,0,0.5-0.1,0.8-0.1c0.4-0.1,0.7-0.1,1.1-0.2c0.2,0,0.5-0.1,0.7-0.1c0.4-0.1,0.7-0.1,1.1-0.2c0.2,0,0.5-0.1,0.7-0.1
			c0.4-0.1,0.8-0.2,1.3-0.3c0.2,0,0.3-0.1,0.5-0.1c0.6-0.1,1.1-0.3,1.6-0.4c0.2,0,0.3-0.1,0.5-0.1c0.4-0.1,0.8-0.2,1.1-0.3
			c0.2-0.1,0.4-0.1,0.6-0.2c0.3-0.1,0.6-0.2,0.9-0.3c0.2-0.1,0.4-0.1,0.6-0.2c0.3-0.1,0.6-0.2,0.9-0.3c0.2-0.1,0.4-0.1,0.6-0.2
			c0.3-0.1,0.5-0.2,0.8-0.3c0.2-0.1,0.4-0.1,0.6-0.2c0.3-0.1,0.6-0.2,0.8-0.3c0.2-0.1,0.3-0.1,0.5-0.2c0.3-0.1,0.7-0.3,1-0.4
			c0.1,0,0.2-0.1,0.2-0.1c0.4-0.2,0.8-0.4,1.1-0.5c0.1-0.1,0.2-0.1,0.4-0.2c0.2-0.1,0.5-0.3,0.7-0.4c0.1-0.1,0.3-0.2,0.4-0.2
			c0.2-0.1,0.4-0.2,0.6-0.4c0.1-0.1,0.3-0.2,0.4-0.2c0.2-0.1,0.4-0.2,0.5-0.4c0.1-0.1,0.2-0.2,0.3-0.3c0.2-0.1,0.3-0.2,0.5-0.4
			c0.1-0.1,0.2-0.2,0.3-0.2c0.2-0.1,0.3-0.3,0.5-0.4c0.1-0.1,0.2-0.1,0.2-0.2c0.2-0.2,0.4-0.4,0.6-0.6c0,0,0,0,0-0.1
			c0.1-0.2,0.3-0.4,0.4-0.6v13.7c0,6.8-18.4,12.5-41.1,13.3c-0.3,0-0.5,0-0.8,0c-0.5,0-1,0-1.5,0c-0.8,0-1.6,0-2.4,0s-1.6,0-2.4,0
			c-0.5,0-1,0-1.5,0c-0.3,0-0.5,0-0.8,0C19.4,84,1,78.2,1,71.5z M44,85.8c-13.5-0.2-25.2-2.1-33.2-5C4.5,83.1,1,86,1,88.9
			c0,7.2,21,13.3,45.8,13.3s45.8-6.1,45.8-13.3c0-2.9-3.5-5.8-9.8-8.2c-8,2.9-19.7,4.8-33.2,5c-0.1,0-0.2,0-0.2,0
			c-0.9,0-1.7,0-2.6,0s-1.7,0-2.6,0C44.2,85.8,44.1,85.8,44,85.8z M1,105.6V91.9c0.1,0.2,0.3,0.4,0.4,0.6c0,0,0,0,0,0
			c0.2,0.2,0.4,0.4,0.6,0.6c0.1,0.1,0.1,0.1,0.2,0.2c0.1,0.1,0.3,0.3,0.5,0.4C2.8,93.9,2.9,94,3,94c0.2,0.1,0.3,0.3,0.5,0.4
			c0.1,0.1,0.2,0.2,0.3,0.2C4,94.8,4.2,94.9,4.3,95c0.1,0.1,0.2,0.2,0.4,0.2c0.2,0.1,0.4,0.2,0.6,0.4c0.1,0.1,0.3,0.2,0.4,0.2
			c0.2,0.1,0.5,0.3,0.7,0.4c0.1,0.1,0.2,0.1,0.4,0.2c0.4,0.2,0.7,0.4,1.1,0.5C8,97,8.1,97,8.1,97.1c0.3,0.1,0.6,0.3,0.9,0.4
			c0.2,0.1,0.3,0.1,0.5,0.2c0.3,0.1,0.5,0.2,0.8,0.3c0.2,0.1,0.4,0.1,0.6,0.2c0.3,0.1,0.5,0.2,0.8,0.3c0.2,0.1,0.4,0.1,0.6,0.2
			c0.3,0.1,0.6,0.2,0.8,0.3c0.2,0.1,0.4,0.1,0.6,0.2c0.3,0.1,0.6,0.2,0.9,0.3c0.2,0.1,0.4,0.1,0.6,0.2c0.4,0.1,0.7,0.2,1.1,0.3
			c0.2,0,0.3,0.1,0.5,0.1c0.5,0.1,1.1,0.3,1.6,0.4c0.2,0,0.3,0.1,0.5,0.1c0.4,0.1,0.8,0.2,1.2,0.3c0.2,0,0.5,0.1,0.7,0.1
			c0.4,0.1,0.7,0.1,1.1,0.2c0.3,0,0.5,0.1,0.8,0.1c0.4,0.1,0.7,0.1,1.1,0.2c0.3,0,0.5,0.1,0.8,0.1c0.4,0.1,0.8,0.1,1.1,0.2
			c0.3,0,0.5,0.1,0.8,0.1c0.4,0.1,0.8,0.1,1.2,0.2c0.2,0,0.5,0.1,0.7,0.1c0.5,0.1,1.1,0.1,1.6,0.2c0.1,0,0.3,0,0.4,0.1
			c0.7,0.1,1.4,0.1,2,0.2c0.2,0,0.4,0,0.6,0.1c0.5,0,1,0.1,1.5,0.1c0.3,0,0.5,0,0.8,0.1c0.4,0,0.9,0.1,1.3,0.1c0.3,0,0.6,0,0.9,0.1
			c0.4,0,0.9,0,1.3,0.1c0.3,0,0.6,0,0.9,0c0.5,0,0.9,0,1.4,0.1c0.3,0,0.6,0,0.9,0c0.5,0,1,0,1.5,0c0.2,0,0.5,0,0.7,0
			c0.8,0,1.5,0,2.3,0s1.5,0,2.3,0c0.2,0,0.5,0,0.7,0c0.5,0,1,0,1.5,0c0.3,0,0.6,0,0.9,0c0.5,0,0.9,0,1.4-0.1c0.3,0,0.6,0,0.9,0
			c0.4,0,0.9,0,1.3-0.1c0.3,0,0.6,0,0.9-0.1c0.4,0,0.9-0.1,1.3-0.1c0.3,0,0.6,0,0.8-0.1c0.5,0,1-0.1,1.5-0.1c0.2,0,0.4,0,0.6-0.1
			c0.7-0.1,1.4-0.1,2-0.2c0.1,0,0.3,0,0.4-0.1c0.5-0.1,1.1-0.1,1.6-0.2c0.3,0,0.5-0.1,0.7-0.1c0.4-0.1,0.8-0.1,1.2-0.2
			c0.3,0,0.5-0.1,0.8-0.1c0.4-0.1,0.8-0.1,1.1-0.2c0.3,0,0.5-0.1,0.8-0.1c0.4-0.1,0.7-0.1,1.1-0.2c0.3,0,0.5-0.1,0.8-0.1
			c0.4-0.1,0.7-0.1,1.1-0.2c0.2,0,0.5-0.1,0.7-0.1c0.4-0.1,0.8-0.2,1.2-0.3c0.2,0,0.3-0.1,0.5-0.1c0.6-0.1,1.1-0.3,1.6-0.4
			c0.2,0,0.3-0.1,0.5-0.1c0.4-0.1,0.7-0.2,1.1-0.3c0.2-0.1,0.4-0.1,0.6-0.2c0.3-0.1,0.6-0.2,0.9-0.3c0.2-0.1,0.4-0.1,0.6-0.2
			c0.3-0.1,0.6-0.2,0.8-0.3c0.2-0.1,0.4-0.1,0.6-0.2c0.3-0.1,0.5-0.2,0.8-0.3c0.2-0.1,0.4-0.1,0.6-0.2c0.3-0.1,0.5-0.2,0.8-0.3
			c0.2-0.1,0.3-0.1,0.5-0.2c0.3-0.1,0.6-0.3,0.9-0.4c0.1,0,0.2-0.1,0.3-0.1c0.4-0.2,0.8-0.4,1.1-0.5c0.1-0.1,0.2-0.1,0.4-0.2
			c0.2-0.1,0.5-0.2,0.7-0.4c0.1-0.1,0.3-0.2,0.4-0.2c0.2-0.1,0.4-0.2,0.6-0.4c0.1-0.1,0.3-0.2,0.4-0.2c0.2-0.1,0.4-0.2,0.5-0.4
			c0.1-0.1,0.2-0.2,0.3-0.2c0.2-0.1,0.3-0.3,0.5-0.4c0.1-0.1,0.2-0.2,0.3-0.2c0.2-0.1,0.3-0.3,0.5-0.4c0.1-0.1,0.1-0.1,0.2-0.2
			c0.2-0.2,0.4-0.4,0.6-0.6c0,0,0,0,0,0c0.2-0.2,0.3-0.4,0.4-0.6v13.7c0,5.6-12.6,10.5-29.8,12.5c-0.2,0-0.4,0-0.6,0.1
			c-0.2,0-0.5,0.1-0.7,0.1c-4.7,0.5-9.6,0.7-14.7,0.7s-10-0.2-14.7-0.7c-0.2,0-0.5,0-0.7-0.1c-0.2,0-0.4,0-0.6-0.1
			C13.6,116.1,1,111.2,1,105.6z M46.8,119.9c-14.6,0-27.5-2-36-5.1C4.5,117.2,1,120.1,1,123c0,7.2,21,13.3,45.8,13.3
			s45.8-6.1,45.8-13.3c0-2.9-3.5-5.8-9.8-8.2C74.3,118,61.5,119.9,46.8,119.9z M1,139.7V126c0.1,0.2,0.3,0.4,0.4,0.6c0,0,0,0,0,0
			c0.2,0.2,0.4,0.4,0.6,0.6c0.1,0.1,0.1,0.1,0.2,0.2c0.2,0.2,0.3,0.3,0.5,0.4c0.1,0.1,0.2,0.2,0.3,0.2c0.2,0.1,0.3,0.3,0.5,0.4
			c0.1,0.1,0.2,0.2,0.3,0.2c0.2,0.1,0.4,0.3,0.5,0.4c0.1,0.1,0.2,0.2,0.3,0.2c0.2,0.1,0.4,0.3,0.6,0.4c0.1,0.1,0.2,0.1,0.4,0.2
			c0.2,0.1,0.5,0.3,0.8,0.4c0.1,0.1,0.2,0.1,0.3,0.2c0.4,0.2,0.7,0.4,1.1,0.6c0,0,0.1,0,0.1,0c0.4,0.2,0.7,0.3,1.1,0.5
			c0.1,0.1,0.3,0.1,0.4,0.2c0.3,0.1,0.6,0.2,0.9,0.3c0.2,0.1,0.3,0.1,0.5,0.2c0.3,0.1,0.6,0.2,0.9,0.3c0.2,0.1,0.4,0.1,0.6,0.2
			c0.3,0.1,0.6,0.2,0.9,0.3c0.2,0.1,0.4,0.1,0.6,0.2c0.3,0.1,0.7,0.2,1,0.3c0.2,0,0.4,0.1,0.5,0.2c0.4,0.1,0.8,0.2,1.2,0.3
			c0.1,0,0.2,0.1,0.4,0.1c0.5,0.1,1.1,0.3,1.7,0.4c0.1,0,0.2,0.1,0.4,0.1c0.4,0.1,0.9,0.2,1.4,0.3c0.2,0,0.4,0.1,0.6,0.1
			c0.4,0.1,0.8,0.2,1.2,0.2c0.2,0,0.5,0.1,0.7,0.1c0.4,0.1,0.8,0.1,1.1,0.2c0.2,0,0.5,0.1,0.7,0.1c0.4,0.1,0.8,0.1,1.2,0.2
			c0.2,0,0.5,0.1,0.7,0.1c0.4,0.1,0.9,0.1,1.3,0.2c0.2,0,0.5,0.1,0.7,0.1c0.6,0.1,1.1,0.1,1.7,0.2c0.1,0,0.2,0,0.3,0
			c0.7,0.1,1.4,0.1,2.1,0.2c0.2,0,0.4,0,0.6,0.1c0.5,0,1,0.1,1.5,0.1c0.3,0,0.5,0,0.8,0.1c0.5,0,0.9,0.1,1.4,0.1
			c0.3,0,0.6,0,0.9,0.1c0.4,0,0.9,0.1,1.3,0.1c0.3,0,0.6,0,0.9,0c0.5,0,0.9,0,1.4,0.1c0.3,0,0.6,0,0.9,0c0.5,0,1,0,1.5,0
			c0.2,0,0.5,0,0.7,0c0.8,0,1.5,0,2.3,0s1.5,0,2.3,0c0.2,0,0.5,0,0.7,0c0.5,0,1,0,1.5,0c0.3,0,0.6,0,0.9,0c0.5,0,0.9,0,1.4-0.1
			c0.3,0,0.6,0,0.9,0c0.5,0,0.9,0,1.3-0.1c0.3,0,0.6,0,0.9-0.1c0.5,0,0.9-0.1,1.4-0.1c0.3,0,0.5,0,0.8-0.1c0.5,0,1-0.1,1.5-0.1
			c0.2,0,0.4,0,0.6-0.1c0.7-0.1,1.4-0.1,2.1-0.2c0.1,0,0.2,0,0.3,0c0.6-0.1,1.1-0.1,1.7-0.2c0.2,0,0.5-0.1,0.7-0.1
			c0.4-0.1,0.9-0.1,1.3-0.2c0.3,0,0.5-0.1,0.7-0.1c0.4-0.1,0.8-0.1,1.2-0.2c0.2,0,0.5-0.1,0.7-0.1c0.4-0.1,0.8-0.1,1.1-0.2
			c0.2,0,0.5-0.1,0.7-0.1c0.4-0.1,0.8-0.2,1.2-0.2c0.2,0,0.4-0.1,0.6-0.1c0.5-0.1,0.9-0.2,1.4-0.3c0.1,0,0.2,0,0.4-0.1
			c0.6-0.1,1.1-0.3,1.7-0.4c0.1,0,0.2-0.1,0.4-0.1c0.4-0.1,0.8-0.2,1.2-0.3c0.2-0.1,0.4-0.1,0.5-0.2c0.3-0.1,0.7-0.2,1-0.3
			c0.2-0.1,0.4-0.1,0.6-0.2c0.3-0.1,0.6-0.2,0.9-0.3c0.2-0.1,0.4-0.1,0.6-0.2c0.3-0.1,0.6-0.2,0.9-0.3c0.2-0.1,0.3-0.1,0.5-0.2
			c0.3-0.1,0.6-0.2,0.9-0.3c0.1-0.1,0.3-0.1,0.4-0.2c0.4-0.2,0.8-0.3,1.1-0.5c0,0,0.1,0,0.1,0c0.4-0.2,0.8-0.4,1.1-0.6
			c0.1-0.1,0.2-0.1,0.3-0.2c0.3-0.1,0.5-0.3,0.8-0.4c0.1-0.1,0.2-0.1,0.4-0.2c0.2-0.1,0.4-0.3,0.6-0.4c0.1-0.1,0.2-0.2,0.3-0.2
			c0.2-0.1,0.4-0.3,0.5-0.4c0.1-0.1,0.2-0.2,0.3-0.2c0.2-0.1,0.3-0.3,0.5-0.4c0.1-0.1,0.2-0.2,0.3-0.2c0.2-0.1,0.3-0.3,0.5-0.4
			c0.1-0.1,0.1-0.1,0.2-0.2c0.2-0.2,0.4-0.4,0.6-0.6c0,0,0,0,0,0c0.2-0.2,0.3-0.4,0.4-0.6v13.7c0,7.2-21,13.3-45.8,13.3
			S1,147,1,139.7z"/>
	</g>
</g>
</svg>
