<svg xmlns="http://www.w3.org/2000/svg" viewBox="0 0 23.06 17.95"><defs><style>.cls-1{fill:#1b1b1b;}</style></defs><title>shopping</title><g id="Layer_2" data-name="Layer 2"><g id="Layer_1-2" data-name="Layer 1"><path class="cls-1" d="M23,4l-2.7,8.4a1.41,1.41,0,0,1-1.4,1H8.6a1.57,1.57,0,0,1-1.4-.9L3.3,2H1A1,1,0,0,1,0,1,1.17,1.17,0,0,1,1,0H4a1,1,0,0,1,.9.7L9,11.5h9.5l2.1-6.7H5.8a1,1,0,0,1-1-1,1.17,1.17,0,0,1,1-1H21.9a1.23,1.23,0,0,1,.8.4A.58.58,0,0,1,23,4Z"/><path class="cls-1" d="M9.2,14.7a1.61,1.61,0,0,0-1.1.5,1.63,1.63,0,1,0,2.3,2.3h0a1.69,1.69,0,0,0,0-2.3A2.08,2.08,0,0,0,9.2,14.7Z"/><path class="cls-1" d="M18.1,14.7a1.61,1.61,0,0,0-1.1.5,1.63,1.63,0,1,0,2.3,2.3h0a1.69,1.69,0,0,0,0-2.3,1.66,1.66,0,0,0-1.2-.5Z"/></g></g></svg>