<?xml version="1.0" encoding="iso-8859-1"?>
<svg version="1.1" id="Capa_1" xmlns="http://www.w3.org/2000/svg" xmlns:xlink="http://www.w3.org/1999/xlink" x="0px" y="0px"
	 viewBox="0 0 10 17">
    <path d="M7.27984 12.6078C7.21197 12.5367 7.11018 12.5012 7.11018 12.3945C7.14411 12.3234 7.2459 12.3234 7.3477 12.3234C8.12816 12.11 8.84076 11.79 9.51941 11.3278C9.96054 11.0078 10.1302 10.3322 9.89267 9.79888C9.58727 9.08776 8.77289 8.83886 8.12816 9.26554C7.31377 9.79888 6.46545 10.0478 5.51533 10.0833C4.49734 10.1189 3.54722 9.79888 2.66496 9.26554C2.0881 8.90998 1.34158 9.08776 1.00225 9.69221C0.662923 10.2967 0.832587 11.0433 1.40945 11.4345C1.85057 11.7189 2.2917 11.9323 2.76676 12.1456C3.07216 12.2523 3.41149 12.3589 3.75082 12.4656C3.68295 12.5367 3.64901 12.5723 3.61508 12.6078C2.90249 13.3545 2.1899 14.1012 1.51125 14.8123C1.13798 15.2034 1.03618 15.7368 1.23978 16.2345C1.57911 17.0523 2.56316 17.2657 3.17396 16.6257C3.88655 15.879 4.59913 15.1323 5.31173 14.3856C5.41352 14.279 5.4814 14.279 5.58319 14.3856C6.26185 15.0968 6.97445 15.8434 7.6531 16.5546C8.02637 16.9457 8.53536 17.0879 9.01042 16.8746C9.82481 16.519 10.0284 15.4523 9.38367 14.7767C8.63715 14.0301 7.9585 13.3189 7.27984 12.6078Z"/>
    <path d="M5.4135 8.94598C7.65307 8.94598 9.51938 7.0615 9.51938 4.67924C9.51938 2.26142 7.72094 0.412498 5.44744 0.376942C3.17393 0.341386 1.30762 2.29698 1.30762 4.64368C1.30762 6.99039 3.14 8.91043 5.4135 8.94598ZM5.4135 2.90143C6.36362 2.90143 7.07621 3.68367 7.07621 4.67924C7.07621 5.63926 6.32969 6.42149 5.4135 6.42149C4.49731 6.42149 3.71686 5.63926 3.71686 4.64368C3.71686 3.64811 4.46338 2.86587 5.4135 2.90143Z"/>

</svg>
