<svg xmlns="http://www.w3.org/2000/svg" viewBox="0 0 13 16"><defs><style>.cls-1{fill:#1b1b1b;}</style></defs><title>line_1</title><g id="Layer_2" data-name="Layer 2"><g id="Layer_1-2" data-name="Layer 1"><path class="cls-1" d="M1.5,16h0A1.54,1.54,0,0,1,0,14.5v-5A1.54,1.54,0,0,1,1.5,8h0A1.54,1.54,0,0,1,3,9.5v5A1.54,1.54,0,0,1,1.5,16Z"/><path class="cls-1" d="M6.5,16h0A1.54,1.54,0,0,1,5,14.5V1.5A1.54,1.54,0,0,1,6.5,0h0A1.54,1.54,0,0,1,8,1.5v13A1.54,1.54,0,0,1,6.5,16Z"/><path class="cls-1" d="M11.5,16h0A1.54,1.54,0,0,1,10,14.5v-9A1.54,1.54,0,0,1,11.5,4h0A1.54,1.54,0,0,1,13,5.5v9A1.54,1.54,0,0,1,11.5,16Z"/></g></g></svg>