<svg xmlns="http://www.w3.org/2000/svg" viewBox="0 0 16 11.01"><defs><style>.cls-1{fill:#1b1b1b;}</style></defs><title>delivery</title><g id="Layer_2" data-name="Layer 2"><g id="Layer_1-2" data-name="Layer 1"><path class="cls-1" d="M1.2,0h9.3V1.7h3.7L16,4.8V9.4H14.6a2.08,2.08,0,0,1-2.7,1.5,2.25,2.25,0,0,1-1.5-1.5H5.8a2.08,2.08,0,0,1-2.7,1.5A2.25,2.25,0,0,1,1.6,9.4H0V0ZM11.5,8.7a1,1,0,0,0,1,1h0a1,1,0,1,0-1-1Zm-1-4.3V7.9a2.34,2.34,0,0,1,2.9-1.2,2.08,2.08,0,0,1,1.2,1.4h.2V5L13.5,2.8h-3V4.4ZM2.7,8.7a1,1,0,0,0,1,1h0a1,1,0,1,0-1-1ZM1.2,8.1h.4A2.08,2.08,0,0,1,4.3,6.6,2.25,2.25,0,0,1,5.8,8.1H9.3V1.2H1.2Z"/></g></g></svg>