<svg xmlns="http://www.w3.org/2000/svg" xmlns:xlink="http://www.w3.org/1999/xlink" width="20" height="13" viewBox="0 0 20 13"><defs><path id="vynpa" d="M1068.04 516.14c-1.38 0-2.5 1.06-2.5 2.36 0 1.3 1.15 2.38 2.53 2.38a2.43 2.43 0 0 0 2.46-2.38c0-1.3-1.11-2.36-2.5-2.36 0 0 1.38 0 0 0zm.03-1.15a3.64 3.64 0 0 1 3.74 3.54 3.64 3.64 0 0 1-3.74 3.53 3.64 3.64 0 0 1-3.75-3.53 3.64 3.64 0 0 1 3.75-3.54zm-.03-1.8a9.56 9.56 0 0 0-8.76 5.33 9.48 9.48 0 0 0 8.72 5.3 9.47 9.47 0 0 0 8.72-5.3 9.45 9.45 0 0 0-8.68-5.33s3.54 0 0 0zm0-1.18c4.17 0 8.08 2.26 9.89 6.18l.01.05.02.03.01.1.03.15-.03.16v.09l-.03.03-.01.05A10.8 10.8 0 0 1 1068 525a10.8 10.8 0 0 1-9.93-6.14l-.01-.06s-.02-.01-.02-.03l-.01-.09a.74.74 0 0 1-.03-.15c0-.06.01-.1.03-.16v-.1l.03-.02v-.05a10.88 10.88 0 0 1 9.98-6.18z"/></defs><g><g transform="translate(-1058 -512)"><use fill="#1b1b1b" xlink:href="#vynpa"/></g></g></svg>