<svg xmlns="http://www.w3.org/2000/svg" viewBox="0 0 17.8 16"><defs><style>.cls-1{fill:#1b1b1b;}</style></defs><title>heart</title><g id="Layer_2" data-name="Layer 2"><g id="Layer_1-2" data-name="Layer 1"><path class="cls-1" d="M17.8,4.8V4.7A4.94,4.94,0,0,0,12.9,0a5.37,5.37,0,0,0-4,1.8A5.18,5.18,0,0,0,4.9,0H4.8A4.8,4.8,0,0,0,0,4.8c0,3.3,3.1,6,7.7,10.1L9,16l1.3-1.1h0C14.7,10.7,17.8,8,17.8,4.8ZM8.9,13.6h0l-.2-.1C4.4,9.7,1.6,7.3,1.6,4.8V4.6A3,3,0,0,1,4.8,1.7,3.39,3.39,0,0,1,8,3.8H9.7a3.35,3.35,0,0,1,3.1-2.1h.1a3,3,0,0,1,3,3.1C16,7.3,13.2,9.8,8.9,13.6Z"/></g></g></svg>