<svg xmlns="http://www.w3.org/2000/svg" viewBox="0 0 17 17"><defs><style>.cls-1{fill:#141414;}</style></defs><title>lines_1</title><g id="Layer_2" data-name="Layer 2"><g id="Layer_1-2" data-name="Layer 1"><rect class="cls-1" width="3" height="3"/><rect class="cls-1" y="7" width="3" height="3"/><rect class="cls-1" y="14" width="3" height="3"/><polygon class="cls-1" points="16 0 14 0 7 0 7 3 14 3 16 3 17 3 17 0 16 0"/><polygon class="cls-1" points="14 7 7 7 7 10 14 10 16 10 17 10 17 7 16 7 14 7"/><polygon class="cls-1" points="14 14 7 14 7 17 14 17 16 17 17 17 17 14 16 14 14 14"/></g></g></svg>