<svg xmlns="http://www.w3.org/2000/svg" viewBox="0 0 21.1 20.97"><defs><style>.cls-1{fill:#84519c;}</style></defs><title>phone</title><g id="Layer_2" data-name="Layer 2"><g id="Layer_1-2" data-name="Layer 1"><path class="cls-1" d="M19.31,13.27l-3.4-1.8a2.44,2.44,0,0,0-2.6.3l-.4.4a1.37,1.37,0,0,1-1.5.2,5.89,5.89,0,0,1-2.7-2.7,1.18,1.18,0,0,1,.2-1.4l.4-.4a2.32,2.32,0,0,0,.3-2.7l-1.8-3.4c-.1-.2-.2-.3-.3-.5a3.32,3.32,0,0,0-4.6-.6l-1,.8a4.91,4.91,0,0,0-1.7,5.3,21.87,21.87,0,0,0,13.6,13.9,4.53,4.53,0,0,0,1.6.3,4.76,4.76,0,0,0,3.4-1.4l1.2-1.2a5.55,5.55,0,0,0,.6-.8A2.94,2.94,0,0,0,19.31,13.27Zm-.5,3.8-1.2,1.2a3,3,0,0,1-3,.7A20.31,20.31,0,0,1,2.21,6.27a2.85,2.85,0,0,1,1-3.2l1-.8A1.14,1.14,0,0,1,5,2a1.52,1.52,0,0,1,1.2.7l1.7,3.4v.2c0,.1,0,.2-.1.2l-.4.4a3.35,3.35,0,0,0-.5,3.7,7.9,7.9,0,0,0,3.5,3.5,3.35,3.35,0,0,0,3.7-.5l.4-.4c.1-.1.2-.1.4-.1l3.4,1.8a1.39,1.39,0,0,1,.7,1.2A.84.84,0,0,1,18.81,17.07Z"/></g></g></svg>