<svg width="643" height="552" viewBox="0 0 643 552" fill="none" xmlns="http://www.w3.org/2000/svg">
<path opacity="0.9" d="M505.617 93.3782C507.35 108.274 515.585 120.711 520.496 132.426C535.52 168.291 532.053 241.758 500.994 253.906C485.536 259.98 473.257 246.386 459.822 249.279V253.906C484.959 285.289 535.665 322.746 557.045 260.848C569.469 224.693 542.888 174.076 547.944 151.949L550.255 153.106C568.169 198.806 599.806 302.643 534.22 322.746C504.172 332.001 459.1 288.615 441.62 313.635H440.464C442.342 334.026 466.034 361.07 447.399 382.474C431.219 398.96 384.991 385.8 361.588 395.056V396.213C387.447 398.671 416.195 400.696 441.62 396.213V401.997C431.219 431.211 398.281 431.5 367.222 420.364C367.656 421.521 367.945 422.678 368.378 423.835L408.394 436.417L407.238 438.731C360.144 452.47 344.686 424.414 321.428 401.997C322.15 348.199 386.002 361.359 380.946 304.523H378.635C375.457 339.666 347.575 323.469 332.84 343.571C331.251 350.513 329.807 357.31 328.217 364.252C319.405 366.421 309.004 368.735 304.237 360.781C300.77 352.682 302.214 344.149 296.291 338.943C276.067 321.589 257.72 346.608 255.12 303.367L252.808 304.523C243.996 362.371 319.55 347.765 310.015 403.154C297.303 420.798 244.574 475.175 213.948 438.731L217.415 436.417C236.629 429.041 256.564 428.463 268.844 414.579V413.278C237.64 419.93 185.778 441.045 181.878 392.597C202.536 394.622 250.641 407.782 268.844 392.597V391.585C234.751 392.742 198.491 391.874 180.722 373.218C179.422 341.98 189.678 330.121 203.547 312.478L198.924 303.367C158.764 292.52 146.051 329.543 113.114 322.89C36.9823 307.271 79.8874 200.976 94.767 153.251H97.0784V159.036C83.3545 194.034 67.4637 274.732 109.647 288.615C136.517 297.437 195.457 262.15 181.733 241.614C166.998 244.506 151.685 259.691 132.616 254.196C80.8987 239.589 130.305 116.084 134.927 89.0396C103.435 99.7415 76.2759 152.094 50.2727 160.193C55.04 139.946 89.9998 91.0643 84.6547 70.8175C80.0319 60.1156 70.9308 57.0786 63.9966 48.9799C72.231 39.0011 98.3786 45.3643 109.791 38.7118C128.716 27.4315 139.839 6.31695 154.43 -9.44664L187.656 -36.9244L96.0672 -63.6792V-62.5222C107.335 -49.7956 130.882 -41.263 136.083 -23.4748H133.772L114.269 -20.0039V-18.8469C119.903 -12.7729 125.393 -11.3267 126.838 -0.480194H117.736L108.635 -2.79412V-0.480194L109.791 12.1017L108.635 13.2587C101.268 12.9695 99.5343 13.548 96.0672 16.7296C97.8007 22.8036 96.5006 25.2622 93.7558 29.3115C59.8072 32.927 -5.05617 -43.8662 11.4125 -78.575C15.1685 -85.2275 22.1027 -89.7108 32.0705 -90C79.743 -73.0795 150.818 -57.7497 203.691 -50.9526L294.124 -54.4235C323.45 -49.7956 382.68 -45.7463 412.005 -49.7956L557.045 -78.575C579.87 -84.0706 606.307 -91.7354 633.754 -86.5291C649.934 -46.614 592.294 22.0805 557.045 26.9976L550.111 21.2128L552.422 10.9448C546.355 12.1018 543.032 13.4033 539.854 8.63086C538.121 3.42454 540.865 0.38752 543.321 -3.95108L542.166 -5.10804L533.064 -6.265V-7.42196L539.999 -18.8469C531.62 -18.4131 518.474 -17.5454 513.707 -21.1609L510.24 -23.4748L512.551 -25.7887C522.519 -45.0232 548.666 -51.8203 561.668 -68.1624V-69.3193L559.357 -70.4763C528.442 -62.6668 478.458 -57.6051 453.033 -42.9985V-41.8415L487.414 -16.6776C506.917 0.676765 528.008 29.89 554.878 38.4226L588.104 40.7365V41.8935L561.668 70.5282C566.58 99.3076 580.881 123.748 585.649 150.792H581.026C570.336 136.475 525.264 96.126 505.617 93.3782ZM295.136 -42.9985L237.929 -30.4165C202.536 -17.9792 169.165 4.5815 147.496 31.4808C138.395 42.9058 118.892 56.934 121.204 75.0115H126.982C141.717 67.4912 170.898 41.6042 187.656 47.5336C191.268 73.8545 138.25 101.332 147.64 130.112C151.252 141.103 172.343 140.524 179.711 148.478V171.473C182.022 185.501 200.369 203.723 218.571 201.265C226.372 200.252 233.45 195.48 242.552 197.794C241.974 211.533 236.051 216.594 233.45 227.586L246.019 224.115C247.897 227.875 249.775 231.78 251.797 235.54H256.42C257.576 219.776 260.609 192.298 251.797 182.753C249.486 180.439 251.364 181.596 247.174 180.439C238.362 185.79 221.171 194.178 207.158 189.551C195.168 185.646 182.455 164.097 195.746 152.817L204.847 159.759C207.881 167.568 206.436 175.812 212.792 180.439C215.537 182.32 216.982 182.464 221.894 182.753C228.394 179.427 230.128 175.378 234.462 170.171L247.03 173.642L245.874 170.171C224.927 154.408 168.732 132.426 160.064 110.588C165.698 94.2459 209.759 45.3643 196.613 36.1087C184.044 31.7701 167.287 47.5337 156.597 40.7365C172.776 13.8372 200.513 -3.08336 232.15 -14.3637C258.009 -23.4748 295.858 -14.2191 308.86 -36.2013L306.548 -43.1431H295.136V-42.9985ZM331.685 -41.8415L332.84 -34.8998C373.867 -14.2191 484.67 -8.00043 489.581 43.0504L486.114 45.3643C474.124 44.2074 456.933 33.9394 449.566 38.4226C447.11 40.7365 447.399 41.4596 447.254 46.3767C456.066 71.5406 476.291 83.1102 477.013 115.216L451.877 134.74C405.938 157.445 361.444 157.879 376.323 233.37L378.635 232.213C379.357 226.429 380.224 220.788 380.946 215.004L386.725 213.847C389.758 215.727 392.792 217.607 395.826 219.632C394.237 209.074 393.081 205.169 398.137 197.794C425.151 193.6 447.976 199.674 454.188 174.799C454.622 165.254 454.911 155.709 455.344 146.165C469.646 144.718 483.081 139.078 494.204 130.112C492.471 92.9443 464.301 81.0855 457.655 52.1615L459.967 49.8476C494.782 51.583 505.328 86.1472 539.999 91.0643L543.466 86.4364C531.62 25.9853 409.838 -40.6846 331.685 -41.8415ZM317.961 -20.0039C305.826 -10.3144 277.945 -10.8928 267.688 0.676765V1.83372H269.999C286.468 7.47391 306.259 -6.12038 322.583 -2.79412C332.84 -0.624817 350.176 5.59384 362.599 1.83372L363.755 0.676765C363.033 -0.480194 362.166 -1.63716 361.444 -2.79412C344.831 -7.85582 331.54 -14.7976 317.961 -20.0039ZM291.669 17.7419C270.577 27.7207 250.208 31.7701 232.15 41.7489L233.306 44.0628H234.462C250.497 40.8811 258.298 31.9147 277.945 31.4808V33.7947L279.1 38.4226C276.067 41.4596 274.622 42.3273 273.322 47.5336L281.267 57.8017C273.033 70.6729 222.038 98.1507 245.874 125.484H247.03C241.54 83.3994 282.279 83.1102 297.303 58.9586C295.28 47.9675 288.635 48.9799 287.046 37.121L299.614 23.3821V19.9112L297.303 17.5973L291.669 17.7419ZM333.996 18.8989C333.129 23.0929 333.418 23.3821 335.152 26.853C354.798 36.3979 337.463 47.5336 330.529 57.8017C331.251 59.6817 332.118 61.5618 332.84 63.5865C355.665 70.9621 378.49 79.0608 383.113 104.803V126.641L385.424 125.484C397.415 71.9744 369.1 83.9779 350.031 55.4878C355.087 46.8105 355.232 43.3397 353.498 31.4808H355.81C371.701 25.2622 396.981 40.3026 410.705 44.0628V43.0504C394.959 26.4191 361.733 19.622 333.996 18.8989ZM435.842 67.0574C435.553 103.357 395.103 108.997 392.359 145.008H393.514C415.906 130.546 430.497 110.299 456.355 96.8491V95.6921C449.565 88.1719 444.654 72.2637 435.842 67.0574ZM204.703 68.2143L179.566 103.791L181.878 109.576C207.447 114.637 220.016 134.306 241.396 140.524V137.053C230.417 115.36 217.415 100.609 201.38 84.2672L207.158 68.2143H204.703ZM439.309 153.106C443.931 153.829 442.776 153.106 445.087 155.42C461.989 188.972 400.304 200.252 384.413 179.427C388.169 174.221 393.803 171.618 402.76 171.473C405.216 177.836 410.85 182.175 417.639 182.898L425.585 178.27C427.896 170.605 430.208 162.94 432.519 155.276C436.997 154.842 436.853 154.986 439.309 153.106ZM499.838 170.316C492.182 220.499 459.533 196.782 440.32 218.475C447.11 226.284 483.947 235.54 494.06 224.259C489.293 207.194 509.373 181.307 499.838 170.316ZM133.772 173.642C133.627 192.298 143.884 196.492 146.34 208.062C148.073 215.727 142.295 217.028 145.184 224.115C161.653 227.296 177.977 223.681 193.29 219.487V214.859C171.765 213.847 149.518 205.893 140.706 191.864C137.239 186.513 138.25 178.126 133.772 173.642ZM589.116 181.741C602.262 190.707 602.117 218.619 607.462 235.684C615.408 260.993 617.719 292.954 626.965 320.576C631.876 335.183 641.266 347.909 643 365.264L641.844 368.735C620.464 371.193 602.406 371.049 588.104 380.16C546.355 406.914 513.273 457.676 434.83 443.214V439.743C463 435.838 489.437 411.398 497.671 386.957C501.861 374.809 499.838 357.165 505.617 346.897C531.764 340.1 573.225 361.359 596.05 346.897C630.287 325.06 591.283 215.148 589.116 181.741ZM52.5841 186.369C64.5745 218.764 4.04493 329.109 49.1171 350.368C73.6756 361.938 110.224 343.137 136.083 350.368C144.317 400.551 156.741 434.682 203.547 444.371L202.391 448.999C102.135 450.445 112.102 420.219 54.8955 384.788C40.0159 375.532 16.902 376.4 0 367.578V361.793L21.6693 305.68C32.215 264.319 35.6821 221.801 52.5841 186.369ZM197.913 351.38L201.38 357.165C218.86 358.901 230.417 366.132 252.808 366.276C241.829 357.165 215.537 352.393 197.913 351.38ZM417.495 352.537L377.479 368.59V370.904H385.424C398.57 366.71 423.418 365.553 427.752 352.537H417.495ZM427.752 466.064C437.864 474.741 441.331 514.367 423.129 513.066L409.405 497.013L411.716 494.699C417.639 485.443 422.984 475.898 427.752 466.064ZM205.858 467.221C214.959 470.403 221.749 486.022 228.683 492.385L227.528 497.013C223.194 503.954 212.648 513.21 204.703 513.066L203.547 510.752C200.802 496.724 203.113 478.935 205.858 467.221ZM332.84 491.228C379.357 489.926 419.662 494.265 422.118 537.073C414.317 551.968 391.203 552.981 367.222 550.811C349.02 549.221 328.795 543.002 306.548 546.184C280.112 550.088 239.807 557.609 218.426 545.027L216.115 534.759C231.284 500.339 247.319 492.385 297.303 492.385L332.84 491.228Z" fill="url(#paint0_linear)"/>
<defs>
<linearGradient id="paint0_linear" x1="321.5" y1="-90" x2="321.5" y2="552" gradientUnits="userSpaceOnUse">
<stop stop-color="#FFA41B"/>
<stop offset="1" stop-color="#FFA41B" stop-opacity="0"/>
</linearGradient>
</defs>
</svg>
