<?xml version="1.0" encoding="UTF-8"?><!DOCTYPE svg PUBLIC "-//W3C//DTD SVG 1.1//EN" "http://www.w3.org/Graphics/SVG/1.1/DTD/svg11.dtd"><svg xmlns="http://www.w3.org/2000/svg"><symbol id="icon-location" viewBox="0 0 487.724 487.724">
    <path d="M236.925.124c-96.9 3.4-177.4 79-186.7 175.5-1.9 19.3-.8 38 2.6 55.9 0 0 .3 2.1 1.3 6.1 3 13.4 7.5 26.4 13.1 38.6 19.5 46.2 64.6 123.5 165.8 207.6 6.2 5.2 15.3 5.2 21.6 0 101.2-84 146.3-161.3 165.9-207.7 5.7-12.2 10.1-25.1 13.1-38.6.9-3.9 1.3-6.1 1.3-6.1 2.3-12 3.5-24.3 3.5-36.9 0-109.8-90.9-198.3-201.5-194.4zm6.9 291.2c-52.2 0-94.5-42.3-94.5-94.5s42.3-94.5 94.5-94.5 94.5 42.3 94.5 94.5-42.3 94.5-94.5 94.5z"/>
</symbol><symbol id="icon-mail" viewBox="0 0 14 14">
    <g>
        <path d="M7 9L5.268 7.484.316 11.729c.18.167.423.271.691.271h11.986c.267 0 .509-.104.688-.271L8.732 7.484 7 9z"/>
        <path d="M13.684 2.271A1.007 1.007 0 0 0 12.993 2H1.007c-.267 0-.509.104-.689.273L7 8l6.684-5.729z"/>
        <path d="M0 2.878v8.308l4.833-4.107z"/>
        <path d="M9.167 7.079L14 11.186V2.875z"/>
    </g>
</symbol><symbol id="icon-phone-2" viewBox="0 0 578.106 578.106">
    <path d="M577.83 456.128c1.225 9.385-1.635 17.545-8.568 24.48l-81.396 80.781c-3.672 4.08-8.465 7.551-14.381 10.404-5.916 2.857-11.729 4.693-17.439 5.508-.408 0-1.635.105-3.676.309-2.037.203-4.689.307-7.953.307-7.754 0-20.301-1.326-37.641-3.979s-38.555-9.182-63.645-19.584c-25.096-10.404-53.553-26.012-85.376-46.818-31.823-20.805-65.688-49.367-101.592-85.68-28.56-28.152-52.224-55.08-70.992-80.783-18.768-25.705-33.864-49.471-45.288-71.299-11.425-21.828-19.993-41.616-25.705-59.364S4.59 177.362 2.55 164.51-.306 141.56.102 134.216c.408-7.344.612-11.424.612-12.24.816-5.712 2.652-11.526 5.508-17.442s6.324-10.71 10.404-14.382L98.022 8.756c5.712-5.712 12.24-8.568 19.584-8.568 5.304 0 9.996 1.53 14.076 4.59s7.548 6.834 10.404 11.322l65.484 124.236c3.672 6.528 4.692 13.668 3.06 21.42-1.632 7.752-5.1 14.28-10.404 19.584l-29.988 29.988c-.816.816-1.53 2.142-2.142 3.978s-.918 3.366-.918 4.59c1.632 8.568 5.304 18.36 11.016 29.376 4.896 9.792 12.444 21.726 22.644 35.802s24.684 30.293 43.452 48.653c18.36 18.77 34.68 33.354 48.96 43.76 14.277 10.4 26.215 18.053 35.803 22.949 9.588 4.896 16.932 7.854 22.031 8.871l7.648 1.531c.816 0 2.145-.307 3.979-.918 1.836-.613 3.162-1.326 3.979-2.143l34.883-35.496c7.348-6.527 15.912-9.791 25.705-9.791 6.938 0 12.443 1.223 16.523 3.672h.611l118.115 69.768c8.571 5.308 13.67 12.038 15.303 20.198z"/>
</symbol><symbol id="icon-phone" viewBox="0 0 512 512">
    <path d="M384 0H128c-14.138 0-25.6 11.461-25.6 25.6v460.8c0 14.138 11.461 25.6 25.6 25.6h256c14.138 0 25.6-11.461 25.6-25.6V25.6C409.6 11.461 398.138 0 384 0zm8.533 68.267H196.267c-4.713 0-8.533 3.82-8.533 8.533s3.82 8.533 8.533 8.533h196.267v332.8h-25.6c-4.713 0-8.533 3.82-8.533 8.533s3.82 8.533 8.533 8.533h25.6v51.2a8.533 8.533 0 0 1-8.533 8.533H128a8.533 8.533 0 0 1-8.533-8.533v-51.2h196.267c4.713 0 8.533-3.82 8.533-8.533s-3.82-8.533-8.533-8.533H119.467v-332.8h25.6c4.713 0 8.533-3.82 8.533-8.533s-3.82-8.533-8.533-8.533h-25.6V25.6A8.533 8.533 0 0 1 128 17.067h256a8.533 8.533 0 0 1 8.533 8.533v42.667z"/>
    <path d="M264.533 460.8h-17.067c-4.713 0-8.533 3.82-8.533 8.533s3.82 8.533 8.533 8.533h17.067c4.713 0 8.533-3.82 8.533-8.533s-3.82-8.533-8.533-8.533z"/>
</symbol><symbol id="icon-resize-length" viewBox="0 0 179.006 179.006">
    <path d="M52.258 67.769l.006-30.545L0 89.506l52.264 52.276-.006-30.545 74.478.012v30.533l52.27-52.276-52.27-52.282v30.545z"/>
</symbol><symbol id="icon-star" viewBox="0 0 53.867 53.867">
    <path d="M26.934 1.318l8.322 16.864 18.611 2.705L40.4 34.013l3.179 18.536-16.645-8.751-16.646 8.751 3.179-18.536L0 20.887l18.611-2.705z"/>
</symbol><symbol id="icon-telegram" viewBox="0 0 512 512">
    <path d="M385.268 121.919l-210.569 129.69c-11.916 7.356-17.555 21.885-13.716 35.323l22.768 80c1.945 6.821 8.015 11.355 14.999 11.355.389 0 .782-.014 1.176-.043 7.466-.542 13.374-6.103 14.367-13.515l5.92-43.866a25.915 25.915 0 0 1 8.001-15.45l173.765-161.524a13.817 13.817 0 0 0 1.618-18.545 13.836 13.836 0 0 0-18.329-3.425zM214.32 290.478a46.364 46.364 0 0 0-14.323 27.655l-2.871 21.278-16.527-58.072c-1.343-4.704.635-9.791 4.805-12.365l154.258-95.007L214.32 290.478z"/>
    <path d="M503.67 37.382a23.52 23.52 0 0 0-23.698-4.005L15.08 212.719C5.873 216.27-.047 224.939 0 234.804c.048 9.874 6.055 18.495 15.316 21.965l108.59 40.529 42.359 136.225a23.517 23.517 0 0 0 15.703 15.566 23.49 23.49 0 0 0 21.66-4.31l63.14-51.473a8.642 8.642 0 0 1 10.528-.295l113.883 82.681a23.476 23.476 0 0 0 13.823 4.511 23.6 23.6 0 0 0 8.517-1.596c7.486-2.895 12.93-9.312 14.56-17.163l83.429-401.309a23.547 23.547 0 0 0-7.838-22.753zM491.536 55.99l-83.428 401.308c-.302 1.45-1.346 2.053-1.942 2.284-.6.232-1.785.489-2.997-.393l-113.887-82.685a28.982 28.982 0 0 0-17.052-5.531 29.013 29.013 0 0 0-18.347 6.519l-63.154 51.485c-1.124.92-2.291.756-2.885.577-.598-.18-1.665-.69-2.099-2.086L141.9 286.462a10.203 10.203 0 0 0-6.173-6.527L22.462 237.662c-1.696-.635-2.057-1.958-2.062-2.957-.005-.99.343-2.307 2.023-2.955L487.316 52.409l.008-.003c1.51-.583 2.627.087 3.159.537.534.455 1.384 1.455 1.053 3.047z"/>
    <path d="M427.481 252.142c-5.506-1.196-10.936 2.299-12.131 7.804l-1.55 7.14c-1.195 5.505 2.299 10.936 7.804 12.131a10.25 10.25 0 0 0 2.174.234c4.695 0 8.92-3.262 9.958-8.037l1.55-7.14c1.194-5.505-2.301-10.936-7.805-12.132z"/>
    <path d="M417.281 299.122c-5.512-1.195-10.938 2.299-12.132 7.804L381.69 414.977c-1.195 5.505 2.299 10.936 7.803 12.131.73.158 1.457.234 2.174.234 4.696 0 8.92-3.262 9.958-8.037l23.459-108.052c1.195-5.505-2.299-10.936-7.803-12.131z"/>
</symbol><symbol id="icon-travel" viewBox="0 0 480.543 480.543">
    <path d="M225.278 278.426c0-48.641-39.572-88.213-88.214-88.213-48.641 0-88.212 39.572-88.212 88.213 0 14.254 3.401 27.727 9.431 39.654l78.781 162.463 78.795-162.488c6.021-11.922 9.419-25.386 9.419-39.629zm-88.214 48.817c-26.917 0-48.817-21.9-48.817-48.817s21.9-48.817 48.817-48.817c26.918 0 48.817 21.9 48.817 48.817s-21.899 48.817-48.817 48.817z"/>
    <path d="M387.021 0c-24.63 0-44.669 20.038-44.669 44.668 0 7.218 1.723 14.04 4.776 20.081l39.893 82.267 39.899-82.28a44.392 44.392 0 0 0 4.77-20.067C431.69 20.038 411.65 0 387.021 0zm0 69.388c-13.631 0-24.72-11.089-24.72-24.72 0-13.63 11.089-24.72 24.72-24.72 13.629 0 24.719 11.09 24.719 24.72 0 13.631-11.09 24.72-24.719 24.72z"/>
    <path d="M348.116 289.787c-1.812-8.523-4.166-16.875-7.131-25.075-3.974-10.987-8.74-21.724-12.391-32.836-6.823-20.771 4.948-38.105 7.16-41.256 3.876-5.517 8.408-10.58 13.19-15.322 9.207-9.128 19.361-17.288 29.984-24.803a149.072 149.072 0 0 1-3.805-6.199c-15.279 5.99-93.854 33.452-91.938 94.121.384 12.162 5.083 23.737 7.979 35.526 1.395 5.681 2.605 11.412 3.345 17.218.319 2.614.515 5.243.729 7.87.006-.02.004-.034-.008-.045.007.076.202 8.326-.164 11.9-1.147 11.189-2.799 22.494-7.516 32.758-4.387 9.543-11.006 17.842-19.193 24.402-18.716 14.994-43.514 20.988-66.913 23.398-1.114.117-2.228.217-3.342.314l-41.779 86.152c20.614-1.281 41.175-4.102 61.235-9.039 23.607-5.811 46.613-14.588 67.227-27.598 20.596-12.996 38.308-30.578 50.099-51.984 12.335-22.391 17.277-48.038 16.225-73.452-.357-8.681-1.181-17.53-2.993-26.05z"/>
</symbol><symbol id="icon-whatsapp" viewBox="0 0 512 512">
    <path d="M123.832 475.465c39.559 23.805 84.79 36.351 131.262 36.351C395.918 511.816 512 396.902 512 255.906 512 115.074 396.082 0 255.094 0 114.535 0 .184 114.8.184 255.906c0 47.094 12.55 92.668 36.351 132.258L0 512zM30.176 255.906c0-124.57 100.898-225.918 224.918-225.918 125.12 0 226.918 101.348 226.918 225.918 0 124.574-101.797 225.918-226.918 225.918-43.055 0-84.895-12.195-120.985-35.273l-5.765-3.684-83.989 24.781 24.778-83.992-3.684-5.761c-23.078-36.098-35.273-78.278-35.273-121.989zm0 0"/>
    <path d="M124.629 208.754c4.953 26.012 19.656 76.043 62.465 118.851 42.808 42.81 92.84 57.516 118.855 62.47 29.79 5.671 73.504 6.527 94.867-14.837l11.91-11.91c6.012-6.012 9.325-14.008 9.325-22.512s-3.313-16.496-9.324-22.507l-47.63-47.63c-6.015-6.015-14.007-9.324-22.511-9.324s-16.496 3.31-22.512 9.325l-11.906 11.906c-7.273 7.273-21.004 7.305-28.332.09l-47.508-49.5c-.07-.074-.14-.149-.215-.219-7.285-7.285-7.285-19.14 0-26.426l11.907-11.906c12.445-12.445 12.445-32.582 0-45.023l-47.63-47.63c-12.41-12.41-32.605-12.41-45.019 0l-11.906 11.91v-.003c-17.05 17.055-22.735 53.406-14.836 94.875zm36.043-73.664c12.5-12.215 11.832-12.45 13.21-12.45.473 0 .946.18 1.305.54 50.188 50.457 48.172 47.492 48.172 48.937 0 .504-.183.946-.539 1.305l-11.91 11.906c-18.965 18.965-19.039 49.664-.12 68.715l47.534 49.531c.074.07.145.145.219.219 18.96 18.96 51.809 19.023 70.832 0l11.906-11.906a1.848 1.848 0 0 1 2.61 0c50.187 50.453 48.171 47.488 48.171 48.933 0 .508-.183.946-.539 1.305l-11.91 11.906c-8.16 8.16-34.152 13.043-68.054 6.586-22.625-4.312-66.13-17.086-103.258-54.215-37.13-37.129-49.903-80.632-54.211-103.257-6.461-33.903-1.578-59.899 6.582-68.055zm0 0"/>
</symbol></svg>