<svg width="93" height="77" viewBox="0 0 93 77" fill="none" xmlns="http://www.w3.org/2000/svg">
<rect width="93" height="77" fill="black" fill-opacity="0"/>
<path d="M72.7629 23.1477C74.1511 25.0684 74.1511 28.211 72.7629 30.1306L72.2727 30.8085C70.8845 32.7292 69.7517 36.2445 69.7548 38.6209V39.4588C69.7548 41.8352 67.9258 44.3777 65.6828 45.1086L64.8919 45.3661C62.649 46.0928 59.682 48.273 58.301 50.1947L57.8129 50.8737C56.4298 52.7975 53.466 53.7692 51.222 53.0311L50.4311 52.7705C48.1912 52.0334 44.524 52.0334 42.2831 52.7705L41.4933 53.0311C39.2524 53.7692 36.2875 52.7975 34.9024 50.8737L34.4214 50.1989C33.0394 48.2741 30.0725 46.1011 27.8306 45.3702L27.0386 45.1117C24.7957 44.385 22.9636 41.8383 22.9667 39.4619V38.6241C22.9667 36.2476 21.8339 32.7323 20.4488 30.8116L19.9596 30.1337C18.5714 28.2141 18.5714 25.0715 19.9596 23.1508L20.4488 22.4729C21.8421 20.5501 22.9749 17.0348 22.9677 14.6584V13.8195C22.9677 11.4431 24.7967 8.90056 27.0396 8.17071L27.8306 7.9122C30.0735 7.18546 33.0404 5.00525 34.4214 3.08459L34.9096 2.40561C36.2916 0.480801 39.2565 -0.490948 41.5005 0.247208L42.2903 0.507795C44.5312 1.24491 48.1985 1.24491 50.4383 0.507795L51.2292 0.247208C53.4701 -0.490948 56.434 0.480801 57.8201 2.40561L58.3083 3.08459C59.6903 5.00837 62.6572 7.18131 64.8991 7.9122L65.69 8.17071C67.933 8.89744 69.7651 11.4431 69.762 13.8195V14.6584C69.762 17.0348 70.8948 20.5501 72.2799 22.4698L72.7629 23.1477Z" fill="black"/>
<path d="M15.3305 73.143V75.6512C14.4137 76.1066 13.4454 76.4482 12.447 76.6687C11.4526 76.8889 10.4375 76.9999 9.41933 76.9998C8.20139 77.0054 6.98985 76.8219 5.8273 76.4558C4.73472 76.1196 3.71536 75.5774 2.82329 74.8581C1.9547 74.1497 1.2515 73.2571 0.763642 72.2439C0.254908 71.2057 0.000540613 69.9986 0.000540613 68.6227C-0.0131435 67.447 0.233112 66.283 0.721419 65.2153C1.18045 64.2141 1.83508 63.3165 2.64616 62.5762C3.4689 61.8328 4.42487 61.2545 5.46274 60.8725C6.55534 60.467 7.71131 60.2627 8.87558 60.2693C9.36603 60.2648 9.85616 60.2964 10.3421 60.3638C10.754 60.4275 11.1412 60.4946 11.5037 60.5652C11.8662 60.6358 12.2095 60.6988 12.5335 60.7542C12.8986 60.8127 13.2679 60.8405 13.6375 60.8372C13.9373 60.8387 14.2364 60.8071 14.5293 60.7428C14.8101 60.6791 15.1074 60.6002 15.4212 60.5061V63.8895H14.9989C14.3136 62.959 13.3992 62.225 12.3461 61.7602C11.3045 61.2917 10.1768 61.0498 9.03623 61.0501C8.03519 61.0338 7.04247 61.2357 6.12595 61.6418C5.29354 62.0171 4.54708 62.5618 3.93345 63.2417C3.31892 63.9328 2.84826 64.7413 2.54936 65.6192C1.90675 67.53 1.90675 69.6011 2.54936 71.5119C2.85098 72.4101 3.32085 73.2415 3.93345 73.9611C4.5394 74.6658 5.2825 75.2376 6.11668 75.6409C7.02258 76.0711 8.01437 76.286 9.01564 76.269C9.57053 76.2628 10.1231 76.1953 10.6634 76.0675C11.2578 75.9336 11.8362 75.7352 12.3883 75.4758C12.9317 75.2217 13.4362 74.8906 13.8867 74.4926C14.3122 74.1262 14.646 73.6638 14.8609 73.143H15.3305Z" fill="black"/>
<path d="M25.3765 60.6026C25.7694 60.5917 26.1605 60.6602 26.5268 60.804C26.8102 60.9182 27.0664 61.0916 27.2786 61.3128C27.4605 61.5087 27.5967 61.7431 27.6771 61.999C27.7516 62.2284 27.7912 62.4678 27.7945 62.7091C27.7932 62.8199 27.7853 62.9305 27.7708 63.0403C27.7546 63.1688 27.7274 63.2955 27.6895 63.4193C27.6548 63.535 27.5989 63.6431 27.5247 63.738C27.4893 63.7814 27.4444 63.8159 27.3934 63.8386C27.3424 63.8613 27.2869 63.8716 27.2312 63.8688C27.1776 63.8735 27.1239 63.8612 27.0776 63.8336C27.0312 63.8061 26.9946 63.7647 26.9727 63.7151C26.9175 63.5818 26.8781 63.4425 26.8553 63.2999C26.731 62.6839 26.5162 62.1994 26.2106 61.8464C25.9051 61.4934 25.4081 61.3159 24.7195 61.3138H21.9966C21.6372 61.3011 21.2822 61.3957 20.976 61.5858C20.7014 61.7678 20.5641 62.0793 20.5641 62.5202V67.7963H23.7329C24.1267 67.8034 24.5141 67.6952 24.8482 67.4848C25.1688 67.2772 25.3291 66.938 25.3291 66.4674H25.7987V69.7169H25.3291C25.3291 69.2587 25.1688 68.9272 24.8482 68.7223C24.5139 68.5124 24.1266 68.4042 23.7329 68.4109H20.5651V73.9953C20.5651 74.6591 20.7684 75.1996 21.1748 75.617C21.5812 76.0344 22.1133 76.242 22.771 76.2399H24.7431C25.5416 76.2399 26.1715 76.0267 26.6329 75.6004C27.0942 75.174 27.3719 74.5826 27.466 73.8261C27.4757 73.6857 27.4992 73.5466 27.536 73.4108C27.568 73.307 27.6534 73.2572 27.7945 73.2572C27.8563 73.2537 27.9181 73.2647 27.9751 73.2892C28.0321 73.3136 28.0827 73.351 28.123 73.3984C28.2058 73.5029 28.2659 73.6239 28.2991 73.7534C28.3378 73.8927 28.3616 74.0358 28.3702 74.1801C28.3774 74.3224 28.3815 74.4397 28.3815 74.5352C28.3824 74.8475 28.31 75.1555 28.1704 75.4343C28.0308 75.7163 27.8397 75.9692 27.6071 76.1797C27.366 76.396 27.0864 76.5644 26.7832 76.676C26.4681 76.7948 26.1341 76.8549 25.7977 76.8535H16.5509V76.3811C16.8529 76.381 17.1547 76.3651 17.4551 76.3333C17.7421 76.308 18.0217 76.2276 18.2789 76.0966C18.5198 75.9725 18.7259 75.7894 18.8783 75.564C19.0334 75.3356 19.1114 75.0162 19.1121 74.6058V62.6375C19.1259 62.3426 19.0524 62.0502 18.9009 61.7976C18.7687 61.5918 18.5817 61.4277 18.3613 61.3242C18.131 61.219 17.8856 61.1514 17.6343 61.1238C17.369 61.0919 17.1022 61.0759 16.8351 61.0761V60.6026H25.3765Z" fill="black"/>
<path d="M33.8746 60.6026C34.0301 60.6026 34.2536 60.6026 34.543 60.5912C34.8324 60.5798 35.1341 60.5714 35.4472 60.5559C35.7602 60.5403 36.0568 60.5278 36.339 60.5195C36.6212 60.5112 36.8323 60.5081 36.9723 60.5081C37.653 60.5108 38.3295 60.6158 38.9795 60.8196C39.6241 61.0151 40.2313 61.3191 40.7755 61.7187C41.3016 62.107 41.7411 62.6021 42.0659 63.1721C42.4013 63.7738 42.5715 64.4547 42.5591 65.1447C42.5646 65.9216 42.4089 66.6911 42.1019 67.4038C41.8097 68.0854 41.3901 68.704 40.8661 69.2258C40.3425 69.7436 39.7265 70.1568 39.0505 70.4436C38.3492 70.7444 37.5944 70.8973 36.8323 70.8932C36.3854 70.8946 35.9412 70.8227 35.5172 70.6803C35.0883 70.5353 34.6902 70.3106 34.3432 70.018L34.6017 69.639C34.9261 69.8116 35.2688 69.9467 35.6233 70.0419C35.9794 70.1371 36.3464 70.1849 36.7149 70.1841C37.3233 70.1906 37.9265 70.0697 38.4862 69.829C39.007 69.6061 39.478 69.2798 39.8713 68.8697C40.2619 68.4565 40.569 67.9706 40.7755 67.4391C40.9963 66.8667 41.1064 66.2571 41.0999 65.643C41.1125 64.9769 40.9715 64.3169 40.6879 63.7151C40.4264 63.1702 40.045 62.6926 39.5726 62.3187C39.0891 61.9404 38.5402 61.6556 37.9538 61.4788C37.3297 61.2869 36.6804 61.191 36.028 61.1944C35.5706 61.195 35.1144 61.2426 34.6666 61.3366C34.2225 61.4273 33.7952 61.587 33.3999 61.81V74.8248C33.3999 75.1882 33.4699 75.4716 33.611 75.6772C33.746 75.8773 33.9326 76.0367 34.1506 76.1381C34.3846 76.2453 34.6343 76.3133 34.89 76.3395C35.1587 76.3712 35.429 76.3872 35.6995 76.3873V76.8597H29.6688V76.3873C29.9356 76.3875 30.2021 76.3715 30.4669 76.3395C30.7188 76.3123 30.9646 76.2443 31.195 76.1381C31.413 76.0367 31.5996 75.8773 31.7346 75.6772C31.8757 75.4695 31.9458 75.1882 31.9458 74.8248V62.6375C31.9596 62.3426 31.8861 62.0502 31.7346 61.7976C31.6022 61.592 31.4152 61.428 31.195 61.3241C30.9644 61.2188 30.7186 61.1512 30.4669 61.1238C30.2021 61.0918 29.9356 61.0759 29.6688 61.076V60.6026H33.8746Z" fill="black"/>
<path d="M43.6858 76.3874C43.9571 76.3869 44.2279 76.3629 44.4952 76.3157C44.7534 76.2741 45.0032 76.1903 45.2346 76.0676C45.4466 75.9559 45.628 75.7933 45.7629 75.5942C45.905 75.364 45.9746 75.0958 45.9627 74.8249V62.6375C45.9579 62.226 45.7936 61.8327 45.5049 61.5417C45.2163 61.2507 44.8262 61.0851 44.418 61.0802H43.6899V60.6068H47.2345C47.925 60.6133 48.6151 60.5737 49.3004 60.4885C49.7666 60.4186 50.2369 60.3791 50.7081 60.3701C51.3784 60.3701 52.0457 60.4616 52.6916 60.6421C53.3046 60.8086 53.8891 61.0679 54.4248 61.4114C54.9173 61.7254 55.3384 62.1408 55.6606 62.6303C55.9736 63.1113 56.1371 63.6756 56.1302 64.2509C56.1326 64.6955 56.0406 65.1356 55.8604 65.5414C55.6832 65.9388 55.4455 66.3059 55.156 66.6294C54.866 66.9527 54.5342 67.2352 54.1694 67.4693C53.8217 67.6964 53.4474 67.8791 53.0551 68.0133C53.5486 68.1367 54.0282 68.3106 54.4866 68.5324C54.9238 68.7425 55.3242 69.023 55.6719 69.363C56.0101 69.6961 56.2845 70.0892 56.4813 70.5226C56.6935 70.9981 56.799 71.515 56.7903 72.0363C56.8007 72.7364 56.6265 73.4268 56.2857 74.0369C55.9537 74.6224 55.5111 75.1367 54.983 75.5506C53.8977 76.3899 52.5712 76.8508 51.2035 76.8639H43.6858V76.3874ZM51.1005 68.9799C50.8837 69.1212 50.6306 69.1952 50.3724 69.1927C50.1996 69.1869 50.029 69.1518 49.8678 69.0889C49.7823 69.0668 49.7068 69.0162 49.6535 68.9454C49.6002 68.8745 49.5723 68.7874 49.5743 68.6985C49.5743 68.4909 49.6838 68.3566 49.9028 68.2957C50.0856 68.2389 50.275 68.2072 50.4661 68.2012C50.9717 68.2031 51.4745 68.1271 51.9573 67.9759C52.4135 67.8371 52.8395 67.6123 53.2127 67.3136C53.5742 67.0202 53.8703 66.6533 54.0819 66.237C54.309 65.774 54.4217 65.2625 54.4104 64.7461C54.4294 64.2168 54.3195 63.6909 54.0902 63.2144C53.8609 62.7378 53.5193 62.3252 53.0953 62.0125C52.7005 61.719 52.2549 61.5025 51.7812 61.3741C51.3073 61.2416 50.8179 61.1738 50.3261 61.1726C49.959 61.1717 49.5929 61.2114 49.2345 61.291C48.9124 61.3597 48.6007 61.471 48.3076 61.6222C48.0597 61.7493 47.84 61.9259 47.6619 62.1413C47.5024 62.3338 47.4153 62.5767 47.4158 62.8275V73.3341C47.4116 73.7434 47.5127 74.1469 47.7093 74.5051C47.9034 74.8587 48.1624 75.1719 48.4724 75.4281C48.7839 75.6878 49.1371 75.8921 49.5166 76.0323C49.889 76.1701 50.2826 76.2404 50.6793 76.24C51.2213 76.2385 51.7611 76.1709 52.2869 76.0385C52.8055 75.9139 53.2981 75.6977 53.742 75.4001C54.1683 75.1125 54.5251 74.7322 54.7863 74.2871C55.062 73.8018 55.2002 73.2495 55.1858 72.6904C55.194 72.1625 55.0737 71.6407 54.8357 71.1705C54.607 70.7287 54.2917 70.3384 53.9088 70.0233C53.5195 69.7052 53.0789 69.4569 52.6061 69.2892C52.1221 69.1159 51.6163 69.0117 51.1036 68.9799H51.1005Z" fill="black"/>
<path d="M61.6428 74.8248C61.6428 75.1882 61.7129 75.4716 61.8488 75.6772C61.9838 75.8773 62.1704 76.0367 62.3884 76.1381C62.6224 76.2453 62.8722 76.3133 63.1278 76.3395C63.3969 76.3713 63.6675 76.3872 63.9383 76.3873V76.8597H57.9107V76.3873C58.1775 76.3874 58.444 76.3715 58.7089 76.3395C58.9603 76.3121 59.2058 76.2441 59.4359 76.1381C59.6541 76.037 59.8408 75.8776 59.9755 75.6772C60.1166 75.4695 60.1877 75.1882 60.1877 74.8248V62.6375C60.2012 62.3425 60.1274 62.0501 59.9755 61.7976C59.8433 61.5918 59.6563 61.4277 59.4359 61.3241C59.2056 61.219 58.9602 61.1513 58.7089 61.1238C58.444 61.0919 58.1775 61.0759 57.9107 61.076V60.6026H63.9435V61.076C63.6726 61.0761 63.402 61.092 63.133 61.1238C62.8775 61.1503 62.6278 61.2179 62.3936 61.3241C62.1733 61.428 61.9864 61.592 61.8539 61.7976C61.7043 62.0508 61.6326 62.3431 61.648 62.6375V73.3579L72.4406 62.733V62.6375C72.4544 62.3426 72.3809 62.0502 72.2294 61.7976C72.0967 61.5922 71.9099 61.4283 71.6898 61.3241C71.4591 61.219 71.2134 61.1513 70.9617 61.1238C70.6969 61.0919 70.4303 61.0759 70.1636 61.076V60.6026H76.1726V61.076C75.9059 61.0759 75.6394 61.0918 75.3745 61.1238C75.1232 61.1512 74.8777 61.2188 74.6475 61.3241C74.4269 61.4279 74.2396 61.5919 74.1068 61.7976C73.9576 62.051 73.8859 62.3432 73.9008 62.6375V74.8248C73.9008 75.1882 73.9719 75.4716 74.1068 75.6772C74.2422 75.8774 74.4291 76.0368 74.6475 76.1381C74.8775 76.2443 75.123 76.3123 75.3745 76.3395C75.6394 76.3715 75.9059 76.3874 76.1726 76.3873V76.8597H70.1636V76.3873C70.4303 76.3874 70.6969 76.3715 70.9617 76.3395C71.2135 76.3121 71.4594 76.2441 71.6898 76.1381C71.9077 76.0364 72.0941 75.8771 72.2294 75.6772C72.3705 75.4695 72.4406 75.1882 72.4406 74.8248V64.1107L61.6428 74.7303V74.8248Z" fill="black"/>
<path d="M92.9094 73.143V75.6512C91.9925 76.1066 91.0243 76.4482 90.0259 76.6687C89.0315 76.8889 88.0163 76.9999 86.9982 76.9998C85.7802 77.0054 84.5687 76.8219 83.4062 76.4558C82.3136 76.1196 81.2942 75.5774 80.4022 74.8581C79.5336 74.1497 78.8304 73.2571 78.3425 72.2439C77.8338 71.2057 77.5794 69.9986 77.5794 68.6227C77.5657 67.447 77.812 66.283 78.3003 65.2153C78.7593 64.2141 79.4139 63.3165 80.225 62.5762C81.0478 61.8328 82.0037 61.2545 83.0416 60.8725C84.1342 60.467 85.2902 60.2627 86.4544 60.2693C86.9449 60.2648 87.435 60.2964 87.9209 60.3638C88.3328 60.4275 88.7201 60.4946 89.0826 60.5652C89.4451 60.6358 89.7883 60.6988 90.1124 60.7542C90.4774 60.8127 90.8467 60.8405 91.2164 60.8372C91.5162 60.8387 91.8152 60.8071 92.1082 60.7428C92.3897 60.6791 92.6869 60.6002 93 60.5061V63.8895H92.5778C91.8925 62.959 90.978 62.225 89.925 61.7602C88.8842 61.2929 87.7575 61.0516 86.6182 61.0521C85.6171 61.0359 84.6244 61.2377 83.7079 61.6439C82.8746 62.0182 82.127 62.5622 81.5123 63.2417C80.8985 63.933 80.4286 64.7415 80.1303 65.6192C79.4877 67.53 79.4877 69.6011 80.1303 71.5119C80.4319 72.4101 80.9018 73.2415 81.5144 73.9611C82.1203 74.6658 82.8634 75.2376 83.6976 75.6409C84.6035 76.0711 85.5953 76.286 86.5966 76.269C87.1514 76.2628 87.704 76.1953 88.2443 76.0675C88.8388 75.9336 89.4171 75.7352 89.9692 75.4758C90.5119 75.2215 91.0157 74.8904 91.4656 74.4926C91.891 74.1262 92.2248 73.6638 92.4398 73.143H92.9094Z" fill="black"/>
<path d="M52.0541 34.192C52.4461 34.192 52.8797 34.2003 53.3548 34.217L54.7904 34.2668L56.2012 34.3166C56.6595 34.3322 57.0848 34.3415 57.4772 34.3415H57.8706C59.9302 34.3415 61.5615 33.7882 61.4245 33.511C61.3503 33.3625 60.7716 33.7986 59.0971 33.7986C58.5733 33.7986 58.0456 33.7823 57.5143 33.7498C56.9829 33.7172 56.48 33.6677 56.0056 33.6013C55.9026 33.6013 55.8583 33.5764 55.8583 33.5266C55.8583 33.4933 55.9067 33.4611 56.0056 33.4279C56.6595 33.2628 61.0867 31.447 61.0867 27.1676C61.0867 23.6845 56.0663 24.867 56.0663 24.867C55.894 24.8836 55.7426 24.9002 55.6122 24.9168C55.4 24.95 55.3032 25.0082 55.2939 25.139C55.2394 25.5812 57.2002 24.7839 58.506 25.1047C59.1424 25.2615 59.8643 26.0453 59.8777 27.0088C59.75 31.1325 55.6739 33.2961 55.3547 33.3781C54.9727 33.4678 54.5811 33.5093 54.1889 33.5016C51.4723 33.4695 49.4662 33.4061 49.8575 33.9169C50.2488 34.4277 50.7534 34.1682 52.0541 34.192Z" fill="white"/>
<path d="M48.7401 20.1505C46.7655 20.6482 44.9308 21.597 43.3778 22.9235C42.4592 23.6949 41.4634 24.4195 40.482 25.2075C40.3677 25.3062 40.2616 25.4017 40.1627 25.492C40.0639 25.5823 39.9671 25.6685 39.8682 25.7515C40.081 25.3729 40.3141 24.9276 40.5674 24.4154C40.8208 23.9032 41.0868 23.3547 41.3656 22.7698C41.6436 22.1857 41.934 21.5839 42.2368 20.9644C42.5385 20.3415 42.9381 19.6407 42.9381 19.5909L42.3696 19.5452C42.1894 19.512 42.1503 19.5089 41.7085 19.4414C41.2667 19.3739 40.7024 19.2763 40.0155 19.1445L39.3409 19.0085C39.0546 18.9503 38.7436 18.8891 38.4089 18.8226C38.0742 18.7562 37.7334 18.7032 37.3904 18.6617C37.0891 18.6235 36.7858 18.6027 36.4821 18.5994C35.9462 18.5895 35.412 18.6648 34.8993 18.8226C34.4199 18.9898 33.9868 19.2695 33.6357 19.6387C31.9499 21.4264 32.7088 25.4214 33.059 26.4419C33.1115 26.5946 33.2773 26.6101 33.2516 26.3921C33.129 25.3799 32.4143 22.0784 34.0528 20.356C34.3037 20.1012 34.6171 19.9178 34.9611 19.8245C35.3195 19.7175 35.6913 19.6633 36.065 19.6636C36.7166 19.6624 37.3664 19.7321 38.0032 19.8712C38.6417 20.0096 39.2881 20.129 39.9423 20.2294C40.2856 20.2792 40.6289 20.3204 40.9722 20.3529C41.3151 20.3862 41.6673 20.4028 42.0267 20.4028C40.9238 23.1415 38.4697 28.0854 35.3328 31.0962C34.9724 31.4422 34.5948 31.7803 34.2 32.1105C33.656 32.5682 33.0485 32.9431 32.3968 33.2234C31.7755 33.5075 31.1027 33.6591 30.4206 33.6688C29.8368 33.6767 29.2586 33.554 28.7275 33.3096C28.2209 33.0708 27.8776 32.8196 27.6977 32.5559C27.534 32.3243 27.4269 32.5631 27.5257 32.6794C27.8647 33.1296 28.3242 33.4729 28.8501 33.6688C29.3714 33.8523 29.918 33.9525 30.47 33.9657C30.9286 33.9657 31.493 33.8585 32.163 33.6439C32.8331 33.4293 33.5856 33.0089 34.4204 32.3825C34.9424 31.9779 35.4308 31.531 35.8807 31.0463C36.3963 30.5023 36.879 29.9486 37.3286 29.3852C37.7787 28.8246 38.7148 27.5455 39.0145 27.1064C39.3141 26.6672 40.0443 34.4495 44.869 34.4495C45.8402 34.4495 47.3993 34.3519 49.4868 32.8663C50.3796 32.2309 51.2375 31.2986 52.0541 30.1265C52.8708 28.9544 53.7472 27.5954 54.6802 26.0453C55.1216 25.3027 55.5796 24.4614 56.054 23.5215C56.3176 23.0024 56.6657 22.2321 57.0107 21.4887C61.9806 22.5082 63.8075 20.8118 63.6623 19.5639C63.5449 18.5766 62.5367 18.2236 62.8179 18.6098C63.099 18.996 63.6005 20.001 62.7746 20.4547C61.9188 20.925 59.5821 20.7589 57.195 20.3695C53.2724 19.6802 50.9944 19.893 50.9944 19.893C50.9944 19.893 50.2282 19.7798 48.7401 20.1505ZM55.6472 21.1835C55.9561 21.2624 56.2486 21.3309 56.539 21.3911C56.2373 22.0317 55.9283 22.693 55.6863 23.1415C55.2284 23.9908 54.7742 24.8196 54.3239 25.628C53.8735 26.4364 53.4361 27.2074 53.0119 27.9411C52.5855 28.6751 52.2477 29.2451 51.809 29.9323C49.3714 33.4321 46.4096 33.6283 45.4931 33.6283C42.4654 33.6532 40.9238 30.7006 40.1565 26.6029C40.001 25.8709 40.2976 25.7412 40.517 25.5366C40.5499 25.4951 42.5076 23.9793 43.5498 23.1789C44.7609 22.2445 46.3077 21.5697 47.9956 21.1596C47.8078 21.2847 47.635 21.4314 47.4807 21.5967C47.1985 21.9081 47.0584 22.2023 47.0605 22.4792C47.079 22.7595 47.2328 22.9803 47.5219 23.1415C47.8109 23.3028 48.2396 23.3588 48.8081 23.3097C49.1487 23.273 49.4838 23.1953 49.806 23.0782C50.1705 22.9498 50.5236 22.7908 50.8616 22.6027C51.2008 22.4162 51.5242 22.202 51.8286 21.9621C52.0957 21.7594 52.3338 21.5204 52.5361 21.252C52.6679 21.0672 52.8172 20.5024 52.6885 20.381L55.6472 21.1835ZM57.195 20.0446L52.4897 21.0226C52.3683 21.1766 52.2182 21.3053 52.0479 21.4015C51.8175 21.5456 51.5765 21.672 51.3271 21.7794C51.0499 21.9029 50.7647 22.007 50.4733 22.0909C50.1012 22.2011 49.7229 22.2891 49.3405 22.3546C49.0284 22.4113 48.713 22.4477 48.3962 22.4636C47.8092 22.4636 47.5002 22.3269 47.4693 22.0535C47.4415 21.7794 47.7124 21.4763 48.3097 21.2022C49.666 20.5813 52.9717 20.2896 52.4897 21.0184L57.195 20.0446Z" fill="white" stroke="white" stroke-width="0.5"/>
</svg>
