<svg width="221" height="169" viewBox="0 0 221 169" fill="none" xmlns="http://www.w3.org/2000/svg">
<path d="M0 92.5331C0 90.0475 0 87.5321 0 85.0466C0.0900867 84.5674 0.210202 84.0883 0.240231 83.6092C0.660636 75.1943 2.43234 67.0191 5.195 59.0834C13.1226 36.4143 27.7767 20.0339 50.2383 10.9003C66.1236 4.432 82.7596 1.61708 99.756 0.568973C102.849 0.359352 105.912 0.179676 109.005 0C112.698 0 116.422 0 120.116 0C121.107 0.0898379 122.097 0.239568 123.058 0.239568C138.764 0.29946 154.349 1.22778 169.723 4.4919C183.296 7.36671 195.999 12.218 206.809 21.1718C210.803 24.4659 215.097 27.7 218.16 31.7727C230.021 47.4943 236.898 65.2523 238.459 84.9567C238.64 87.0829 238.82 89.209 239 91.3352C239 94.0303 239 96.7255 239 99.4206C238.91 99.9596 238.76 100.469 238.76 101.008C238.399 109.123 237.138 117.089 234.736 124.845C228.1 146.376 215.728 163.295 195.368 173.896C179.573 182.131 162.576 186.144 145.01 188.031C135.13 189.079 125.251 189.079 115.341 188.929C102.158 188.749 89.0357 188.001 76.0632 185.635C60.8986 182.88 46.8451 177.43 34.3831 168.236C22.5517 159.522 13.2427 148.831 7.95766 134.937C3.75361 123.827 1.47142 112.357 0.570549 100.559C0.360347 97.8934 0.180173 95.1982 0 92.5331ZM209.482 76.1825C208.16 76.8114 207.229 77.3804 206.208 77.7397C197.38 80.7942 188.581 83.9086 179.693 86.8134C170.924 89.6582 162.156 92.4133 154.018 96.7854C139.845 104.392 130.025 115.741 124.5 130.834C123.779 132.78 122.728 134.637 121.677 136.404C120.896 137.692 119.485 137.722 118.614 136.494C117.893 135.446 117.353 134.248 116.842 133.05C115.791 130.624 114.981 128.079 113.81 125.743C107.984 114.304 99.0653 105.739 88.5552 98.642C81.4384 93.8207 73.2705 91.6047 65.1627 89.209C56.3943 86.6037 47.6559 83.9386 38.9775 81.0637C35.7344 79.9857 32.7315 78.2189 29.3983 76.6317C29.2181 77.3504 28.9779 78.0392 28.8878 78.728C28.5875 81.3932 28.3773 84.0883 28.107 86.7834C27.2963 94.5394 27.7167 102.325 29.6385 109.812C32.1609 119.664 35.7944 129.187 40.4489 138.29C44.5629 146.376 49.5777 153.773 56.7546 159.522C65.1327 166.23 74.9822 169.374 85.3722 170.992C99.4857 173.178 113.749 173.896 128.013 173.747C141.646 173.597 155.039 171.8 167.862 166.859C182.275 161.289 193.897 152.305 201.013 138.44C209.061 122.778 212.725 106.039 211.373 88.4005C210.983 84.3578 210.112 80.345 209.482 76.1825ZM120.116 12.3976C108.735 12.4276 98.4347 13.1762 88.2549 15.2724C77.8049 17.4286 67.8053 20.8125 58.7666 26.622C51.1993 31.4732 44.8632 37.5223 40.9894 45.7874C39.9985 47.9136 40.1186 48.8119 42.1906 50.0098C46.5748 52.4953 50.899 55.1305 55.4934 57.1669C64.5922 61.2395 73.9311 64.833 83.0599 68.9057C94.0205 73.7869 103.45 80.7343 110.386 90.6764C112.849 94.21 115.131 97.8335 117.533 101.367C119.785 104.691 119.995 104.661 122.097 101.277C123.899 98.4025 125.611 95.4678 127.653 92.7726C132.668 86.1546 138.043 79.836 145.19 75.3141C153.718 69.9238 162.787 65.6416 172.186 62.048C181.254 58.5743 190.173 54.8311 198.311 49.4109C199.392 48.6922 199.512 48.1232 199.062 47.0152C197.23 42.673 194.467 38.9597 191.194 35.6058C182.876 27.0412 172.576 21.8007 161.345 18.1473C147.592 13.8051 133.448 12.4575 120.116 12.3976Z" fill="#9B2840"/>
</svg>
