<svg width="47" height="49" viewBox="0 0 47 49" fill="none" xmlns="http://www.w3.org/2000/svg">
<path d="M15.6069 9.59941C10.7458 9.49739 7.07106 9.20589 3.58438 7.82127C2.52825 7.3986 1.52999 6.75731 0.60407 6.10143C-0.0903718 5.60589 -0.191644 4.93544 0.329188 4.25042C0.864486 3.5654 1.52999 2.90953 2.26784 2.47228C4.19202 1.32087 6.36215 0.810743 8.56121 0.475521C13.6972 -0.296949 18.8042 -0.194925 23.81 1.27714C24.8661 1.58321 25.8644 2.09333 26.8482 2.58888C27.3111 2.82208 27.7596 3.17188 28.0924 3.5654C29.3077 4.99374 29.0183 5.66419 27.8464 6.50953C26.0669 7.8067 24.0125 8.44799 21.8858 8.79779C19.4408 9.22046 16.9524 9.43909 15.6069 9.59941Z" transform="translate(18.1238)" fill="#870C29"/>
<path d="M14.4597 9.54881C10.9007 9.50509 7.37065 9.21359 4.01418 7.97472C2.87124 7.55205 1.78618 6.9399 0.787918 6.25488C-0.181406 5.58444 -0.253743 4.79739 0.556439 3.90832C1.17854 3.2233 1.95979 2.64031 2.76997 2.20306C4.83883 1.10994 7.11023 0.643545 9.41057 0.352047C14.3151 -0.274674 19.1762 -0.128924 23.936 1.31399C24.9921 1.63464 25.9904 2.14476 26.9742 2.65488C27.4371 2.88808 27.8422 3.26703 28.2039 3.66055C29.1877 4.75367 29.1154 5.58444 27.9579 6.45893C26.3086 7.71237 24.37 8.36824 22.3735 8.70347C19.7693 9.15529 17.1362 9.40306 14.5176 9.75286C14.4742 9.67999 14.4742 9.60711 14.4597 9.54881Z" transform="translate(0 13.6782)" fill="#870C29"/>
<path d="M28.6659 8.89582e-07C28.6659 1.02024 28.7238 1.96761 28.637 2.88583C28.6081 3.23563 28.2753 3.61458 27.986 3.86235C26.7851 4.88259 25.3529 5.45102 23.8482 5.84454C17.1787 7.59353 10.5092 7.62267 3.91198 5.50931C2.74011 5.14494 1.69845 4.38705 0.613381 3.76032C0.164887 3.49798 -0.0376577 3.03158 0.0057449 2.46316C0.063615 1.67611 0.0202111 0.874495 0.0202111 8.89582e-07C4.46174 2.72551 9.35177 3.26478 14.3141 3.26478C19.262 3.27935 24.1521 2.74008 28.6659 8.89582e-07Z" transform="translate(0.118286 31.5786)" fill="#870C29"/>
<path d="M28.6876 -8.89582e-07C28.6876 1.00567 28.731 1.92389 28.6586 2.84211C28.6297 3.17733 28.3693 3.6 28.0944 3.7749C27.0527 4.4162 26.0111 5.14494 24.8681 5.50931C17.7212 7.73927 10.5453 7.73928 3.42725 5.34899C2.40006 4.99919 1.47413 4.32875 0.562679 3.70203C0.258861 3.4834 0.0852499 2.94413 0.0418474 2.52146C-0.0304903 1.70526 0.0129127 0.889068 0.0129127 -8.89582e-07C4.46891 2.74008 9.34447 3.27935 14.3068 3.27935C19.2981 3.26478 24.1882 2.74008 28.6876 -8.89582e-07Z" transform="translate(0.0960693 21.2739)" fill="#870C29"/>
<path d="M28.6876 4.44791e-07C28.6876 1.02024 28.7165 1.98219 28.6586 2.92956C28.6442 3.1919 28.3982 3.5417 28.1667 3.68745C27.0238 4.3579 25.9098 5.11579 24.6945 5.55304C21.2947 6.77733 17.7501 7.0834 14.1622 7.06883C10.5742 7.05425 7.02967 6.70446 3.65873 5.42186C2.5592 4.99919 1.532 4.31417 0.533744 3.6583C0.244393 3.46883 0.0852513 2.94413 0.0418487 2.55061C-0.030489 1.73441 0.0129141 0.903645 0.0129141 4.44791e-07C4.46891 2.71093 9.35894 3.26478 14.3502 3.26478C19.3415 3.2502 24.2171 2.69636 28.6876 4.44791e-07Z" transform="translate(0.0812988 26.4336)" fill="#870C29"/>
<path d="M28.6659 0.0145749C28.6659 1.03482 28.7093 2.01134 28.637 2.95871C28.6225 3.25021 28.3621 3.61458 28.1017 3.76033C27.0745 4.37247 26.0617 5.07207 24.9477 5.48016C20.7232 7.01053 16.3395 7.27288 11.9125 7.0251C9.12025 6.87936 6.34248 6.48583 3.70939 5.46559C2.6388 5.05749 1.655 4.4162 0.671211 3.8332C0.164847 3.5417 -0.0376968 3.04615 0.00570575 2.40486C0.0635759 1.63239 0.020172 0.859918 0.020172 -8.89582e-07C4.4617 2.72551 9.3662 3.26478 14.3575 3.26478C19.3054 3.27935 24.1954 2.74008 28.6659 0.0145749Z" transform="translate(0.118286 36.7231)" fill="#870C29"/>
<path d="M0.141394 -1.77916e-06C6.00074 4.25587 22.3056 4.47449 28.7148 -1.77916e-06C28.7148 1.04939 28.7726 2.02591 28.6858 3.00243C28.6569 3.33765 28.2807 3.76032 27.9625 3.93522C26.6314 4.63482 25.3004 5.42186 23.8681 5.85911C19.716 7.1417 15.4336 7.28745 11.1222 6.98138C8.44576 6.79191 5.81266 6.32551 3.30978 5.33441C3.19404 5.29069 3.09277 5.24697 2.97703 5.20324C0.170327 3.97895 -0.292632 3.14818 0.141394 -1.77916e-06Z" transform="translate(0.0535889 41.8828)" fill="#870C29"/>
<path d="M28.6602 0.0145745C28.6602 1.04939 28.7615 2.02591 28.6168 2.97328C28.5589 3.39595 28.0959 3.8915 27.6909 4.09555C26.273 4.79514 24.8552 5.56761 23.3506 5.99029C19.1261 7.18543 14.8003 7.30203 10.46 6.92308C10.2719 6.90851 10.0839 6.83563 9.91026 6.74818C7.42184 5.43644 4.73089 4.83887 1.96759 4.45992C0.737846 4.28502 8.83028e-07 3.4834 8.83028e-07 2.22996C8.83028e-07 1.51579 8.83028e-07 0.801619 8.83028e-07 -2.22395e-07C4.48494 2.71093 9.37496 3.27935 14.3373 3.26478C19.2997 3.26478 24.1752 2.72551 28.6602 0.0145745Z" transform="translate(18.2512 7.60254)" fill="#870C29"/>
<path d="M0.578702 6.99596C0.303819 5.75709 0.998261 4.43077 8.83028e-07 3.23563C5.81595 3.3085 11.4438 3.07531 16.6377 8.89582e-07C16.6377 1.03482 16.7245 2.04049 16.5943 3.03158C16.5509 3.39595 16.0734 3.7749 15.7262 4.03725C14.2795 5.13037 12.5723 5.68421 10.8362 6.10689C7.63886 6.9085 4.3692 7.1417 1.08507 7.03968C0.925923 7.03968 0.752313 7.01053 0.578702 6.99596Z" transform="translate(30.2605 12.7769)" fill="#870C29"/>
<path d="M16.0879 8.89582e-07C16.0879 1.00567 16.1602 1.92389 16.059 2.84211C16.0156 3.23563 15.6539 3.6583 15.3211 3.92065C14.048 4.97004 12.5144 5.52389 10.9664 5.94656C7.59545 6.87935 4.13771 7.15628 0.665507 7.06883C0.448494 7.06883 0.245948 7.0251 0 6.99595C0 5.75709 0 4.54737 0 3.27935C5.5266 3.27935 11.0243 3.04616 16.0879 8.89582e-07Z" transform="translate(30.822 28.2261)" fill="#870C29"/>
<path d="M16.059 0C16.059 1.04939 16.1458 2.04049 16.0156 3.00243C15.9577 3.39595 15.4947 3.84778 15.1041 4.05182C13.7586 4.73684 12.3987 5.46559 10.9664 5.88826C7.52312 6.92308 3.9641 7.1417 0.390622 7.05425C0.274881 7.05425 0.159144 7.02511 8.83028e-07 7.01053C8.83028e-07 5.75709 8.83028e-07 4.54737 8.83028e-07 3.27935C5.54107 3.2502 11.0387 3.01701 16.059 0Z" transform="translate(30.8386 17.936)" fill="#870C29"/>
<path d="M-8.83028e-07 6.96681C-8.83028e-07 5.71336 -8.83028e-07 4.51822 -8.83028e-07 3.2502C5.55553 3.26478 11.0387 2.98786 16.0734 0C16.0734 1.04939 16.1747 2.06964 16.03 3.04615C15.9722 3.45425 15.4513 3.90607 15.0318 4.11012C13.7297 4.76599 12.3987 5.43644 11.0243 5.87369C7.82694 6.86478 2.99478 7.27288 -8.83028e-07 6.96681Z" transform="translate(30.8073 23.1104)" fill="#870C29"/>
</svg>
