<svg width="805" height="152" viewBox="0 0 805 152" version="1.1" xmlns="http://www.w3.org/2000/svg" xmlns:xlink="http://www.w3.org/1999/xlink">
<g id="Canvas" fill="none">
<g id="Group">
<g id="Canvas_2">
<g id="MAZDA">
<path id="Vector" d="M 1.03851e-06 148.548L 1.03851e-06 -1.03908e-06L 28.5846 -1.03908e-06L 69.7368 89.8685L 109.533 -1.03908e-06L 138.857 -1.03908e-06L 138.857 148.548L 109.164 148.548L 109.164 64.1039L 69.1207 152L 29.0774 64.1039L 29.0774 148.548L 1.03851e-06 148.548ZM 178.949 148.548L 235.749 -1.03908e-06L 264.58 -1.03908e-06L 320.886 148.548L 288.359 148.548L 276.655 115.51L 222.442 115.51L 210.737 148.548L 178.949 148.548ZM 232.545 87.28L 266.551 87.28L 249.548 38.8323L 232.545 87.28ZM 356.42 148.548L 356.42 122.291L 436.137 27.2439L 360.609 27.2439L 360.609 -1.03908e-06L 472.36 -1.03908e-06L 472.36 26.3813L 393.506 121.427L 473.469 121.427L 473.469 148.548L 356.42 148.548ZM 519.598 148.548L 519.598 -1.03908e-06L 566.049 -1.03908e-06C 576.562 -1.03908e-06 586.337 1.35605 595.372 4.06814C 604.407 6.69804 612.211 10.9716 618.782 16.8891C 625.353 22.724 630.487 30.3668 634.183 39.8184C 637.961 49.2699 639.851 60.7755 639.851 74.3359C 639.851 83.0476 638.865 90.9373 636.894 98.005C 634.922 104.991 632.171 111.237 628.638 116.743C 625.106 122.249 620.918 127.016 616.071 131.043C 611.307 134.988 606.091 138.275 600.424 140.905C 594.838 143.535 588.924 145.466 582.682 146.699C 576.439 147.932 570.155 148.548 563.831 148.548L 519.598 148.548ZM 549.292 119.701L 563.831 119.701C 571.634 119.701 578.369 118.633 584.037 116.496C 589.787 114.277 594.51 111.195 598.206 107.25C 601.902 103.223 604.654 98.416 606.461 92.8273C 608.35 87.2386 609.295 81.0748 609.295 74.3359C 609.295 66.6924 608.432 60.077 606.707 54.4883C 605.065 48.8175 602.436 44.0921 598.822 40.3114C 595.29 36.4486 590.731 33.6132 585.146 31.8052C 579.56 29.9152 572.825 28.9698 564.94 28.9698L 549.292 28.9698L 549.292 119.701ZM 663.064 148.548L 719.866 -1.03908e-06L 748.695 -1.03908e-06L 805 148.548L 772.47 148.548L 760.772 115.51L 706.555 115.51L 694.85 148.548L 663.064 148.548ZM 716.663 87.28L 750.664 87.28L 733.66 38.8323L 716.663 87.28Z" fill="#EFEFEF"/>
</g>
</g>
</g>
</g>
</svg>
