<svg width="46" height="46" viewBox="0 0 46 46" version="1.1" xmlns="http://www.w3.org/2000/svg" xmlns:xlink="http://www.w3.org/1999/xlink">
<g id="Canvas" fill="none">
<g id="if_Car-Accessories_11_2178860">
<g id="Group">
<path id="Vector" d="M 23 0C 10.3174 0 0 10.3181 0 23C 0 25.2132 0.324968 27.3945 0.943 29.4949C 0.336839 30.9194 0 32.4856 0 34.129C 0 40.6744 5.32561 46 11.871 46C 13.5144 46 15.0798 45.6639 16.5044 45.057C 18.607 45.675 20.7875 46 23 46C 35.6826 46 46 35.6819 46 23C 46 10.3181 35.6826 0 23 0ZM 1.48387 34.129C 1.48387 28.4013 6.14323 23.7419 11.871 23.7419C 17.5987 23.7419 22.2581 28.4013 22.2581 34.129C 22.2581 39.8568 17.5987 44.5161 11.871 44.5161C 6.14323 44.5161 1.48387 39.8568 1.48387 34.129ZM 5.20394 23.7419L 6.13729 23.7419C 5.82345 23.9155 5.51703 24.101 5.221 24.3014C 5.21358 24.1107 5.20839 23.9222 5.20394 23.7419ZM 22.2581 40.7768C 22.077 40.7694 21.896 40.7679 21.7157 40.7553C 21.9101 40.4674 22.0889 40.1684 22.2581 39.8635L 22.2581 40.7768ZM 23 44.5161C 21.4516 44.5161 19.9202 44.3433 18.423 44.019C 19.231 43.4819 19.9625 42.8423 20.6162 42.1293C 21.4048 42.2258 22.2017 42.2903 23 42.2903C 29.9067 42.2903 36.3281 38.5614 39.7596 32.5584L 38.4716 31.8224C 38.269 32.1763 38.0546 32.5213 37.8305 32.8581L 34.8405 30.6857L 33.968 31.8862L 36.9506 34.0526C 36.0922 35.1329 35.1188 36.1026 34.0504 36.9476L 31.8862 33.968L 30.6865 34.8405L 32.8522 37.8216C 31.7118 38.5784 30.4846 39.1979 29.1996 39.6772L 28.0622 36.1775L 26.6511 36.636L 27.7907 40.1424C 26.4819 40.5097 25.1249 40.7234 23.7419 40.7812L 23.7419 37.0968L 23.3509 37.0968C 23.5973 36.1464 23.7419 35.1551 23.7419 34.129C 23.7419 27.5837 18.4163 22.2581 11.871 22.2581C 10.8449 22.2581 9.85365 22.4027 8.90323 22.6491L 8.90323 22.2581L 5.2121 22.2581C 5.26997 20.861 5.49032 19.5062 5.85313 18.2093L 9.36248 19.3497L 9.82174 17.9385L 6.30942 16.7967C 6.79168 15.5027 7.42084 14.28 8.17613 13.1471L 11.1587 15.3143L 12.0312 14.1138L 9.05235 11.9496C 9.9041 10.8768 10.8768 9.9041 11.9496 9.05235L 14.1138 12.032L 15.3135 11.1595L 13.1471 8.17687C 14.2793 7.42158 15.502 6.79242 16.7967 6.31016L 17.9385 9.82248L 19.3497 9.36397L 18.2093 5.85387C 19.5055 5.49106 20.861 5.26997 22.2581 5.2121L 22.2581 8.90323L 23.7419 8.90323L 23.7419 5.2121C 25.139 5.26997 26.4945 5.49032 27.7907 5.85313L 26.6496 9.36323L 28.0607 9.82174L 29.2026 6.30942C 30.4965 6.79168 31.7192 7.42084 32.8522 8.17613L 30.6857 11.1587L 31.8854 12.0312L 34.0496 9.05161C 35.1225 9.90335 36.0952 10.8753 36.9469 11.9489L 33.968 14.1131L 34.8405 15.3135L 37.8231 13.1464C 38.5784 14.2785 39.2076 15.5013 39.6898 16.7959L 36.1775 17.9378L 36.6368 19.3489L 40.1461 18.2086C 40.5089 19.5055 40.73 20.8603 40.7872 22.2573L 37.0968 22.2573L 37.0968 23.7412L 40.7872 23.7412C 40.7308 25.1242 40.5208 26.4782 40.1535 27.7929L 36.6368 26.6496L 36.1775 28.0607L 39.6913 29.2026C 39.5429 29.6003 39.3856 29.9942 39.2083 30.383L 40.5572 30.9995C 41.7072 28.4829 42.2903 25.7912 42.2903 23C 42.2903 12.3636 33.6371 3.70968 23 3.70968C 12.3629 3.70968 3.70968 12.3636 3.70968 23C 3.70968 23.621 3.73861 24.6664 3.79352 25.4543C 3.11168 26.0902 2.49884 26.798 1.98097 27.577C 1.65674 26.0805 1.48387 24.5492 1.48387 23C 1.48387 11.1357 11.1365 1.48387 23 1.48387C 34.8635 1.48387 44.5161 11.1357 44.5161 23C 44.5161 34.8643 34.8635 44.5161 23 44.5161Z" fill="#3F3A34"/>
<path id="Vector_2" d="M 4.46571 6.88071C 4.02426 6.61955 3.51677 6.46003 2.96774 6.46003C 1.33103 6.46003 0 7.79106 0 9.42777C 0 11.0645 1.33103 12.3955 2.96774 12.3955C 4.60445 12.3955 5.93548 11.0645 5.93548 9.42777C 5.93548 8.87874 5.77597 8.37126 5.51481 7.92981L 12.3955 1.0491L 11.3464 -5.4341e-07L 4.46571 6.88071ZM 2.96774 10.9116C 2.14939 10.9116 1.48387 10.2461 1.48387 9.42777C 1.48387 8.60942 2.14939 7.9439 2.96774 7.9439C 3.7861 7.9439 4.45161 8.60942 4.45161 9.42777C 4.45161 10.2461 3.7861 10.9116 2.96774 10.9116Z" transform="translate(20.0322 13.5721)" fill="#3F3A34"/>
<path id="Vector_3" d="M 8.90323 0C 3.99384 0 0 3.99384 0 8.90323C 0 13.8126 3.99384 17.8065 8.90323 17.8065C 13.8126 17.8065 17.8065 13.8126 17.8065 8.90323C 17.8065 3.99384 13.8126 0 8.90323 0ZM 13.8356 14.4299L 12.5558 12.6685L 11.3561 13.5411L 12.6374 15.3039C 11.7411 15.8292 10.7291 16.1764 9.6459 16.2847L 9.6459 14.0968L 8.16203 14.0968L 8.16203 16.2847C 7.07806 16.1764 6.06681 15.8285 5.17055 15.3039L 6.45187 13.5411L 5.25216 12.6685L 3.97232 14.4299C 3.18661 13.728 2.54929 12.8652 2.11748 11.888L 4.19416 11.2129L 3.73639 9.80171L 1.65748 10.4776C 1.54545 9.97013 1.48387 9.4441 1.48387 8.90323C 1.48387 8.36236 1.54545 7.83632 1.656 7.3281L 3.7349 8.004L 4.19268 6.59284L 2.116 5.91768C 2.54706 4.94129 3.18439 4.07842 3.97084 3.37581L 5.25068 5.13716L 6.45039 4.26465L 5.16906 2.50181C 6.06532 1.97652 7.07732 1.62929 8.16055 1.52097L 8.16055 3.70968L 9.64442 3.70968L 9.64442 1.52171C 10.7284 1.63003 11.7396 1.978 12.6359 2.50255L 11.3546 4.26539L 12.5543 5.1379L 13.8341 3.37655C 14.6198 4.07842 15.2579 4.94129 15.689 5.91842L 13.6123 6.59358L 14.0701 8.00474L 16.149 7.32884C 16.261 7.83632 16.3226 8.36236 16.3226 8.90323C 16.3226 9.4441 16.261 9.97013 16.1505 10.4784L 14.0715 9.80245L 13.6138 11.2136L 15.6905 11.8888C 15.2586 12.8652 14.6213 13.728 13.8356 14.4299Z" transform="translate(2.96777 25.2258)" fill="#3F3A34"/>
<path id="Vector_4" d="M 2.81935 1.92903C 2.76 1.92903 2.70435 1.93942 2.64723 1.9461L 1.1871 1.1321e-06L -1.41513e-07 0.890321L 1.45494 2.83048C 1.37852 3.00929 1.33548 3.2059 1.33548 3.4129C 1.33548 4.23126 2.001 4.89677 2.81935 4.89677C 3.63771 4.89677 4.30323 4.23126 4.30323 3.4129C 4.30323 2.59455 3.63771 1.92903 2.81935 1.92903Z" transform="translate(9.05176 30.7161)" fill="#3F3A34"/>
</g>
</g>
</g>
</svg>
