<?xml version="1.0" encoding="utf-8"?>
<!-- Generator: Adobe Illustrator 21.1.0, SVG Export Plug-In . SVG Version: 6.00 Build 0)  -->
<svg version="1.1" id="Слой_1" xmlns="http://www.w3.org/2000/svg" xmlns:xlink="http://www.w3.org/1999/xlink" x="0px" y="0px"
	 viewBox="0 0 13 13" style="enable-background:new 0 0 13 13;" xml:space="preserve">
<path d="M5.2,10.6c-0.7,0-1.2,0.5-1.2,1.2C4,12.5,4.5,13,5.2,13c0.7,0,1.2-0.5,1.2-1.2C6.4,11.2,5.9,10.6,5.2,10.6z M5.2,12.4
	c-0.3,0-0.6-0.3-0.6-0.6c0-0.3,0.3-0.6,0.6-0.6c0.3,0,0.6,0.3,0.6,0.6C5.8,12.1,5.5,12.4,5.2,12.4z" fill="#fff"/>
<path d="M10.7,10.6c-0.7,0-1.2,0.5-1.2,1.2c0,0.6,0.5,1.2,1.2,1.2c0.7,0,1.2-0.5,1.2-1.2C11.9,11.2,11.3,10.6,10.7,10.6z M10.7,12.4
	c-0.3,0-0.6-0.3-0.6-0.6c0-0.3,0.3-0.6,0.6-0.6c0.3,0,0.6,0.3,0.6,0.6C11.3,12.1,11,12.4,10.7,12.4z" fill="#fff"/>
<path d="M12.8,2.1c-0.2-0.2-0.4-0.3-0.7-0.3H3.3l-0.2-1C3,0.3,2.7,0,2.2,0H0v0.6h2.2c0.2,0,0.3,0.1,0.3,0.3l1.4,8.5
	C4,9.8,4.4,10,4.8,10h6.8V9.5H4.8c-0.2,0-0.3-0.1-0.3-0.3L4.4,8.3h7c0.5,0,0.8-0.3,0.9-0.8L13,2.8C13,2.5,13,2.3,12.8,2.1z M7.6,5.3
	v2.4H6.4L6,5.3H7.6z M5.9,4.7L5.6,2.4h2.1v2.4H5.9z M8.2,5.3h1.6L9.5,7.7H8.2V5.3z M8.2,4.7V2.4h2.1L9.9,4.7H8.2z M4.9,2.4l0.4,2.4
	H3.8L3.4,2.4H4.9z M3.9,5.3h1.5l0.4,2.4H4.3L3.9,5.3z M11.7,7.4c0,0.1-0.2,0.3-0.3,0.3h-1.2l0.4-2.4H12L11.7,7.4z M12.4,2.7l-0.3,2
	h-1.5l0.4-2.4h1.1c0.1,0,0.2,0,0.2,0.1C12.4,2.5,12.4,2.6,12.4,2.7z" fill="#fff"/>
</svg>
