<svg width="104" height="34" viewBox="0 0 104 34" fill="none" xmlns="http://www.w3.org/2000/svg">
<path d="M22.7683 27.5523C22.5979 27.5523 22.4598 27.6871 22.4598 27.8534C22.4598 28.0196 22.5979 28.1544 22.7683 28.1544C22.9386 28.1544 23.0768 28.0196 23.0768 27.8534C23.0768 27.6871 22.9386 27.5523 22.7683 27.5523ZM22.7683 25.5368C22.3664 25.5368 22.0406 25.8547 22.0406 26.2469C22.0406 26.6392 22.3664 26.9571 22.7683 26.9571C23.1702 26.9571 23.4961 26.6392 23.4961 26.2469C23.4961 25.8547 23.1702 25.5368 22.7683 25.5368ZM21.7313 24.1068C21.8026 24.0738 21.8758 24.0439 21.9508 24.0178V21.5794C21.2201 21.7004 20.5451 21.9809 19.9645 22.3827L21.7313 24.1068ZM22.7683 18.4939C18.3806 18.4939 14.8237 21.9651 14.8237 26.2469C14.8237 30.5288 18.3805 34 22.7683 34C27.1561 34 30.7129 30.5288 30.7129 26.2469C30.7129 21.9651 27.1561 18.4939 22.7683 18.4939ZM22.7683 31.785C19.6342 31.785 17.0936 29.3056 17.0936 26.2469C17.0936 23.1885 19.6342 20.709 22.7683 20.709C25.9024 20.709 28.443 23.1884 28.443 26.2469C28.443 29.3056 25.9024 31.785 22.7683 31.785ZM23.5857 28.4763V30.9146C24.3165 30.7936 24.9915 30.5132 25.572 30.1113L23.8053 28.3872C23.734 28.4202 23.6608 28.4502 23.5857 28.4763ZM25.0525 25.4492H27.5514C27.4273 24.7361 27.1401 24.0773 26.7283 23.5108L24.9617 25.2348C24.9954 25.3046 25.0256 25.3762 25.0525 25.4492ZM24.9614 27.259L26.7282 28.9831C27.14 28.4166 27.4274 27.7578 27.5513 27.0446H25.0527C25.0258 27.1178 24.9952 27.1893 24.9614 27.259ZM19.9647 30.1112C20.5452 30.5131 21.2201 30.7936 21.9509 30.9146V28.4763C21.8759 28.4501 21.8029 28.4201 21.7315 28.3871L19.9647 30.1112ZM24.1059 26.2469C24.1059 26.4132 24.2441 26.548 24.4144 26.548C24.5848 26.548 24.7229 26.4132 24.7229 26.2469C24.7229 26.0807 24.5848 25.9459 24.4144 25.9459C24.2441 25.9459 24.1059 26.0806 24.1059 26.2469ZM25.5719 22.3828C24.9914 21.981 24.3165 21.7004 23.5857 21.5794V24.0178C23.6607 24.0439 23.7337 24.074 23.8051 24.1069L25.5719 22.3828ZM22.7683 24.9417C22.9386 24.9417 23.0768 24.8069 23.0768 24.6406C23.0768 24.4744 22.9386 24.3396 22.7683 24.3396C22.5979 24.3396 22.4598 24.4744 22.4598 24.6406C22.4598 24.8069 22.5979 24.9417 22.7683 24.9417ZM20.4842 27.0448H17.9853C18.1093 27.7579 18.3965 28.4167 18.8084 28.9832L20.5751 27.2592C20.5413 27.1894 20.5111 27.1178 20.4842 27.0448ZM20.5753 25.235L18.8086 23.5109C18.3967 24.0774 18.1093 24.7362 17.9854 25.4494H20.4841C20.5109 25.376 20.5415 25.3047 20.5753 25.235ZM21.4308 26.2469C21.4308 26.0807 21.2927 25.9459 21.1223 25.9459C20.952 25.9459 20.8137 26.0807 20.8137 26.2469C20.8137 26.4132 20.9518 26.548 21.1223 26.548C21.2927 26.548 21.4308 26.4132 21.4308 26.2469ZM85.5777 25.5368C85.1758 25.5368 84.85 25.8547 84.85 26.2469C84.85 26.6392 85.1758 26.9571 85.5777 26.9571C85.9797 26.9571 86.3054 26.6392 86.3054 26.2469C86.3054 25.8547 85.9797 25.5368 85.5777 25.5368ZM85.5777 27.5523C85.4074 27.5523 85.2692 27.6871 85.2692 27.8534C85.2692 28.0196 85.4074 28.1544 85.5777 28.1544C85.7481 28.1544 85.8862 28.0196 85.8862 27.8534C85.8862 27.6871 85.7481 27.5523 85.5777 27.5523ZM87.862 25.4492H90.3609C90.2367 24.7361 89.9495 24.0773 89.5377 23.5108L87.771 25.2348C87.8047 25.3046 87.835 25.3762 87.862 25.4492ZM85.5777 18.4939C81.1901 18.4939 77.6331 21.9651 77.6331 26.2469C77.6331 30.5288 81.1901 34 85.5777 34C89.9654 34 93.5224 30.5288 93.5224 26.2469C93.5224 21.9651 89.9654 18.4939 85.5777 18.4939ZM85.5777 31.785C82.4437 31.785 79.903 29.3056 79.903 26.2469C79.903 23.1885 82.4436 20.709 85.5777 20.709C88.7118 20.709 91.2525 23.1884 91.2525 26.2469C91.2523 29.3056 88.7118 31.785 85.5777 31.785ZM87.7707 27.259L89.5375 28.9831C89.9493 28.4166 90.2366 27.7578 90.3606 27.0446H87.862C87.8353 27.1178 87.8046 27.1893 87.7707 27.259ZM103.343 21.9518C103.196 21.7401 102.772 21.646 102.647 21.4428C102.481 21.171 102.487 20.6202 102.358 20.3119C101.274 17.729 100.08 16.9379 98.533 16.014C96.3605 14.7167 94.0413 14.1799 91.4634 13.243C91.5876 13.2882 87.5758 12.2218 86.5958 12.0555C85.9932 11.8627 83.8182 11.2492 83.2928 11.4334C82.7152 10.8512 81.696 10.5649 80.9748 10.1328C79.8107 9.43511 78.6104 8.68387 77.44 7.98392C76.8145 7.60968 76.1563 7.3964 75.5278 7.0225C73.9011 6.05466 70.3125 4.47773 70.3125 4.47773C70.3125 4.47773 57.0803 -2.79611 10.4524 1.19779C9.88932 1.25125 9.19641 1.21385 8.77201 1.48059C8.71405 1.49941 8.65609 1.51822 8.59813 1.53703C8.60836 1.97472 8.81727 3.35237 8.59813 3.68588C8.53194 4.1885 7.53701 4.96337 7.20737 5.32591C6.43898 6.171 5.63191 7.08136 4.94746 7.9838C4.63287 8.39855 4.33249 8.98652 3.90433 9.28447C3.7696 9.41561 3.00721 10.5085 2.68744 10.9809C2.38425 11.4288 1.78726 12.5526 1.64431 13.0732C1.34864 14.1506 1.75834 15.5117 1.9341 16.3532C1.9475 16.4173 1.90659 18.1459 1.9341 18.898C1.73765 19.5864 1.28551 20.3307 1.00689 20.9904C0.695579 21.7275 0.631743 22.3118 0.0218284 22.7434C-0.0577615 24.2929 0.0558036 25.7362 0.775169 26.6454C1.20662 27.1907 2.8619 29.6991 2.8619 29.6991H15.0362C14.5426 28.6478 14.267 27.4788 14.267 26.2468C14.267 21.6651 18.073 17.951 22.7678 17.951C27.4628 17.951 31.2687 21.6651 31.2687 26.2468C31.2687 27.4788 30.9931 28.6478 30.4996 29.6991H77.8455C77.3519 28.6478 77.0763 27.4788 77.0763 26.2468C77.0763 21.6651 80.8823 17.951 85.5772 17.951C90.2721 17.951 94.0781 21.6651 94.0781 26.2468C94.0781 27.4788 93.8025 28.6478 93.3089 29.6991H99.5178C99.5178 29.6991 104.553 29.4182 102.705 28.0591C102.904 27.6037 102.936 26.9225 103.285 26.4757C103.386 26.4039 103.593 26.3751 103.748 26.3626C104.298 25.2068 103.849 22.6809 103.343 21.9518ZM9.93094 9.90664C9.93094 9.90664 10.5625 9.32979 10.8582 9.1149C11.7018 8.50169 12.4778 7.80449 13.3499 7.19219C14.7277 6.22492 16.3797 4.80367 17.9857 4.13848C19.024 3.70848 20.2162 3.7982 21.4625 3.51643C22.4476 3.29386 23.6766 3.34457 24.7076 3.12062C24.5938 3.12062 27.3153 3.00761 27.1993 3.00761C27.0834 3.00761 28.9162 2.83162 29.6911 2.83793C29.6911 5.66528 30.0388 7.8147 30.0388 10.6418C16.6783 10.0554 9.93094 9.90664 9.93094 9.90664ZM33.8054 10.5287L33.2838 2.66813C33.2838 2.66813 37.6353 2.315 41.86 2.30112C46.1815 2.28678 50.3783 2.61157 50.3783 2.61157L51.2477 11.4335L33.8054 10.5287ZM55.9993 11.7727C55.9993 11.7727 54.6665 2.7793 54.6665 2.7232C54.6665 2.66699 62.5284 3.72328 65.7925 5.04322C66.9497 5.51108 68.3389 6.00212 69.3854 6.62669C69.9378 6.95642 71.2978 7.64456 71.2978 7.64456L71.6454 13.0168L55.9993 11.7727ZM84.5408 24.1068C84.6121 24.0738 84.6853 24.0439 84.7603 24.0178V21.5794C84.0295 21.7004 83.3546 21.9809 82.774 22.3827L84.5408 24.1068ZM86.3951 28.4763V30.9146C87.1259 30.7936 87.8008 30.5132 88.3815 30.1113L86.6149 28.3872C86.5434 28.4202 86.4703 28.4502 86.3951 28.4763ZM86.9153 26.2469C86.9153 26.4132 87.0535 26.548 87.2238 26.548C87.3942 26.548 87.5322 26.4132 87.5322 26.2469C87.5322 26.0807 87.3942 25.9459 87.2238 25.9459C87.0535 25.9459 86.9153 26.0806 86.9153 26.2469ZM84.2402 26.2469C84.2402 26.0807 84.1021 25.9459 83.9317 25.9459C83.7614 25.9459 83.6232 26.0807 83.6232 26.2469C83.6232 26.4132 83.7614 26.548 83.9317 26.548C84.1021 26.548 84.2402 26.4132 84.2402 26.2469ZM85.5777 24.9417C85.7481 24.9417 85.8862 24.8069 85.8862 24.6406C85.8862 24.4744 85.7481 24.3396 85.5777 24.3396C85.4074 24.3396 85.2692 24.4744 85.2692 24.6406C85.2692 24.8069 85.4074 24.9417 85.5777 24.9417ZM88.3814 22.3828C87.8008 21.981 87.1258 21.7004 86.3951 21.5794V24.0178C86.4701 24.0439 86.5433 24.074 86.6145 24.1069L88.3814 22.3828ZM82.7741 30.1112C83.3546 30.5131 84.0295 30.7936 84.7603 30.9146V28.4763C84.6852 28.4501 84.6122 28.4201 84.5408 28.3871L82.7741 30.1112ZM83.2935 27.0448H80.7946C80.9187 27.7579 81.2059 28.4167 81.6177 28.9832L83.3844 27.2592C83.3507 27.1894 83.3204 27.1178 83.2935 27.0448ZM83.3847 25.235L81.618 23.5109C81.2062 24.0774 80.9188 24.7362 80.7948 25.4494H83.2935C83.3203 25.376 83.351 25.3047 83.3847 25.235Z" fill="#870C29"/>
</svg>
