<svg width="30" height="31" viewBox="0 0 30 31" fill="none" xmlns="http://www.w3.org/2000/svg">
<rect width="29.9998" height="31" fill="black" fill-opacity="0"/>
<rect width="29.9975" height="24.5116" fill="black" fill-opacity="0"/>
<rect width="29.9975" height="24.5116" fill="black" fill-opacity="0"/>
<path d="M27.8549 0H2.14268C0.959319 0 0 0.968319 0 2.16278V22.3488C0 23.5433 0.959319 24.5116 2.14268 24.5116H17.1415V23.0697H2.14268C1.74823 23.0697 1.42843 22.7469 1.42843 22.3488V2.16278C1.42843 1.76463 1.74823 1.44183 2.14268 1.44183H27.8549C28.2493 1.44183 28.5691 1.76463 28.5691 2.16278V13.6977H29.9975V2.16278C29.9975 0.968319 29.0382 0 27.8549 0Z" fill="#2D9CDB"/>
<rect width="24.2837" height="18.7441" fill="black" fill-opacity="0" transform="translate(2.85938 2.88373)"/>
<rect width="24.2837" height="18.7441" fill="black" fill-opacity="0" transform="translate(2.85938 2.88373)"/>
<path d="M25.7146 2.88373H4.28781C3.4989 2.88373 2.85938 3.52925 2.85938 4.32556V20.186C2.85938 20.9823 3.4989 21.6278 4.28781 21.6278H15.7155V20.186H4.28781V4.32556H25.7146V11.5349H27.1431V4.32556C27.1431 3.52925 26.5035 2.88373 25.7146 2.88373Z" fill="#2D9CDB"/>
<rect width="12.8596" height="18.0233" fill="black" fill-opacity="0" transform="translate(17.1406 12.9767)"/>
<rect width="12.8596" height="18.0233" fill="black" fill-opacity="0" transform="translate(17.1406 12.9767)"/>
<path d="M29.3317 16.5824C28.2471 14.3718 26.0135 12.9741 23.5697 12.9767C20.0227 12.9729 17.1443 15.8723 17.1406 19.4525C17.1381 21.9193 18.5227 24.1738 20.7128 25.2685V30.279C20.7127 30.6771 21.0325 30.9999 21.4269 31C21.5681 31 21.706 30.9578 21.8235 30.8787L23.5697 29.7022L25.316 30.8773C25.6441 31.0983 26.0877 31.0089 26.3066 30.6777C26.3846 30.5597 26.4264 30.4209 26.4267 30.279V25.2685C29.6051 23.6796 30.9058 19.7907 29.3317 16.5824ZM24.9981 28.9323L23.9661 28.2373C23.7261 28.0757 23.4133 28.0757 23.1733 28.2373L22.1412 28.9323V25.9534H24.9982V28.9323H24.9981ZM23.5697 24.5116C20.8085 24.5116 18.5701 22.2522 18.5701 19.465C18.5701 16.678 20.8084 14.4185 23.5697 14.4185C26.3309 14.4185 28.5693 16.6779 28.5693 19.465C28.5661 22.2508 26.3296 24.5084 23.5697 24.5116Z" fill="#2D9CDB"/>
<rect width="7.14223" height="7.20924" fill="black" fill-opacity="0" transform="translate(19.9961 15.8604)"/>
<rect width="7.14223" height="7.20924" fill="black" fill-opacity="0" transform="translate(19.9961 15.8604)"/>
<path d="M23.5672 15.8604C21.5949 15.8604 19.9961 17.4743 19.9961 19.465C19.9961 21.4558 21.5949 23.0696 23.5672 23.0696C25.5395 23.0696 27.1383 21.4558 27.1383 19.465C27.136 17.4752 25.5385 15.8628 23.5672 15.8604ZM23.5672 21.6278C22.3838 21.6278 21.4245 20.6595 21.4245 19.465C21.4245 18.2706 22.3838 17.3022 23.5672 17.3022C24.7506 17.3022 25.7099 18.2706 25.7099 19.465C25.7099 20.6595 24.7506 21.6278 23.5672 21.6278Z" fill="#2D9CDB"/>
<rect width="5.7138" height="1.44183" fill="black" fill-opacity="0" transform="translate(11.4258 7.20929)"/>
<rect width="5.7138" height="1.44183" fill="black" fill-opacity="0" transform="translate(11.4258 7.20929)"/>
<path d="M17.1396 7.20929H11.4258V8.65112H17.1396V7.20929Z" fill="#2D9CDB"/>
<rect width="12.8561" height="1.44183" fill="black" fill-opacity="0" transform="translate(7.85547 10.8139)"/>
<rect width="12.8561" height="1.44183" fill="black" fill-opacity="0" transform="translate(7.85547 10.8139)"/>
<path d="M20.7116 10.8139H7.85547V12.2557H20.7116V10.8139Z" fill="#2D9CDB"/>
</svg>
