<svg width="93" height="37" viewBox="0 0 93 37" fill="none" xmlns="http://www.w3.org/2000/svg">
<path d="M0 0H91.2977V30.9899H45.6489V36.1548H25.3605V30.9899H0V0ZM5.0721 25.8249H15.2163V10.33H20.2884V25.8249H25.3605V5.16498H5.0721V25.8249ZM30.4326 5.16498V30.9899H40.5768V25.8249H50.721V5.16498H30.4326ZM40.5768 10.33H45.6489V20.6599H40.5768V10.33ZM55.793 5.16498V25.8249H65.9372V10.33H71.0093V25.8249H76.0814V10.33H81.1535V25.8249H86.2256V5.16498H55.793Z" transform="translate(0.960938 0.0981445)" fill="#CB3837"/>
<path d="M0 20.6599H10.1442V5.16498H15.2163V20.6599H20.2884V0H0V20.6599Z" transform="translate(6.03125 5.26318)" fill="white"/>
<path d="M0 0V25.8249H10.1442V20.6599H20.2884V0H0ZM15.2163 15.4949H10.1442V5.16498H15.2163V15.4949Z" transform="translate(31.3926 5.26318)" fill="white"/>
<path d="M0 0V20.6599H10.1442V5.16498H15.2163V20.6599H20.2884V5.16498H25.3605V20.6599H30.4326V0H0Z" transform="translate(56.752 5.26318)" fill="white"/>
</svg>
