<svg width="51" height="36" viewBox="0 0 51 36" fill="none" xmlns="http://www.w3.org/2000/svg">
<path d="M50.3114 16.5507C49.9511 16.1817 45.3279 10.2169 44.5474 9.23302C43.7068 8.24913 43.3466 8.43361 42.8062 8.4951C42.2658 8.5566 36.4418 9.60198 35.7813 9.66347C35.1209 9.78646 34.7006 10.0324 35.1209 10.6474C35.4811 11.2008 39.3238 16.7352 40.1644 18.0265L24.8538 21.7776L12.7254 0.931445C12.2451 0.193527 12.125 -0.0524458 11.0443 0.00904733C9.96351 0.0705405 1.49766 0.808458 0.897248 0.808458C0.296833 0.869951 -0.363623 1.11592 0.236792 2.59176C0.837207 4.0676 10.4438 25.2212 10.684 25.8362C10.9242 26.4511 11.6447 27.435 13.2658 27.066C14.947 26.6356 20.7109 25.0983 23.8931 24.2374C25.5743 27.312 28.9366 33.5843 29.5971 34.5067C30.4377 35.7366 31.0381 35.4906 32.2989 35.1216C33.3196 34.8142 48.0298 29.4028 48.6903 29.0953C49.3507 28.7878 49.771 28.6034 49.2907 27.9269C48.9304 27.435 45.0878 22.0851 43.0464 19.3179C44.4273 18.9489 49.4108 17.5961 49.9511 17.4116C50.5515 17.2271 50.6716 16.9197 50.3114 16.5507ZM22.5122 22.3926C22.3321 22.4541 13.7461 24.5448 13.3258 24.6678C12.8455 24.7908 12.8455 24.7293 12.8455 24.5448C12.7254 24.3603 2.63845 2.96072 2.45833 2.71475C2.33824 2.46877 2.33824 2.2228 2.45833 2.2228C2.57841 2.2228 10.5639 1.48488 10.8041 1.48488C11.1043 1.48488 11.0443 1.54638 11.1643 1.73086C11.1643 1.73086 22.3921 21.5931 22.5722 21.9006C22.8124 22.2081 22.6923 22.3311 22.5122 22.3926ZM46.6488 27.0045C46.7689 27.2505 46.9491 27.3735 46.4687 27.4965C46.0484 27.681 31.9987 32.5389 31.6985 32.6619C31.3983 32.7849 31.2182 32.8464 30.8579 32.293C30.4977 31.7395 25.9345 23.6839 25.9345 23.6839L40.8849 19.6869C41.2451 19.5639 41.3652 19.5024 41.6054 19.8713C41.8455 20.3018 46.5288 26.8201 46.6488 27.0045ZM47.6095 16.1817C47.2493 16.2432 41.7855 17.6576 41.7855 17.6576L37.2824 11.3853C37.1623 11.2008 37.0422 11.0163 37.3424 10.9548C37.6426 10.8933 42.7462 9.97094 42.9863 9.90945C43.2265 9.84795 43.4066 9.78646 43.7068 10.2169C44.007 10.5859 47.8497 15.6283 48.0298 15.8128C48.2099 15.9973 47.9698 16.1203 47.6095 16.1817Z" transform="translate(0.486328 0.0136719)" fill="#FB503B"/>
</svg>
