<svg width="30" height="24" viewBox="0 0 30 24" fill="none" xmlns="http://www.w3.org/2000/svg">
<path d="M0 15.6322C0 12.567 0.757576 9.65517 2.27273 6.89655C3.84849 4.13793 5.90909 1.83908 8.45455 0L12.8182 3.49425C11.303 4.41379 9.87879 5.70115 8.54545 7.35632C7.27273 9.01149 6.51515 10.6054 6.27273 12.1379C6.51515 12.0153 7.0303 11.954 7.81818 11.954C9.33333 11.954 10.6061 12.5057 11.6364 13.6092C12.6667 14.7126 13.1818 16.092 13.1818 17.7471C13.1818 19.4636 12.5758 20.9349 11.3636 22.1609C10.1515 23.387 8.69697 24 7 24C5.06061 24 3.39394 23.2644 2 21.7931C0.666667 20.2605 0 18.2069 0 15.6322ZM16.8182 15.6322C16.8182 12.567 17.5758 9.65517 19.0909 6.89655C20.6667 4.13793 22.7273 1.83908 25.2727 0L29.6364 3.49425C28.1212 4.41379 26.697 5.70115 25.3636 7.35632C24.0909 9.01149 23.3333 10.6054 23.0909 12.1379C23.3333 12.0153 23.8485 11.954 24.6364 11.954C26.1515 11.954 27.4242 12.5057 28.4545 13.6092C29.4848 14.7126 30 16.092 30 17.7471C30 19.4636 29.3939 20.9349 28.1818 22.1609C26.9697 23.387 25.5152 24 23.8182 24C21.8788 24 20.2121 23.2644 18.8182 21.7931C17.4848 20.2605 16.8182 18.2069 16.8182 15.6322Z" fill="#2D9CDB"/>
</svg>
