<svg width="32" height="37" viewBox="0 0 32 37" fill="none" xmlns="http://www.w3.org/2000/svg">
<g style="mix-blend-mode:luminosity">
<path d="M15.6992 36.3119L2.86099 32.682L0 0H31.4368L28.5729 32.677L15.6992 36.3119Z" transform="translate(0.265625 0.0981445)" fill="#264DE4"/>
<path d="M10.4026 27.924L12.8499 0H0V30.8613L10.4026 27.924Z" transform="translate(15.9844 2.77148)" fill="#2965F1"/>
<path d="M0.70881 8.1129L1.06149 12.1212H9.8685V8.1129H0.70881ZM0 0L0.357732 4.00832H9.8685V0H0ZM9.8685 18.5229L9.85125 18.5276L5.46826 17.3222L5.18804 14.1254H1.23734L1.78866 20.4191L9.85039 22.6983L9.8685 22.6933V18.5229Z" transform="translate(6.11914 6.78027)" fill="#EBEBEB"/>
<path d="M9.14823 8.1129L9.85864 0H0.000123161V4.00832H5.54565L5.18755 8.1129H0.000123161V12.1212H4.84633L4.3894 17.3197L0 18.5263V22.6964L8.06813 20.4191L8.12728 19.7419L9.05224 9.18924L9.14823 8.1129Z" transform="translate(15.9707 6.78027)" fill="white"/>
</g>
</svg>
