<svg width="38" height="43" viewBox="0 0 38 43" fill="none" xmlns="http://www.w3.org/2000/svg">
<path d="M18.6958 0L37.3915 10.6811V32.0482L18.6958 42.7293L0 32.0482V10.6811L18.6958 0Z" fill="white"/>
<path d="M31.7828 28.3106L17.0436 36.7325V30.1745L26.2272 25.0706L31.7828 28.3106ZM32.7925 27.3884V9.77842L27.4011 12.9257V24.246L32.7925 27.3884ZM1.00967 28.3106L15.7489 36.7325V30.1745L6.56043 25.0706L1.00967 28.3106ZM0 27.3884V9.77842L5.39134 12.9257V24.246L0 27.3884ZM0.632855 8.63663L15.7489 0V6.33841L6.06284 11.7204L5.98555 11.7644L0.632855 8.63663ZM32.1596 8.63663L17.0436 0V6.33841L26.7296 11.7156L26.8069 11.7595L32.1596 8.63663Z" transform="translate(2.26953 3.00146)" fill="#8ED6FB"/>
<path d="M9.06285 21.2061L0 16.1705V6.20178L9.06285 11.4862V21.2061ZM10.3575 21.2061L19.4204 16.1754V6.20178L10.3575 11.4862V21.2061ZM0.613528 5.05023L9.7102 0L18.8069 5.05023L9.7102 10.3542L0.613528 5.05023Z" transform="translate(8.95508 10.4761)" fill="#1C78C0"/>
</svg>
