<svg width="23" height="42" viewBox="0 0 23 42" fill="none" xmlns="http://www.w3.org/2000/svg">
<path d="M13.2965 16.6258C17.1229 16.6258 20.7156 14.2101 22.0637 10.3513C22.2366 9.85607 21.9809 9.31253 21.4922 9.13729C19.1649 8.30208 16.6571 8.43129 14.4257 9.49893C14.9913 8.74736 15.6115 8.02467 16.2888 7.33834C16.6553 6.96693 16.6553 6.3646 16.2888 5.9933C15.9222 5.62189 15.328 5.62189 14.9616 5.9933C14.4779 6.48345 14.0221 6.99121 13.5907 7.51289C13.488 4.68761 12.1414 1.93838 9.6982 0.17625C9.27576 -0.128312 8.68984 -0.0282113 8.38945 0.399694C6.95049 2.44913 6.38501 4.94373 6.79734 7.42406C7.17902 9.71949 8.35687 11.747 10.1327 13.1927C9.82421 13.9169 9.5547 14.654 9.32219 15.4008C9.13816 14.9836 8.92326 14.5768 8.67747 14.1838C7.34829 12.0596 5.28254 10.587 2.86077 10.0374C2.61816 9.98229 2.36329 10.0273 2.15315 10.1624C1.9429 10.2974 1.7944 10.5117 1.73991 10.7578C0.659353 15.6483 3.56305 20.5176 8.26173 21.8708C8.23812 22.8791 8.28012 23.8882 8.38491 24.892C8.16728 24.696 7.94022 24.5084 7.70261 24.3313C5.70282 22.8417 3.25096 22.2305 0.796948 22.6099C0.284484 22.6892 -0.0673381 23.1744 0.0108825 23.6937C0.38541 26.1802 1.69302 28.37 3.69281 29.8597C5.30524 31.0609 7.21183 31.691 9.17608 31.691C9.49044 31.691 9.80639 31.6733 10.1227 31.6408C10.5064 32.5446 10.949 33.4287 11.4511 34.2868C8.54759 33.3433 5.24428 33.8592 2.71477 35.9585C2.3139 36.2914 2.25487 36.8906 2.58331 37.2971C4.15566 39.2431 6.38171 40.4522 8.85139 40.7014C9.1653 40.7331 9.47795 40.7487 9.78913 40.7487C11.7058 40.7487 13.5551 40.1515 15.1254 39.026C16.1818 40.0756 17.3351 41.0232 18.5586 41.842C18.7177 41.9485 18.8973 41.9995 19.0749 41.9995C19.3796 41.9995 19.6784 41.8492 19.8589 41.5724C20.1444 41.134 20.0254 40.544 19.5929 40.2545C18.4114 39.4639 17.2998 38.5435 16.2888 37.519C14.0279 35.2276 12.3911 32.54 11.3755 29.6751C15.8319 27.9344 18.3111 22.9781 16.9471 18.2501C16.8016 17.746 16.2806 17.4569 15.7829 17.604C13.4008 18.3099 11.4326 19.9139 10.2406 22.1201C10.2027 22.1903 10.1684 22.2616 10.1324 22.3325C10.1413 20.309 10.431 18.2866 11.0027 16.3313C11.7659 16.5297 12.5356 16.6258 13.2965 16.6258ZM8.22007 19.8581C5.11191 18.6879 3.13687 15.5313 3.41796 12.1829C4.93117 12.7503 6.21347 13.7977 7.09217 15.2022C7.97087 16.6067 8.35914 18.229 8.22007 19.8581ZM4.80447 28.327C3.48233 27.342 2.53926 25.9735 2.08481 24.4046C2.12465 24.4041 2.16439 24.4036 2.20424 24.4036C5.47099 24.4036 8.38309 26.6029 9.31016 29.7872C7.69682 29.8144 6.12662 29.312 4.80447 28.327ZM9.03747 38.8084C7.4046 38.6437 5.90524 37.9531 4.72535 36.8378C7.55059 35.0793 11.2205 35.4494 13.6484 37.7383C12.2747 38.5957 10.6701 38.973 9.03747 38.8084ZM11.8869 23.0336C12.675 21.5749 13.8884 20.4462 15.3624 19.7815C15.8549 23.1046 14.0838 26.3833 11.0561 27.7531C10.8144 26.1365 11.099 24.4923 11.8869 23.0336ZM15.1986 11.2316C16.6798 10.5155 18.3155 10.3194 19.8946 10.6542C18.3761 13.6415 15.0478 15.2512 11.8011 14.5673C12.5381 13.1126 13.7176 11.9478 15.1986 11.2316ZM8.64807 7.10788C8.37537 5.46783 8.63842 3.82006 9.38986 2.37308C11.807 4.67311 12.4198 8.35903 10.8797 11.3349C9.70194 10.2174 8.92065 8.74782 8.64807 7.10788Z" transform="translate(0 0.000671387)" fill="#E6B500"/>
</svg>
