<svg width="32" height="27" viewBox="0 0 32 27" fill="none" xmlns="http://www.w3.org/2000/svg">
<path d="M31.3657 15.6828C31.3657 11.3984 29.6381 7.51039 26.8437 4.67709C26.8219 4.64809 26.7986 4.6197 26.7722 4.59328C26.7458 4.56685 26.7175 4.5436 26.6885 4.5219C23.8552 1.72748 19.9672 0 15.6828 0C11.3985 0 7.51049 1.72758 4.67709 4.5219C4.64809 4.54371 4.61981 4.56695 4.59338 4.59328C4.56695 4.6197 4.54371 4.64798 4.5219 4.67709C1.72758 7.51039 0 11.3984 0 15.6828C0 19.8714 1.63091 23.8089 4.59225 26.771C4.59266 26.7714 4.59307 26.7719 4.59348 26.7723C4.59379 26.7725 4.59399 26.7728 4.5943 26.773C4.59471 26.7734 4.59513 26.7739 4.59554 26.7743C4.74609 26.9248 4.94344 27 5.14079 27C5.33824 27 5.53569 26.9247 5.68624 26.7741C5.6991 26.7612 5.71072 26.7475 5.72244 26.734L8.09924 24.3571C8.40045 24.0557 8.40045 23.5675 8.09924 23.2663C7.79803 22.9651 7.30965 22.9651 7.00854 23.2663L5.15374 25.121C2.99095 22.7143 1.73622 19.6853 1.56366 16.4541H4.18676C4.61271 16.4541 4.95804 16.1089 4.95804 15.6828C4.95804 15.2568 4.61271 14.9116 4.18676 14.9116H1.56386C1.74321 11.5928 3.0723 8.57487 5.15878 6.24959L7.00854 8.09934C7.15909 8.2499 7.35654 8.32518 7.55389 8.32518C7.75124 8.32518 7.94868 8.2499 8.09924 8.09934C8.40045 7.79803 8.40045 7.30975 8.09924 7.00854L6.24959 5.15868C8.57497 3.07219 11.5928 1.74311 14.9116 1.56386V4.18686C14.9116 4.61292 15.2569 4.95815 15.6828 4.95815C16.1088 4.95815 16.4541 4.61292 16.4541 4.18686V1.56386C19.7729 1.74311 22.7907 3.0723 25.1161 5.15878L23.2664 7.00854C22.9651 7.30985 22.9651 7.79813 23.2664 8.09934C23.4169 8.2499 23.6144 8.32518 23.8117 8.32518C24.0091 8.32518 24.2065 8.2499 24.3571 8.09934L26.2068 6.24959C28.2933 8.57497 29.6225 11.5928 29.8017 14.9116H27.1787C26.7528 14.9116 26.4074 15.2568 26.4074 15.6828C26.4074 16.1089 26.7528 16.4541 27.1787 16.4541H29.8018C29.6293 19.6853 28.3746 22.7144 26.2118 25.1211L24.3571 23.2663C24.0559 22.9651 23.5676 22.9651 23.2664 23.2663C22.9651 23.5676 22.9651 24.0558 23.2664 24.3571L25.6815 26.7722C25.8321 26.9228 26.0295 26.998 26.2269 26.998C26.3255 26.998 26.4242 26.9792 26.5171 26.9416C26.6099 26.9039 26.6969 26.8475 26.7723 26.7722C29.7344 23.8101 31.3657 19.8718 31.3657 15.6828Z"/>
<path d="M6.41304 0.0555603C6.01742 -0.102914 5.56864 0.089188 5.41027 0.484704L3.18145 6.04826C3.07758 6.03715 2.97372 6.02954 2.86975 6.02954C1.78419 6.02954 0.803622 6.63084 0.310512 7.59875C-0.204914 8.61058 -0.0728692 9.81955 0.663453 10.8325C0.738731 10.9361 0.833342 11.0308 0.93762 11.1066C1.53583 11.5415 2.20397 11.7713 2.86975 11.7713C3.95531 11.7713 4.93598 11.17 5.42898 10.2021C5.94441 9.19028 5.81236 7.98141 5.07656 6.96918C5.00128 6.86531 4.90646 6.77029 4.80187 6.69419C4.74562 6.65326 4.68813 6.61593 4.63065 6.5787L6.84219 1.05823C7.00056 0.662924 6.80846 0.213931 6.41304 0.0555603ZM4.05434 9.50188C3.82594 9.95015 3.37201 10.2286 2.86964 10.2286C2.54015 10.2286 2.2085 10.1136 1.88353 9.88649C1.51331 9.35492 1.4406 8.77862 1.68505 8.29888C1.91335 7.8506 2.36728 7.57212 2.86975 7.57212C3.02997 7.57212 3.1906 7.59988 3.35083 7.65387C3.35607 7.65603 3.3609 7.65881 3.36625 7.66097C3.38312 7.66765 3.40008 7.6731 3.41705 7.67855C3.56411 7.73501 3.71055 7.81276 3.85576 7.91416C4.22588 8.44573 4.29869 9.02214 4.05434 9.50188Z" transform="translate(12.8125 6.78238)"/>
</svg>
