<?xml version="1.0" encoding="utf-8" ?>
<svg xmlns="http://www.w3.org/2000/svg" xmlns:xlink="http://www.w3.org/1999/xlink" width="140" height="48">
	<defs>
		<clipPath id="clip_0">
			<rect x="-80" y="-60" width="1920" height="1080" clip-rule="evenodd"/>
		</clipPath>
	</defs>
	<g clip-path="url(#clip_0)">
		<path fill="rgb(255,255,255)" stroke="none" transform="translate(0.84375 0.318359)" d="M126.172 26.1035C124.285 26.1035 122.557 25.7813 120.986 25.1367C119.416 24.4922 118.068 23.5957 116.943 22.4473C115.818 21.2988 114.942 19.9248 114.315 18.3252C113.688 16.7256 113.375 14.9766 113.375 13.0781C113.375 11.168 113.688 9.41309 114.315 7.81348C114.942 6.21386 115.818 4.83399 116.943 3.67383C118.068 2.51367 119.416 1.61133 120.986 0.966797C122.557 0.322262 124.285 0 126.172 0C128.07 0 129.808 0.322262 131.384 0.966797C132.96 1.61133 134.319 2.51074 135.462 3.66504C136.604 4.81934 137.492 6.19628 138.125 7.7959C138.758 9.39552 139.074 11.1445 139.074 13.043C139.074 14.9531 138.761 16.708 138.134 18.3076C137.507 19.9072 136.625 21.2842 135.488 22.4385C134.352 23.5928 132.992 24.4922 131.41 25.1367C129.828 25.7813 128.082 26.1035 126.172 26.1035ZM15.9434 25.3828L18.3164 22.5352L18.3164 1.31836L8.17383 1.31836L8.17383 22.5176L10.5469 25.3828L10.5469 25.6816L0 25.6816L0 25.3828L2.39063 22.5176L2.39063 3.55078L0 0.685547L0 0.386719L26.4727 0.386719L26.4727 0.685547L24.0996 3.55078L24.0996 22.5176L24.1172 22.5176L26.4902 25.3828L26.4902 25.6816L15.9434 25.6816L15.9434 25.3828ZM33.0777 25.3828L35.4684 22.5176L35.4684 3.55078L33.0777 0.685547L33.0777 0.386719L44.7848 0.386719C46.4723 0.386719 47.9459 0.568358 49.2057 0.931641C50.4654 1.29492 51.5143 1.79882 52.3521 2.44336C53.19 3.08789 53.8141 3.85546 54.2242 4.74609C54.6344 5.63672 54.8395 6.61523 54.8395 7.68164C54.8395 8.86524 54.6051 9.93457 54.1363 10.8896C53.6676 11.8447 52.982 12.6592 52.0797 13.333C51.1773 14.0068 50.0582 14.5283 48.7223 14.8975C47.3863 15.2666 45.8512 15.4512 44.1168 15.4512L42.7809 15.4512L42.7809 14.5195L43.8531 14.502C44.4742 14.4668 45.0777 14.3174 45.6637 14.0537C46.2496 13.79 46.7711 13.3887 47.2281 12.8496C47.6852 12.3105 48.0543 11.6162 48.3355 10.7666C48.6168 9.91699 48.7574 8.88282 48.7574 7.66406C48.7574 5.57811 48.2857 3.99903 47.3424 2.92676C46.399 1.85449 44.9254 1.31836 42.9215 1.31836L41.2516 1.31836L41.2516 22.5176L43.9938 25.3828L43.9938 25.6816L33.0777 25.6816L33.0777 25.3828ZM59.5418 22.5703L56.448 25.3828L56.448 25.6816L64.1648 25.6816L64.1648 25.3828L60.6844 22.5176L60.6492 22.5176L62.3895 17.7539L71.6883 17.7539L73.3934 22.5352L70.6687 25.3828L70.6687 25.6816L82.4285 25.6816L82.4285 25.3828L79.6687 22.5527L71.284 0.386719L64.4109 0.386719L64.4109 0.685547L66.45 4.02539L59.5418 22.5703ZM86.0941 0.685547L88.4848 3.55078L88.4848 22.5176L86.0941 25.3828L86.0941 25.6816L96.9047 25.6816C98.7563 25.6816 100.409 25.5645 101.862 25.3301C103.315 25.0957 104.542 24.7148 105.544 24.1875C106.546 23.6602 107.311 22.9688 107.838 22.1133C108.366 21.2578 108.629 20.209 108.629 18.9668C108.629 18.1465 108.474 17.3789 108.163 16.6641C107.853 15.9492 107.393 15.3135 106.784 14.7568C106.174 14.2002 105.418 13.7285 104.516 13.3418C103.614 12.9551 102.577 12.6738 101.405 12.498C102.436 12.2754 103.338 11.9619 104.112 11.5576C104.885 11.1533 105.524 10.6846 106.028 10.1514C106.532 9.61816 106.91 9.0293 107.162 8.38477C107.413 7.74023 107.539 7.06641 107.539 6.36328C107.539 5.51953 107.352 4.73145 106.977 3.99902C106.602 3.2666 106.037 2.63379 105.281 2.10059C104.525 1.56738 103.576 1.14844 102.433 0.84375C101.29 0.539061 99.9457 0.386719 98.3988 0.386719L86.0941 0.386719L86.0941 0.685547ZM129.09 24.3369C128.258 24.8936 127.285 25.1719 126.172 25.1719C125.07 25.1719 124.109 24.8936 123.289 24.3369C122.469 23.7803 121.783 22.9834 121.232 21.9463C120.682 20.9092 120.269 19.6436 119.993 18.1494C119.718 16.6553 119.58 14.9649 119.58 13.0781C119.58 11.1914 119.718 9.49805 119.993 7.99805C120.269 6.49804 120.679 5.22364 121.224 4.1748C121.769 3.12597 122.454 2.32325 123.28 1.7666C124.106 1.20996 125.07 0.931641 126.172 0.931641C127.285 0.931641 128.261 1.20996 129.099 1.7666C129.937 2.32325 130.634 3.12304 131.19 4.16602C131.747 5.20899 132.163 6.48046 132.438 7.98047C132.714 9.48048 132.852 11.1797 132.852 13.0781C132.852 14.9649 132.711 16.6553 132.43 18.1494C132.148 19.6436 131.729 20.9092 131.173 21.9463C130.616 22.9834 129.922 23.7803 129.09 24.3369ZM98.891 11.7246C98.2699 11.9941 97.5199 12.1289 96.641 12.1289L94.268 12.1289L94.268 1.31836L96.7465 1.31836C97.6371 1.31836 98.39 1.45312 99.0053 1.72266C99.6205 1.99219 100.119 2.36426 100.499 2.83887C100.88 3.31348 101.153 3.8789 101.317 4.53516C101.481 5.19141 101.563 5.90625 101.563 6.67969C101.563 7.47657 101.472 8.20605 101.29 8.86816C101.109 9.53028 100.819 10.1045 100.42 10.5908C100.022 11.0772 99.5121 11.4551 98.891 11.7246ZM67.0652 5.04492L62.741 16.8047L71.3367 16.8047L67.1707 5.09766L67.118 5.11523L67.0652 5.04492ZM94.268 24.75L96.6234 24.75C97.6547 24.75 98.5365 24.6152 99.2689 24.3457C100.001 24.0762 100.602 23.6895 101.071 23.1855C101.539 22.6816 101.885 22.0635 102.108 21.3311C102.33 20.5986 102.442 19.7695 102.442 18.8438C102.442 17.9648 102.336 17.1709 102.125 16.4619C101.914 15.7529 101.583 15.1465 101.132 14.6426C100.681 14.1387 100.104 13.749 99.4008 13.4736C98.6976 13.1982 97.8481 13.0605 96.852 13.0605L94.268 13.0605L94.268 24.75Z" fill-rule="evenodd"/>
	</g>
	<defs>
		<clipPath id="clip_1">
			<rect x="-80" y="-60" width="1920" height="1080" clip-rule="evenodd"/>
		</clipPath>
	</defs>
	<g clip-path="url(#clip_1)">
		<path fill="rgb(255,255,255)" stroke="none" transform="translate(1.60645 34.1504)" d="M4.35938 0.00439453Q4.28027 0 4.20996 0C3.62402 0 3.09082 0.0673821 2.61035 0.202148C2.12988 0.336915 1.71826 0.534667 1.37549 0.79541C1.03271 1.05615 0.766114 1.37842 0.575684 1.76221C0.385253 2.146 0.287109 2.58691 0.28125 3.08496C0.275391 3.57715 0.379393 4.00928 0.593262 4.38135C0.80713 4.75342 1.08838 5.08447 1.43701 5.37451C1.78565 5.66455 2.17969 5.92822 2.61914 6.16553C3.0586 6.40283 3.5039 6.63574 3.95508 6.86426C4.35352 7.06934 4.7373 7.27734 5.10645 7.48828C5.47559 7.69922 5.80078 7.93066 6.08203 8.18262C6.36328 8.43457 6.58887 8.71582 6.75879 9.02637C6.92871 9.33692 7.01074 9.6914 7.00488 10.0898C7.00488 10.4004 6.95215 10.7124 6.84668 11.0259C6.74121 11.3394 6.57568 11.6235 6.3501 11.8784C6.12451 12.1333 5.83447 12.3398 5.47998 12.498C5.12549 12.6563 4.69336 12.7354 4.18359 12.7354L3.86719 12.7354C3.43359 12.7354 3.03223 12.646 2.66309 12.4673C2.29394 12.2886 1.9541 12.0483 1.64355 11.7466C1.33301 11.4448 1.05029 11.0947 0.79541 10.6963C0.540526 10.2978 0.313478 9.88184 0.114258 9.44824L0 9.44824L0.193359 12.0322C0.416017 12.1494 0.665038 12.2681 0.94043 12.3882C1.21582 12.5083 1.51025 12.6182 1.82373 12.7178C2.13721 12.8174 2.46387 12.8994 2.80371 12.9639C3.14356 13.0283 3.49219 13.0605 3.84961 13.0605C4.45313 13.0605 5.02002 12.999 5.55029 12.876C6.08057 12.7529 6.54345 12.5581 6.93896 12.2915C7.33447 12.0249 7.64795 11.6807 7.87939 11.2588C8.11084 10.8369 8.23242 10.3272 8.24414 9.72949C8.25 9.22558 8.15918 8.78467 7.97168 8.40674C7.78418 8.02881 7.52783 7.69043 7.20264 7.3916C6.87744 7.09277 6.49805 6.82031 6.06445 6.57422C5.63086 6.32812 5.17383 6.08496 4.69336 5.84473C4.21289 5.60449 3.77197 5.37744 3.37061 5.16357C2.96924 4.94971 2.625 4.72412 2.33789 4.48682C2.05078 4.24951 1.82813 3.9917 1.66992 3.71338C1.51172 3.43506 1.43555 3.11133 1.44141 2.74219C1.44727 2.34961 1.52197 2.00391 1.66553 1.70508C1.80908 1.40625 1.99951 1.1543 2.23682 0.949219C2.47412 0.74414 2.74805 0.588868 3.05859 0.483398C3.36914 0.377929 3.70019 0.325195 4.05176 0.325195C4.28027 0.325195 4.49853 0.342773 4.70654 0.37793C4.91455 0.413086 5.11963 0.473144 5.32178 0.558105C5.52393 0.643067 5.72607 0.757324 5.92822 0.900879C6.13037 1.04443 6.33691 1.22461 6.54785 1.44141C6.74121 1.65234 6.90527 1.86621 7.04004 2.08301C7.1748 2.29981 7.29053 2.50635 7.38721 2.70264C7.48389 2.89893 7.56592 3.07764 7.6333 3.23877C7.70068 3.3999 7.75781 3.52734 7.80469 3.62109L7.92773 3.62109L7.73437 1.05469C7.5293 0.943359 7.30371 0.829102 7.05762 0.711914C6.81152 0.594726 6.55078 0.487793 6.27539 0.391113C6 0.294433 5.71289 0.212403 5.41406 0.14502C5.11523 0.0776364 4.81641 0.0351563 4.51758 0.0175781C4.46484 0.0117187 4.41211 0.00732423 4.35938 0.00439453ZM89.4217 13.0605C88.5486 13.0605 87.7459 12.8994 87.0135 12.5771C86.2811 12.2549 85.6497 11.8052 85.1194 11.228C84.5892 10.6509 84.1761 9.96387 83.8802 9.16699C83.5843 8.37011 83.4363 7.49708 83.4363 6.54785C83.4363 5.59277 83.5843 4.71387 83.8802 3.91113C84.1761 3.10839 84.5892 2.417 85.1194 1.83691C85.6497 1.25683 86.2811 0.805666 87.0135 0.483398C87.7459 0.161131 88.5486 0 89.4217 0C90.2947 0 91.0989 0.161131 91.8343 0.483398C92.5696 0.805666 93.2024 1.25683 93.7327 1.83691C94.263 2.417 94.6761 3.10839 94.972 3.91113C95.2679 4.71387 95.4158 5.59277 95.4158 6.54785C95.4158 7.49708 95.2679 8.37011 94.972 9.16699C94.6761 9.96387 94.263 10.6509 93.7327 11.228C93.2024 11.8052 92.5696 12.2549 91.8343 12.5771C91.0989 12.8994 90.2947 13.0605 89.4217 13.0605ZM50.9877 12.208L49.4232 12.6738L49.4232 12.8496L53.8441 12.8496L53.8441 12.6738L52.2709 12.1992L52.2709 0.852539L53.8441 0.37793L53.8441 0.202148L49.4232 0.202148L49.4232 0.37793L50.9877 0.852539L50.9877 6.20508L44.141 6.20508L44.141 0.852539L45.7143 0.37793L45.7143 0.202148L41.2934 0.202148L41.2934 0.37793L42.8578 0.852539L42.8578 12.208L41.2934 12.6738L41.2934 12.8496L45.7143 12.8496L45.7143 12.6738L44.141 12.1992L44.141 6.53906L50.9877 6.53906L50.9877 12.208ZM127.535 12.6738L129.1 12.208L129.1 0.852539L127.535 0.37793L127.535 0.202148L132.756 0.202148C133.471 0.202148 134.092 0.294433 134.619 0.479004C135.147 0.663575 135.585 0.916991 135.933 1.23926C136.282 1.56152 136.541 1.94385 136.711 2.38623C136.881 2.82862 136.966 3.30468 136.966 3.81445C136.966 4.44141 136.856 4.99072 136.636 5.4624C136.417 5.93408 136.103 6.33105 135.696 6.65332C135.289 6.97559 134.795 7.21728 134.215 7.37842C133.635 7.53955 132.988 7.62012 132.273 7.62012L131.236 7.62012L131.236 7.29492L132.387 7.29492C132.914 7.29492 133.379 7.21289 133.78 7.04883C134.181 6.88476 134.517 6.65186 134.786 6.3501C135.056 6.04834 135.258 5.6836 135.393 5.25586C135.528 4.82812 135.595 4.34766 135.595 3.81445C135.595 3.23437 135.516 2.73633 135.358 2.32031C135.199 1.90429 134.98 1.56445 134.698 1.30078C134.417 1.03711 134.079 0.842286 133.683 0.716309Q133.09 0.527343 132.378 0.527344L130.383 0.527344L130.383 12.1992L132.141 12.6738L132.141 12.8496L127.535 12.8496L127.535 12.6738ZM91.3245 12.2871C90.7649 12.5859 90.1307 12.7354 89.4217 12.7354C88.7068 12.7354 88.0696 12.5859 87.5101 12.2871C86.9505 11.9883 86.4773 11.5664 86.0906 11.0215C85.7039 10.4766 85.408 9.82471 85.2029 9.06592C84.9978 8.30713 84.8953 7.46778 84.8953 6.54785C84.8953 5.62207 84.9978 4.77686 85.2029 4.01221C85.408 3.24755 85.7039 2.59278 86.0906 2.04785C86.4773 1.50293 86.9505 1.08106 87.5101 0.782227C88.0696 0.483397 88.7068 0.333984 89.4217 0.333984C90.1307 0.333984 90.7649 0.483397 91.3245 0.782227C91.8841 1.08106 92.3587 1.50293 92.7483 2.04785C93.138 2.59278 93.4368 3.24755 93.6448 4.01221C93.8528 4.77686 93.9568 5.62207 93.9568 6.54785C93.9568 7.47364 93.8528 8.31591 93.6448 9.07471C93.4368 9.8335 93.138 10.4839 92.7483 11.0259C92.3587 11.5679 91.8841 11.9883 91.3245 12.2871ZM27 6C27 6.55228 26.5523 7 26 7C25.4477 7 25 6.55228 25 6C25 5.44772 25.4477 5 26 5C26.5523 5 27 5.44772 27 6ZM69 7C69.5523 7 70 6.55228 70 6C70 5.44772 69.5523 5 69 5C68.4477 5 68 5.44772 68 6C68 6.55228 68.4477 7 69 7ZM113 6C113 6.55228 112.552 7 112 7C111.448 7 111 6.55228 111 6C111 5.44772 111.448 5 112 5C112.552 5 113 5.44772 113 6Z" fill-rule="evenodd"/>
	</g>
</svg>
