<?xml version="1.0" encoding="UTF-8"?><!DOCTYPE svg PUBLIC "-//W3C//DTD SVG 1.1//EN" "http://www.w3.org/Graphics/SVG/1.1/DTD/svg11.dtd"><svg xmlns="http://www.w3.org/2000/svg" xmlns:xlink="http://www.w3.org/1999/xlink"><defs>
        <path id="SVGID_1_" d="M-303.3-699.1h1920v1080h-1920z"/>
    
        <path id="SVGID_1_" d="M0 0h23v19H0z"/>
    
            <path id="SVGID_3_" d="M-300-617h1920V463H-300z"/>
        
        <path id="SVGID_1_" d="M-272.3-442.1h1909.8V632.2H-272.3z"/>
    
        <path id="SVGID_1_" d="M-628-445h1920V635H-628z"/>
    
        <path id="SVGID_3_" d="M-628-445h1920V635H-628z"/>
    
        <path id="SVGID_5_" d="M-628-445h1920V635H-628z"/>
    
            <path id="SVGID_7_" d="M-628-445h1920V635H-628z"/>
        
            <path id="SVGID_9_" d="M-628-445h1920V635H-628z"/>
        
            <path id="SVGID_11_" d="M-628-445h1920V635H-628z"/>
        
            <path id="SVGID_13_" d="M-628-445h1920V635H-628z"/>
        
            <path id="SVGID_15_" d="M0 0h187.3v190H0z"/>
        
        <path id="SVGID_1_" d="M-977-444H943V636H-977z"/>
    
            <path id="SVGID_3_" d="M-977-444H943V636H-977z"/>
        
            <path id="SVGID_5_" d="M-977-444H943V636H-977z"/>
        
        <path id="SVGID_1_" d="M-1325-444H595V636h-1920z"/>
    
        <path id="SVGID_3_" d="M-1325-444H595V636h-1920z"/>
    
        <path id="SVGID_5_" d="M-1325-444H595V636h-1920z"/>
    
            <path id="SVGID_7_" d="M-1325-444H595V636h-1920z"/>
        
            <path id="SVGID_9_" d="M-1325-444H595V636h-1920z"/>
        
            <path id="SVGID_11_" d="M-1325-444H595V636h-1920z"/>
        
            <path id="SVGID_13_" d="M-1325-444H595V636h-1920z"/>
        
            <path id="SVGID_15_" d="M-1325-444H595V636h-1920z"/>
        
        <path id="SVGID_1_" d="M.9.5h173v183H.9z"/>
    </defs><symbol id="icon-facebook" viewBox="0 0 17.6 28.8">
    <style>
        .st0{clip-path:url(#SVGID_2_)}.st1{fill:none;stroke:#fff}
    </style>
    
    <clipPath id="SVGID_2_">
        <use xlink:href="#SVGID_1_" overflow="visible"/>
    </clipPath>
    <g class="st0">
        <path class="st1" d="M11.2 27.9H4.5V17.5H.8v-6.2h3.7V7.8c0-3.2 2.1-6.9 8-6.9 2.1 0 3.6.2 3.7.2l.6.1-.2 5.8h-.7-3.2c-1.3 0-1.4.3-1.4 1.5v2.9h5.5l-.3 6.2h-5.2l-.1 10.3z"/>
    </g>
</symbol><symbol id="icon-mail" viewBox="0 0 23 19">
    <style>
        .st0{clip-path:url(#SVGID_2_)}.st1{fill:none;stroke:#fff;stroke-width:2}.st2{clip-path:url(#SVGID_4_)}.st3{fill:none;stroke:#fff}
    </style>
    
    <clipPath id="SVGID_2_">
        <use xlink:href="#SVGID_1_" overflow="visible"/>
    </clipPath>
    <g class="st0">
        <path class="st1" d="M0 0h23v19H0V0z"/>
    </g>
    <g>
        
        <clipPath id="SVGID_4_">
            <use xlink:href="#SVGID_3_" overflow="visible"/>
        </clipPath>
        <g class="st2">
            <path class="st3" d="M.6.7l11.2 11.1L22.3.7"/>
        </g>
    </g>
</symbol><symbol id="icon-service-1" viewBox="0 0 191 190">
    <style>
        .st0{clip-path:url(#SVGID_2_)}.st1{fill:none;stroke:#4485e0}
    </style>
    
    <clipPath id="SVGID_2_">
        <use xlink:href="#SVGID_1_" overflow="visible"/>
    </clipPath>
    <g class="st0">
        <path class="st1" d="M158.1 46.8l32.1 70v.2c0 10.7-8.7 19.4-19.4 19.4h-31.5c-10.7 0-19.4-8.7-19.4-19.4v-.1l32.2-70.4-2.4-1.1c-4.8-2.2-10.2-3.4-15.5-3.4h-31.8v121.6l12.3 12.3h12.4c7.2 0 13.1 5.9 13.1 13.1 0 .3-.2.5-.5.5H51.6c-.3 0-.5-.2-.5-.5 0-7.2 5.9-13.1 13.1-13.1h12.4l12.3-12.3V41.9H57.1c-5.3 0-10.7 1.2-15.5 3.4l-2.4 1.1 32.2 70.4v.1c0 10.7-8.7 19.4-19.4 19.4H20.6c-10.7 0-19.4-8.7-19.4-19.4v-.2l32.1-70-7.4-3.7.4-.9 7.4 3.7 2.1-4.7c0-.1.1-.2.2-.2.3-.1.5 0 .7.2l2 4.4 2.4-1.1c5-2.3 10.5-3.5 15.9-3.5h31.7V26.7h-6.3v-1h6.2l-3.1-12.4c-.4-1.6-.4-3.4 0-5 1.2-4.7 5.4-7.8 10-7.8s8.9 3.1 10 7.8c.4 1.6.4 3.4 0 5l-3.1 12.4h6.2v1h-6.3V41H134c5.5 0 11 1.2 15.9 3.5l2.4 1.1 2-4.4c.1-.2.4-.4.7-.2.1 0 .2.1.2.2l2.1 4.7 7.4-3.7.4.9-7 3.7zM89.8 25.7h11.8l3.2-12.6c.7-2.8.1-5.8-1.7-8L103 5c-1.9-2.2-4.6-3.4-7.3-3.4S90.3 2.7 88.4 5l-.1.1c-1.8 2.3-2.4 5.3-1.7 8l3.2 12.6zm.1 15.2V26.7h11.6V41H89.9zm0 1v121.4h11.6V41.9H89.9zM36.1 43h.3l1.5 3s-1.3.9-1.4 1.1h-.3l-1.6-.9 1.5-3.2zM155 43h.3l1.4 3.3-1.6.9h-.3c-.2-.2-1.4-1.1-1.4-1.1L155 43zm-84.7 73.6H2.5l31.8-69.4 1.9 1.1h.2s1.2-1 1.8-1.4l32.1 69.7zm84.6-68.4s-1.2-1-1.8-1.4l-31.9 69.7h67.7l-31.8-69.4-1.9 1.1c-.1.1-.2.1-.3 0zM52.1 135.4c8.7 0 16.3-6.2 18-14.7 0 0 .3-1.8.3-3.2H2.2s0 1.3.3 2.8c0 .1.1.3.1.4 1.8 8.5 9.3 14.7 18 14.7h31.5zm136.8-15c.3-1.6.3-2.8.3-2.8H121c0 1.4.3 3.2.3 3.2 1.7 8.5 9.3 14.7 18 14.7h31.5c8.7 0 16.3-6.2 18-14.7 0-.2.1-.3.1-.4zM78 175.9l11.6-11.6h12.2l11.6 11.6H78zm60.6 9.1c-1.7-4.8-6.3-8.1-11.4-8.1h-63c-5.1 0-9.7 3.2-11.4 8.1l-.2.4c-.2.5-.4 1.6-.6 3.1h87.3c-.1-1.5-.4-2.5-.6-3.1l-.1-.4z"/>
    </g>
</symbol><symbol id="icon-service-2" viewBox="0 0 188 190">
    <style>
        .st0{clip-path:url(#SVGID_2_)}.st1{fill:none;stroke:#4485e0}.st2{clip-path:url(#SVGID_4_)}.st3{clip-path:url(#SVGID_6_)}.st4{clip-path:url(#SVGID_8_)}.st5{clip-path:url(#SVGID_10_)}.st6{clip-path:url(#SVGID_12_)}.st7{clip-path:url(#SVGID_14_)}.st8{clip-path:url(#SVGID_16_)}
    </style>
    
    <clipPath id="SVGID_2_">
        <use xlink:href="#SVGID_1_" overflow="visible"/>
    </clipPath>
    <g class="st0">
        <path class="st1" d="M68.8 24h50v-1h-50v1z"/>
    </g>
    
    <clipPath id="SVGID_4_">
        <use xlink:href="#SVGID_3_" overflow="visible"/>
    </clipPath>
    <g class="st2">
        <path class="st1" d="M87 164.3h78.8v-1H87v1z"/>
    </g>
    
    <clipPath id="SVGID_6_">
        <use xlink:href="#SVGID_5_" overflow="visible"/>
    </clipPath>
    <g class="st3">
        <path class="st1" d="M113.2 144.5h52.6v-1h-52.6v1z"/>
    </g>
    <g>
        
        <clipPath id="SVGID_8_">
            <use xlink:href="#SVGID_7_" overflow="visible"/>
        </clipPath>
        <g class="st4">
            <path class="st1" d="M113.2 124.7h52.6v-1h-52.6v1z"/>
        </g>
    </g>
    <g>
        
        <clipPath id="SVGID_10_">
            <use xlink:href="#SVGID_9_" overflow="visible"/>
        </clipPath>
        <g class="st5">
            <path class="st1" d="M113.2 104.9h52.6v-1h-52.6v1z"/>
        </g>
    </g>
    <g>
        
        <clipPath id="SVGID_12_">
            <use xlink:href="#SVGID_11_" overflow="visible"/>
        </clipPath>
        <g class="st6">
            <path class="st1" d="M113.2 84.1v1h52.6v-1h-52.6z"/>
        </g>
    </g>
    <g>
        
        <clipPath id="SVGID_14_">
            <use xlink:href="#SVGID_13_" overflow="visible"/>
        </clipPath>
        <g class="st7">
            <path class="st1" d="M113.2 65.3h52.6v-1h-52.6v1z"/>
        </g>
    </g>
    <g>
        
        <clipPath id="SVGID_16_">
            <use xlink:href="#SVGID_15_" overflow="visible"/>
        </clipPath>
        <g class="st8">
            <path class="st1" d="M46.8 0h92.7l47.8 47.8V190H46.8v-35.9c-26.3 0-46.8-6.3-46.8-14.3V123c0-3.2 3.3-6.2 9.4-8.7-5.9-2.4-9.4-5.4-9.4-8.7V88.9c0-3.2 3.3-6.2 9.5-8.7-6-2.4-9.5-5.4-9.5-8.7V54.7c0-8 20.6-14.3 46.8-14.3V0zm139.5 189H47.8v-34.9c25.8-.2 45.8-6.4 45.8-14.3V123c0-3.2-3.3-6.2-9.4-8.7 5.9-2.4 9.4-5.4 9.4-8.7V88.9c0-3.2-3.3-6.2-9.5-8.7 6-2.4 9.5-5.4 9.5-8.7V54.7c0-7.9-20.1-14.2-45.8-14.3V1h91.3l.2.2V48h46.8l.2.2V189zm-46-186.6L184.9 47h-44.6V2.4zM92.7 54.7c0-7.2-21-13.3-45.8-13.3S1 47.5 1 54.7C1 62 22 68.1 46.8 68.1S92.7 62 92.7 54.7zM1 71.5V57.8c.1.2.3.4.4.6v.1c.2.1.4.3.6.5l.2.2c.1.1.3.3.5.4.1.1.2.2.3.2.2.1.3.3.5.4l.3.3c.2.1.3.2.5.4.2.1.3.1.4.2.2.1.4.2.6.4.1.1.3.2.4.2.2.1.5.3.7.4.1.1.2.1.4.2.4.2.7.4 1.1.5.1 0 .2.1.2.1.3.1.6.3 1 .4.2.1.3.1.5.2.3.1.5.2.8.3.2.1.4.1.6.2.3.1.5.2.8.3.2.1.4.1.6.2l.9.3c.2.1.4.1.6.2l.9.3c.2.1.4.1.6.2.4.1.7.2 1.1.3.2 0 .3.1.5.1.5.1 1.1.3 1.6.4.1 0 .3.1.5.1.4.1.8.2 1.3.3.2 0 .4.1.7.1.4.1.7.1 1.1.2.2 0 .5.1.7.1.4.1.7.1 1.1.2.3 0 .5.1.8.1.4.1.8.1 1.1.2.3 0 .5.1.8.1.4.1.8.1 1.3.2.2 0 .5.1.7.1.5.1 1.1.1 1.6.2h.4c.7.1 1.4.1 2.1.2.2 0 .4 0 .6.1.5 0 1 .1 1.5.1.3 0 .5 0 .8.1.4 0 .9.1 1.3.1.3 0 .6 0 .9.1.4 0 .9 0 1.3.1h.9c.5 0 .9 0 1.4.1H52.3c.5 0 .9 0 1.4-.1h.9c.4 0 .9 0 1.3-.1.3 0 .6 0 .9-.1.4 0 .9-.1 1.3-.1.3 0 .5 0 .8-.1.5 0 1-.1 1.5-.1.2 0 .4 0 .6-.1.7-.1 1.4-.1 2.1-.2h.4c.5-.1 1.1-.1 1.6-.2.2 0 .5-.1.7-.1.4-.1.8-.1 1.3-.2.3 0 .5-.1.8-.1.4-.1.8-.1 1.1-.2.3 0 .5-.1.8-.1.4-.1.7-.1 1.1-.2.2 0 .5-.1.7-.1.4-.1.7-.1 1.1-.2.2 0 .5-.1.7-.1.4-.1.8-.2 1.3-.3.2 0 .3-.1.5-.1.6-.1 1.1-.3 1.6-.4.2 0 .3-.1.5-.1.4-.1.8-.2 1.1-.3.2-.1.4-.1.6-.2l.9-.3c.2-.1.4-.1.6-.2l.9-.3c.2-.1.4-.1.6-.2.3-.1.5-.2.8-.3.2-.1.4-.1.6-.2.3-.1.6-.2.8-.3.2-.1.3-.1.5-.2.3-.1.7-.3 1-.4.1 0 .2-.1.2-.1.4-.2.8-.4 1.1-.5.1-.1.2-.1.4-.2s.5-.3.7-.4c.1-.1.3-.2.4-.2.2-.1.4-.2.6-.4.1-.1.3-.2.4-.2.2-.1.4-.2.5-.4l.3-.3c.2-.1.3-.2.5-.4.1-.1.2-.2.3-.2.2-.1.3-.3.5-.4.1-.1.2-.1.2-.2l.6-.6v-.1c.1-.2.3-.4.4-.6v13.7c0 6.8-18.4 12.5-41.1 13.3h-9.4C19.4 84 1 78.2 1 71.5zm43 14.3c-13.5-.2-25.2-2.1-33.2-5C4.5 83.1 1 86 1 88.9c0 7.2 21 13.3 45.8 13.3s45.8-6.1 45.8-13.3c0-2.9-3.5-5.8-9.8-8.2-8 2.9-19.7 4.8-33.2 5h-5.4c0 .1-.1.1-.2.1zM1 105.6V91.9c.1.2.3.4.4.6l.6.6.2.2c.1.1.3.3.5.4.1.2.2.3.3.3.2.1.3.3.5.4.1.1.2.2.3.2.2.2.4.3.5.4.1.1.2.2.4.2.2.1.4.2.6.4.1.1.3.2.4.2.2.1.5.3.7.4.1.1.2.1.4.2.4.2.7.4 1.1.5.1.1.2.1.2.2.3.1.6.3.9.4.2.1.3.1.5.2.3.1.5.2.8.3.2.1.4.1.6.2.3.1.5.2.8.3.2.1.4.1.6.2.3.1.6.2.8.3.2.1.4.1.6.2l.9.3c.2.1.4.1.6.2.4.1.7.2 1.1.3.2 0 .3.1.5.1.5.1 1.1.3 1.6.4.2 0 .3.1.5.1l1.2.3c.2 0 .5.1.7.1.4.1.7.1 1.1.2.3 0 .5.1.8.1.4.1.7.1 1.1.2.3 0 .5.1.8.1.4.1.8.1 1.1.2.3 0 .5.1.8.1.4.1.8.1 1.2.2.2 0 .5.1.7.1.5.1 1.1.1 1.6.2.1 0 .3 0 .4.1.7.1 1.4.1 2 .2.2 0 .4 0 .6.1.5 0 1 .1 1.5.1.3 0 .5 0 .8.1.4 0 .9.1 1.3.1.3 0 .6 0 .9.1.4 0 .9 0 1.3.1h.9c.5 0 .9 0 1.4.1H51.9c.5 0 .9 0 1.4-.1h.9c.4 0 .9 0 1.3-.1.3 0 .6 0 .9-.1.4 0 .9-.1 1.3-.1.3 0 .6 0 .8-.1.5 0 1-.1 1.5-.1.2 0 .4 0 .6-.1.7-.1 1.4-.1 2-.2.1 0 .3 0 .4-.1.5-.1 1.1-.1 1.6-.2.3 0 .5-.1.7-.1.4-.1.8-.1 1.2-.2.3 0 .5-.1.8-.1.4-.1.8-.1 1.1-.2.3 0 .5-.1.8-.1.4-.1.7-.1 1.1-.2.3 0 .5-.1.8-.1.4-.1.7-.1 1.1-.2.2 0 .5-.1.7-.1l1.2-.3c.2 0 .3-.1.5-.1.6-.1 1.1-.3 1.6-.4.2 0 .3-.1.5-.1.4-.1.7-.2 1.1-.3.2-.1.4-.1.6-.2l.9-.3c.2-.1.4-.1.6-.2.3-.1.6-.2.8-.3.2-.1.4-.1.6-.2.3-.1.5-.2.8-.3.2-.1.4-.1.6-.2.3-.1.5-.2.8-.3.2-.1.3-.1.5-.2.3-.1.6-.3.9-.4.1 0 .2-.1.3-.1.4-.2.8-.4 1.1-.5.1-.1.2-.1.4-.2s.5-.2.7-.4c.1-.1.3-.2.4-.2.2-.1.4-.2.6-.4.1-.1.3-.2.4-.2.2-.1.4-.2.5-.4.1-.1.2-.2.3-.2.2-.1.3-.3.5-.4.1-.1.2-.2.3-.2.2-.1.3-.3.5-.4l.2-.2.6-.6c.2-.2.3-.4.4-.6v13.7c0 5.6-12.6 10.5-29.8 12.5-.2 0-.4 0-.6.1-.2 0-.5.1-.7.1-4.7.5-9.6.7-14.7.7s-10-.2-14.7-.7c-.2 0-.5 0-.7-.1-.2 0-.4 0-.6-.1C13.6 116.1 1 111.2 1 105.6zm45.8 14.3c-14.6 0-27.5-2-36-5.1-6.3 2.4-9.8 5.3-9.8 8.2 0 7.2 21 13.3 45.8 13.3s45.8-6.1 45.8-13.3c0-2.9-3.5-5.8-9.8-8.2-8.5 3.2-21.3 5.1-36 5.1zM1 139.7V126c.1.2.3.4.4.6l.6.6.2.2c.2.2.3.3.5.4.1.1.2.2.3.2.2.1.3.3.5.4.1.1.2.2.3.2.2.1.4.3.5.4.1.1.2.2.3.2.2.1.4.3.6.4.1.1.2.1.4.2s.5.3.8.4c.1.1.2.1.3.2.4.2.7.4 1.1.6h.1c.4.2.7.3 1.1.5.1.1.3.1.4.2l.9.3c.2.1.3.1.5.2l.9.3c.2.1.4.1.6.2l.9.3c.2.1.4.1.6.2.3.1.7.2 1 .3.2 0 .4.1.5.2l1.2.3c.1 0 .2.1.4.1.5.1 1.1.3 1.7.4.1 0 .2.1.4.1.4.1.9.2 1.4.3.2 0 .4.1.6.1.4.1.8.2 1.2.2.2 0 .5.1.7.1.4.1.8.1 1.1.2.2 0 .5.1.7.1.4.1.8.1 1.2.2.2 0 .5.1.7.1.4.1.9.1 1.3.2.2 0 .5.1.7.1.6.1 1.1.1 1.7.2h.3c.7.1 1.4.1 2.1.2.2 0 .4 0 .6.1.5 0 1 .1 1.5.1.3 0 .5 0 .8.1.5 0 .9.1 1.4.1.3 0 .6 0 .9.1.4 0 .9.1 1.3.1h.9c.5 0 .9 0 1.4.1H52.3c.5 0 .9 0 1.4-.1h.9c.5 0 .9 0 1.3-.1.3 0 .6 0 .9-.1.5 0 .9-.1 1.4-.1.3 0 .5 0 .8-.1.5 0 1-.1 1.5-.1.2 0 .4 0 .6-.1.7-.1 1.4-.1 2.1-.2h.3c.6-.1 1.1-.1 1.7-.2.2 0 .5-.1.7-.1.4-.1.9-.1 1.3-.2.3 0 .5-.1.7-.1.4-.1.8-.1 1.2-.2.2 0 .5-.1.7-.1.4-.1.8-.1 1.1-.2.2 0 .5-.1.7-.1.4-.1.8-.2 1.2-.2.2 0 .4-.1.6-.1.5-.1.9-.2 1.4-.3.1 0 .2 0 .4-.1.6-.1 1.1-.3 1.7-.4.1 0 .2-.1.4-.1l1.2-.3c.2-.1.4-.1.5-.2.3-.1.7-.2 1-.3.2-.1.4-.1.6-.2l.9-.3c.2-.1.4-.1.6-.2l.9-.3c.2-.1.3-.1.5-.2l.9-.3c.1-.1.3-.1.4-.2.4-.2.8-.3 1.1-.5h.1c.4-.2.8-.4 1.1-.6.1-.1.2-.1.3-.2.3-.1.5-.3.8-.4.1-.1.2-.1.4-.2s.4-.3.6-.4c.1-.1.2-.2.3-.2.2-.1.4-.3.5-.4.1-.1.2-.2.3-.2.2-.1.3-.3.5-.4.1-.1.2-.2.3-.2.2-.1.3-.3.5-.4l.2-.2.6-.6c.2-.2.3-.4.4-.6v13.7c0 7.2-21 13.3-45.8 13.3s-46-6-46-13.3z"/>
        </g>
    </g>
</symbol><symbol id="icon-service-3" viewBox="0 0 186 191">
    <style>
        .st0{clip-path:url(#SVGID_2_)}.st1{fill:none;stroke:#4485e0}.st2{clip-path:url(#SVGID_4_)}.st3{clip-path:url(#SVGID_6_)}
    </style>
    
    <clipPath id="SVGID_2_">
        <use xlink:href="#SVGID_1_" overflow="visible"/>
    </clipPath>
    <g class="st0">
        <path class="st1" d="M57.5 76c-5 0-9-4-9-9 0-4.9 4-9 9-9s9 4 9 9c0 4.9-4 9-9 9m0-19c-5.5 0-10 4.5-10 10s4.5 10 10 10 10-4.5 10-10c0-5.6-4.5-10-10-10"/>
    </g>
    <g>
        
        <clipPath id="SVGID_4_">
            <use xlink:href="#SVGID_3_" overflow="visible"/>
        </clipPath>
        <g class="st2">
            <path class="st1" d="M146.6 149.7c-.1.1-.2.1-.4.1h-12.7c-.1 0-.3-.1-.4-.2-.1-.1-.1-.2-.1-.4v-19c0-3.8 3.1-6.8 6.9-6.9 3.8 0 6.8 3.1 6.8 6.8v19c0 .3-.1.5-.1.6zm-6.7-25.2c-3.2 0-5.8 2.6-5.8 5.8v18.5h11.6v-18.5c0-3.2-2.6-5.8-5.8-5.8z"/>
        </g>
    </g>
    <g>
        
        <clipPath id="SVGID_6_">
            <use xlink:href="#SVGID_5_" overflow="visible"/>
        </clipPath>
        <g class="st3">
            <path class="st1" d="M181.5 189.4h2.6c.3 0 .5.2.5.5s-.2.5-.5.5H.5c-.3 0-.5-.2-.5-.5s.2-.5.5-.5h5.8v-12.7h6.3v-87h-9c-.2 0-.4-.1-.5-.3-.1-.2 0-.4.1-.6l28.4-27.6H13.2C6.4 61.2.7 56.1.1 49.3-.6 42.5 4 36.4 10.7 35.2l1.9-.4.2-1.9c1.3-9.7 9.6-17 19.4-17 9.8 0 18.1 7.3 19.4 17l.3 2.1c1.2.1 3.7.3 5.3 1.7l.7-.7.8-.7V1h1v4.8h24.8v.8l-7.7 7.7 7.7 7.7v.8H59.6v12.1h69.3l2.7 2.6 52.9 51.4c.2.1.2.4.1.6-.1.2-.3.3-.5.3h-9v87h6.3V189.4zM82.8 6.8l-7.5 7.5 7.5 7.5H59.6v-15h23.2zM13.2 60.3C6.5 60.3 1 54.8 1 48.1S6.5 36 13.2 36c.1 0 .3-.1.4-.2.1-.1.2-.2.2-.4C13.7 25.2 22 17 32.2 17s18.5 8.3 18.5 18.5c0 .1.1.3.2.4s.2.2.4.2c.1 0 3.3-.1 5.2 1.4L32.8 60.3H13.2zm169.7 28.5L128.6 36H60.4l54.4 52.8h68.1zM59.1 36.2L5 88.8h108.3L59.1 36.2zm45.4 68.4H13.7V89.8h90.8v14.8zm69.7 0h-68.6V89.8h68.6v14.8zM25.3 164v12.8H13.7v-71.1h11.6v12.5h3.2V164h-3.2zm1.1-46.9h18v-11.5h-18v11.5zM42.2 164h3.2v12.8h27.5V164H76v-45.8h-3.2v-12.5H45.4v12.6h-3.2V164zm49.6-46.9h-18v-11.5h18v11.5zm1.1 46.9h-3.2v-45.8h3.2v-12.6h11.6v71.1H92.9V164zm81.3-58.4v71.1h-68.6v-71.1h68.6zm-133 12.6V164H29.5v-45.8h11.7zM88.7 164v-45.8H77V164h11.7zm-62.3 1v11.8h18V165h-18zm47.5 7v-7h18v11.8h-18V172zm36.9 17.4H7.4v-11.6h103.5v11.6zm69.7 0h-68.6v-11.6h68.6V189.4z"/>
        </g>
    </g>
</symbol><symbol id="icon-service-4" viewBox="0 0 190 191">
    <style>
        .st0{clip-path:url(#SVGID_2_)}.st1{fill:none;stroke:#4485e0}.st2{clip-path:url(#SVGID_4_)}.st3{clip-path:url(#SVGID_6_)}.st4{clip-path:url(#SVGID_8_)}.st5{clip-path:url(#SVGID_10_)}.st6{clip-path:url(#SVGID_12_)}.st7{clip-path:url(#SVGID_14_)}.st8{clip-path:url(#SVGID_16_)}
    </style>
    
    <clipPath id="SVGID_2_">
        <use xlink:href="#SVGID_1_" overflow="visible"/>
    </clipPath>
    <g class="st0">
        <path class="st1" d="M51 0v190h139V0H51zm50.6 189H52V1h49.6v188zm1 0H189V1h-86.4v188z"/>
    </g>
    
    <clipPath id="SVGID_4_">
        <use xlink:href="#SVGID_3_" overflow="visible"/>
    </clipPath>
    <g class="st2">
        <path class="st1" d="M88.8 120.7H64.5V18h24.3v102.7zm-1-1H65.5V19h22.3v100.7z"/>
    </g>
    
    <clipPath id="SVGID_6_">
        <use xlink:href="#SVGID_5_" overflow="visible"/>
    </clipPath>
    <g class="st3">
        <path class="st1" d="M76.7 143.6c6.2 0 11.2 5 11.2 11.2 0 6.2-5 11.2-11.2 11.2s-11.2-5-11.2-11.2c0-6.2 5-11.2 11.2-11.2m0 23.4c6.7 0 12.2-5.4 12.2-12.2 0-6.7-5.4-12.2-12.2-12.2s-12.2 5.4-12.2 12.2c0 6.7 5.4 12.2 12.2 12.2"/>
    </g>
    <g>
        
        <clipPath id="SVGID_8_">
            <use xlink:href="#SVGID_7_" overflow="visible"/>
        </clipPath>
        <g class="st4">
            <path class="st1" d="M38 120.7H13.7V18H38v102.7zm-1-1H14.7V19H37v100.7z"/>
        </g>
    </g>
    <g>
        
        <clipPath id="SVGID_10_">
            <use xlink:href="#SVGID_9_" overflow="visible"/>
        </clipPath>
        <g class="st5">
            <path class="st1" d="M25.8 166c-6.2 0-11.2-5-11.2-11.2 0-6.2 5-11.2 11.2-11.2s11.2 5 11.2 11.2c0 6.2-5 11.2-11.2 11.2m0-23.4c-6.7 0-12.2 5.4-12.2 12.2 0 6.7 5.4 12.2 12.2 12.2 6.7 0 12.2-5.4 12.2-12.2 0-6.7-5.4-12.2-12.2-12.2"/>
        </g>
    </g>
    <g>
        
        <clipPath id="SVGID_12_">
            <use xlink:href="#SVGID_11_" overflow="visible"/>
        </clipPath>
        <g class="st6">
            <path class="st1" d="M0 190h38v-1H1V1h37V0H0v190z"/>
        </g>
    </g>
    <g>
        
        <clipPath id="SVGID_14_">
            <use xlink:href="#SVGID_13_" overflow="visible"/>
        </clipPath>
        <g class="st7">
            <path class="st1" d="M123 57.7h45.3v-1H123v1z"/>
        </g>
    </g>
    <g>
        
        <clipPath id="SVGID_16_">
            <use xlink:href="#SVGID_15_" overflow="visible"/>
        </clipPath>
        <g class="st8">
            <path class="st1" d="M123 77.5h32.5v-1H123v1z"/>
        </g>
    </g>
</symbol><symbol id="icon-service-5" viewBox="0 0 174 184">
    <style>
        .st0{clip-path:url(#SVGID_2_)}.st1{fill:none;stroke:#4485e0}
    </style>
    
    <clipPath id="SVGID_2_">
        <use xlink:href="#SVGID_1_" overflow="visible"/>
    </clipPath>
    <g class="st0">
        <path class="st1" d="M166.6 151.2l7 31.3.3 1.1H.9l.3-1.1 7-31.3c1.6-6.8 6.8-12.3 13.5-14.1L68 128v-9l-1.3-.8c-10.1-5.9-17.3-15.7-19.7-27.1l-.2-.7c-.2-1.1-.4-1.6-.5-2.9l-.2-3.3c0-.6-.1-1.1-.1-1.7v-5.4c-4.5 0-8.2-3.7-8.2-8.2V50C37.8 22.7 60 .5 87.3.5s49.5 22.2 49.5 49.5v18.9c0 4.5-3.7 8.2-8.2 8.2v5.4c0 .6 0 1.1-.1 1.7l-.2 3c-.2 1.9-.4 2.8-.5 3.4l-.1.6c-2.4 11.3-9.6 21.2-19.7 27.1l-1.3.8v8.9l46.3 9.1c6.9 1.8 12.1 7.2 13.6 14.1zM46.1 76.1V50.6h43.4a121 121 0 0 0 38.6-6.3l.7-.2v32c4 0 7.2-3.2 7.2-7.2V50c0-26.8-21.8-48.5-48.5-48.5S38.9 23.3 38.9 50v18.9c0 4 3.2 7.2 7.2 7.2zm81.7-11.9H93.2v2.6H81.6v-2.6H47.1V51.6h42.5c11.8 0 23.5-1.7 34.8-5l3.4-1v18.6zM47.1 82.5V65.2h8.4v5.9c0 5.5 4.4 9.9 9.9 9.9h6.3c5.5 0 9.9-4.4 9.9-9.9v-3.3h11.6v3.3c0 5.5 4.4 9.9 9.9 9.9h6.3c5.5 0 9.9-4.4 9.9-9.9v-5.9h8.4v17.4c0 22.2-18.1 40.3-40.3 40.3-22.2 0-40.3-18.1-40.3-40.4zm33.5-17.3v5.9c0 4.9-4 8.9-8.9 8.9h-6.3c-4.9 0-8.9-4-8.9-8.9v-5.9h24.1zm13.6 0v5.9c0 4.9 4 8.9 8.9 8.9h6.3c4.9 0 8.9-4 8.9-8.9v-5.9H94.2zm11.6 62.8v-8.3l-3.6 1.4c-4.8 1.8-9.8 2.8-14.8 2.8s-10-.9-14.8-2.8l-3.6-1.4v8.3l18.4 18.1 18.4-18.1zM9.2 151.4l-7 31.1h170.4l-7-31.1c-1.5-6.5-6.4-11.6-12.8-13.4l-46.4-9.2-19 18.7-19-18.7L22 138c-6.4 1.8-11.3 6.9-12.8 13.4z"/>
    </g>
</symbol></svg>