<svg width="92" height="77" viewBox="0 0 92 77" fill="none" xmlns="http://www.w3.org/2000/svg">
<rect width="92.0002" height="77" fill="black" fill-opacity="0"/>
<path d="M71.9813 23.1477C73.3546 25.0684 73.3546 28.211 71.9813 30.1306L71.4964 30.8085C70.1231 32.7292 69.0025 36.2445 69.0055 38.6209V39.4588C69.0055 41.8352 67.1962 44.3777 64.9774 45.1086L64.195 45.3661C61.9761 46.0928 59.0411 48.273 57.675 50.1947L57.1921 50.8737C55.8239 52.7975 52.8919 53.7692 50.672 53.0311L49.8896 52.7705C47.6739 52.0334 44.0461 52.0334 41.8293 52.7705L41.0479 53.0311C38.8311 53.7692 35.8981 52.7975 34.5279 50.8737L34.0521 50.1989C32.685 48.2741 29.7499 46.1011 27.5321 45.3702L26.7487 45.1117C24.5298 44.385 22.7175 41.8383 22.7205 39.4619V38.6241C22.7205 36.2476 21.5999 32.7323 20.2297 30.8116L19.7458 30.1337C18.3725 28.2141 18.3725 25.0715 19.7458 23.1508L20.2297 22.4729C21.6081 20.5501 22.7287 17.0348 22.7216 14.6584V13.8195C22.7216 11.4431 24.5309 8.90056 26.7497 8.1707L27.5321 7.9122C29.7509 7.18546 32.686 5.00525 34.0521 3.08459L34.535 2.40561C35.9022 0.480801 38.8352 -0.490948 41.055 0.247208L41.8364 0.507794C44.0532 1.24491 47.681 1.24491 49.8968 0.507794L50.6792 0.247208C52.896 -0.490948 55.8279 0.480801 57.1992 2.40561L57.6821 3.08459C59.0492 5.00837 61.9843 7.18131 64.2021 7.9122L64.9845 8.1707C67.2033 8.89744 69.0157 11.4431 69.0126 13.8195V14.6584C69.0126 17.0348 70.1333 20.5501 71.5035 22.4698L71.9813 23.1477Z" fill="white"/>
<path d="M15.1657 73.143V75.6512C14.2587 76.1066 13.3009 76.4482 12.3132 76.6687C11.3295 76.8889 10.3252 76.9999 9.31805 76.9998C8.1132 77.0054 6.91469 76.8219 5.76464 76.4558C4.68381 76.1196 3.67541 75.5774 2.79294 74.8581C1.93369 74.1497 1.23805 73.2571 0.75543 72.2439C0.252167 71.2057 0.0005348 69.9986 0.0005348 68.6227C-0.0130022 67.447 0.230606 66.283 0.713662 65.2153C1.16775 64.2141 1.81535 63.3165 2.61771 62.5762C3.4316 61.8328 4.37729 61.2545 5.404 60.8725C6.48485 60.467 7.6284 60.2627 8.78014 60.2693C9.26532 60.2648 9.75018 60.2964 10.2308 60.3638C10.6383 60.4275 11.0214 60.4946 11.38 60.5652C11.7386 60.6358 12.0782 60.6988 12.3988 60.7542C12.7599 60.8127 13.1252 60.8405 13.4909 60.8372C13.7874 60.8387 14.0833 60.8071 14.3731 60.7428C14.6509 60.6791 14.945 60.6002 15.2553 60.5061V63.8895H14.8376C14.1597 62.959 13.2551 62.225 12.2133 61.7602C11.183 61.2917 10.0673 61.0498 8.93907 61.0501C7.94879 61.0338 6.96674 61.2357 6.06007 61.6418C5.23662 62.0171 4.49819 62.5618 3.89115 63.2417C3.28324 63.9328 2.81764 64.7413 2.52195 65.6192C1.88625 67.53 1.88625 69.6011 2.52195 71.5119C2.82032 72.4101 3.28514 73.2415 3.89115 73.9611C4.49059 74.6658 5.2257 75.2376 6.05091 75.6409C6.94707 76.0711 7.92819 76.286 8.91869 76.269C9.46762 76.2628 10.0142 76.1953 10.5487 76.0675C11.1368 75.9336 11.7089 75.7352 12.2551 75.4758C12.7926 75.2217 13.2918 74.8906 13.7374 74.4926C14.1583 74.1262 14.4885 73.6638 14.7011 73.143H15.1657Z" fill="white"/>
<path d="M25.1038 60.6027C25.4925 60.5917 25.8794 60.6602 26.2417 60.8041C26.522 60.9183 26.7755 61.0917 26.9854 61.3128C27.1654 61.5087 27.3001 61.7432 27.3797 61.9991C27.4534 62.2284 27.4925 62.4679 27.4958 62.7092C27.4945 62.82 27.4867 62.9306 27.4724 63.0404C27.4563 63.1688 27.4294 63.2956 27.3919 63.4193C27.3576 63.535 27.3023 63.6431 27.2289 63.738C27.1939 63.7815 27.1494 63.8159 27.099 63.8386C27.0485 63.8614 26.9936 63.8717 26.9385 63.8689C26.8855 63.8735 26.8324 63.8613 26.7866 63.8337C26.7407 63.8062 26.7045 63.7647 26.6828 63.7152C26.6282 63.5819 26.5892 63.4425 26.5667 63.2999C26.4438 62.6839 26.2312 62.1994 25.9289 61.8465C25.6267 61.4935 25.135 61.3159 24.4538 61.3139H21.7602C21.4047 61.3011 21.0535 61.3958 20.7506 61.5859C20.479 61.7679 20.3431 62.0794 20.3431 62.5202V67.7963H23.4778C23.8674 67.8035 24.2507 67.6953 24.5811 67.4849C24.8983 67.2772 25.0569 66.9381 25.0569 66.4675H25.5214V69.717H25.0569C25.0569 69.2588 24.8983 68.9273 24.5811 68.7224C24.2505 68.5125 23.8674 68.4043 23.4778 68.411H20.3441V73.9954C20.3441 74.6592 20.5452 75.1997 20.9472 75.6171C21.3493 76.0344 21.8757 76.2421 22.5263 76.24H24.4772C25.2671 76.24 25.8902 76.0268 26.3466 75.6004C26.803 75.1741 27.0778 74.5827 27.1708 73.8262C27.1804 73.6858 27.2036 73.5467 27.2401 73.4109C27.2717 73.3071 27.3562 73.2572 27.4958 73.2572C27.557 73.2538 27.6181 73.2647 27.6744 73.2892C27.7308 73.3137 27.7809 73.3511 27.8208 73.3984C27.9027 73.503 27.9621 73.624 27.995 73.7535C28.0332 73.8928 28.0568 74.0358 28.0653 74.1802C28.0724 74.3224 28.0765 74.4397 28.0765 74.5353C28.0773 74.8475 28.0058 75.1556 27.8676 75.4343C27.7296 75.7163 27.5405 75.9692 27.3104 76.1798C27.0719 76.3961 26.7953 76.5645 26.4954 76.676C26.1836 76.7948 25.8533 76.855 25.5204 76.8535H16.373V76.3812C16.6718 76.3811 16.9704 76.3651 17.2675 76.3334C17.5515 76.308 17.8281 76.2277 18.0825 76.0967C18.3208 75.9726 18.5247 75.7894 18.6754 75.5641C18.8289 75.3357 18.906 75.0163 18.9067 74.6059V62.6376C18.9204 62.3427 18.8477 62.0503 18.6978 61.7977C18.5671 61.5919 18.3821 61.4278 18.164 61.3242C17.9362 61.2191 17.6934 61.1514 17.4448 61.1239C17.1824 61.0919 16.9184 61.076 16.6542 61.0761V60.6027H25.1038Z" fill="white"/>
<path d="M33.5112 60.6026C33.665 60.6026 33.8861 60.6026 34.1723 60.5912C34.4586 60.5798 34.7571 60.5714 35.0668 60.5559C35.3765 60.5403 35.6699 60.5278 35.949 60.5195C36.2282 60.5112 36.437 60.5081 36.5756 60.5081C37.2489 60.5108 37.9181 60.6158 38.5611 60.8196C39.1988 61.0151 39.7995 61.3191 40.3378 61.7187C40.8583 62.107 41.2931 62.6021 41.6143 63.1721C41.9461 63.7738 42.1146 64.4547 42.1023 65.1447C42.1077 65.9216 41.9537 66.6911 41.65 67.4038C41.3609 68.0854 40.9459 68.704 40.4275 69.2258C39.9095 69.7436 39.3001 70.1568 38.6314 70.4436C37.9377 70.7444 37.1909 70.8973 36.437 70.8932C35.9949 70.8946 35.5555 70.8227 35.1361 70.6803C34.7118 70.5353 34.3179 70.3106 33.9747 70.018L34.2304 69.639C34.5513 69.8116 34.8904 69.9467 35.241 70.0419C35.5933 70.1371 35.9564 70.1849 36.3209 70.1841C36.9228 70.1906 37.5195 70.0697 38.0731 69.829C38.5883 69.6061 39.0543 69.2798 39.4434 68.8697C39.8298 68.4565 40.1336 67.9706 40.3378 67.4391C40.5562 66.8667 40.6652 66.2571 40.6587 65.643C40.6712 64.9769 40.5317 64.3169 40.2512 63.7151C39.9925 63.1702 39.6152 62.6926 39.1479 62.3187C38.6696 61.9404 38.1266 61.6556 37.5465 61.4788C36.9291 61.2869 36.2868 61.191 35.6414 61.1944C35.1889 61.195 34.7376 61.2426 34.2946 61.3366C33.8554 61.4273 33.4326 61.587 33.0415 61.81V74.8248C33.0415 75.1882 33.1108 75.4716 33.2504 75.6772C33.384 75.8773 33.5685 76.0367 33.7842 76.1381C34.0157 76.2453 34.2627 76.3133 34.5157 76.3395C34.7814 76.3712 35.0488 76.3872 35.3164 76.3873V76.8597H29.3506V76.3873C29.6145 76.3875 29.8781 76.3715 30.1401 76.3395C30.3893 76.3123 30.6325 76.2443 30.8604 76.1381C31.0761 76.0367 31.2606 75.8773 31.3942 75.6772C31.5338 75.4695 31.603 75.1882 31.603 74.8248V62.6375C31.6167 62.3426 31.544 62.0502 31.3942 61.7976C31.2632 61.592 31.0782 61.428 30.8604 61.3241C30.6322 61.2188 30.3891 61.1512 30.1401 61.1238C29.8781 61.0918 29.6145 61.0759 29.3506 61.076V60.6026H33.5112Z" fill="white"/>
<path d="M43.2168 76.3874C43.4852 76.3869 43.7531 76.3629 44.0175 76.3157C44.273 76.2741 44.52 76.1903 44.749 76.0676C44.9587 75.9559 45.1382 75.7933 45.2716 75.5942C45.4122 75.364 45.4811 75.0958 45.4693 74.8249V62.6375C45.4645 62.226 45.302 61.8327 45.0164 61.5417C44.7309 61.2507 44.3449 61.0851 43.9411 61.0802H43.2209V60.6068H46.7274C47.4104 60.6133 48.0931 60.5737 48.771 60.4885C49.2323 60.4186 49.6974 60.3791 50.1637 60.3701C50.8268 60.3701 51.4868 60.4616 52.1258 60.6421C52.7323 60.8086 53.3104 61.0679 53.8404 61.4114C54.3276 61.7254 54.7442 62.1408 55.0629 62.6303C55.3725 63.1113 55.5342 63.6756 55.5274 64.2509C55.5298 64.6955 55.4388 65.1356 55.2605 65.5414C55.0852 65.9388 54.8501 66.3059 54.5637 66.6294C54.2768 66.9527 53.9485 67.2352 53.5877 67.4693C53.2437 67.6964 52.8735 67.8791 52.4854 68.0133C52.9736 68.1367 53.4481 68.3106 53.9015 68.5324C54.334 68.7425 54.7301 69.023 55.0741 69.363C55.4086 69.6961 55.6801 70.0892 55.8748 70.5226C56.0847 70.9981 56.189 71.515 56.1804 72.0363C56.1907 72.7364 56.0184 73.4268 55.6812 74.0369C55.3528 74.6224 54.915 75.1367 54.3925 75.5506C53.3189 76.3899 52.0067 76.8508 50.6537 76.8639H43.2168V76.3874ZM50.5518 68.9799C50.3374 69.1212 50.0869 69.1952 49.8316 69.1927C49.6606 69.1869 49.4919 69.1518 49.3324 69.0889C49.2478 69.0668 49.1731 69.0162 49.1203 68.9454C49.0676 68.8745 49.04 68.7874 49.042 68.6985C49.042 68.4909 49.1504 68.3566 49.367 68.2957C49.5478 68.2389 49.7352 68.2072 49.9243 68.2012C50.4244 68.2031 50.9218 68.1271 51.3994 67.9759C51.8507 67.8371 52.2721 67.6123 52.6413 67.3136C52.9989 67.0202 53.2918 66.6533 53.5011 66.237C53.7258 65.774 53.8373 65.2625 53.8261 64.7461C53.8449 64.2168 53.7361 63.6909 53.5094 63.2144C53.2826 62.7378 52.9446 62.3252 52.5251 62.0125C52.1346 61.719 51.6938 61.5025 51.2252 61.3741C50.7564 61.2416 50.2722 61.1738 49.7857 61.1726C49.4226 61.1717 49.0605 61.2114 48.7058 61.291C48.3872 61.3597 48.0789 61.471 47.789 61.6222C47.5437 61.7493 47.3264 61.9259 47.1502 62.1413C46.9924 62.3338 46.9062 62.5767 46.9067 62.8275V73.3341C46.9025 73.7434 47.0026 74.1469 47.1971 74.5051C47.3891 74.8587 47.6453 75.1719 47.952 75.4281C48.2602 75.6878 48.6095 75.8921 48.985 76.0323C49.3533 76.1701 49.7427 76.2404 50.1351 76.24C50.6713 76.2385 51.2053 76.1709 51.7254 76.0385C52.2384 75.9139 52.7258 75.6977 53.1649 75.4001C53.5866 75.1125 53.9396 74.7322 54.1979 74.2871C54.4707 73.8018 54.6074 73.2495 54.5932 72.6904C54.6013 72.1625 54.4823 71.6407 54.2468 71.1705C54.0206 70.7287 53.7087 70.3384 53.33 70.0233C52.9448 69.7052 52.5089 69.4569 52.0412 69.2892C51.5624 69.1159 51.0621 69.0117 50.5549 68.9799H50.5518Z" fill="white"/>
<path d="M60.981 74.8248C60.981 75.1881 61.0503 75.4716 61.1848 75.6771C61.3184 75.8773 61.5029 76.0366 61.7186 76.1381C61.9501 76.2452 62.1971 76.3132 62.4501 76.3395C62.7162 76.3712 62.9839 76.3872 63.2518 76.3872V76.8596H57.2891V76.3872C57.5529 76.3873 57.8166 76.3714 58.0786 76.3395C58.3274 76.3121 58.5702 76.2441 58.7978 76.1381C59.0137 76.0369 59.1983 75.8775 59.3317 75.6771C59.4712 75.4695 59.5415 75.1881 59.5415 74.8248V62.6374C59.5549 62.3424 59.4819 62.05 59.3317 61.7975C59.2009 61.5917 59.0159 61.4277 58.7978 61.3241C58.57 61.2189 58.3272 61.1513 58.0786 61.1237C57.8166 61.0918 57.5529 61.0759 57.2891 61.076V60.6025H63.2569V61.076C62.989 61.076 62.7213 61.092 62.4552 61.1237C62.2024 61.1502 61.9554 61.2179 61.7237 61.3241C61.5058 61.4279 61.3209 61.5919 61.1899 61.7975C61.0418 62.0507 60.9709 62.343 60.9861 62.6374V73.3578L71.6626 62.7329V62.6374C71.6763 62.3425 71.6036 62.0501 71.4538 61.7975C71.3225 61.5922 71.1377 61.4282 70.92 61.3241C70.6918 61.2189 70.4487 61.1513 70.1997 61.1237C69.9377 61.0918 69.6741 61.0759 69.4102 61.076V60.6025H75.3546V61.076C75.0907 61.0758 74.8271 61.0918 74.5651 61.1237C74.3164 61.1511 74.0736 61.2188 73.8458 61.3241C73.6277 61.4279 73.4424 61.5919 73.311 61.7975C73.1634 62.0509 73.0925 62.3431 73.1072 62.6374V74.8248C73.1072 75.1881 73.1775 75.4716 73.311 75.6771C73.4449 75.8774 73.6298 76.0367 73.8458 76.1381C74.0734 76.2442 74.3163 76.3122 74.5651 76.3395C74.8271 76.3714 75.0907 76.3874 75.3546 76.3872V76.8596H69.4102V76.3872C69.6741 76.3873 69.9377 76.3714 70.1997 76.3395C70.4488 76.312 70.692 76.244 70.92 76.1381C71.1355 76.0364 71.32 75.8771 71.4538 75.6771C71.5934 75.4695 71.6626 75.1881 71.6626 74.8248V64.1106L60.981 74.7303V74.8248Z" fill="white"/>
<path d="M91.9108 73.143V75.6512C91.0038 76.1066 90.046 76.4482 89.0583 76.6687C88.0746 76.8889 87.0703 76.9999 86.0632 76.9998C84.8583 77.0054 83.6598 76.8219 82.5098 76.4558C81.4289 76.1196 80.4205 75.5774 79.5381 74.8581C78.6788 74.1497 77.9832 73.2571 77.5006 72.2439C76.9973 71.2057 76.7457 69.9986 76.7457 68.6227C76.7321 67.447 76.9757 66.283 77.4588 65.2153C77.9129 64.2141 78.5605 63.3165 79.3628 62.5762C80.1767 61.8328 81.1224 61.2545 82.1491 60.8725C83.23 60.467 84.3735 60.2627 85.5253 60.2693C86.0104 60.2648 86.4953 60.2964 86.976 60.3638C87.3835 60.4275 87.7665 60.4946 88.1251 60.5652C88.4837 60.6358 88.8233 60.6988 89.1439 60.7542C89.505 60.8127 89.8703 60.8405 90.236 60.8372C90.5326 60.8387 90.8284 60.8071 91.1182 60.7428C91.3967 60.6791 91.6908 60.6002 92.0005 60.5061V63.8895H91.5828C90.9048 62.959 90.0002 62.225 88.9585 61.7602C87.9289 61.2929 86.8143 61.0516 85.6872 61.0521C84.697 61.0359 83.7149 61.2377 82.8082 61.6439C81.9839 62.0182 81.2444 62.5622 80.6363 63.2417C80.0291 63.933 79.5642 64.7415 79.2691 65.6192C78.6334 67.53 78.6334 69.6011 79.2691 71.5119C79.5675 72.4101 80.0323 73.2415 80.6383 73.9611C81.2377 74.6658 81.9729 75.2376 82.7981 75.6409C83.6942 76.0711 84.6753 76.286 85.6658 76.269C86.2148 76.2628 86.7614 76.1953 87.2959 76.0675C87.884 75.9336 88.4561 75.7352 89.0023 75.4758C89.5391 75.2215 90.0375 74.8904 90.4825 74.4926C90.9034 74.1262 91.2336 73.6638 91.4463 73.143H91.9108Z" fill="white"/>
<path d="M51.4938 34.1922C51.8816 34.1922 52.3105 34.2005 52.7805 34.2171L54.2006 34.267L55.5963 34.3168C56.0497 34.3324 56.4704 34.3417 56.8586 34.3417H57.2477C59.2852 34.3417 60.8989 33.7884 60.7634 33.5112C60.6901 33.3627 60.1175 33.7987 58.4611 33.7987C57.9428 33.7987 57.4209 33.7825 56.8952 33.7499C56.3696 33.7174 55.8721 33.6679 55.4028 33.6015C55.3009 33.6015 55.2571 33.5766 55.2571 33.5267C55.2571 33.4935 55.305 33.4613 55.4028 33.4281C56.0497 33.263 60.4293 31.4472 60.4293 27.1678C60.4293 23.6847 55.4629 24.8672 55.4629 24.8672C55.2924 24.8838 55.1426 24.9004 55.0136 24.917C54.8037 24.9502 54.708 25.0083 54.6988 25.1392C54.6448 25.5814 56.5845 24.7841 57.8763 25.1049C58.5059 25.2617 59.22 26.0455 59.2333 27.009C59.1069 31.1327 55.0747 33.2963 54.7589 33.3783C54.381 33.4679 53.9936 33.5094 53.6057 33.5018C50.9182 33.4696 48.9337 33.4063 49.3208 33.9171C49.7079 34.4279 50.2071 34.1683 51.4938 34.1922Z" fill="black" stroke="black" stroke-width="0.5"/>
<path d="M48.2163 20.1504C46.2628 20.6482 44.4479 21.597 42.9116 22.9234C42.0029 23.6948 41.0178 24.4195 40.0469 25.2075C39.9338 25.3061 39.8289 25.4016 39.7311 25.4919C39.6333 25.5823 39.5375 25.6684 39.4397 25.7515C39.6502 25.3729 39.8808 24.9275 40.1314 24.4153C40.382 23.9031 40.6452 23.3546 40.921 22.7698C41.196 22.1856 41.4833 21.5838 41.7828 20.9644C42.0813 20.3414 42.4766 19.6407 42.4766 19.5908L41.9143 19.5452C41.736 19.5119 41.6973 19.5088 41.2602 19.4413C40.8232 19.3739 40.2649 19.2763 39.5854 19.1444L38.9181 19.0084C38.6349 18.9503 38.3272 18.889 37.9961 18.8226C37.665 18.7561 37.3278 18.7032 36.9886 18.6617C36.6905 18.6235 36.3905 18.6027 36.09 18.5994C35.5598 18.5894 35.0314 18.6647 34.5242 18.8226C34.05 18.9898 33.6215 19.2695 33.2742 19.6386C31.6065 21.4264 32.3573 25.4213 32.7037 26.4419C32.7557 26.5945 32.9197 26.6101 32.8942 26.392C32.773 25.3798 32.066 22.0783 33.6868 20.356C33.9351 20.1011 34.2451 19.9178 34.5854 19.8244C34.9399 19.7174 35.3077 19.6632 35.6775 19.6635C36.322 19.6624 36.9648 19.732 37.5947 19.8711C38.2264 20.0096 38.8658 20.129 39.5131 20.2293C39.8526 20.2792 40.1922 20.3203 40.5318 20.3529C40.8711 20.3861 41.2195 20.4027 41.575 20.4027C40.4839 23.1415 38.0562 28.0853 34.9531 31.0961C34.5966 31.4422 34.223 31.7803 33.8325 32.1104C33.2944 32.5681 32.6934 32.9431 32.0487 33.2234C31.434 33.5074 30.7685 33.659 30.0937 33.6687C29.5162 33.6766 28.9442 33.554 28.4188 33.3095C27.9176 33.0708 27.578 32.8195 27.4001 32.5558C27.2381 32.3243 27.1322 32.5631 27.23 32.6794C27.5653 33.1296 28.0198 33.4728 28.5401 33.6687C29.0558 33.8523 29.5965 33.9525 30.1426 33.9657C30.5963 33.9657 31.1545 33.8584 31.8174 33.6438C32.4803 33.4293 33.2246 33.0088 34.0505 32.3824C34.5669 31.9778 35.05 31.531 35.4951 31.0463C36.0052 30.5023 36.4826 29.9486 36.9275 29.3852C37.3727 28.8245 38.2987 27.5455 38.5952 27.1063C38.8916 26.6672 39.6139 34.4495 44.3868 34.4495C45.3475 34.4495 46.8898 34.3519 48.9549 32.8662C49.8381 32.2308 50.6867 31.2986 51.4946 30.1264C52.3025 28.9543 53.1694 27.5953 54.0924 26.0453C54.5291 25.3026 54.9821 24.4614 55.4514 23.5214C55.7122 23.0023 56.0566 22.232 56.3979 21.4887C61.3144 22.5082 63.1216 20.8118 62.978 19.5638C62.8618 18.5765 61.8645 18.2235 62.1426 18.6097C62.4207 18.996 62.9169 20.0009 62.0998 20.4546C61.2532 20.9249 58.9417 20.7588 56.5802 20.3695C52.6998 19.6801 50.4463 19.8929 50.4463 19.8929C50.4463 19.8929 49.6884 19.7798 48.2163 20.1504ZM55.049 21.1834C55.3547 21.2623 55.644 21.3308 55.9313 21.3911C55.6328 22.0316 55.3271 22.693 55.0877 23.1415C54.6347 23.9907 54.1855 24.8195 53.7399 25.6279C53.2944 26.4363 52.8618 27.2074 52.442 27.941C52.0203 28.675 51.6861 29.245 51.2521 29.9323C48.8407 33.432 45.9108 33.6283 45.0041 33.6283C42.009 33.6532 40.4839 30.7006 39.725 26.6028C39.5711 25.8709 39.8645 25.7411 40.0815 25.5366C40.1141 25.495 42.0508 23.9793 43.0817 23.1788C44.2798 22.2445 45.81 21.5696 47.4797 21.1595C47.2939 21.2847 47.123 21.4313 46.9703 21.5966C46.6912 21.9081 46.5526 22.2022 46.5547 22.4791C46.573 22.7594 46.7251 22.9802 47.0111 23.1415C47.297 23.3027 47.7211 23.3588 48.2835 23.3096C48.6204 23.273 48.9519 23.1953 49.2707 23.0781C49.6312 22.9498 49.9805 22.7907 50.3149 22.6026C50.6504 22.4161 50.9704 22.2019 51.2715 21.9621C51.5358 21.7593 51.7713 21.5204 51.9714 21.2519C52.1018 21.0671 52.2495 20.5024 52.1222 20.3809L55.049 21.1834ZM56.5802 20.0445L51.9255 21.0225C51.8054 21.1765 51.6569 21.3053 51.4885 21.4014C51.2605 21.5456 51.0221 21.6719 50.7754 21.7793C50.5012 21.9028 50.219 22.0069 49.9308 22.0908C49.5627 22.201 49.1885 22.2891 48.8102 22.3545C48.5014 22.4112 48.1894 22.4477 47.876 22.4635C47.2953 22.4635 46.9897 22.3268 46.9591 22.0534C46.9316 21.7793 47.1995 21.4762 47.7904 21.2021C49.1321 20.5813 52.4023 20.2895 51.9255 21.0184L56.5802 20.0445Z" fill="black" stroke="black" stroke-width="0.5"/>
</svg>
