<?xml version="1.0" encoding="utf-8"?>
<!-- Generator: Adobe Illustrator 21.1.0, SVG Export Plug-In . SVG Version: 6.00 Build 0)  -->
<svg version="1.1" id="Слой_1" xmlns="http://www.w3.org/2000/svg" xmlns:xlink="http://www.w3.org/1999/xlink" x="0px" y="0px"
	 viewBox="0 0 97.8 79" style="enable-background:new 0 0 97.8 79;" xml:space="preserve">
<path d="M57.2,68.5v-14h10v14H57.2z M88.8,0H35.6c-4.9,0-9,4-9,9v9.7c0,0.8,0.7,1.5,1.5,1.5s1.5-0.7,1.5-1.5V9c0-3.3,2.7-6,6-6h53.2
	c3.3,0,6,2.7,6,6v36.6c0,3.3-2.7,6-6,6H68.9c0,0,0,0-0.1,0c0,0,0,0-0.1,0h-13c-0.8,0-1.5,0.7-1.5,1.5v15.5H39.9
	c-0.8,0-1.5,0.7-1.5,1.5c0,0.8,0.7,1.5,1.5,1.5h15.8h13h15.8c0.8,0,1.5-0.7,1.5-1.5c0-0.8-0.7-1.5-1.5-1.5H70.2v-14h18.6
	c4.9,0,9-4,9-9V9C97.8,4,93.7,0,88.8,0z"/>
<path d="M18.2,33c3.4-3.8,8.1-5.8,12.9-5.8c4.1,0,8.1,1.4,11.4,4.3c7.1,6.3,7.8,17.2,1.5,24.3c-6.3,7.1-17.2,7.8-24.3,1.5
	C12.6,51,11.9,40.1,18.2,33z M4.9,75.3l-1.3-1.1l9-10.1c0.1,0.3,0.2,0.5,0.4,0.7c0.3,0.2,0.6,0.3,0.9,0.4L4.9,75.3z M31.1,64.7
	c5.6,0,11.1-2.3,15.1-6.8c7.4-8.3,6.6-21.2-1.7-28.6C36.2,21.9,23.4,22.7,16,31c-7.1,8-6.7,20,0.6,27.5l-2.5,2.8l-0.6-0.5
	c-0.6-0.5-1.6-0.5-2.1,0.1L0.4,73.3C0.1,73.6,0,74,0,74.4c0,0.4,0.2,0.8,0.5,1L4,78.6C4.3,78.8,4.6,79,5,79c0.4,0,0.8-0.2,1.1-0.5
	L17.2,66c0.3-0.3,0.4-0.7,0.4-1.1c0-0.4-0.2-0.8-0.5-1l-0.7-0.6l2.5-2.8C22.5,63.3,26.8,64.7,31.1,64.7z"/>
<path d="M64.1,12.2c0,1.2-0.6,1.8-1.8,1.8c-1.2,0-1.8-0.6-1.8-1.8s0.6-1.8,1.8-1.8C63.5,10.4,64.1,11,64.1,12.2z"/>
</svg>
