<?xml version="1.0" encoding="utf-8"?>
<!-- Generator: Adobe Illustrator 22.0.1, SVG Export Plug-In . SVG Version: 6.00 Build 0)  -->
<svg version="1.1" id="Слой_1" xmlns="http://www.w3.org/2000/svg" xmlns:xlink="http://www.w3.org/1999/xlink" x="0px" y="0px"
	 viewBox="0 0 191 190" style="enable-background:new 0 0 191 190;" xml:space="preserve">
<style type="text/css">
	.st0{clip-path:url(#SVGID_2_);}
	.st1{fill:#4485E0;}
	.st1{fill: none; stroke: #4485E0;}
</style>
<g>
	<defs>
		<rect id="SVGID_1_" x="-272.3" y="-442.1" width="1909.8" height="1074.3"/>
	</defs>
	<clipPath id="SVGID_2_">
		<use xlink:href="#SVGID_1_"  style="overflow:visible;"/>
	</clipPath>
	<g class="st0">
		<path class="st1" d="M158.1,46.8l32.1,70c0,0.1,0,0.1,0,0.2c0,10.7-8.7,19.4-19.4,19.4h-31.5c-10.7,0-19.4-8.7-19.4-19.4
			c0,0,0-0.1,0-0.1l32.2-70.4l-2.4-1.1c-4.8-2.2-10.2-3.4-15.5-3.4h-31.8v121.6l12.3,12.3h12.4c7.2,0,13.1,5.9,13.1,13.1
			c0,0.3-0.2,0.5-0.5,0.5H51.6c-0.3,0-0.5-0.2-0.5-0.5c0-7.2,5.9-13.1,13.1-13.1h12.4l12.3-12.3V41.9H57.1c-5.3,0-10.7,1.2-15.5,3.4
			l-2.4,1.1l32.2,70.4c0,0.1,0,0.1,0,0.1c0,10.7-8.7,19.4-19.4,19.4H20.6c-10.7,0-19.4-8.7-19.4-19.4c0-0.1,0-0.1,0-0.2l32.1-70
			l-7.4-3.7l0.4-0.9l7.4,3.7l2.1-4.7c0-0.1,0.1-0.2,0.2-0.2c0.3-0.1,0.5,0,0.7,0.2l2,4.4l2.4-1.1c5-2.3,10.5-3.5,15.9-3.5h31.7V26.7
			h-6.3v-1h6.2l-3.1-12.4c-0.4-1.6-0.4-3.4,0-5c1.2-4.7,5.4-7.8,10-7.8c4.6,0,8.9,3.1,10,7.8c0.4,1.6,0.4,3.4,0,5l-3.1,12.4h6.2v1
			h-6.3v14.3h31.7c5.5,0,11,1.2,15.9,3.5l2.4,1.1l2-4.4c0.1-0.2,0.4-0.4,0.7-0.2c0.1,0,0.2,0.1,0.2,0.2l2.1,4.7l7.4-3.7l0.4,0.9
			L158.1,46.8z M89.8,25.7h11.8l3.2-12.6c0.7-2.8,0.1-5.8-1.7-8L103,5c-1.9-2.2-4.6-3.4-7.3-3.4c-2.7,0-5.4,1.1-7.3,3.4l-0.1,0.1
			c-1.8,2.3-2.4,5.3-1.7,8L89.8,25.7z M89.9,40.9V26.7h11.6v14.3H89.9z M89.9,41.9v121.4h11.6V41.9H89.9z M36.1,43h0.3l1.5,3
			c0,0-1.3,0.9-1.4,1.1h-0.3l-1.6-0.9L36.1,43z M155,43h0.3l1.4,3.3l-1.6,0.9h-0.3c-0.2-0.2-1.4-1.1-1.4-1.1L155,43z M70.3,116.6
			H2.5l31.8-69.4l1.9,1.1c0.1,0,0.2,0,0.2,0c0,0,1.2-1,1.8-1.4L70.3,116.6z M154.9,48.2c0,0-1.2-1-1.8-1.4l-31.9,69.7h67.7
			l-31.8-69.4l-1.9,1.1C155.1,48.3,155,48.3,154.9,48.2z M52.1,135.4c8.7,0,16.3-6.2,18-14.7c0,0,0.3-1.8,0.3-3.2H2.2
			c0,0,0,1.3,0.3,2.8l0,0c0,0.1,0.1,0.3,0.1,0.4c1.8,8.5,9.3,14.7,18,14.7H52.1z M188.9,120.4L188.9,120.4c0.3-1.6,0.3-2.8,0.3-2.8
			H121c0,1.4,0.3,3.2,0.3,3.2c1.7,8.5,9.3,14.7,18,14.7h31.5c8.7,0,16.3-6.2,18-14.7C188.8,120.6,188.9,120.5,188.9,120.4z
			 M78,175.9l11.6-11.6h12.2l11.6,11.6H78z M138.6,185c-1.7-4.8-6.3-8.1-11.4-8.1h-63c-5.1,0-9.7,3.2-11.4,8.1l-0.2,0.4
			c-0.2,0.5-0.4,1.6-0.6,3.1h87.3c-0.1-1.5-0.4-2.5-0.6-3.1L138.6,185z"/>
	</g>
</g>
</svg>
