<?xml version="1.0" encoding="utf-8"?>
<!-- Generator: Adobe Illustrator 21.1.0, SVG Export Plug-In . SVG Version: 6.00 Build 0)  -->
<svg version="1.1" id="Слой_1" xmlns="http://www.w3.org/2000/svg" xmlns:xlink="http://www.w3.org/1999/xlink" x="0px" y="0px"
	 viewBox="0 0 63.4 99.1" style="enable-background:new 0 0 63.4 99.1;" xml:space="preserve">
<path d="M14.1,96c-4,0-7.2-2.6-7.2-5.7l0-5.9l0,0c2.2,0,3.9-1.7,3.9-3.9l0-5.5l15.5,0c0.7,2.4,2.9,4.3,5.5,4.3
	c2.7,0,4.9-1.8,5.6-4.2l14.8,0l0,5.5c0,2.2,1.7,3.9,3.9,3.9l0,0l0,5.9c0,3.1-3.2,5.7-7.2,5.7L14.1,96z M3.9,81.3
	c-0.5,0-0.9-0.4-0.9-0.9l0-14c0-0.5,0.4-0.9,0.9-0.9l3.1,0c0.5,0,0.9,0.4,0.9,0.9l0,14c0,0.5-0.4,0.9-0.9,0.9L3.9,81.3z M7.1,38.3
	L7.1,38.3c2.2,0,4-1.7,4-3.9l0-5.5l13.5,0l0,4.6c0,0.8,0.7,1.5,1.5,1.5l4.6,0l-0.1,32.9c-2,0.5-3.5,2.1-4.1,4l-15.5,0l0-5.5
	c0-2.2-1.7-3.9-3.9-3.9l0,0L7.1,38.3z M4,35.3c-0.5,0-0.9-0.4-0.9-0.9l0-14c0-0.5,0.4-0.9,0.9-0.9l3.1,0c0.5,0,0.9,0.4,0.9,0.9l0,14
	c0,0.5-0.4,0.9-0.9,0.9L4,35.3z M7.1,8.7c0-3.1,3.2-5.7,7.2-5.7l34.9,0.1c4,0,7.2,2.6,7.2,5.7l0,7.8l0,0c-2.2,0-3.9,1.7-3.9,3.9
	l0,5.5l-12.8,0l0-4.6c0-0.8-0.7-1.5-1.5-1.5l-12.1,0c-0.8,0-1.5,0.7-1.5,1.5l0,4.6l-13.5,0l0-5.5c0-2.2-1.7-3.9-3.9-3.9l0,0L7.1,8.7
	z M59.5,19.6c0.5,0,0.9,0.4,0.9,0.9l0,14c0,0.5-0.4,0.9-0.9,0.9l-3.1,0c-0.5,0-0.9-0.4-0.9-0.9l0-14c0-0.5,0.4-0.9,0.9-0.9
	L59.5,19.6z M27.5,22.8l9.1,0l0,9.1l-4.6,0c0,0,0,0,0,0c0,0,0,0,0,0l-4.6,0L27.5,22.8L27.5,22.8z M56.3,62.6L56.3,62.6
	c-2.2,0-4,1.7-4,3.9l0,5.5l-14.8,0c-0.5-2-2.1-3.5-4-4.1L33.6,35l4.6,0c0.8,0,1.5-0.7,1.5-1.5l0-4.6l12.8,0l0,5.5
	c0,2.2,1.7,3.9,3.9,3.9l0,0L56.3,62.6z M29.2,73.5c0-1.5,1.2-2.8,2.8-2.7s2.8,1.2,2.7,2.8c0,1.5-1.2,2.8-2.8,2.7
	C30.4,76.2,29.2,75,29.2,73.5z M59.3,65.6c0.5,0,0.9,0.4,0.9,0.9l0,14c0,0.5-0.4,0.9-0.9,0.9l-3.1,0c-0.5,0-0.9-0.4-0.9-0.9l0-14
	c0-0.5,0.4-0.9,0.9-0.9L59.3,65.6z M59.2,90.4l0-5.9l0,0c2.2,0,3.9-1.7,3.9-3.9l0-14c0-2.2-1.7-3.9-3.9-3.9l0,0l0.1-24.2l0,0
	c2.2,0,3.9-1.7,3.9-3.9l0-14c0-2.2-1.7-3.9-3.9-3.9l0,0l0-7.8c0-4.8-4.6-8.7-10.2-8.7L14.4,0C8.7,0,4.1,3.9,4.1,8.7l0,7.8l0,0
	c-2.2,0-3.9,1.7-3.9,3.9l0,14c0,2.2,1.7,3.9,3.9,3.9l0,0L4,62.5l0,0c-2.2,0-3.9,1.7-3.9,3.9l0,14c0,2.2,1.7,3.9,3.9,3.9l0,0l0,5.9
	C3.9,95,8.5,99,14.1,99L49,99.1C54.6,99.1,59.2,95.2,59.2,90.4z"/>
</svg>
