<?xml version="1.0" encoding="utf-8"?>
<!-- Generator: Adobe Illustrator 21.1.0, SVG Export Plug-In . SVG Version: 6.00 Build 0)  -->
<svg version="1.1" id="Слой_1" xmlns="http://www.w3.org/2000/svg" xmlns:xlink="http://www.w3.org/1999/xlink" x="0px" y="0px"
	 viewBox="0 0 86 77.7" style="enable-background:new 0 0 86 77.7;" xml:space="preserve">
<path d="M74.3,20.4c-4.8,0-8.7-3.9-8.7-8.7S69.5,3,74.3,3c4.8,0,8.7,3.9,8.7,8.7S79.1,20.4,74.3,20.4z M51.7,66.1
	c0,4.8-3.9,8.7-8.7,8.7c-4.8,0-8.7-3.9-8.7-8.7c0-4.8,3.9-8.7,8.7-8.7C47.8,57.4,51.7,61.3,51.7,66.1z M20.4,66.1
	c0,4.8-3.9,8.7-8.7,8.7c-4.8,0-8.7-3.9-8.7-8.7c0-4.8,3.9-8.7,8.7-8.7C16.5,57.4,20.4,61.3,20.4,66.1z M3,11.7C3,6.9,6.9,3,11.7,3
	c4.8,0,8.7,3.9,8.7,8.7s-3.9,8.7-8.7,8.7C6.9,20.4,3,16.5,3,11.7z M34.3,11.7C34.3,6.9,38.2,3,43,3c4.8,0,8.7,3.9,8.7,8.7
	s-3.9,8.7-8.7,8.7C38.2,20.4,34.3,16.5,34.3,11.7z M86,11.7C86,5.2,80.7,0,74.3,0c-6.4,0-11.7,5.2-11.7,11.7
	c0,5.9,4.5,10.8,10.2,11.6v14.1H44.5V23.3c5.7-0.7,10.2-5.6,10.2-11.6C54.7,5.2,49.4,0,43,0c-6.4,0-11.7,5.2-11.7,11.7
	c0,5.9,4.5,10.8,10.2,11.6v14.1H13.2V23.3c5.7-0.7,10.2-5.6,10.2-11.6C23.4,5.2,18.1,0,11.7,0C5.2,0,0,5.2,0,11.7
	c0,5.9,4.5,10.8,10.2,11.6v31.2C4.5,55.2,0,60.1,0,66.1c0,6.4,5.2,11.7,11.7,11.7c6.4,0,11.7-5.2,11.7-11.7
	c0-5.9-4.5-10.8-10.2-11.6V40.4h28.3v14.1c-5.7,0.7-10.2,5.6-10.2,11.6c0,6.4,5.2,11.7,11.7,11.7c6.4,0,11.7-5.2,11.7-11.7
	c0-5.9-4.5-10.8-10.2-11.6V40.4h29.8c0.8,0,1.5-0.7,1.5-1.5V23.3C81.5,22.5,86,17.6,86,11.7z"/>
</svg>
