<?xml version="1.0" encoding="utf-8"?>
<!-- Generator: Adobe Illustrator 21.1.0, SVG Export Plug-In . SVG Version: 6.00 Build 0)  -->
<svg version="1.1" id="Иконки" xmlns="http://www.w3.org/2000/svg" xmlns:xlink="http://www.w3.org/1999/xlink" x="0px"
	 y="0px" viewBox="0 0 18.6 18.6" style="enable-background:new 0 0 18.6 18.6;" xml:space="preserve">
<g>
	<path d="M18.6,9.3c0-5.1-4.2-9.3-9.3-9.3C4.2,0,0,4.2,0,9.3c0,1.9,0.6,3.7,1.6,5.1l0,0l0.1,0.1c0.1,0.1,0.1,0.2,0.2,0.2
		c0,0,0,0.1,0.1,0.1C1.9,14.9,2,15,2.1,15.1c0,0,0,0.1,0.1,0.1c0.4,0.4,0.8,0.8,1.2,1.2c0,0,0.1,0,0.1,0.1c0.1,0.1,0.2,0.1,0.3,0.2
		c0,0,0.1,0.1,0.1,0.1C3.9,16.8,4,16.9,4.1,17c0,0,0.1,0.1,0.1,0.1c0.1,0.1,0.3,0.2,0.4,0.2c0.1,0.1,0.2,0.1,0.3,0.2
		c0.1,0,0.1,0.1,0.2,0.1c0.1,0.1,0.2,0.1,0.3,0.1c0.1,0,0.1,0,0.2,0.1c0.1,0.1,0.2,0.1,0.4,0.1c0,0,0.1,0,0.1,0
		c0.3,0.1,0.7,0.2,1,0.3c0,0,0,0,0,0c0.2,0,0.3,0.1,0.5,0.1c0,0,0.1,0,0.1,0c0.1,0,0.3,0,0.4,0.1c0.1,0,0.1,0,0.2,0
		c0.1,0,0.3,0,0.4,0c0,0,0.1,0,0.1,0c0.2,0,0.4,0,0.5,0s0.4,0,0.5,0c0,0,0.1,0,0.1,0c0.1,0,0.3,0,0.4,0c0.1,0,0.1,0,0.2,0
		c0.1,0,0.3,0,0.4-0.1c0,0,0.1,0,0.1,0c0.2,0,0.3-0.1,0.5-0.1c0,0,0,0,0,0c0.3-0.1,0.7-0.2,1-0.3c0,0,0.1,0,0.1,0
		c0.1,0,0.2-0.1,0.4-0.1c0.1,0,0.1,0,0.2-0.1c0.1,0,0.2-0.1,0.3-0.1c0.1,0,0.1-0.1,0.2-0.1c0.1,0,0.2-0.1,0.3-0.2
		c0.1-0.1,0.3-0.2,0.4-0.2c0,0,0.1-0.1,0.2-0.1c0.1-0.1,0.2-0.1,0.3-0.2c0,0,0.1-0.1,0.1-0.1c0.1-0.1,0.2-0.1,0.3-0.2
		c0,0,0.1,0,0.1-0.1c0.4-0.4,0.8-0.7,1.2-1.2c0,0,0-0.1,0.1-0.1c0.1-0.1,0.2-0.2,0.2-0.3c0,0,0-0.1,0.1-0.1c0.1-0.1,0.1-0.2,0.2-0.2
		l0.1-0.1l0,0C18,12.9,18.6,11.2,18.6,9.3L18.6,9.3z M17.9,9.3c0,1.5-0.4,3-1.1,4.2c-0.5-1.7-2-2.9-3.8-3v0h-2.1
		c-0.1,0-0.1,0-0.1-0.1v-0.2c0-0.1,0-0.1,0.1-0.1c2-0.7,3.2-3.9,3-6c-0.1-1.1-0.7-2.1-1.5-2.9C15.6,2.4,17.9,5.6,17.9,9.3L17.9,9.3z
		 M16.2,14.4C16.2,14.4,16.2,14.5,16.2,14.4c-0.1,0.2-0.2,0.3-0.3,0.4c0,0,0,0,0,0c-0.2,0.3-0.5,0.6-0.8,0.8c0,0,0,0-0.1,0
		c-0.1,0.1-0.2,0.2-0.3,0.2c0,0-0.1,0-0.1,0.1c-0.1,0.1-0.2,0.1-0.3,0.2c0,0-0.1,0-0.1,0.1c-0.1,0-0.1,0.1-0.2,0.1V13H13v-1.8
		c1.7,0.1,3.1,1.4,3.4,3.1C16.3,14.3,16.3,14.4,16.2,14.4L16.2,14.4z M13.3,16.9c-0.1,0-0.1,0.1-0.2,0.1c-0.1,0-0.2,0.1-0.3,0.1
		c0,0-0.1,0-0.1,0.1c-0.1,0.1-0.2,0.1-0.4,0.1c0,0,0,0-0.1,0c-0.3,0.1-0.6,0.2-0.9,0.3c0,0,0,0-0.1,0c-0.1,0-0.3,0.1-0.4,0.1
		c0,0-0.1,0-0.1,0c-0.1,0-0.2,0-0.4,0.1c0,0-0.1,0-0.1,0c-0.1,0-0.2,0-0.4,0c0,0-0.1,0-0.1,0c-0.2,0-0.3,0-0.5,0c-0.2,0-0.3,0-0.5,0
		c0,0-0.1,0-0.1,0c-0.1,0-0.2,0-0.4,0c0,0-0.1,0-0.1,0c-0.1,0-0.2,0-0.4-0.1c0,0-0.1,0-0.1,0c-0.1,0-0.3-0.1-0.4-0.1c0,0,0,0-0.1,0
		c-0.3-0.1-0.6-0.2-0.9-0.3c0,0,0,0-0.1,0c-0.1,0-0.2-0.1-0.4-0.1c0,0-0.1,0-0.1-0.1c-0.1,0-0.2-0.1-0.3-0.1c-0.1,0-0.1-0.1-0.2-0.1
		c-0.1,0-0.2-0.1-0.2-0.1c0,0,0,0,0,0v-3.2h8.7v3.2c0,0,0,0,0,0C13.5,16.8,13.4,16.9,13.3,16.9L13.3,16.9z M4.1,16.2
		C4,16.1,3.9,16.1,3.8,16c0,0-0.1,0-0.1-0.1c-0.1-0.1-0.2-0.1-0.3-0.2c0,0,0,0-0.1,0c-0.3-0.3-0.6-0.5-0.8-0.8c0,0,0,0,0,0
		c-0.1-0.1-0.1-0.2-0.2-0.3c0,0,0-0.1-0.1-0.1c0-0.1-0.1-0.1-0.1-0.2c0.2-1.7,1.6-3,3.4-3.1V13H4.3v3.4C4.3,16.3,4.2,16.3,4.1,16.2
		C4.1,16.2,4.1,16.2,4.1,16.2L4.1,16.2z M7.9,9.5C6.4,9,5.3,6.4,5.3,4.6c0,0,0-0.1,0-0.1l0.2-0.3C6,3.6,6.9,3.5,7.7,3.8
		C8,4,8.3,4,8.7,4c0.9,0,1.7-0.5,2.2-1.3c1,0.3,1.9,0.9,2.5,1.7c0.1,1.9-1,4.5-2.6,5.1c-0.3,0.1-0.5,0.4-0.5,0.7v0.2
		c0,0.4,0.3,0.7,0.7,0.7h0.2V13H7.4v-1.9h0.2c0.4,0,0.7-0.3,0.7-0.7v-0.2C8.4,9.9,8.2,9.6,7.9,9.5L7.9,9.5z M9.3,0.6L9.3,0.6
		c0.2,0,0.3,0,0.5,0c1.5,0.2,2.8,1.2,3.3,2.7c-0.7-0.6-1.5-1-2.3-1.2L10.5,2l-0.1,0.3c-0.3,0.7-1,1.2-1.7,1.2
		c-0.3,0-0.5-0.1-0.8-0.2C7.1,2.9,6.1,3,5.4,3.5c0.2-0.6,0.5-1.2,1-1.7C7.2,1,8.2,0.6,9.3,0.6L9.3,0.6z M12.4,13h-0.6v-1.9h0.6V13z
		 M6.8,13H6.2v-1.9h0.6V13z M6.2,1.2C6.1,1.2,6.1,1.3,6,1.4c-0.9,0.9-1.4,2-1.4,3.3c0,2.1,1.3,4.8,3,5.5c0,0,0.1,0.1,0.1,0.1v0.2
		c0,0.1-0.1,0.1-0.1,0.1H5.6v0c-1.8,0.1-3.3,1.3-3.8,3C1,12.3,0.6,10.8,0.6,9.3C0.6,5.6,2.9,2.4,6.2,1.2L6.2,1.2z M6.2,1.2"/>
</g>
</svg>
