<?xml version="1.0" encoding="utf-8"?>
<!-- Generator: Adobe Illustrator 21.1.0, SVG Export Plug-In . SVG Version: 6.00 Build 0)  -->
<svg version="1.1" id="Слой_1" xmlns="http://www.w3.org/2000/svg" xmlns:xlink="http://www.w3.org/1999/xlink" x="0px" y="0px"
	 viewBox="0 0 94.4 55" style="enable-background:new 0 0 94.4 55;" xml:space="preserve">
<path d="M91.4,48.5h-4.1V20.7h4.1V48.5z M77.2,36.6c-0.8,0-1.5,0.7-1.5,1.5V52H26.9l-5.2-7.1c-0.3-0.4-0.7-0.6-1.2-0.6h-8.1V20.8
	h7.9c0.8,0,1.5-0.7,1.5-1.5v-7.9h27.5v7.9c0,0.8,0.7,1.5,1.5,1.5h15.9l9.4,11.5c0.3,0.3,0.7,0.5,1.2,0.5h7v3.9L77.2,36.6L77.2,36.6z
	 M92.9,17.7h-7.1c-0.8,0-1.5,0.7-1.5,1.5v10.5h-6.3l-9.4-11.5c-0.3-0.3-0.7-0.5-1.2-0.5H52.2V9.9c0-0.8-0.7-1.5-1.5-1.5H37V3h13.8
	c0.8,0,1.5-0.7,1.5-1.5c0-0.8-0.7-1.5-1.5-1.5H20.3c-0.8,0-1.5,0.7-1.5,1.5c0,0.8,0.7,1.5,1.5,1.5H34v5.4H20.3
	c-0.8,0-1.5,0.7-1.5,1.5v7.9h-7.9c-0.8,0-1.5,0.7-1.5,1.5v11H3v-9c0-0.8-0.7-1.5-1.5-1.5c-0.8,0-1.5,0.7-1.5,1.5v20.9
	c0,0.8,0.7,1.5,1.5,1.5C2.3,43.7,3,43,3,42.2v-9h6.4v12.6c0,0.8,0.7,1.5,1.5,1.5h8.8l5.2,7.1c0.3,0.4,0.7,0.6,1.2,0.6h51.1
	c0.8,0,1.5-0.7,1.5-1.5V39.6h5.5V50c0,0.8,0.7,1.5,1.5,1.5h7.1c0.8,0,1.5-0.7,1.5-1.5V19.2C94.4,18.4,93.7,17.7,92.9,17.7z"/>
</svg>
