<?xml version="1.0" encoding="utf-8"?>
<!-- Generator: Adobe Illustrator 21.1.0, SVG Export Plug-In . SVG Version: 6.00 Build 0)  -->
<svg version="1.1" id="Слой_1" xmlns="http://www.w3.org/2000/svg" xmlns:xlink="http://www.w3.org/1999/xlink" x="0px" y="0px"
	 viewBox="0 0 68.5 92.6" style="enable-background:new 0 0 68.5 92.6;" xml:space="preserve">
<style type="text/css">
	.st0{fill:#231F20;}
</style>
<g>
	<path class="st0" d="M60.7,0h-24c-2.4,0-4.6,0.9-6.3,2.6c-1.3,1.3-2.1,2.8-2.4,4.6V6.5c0-1.8-1.5-3.3-3.3-3.3H11.1
		c-1.8,0-3.3,1.5-3.3,3.3v1.3c0,0.9,0.3,1.7,0.9,2.3C3.8,10.9,0,15.2,0,20.4v68.2c0,2.2,1.8,4,4,4h60.4c2.2,0,4-1.8,4-4V7.8
		C68.5,3.5,65,0,60.7,0z M27.8,8.8C27.8,8.8,27.8,8.8,27.8,8.8c0,0.5-0.2,0.8-0.5,1C27.5,9.5,27.7,9.1,27.8,8.8z M65.5,88.5
		c0,0.6-0.5,1-1,1H4c-0.6,0-1-0.5-1-1V20.4c0-4.1,3.3-7.4,7.4-7.5l1.5,0V8.4L11,8c-0.1,0-0.2-0.1-0.2-0.3V6.5c0-0.2,0.1-0.3,0.3-0.3
		h13.5c0.2,0,0.3,0.1,0.3,0.3v1.3C25,7.9,24.9,8,24.8,8L24,8.4v4.5h2.8c2.2,0,4-1.8,4-4c0-1.6,0.6-3,1.7-4.1C33.6,3.6,35.1,3,36.7,3
		h24c2.6,0,4.8,2.2,4.8,4.8V88.5z"/>
	<path class="st0" d="M59,4.7H37.4c-1.4,0-2.8,0.6-3.8,1.6c-1,1-1.6,2.4-1.6,3.8c0,3,2.4,5.4,5.4,5.4H59c1.4,0,2.8-0.6,3.8-1.6h0
		c1-1,1.6-2.4,1.6-3.8C64.4,7.2,61.9,4.7,59,4.7z M60.7,11.8c-0.5,0.5-1.1,0.7-1.7,0.7H37.4c-1.3,0-2.4-1.1-2.4-2.4
		c0-0.6,0.3-1.3,0.7-1.7c0.5-0.5,1.1-0.7,1.7-0.7H59c1.3,0,2.4,1.1,2.4,2.4C61.4,10.8,61.1,11.4,60.7,11.8z"/>
	<rect x="52.5" y="64.6" transform="matrix(0.7841 -0.6206 0.6206 0.7841 -34.976 49.7158)" class="st0" width="3" height="21"/>
	<rect x="14.1" y="15.8" transform="matrix(0.7842 -0.6205 0.6205 0.7842 -13.1187 15.3778)" class="st0" width="3" height="21.5"/>
	<rect x="43.3" y="25" transform="matrix(0.6205 -0.7842 0.7842 0.6205 -0.2829 52.3159)" class="st0" width="21.2" height="3"/>
	<rect x="4.8" y="73.5" transform="matrix(0.6205 -0.7842 0.7842 0.6205 -52.9575 40.6212)" class="st0" width="21.3" height="3"/>
	<path class="st0" d="M50.1,56.3V44.8c0-5.2-4.3-9.5-9.5-9.5H29c-5.2,0-9.5,4.3-9.5,9.5v11.5c0,5.2,4.3,9.5,9.5,9.5h11.5
		C45.8,65.8,50.1,61.6,50.1,56.3z M47.1,56.3c0,3.6-2.9,6.5-6.5,6.5H29c-3.6,0-6.5-2.9-6.5-6.5V44.8c0-3.6,2.9-6.5,6.5-6.5h11.5
		c3.6,0,6.5,2.9,6.5,6.5V56.3z"/>
</g>
</svg>
