<?xml version="1.0" encoding="utf-8"?>
<!-- Generator: Adobe Illustrator 21.1.0, SVG Export Plug-In . SVG Version: 6.00 Build 0)  -->
<svg version="1.1" id="Слой_1" xmlns="http://www.w3.org/2000/svg" xmlns:xlink="http://www.w3.org/1999/xlink" x="0px" y="0px"
	 viewBox="0 0 68 68" style="enable-background:new 0 0 68 68;" xml:space="preserve">
<style type="text/css">
	.st0{fill:#bc0e0e;}
</style>
<path class="st0" d="M47.7,21.6c-1.1-1.1-2.8-1.1-3.8,0L34,31.5l-9.9-9.9c-1.1-1.1-2.8-1.1-3.8,0c-1.1,1.1-1.1,2.8,0,3.8l9.9,9.9
	l-9.9,9.9c-1.1,1.1-1.1,2.8,0,3.8c0.5,0.5,1.2,0.8,1.9,0.8c0.7,0,1.4-0.3,1.9-0.8l9.9-9.9l9.9,9.9c0.5,0.5,1.2,0.8,1.9,0.8
	c0.7,0,1.4-0.3,1.9-0.8c1.1-1.1,1.1-2.8,0-3.8l-9.9-9.9l9.9-9.9C48.8,24.4,48.8,22.6,47.7,21.6z"/>
<path class="st0" d="M34,62.6C18.2,62.6,5.4,49.8,5.4,34C5.4,18.2,18.2,5.4,34,5.4c15.8,0,28.6,12.8,28.6,28.6
	C62.6,49.8,49.8,62.6,34,62.6z M34,0C15.3,0,0,15.3,0,34c0,18.8,15.3,34,34,34c18.8,0,34-15.3,34-34C68,15.3,52.8,0,34,0z"/>
</svg>
