<?xml version="1.0" encoding="utf-8"?>
<!-- Generator: Adobe Illustrator 21.1.0, SVG Export Plug-In . SVG Version: 6.00 Build 0)  -->
<svg version="1.1" id="Иконки" xmlns="http://www.w3.org/2000/svg" xmlns:xlink="http://www.w3.org/1999/xlink" x="0px"
	 y="0px" viewBox="0 0 20 16" style="enable-background:new 0 0 20 16;" xml:space="preserve">
<style type="text/css">
	.st0{fill:#12100B;}
</style>
<g>
	<path class="st0" d="M4,9.7c-1,0-1.8,0.6-2.2,1.5c-0.1,0.2,0,0.5,0.2,0.5c0,0,0.1,0,0.1,0c0.2,0,0.3-0.1,0.4-0.3
		c0.2-0.6,0.8-1,1.4-1c0.2,0,0.4-0.2,0.4-0.4C4.4,9.9,4.2,9.7,4,9.7L4,9.7z"/>
	<path class="st0" d="M10,8.6c0.4,0,0.7,0.3,0.7,0.7c0,0.4-0.3,0.7-0.7,0.7c-0.4,0-0.7-0.3-0.7-0.7C9.3,8.9,9.6,8.6,10,8.6L10,8.6z
		 M10,10.9c0.9,0,1.6-0.7,1.6-1.6c0-0.9-0.7-1.6-1.6-1.6c-0.9,0-1.6,0.7-1.6,1.6C8.4,10.2,9.1,10.9,10,10.9L10,10.9z"/>
	<path class="st0" d="M16,15.2c-1.7,0-3.1-1.4-3.1-3.1c0-1.7,1.4-3.1,3.1-3.1c1.7,0,3.1,1.4,3.1,3.1C19.2,13.7,17.8,15.2,16,15.2
		L16,15.2z M4,15.2c-1.7,0-3.1-1.4-3.1-3.1c0-1.7,1.4-3.1,3.1-3.1c1.7,0,3.1,1.4,3.1,3.1C7.1,13.7,5.7,15.2,4,15.2L4,15.2z M2.8,5
		C3.3,3.6,3.7,2.5,5,2.5c1,0,1.7,0.8,2.4,1.6c0.1,0.1,0.2,0.3,0.4,0.4L7.6,6.2c0,0.2,0.1,0.4,0.3,0.5c0,0,0,0,0.1,0
		c0.2,0,0.4-0.1,0.4-0.4l0.3-1.8C9,4.2,9.5,4,10,4c0.5,0,1,0.2,1.3,0.5l0.1,0.8c0,0.2,0.2,0.4,0.4,0.4c0,0,0,0,0.1,0
		c0.2,0,0.4-0.2,0.3-0.5l-0.1-0.8c0.1-0.1,0.3-0.3,0.4-0.4C13.3,3.3,14,2.5,15,2.5c1.4,0,1.8,1,2.2,2.5l1.1,3.7
		C17.7,8.3,16.9,8,16,8c-1.9,0-3.4,1.3-3.9,3C11.6,11.7,10.8,12,10,12c-0.8,0-1.6-0.3-2.2-0.9C7.4,9.3,5.8,8,4,8
		C3.1,8,2.3,8.3,1.7,8.8L2.8,5L2.8,5z M5.6,0.8c0.9,0,1.5,0.7,1.5,1.5c0,0.1,0,0.1,0,0.2C6.5,2.1,5.9,1.7,5,1.7
		c-0.3,0-0.6,0-0.9,0.1C4.4,1.2,4.9,0.8,5.6,0.8L5.6,0.8z M14.4,0.8c0.7,0,1.2,0.4,1.4,1c-0.3-0.1-0.6-0.1-0.9-0.1
		c-0.8,0-1.5,0.4-2.1,0.9c0-0.1,0-0.1,0-0.2C12.9,1.5,13.6,0.8,14.4,0.8L14.4,0.8z M19.7,10.5L18,4.8C17.7,4,17.5,3,16.8,2.4
		c0,0,0,0,0,0c0-1.3-1.1-2.4-2.4-2.4C13.1,0,12,1.1,12,2.4c0,0.3,0.1,0.6,0.2,0.9c-0.1,0.1-0.2,0.2-0.3,0.3
		c-0.1,0.1-0.1,0.2-0.2,0.2c-0.5-0.4-1.1-0.6-1.7-0.6c-0.6,0-1.2,0.2-1.7,0.6C8.2,3.7,8.2,3.6,8.1,3.5C8,3.4,7.9,3.3,7.8,3.2
		C7.9,3,8,2.7,8,2.4C8,1.1,6.9,0,5.6,0S3.2,1.1,3.2,2.4c0,0,0,0,0,0C2.5,3,2.3,4,2,4.8l-1.7,5.7C0.1,10.9,0,11.5,0,12
		c0,2.2,1.8,4,4,4c2.1,0,3.9-1.7,4-3.8c0.6,0.4,1.3,0.6,2,0.6s1.4-0.2,2-0.6c0.1,2.1,1.9,3.8,4,3.8c2.2,0,4-1.8,4-4
		C20,11.5,19.9,10.9,19.7,10.5L19.7,10.5z"/>
	<path class="st0" d="M2.5,12.4C2.5,12.2,2.3,12,2,12.1c-0.2,0.1-0.4,0.3-0.3,0.5c0,0.2,0.2,0.3,0.4,0.3c0,0,0.1,0,0.1,0
		C2.5,12.9,2.6,12.6,2.5,12.4C2.6,12.4,2.6,12.4,2.5,12.4L2.5,12.4z"/>
	<path class="st0" d="M16,9.7c-1,0-1.8,0.6-2.2,1.5c-0.1,0.2,0,0.5,0.2,0.5c0,0,0.1,0,0.1,0c0.2,0,0.3-0.1,0.4-0.3
		c0.2-0.6,0.8-1,1.4-1c0.2,0,0.4-0.2,0.4-0.4C16.4,9.9,16.3,9.7,16,9.7L16,9.7z"/>
	<path class="st0" d="M14.6,12.4c-0.1-0.2-0.3-0.4-0.5-0.3c-0.2,0.1-0.4,0.3-0.3,0.5c0,0.2,0.2,0.3,0.4,0.3c0,0,0.1,0,0.1,0
		C14.5,12.9,14.6,12.6,14.6,12.4C14.6,12.4,14.6,12.4,14.6,12.4L14.6,12.4z"/>
</g>
</svg>
