<?xml version="1.0" encoding="utf-8"?>
<!-- Generator: Adobe Illustrator 21.1.0, SVG Export Plug-In . SVG Version: 6.00 Build 0)  -->
<svg version="1.1" id="Слой_1" xmlns="http://www.w3.org/2000/svg" xmlns:xlink="http://www.w3.org/1999/xlink" x="0px" y="0px"
	 viewBox="0 0 265.2 269.7" style="enable-background:new 0 0 265.2 269.7;" xml:space="preserve">
<path d="M262.4,177.5c-6.9-15.6-24.7-23.4-41.4-18.2c-9.2,2.9-18.4,6.2-27.3,9.4c-3,1.1-5.2,0.8-7.8-1.1c-8.2-6.1-17.3-8-27-5.6
	l-5.4,1.3c-9,2.2-18.3,4.5-27.4,7.1c-8.4,2.3-16.2,1.3-23.8-3.1c-9-5.2-18.3-8.1-27.9-8.6c-3.3-0.2-6.6-0.1-10.2-0.1
	c-1.7,0-3.3,0-5,0h-1v-1c0-1.2,0-2.2,0-3.1c0-1.9,0-3.3,0-4.8c-0.2-6.4-2.5-8.6-8.9-8.6c-7,0-13.7,0-20.1,0c-6.7,0-13.1,0-19.4,0
	c-6.3,0-8.6,2.4-8.7,8.8c-0.1,5.4-0.1,11,0,16.3c0,2.2,0,4.4,0,6.6v21.9c0,20.9,0,41.7,0,62.6c0,9.8,1.6,11.4,11.2,11.4l9.8,0
	c8.9,0,18.1,0,27.2,0c6.6,0,8.9-2.3,9-9.1c0.1-3.4,0-6.8,0-10.4c0-1.6,0-3.3,0-5v-0.9l0.9-0.1c12.7-1.6,24.7,0.5,38.8,7.1
	c17.4,8.1,35.2,7.9,52.7-0.5c31-14.8,62.4-30,92.8-44.8l11-5.3C263.5,195.3,266.5,186.8,262.4,177.5z M44.1,254.7H15v-99.6h29.1
	V254.7z M249.8,186.5c-0.5,0.3-1,0.5-1.5,0.8c-1.1,0.6-2.2,1.2-3.3,1.7c-33.2,16.1-66.5,32.2-99.7,48.3c-7.3,3.6-14.7,5.3-21.9,5.3
	c-6.8,0-13.4-1.6-20-4.7c-14.2-6.8-27.6-9.7-41-8.9c-0.8,0-1.5-0.1-2.2-0.2c-0.3-0.1-0.7-0.1-1.1-0.2l-0.9-0.1v-56.1l0.9-0.1
	c14.2-1.4,25.2,0.5,34.6,6c12.1,7.1,24.6,8.6,38.1,4.7c7.7-2.2,15.6-4.1,23.2-6c2.3-0.5,4.5-1.1,6.8-1.7c9.5-2.3,17.5,1.7,21.8,11
	l0.4,0.9l-0.9,0.4c-0.5,0.2-1,0.5-1.5,0.7c-1.1,0.5-2.2,1-3.3,1.5c-16.4,6.6-33.3,13.5-50,20.1c-2.7,1.1-5.8,3.1-5.1,6.6
	c0.4,2,2.1,4.3,4.8,6.5c0.6,0.5,2.9,0.4,4.6-0.3c20.6-8.2,41.6-16.6,62.5-25.1c4.6-1.9,5.9-5.1,4-10.1c-0.3-0.9-0.7-1.8-1.2-2.9
	l-1.2-3.1l1-0.3c3.3-1,6.5-2.1,9.7-3.2c7.3-2.4,14.8-4.9,22.3-6.5c8.6-1.8,17,3.8,20.4,13.6l0.3,0.8L249.8,186.5z"/>
<path d="M242.6,73.6l0-4.9c0-3.7,0-7.4,0-11.1c0-5.6-1.5-7.5-7-8.7c-3.4-0.7-6.8-1.5-10.2-2.2c-10.1-2.2-20.5-4.5-30.8-6.5
	c-3.9-0.8-5.5-2.8-6.8-5.6c-1.8-3.9-3.6-7.8-5.4-11.6c-2.4-5.2-5-10.7-7.3-16c-1.8-4.2-4.5-6-9-6H166c-27,0.1-53.7,0.1-79.5,0h-0.1
	c-4.7,0-7.5,1.9-9.3,6.3c-2.1,5.1-4.3,10.3-6.5,15.3c-2,4.6-4.1,9.4-6,14.1c-1.3,3.1-3.2,4.3-6.5,4.3c-10.8-0.2-21.3-0.1-33,0
	c-5.4,0-7.8,2.3-7.9,7.4c-0.2,14.2-0.2,28.4,0,42.5c0.1,5.1,2.1,7.2,7.4,7.4c5.2,0.2,10.7,0.2,16.4,0c3.3-0.1,5.2,1.1,6.5,4.2
	c4.9,11.6,14,17.7,26.3,17.8h0.3c12.4,0,21.6-6.2,26.6-17.8c1.3-3.1,3.1-4.3,6.5-4.2c13.4,0.1,23.7,0.1,33.5,0h0.2
	c3.5,0,4.9,1.6,6.1,4.4c5.2,11.5,14.3,17.6,26.5,17.7h0.1c12.3,0,21.4-6.1,26.4-17.5c1.7-3.9,4.1-4.6,7.3-4.5
	c7.5,0.1,15,0.1,22.4,0.1l3.6,0c7.2,0,9.3-2.1,9.3-9.1V78.5L242.6,73.6z M85,102.1c-2.9,3-6.9,4.7-10.8,4.7c0,0,0,0,0,0
	c-8.2,0-15.3-7-15.4-15.3c-0.1-3.9,1.6-7.8,4.4-10.7c2.9-3,6.9-4.7,10.8-4.7h0c8.2,0,15.3,7,15.4,15.2C89.5,95.2,87.9,99.2,85,102.1
	z M184.1,102.4c-2.9,2.8-6.6,4.4-10.5,4.4h-0.2c-8.5-0.1-15.1-6.9-15-15.5c0-2.1,0.4-4.1,1.2-5.9c0.8-1.9,1.9-3.5,3.4-5
	c2.9-2.8,6.7-4.4,10.7-4.3c8.5,0.1,15.1,6.9,15.1,15.4C188.7,95.5,187.1,99.5,184.1,102.4z M228.9,78.7c0,1.7,0,3.4,0,5.2v1h-1
	c-2.1,0-4.1,0-6.1,0c-5.8,0-11.3,0-16.7-0.1c-1.7,0-3.7-1.8-4.3-3.2c-5.4-12.4-14.5-18.6-27.1-18.6h-0.2c-12.4,0.1-21.5,6.3-27,18.5
	c-0.7,1.7-3.3,3.3-5.3,3.3c-12.3,0.2-23.5,0.2-34.5,0c-1.9,0-4.6-1.8-5.5-3.7C95.5,68.9,86.4,62.8,74,62.9
	C61.5,63,52.6,69.1,47.4,81.1c-1,2.2-2.3,4.2-5.8,3.8c-1.5-0.2-3-0.2-4.2,0c-0.6,0.1-1.2,0.1-1.8,0.1c-1.5,0-2.7-0.4-3.5-1.1
	c-1.2-1.1-1.7-2.8-1.5-5.6c0.2-5,0.2-10.1,0.1-15.5c0-2.4,0-4.8,0-7.3v-1h10.6c2.3,0,4.7,0,7,0c5.4,0,11-0.1,16.5,0.1
	c5,0.1,8-1.8,9.8-6.4c2.1-5.3,4.4-10.6,6.6-15.7c1.9-4.3,3.8-8.8,5.6-13.3c1.4-3.3,3.3-4.6,6.8-4.6c20.6,0.1,41.9,0.2,65,0h0.1
	c3.6,0,5.5,1.2,6.9,4.4c1.8,4.1,3.7,8.2,5.6,12.2c2.1,4.6,4.4,9.4,6.4,14.1c1.8,4.2,4.6,6.3,9.3,7.3c11,2.2,22.6,4.7,37.6,8.1
	c1.6,0.4,4.1,2.2,4.2,4C229,69.3,228.9,73.9,228.9,78.7z"/>
<path d="M36.4,229.7c0,3.5-3.2,6.7-6.6,6.8c-3.5,0.1-6.8-2.9-7-6.4c-0.1-1.9,0.5-3.6,1.8-5c1.2-1.4,2.9-2.1,4.8-2.2
	c0.1,0,0.1,0,0.2,0c1.8,0,3.5,0.7,4.8,2C35.6,226.2,36.4,227.9,36.4,229.7z"/>
</svg>
