<svg width="140" height="40" viewBox="0 0 140 40" version="1.1" xmlns="http://www.w3.org/2000/svg" xmlns:xlink="http://www.w3.org/1999/xlink">
<title>Group</title>
<desc>Created using Figma</desc>
<g id="Canvas" transform="translate(-1567 2023)">
<g id="Group">
<g id="&#208;&#154;&#208;&#176;&#209;&#129;&#208;&#186;&#208;&#176;&#208;&#180; - &#208;&#156;">
<use xlink:href="#path0_fill" transform="translate(1640 -2012)" fill="#003469"/>
</g>
<g id="Vector">
<use xlink:href="#path1_fill" transform="translate(1567 -1993.86)" fill="#003469"/>
</g>
<g id="Vector">
<use xlink:href="#path2_fill" transform="translate(1572.73 -2017.86)" fill="#003469"/>
</g>
<g id="Rectangle">
<use xlink:href="#path3_fill" transform="translate(1628.32 -2023)" fill="#003469"/>
</g>
</g>
</g>
<defs>
<path id="path0_fill" d="M 2.324 3.34L 2.324 7.834L 2.744 7.834L 6.258 3.34L 7.686 3.34L 3.85 7.96C 4.27 8.016 4.62933 8.12333 4.928 8.282C 5.236 8.43133 5.49733 8.62267 5.712 8.856C 5.936 9.08 6.12733 9.34133 6.286 9.64C 6.44467 9.92933 6.594 10.2467 6.734 10.592C 6.92067 11.1053 7.09333 11.5907 7.252 12.048C 7.41067 12.5053 7.59733 12.9533 7.812 13.392L 6.566 13.392C 6.37933 13.0467 6.21133 12.664 6.062 12.244C 5.91267 11.8147 5.76333 11.3993 5.614 10.998C 5.49267 10.662 5.35733 10.3587 5.208 10.088C 5.05867 9.808 4.872 9.57 4.648 9.374C 4.424 9.16867 4.158 9.01467 3.85 8.912C 3.542 8.8 3.16867 8.744 2.73 8.744L 2.324 8.744L 2.324 13.392L 1.134 13.392L 1.134 3.34L 2.324 3.34ZM 12.857 9.682C 12.493 9.67267 12.1244 9.68667 11.751 9.724C 11.3777 9.76133 11.037 9.84067 10.729 9.962C 10.421 10.0833 10.169 10.256 9.97303 10.48C 9.78636 10.704 9.69303 10.998 9.69303 11.362C 9.69303 11.81 9.81903 12.1413 10.071 12.356C 10.323 12.5613 10.617 12.664 10.953 12.664C 11.205 12.664 11.429 12.6313 11.625 12.566C 11.8304 12.4913 12.0077 12.3933 12.157 12.272C 12.3157 12.1507 12.4464 12.02 12.549 11.88C 12.6517 11.7307 12.731 11.5767 12.787 11.418C 12.815 11.3433 12.8337 11.2733 12.843 11.208C 12.8524 11.1333 12.857 11.0633 12.857 10.998L 12.857 9.682ZM 14.019 11.67C 14.019 11.978 14.0237 12.2813 14.033 12.58C 14.0517 12.8693 14.0844 13.14 14.131 13.392L 13.053 13.392L 12.941 12.454L 12.899 12.454C 12.703 12.7433 12.4137 13 12.031 13.224C 11.6577 13.448 11.205 13.56 10.673 13.56C 10.309 13.56 9.98703 13.4993 9.70703 13.378C 9.43636 13.266 9.2077 13.112 9.02103 12.916C 8.8437 12.72 8.70836 12.5007 8.61503 12.258C 8.53103 12.0153 8.48903 11.768 8.48903 11.516C 8.48903 10.648 8.8577 9.98067 9.59503 9.514C 10.3324 9.04733 11.4104 8.81867 12.829 8.828L 12.829 8.674C 12.829 8.52467 12.8104 8.352 12.773 8.156C 12.745 7.95067 12.675 7.75933 12.563 7.582C 12.451 7.39533 12.283 7.24133 12.059 7.12C 11.835 6.98933 11.5317 6.924 11.149 6.924C 10.813 6.924 10.4817 6.97067 10.155 7.064C 9.82836 7.148 9.53903 7.28333 9.28703 7.47L 9.00703 6.658C 9.3057 6.462 9.6557 6.308 10.057 6.196C 10.4677 6.084 10.8877 6.028 11.317 6.028C 11.8677 6.028 12.3157 6.11667 12.661 6.294C 13.0157 6.462 13.291 6.686 13.487 6.966C 13.6924 7.246 13.8324 7.56333 13.907 7.918C 13.9817 8.26333 14.019 8.61333 14.019 8.968L 14.019 11.67ZM 21.2687 13.126C 21.1007 13.2007 20.8347 13.2893 20.4707 13.392C 20.1067 13.4947 19.6774 13.546 19.1827 13.546C 18.6507 13.546 18.1654 13.4573 17.7267 13.28C 17.2881 13.1027 16.9101 12.8553 16.5927 12.538C 16.2847 12.2113 16.0467 11.824 15.8787 11.376C 15.7107 10.9187 15.6267 10.4147 15.6267 9.864C 15.6267 9.304 15.7154 8.79067 15.8927 8.324C 16.0794 7.85733 16.3407 7.456 16.6767 7.12C 17.0127 6.77467 17.4141 6.50867 17.8807 6.322C 18.3567 6.126 18.8841 6.028 19.4627 6.028C 19.8641 6.028 20.2281 6.07 20.5547 6.154C 20.8814 6.238 21.1287 6.33133 21.2967 6.434L 21.0027 7.344C 20.8441 7.25067 20.6341 7.17133 20.3727 7.106C 20.1207 7.03133 19.8127 6.994 19.4487 6.994C 19.0194 6.994 18.6414 7.06867 18.3147 7.218C 17.9881 7.36733 17.7127 7.568 17.4887 7.82C 17.2741 8.072 17.1107 8.37067 16.9987 8.716C 16.8867 9.052 16.8307 9.41133 16.8307 9.794C 16.8307 10.2233 16.8961 10.6107 17.0267 10.956C 17.1574 11.3013 17.3347 11.5953 17.5587 11.838C 17.7921 12.0713 18.0627 12.2533 18.3707 12.384C 18.6881 12.5147 19.0334 12.58 19.4067 12.58C 19.7894 12.58 20.1114 12.5427 20.3727 12.468C 20.6341 12.384 20.8581 12.3 21.0447 12.216L 21.2687 13.126ZM 24.0069 6.196L 24.0069 9.36L 24.3149 9.36L 27.1429 6.196L 28.5989 6.196L 25.4069 9.458C 26.0229 9.53267 26.5223 9.75667 26.9049 10.13C 27.2876 10.494 27.6236 11.012 27.9129 11.684C 28.0156 11.9173 28.1276 12.1927 28.2489 12.51C 28.3703 12.818 28.5103 13.112 28.6689 13.392L 27.4229 13.392C 27.3203 13.2333 27.2083 13.0233 27.0869 12.762C 26.9749 12.5007 26.8583 12.2253 26.7369 11.936C 26.4849 11.3387 26.1676 10.9 25.7849 10.62C 25.4116 10.3307 24.9076 10.186 24.2729 10.186L 24.0069 10.186L 24.0069 13.392L 22.8169 13.392L 22.8169 6.196L 24.0069 6.196ZM 33.652 9.682C 33.288 9.67267 32.9193 9.68667 32.546 9.724C 32.1726 9.76133 31.832 9.84067 31.524 9.962C 31.216 10.0833 30.964 10.256 30.768 10.48C 30.5813 10.704 30.488 10.998 30.488 11.362C 30.488 11.81 30.614 12.1413 30.866 12.356C 31.118 12.5613 31.412 12.664 31.748 12.664C 32 12.664 32.224 12.6313 32.42 12.566C 32.6253 12.4913 32.8026 12.3933 32.952 12.272C 33.1106 12.1507 33.2413 12.02 33.344 11.88C 33.4466 11.7307 33.526 11.5767 33.582 11.418C 33.61 11.3433 33.6286 11.2733 33.638 11.208C 33.6473 11.1333 33.652 11.0633 33.652 10.998L 33.652 9.682ZM 34.814 11.67C 34.814 11.978 34.8186 12.2813 34.828 12.58C 34.8466 12.8693 34.8793 13.14 34.926 13.392L 33.848 13.392L 33.736 12.454L 33.694 12.454C 33.498 12.7433 33.2086 13 32.826 13.224C 32.4526 13.448 32 13.56 31.468 13.56C 31.104 13.56 30.782 13.4993 30.502 13.378C 30.2313 13.266 30.0026 13.112 29.816 12.916C 29.6386 12.72 29.5033 12.5007 29.41 12.258C 29.326 12.0153 29.284 11.768 29.284 11.516C 29.284 10.648 29.6526 9.98067 30.39 9.514C 31.1273 9.04733 32.2053 8.81867 33.624 8.828L 33.624 8.674C 33.624 8.52467 33.6053 8.352 33.568 8.156C 33.54 7.95067 33.47 7.75933 33.358 7.582C 33.246 7.39533 33.078 7.24133 32.854 7.12C 32.63 6.98933 32.3266 6.924 31.944 6.924C 31.608 6.924 31.2766 6.97067 30.95 7.064C 30.6233 7.148 30.334 7.28333 30.082 7.47L 29.802 6.658C 30.1006 6.462 30.4506 6.308 30.852 6.196C 31.2626 6.084 31.6826 6.028 32.112 6.028C 32.6626 6.028 33.1106 6.11667 33.456 6.294C 33.8106 6.462 34.086 6.686 34.282 6.966C 34.4873 7.246 34.6273 7.56333 34.702 7.918C 34.7766 8.26333 34.814 8.61333 34.814 8.968L 34.814 11.67ZM 38.7597 8.338C 38.7597 8.842 38.727 9.32733 38.6617 9.794C 38.5963 10.2607 38.4983 10.7087 38.3677 11.138C 38.293 11.39 38.2043 11.628 38.1017 11.852C 38.0083 12.0667 37.9057 12.2767 37.7937 12.482L 41.2237 12.482L 41.2237 7.12L 38.7597 7.12L 38.7597 8.338ZM 42.3997 6.196L 42.3997 12.496L 43.1277 12.51L 43.0577 15.674L 42.1197 15.674L 42.0637 13.392L 37.0097 13.392L 36.9537 15.674L 36.0157 15.674L 35.9597 12.51L 36.5617 12.496C 36.8603 12.0387 37.0983 11.544 37.2757 11.012C 37.4343 10.5547 37.5463 10.0833 37.6117 9.598C 37.677 9.11267 37.7097 8.604 37.7097 8.072L 37.7097 6.196L 42.3997 6.196ZM 47.9435 9.276L 47.9435 8.268L 51.5415 8.268L 51.5415 9.276L 47.9435 9.276ZM 65.4676 8.912C 65.4489 8.56667 65.4303 8.20267 65.4116 7.82C 65.3929 7.428 65.3743 7.04067 65.3556 6.658C 65.3369 6.27533 65.3183 5.90667 65.2996 5.552C 65.2903 5.188 65.2856 4.85667 65.2856 4.558L 65.2576 4.558C 65.0803 5.13667 64.8889 5.73867 64.6836 6.364C 64.4783 6.98933 64.2403 7.652 63.9696 8.352L 62.1356 13.35L 61.2536 13.35L 59.5456 8.45C 59.3029 7.722 59.0789 7.04067 58.8736 6.406C 58.6776 5.762 58.5096 5.146 58.3696 4.558L 58.3276 4.558C 58.3183 4.866 58.3089 5.202 58.2996 5.566C 58.2903 5.92067 58.2763 6.294 58.2576 6.686C 58.2389 7.06867 58.2203 7.46067 58.2016 7.862C 58.1829 8.254 58.1596 8.64133 58.1316 9.024L 57.8516 13.392L 56.7316 13.392L 57.4316 3.34L 58.9156 3.34L 60.7216 8.394C 60.9363 9.01933 61.1276 9.60733 61.2956 10.158C 61.4636 10.7087 61.6129 11.2453 61.7436 11.768L 61.7996 11.768C 61.9303 11.264 62.0796 10.7367 62.2476 10.186C 62.4249 9.63533 62.6303 9.038 62.8636 8.394L 64.7536 3.34L 66.2516 3.34L 66.8816 13.392L 65.7196 13.392L 65.4676 8.912Z"/>
<path id="path1_fill" d="M 45.6781 1.26737L 42.6963 1.26737C 42.1994 1.29405 42.0574 1.41412 42.0574 1.98777L 42.0574 3.56198L 45.6781 3.56198L 45.6781 1.26737ZM 47.2684 0L 47.2684 6.8438L 45.6781 6.8438L 45.6781 4.86937L 42.0574 4.86937L 42.0574 6.8438L 40.4671 6.8438L 40.4671 1.48082C 40.4671 0.53363 40.8789 0 42.0574 0L 47.2684 0ZM 38.891 1.48082L 38.891 5.18955C 38.891 6.36354 38.1811 6.85714 37.3007 6.85714L 32.3027 6.85714L 32.3027 0.0133408L 37.3007 0.0133408C 38.6638 5.06921e-08 38.891 0.813785 38.891 1.48082ZM 37.3007 1.89439C 37.3007 1.52084 37.0593 1.25403 36.6334 1.25403L 33.9072 1.25403L 33.9072 5.53641L 36.6334 5.53641C 37.2581 5.50973 37.3007 5.16287 37.3007 4.88271L 37.3007 1.89439ZM 0.0141981 0L 1.60449 0L 1.60449 2.69483L 5.15423 2.69483L 5.15423 0L 6.74452 0L 6.74452 6.8438L 5.14003 6.8438L 5.14003 4.05559L 1.59029 4.05559L 1.59029 6.8438L 4.33319e-07 6.8438L 0.0141981 0ZM 9.44232 0L 11.4302 2.80156L 13.3896 0L 15.3207 0L 12.2253 4.37576L 12.2253 6.8438L 10.635 6.8438L 10.635 4.37576L 7.52546 0L 9.44232 0ZM 24.2093 0L 29.3209 0C 30.045 0 30.755 0.0933853 30.7266 1.48082L 30.7266 6.8438L 29.1363 6.8438L 29.1363 1.96109C 29.1363 1.3741 29.0653 1.24069 28.5683 1.24069L 25.7853 1.24069L 25.7853 6.83046L 24.1951 6.83046L 24.1951 0L 24.2093 0ZM 50.4348 0L 50.4348 6.8438L 48.8445 6.8438L 48.8445 0L 50.4348 0ZM 16.1158 6.85714L 21.2275 6.85714C 22.2356 6.85714 22.6616 6.57699 22.6332 5.20289L 22.6332 0L 21.0429 0L 21.0429 4.89605C 21.0429 5.48305 20.9719 5.54975 20.4749 5.54975L 17.6919 5.54975L 17.6919 0L 16.1016 0L 16.1016 6.85714L 16.1158 6.85714Z"/>
<path id="path2_fill" d="M 34.6613 3.02126C 33.6674 2.51968 32.6114 2.10662 31.5553 1.72306C 26.7412 0.188827 21.1195 -0.371758 15.7773 0.247836C 10.8389 0.86743 6.05575 1.9886 2.29758 5.23409C 0.49615 6.82734 -0.559863 9.2172 0.309794 11.489C 1.45898 14.292 4.50279 16.1508 7.236 17.2129C 15.3114 20.3109 26.2753 20.1929 34.0711 16.6523C 36.7422 15.3836 39.7239 13.2298 40.0966 10.1908C 40.4072 6.88635 37.3634 4.43747 34.6613 3.02126ZM 16.6469 4.34896C 17.3302 3.10977 18.5105 1.63455 20.1877 1.60504C 23.6974 1.57554 27.0828 2.07711 30.2819 2.93274C 30.4683 3.02126 30.7167 3.08027 30.8099 3.25729C 30.9031 3.46382 30.7167 3.58184 30.5925 3.72937C 27.9525 5.67666 24.9397 6.76833 21.8649 7.74198C 20.3119 8.09603 18.7279 8.74513 16.9886 8.39108C 16.5848 8.30256 16.2121 8.03702 15.9947 7.65346C 15.5599 6.50279 16.15 5.32261 16.6469 4.34896ZM 5.93151 14.528C 5.52774 14.8821 5.12397 14.41 4.75126 14.2625C 2.88771 13.1118 1.21051 11.2235 1.70746 9.01067C 2.48394 6.11923 5.62092 4.55549 8.26095 3.49333C 9.81391 2.93274 11.429 2.49018 13.1372 2.22464C 13.3236 2.22464 13.5721 2.19513 13.6342 2.37216L 13.5721 2.54919C 10.2177 6.17824 8.01248 10.3679 5.93151 14.528ZM 23.0451 15.9147C 22.2686 17.0359 21.0263 18.0095 19.5044 17.862C 16.1189 17.803 12.7645 17.3309 9.68967 16.4458C 9.53438 16.4163 9.41014 16.3278 9.34802 16.2098C 9.2859 16.0327 9.37908 15.8852 9.50332 15.7672C 12.3297 13.6134 15.653 12.6102 18.9764 11.5481C 20.2187 11.2235 21.5232 10.8399 22.9209 11.017C 23.48 11.076 24.0701 11.4595 24.2564 11.9611C 24.567 13.4658 23.7284 14.705 23.0451 15.9147ZM 38.3884 10.5154C 37.6119 13.5249 34.1643 15.1181 31.4311 16.1213C 29.9403 16.5933 28.4494 17.0654 26.8033 17.2129C 26.7101 17.2129 26.5238 17.2129 26.5238 17.0654L 26.5548 16.8884C 28.8843 14.41 30.6236 11.6366 32.1765 8.80414C 32.8909 7.53544 33.5431 6.23725 34.1643 4.93905C 34.2575 4.85054 34.3507 4.79153 34.4439 4.76202C 35.0029 4.85054 35.4067 5.2636 35.8726 5.55864C 37.4566 6.79783 38.8853 8.47959 38.3884 10.5154Z"/>
<path id="path3_fill" d="M 0 0L 0.573123 0L 0.573123 40L 0 40L 0 0Z"/>
</defs>
</svg>
