<?xml version="1.0" encoding="utf-8"?>
<!-- Generator: Adobe Illustrator 21.1.0, SVG Export Plug-In . SVG Version: 6.00 Build 0)  -->
<svg version="1.1" id="Слой_1" xmlns="http://www.w3.org/2000/svg" xmlns:xlink="http://www.w3.org/1999/xlink" x="0px" y="0px"
	 viewBox="0 0 90.9 81.1" style="enable-background:new 0 0 90.9 81.1;" xml:space="preserve">
<path d="M31,33.5c0,1.2-1,2.1-2.1,2.1c-1.2,0-2.1-1-2.1-2.1c0-1.2,1-2.1,2.1-2.1C30,31.4,31,32.4,31,33.5z M23.8,33.5
	c0,2.8,2.3,5,5,5c2.8,0,5-2.3,5-5c0-2.8-2.3-5-5-5C26.1,28.5,23.8,30.8,23.8,33.5z"/>
<path d="M73.4,17.9c-0.7-0.4-1.6-0.1-2,0.6c-0.4,0.7-0.1,1.6,0.6,2C82,25.9,88,34.7,88,44c0,8.6-3.4,14.9-11.1,20.5
	c-0.3,0.2-0.5,0.5-0.6,0.9l-2.9,12.9h-5.4l-1.7-6.6c-0.1-0.4-0.4-0.7-0.7-0.9c-0.4-0.2-0.8-0.2-1.2-0.1c-4.8,1.8-8.4,2.3-14.8,2.3
	c-6.1,0-10.5-0.4-16.1-2.7c-0.4-0.2-0.8-0.1-1.2,0.1c-0.4,0.2-0.7,0.5-0.7,1l-1.6,6.9h-5.3l-2.8-13.9c-0.1-0.4-0.3-0.7-0.6-0.9
	C9,55.3,2.9,48.2,2.9,42.5V37c0-2.4,1.7-4.3,3.7-4.3h6.5l0.1,0c0.1,0,0.1,0,0.2,0c0.6,0.1,1.1-0.2,1.4-0.7c2.1-3.5,5.1-6.6,9-9.3
	c0.4-0.3,0.6-0.7,0.6-1.2V9.4c5.2,0.5,8.8,3.9,10.2,7.3c0.3,0.7,1.2,1.1,1.9,0.8c0.7-0.3,1.1-1.2,0.8-1.9c-1.9-4.5-7.1-9.1-14.4-9.1
	c-0.8,0-1.5,0.6-1.5,1.5v12.9c-3.7,2.7-6.6,5.7-8.8,9.1H6.6C3,29.8,0,33.1,0,37v5.5c0,9.8,13.8,19.4,19,23L22,80
	c0.1,0.7,0.7,1.2,1.4,1.2H31c0.7,0,1.3-0.5,1.4-1.1l1.5-6.4c5.3,1.9,9.7,2.3,15.7,2.3c5.5,0,9.4-0.3,14.3-2l1.6,6.1
	c0.2,0.6,0.7,1.1,1.4,1.1h7.7c0.7,0,1.3-0.5,1.4-1.1l3-13.5c8.1-6.1,11.8-13.2,11.8-22.5C90.9,33.6,84.3,23.9,73.4,17.9z"/>
<path d="M54.2,2.9c5.8,0,10.5,4.7,10.5,10.5c0,1.8-0.4,3.5-1.3,5c-2.5-2.1-5.8-3.2-9.2-3.2c-3.5,0-6.8,1.1-9.3,3.1
	c-0.8-1.5-1.2-3.2-1.2-5C43.8,7.6,48.5,2.9,54.2,2.9z M44.6,22.1c0.4,0,0.8-0.2,1.1-0.5c2-2.2,5.1-3.5,8.5-3.5
	c3.3,0,6.4,1.3,8.4,3.5c0.3,0.3,0.7,0.5,1.1,0.5c0,0,0,0,0.1,0c0.4,0,0.8-0.2,1.1-0.6c1.8-2.4,2.8-5.2,2.8-8.2C67.6,6,61.6,0,54.2,0
	c-7.4,0-13.4,6-13.4,13.4c0,2.9,0.9,5.7,2.7,8.1C43.8,21.8,44.2,22,44.6,22.1z"/>
</svg>
