<?xml version="1.0" encoding="utf-8"?>
<!-- Generator: Adobe Illustrator 21.1.0, SVG Export Plug-In . SVG Version: 6.00 Build 0)  -->
<svg version="1.1" id="Слой_1" xmlns="http://www.w3.org/2000/svg" xmlns:xlink="http://www.w3.org/1999/xlink" x="0px" y="0px"
	 viewBox="0 0 75.5 80.6" style="enable-background:new 0 0 75.5 80.6;" xml:space="preserve">
<path d="M53.5,40.9H37.9c-0.8,0-1.5-0.7-1.5-1.5V25.8c0-0.8,0.7-1.5,1.5-1.5c0.8,0,1.5,0.7,1.5,1.5v12.1H52V25.6
	c0-0.8,0.7-1.5,1.5-1.5s1.5,0.7,1.5,1.5v13.8C55,40.3,54.4,40.9,53.5,40.9z"/>
<path d="M57,29.9c-0.3,0-0.7-0.1-1-0.4l-10.2-8.7l-9.9,8.6c-0.6,0.5-1.6,0.5-2.1-0.1c-0.5-0.6-0.5-1.6,0.1-2.1l10.9-9.5
	c0.6-0.5,1.4-0.5,2,0l11.2,9.5c0.6,0.5,0.7,1.5,0.2,2.1C57.8,29.8,57.4,29.9,57,29.9z"/>
<path d="M46,3c-0.5,0-1.1,0-1.6,0C37.2,3.5,30.7,6.6,26,11.9c-9.7,11-8.7,27.8,2.2,37.5c5.3,4.7,12.2,7.1,19.2,6.6
	c7.1-0.4,13.6-3.6,18.3-8.9c4.7-5.3,7.1-12.1,6.6-19.2c-0.4-7.1-3.6-13.6-8.9-18.3C58.7,5.3,52.5,3,46,3z M45.9,59.2
	c-7.2,0-14.1-2.6-19.6-7.5C14.1,40.9,13,22.2,23.8,10C29,4,36.3,0.5,44.1,0.1C52-0.4,59.6,2.2,65.5,7.5c5.9,5.2,9.4,12.5,9.9,20.4
	c0.5,7.9-2.2,15.5-7.4,21.4c-5.2,5.9-12.5,9.4-20.4,9.9C47.1,59.1,46.5,59.2,45.9,59.2z"/>
<path d="M22.1,58.4c-0.4,0-0.7-0.1-1-0.4c-0.6-0.6-0.7-1.5-0.1-2.1l5.3-6c0.6-0.6,1.5-0.7,2.1-0.1c0.6,0.5,0.7,1.5,0.1,2.1l-5.3,6
	C22.9,58.2,22.5,58.4,22.1,58.4z"/>
<path d="M3.6,74.3l3,2.7l14.7-16.4l-3-2.7L3.6,74.3z M6.7,80.6c-0.4,0-0.7-0.1-1-0.4l-5.2-4.7C-0.1,75-0.2,74,0.4,73.4L17,54.8
	c0.6-0.6,1.5-0.7,2.1-0.1l5.3,4.7c0.3,0.3,0.5,0.6,0.5,1c0,0.4-0.1,0.8-0.4,1.1L7.9,80.1C7.6,80.4,7.2,80.6,6.7,80.6
	C6.8,80.6,6.8,80.6,6.7,80.6z"/>
</svg>
