<?xml version="1.0" encoding="utf-8"?>
<!-- Generator: Adobe Illustrator 21.1.0, SVG Export Plug-In . SVG Version: 6.00 Build 0)  -->
<svg version="1.1" id="Иконки" xmlns="http://www.w3.org/2000/svg" xmlns:xlink="http://www.w3.org/1999/xlink" x="0px"
	 y="0px" viewBox="0 0 16.1 16.1" style="enable-background:new 0 0 16.1 16.1;" xml:space="preserve">
<g>
	<path d="M8,0C3.6,0,0,3.6,0,8s3.6,8,8,8c4.4,0,8-3.6,8-8S12.5,0,8,0L8,0z M8,15.5c-4.1,0-7.4-3.3-7.4-7.4c0-4.1,3.3-7.4,7.4-7.4
		c4.1,0,7.4,3.3,7.4,7.4C15.5,12.1,12.1,15.5,8,15.5L8,15.5z M8,15.5"/>
	<path d="M8,3.1c-0.2,0-0.3,0.1-0.3,0.3v6.8c0,0.2,0.1,0.3,0.3,0.3c0.2,0,0.3-0.1,0.3-0.3V3.4C8.4,3.2,8.2,3.1,8,3.1L8,3.1z M8,3.1"
		/>
	<path d="M8,11.4c-0.2,0-0.3,0.1-0.3,0.3v0.6c0,0.2,0.1,0.3,0.3,0.3c0.2,0,0.3-0.1,0.3-0.3v-0.6C8.4,11.6,8.2,11.4,8,11.4L8,11.4z
		 M8,11.4"/>
</g>
</svg>
