<?xml version="1.0" encoding="utf-8"?>
<!-- Generator: Adobe Illustrator 21.1.0, SVG Export Plug-In . SVG Version: 6.00 Build 0)  -->
<svg version="1.1" id="Слой_1" xmlns="http://www.w3.org/2000/svg" xmlns:xlink="http://www.w3.org/1999/xlink" x="0px" y="0px"
	 viewBox="0 0 96.2 66.6" style="enable-background:new 0 0 96.2 66.6;" xml:space="preserve">
<style type="text/css">
	.st0{fill:#1F191A;}
</style>
<path class="st0" d="M52.4,47.4c-0.9-0.6-2-0.8-3-0.8c-0.3,0-0.7,0-1,0.1c0.3-2.7-1-5.4-3.4-6.8c0,0,0,0,0,0
	c-2.4-1.4-5.3-1.2-7.5,0.3c-0.4-1.3-1.3-2.5-2.6-3.2c-1.9-1.1-4.2-1.1-5.9-0.1c-0.8,0.4-1.4,1-2,1.8c0.3,1,0,2.2-0.9,2.9l-1.4,1
	l-1.9,3.3l-1.2-0.9L21.5,45c-1.2,0.9-2.8,0.6-3.7-0.5c-0.4-0.6-0.6-1.3-0.5-2c0-0.2,0.1-0.4,0.2-0.6l-2.1-1.5L13,38.7
	c0,0-0.1-0.1-0.1-0.1c0,0-0.1,0-0.1-0.1L2.2,33.4c-0.7-0.4-1.6-0.1-2,0.7c-0.4,0.8-0.1,1.7,0.7,2l10.5,5.1l3.4,2.4l6,4.3l0.7,0.5
	c-0.8,2.6,0.3,5.4,2.7,6.8c1,0.6,2,0.8,3,0.8c0.3,0,0.7,0,1-0.1c-0.3,2.7,1,5.4,3.4,6.9c1.1,0.6,2.3,1,3.5,1c0.6,0,1.3-0.1,1.9-0.3
	c0.8-0.2,1.5-0.6,2.1-1c0.4,1.3,1.3,2.4,2.6,3.2c0.9,0.6,2,0.8,3,0.8c1.7,0,3.4-0.8,4.6-2.1c0.2-0.2,0.4-0.5,0.5-0.8l0.8-1.4
	c0,0,0,0,0,0l-0.1,0c0.2-0.1,0.3-0.3,0.4-0.4l2-3.4l0.4-0.6l0.3-0.5c0,0,0,0,0,0l1-1.6l0.1-0.1C56.2,52.7,55.2,49.1,52.4,47.4z
	 M29.6,51.7c-0.8,1.4-2.6,1.8-4,1c-1.4-0.8-1.9-2.6-1-4l3.1-5.3l1.7-2.9c0-0.1,0.1-0.2,0.2-0.3c0.5-0.8,1.4-1.2,2.3-1.2
	c0.5,0,1,0.1,1.5,0.4c1.4,0.8,1.8,2.6,1,4L29.6,51.7z M38.6,58.7c-0.6,1-1.5,1.7-2.5,2C35,61,33.9,60.8,33,60.3
	c-1.9-1.1-2.5-3.7-1.4-5.7L37.9,44c0.8-1.3,2.2-2.1,3.6-2.1c0.7,0,1.4,0.2,2,0.5c1.9,1.1,2.5,3.7,1.3,5.7L38.6,58.7z M47.8,61
	l-0.2,0.3l-0.5,0.8c-0.2,0.4-0.5,0.7-0.9,0.9c-0.9,0.6-2.1,0.7-3.1,0.1c-1.2-0.7-1.7-2.1-1.3-3.3c0.1-0.2,0.2-0.5,0.3-0.7l4.1-6.9
	l0.8-1.3c0.5-0.9,1.5-1.4,2.5-1.4c0.5,0,1,0.1,1.5,0.4c1.4,0.8,1.8,2.6,1,4l-0.2,0.3l-0.2,0.4l-1,1.8L47.8,61z M96,34.1
	c-0.4-0.8-1.3-1.1-2-0.7l-10.6,5.1l-7.2,3.1c-1.1-0.3-4-1-6.5-1.8l-1.3-0.5c-0.2-0.1-0.4-0.1-0.5-0.1c-0.9-0.3-1.7-0.6-2.2-0.8
	c-2.5-1.1-7-3.7-8.8-5.2c-2-1.8-7.3-8.3-7.4-8.3c-0.5-0.6-1.2-0.7-1.9-0.4c-1.5,0.8-6.2,2.8-8.7,2c-1.3-0.4-3.8-1.7-4.5-2.6
	c-0.5-0.6-0.8-2.6-0.6-3.2c0.5-0.3,2.6,0.1,3.6,0.2c1.7,0.3,3.3,0.6,4.6,0.2c2.4-0.8,7.3-5,8.5-6c1.2-0.4,7-2.4,11-0.8
	c2.1,0.8,4.2,1.1,6.1,1.1c4,0,7-1.4,7.2-1.5l14.7-7.9c0.7-0.4,1-1.3,0.6-2c-0.4-0.7-1.3-1-2-0.6l-14.7,7.8c0,0-5.3,2.4-10.8,0.2
	c-4.8-1.9-11,0-12.9,0.6c-2.1-0.8-8-2.9-10.6-2.5c-2.4,0.4-9.5,0.7-12.4,0.2C25.7,9.7,16.4,4.7,8.4,0.2C7.7-0.2,6.7,0,6.3,0.8
	c-0.4,0.7-0.1,1.6,0.6,2c5.3,3,17.7,9.9,19.4,10.2c3.5,0.7,11.1,0.2,13.5-0.2c1.2-0.2,4.4,0.7,7.2,1.7c-2.1,1.7-4.6,3.6-5.7,4
	c-0.5,0.2-2-0.1-3.2-0.3c-2.4-0.4-4.8-0.8-6.3,0.6c-1.6,1.7-0.6,5.8,0.5,7.2c1.2,1.4,4.3,3,5.9,3.5c3.2,0.9,7.7-0.8,9.8-1.7
	c1.6,1.9,5.2,6.3,7,7.8c2.2,1.9,7.1,4.7,9.5,5.7c0.9,0.4,2.5,0.9,4.2,1.4l7,2.6c0.4,0.2,0.6,0.5,0.8,1.1c0.3,0.9,0.3,2.1-0.2,2.9
	c-0.5,1.1-1.6,1.6-2.7,1.4c-0.2-0.1-0.5-0.2-0.7-0.2l-9.5-4.9c-0.7-0.4-1.6-0.1-2,0.6c-0.4,0.7-0.1,1.6,0.6,2l9.6,5c0,0,0.1,0,0.1,0
	c0.1,0.4,0,0.6-0.1,1c-0.1,0.2-0.2,0.5-0.2,0.8c-0.6,1.2-2,1.7-3.3,1.2l-8-3.5c0,0-0.1,0-0.1,0c0,0-0.1,0-0.1,0c0,0-0.1,0-0.2,0
	c0,0-0.1,0-0.1,0h-0.2c0,0-0.1,0-0.1,0c0,0-0.1,0-0.1,0c-0.1,0-0.1,0-0.1,0c0,0-0.1,0-0.1,0.1s-0.1,0-0.1,0.1c0,0-0.1,0.1-0.1,0.1
	c0,0-0.1,0.1-0.1,0.1c0,0-0.1,0.1-0.1,0.1c0,0-0.1,0.1-0.1,0.1c0,0,0,0.1-0.1,0.1c0,0,0,0.1-0.1,0.1c0,0,0,0,0,0c0,0,0,0,0,0
	c0,0,0,0.1,0,0.1c0,0,0,0.1,0,0.1s0,0.1,0,0.1c0,0,0,0.1,0,0.1s0,0.1,0,0.1c0,0.1,0,0.1,0,0.1c0,0,0,0.1,0,0.1c0,0.1,0,0.1,0,0.1
	c0,0,0,0.1,0.1,0.1s0,0.1,0.1,0.1c0,0,0.1,0.1,0.1,0.1c0,0,0,0.1,0.1,0.1c0,0,0.1,0.1,0.1,0.1c0,0,0.1,0.1,0.1,0.1
	c0,0,0.1,0.1,0.1,0.1c0,0,0.1,0,0.1,0.1l2.2,1.1c1.3,0.6,1.8,2.1,1.2,3.4c-0.3,0.6-0.8,1.1-1.5,1.3c-0.7,0.2-1.3,0.2-2-0.1l-2.1-1
	l-0.4-0.2c0,0,0,0,0,0L56,59.9c-0.2-0.1-0.3-0.1-0.5-0.1c-0.6,0-1.1,0.4-1.4,0.9c0,0,0,0.1,0,0.1c0,0.1-0.1,0.2-0.1,0.2
	c-0.2,0.4-0.4,0.7-0.7,0.9l2.4,1.1l1.9,0.9c0.8,0.4,1.6,0.5,2.4,0.5c0.6,0,1.3-0.1,1.9-0.3c1.4-0.5,2.5-1.5,3.2-2.9
	c0.4-0.9,0.6-1.9,0.5-2.9l1.5,0.7c0.7,0.3,1.5,0.4,2.2,0.4c2.2,0,4.2-1.3,5.1-3.4c0.1-0.2,0.1-0.4,0.1-0.6c0-0.1,0-0.2,0.1-0.3
	c0.1-0.4,0.3-0.8,0.3-1.5c1.8-0.3,3.5-1.4,4.3-3.1c0.8-1.6,0.9-3.6,0.3-5.2c-0.2-0.6-0.5-1-0.8-1.5l6.1-2.6c0,0,0,0,0,0c0,0,0,0,0,0
	l10.6-5.2C96.1,35.8,96.4,34.9,96,34.1z"/>
<path class="st0" d="M29.1,36.8c-0.1-0.2-0.2-0.4-0.4-0.6c-1.7-2.3-5-2.7-7.2-1l-4.7,3.5c-0.6,0.4-1.1,1-1.4,1.6
	c-0.3,0.5-0.5,1.1-0.6,1.8c-0.1,0.5-0.1,1,0,1.5c0.1,0.8,0.5,1.6,1,2.3c1.2,1.6,3.2,2.3,5,2c0.2,0,0.3-0.1,0.5-0.1
	c0.6-0.2,1.2-0.4,1.7-0.8l4.7-3.5c0,0,0,0,0.1-0.1c1-0.8,1.7-2,1.9-3.2C29.8,39.1,29.6,37.9,29.1,36.8z M26.2,41.5l-1.4,1l-3.1,2.4
	L21.5,45c-1.2,0.9-2.8,0.6-3.7-0.5c-0.4-0.6-0.6-1.3-0.5-2c0-0.2,0.1-0.4,0.2-0.6c0.2-0.4,0.5-0.8,0.8-1.1l4.7-3.5
	c0.3-0.2,0.6-0.3,0.9-0.4c0.3-0.1,0.7-0.1,1.1-0.1c0.7,0.1,1.3,0.5,1.8,1c0.2,0.3,0.3,0.6,0.4,0.9C27.4,39.6,27.1,40.8,26.2,41.5z"
	/>
<path class="st0" d="M44.5,52.6c-1.9,0.7-3.2,2.4-3.4,4.5c-0.1,0.7,0.1,1.4,0.3,2.1c0.1,0.3,0.2,0.5,0.3,0.8
	c0.1-0.2,0.2-0.5,0.3-0.7l4.1-6.9C45.6,52.3,45,52.4,44.5,52.6z M56.3,60.1C56.3,60,56.3,60,56.3,60.1L56,59.9
	c-0.2-0.1-0.3-0.1-0.5-0.1c-0.6,0-1.1,0.4-1.4,0.9c0,0,0,0.1,0,0.1c0,0.1-0.1,0.2-0.1,0.2c-0.2,0.4-0.4,0.7-0.7,0.9
	c-0.8,0.6-1.9,0.8-2.8,0.4c0,0,0,0,0,0l-0.1,0L47.8,61l-0.2,0.3l-0.5,0.8c-0.2,0.4-0.5,0.7-0.9,0.9l2.9,1.4l0.3,0.1
	c0.7,0.3,1.5,0.5,2.2,0.5c1.6,0,3.1-0.7,4.1-2c0.1-0.1,0.2-0.3,0.3-0.4c0.1-0.2,0.2-0.4,0.3-0.6v0c0.3-0.5,0.4-1.1,0.4-1.6
	c0-0.1,0-0.1,0-0.2L56.3,60.1z M53.8,55.2l-2-1l-0.2,0.4l-1,1.8l2.3,1c0.2,0.1,0.3,0.2,0.4,0.3l0.3-0.5c0,0,0,0,0,0l1-1.6
	C54.2,55.5,54,55.4,53.8,55.2z"/>
<path class="st0" d="M55.9,60.8c0,0.6-0.4,1.1-0.9,1.3c-0.1,0-0.3,0.1-0.4,0.1c-0.7,0-1.3-0.6-1.3-1.4c0-0.1,0-0.3,0.1-0.4
	c0,0,0-0.1,0-0.1c0.2-0.5,0.7-0.8,1.2-0.8c0.2,0,0.3,0,0.5,0.1l0.2,0.1c0,0,0,0,0,0c0.1,0.1,0.3,0.2,0.4,0.4
	C55.8,60.2,55.9,60.5,55.9,60.8z"/>
</svg>
