<?xml version="1.0" encoding="utf-8"?>
<!-- Generator: Adobe Illustrator 21.1.0, SVG Export Plug-In . SVG Version: 6.00 Build 0)  -->
<svg version="1.1" id="Слой_1" xmlns="http://www.w3.org/2000/svg" xmlns:xlink="http://www.w3.org/1999/xlink" x="0px" y="0px"
	 viewBox="0 0 637.8 409.9" style="enable-background:new 0 0 637.8 409.9;" xml:space="preserve">
<style type="text/css">
	.st0{fill:#25006B;}
	.st1{enable-background:new    ;}
	.st2{fill:#00EECD;}
	.st3{fill:#00367D;}
</style>
<ellipse class="st0" cx="307.3" cy="330" rx="250.5" ry="4.5"/>
<g class="st1">
	<path class="st2" d="M12.8,400.6H4.5V363h26.2v7.5h-18V400.6z"/>
	<path class="st2" d="M33.3,381.8c0-10.7,8.4-19.4,20-19.4c11.6,0,19.9,8.6,19.9,19.4c0,10.7-8.4,19.4-20,19.4
		C41.7,401.2,33.3,392.6,33.3,381.8z M64.6,381.8c0-6.4-4.7-11.8-11.4-11.8c-6.7,0-11.3,5.3-11.3,11.8c0,6.4,4.7,11.8,11.4,11.8
		C60,393.6,64.6,388.3,64.6,381.8z"/>
	<path class="st2" d="M80.6,363H96c9,0,14.4,5.3,14.4,13.1c0,8.7-6.8,13.2-15.2,13.2h-6.3v11.3h-8.3V363z M95.4,382
		c4.1,0,6.5-2.5,6.5-5.8c0-3.7-2.6-5.7-6.7-5.7h-6.4V382H95.4z"/>
	<path class="st2" d="M114.8,381.8c0-10.7,8.4-19.4,20-19.4c11.6,0,19.9,8.6,19.9,19.4c0,10.7-8.4,19.4-20,19.4
		C123.1,401.2,114.8,392.6,114.8,381.8z M146.1,381.8c0-6.4-4.7-11.8-11.4-11.8c-6.7,0-11.3,5.3-11.3,11.8c0,6.4,4.7,11.8,11.4,11.8
		C141.5,393.6,146.1,388.3,146.1,381.8z"/>
	<path class="st2" d="M157.6,393.1h3.5c2.8-6.5,4.1-12.9,4.1-25.7V363h27.3v30.1h4.5l-1.1,15.3h-6.9v-7.8h-23.5l-0.5,7.8h-7.5V393.1
		z M173.2,370.5v3.8c0,7.9-1.2,13.6-3.4,18.8h14.5v-22.7H173.2z"/>
	<path class="st2" d="M219,363h8.3v14.9h15.2V363h8.3v37.6h-8.3v-15.1h-15.2v15.1H219V363z"/>
	<path class="st2" d="M258.1,381.8c0-10.7,8.4-19.4,20-19.4c11.6,0,19.9,8.6,19.9,19.4c0,10.7-8.4,19.4-20,19.4
		C266.4,401.2,258.1,392.6,258.1,381.8z M289.4,381.8c0-6.4-4.7-11.8-11.4-11.8c-6.7,0-11.3,5.3-11.3,11.8c0,6.4,4.7,11.8,11.4,11.8
		C284.8,393.6,289.4,388.3,289.4,381.8z"/>
	<path class="st2" d="M305.4,363h17.4c4.3,0,7.7,1.2,9.8,3.3c1.7,1.7,2.6,3.8,2.6,6.5c0,4.2-2.3,6.6-4.9,8.1c4.3,1.7,7,4.2,7,9.3
		c0,6.9-5.6,10.3-14.1,10.3h-17.9V363z M321.1,378.2c3.7,0,6-1.2,6-4.1c0-2.5-1.9-3.9-5.4-3.9h-8.2v7.9H321.1z M323.3,393.3
		c3.7,0,5.9-1.3,5.9-4.2c0-2.5-1.9-4.1-6.1-4.1h-9.6v8.3H323.3z"/>
	<path class="st2" d="M342.5,381.8c0-10.7,8.4-19.4,20-19.4c11.6,0,19.9,8.6,19.9,19.4c0,10.7-8.4,19.4-20,19.4
		C350.8,401.2,342.5,392.6,342.5,381.8z M373.8,381.8c0-6.4-4.7-11.8-11.4-11.8s-11.3,5.3-11.3,11.8c0,6.4,4.7,11.8,11.4,11.8
		S373.8,388.3,373.8,381.8z"/>
	<path class="st2" d="M388.1,381.8c0-10.7,8.1-19.4,19.6-19.4c7.1,0,11.1,2.7,14.5,6.1l-4.9,5.7c-2.9-2.6-5.4-4.2-9.7-4.2
		c-6.3,0-10.9,5.3-10.9,11.8c0,6.4,4.5,11.8,10.9,11.8c4.3,0,6.9-1.7,9.9-4.4l5.3,5.6c-3.9,4.1-8.2,6.4-15.4,6.4
		C396.3,401.2,388.1,392.7,388.1,381.8z"/>
	<path class="st2" d="M438.2,370.6h-11.4V363h31.1v7.6h-11.4v30h-8.3V370.6z"/>
	<path class="st2" d="M464.2,363h15.4c9,0,14.4,5.3,14.4,13.1c0,8.7-6.8,13.2-15.2,13.2h-6.3v11.3h-8.3V363z M479,382
		c4.1,0,6.5-2.5,6.5-5.8c0-3.7-2.6-5.7-6.7-5.7h-6.4V382H479z"/>
	<path class="st2" d="M498.4,381.8c0-10.7,8.4-19.4,20-19.4c11.6,0,19.9,8.6,19.9,19.4c0,10.7-8.4,19.4-20,19.4
		S498.4,392.6,498.4,381.8z M529.7,381.8c0-6.4-4.7-11.8-11.4-11.8c-6.7,0-11.3,5.3-11.3,11.8c0,6.4,4.7,11.8,11.4,11.8
		C525.1,393.6,529.7,388.3,529.7,381.8z"/>
	<path class="st2" d="M545.7,363H574v7.4h-20.1v7.6h17.7v7.4h-17.7v7.9h20.4v7.4h-28.6V363z"/>
	<path class="st2" d="M581.6,363h8.3v16.4l15.2-16.4h10L599.8,379l16,21.6h-9.9l-11.6-16l-4.3,4.5v11.5h-8.3V363z"/>
</g>
<g>
	<path class="st2" d="M454.2,89.6l-10.5-11.3c-0.6-0.6-1.3-0.9-2.1-1c-0.4,0-0.7,0.1-1,0.2c-0.4-1.2-1.5-2.1-2.9-2.1h-70.8
		c-0.2-0.1-0.4-0.3-0.7-0.4l-44.1-17l0,0l-81.5-31.7c0,0,0,0-0.1,0c-0.1-0.1-0.3-0.1-0.5-0.1c-0.1,0-0.2,0-0.3,0s-0.2,0-0.3,0
		c0,0,0,0-0.1,0s-0.1,0-0.2,0c-0.1,0-0.3,0-0.4,0.1c-0.1,0-0.1,0-0.2,0c-0.2,0.1-0.4,0.1-0.5,0.2l0,0l0,0c0,0,0,0-0.1,0l-88.7,47.7
		c-0.6,0.3-1,0.8-1.3,1.4h-14.8c-1.4,0-2.6,1-2.9,2.4c-0.2,0.1-0.3,0.2-0.5,0.4l-10.4,10.2c-0.6,0.6-1,1.5-0.9,2.4s0.5,1.7,1.2,2.2
		l1.5,1.1c0.5,0.4,1.1,0.6,1.8,0.6h104.3h0.1v79.8c0,1.7,1.3,3,3,3c1.3,0,2.4-0.9,2.8-2c0.4,1.2,1.5,2,2.8,2c1.8,0,1.8,0,6.7-8
		c2-3.3,4-6.6,4-6.6s0,0,0-0.1v11.6c0,1.7,1.3,3,3,3s3-1.3,3-3V94.7H452c1.2,0,2.3-0.7,2.8-1.8C455.3,91.8,455,90.5,454.2,89.6z
		 M233.4,97.2C233.5,97.3,233.5,97.3,233.4,97.2l7.3,11.7l-7.3,11.6v0.1V97.2z M233.5,123.7l7.3,11.8l-7.3,12.1l0,0V123.7
		C233.5,123.6,233.5,123.6,233.5,123.7z M239.6,122.1l7.3-11.6v-0.1v23.5v-0.1L239.6,122.1z M246.8,107.3l-7.3-11.6l7.3-12.3l0,0
		V107.3C246.8,107.4,246.8,107.3,246.8,107.3z M246.9,80.4l-5.8-10.2l2.6-9.2c0.4-1.6-0.5-3.3-2.1-3.7c-1.6-0.5-3.3,0.5-3.7,2.1
		L235,69.8c-0.2,0.8-0.1,1.6,0.3,2.3l5.6,9.8l-7.4,12.3l0,0V69l6.2-27.2l7.2,27.9L246.9,80.4L246.9,80.4z M127.8,88.7l4.1-4l3.9,4
		H127.8z M141.2,85.6l-4-4.1h8.4L141.2,85.6z M146.7,88.7l4.1-3.8l4,3.8H146.7z M160.2,85.6l-4.3-4.1h8.4L160.2,85.6z M165.6,88.7
		l3.9-3.8l4,3.8H165.6z M179,85.6l-4.3-4.1h8.6L179,85.6z M184.5,88.7l3.9-3.7l4.3,3.7H184.5z M198.3,85.7l-4.8-4.2h8.9L198.3,85.7z
		 M203.8,88.7l3.8-3.8l3.9,3.8H203.8z M216.7,85.4l-4-3.9h7.5L216.7,85.4z M227.3,88.7h-5.4l5.6-6.2v6.2
		C227.4,88.7,227.4,88.7,227.3,88.7z M227.5,68c-0.1,0.2-0.1,0.4-0.1,0.7v6.9c-0.2,0-0.3,0-0.5,0h-67.5L235,35L227.5,68z
		 M233.9,172.5c0.1-0.2,0.3-0.3,0.5-0.5C234.2,172.1,234.1,172.3,233.9,172.5z M233.8,172.6c-0.1,0.2-0.2,0.3-0.3,0.5v-22.6
		c0,0.1,0.1,0.1,0.1,0.2l7.2,10.8C237.6,166.5,234.4,171.7,233.8,172.6z M246.8,159.7l-7.2-10.8l7.3-12l0,0v23
		C246.8,159.8,246.8,159.8,246.8,159.7z M243.9,34l78.2,30.4l0,0l28.5,11.1h-97.7v-6.2c0-0.3,0-0.5-0.1-0.7L243.9,34z M252.9,88.7
		V85l3.8,3.7H252.9z M262.4,85.8l-4.4-4.3h8.9L262.4,85.8z M268,88.7l3.8-3.7c1.6,1.5,3,2.7,4,3.7H268z M281.4,85.5
		c-1.2-1-2.8-2.5-4.5-4h8.3C283.8,83,282.4,84.5,281.4,85.5z M286.7,88.7c1-1,2.1-2.2,3.6-3.8c1.6,1.3,3.1,2.7,4.5,3.8H286.7z
		 M300.6,85.7c-1.1-1-2.7-2.3-5-4.2h9C303.2,83.1,301.7,84.6,300.6,85.7z M306.2,88.7c0.9-1,2-2.1,3.4-3.6l4,3.6H306.2z M319.1,85.6
		l-4.6-4.1h9L319.1,85.6z M324.6,88.7l3.9-3.6l3.8,3.6H324.6z M337.6,85.5l-4.2-4h8.4L337.6,85.5z M343,88.7l4.1-3.9l3.9,3.9H343z
		 M356.7,85.8l-4.3-4.3h8.9L356.7,85.8z M362.4,88.7l3.8-3.6l3.7,3.6H362.4z M375.5,85.8l-4.4-4.3h8.7L375.5,85.8z M381.1,88.7
		l3.8-3.8l4.1,3.8H381.1z M394.6,85.7l-4.5-4.2h8.6L394.6,85.7z M400,88.7l3.7-3.7l4.1,3.7H400z M413.3,85.6l-4.5-4.1h8.8
		L413.3,85.6z M418.8,88.7l3.8-3.6l4,3.6H418.8z M432.1,85.6l-4.5-4.1h8.6L432.1,85.6z M437.5,88.7l3.9-3.9l3.7,3.9H437.5z"/>
	<path class="st2" d="M434.5,95.8h-23.7c-1.7,0-3,1.3-3,3s1.3,3,3,3h8.3v6.9c0,1.3,0.8,2.4,2,2.8c0.2,0.1,1.9,0.8,2.4,3.3
		c0.3,1.2-1,1.7-1.2,1.7c-1.1,0.3-1.6-0.4-1.8-0.8c0-0.1,0.1-0.2,0.1-0.2c0.9-1.4,0.5-3.2-0.9-4.2s-3.2-0.5-4.2,0.9
		c-0.3,0.5-1.7,2.8-0.7,5.5c1.2,3.1,3.9,4.9,6.9,4.9c0.7,0,1.5-0.1,2.3-0.3c3.9-1.2,6.2-4.8,5.3-8.7c-0.7-3.3-2.6-5.5-4.3-6.7v-5.1
		h9.4c1.7,0,3-1.3,3-3S436.2,95.8,434.5,95.8z"/>
</g>
<g>
	<polygon class="st3" points="322.1,64.4 322.1,75.5 316.1,75.5 316.1,62.1 	"/>
	<polygon class="st3" points="401.6,0 401.6,75.5 395.6,75.5 395.6,6 322.1,6 322.1,58 316.1,55.7 316.1,0 	"/>
	<path class="st3" d="M401.6,123.7v-29h-6v29h-11v199.8h-30.5V102.9h-32v-8.3h-6v8.3h-57.5v69.3h-41.5v-52.8h-72.5v210h351.8V123.7
		H401.6z M197.6,323.4h-47v-198h60.5v46.8h-13.5V323.4z M279.1,323.4h-75.5V178.2h75.5V323.4z M348.1,323.4h-63V172.2h-20.5v-63.3
		h83.5V323.4z M490.4,323.4h-99.8V129.7h99.8L490.4,323.4L490.4,323.4z"/>
	<path class="st3" d="M157.5,138.1h45.3c1.7,0,3-1.3,3-3s-1.3-3-3-3h-45.3c-1.7,0-3,1.3-3,3S155.9,138.1,157.5,138.1z"/>
	<path class="st3" d="M157.5,149.3h45.3c1.7,0,3-1.3,3-3s-1.3-3-3-3h-45.3c-1.7,0-3,1.3-3,3S155.9,149.3,157.5,149.3z"/>
	<path class="st3" d="M157.5,160.5h45.3c1.7,0,3-1.3,3-3s-1.3-3-3-3h-45.3c-1.7,0-3,1.3-3,3S155.9,160.5,157.5,160.5z"/>
	<path class="st3" d="M188.8,165.7h-31.3c-1.7,0-3,1.3-3,3s1.3,3,3,3h31.3c1.7,0,3-1.3,3-3S190.4,165.7,188.8,165.7z"/>
	<path class="st3" d="M188.8,176.9h-31.3c-1.7,0-3,1.3-3,3s1.3,3,3,3h31.3c1.7,0,3-1.3,3-3S190.4,176.9,188.8,176.9z"/>
	<path class="st3" d="M188.8,188.1h-31.3c-1.7,0-3,1.3-3,3s1.3,3,3,3h31.3c1.7,0,3-1.3,3-3S190.4,188.1,188.8,188.1z"/>
	<path class="st3" d="M188.8,199.3h-31.3c-1.7,0-3,1.3-3,3s1.3,3,3,3h31.3c1.7,0,3-1.3,3-3S190.4,199.3,188.8,199.3z"/>
	<path class="st3" d="M188.8,210.5h-31.3c-1.7,0-3,1.3-3,3s1.3,3,3,3h31.3c1.7,0,3-1.3,3-3S190.4,210.5,188.8,210.5z"/>
	<path class="st3" d="M188.8,221.6h-31.3c-1.7,0-3,1.3-3,3s1.3,3,3,3h31.3c1.7,0,3-1.3,3-3S190.4,221.6,188.8,221.6z"/>
	<path class="st3" d="M188.8,232.8h-31.3c-1.7,0-3,1.3-3,3s1.3,3,3,3h31.3c1.7,0,3-1.3,3-3S190.4,232.8,188.8,232.8z"/>
	<path class="st3" d="M188.8,244h-31.3c-1.7,0-3,1.3-3,3s1.3,3,3,3h31.3c1.7,0,3-1.3,3-3S190.4,244,188.8,244z"/>
	<path class="st3" d="M188.8,255.2h-31.3c-1.7,0-3,1.3-3,3s1.3,3,3,3h31.3c1.7,0,3-1.3,3-3S190.4,255.2,188.8,255.2z"/>
	<path class="st3" d="M188.8,267.4h-31.3c-1.7,0-3,1.3-3,3s1.3,3,3,3h31.3c1.7,0,3-1.3,3-3S190.4,267.4,188.8,267.4z"/>
	<path class="st3" d="M188.8,278.6h-31.3c-1.7,0-3,1.3-3,3s1.3,3,3,3h31.3c1.7,0,3-1.3,3-3S190.4,278.6,188.8,278.6z"/>
	<path class="st3" d="M188.8,289.8h-31.3c-1.7,0-3,1.3-3,3s1.3,3,3,3h31.3c1.7,0,3-1.3,3-3S190.4,289.8,188.8,289.8z"/>
	<path class="st3" d="M188.8,300.9h-31.3c-1.7,0-3,1.3-3,3s1.3,3,3,3h31.3c1.7,0,3-1.3,3-3S190.4,300.9,188.8,300.9z"/>
	<path class="st3" d="M264,192.5h-45.3c-1.7,0-3,1.3-3,3s1.3,3,3,3H264c1.7,0,3-1.3,3-3S265.6,192.5,264,192.5z"/>
	<path class="st3" d="M334,121.7c-1.7,0-3,1.3-3,3v188.1c0,1.7,1.3,3,3,3s3-1.3,3-3V124.7C337,123.1,335.7,121.7,334,121.7z"/>
	<path class="st3" d="M380.4,17.5v47.3c0,1.7,1.3,3,3,3s3-1.3,3-3V17.5c0-1.7-1.3-3-3-3S380.4,15.8,380.4,17.5z"/>
	<path class="st3" d="M357.4,17.5v47.3c0,1.7,1.3,3,3,3s3-1.3,3-3V17.5c0-1.7-1.3-3-3-3S357.4,15.8,357.4,17.5z"/>
	<path class="st3" d="M372.7,110.4c0-1.7-1.3-3-3-3s-3,1.3-3,3v6.9c0,1.7,1.3,3,3,3s3-1.3,3-3V110.4z"/>
	<path class="st3" d="M372.7,141.8c0-1.7-1.3-3-3-3s-3,1.3-3,3v6.9c0,1.7,1.3,3,3,3s3-1.3,3-3V141.8z"/>
	<path class="st3" d="M372.7,173.2c0-1.7-1.3-3-3-3s-3,1.3-3,3v6.9c0,1.7,1.3,3,3,3s3-1.3,3-3V173.2z"/>
	<path class="st3" d="M372.7,204.6c0-1.7-1.3-3-3-3s-3,1.3-3,3v6.9c0,1.7,1.3,3,3,3s3-1.3,3-3V204.6z"/>
	<path class="st3" d="M372.7,235.9c0-1.7-1.3-3-3-3s-3,1.3-3,3v6.9c0,1.7,1.3,3,3,3s3-1.3,3-3V235.9z"/>
	<path class="st3" d="M372.7,267.3c0-1.7-1.3-3-3-3s-3,1.3-3,3v6.9c0,1.7,1.3,3,3,3s3-1.3,3-3V267.3z"/>
	<path class="st3" d="M369.7,295.7c-1.7,0-3,1.3-3,3v6.9c0,1.7,1.3,3,3,3s3-1.3,3-3v-6.9C372.7,297.1,371.4,295.7,369.7,295.7z"/>
	<path class="st3" d="M334.4,17.5V57c0,1.7,1.3,3,3,3s3-1.3,3-3V17.5c0-1.7-1.3-3-3-3S334.4,15.8,334.4,17.5z"/>
	<path class="st3" d="M314.9,121.7c-1.7,0-3,1.3-3,3v188.1c0,1.7,1.3,3,3,3s3-1.3,3-3V124.7C317.9,123.1,316.6,121.7,314.9,121.7z"
		/>
	<path class="st3" d="M295.9,121.7c-1.7,0-3,1.3-3,3v188.1c0,1.7,1.3,3,3,3s3-1.3,3-3V124.7C298.9,123.1,297.5,121.7,295.9,121.7z"
		/>
	<path class="st3" d="M276.8,121.7c-1.7,0-3,1.3-3,3v38.5c0,1.7,1.3,3,3,3s3-1.3,3-3v-38.5C279.8,123.1,278.4,121.7,276.8,121.7z"/>
	<path class="st3" d="M264,207.6h-45.3c-1.7,0-3,1.3-3,3s1.3,3,3,3H264c1.7,0,3-1.3,3-3S265.6,207.6,264,207.6z"/>
	<path class="st3" d="M264,222.7h-45.3c-1.7,0-3,1.3-3,3s1.3,3,3,3H264c1.7,0,3-1.3,3-3S265.6,222.7,264,222.7z"/>
	<path class="st3" d="M264,237.8h-45.3c-1.7,0-3,1.3-3,3s1.3,3,3,3H264c1.7,0,3-1.3,3-3S265.6,237.8,264,237.8z"/>
	<path class="st3" d="M264,252.9h-45.3c-1.7,0-3,1.3-3,3c0,1.7,1.3,3,3,3H264c1.7,0,3-1.3,3-3S265.6,252.9,264,252.9z"/>
	<path class="st3" d="M264,268.1h-45.3c-1.7,0-3,1.3-3,3s1.3,3,3,3H264c1.7,0,3-1.3,3-3S265.6,268.1,264,268.1z"/>
	<path class="st3" d="M264,283.2h-45.3c-1.7,0-3,1.3-3,3s1.3,3,3,3H264c1.7,0,3-1.3,3-3S265.6,283.2,264,283.2z"/>
	<path class="st3" d="M264,298.3h-45.3c-1.7,0-3,1.3-3,3s1.3,3,3,3H264c1.7,0,3-1.3,3-3S265.6,298.3,264,298.3z"/>
	<path class="st3" d="M402.7,146h75.9c1.7,0,3-1.3,3-3s-1.3-3-3-3h-75.9c-1.7,0-3,1.3-3,3S401.1,146,402.7,146z"/>
	<path class="st3" d="M402.7,178.9h75.9c1.7,0,3-1.3,3-3s-1.3-3-3-3h-75.9c-1.7,0-3,1.3-3,3S401.1,178.9,402.7,178.9z"/>
	<path class="st3" d="M402.7,211.8h75.9c1.7,0,3-1.3,3-3s-1.3-3-3-3h-75.9c-1.7,0-3,1.3-3,3S401.1,211.8,402.7,211.8z"/>
	<path class="st3" d="M402.7,244.8h75.9c1.7,0,3-1.3,3-3s-1.3-3-3-3h-75.9c-1.7,0-3,1.3-3,3S401.1,244.8,402.7,244.8z"/>
	<path class="st3" d="M402.7,277.7h75.9c1.7,0,3-1.3,3-3s-1.3-3-3-3h-75.9c-1.7,0-3,1.3-3,3S401.1,277.7,402.7,277.7z"/>
	<path class="st3" d="M402.7,162.4h75.9c1.7,0,3-1.3,3-3s-1.3-3-3-3h-75.9c-1.7,0-3,1.3-3,3S401.1,162.4,402.7,162.4z"/>
	<path class="st3" d="M402.7,195.4h75.9c1.7,0,3-1.3,3-3s-1.3-3-3-3h-75.9c-1.7,0-3,1.3-3,3S401.1,195.4,402.7,195.4z"/>
	<path class="st3" d="M402.7,228.3h75.9c1.7,0,3-1.3,3-3s-1.3-3-3-3h-75.9c-1.7,0-3,1.3-3,3S401.1,228.3,402.7,228.3z"/>
	<path class="st3" d="M402.7,261.2h75.9c1.7,0,3-1.3,3-3s-1.3-3-3-3h-75.9c-1.7,0-3,1.3-3,3S401.1,261.2,402.7,261.2z"/>
	<path class="st3" d="M402.7,294.2h75.9c1.7,0,3-1.3,3-3s-1.3-3-3-3h-75.9c-1.7,0-3,1.3-3,3S401.1,294.2,402.7,294.2z"/>
	<path class="st3" d="M402.7,310.6h75.9c1.7,0,3-1.3,3-3s-1.3-3-3-3h-75.9c-1.7,0-3,1.3-3,3S401.1,310.6,402.7,310.6z"/>
</g>
</svg>
