<?xml version="1.0" encoding="utf-8"?>
<!-- Generator: Adobe Illustrator 21.1.0, SVG Export Plug-In . SVG Version: 6.00 Build 0)  -->
<svg version="1.1" id="Слой_1" xmlns="http://www.w3.org/2000/svg" xmlns:xlink="http://www.w3.org/1999/xlink" x="0px" y="0px"
	 viewBox="0 0 64.4 64.4" style="enable-background:new 0 0 64.4 64.4;" xml:space="preserve">
<style type="text/css">
	.st0{fill:#010203;}
</style>
<g>
	<path class="st0" d="M18.2,35.6c4.9,1.8,10.8,2.2,12.8,2.3c0.2-2.6,0.6-11.5-3.5-15.5c-4.1-4-8.5-3.7-10.3-2.5
		c-0.2,0.1-0.3,0.2-0.5,0.4c0,0-0.1,0.1-0.2,0.1c-2.9,2.4-5,5.6-6,9.2C12.5,32.3,15,34.4,18.2,35.6z"/>
	<path class="st0" d="M33.3,38.4l2.9,1.6c0.1-2.3,0.2-7.2-0.3-11.6c-1.1-9-4.7-12.9-12.1-12.9c-1.3,0.5-2.4,1.1-3.3,1.7
		c2.6-0.1,5.8,0.8,8.9,3.8C34.2,25.8,33.5,36,33.3,38.4z"/>
	<path class="st0" d="M38,28.2c0.6,4.7,0.4,9.9,0.3,12.2l9.3-2.3c0.2-2.5,0.7-13.1-4.8-19.3c-2.8-3.1-6.7-4.7-11.6-4.7
		c-1,0-1.9,0.1-2.8,0.2C35.6,16.1,37.3,22.5,38,28.2z"/>
	<path class="st0" d="M49.4,35.5c0,2.3-0.2,3.8-0.2,3.9c0,0.3-0.3,0.6-0.6,0.7l-11.2,2.8c0,0,0,0,0,0c-0.1,0-0.1,0-0.2,0h-0.1
		c0,0-0.1,0-0.1,0c0,0,0,0,0,0c-0.1,0-0.1,0-0.2-0.1c0,0,0,0,0,0l-4.4-2.5c-1.4,0-8.7-0.3-14.7-2.6c-2.3-0.9-5.4-2.5-7.8-5.8
		c-0.1,0.9-0.2,1.9-0.2,2.9c0.2,0.6,1.3,3.6,5,5.3c7.8,3.5,18.2,7.4,28.9,5.7c8-1.2,12.1-3,12.1-5.2C55.5,40.1,53.3,38.2,49.4,35.5z
		"/>
	<path class="st0" d="M32.2,0C14.4,0,0,14.4,0,32.2s14.4,32.2,32.2,32.2C50,64.4,64.4,50,64.4,32.2S50,0,32.2,0z M44.3,47.8
		c-1.9,0.3-3.8,0.4-5.6,0.4c-9.4,0-18.1-3.3-25-6.5c-4.9-2.2-6.1-6.5-6.1-6.7c0-0.1,0-0.1,0-0.2c0-6.4,2.8-12.3,7.6-16.4
		c0.6-1,3.6-3.6,7.9-5.3c0.1,0,0.2-0.1,0.3-0.1c2.2-0.9,4.8-1.4,7.6-1.4c5.7,0,10.3,1.9,13.5,5.5c3.7,4.2,5,10.1,5.5,14.2
		c0.1,0.7,0.1,1.4,0.1,2c8.2,5.4,8.2,6.9,8.2,7.4C58.1,43.1,56.5,45.9,44.3,47.8z"/>
</g>
</svg>
