<?xml version="1.0" encoding="utf-8"?>
<!-- Generator: Adobe Illustrator 21.1.0, SVG Export Plug-In . SVG Version: 6.00 Build 0)  -->
<svg version="1.1" id="Слой_1" xmlns="http://www.w3.org/2000/svg" xmlns:xlink="http://www.w3.org/1999/xlink" x="0px" y="0px"
	 viewBox="0 0 71.4 84.6" style="enable-background:new 0 0 71.4 84.6;" xml:space="preserve">
<path d="M68.4,81.6H3V3h65.4L68.4,81.6z M69.9,0H1.5C0.7,0,0,0.7,0,1.5v81.6c0,0.8,0.7,1.5,1.5,1.5h68.4c0.8,0,1.5-0.7,1.5-1.5V1.5
	C71.4,0.7,70.8,0,69.9,0z"/>
<path d="M12.3,11.8h47.3v17.5H12.3V11.8z M10.8,32.3h50.3c0.8,0,1.5-0.7,1.5-1.5V10.3c0-0.8-0.7-1.5-1.5-1.5H10.8
	c-0.8,0-1.5,0.7-1.5,1.5v20.5C9.3,31.6,10,32.3,10.8,32.3z"/>
<path d="M20,49.8h-7.2v-7.2H20V49.8z M21.5,39.6H11.3c-0.8,0-1.5,0.7-1.5,1.5v10.2c0,0.8,0.7,1.5,1.5,1.5h10.2
	c0.8,0,1.5-0.7,1.5-1.5V41.1C23,40.3,22.3,39.6,21.5,39.6z"/>
<path d="M20,69.5h-7.2v-7.2H20V69.5z M21.5,59.3H11.3c-0.8,0-1.5,0.7-1.5,1.5V71c0,0.8,0.7,1.5,1.5,1.5h10.2c0.8,0,1.5-0.7,1.5-1.5
	V60.8C23,60,22.3,59.3,21.5,59.3z"/>
<path d="M59.1,49.8h-7.2v-7.2h7.2L59.1,49.8z M60.6,39.6H50.4c-0.8,0-1.5,0.7-1.5,1.5v10.2c0,0.8,0.7,1.5,1.5,1.5h10.2
	c0.8,0,1.5-0.7,1.5-1.5V41.1C62.1,40.3,61.4,39.6,60.6,39.6z"/>
<path d="M59.1,69.5h-7.2v-7.2h7.2L59.1,69.5z M60.6,59.3H50.4c-0.8,0-1.5,0.7-1.5,1.5V71c0,0.8,0.7,1.5,1.5,1.5h10.2
	c0.8,0,1.5-0.7,1.5-1.5V60.8C62.1,60,61.4,59.3,60.6,59.3z"/>
<path d="M39.9,49.4h-7.2v-7.2h7.2V49.4z M41.4,39.3H31.2c-0.8,0-1.5,0.7-1.5,1.5v10.2c0,0.8,0.7,1.5,1.5,1.5h10.2
	c0.8,0,1.5-0.7,1.5-1.5V40.8C42.9,39.9,42.2,39.3,41.4,39.3z"/>
<path d="M39.9,69.2h-7.2V62h7.2V69.2z M41.4,59H31.2c-0.8,0-1.5,0.7-1.5,1.5v10.2c0,0.8,0.7,1.5,1.5,1.5h10.2c0.8,0,1.5-0.7,1.5-1.5
	V60.5C42.9,59.7,42.2,59,41.4,59z"/>
</svg>
