<?xml version="1.0" encoding="utf-8"?>
<!-- Generator: Adobe Illustrator 21.1.0, SVG Export Plug-In . SVG Version: 6.00 Build 0)  -->
<svg version="1.1" id="Слой_1" xmlns="http://www.w3.org/2000/svg" xmlns:xlink="http://www.w3.org/1999/xlink" x="0px" y="0px"
	 viewBox="0 0 84.8 75.6" style="enable-background:new 0 0 84.8 75.6;" xml:space="preserve">
<path d="M79.1,65.9c-3.9,1.7-12.2-5.5-18-18.5c-2.7-6.1-4.3-12.3-4.5-17.3c-0.2-4.5,0.9-7.6,2.8-8.5c0.4-0.2,0.8-0.3,1.3-0.3
	c4.2,0,11.5,7,16.8,18.7c2.7,6.1,4.3,12.3,4.5,17.3C82,61.9,81,65,79.1,65.9z M64.6,72.3c-3.9,1.7-12.2-5.5-18-18.5S41,29.8,44.9,28
	l9.3-4.2c-0.5,1.7-0.7,3.9-0.7,6.3c0.2,5.4,1.9,12,4.8,18.4c4.4,9.9,10.4,17.1,15.7,19.6L64.6,72.3z M27.2,69.6
	C13,69.6,3,64.9,3,60.7c0-0.1,0-0.2,0-0.2c0-0.1,0-0.2,0-0.2V49.7c4.4,3.8,13.4,6.3,24.2,6.3c5.9,0,11.3-0.8,16.1-2.4
	c0.2,0.4,0.4,0.9,0.6,1.4c1.6,3.5,3.3,6.6,5.2,9.4C44.9,67.6,36.4,69.6,27.2,69.6z M3,43.7V33.3c4.4,3.8,13.4,6.3,24.2,6.3
	c4.2,0,8.3-0.4,12-1.2c0.3,3.7,1.3,7.9,3,12.4c-4.4,1.4-9.5,2.2-15,2.2C13,53.1,3,48.4,3,44.1c0-0.1,0-0.2,0-0.2
	C3,43.8,3,43.7,3,43.7z M3,27.2v-9.7c4.4,3.8,13.4,6.3,24.2,6.3c10.8,0,19.8-2.5,24.2-6.3v4.3l-7.8,3.5c-3,1.3-4.5,5-4.6,10.1
	c-3.6,0.8-7.7,1.2-11.8,1.2C13,36.6,3,31.9,3,27.7c0-0.1,0-0.2,0-0.2C3,27.4,3,27.3,3,27.2z M27.2,3c14.3,0,24.2,4.7,24.2,8.9
	c0,4.2-10,8.9-24.2,8.9S3,16.1,3,11.9C3,7.7,13,3,27.2,3z M84.8,57.3c-0.2-5.4-1.9-12-4.8-18.4c-6.3-14.2-15.8-22.8-22-20l-3.6,1.6
	v-8.6C54.5,5.1,42.8,0,27.2,0S0,5.1,0,11.9v15.3c0,0.1,0,0.2,0,0.2c0,0.1,0,0.2,0,0.2c0,0.1,0,0.3,0,0.4c0,0.1,0,0.1,0,0.2v15.3
	c0,0.1,0,0.2,0,0.2C0,44,0,44,0,44.1c0,0.2,0,0.3,0,0.5c0,0.1,0,0.2,0,0.3v15.3c0,0.1,0,0.2,0,0.2c0,0.1,0,0.2,0,0.2
	c0,6.8,11.7,11.9,27.2,11.9c9.8,0,18.8-2.2,23.6-5.8c4.2,5.5,8.8,8.7,12.6,8.7c0.9,0,1.7-0.2,2.5-0.5l14.4-6.4
	C83.4,67.2,85,63.2,84.8,57.3z"/>
</svg>
