<?xml version="1.0" encoding="utf-8"?>
<!-- Generator: Adobe Illustrator 21.1.0, SVG Export Plug-In . SVG Version: 6.00 Build 0)  -->
<svg version="1.1" id="Слой_1" xmlns="http://www.w3.org/2000/svg" xmlns:xlink="http://www.w3.org/1999/xlink" x="0px" y="0px"
	 viewBox="0 0 169 169" style="enable-background:new 0 0 169 169;" xml:space="preserve">
<g>
	<path d="M72.1,123.8c1.3,0,2.3-1.1,2.3-2.4c0-0.6-0.2-1.2-0.7-1.7s-1-0.7-1.7-0.7c-1.3,0-2.3,1-2.3,2.3
		C69.8,122.7,70.9,123.8,72.1,123.8z"/>
	<path d="M107.5,124.3c1.3,0,2.4-1.1,2.4-2.4s-1.1-2.3-2.4-2.3c-1.3,0-2.3,1.1-2.3,2.3S106.2,124.3,107.5,124.3z"/>
	<path d="M65.2,92.8c0.1,0.2,0.2,0.4,0.2,0.6l2.3,7.9H110l6.6-43.4H54.8L65.2,92.8z"/>
	<path d="M84.5,0C37.8,0,0,37.8,0,84.5S37.8,169,84.5,169S169,131.2,169,84.5S131.2,0,84.5,0z M125.3,54.4l-7.9,51.4
		c-0.3,2-2,3.4-3.9,3.4H70.2l0.6,1.9c0.4-0.1,0.8-0.1,1.3-0.1c2.8,0,5.4,1.1,7.3,3c0.7,0.7,1.2,1.4,1.7,2.2h17.7
		c1.9-2.9,5.1-4.7,8.6-4.7c5.7,0,10.4,4.6,10.4,10.3s-4.6,10.4-10.4,10.4c-4.9,0-9-3.4-10.1-8H82.1c-1.3,4.3-5.2,7.4-9.9,7.4
		c-5.7,0-10.3-4.7-10.3-10.4c0-2.2,0.7-4.3,2-6.1l-2.9-8.9L43.2,47.1h-8.1c-2.2,0-4-1.8-4-4c0-2.2,1.8-4,4-4h11.1
		c1.8,0,3.3,1.1,3.8,2.8l2.3,7.9h68.9c1.2,0,2.3,0.5,3,1.4C125.1,52.1,125.4,53.3,125.3,54.4z"/>
</g>
</svg>
