<svg xmlns="http://www.w3.org/2000/svg" viewBox="0 0 235 50"><defs><style>.cls-1{fill:#3a393b;}.cls-2{fill:#8d64aa;}.cls-3{fill:#773e90;}</style></defs><title>logo</title><g id="Layer_2" data-name="Layer 2"><g id="Layer_1-2" data-name="Layer 1"><path class="cls-1" d="M10.77,32.66V23.4L4.15,32.66H0V16.58H4.13v9.21l6.55-9.21H14.9V32.66Z"/><path class="cls-1" d="M32.94,32.66H27.78l-5.34-7.29v7.29H18.31V16.58h4.13v6.84l5-6.84h5.09l-6.3,7.81Z"/><path class="cls-1" d="M47.57,18.3l-2.08,3a6.17,6.17,0,0,0-1.79-1,5.35,5.35,0,0,0-1.92-.36,4.22,4.22,0,0,0-2.27.61A4,4,0,0,0,38,22.22a5,5,0,0,0-.55,2.37A4.94,4.94,0,0,0,38,27a4.26,4.26,0,0,0,1.57,1.66,4.3,4.3,0,0,0,2.21.59,5.33,5.33,0,0,0,2.15-.46,7,7,0,0,0,1.93-1.19l2,3a8.41,8.41,0,0,1-2.77,1.83,8.74,8.74,0,0,1-3.31.63A8.88,8.88,0,0,1,37.44,32a8.08,8.08,0,0,1-3.09-3,8.87,8.87,0,0,1,0-8.7,8.06,8.06,0,0,1,3.1-3,8.94,8.94,0,0,1,4.4-1.09,8.84,8.84,0,0,1,3.12.55A7.48,7.48,0,0,1,47.57,18.3Z"/><path class="cls-1" d="M64.83,32.66H59.66l-5.33-7.29v7.29H50.2V16.58h4.13v6.84l5-6.84h5.1l-6.31,7.81Z"/><path class="cls-1" d="M81,20.24a8.4,8.4,0,0,1,1.13,4.35A8.4,8.4,0,0,1,81,28.94a8.24,8.24,0,0,1-3.07,3,8.72,8.72,0,0,1-4.3,1.09A8.61,8.61,0,0,1,69.33,32a8.22,8.22,0,0,1-3.09-3,8.85,8.85,0,0,1,0-8.69,8.17,8.17,0,0,1,3.09-3,8.41,8.41,0,0,1,4.27-1.1,8.62,8.62,0,0,1,4.3,1.09A8.19,8.19,0,0,1,81,20.24ZM69.88,22.18a4.89,4.89,0,0,0-.59,2.41A4.84,4.84,0,0,0,69.88,27a4.26,4.26,0,0,0,1.57,1.66,4.11,4.11,0,0,0,2.15.59,4.22,4.22,0,0,0,2.18-.59A4.38,4.38,0,0,0,77.34,27a4.94,4.94,0,0,0,.57-2.39,5,5,0,0,0-.57-2.41,4.35,4.35,0,0,0-1.56-1.65,4.13,4.13,0,0,0-2.18-.6,4,4,0,0,0-2.15.6A4.23,4.23,0,0,0,69.88,22.18Z"/><path class="cls-1" d="M101.16,32.66l-.74-10.25-3.5,10.25H92.61l-3.5-10.25-.74,10.25H84.18l1.39-16.08H91l3.73,10.79,3.72-10.79h5.45l1.42,16.08Z"/><path class="cls-2" d="M193.09,28.84V36h-3.36v-3.3H178.42V36h-3.37V29.33c.93-.13,1.68-.85,2.24-2.19A26.46,26.46,0,0,0,178.71,21l.65-4.45H190V28.84Zm-10.5-7.19a28.07,28.07,0,0,1-1.75,7.19h5V20.39h-3.1Z"/><path class="cls-2" d="M210.61,20.24a8.87,8.87,0,0,1,0,8.7,8.16,8.16,0,0,1-3.07,3A9,9,0,0,1,199,32a8.47,8.47,0,0,1,4.27-15.84,8.59,8.59,0,0,1,4.3,1.09A8.12,8.12,0,0,1,210.61,20.24Zm-11.09,1.94a4.88,4.88,0,0,0-.58,2.41,4.83,4.83,0,0,0,.58,2.39,4.33,4.33,0,0,0,1.57,1.66,4.27,4.27,0,0,0,4.33,0A4.23,4.23,0,0,0,207,27a4.94,4.94,0,0,0,.57-2.39,5,5,0,0,0-.57-2.41,4.2,4.2,0,0,0-1.56-1.65,4.21,4.21,0,0,0-4.33,0A4.3,4.3,0,0,0,199.52,22.18Z"/><path class="cls-2" d="M230.81,32.66l-.75-10.25-3.5,10.25h-4.3l-3.5-10.25L218,32.66h-4.2l1.39-16.08h5.48l3.72,10.79,3.72-10.79h5.46L235,32.66Z"/><polygon class="cls-2" points="147.75 50 165.82 31.49 159.48 25 141.41 43.51 147.75 50"/><polygon class="cls-2" points="135.07 0 116.99 18.51 123.33 25 141.41 6.49 135.07 0"/><polygon class="cls-2" points="116.99 31.49 135.07 50 141.41 43.51 123.33 25 116.99 31.49"/><polygon class="cls-2" points="147.75 0 141.41 6.49 159.48 25 165.82 18.51 147.75 0"/><polygon class="cls-3" points="123.33 25 141.41 43.51 159.48 25 141.41 6.49 123.33 25"/></g></g></svg>