<svg version="1.1" xmlns="http://www.w3.org/2000/svg" xmlns:xlink="http://www.w3.org/1999/xlink">

    <symbol id="icon-phone" viewBox="0 0 60.7 85.4">
        <path d="M57.7,75.8c0,3.7-3,6.6-6.7,6.6H9.7c-3.7,0-6.7-3-6.7-6.6V9.6C3,5.9,6,3,9.7,3H51c3.7,0,6.7,3,6.7,6.6V75.8z M51,0H9.7
	C4.4,0,0,4.3,0,9.6v66.2c0,5.3,4.3,9.6,9.7,9.6H51c5.3,0,9.7-4.3,9.7-9.6V9.6C60.7,4.3,56.4,0,51,0z"/>
<path d="M42.6,9.5H17.9c-0.8,0-1.5,0.7-1.5,1.5c0,0.8,0.7,1.5,1.5,1.5h24.7c0.8,0,1.5-0.7,1.5-1.5C44.1,10.2,43.4,9.5,42.6,9.5z"/>
<path d="M30.4,73.8c-0.5,0-1-0.2-1.4-0.6s-0.6-0.9-0.6-1.4c0-1.1,0.9-2,2-2s2,0.9,2,2C32.4,72.9,31.5,73.8,30.4,73.8z M30.3,66.8
	c-2.8,0-5,2.3-5,5c0,1.3,0.5,2.6,1.5,3.5c0.9,0.9,2.2,1.4,3.5,1.4c2.8,0,5-2.3,5-5S33.1,66.8,30.3,66.8z"/>
    </symbol>

	<symbol id="icon-marker" viewBox="0 0 53.7 89.3">
		<path d="M26.8,86.3C12.8,86.3,3,81.4,3,77c0-4,7.4-7.8,17.3-9l4.9,8.2c0.3,0.4,0.8,0.7,1.3,0.7c0,0,0,0,0,0c0.5,0,1-0.3,1.3-0.7
	l5.1-8.2c10.1,1.1,17.8,5,17.8,9C50.7,81.4,40.9,86.3,26.8,86.3z M6.7,39.4c-2.4-3.8-3.7-8.2-3.7-12.6C3.1,13.7,13.8,3,26.9,3
	C40,3,50.7,13.7,50.7,26.8c0,4.5-1.3,8.8-3.7,12.6c0,0.1-0.1,0.2-0.1,0.2L31,65.1c-0.2,0.4-0.3,0.4-0.6,0.9l-4,6.4L6.9,39.7
	C6.8,39.6,6.8,39.5,6.7,39.4z M34.6,65.1l15-24.1c0-0.1,0.1-0.2,0.1-0.2c2.6-4.2,4-9,4-14C53.7,12,41.6,0,26.9,0
	C12.1,0,0.1,12,0.1,26.8c0,4.9,1.4,9.8,4,14c0,0.1,0.1,0.1,0.1,0.2l14.5,24.2C7.4,66.8,0,71.4,0,77c0,6.9,11.8,12.4,26.8,12.4
	S53.7,83.9,53.7,77C53.7,71.3,45.9,66.6,34.6,65.1z"/>
<path d="M20.1,26.8c0-3.7,3-6.7,6.7-6.7s6.7,3,6.7,6.7s-3,6.7-6.7,6.7S20.1,30.5,20.1,26.8z M36.6,26.8c0-5.4-4.4-9.7-9.7-9.7
	s-9.7,4.4-9.7,9.7c0,5.4,4.4,9.7,9.7,9.7S36.6,32.2,36.6,26.8z"/>
	</symbol>

	<symbol id="icon-check" viewBox="0 0 64.4 64.4">
		<path d="M32.2,0C14.4,0,0,14.4,0,32.2C0,50,14.4,64.4,32.2,64.4C50,64.4,64.4,50,64.4,32.2C64.4,14.4,50,0,32.2,0z M29.9,44.5
	l-3.3,3.4l-3.4-3.4l-12.7-13l3.4-3.4l12.7,12.9l24-24.6l3.5,3.3L29.9,44.5z"/>
	</symbol>

	<symbol id="icon-helment" viewBox="0 0 64.4 64.4">
		<g>
	<path class="st0" d="M18.2,35.6c4.9,1.8,10.8,2.2,12.8,2.3c0.2-2.6,0.6-11.5-3.5-15.5c-4.1-4-8.5-3.7-10.3-2.5
		c-0.2,0.1-0.3,0.2-0.5,0.4c0,0-0.1,0.1-0.2,0.1c-2.9,2.4-5,5.6-6,9.2C12.5,32.3,15,34.4,18.2,35.6z"/>
	<path class="st0" d="M33.3,38.4l2.9,1.6c0.1-2.3,0.2-7.2-0.3-11.6c-1.1-9-4.7-12.9-12.1-12.9c-1.3,0.5-2.4,1.1-3.3,1.7
		c2.6-0.1,5.8,0.8,8.9,3.8C34.2,25.8,33.5,36,33.3,38.4z"/>
	<path class="st0" d="M38,28.2c0.6,4.7,0.4,9.9,0.3,12.2l9.3-2.3c0.2-2.5,0.7-13.1-4.8-19.3c-2.8-3.1-6.7-4.7-11.6-4.7
		c-1,0-1.9,0.1-2.8,0.2C35.6,16.1,37.3,22.5,38,28.2z"/>
	<path class="st0" d="M49.4,35.5c0,2.3-0.2,3.8-0.2,3.9c0,0.3-0.3,0.6-0.6,0.7l-11.2,2.8c0,0,0,0,0,0c-0.1,0-0.1,0-0.2,0h-0.1
		c0,0-0.1,0-0.1,0c0,0,0,0,0,0c-0.1,0-0.1,0-0.2-0.1c0,0,0,0,0,0l-4.4-2.5c-1.4,0-8.7-0.3-14.7-2.6c-2.3-0.9-5.4-2.5-7.8-5.8
		c-0.1,0.9-0.2,1.9-0.2,2.9c0.2,0.6,1.3,3.6,5,5.3c7.8,3.5,18.2,7.4,28.9,5.7c8-1.2,12.1-3,12.1-5.2C55.5,40.1,53.3,38.2,49.4,35.5z
		"/>
	<path class="st0" d="M32.2,0C14.4,0,0,14.4,0,32.2s14.4,32.2,32.2,32.2C50,64.4,64.4,50,64.4,32.2S50,0,32.2,0z M44.3,47.8
		c-1.9,0.3-3.8,0.4-5.6,0.4c-9.4,0-18.1-3.3-25-6.5c-4.9-2.2-6.1-6.5-6.1-6.7c0-0.1,0-0.1,0-0.2c0-6.4,2.8-12.3,7.6-16.4
		c0.6-1,3.6-3.6,7.9-5.3c0.1,0,0.2-0.1,0.3-0.1c2.2-0.9,4.8-1.4,7.6-1.4c5.7,0,10.3,1.9,13.5,5.5c3.7,4.2,5,10.1,5.5,14.2
		c0.1,0.7,0.1,1.4,0.1,2c8.2,5.4,8.2,6.9,8.2,7.4C58.1,43.1,56.5,45.9,44.3,47.8z"/>
</g>
	</symbol>

	<symbol id="icon-privilege-time" viewBox="0 0 83.2 83.2">
		<path d="M41.6,71.7c-16.6,0-30-13.5-30-30s13.5-30,30-30s30,13.5,30,30S58.2,71.7,41.6,71.7z M41.6,8C23.1,8,8,23.1,8,41.6
	c0,18.6,15.1,33.6,33.7,33.6c18.6,0,33.7-15.1,33.7-33.6C75.3,23.1,60.2,8,41.6,8z"/>
<path d="M50.1,36.2l-7.3,7.3V17.6c0-1-0.8-1.8-1.8-1.8s-1.8,0.8-1.8,1.8v30.2c0,0.1,0,0.2,0,0.4c0,0.1,0,0.1,0,0.1
	c0,0.1,0,0.1,0.1,0.2c0,0.1,0.1,0.1,0.1,0.2c0,0,0,0.1,0.1,0.1c0.1,0.2,0.3,0.4,0.5,0.5c0,0,0.1,0,0.1,0.1c0.1,0,0.1,0.1,0.2,0.1
	c0.1,0,0.1,0,0.2,0.1c0.1,0,0.1,0,0.2,0.1c0.1,0,0.2,0,0.4,0c0.1,0,0.2,0,0.4,0c0.1,0,0.1,0,0.2-0.1c0.1,0,0.1,0,0.2-0.1
	c0.1,0,0.1-0.1,0.2-0.1c0,0,0.1,0,0.1-0.1c0.1-0.1,0.2-0.1,0.3-0.2l10.3-10.3c0.7-0.7,0.7-1.8,0-2.6C52,35.4,50.8,35.4,50.1,36.2z"
	/>
<path d="M41.6,79.6c-21,0-38-17.1-38-38s17.1-38,38-38s38,17.1,38,38S62.6,79.6,41.6,79.6z M41.6,0C18.7,0,0,18.7,0,41.6
	c0,23,18.7,41.6,41.6,41.6s41.6-18.7,41.6-41.6C83.2,18.7,64.6,0,41.6,0z"/>
	</symbol>

	<symbol id="icon-pig" viewBox="0 0 90.9 81.1">
		<path d="M31,33.5c0,1.2-1,2.1-2.1,2.1c-1.2,0-2.1-1-2.1-2.1c0-1.2,1-2.1,2.1-2.1C30,31.4,31,32.4,31,33.5z M23.8,33.5
	c0,2.8,2.3,5,5,5c2.8,0,5-2.3,5-5c0-2.8-2.3-5-5-5C26.1,28.5,23.8,30.8,23.8,33.5z"/>
<path d="M73.4,17.9c-0.7-0.4-1.6-0.1-2,0.6c-0.4,0.7-0.1,1.6,0.6,2C82,25.9,88,34.7,88,44c0,8.6-3.4,14.9-11.1,20.5
	c-0.3,0.2-0.5,0.5-0.6,0.9l-2.9,12.9h-5.4l-1.7-6.6c-0.1-0.4-0.4-0.7-0.7-0.9c-0.4-0.2-0.8-0.2-1.2-0.1c-4.8,1.8-8.4,2.3-14.8,2.3
	c-6.1,0-10.5-0.4-16.1-2.7c-0.4-0.2-0.8-0.1-1.2,0.1c-0.4,0.2-0.7,0.5-0.7,1l-1.6,6.9h-5.3l-2.8-13.9c-0.1-0.4-0.3-0.7-0.6-0.9
	C9,55.3,2.9,48.2,2.9,42.5V37c0-2.4,1.7-4.3,3.7-4.3h6.5l0.1,0c0.1,0,0.1,0,0.2,0c0.6,0.1,1.1-0.2,1.4-0.7c2.1-3.5,5.1-6.6,9-9.3
	c0.4-0.3,0.6-0.7,0.6-1.2V9.4c5.2,0.5,8.8,3.9,10.2,7.3c0.3,0.7,1.2,1.1,1.9,0.8c0.7-0.3,1.1-1.2,0.8-1.9c-1.9-4.5-7.1-9.1-14.4-9.1
	c-0.8,0-1.5,0.6-1.5,1.5v12.9c-3.7,2.7-6.6,5.7-8.8,9.1H6.6C3,29.8,0,33.1,0,37v5.5c0,9.8,13.8,19.4,19,23L22,80
	c0.1,0.7,0.7,1.2,1.4,1.2H31c0.7,0,1.3-0.5,1.4-1.1l1.5-6.4c5.3,1.9,9.7,2.3,15.7,2.3c5.5,0,9.4-0.3,14.3-2l1.6,6.1
	c0.2,0.6,0.7,1.1,1.4,1.1h7.7c0.7,0,1.3-0.5,1.4-1.1l3-13.5c8.1-6.1,11.8-13.2,11.8-22.5C90.9,33.6,84.3,23.9,73.4,17.9z"/>
<path d="M54.2,2.9c5.8,0,10.5,4.7,10.5,10.5c0,1.8-0.4,3.5-1.3,5c-2.5-2.1-5.8-3.2-9.2-3.2c-3.5,0-6.8,1.1-9.3,3.1
	c-0.8-1.5-1.2-3.2-1.2-5C43.8,7.6,48.5,2.9,54.2,2.9z M44.6,22.1c0.4,0,0.8-0.2,1.1-0.5c2-2.2,5.1-3.5,8.5-3.5
	c3.3,0,6.4,1.3,8.4,3.5c0.3,0.3,0.7,0.5,1.1,0.5c0,0,0,0,0.1,0c0.4,0,0.8-0.2,1.1-0.6c1.8-2.4,2.8-5.2,2.8-8.2C67.6,6,61.6,0,54.2,0
	c-7.4,0-13.4,6-13.4,13.4c0,2.9,0.9,5.7,2.7,8.1C43.8,21.8,44.2,22,44.6,22.1z"/>
	</symbol>

	<symbol id="icon-monkey" viewBox="0 0 90.4 90.8">
		<path d="M78.9,65.4c0.9-3.1,1.4-6.4,1.4-9.8c0-3.4-0.5-6.7-1.4-9.8c4.8,0.7,8.5,4.8,8.5,9.8C87.4,60.6,83.7,64.7,78.9,65.4z
	 M45.1,87.8c-17.8,0-32.2-14.4-32.2-32.2s14.4-32.2,32.2-32.2c17.8,0,32.2,14.4,32.2,32.2S62.8,87.8,45.1,87.8z M3,55.6
	c0-4.9,3.6-8.9,8.2-9.7c-0.9,3.1-1.4,6.4-1.4,9.7c0,3.4,0.5,6.6,1.4,9.7C6.6,64.5,3,60.5,3,55.6z M90.4,55.6c0-7-5.6-12.7-12.5-12.9
	c-5.1-12.9-17.6-22.1-32.3-22.3c1.2-1.5,2.3-3.3,2.4-5.1c0.1-3.8-2.3-5.1-4-6.1c-1.6-0.9-2.3-1.4-2.3-2.9c0-3,2.8-3.2,3.4-3.3
	c0.8,0,1.5-0.7,1.5-1.5c0-0.8-0.7-1.5-1.5-1.5c-2.2,0.1-6.3,1.5-6.3,6.3c0,3.3,2.2,4.6,3.8,5.5c1.7,1,2.5,1.6,2.5,3.5
	c0,1.4-2.1,3.9-3.7,5.3C28,22,17,30.8,12.3,42.7C5.5,43,0,48.7,0,55.6c0,6.9,5.5,12.6,12.3,12.9c5.1,13.1,17.9,22.3,32.8,22.3
	c14.9,0,27.6-9.3,32.8-22.3C84.8,68.3,90.4,62.6,90.4,55.6z"/>
<path d="M35.8,51.8c0,0.8,0.7,1.5,1.5,1.5s1.5-0.7,1.5-1.5c0-3.8-3.1-7-7-7c-3.8,0-7,3.1-7,7c0,0.8,0.7,1.5,1.5,1.5s1.5-0.7,1.5-1.5
	c0-2.2,1.8-4,4-4C34.1,47.8,35.8,49.6,35.8,51.8z"/>
<path d="M57.9,44.8c-3.8,0-7,3.1-7,7c0,0.8,0.7,1.5,1.5,1.5s1.5-0.7,1.5-1.5c0-2.2,1.8-4,4-4s4,1.8,4,4c0,0.8,0.7,1.5,1.5,1.5
	s1.5-0.7,1.5-1.5C64.9,47.9,61.7,44.8,57.9,44.8z"/>
<path d="M59.1,61.7c-0.8,0-1.5,0.7-1.5,1.5c0,6.9-5.6,12.5-12.5,12.5c-6.9,0-12.5-5.6-12.5-12.5c0-0.8-0.7-1.5-1.5-1.5
	c-0.8,0-1.5,0.7-1.5,1.5c0,8.6,7,15.5,15.5,15.5c8.6,0,15.5-7,15.5-15.5C60.6,62.3,59.9,61.7,59.1,61.7z"/>
	</symbol>

	<symbol id="icon-instagram" viewBox="0 0 169.063 169.063">
		<g>
	<path d="M122.406,0H46.654C20.929,0,0,20.93,0,46.655v75.752c0,25.726,20.929,46.655,46.654,46.655h75.752
		c25.727,0,46.656-20.93,46.656-46.655V46.655C169.063,20.93,148.133,0,122.406,0z M154.063,122.407
		c0,17.455-14.201,31.655-31.656,31.655H46.654C29.2,154.063,15,139.862,15,122.407V46.655C15,29.201,29.2,15,46.654,15h75.752
		c17.455,0,31.656,14.201,31.656,31.655V122.407z"/>
	<path d="M84.531,40.97c-24.021,0-43.563,19.542-43.563,43.563c0,24.02,19.542,43.561,43.563,43.561s43.563-19.541,43.563-43.561
		C128.094,60.512,108.552,40.97,84.531,40.97z M84.531,113.093c-15.749,0-28.563-12.812-28.563-28.561
		c0-15.75,12.813-28.563,28.563-28.563s28.563,12.813,28.563,28.563C113.094,100.281,100.28,113.093,84.531,113.093z"/>
	<path d="M129.921,28.251c-2.89,0-5.729,1.17-7.77,3.22c-2.051,2.04-3.23,4.88-3.23,7.78c0,2.891,1.18,5.73,3.23,7.78
		c2.04,2.04,4.88,3.22,7.77,3.22c2.9,0,5.73-1.18,7.78-3.22c2.05-2.05,3.22-4.89,3.22-7.78c0-2.9-1.17-5.74-3.22-7.78
		C135.661,29.421,132.821,28.251,129.921,28.251z"/>
</g>
<g>
</g>
<g>
</g>
<g>
</g>
<g>
</g>
<g>
</g>
<g>
</g>
<g>
</g>
<g>
</g>
<g>
</g>
<g>
</g>
<g>
</g>
<g>
</g>
<g>
</g>
<g>
</g>
<g>
</g>
	</symbol>

	<symbol id="icon-facebook" viewBox="0 0 96.124 96.123">
		<g>
	<path d="M72.089,0.02L59.624,0C45.62,0,36.57,9.285,36.57,23.656v10.907H24.037c-1.083,0-1.96,0.878-1.96,1.961v15.803
		c0,1.083,0.878,1.96,1.96,1.96h12.533v39.876c0,1.083,0.877,1.96,1.96,1.96h16.352c1.083,0,1.96-0.878,1.96-1.96V54.287h14.654
		c1.083,0,1.96-0.877,1.96-1.96l0.006-15.803c0-0.52-0.207-1.018-0.574-1.386c-0.367-0.368-0.867-0.575-1.387-0.575H56.842v-9.246
		c0-4.444,1.059-6.7,6.848-6.7l8.397-0.003c1.082,0,1.959-0.878,1.959-1.96V1.98C74.046,0.899,73.17,0.022,72.089,0.02z"/>
</g>
<g>
</g>
<g>
</g>
<g>
</g>
<g>
</g>
<g>
</g>
<g>
</g>
<g>
</g>
<g>
</g>
<g>
</g>
<g>
</g>
<g>
</g>
<g>
</g>
<g>
</g>
<g>
</g>
<g>
</g>
	</symbol>

	<symbol id="icon-vk" viewBox="0 0 304.36 304.36">
		<g id="XMLID_1_">
	<path id="XMLID_807_" style="fill-rule:evenodd;clip-rule:evenodd;" d="M261.945,175.576c10.096,9.857,20.752,19.131,29.807,29.982
		c4,4.822,7.787,9.798,10.684,15.394c4.105,7.955,0.387,16.709-6.746,17.184l-44.34-0.02c-11.436,0.949-20.559-3.655-28.23-11.474
		c-6.139-6.253-11.824-12.908-17.727-19.372c-2.42-2.642-4.953-5.128-7.979-7.093c-6.053-3.929-11.307-2.726-14.766,3.587
		c-3.523,6.421-4.322,13.531-4.668,20.687c-0.475,10.441-3.631,13.186-14.119,13.664c-22.414,1.057-43.686-2.334-63.447-13.641
		c-17.422-9.968-30.932-24.04-42.691-39.971C34.828,153.482,17.295,119.395,1.537,84.353C-2.01,76.458,0.584,72.22,9.295,72.07
		c14.465-0.281,28.928-0.261,43.41-0.02c5.879,0.086,9.771,3.458,12.041,9.012c7.826,19.243,17.402,37.551,29.422,54.521
		c3.201,4.518,6.465,9.036,11.113,12.216c5.142,3.521,9.057,2.354,11.476-3.374c1.535-3.632,2.207-7.544,2.553-11.434
		c1.146-13.383,1.297-26.743-0.713-40.079c-1.234-8.323-5.922-13.711-14.227-15.286c-4.238-0.803-3.607-2.38-1.555-4.799
		c3.564-4.172,6.916-6.769,13.598-6.769h50.111c7.889,1.557,9.641,5.101,10.721,13.039l0.043,55.663
		c-0.086,3.073,1.535,12.192,7.07,14.226c4.43,1.448,7.35-2.096,10.008-4.905c11.998-12.734,20.561-27.783,28.211-43.366
		c3.395-6.852,6.314-13.968,9.143-21.078c2.096-5.276,5.385-7.872,11.328-7.757l48.229,0.043c1.43,0,2.877,0.021,4.262,0.258
		c8.127,1.385,10.354,4.881,7.844,12.817c-3.955,12.451-11.65,22.827-19.174,33.251c-8.043,11.129-16.645,21.877-24.621,33.072
		C252.26,161.544,252.842,166.697,261.945,175.576L261.945,175.576z M261.945,175.576"/>
</g>
<g>
</g>
<g>
</g>
<g>
</g>
<g>
</g>
<g>
</g>
<g>
</g>
<g>
</g>
<g>
</g>
<g>
</g>
<g>
</g>
<g>
</g>
<g>
</g>
<g>
</g>
<g>
</g>
<g>
</g>
	</symbol>

	<symbol id="icon-youtube" viewBox="0 0 310 310">
		<g id="XMLID_822_">
	<path id="XMLID_823_" d="M297.917,64.645c-11.19-13.302-31.85-18.728-71.306-18.728H83.386c-40.359,0-61.369,5.776-72.517,19.938
		C0,79.663,0,100.008,0,128.166v53.669c0,54.551,12.896,82.248,83.386,82.248h143.226c34.216,0,53.176-4.788,65.442-16.527
		C304.633,235.518,310,215.863,310,181.835v-53.669C310,98.471,309.159,78.006,297.917,64.645z M199.021,162.41l-65.038,33.991
		c-1.454,0.76-3.044,1.137-4.632,1.137c-1.798,0-3.592-0.484-5.181-1.446c-2.992-1.813-4.819-5.056-4.819-8.554v-67.764
		c0-3.492,1.822-6.732,4.808-8.546c2.987-1.814,6.702-1.938,9.801-0.328l65.038,33.772c3.309,1.718,5.387,5.134,5.392,8.861
		C204.394,157.263,202.325,160.684,199.021,162.41z"/>
</g>
<g>
</g>
<g>
</g>
<g>
</g>
<g>
</g>
<g>
</g>
<g>
</g>
<g>
</g>
<g>
</g>
<g>
</g>
<g>
</g>
<g>
</g>
<g>
</g>
<g>
</g>
<g>
</g>
<g>
</g>
	</symbol>

	<symbol id="icon-logo-2" viewBox="0 0 637.8 409.9">
		<ellipse class="st0" cx="307.3" cy="330" rx="250.5" ry="4.5"/>
<g class="st1">
	<path class="st2" d="M12.8,400.6H4.5V363h26.2v7.5h-18V400.6z"/>
	<path class="st2" d="M33.3,381.8c0-10.7,8.4-19.4,20-19.4c11.6,0,19.9,8.6,19.9,19.4c0,10.7-8.4,19.4-20,19.4
		C41.7,401.2,33.3,392.6,33.3,381.8z M64.6,381.8c0-6.4-4.7-11.8-11.4-11.8c-6.7,0-11.3,5.3-11.3,11.8c0,6.4,4.7,11.8,11.4,11.8
		C60,393.6,64.6,388.3,64.6,381.8z"/>
	<path class="st2" d="M80.6,363H96c9,0,14.4,5.3,14.4,13.1c0,8.7-6.8,13.2-15.2,13.2h-6.3v11.3h-8.3V363z M95.4,382
		c4.1,0,6.5-2.5,6.5-5.8c0-3.7-2.6-5.7-6.7-5.7h-6.4V382H95.4z"/>
	<path class="st2" d="M114.8,381.8c0-10.7,8.4-19.4,20-19.4c11.6,0,19.9,8.6,19.9,19.4c0,10.7-8.4,19.4-20,19.4
		C123.1,401.2,114.8,392.6,114.8,381.8z M146.1,381.8c0-6.4-4.7-11.8-11.4-11.8c-6.7,0-11.3,5.3-11.3,11.8c0,6.4,4.7,11.8,11.4,11.8
		C141.5,393.6,146.1,388.3,146.1,381.8z"/>
	<path class="st2" d="M157.6,393.1h3.5c2.8-6.5,4.1-12.9,4.1-25.7V363h27.3v30.1h4.5l-1.1,15.3h-6.9v-7.8h-23.5l-0.5,7.8h-7.5V393.1
		z M173.2,370.5v3.8c0,7.9-1.2,13.6-3.4,18.8h14.5v-22.7H173.2z"/>
	<path class="st2" d="M219,363h8.3v14.9h15.2V363h8.3v37.6h-8.3v-15.1h-15.2v15.1H219V363z"/>
	<path class="st2" d="M258.1,381.8c0-10.7,8.4-19.4,20-19.4c11.6,0,19.9,8.6,19.9,19.4c0,10.7-8.4,19.4-20,19.4
		C266.4,401.2,258.1,392.6,258.1,381.8z M289.4,381.8c0-6.4-4.7-11.8-11.4-11.8c-6.7,0-11.3,5.3-11.3,11.8c0,6.4,4.7,11.8,11.4,11.8
		C284.8,393.6,289.4,388.3,289.4,381.8z"/>
	<path class="st2" d="M305.4,363h17.4c4.3,0,7.7,1.2,9.8,3.3c1.7,1.7,2.6,3.8,2.6,6.5c0,4.2-2.3,6.6-4.9,8.1c4.3,1.7,7,4.2,7,9.3
		c0,6.9-5.6,10.3-14.1,10.3h-17.9V363z M321.1,378.2c3.7,0,6-1.2,6-4.1c0-2.5-1.9-3.9-5.4-3.9h-8.2v7.9H321.1z M323.3,393.3
		c3.7,0,5.9-1.3,5.9-4.2c0-2.5-1.9-4.1-6.1-4.1h-9.6v8.3H323.3z"/>
	<path class="st2" d="M342.5,381.8c0-10.7,8.4-19.4,20-19.4c11.6,0,19.9,8.6,19.9,19.4c0,10.7-8.4,19.4-20,19.4
		C350.8,401.2,342.5,392.6,342.5,381.8z M373.8,381.8c0-6.4-4.7-11.8-11.4-11.8s-11.3,5.3-11.3,11.8c0,6.4,4.7,11.8,11.4,11.8
		S373.8,388.3,373.8,381.8z"/>
	<path class="st2" d="M388.1,381.8c0-10.7,8.1-19.4,19.6-19.4c7.1,0,11.1,2.7,14.5,6.1l-4.9,5.7c-2.9-2.6-5.4-4.2-9.7-4.2
		c-6.3,0-10.9,5.3-10.9,11.8c0,6.4,4.5,11.8,10.9,11.8c4.3,0,6.9-1.7,9.9-4.4l5.3,5.6c-3.9,4.1-8.2,6.4-15.4,6.4
		C396.3,401.2,388.1,392.7,388.1,381.8z"/>
	<path class="st2" d="M438.2,370.6h-11.4V363h31.1v7.6h-11.4v30h-8.3V370.6z"/>
	<path class="st2" d="M464.2,363h15.4c9,0,14.4,5.3,14.4,13.1c0,8.7-6.8,13.2-15.2,13.2h-6.3v11.3h-8.3V363z M479,382
		c4.1,0,6.5-2.5,6.5-5.8c0-3.7-2.6-5.7-6.7-5.7h-6.4V382H479z"/>
	<path class="st2" d="M498.4,381.8c0-10.7,8.4-19.4,20-19.4c11.6,0,19.9,8.6,19.9,19.4c0,10.7-8.4,19.4-20,19.4
		S498.4,392.6,498.4,381.8z M529.7,381.8c0-6.4-4.7-11.8-11.4-11.8c-6.7,0-11.3,5.3-11.3,11.8c0,6.4,4.7,11.8,11.4,11.8
		C525.1,393.6,529.7,388.3,529.7,381.8z"/>
	<path class="st2" d="M545.7,363H574v7.4h-20.1v7.6h17.7v7.4h-17.7v7.9h20.4v7.4h-28.6V363z"/>
	<path class="st2" d="M581.6,363h8.3v16.4l15.2-16.4h10L599.8,379l16,21.6h-9.9l-11.6-16l-4.3,4.5v11.5h-8.3V363z"/>
</g>
<g>
	<path class="st2" d="M454.2,89.6l-10.5-11.3c-0.6-0.6-1.3-0.9-2.1-1c-0.4,0-0.7,0.1-1,0.2c-0.4-1.2-1.5-2.1-2.9-2.1h-70.8
		c-0.2-0.1-0.4-0.3-0.7-0.4l-44.1-17l0,0l-81.5-31.7c0,0,0,0-0.1,0c-0.1-0.1-0.3-0.1-0.5-0.1c-0.1,0-0.2,0-0.3,0s-0.2,0-0.3,0
		c0,0,0,0-0.1,0s-0.1,0-0.2,0c-0.1,0-0.3,0-0.4,0.1c-0.1,0-0.1,0-0.2,0c-0.2,0.1-0.4,0.1-0.5,0.2l0,0l0,0c0,0,0,0-0.1,0l-88.7,47.7
		c-0.6,0.3-1,0.8-1.3,1.4h-14.8c-1.4,0-2.6,1-2.9,2.4c-0.2,0.1-0.3,0.2-0.5,0.4l-10.4,10.2c-0.6,0.6-1,1.5-0.9,2.4s0.5,1.7,1.2,2.2
		l1.5,1.1c0.5,0.4,1.1,0.6,1.8,0.6h104.3h0.1v79.8c0,1.7,1.3,3,3,3c1.3,0,2.4-0.9,2.8-2c0.4,1.2,1.5,2,2.8,2c1.8,0,1.8,0,6.7-8
		c2-3.3,4-6.6,4-6.6s0,0,0-0.1v11.6c0,1.7,1.3,3,3,3s3-1.3,3-3V94.7H452c1.2,0,2.3-0.7,2.8-1.8C455.3,91.8,455,90.5,454.2,89.6z
		 M233.4,97.2C233.5,97.3,233.5,97.3,233.4,97.2l7.3,11.7l-7.3,11.6v0.1V97.2z M233.5,123.7l7.3,11.8l-7.3,12.1l0,0V123.7
		C233.5,123.6,233.5,123.6,233.5,123.7z M239.6,122.1l7.3-11.6v-0.1v23.5v-0.1L239.6,122.1z M246.8,107.3l-7.3-11.6l7.3-12.3l0,0
		V107.3C246.8,107.4,246.8,107.3,246.8,107.3z M246.9,80.4l-5.8-10.2l2.6-9.2c0.4-1.6-0.5-3.3-2.1-3.7c-1.6-0.5-3.3,0.5-3.7,2.1
		L235,69.8c-0.2,0.8-0.1,1.6,0.3,2.3l5.6,9.8l-7.4,12.3l0,0V69l6.2-27.2l7.2,27.9L246.9,80.4L246.9,80.4z M127.8,88.7l4.1-4l3.9,4
		H127.8z M141.2,85.6l-4-4.1h8.4L141.2,85.6z M146.7,88.7l4.1-3.8l4,3.8H146.7z M160.2,85.6l-4.3-4.1h8.4L160.2,85.6z M165.6,88.7
		l3.9-3.8l4,3.8H165.6z M179,85.6l-4.3-4.1h8.6L179,85.6z M184.5,88.7l3.9-3.7l4.3,3.7H184.5z M198.3,85.7l-4.8-4.2h8.9L198.3,85.7z
		 M203.8,88.7l3.8-3.8l3.9,3.8H203.8z M216.7,85.4l-4-3.9h7.5L216.7,85.4z M227.3,88.7h-5.4l5.6-6.2v6.2
		C227.4,88.7,227.4,88.7,227.3,88.7z M227.5,68c-0.1,0.2-0.1,0.4-0.1,0.7v6.9c-0.2,0-0.3,0-0.5,0h-67.5L235,35L227.5,68z
		 M233.9,172.5c0.1-0.2,0.3-0.3,0.5-0.5C234.2,172.1,234.1,172.3,233.9,172.5z M233.8,172.6c-0.1,0.2-0.2,0.3-0.3,0.5v-22.6
		c0,0.1,0.1,0.1,0.1,0.2l7.2,10.8C237.6,166.5,234.4,171.7,233.8,172.6z M246.8,159.7l-7.2-10.8l7.3-12l0,0v23
		C246.8,159.8,246.8,159.8,246.8,159.7z M243.9,34l78.2,30.4l0,0l28.5,11.1h-97.7v-6.2c0-0.3,0-0.5-0.1-0.7L243.9,34z M252.9,88.7
		V85l3.8,3.7H252.9z M262.4,85.8l-4.4-4.3h8.9L262.4,85.8z M268,88.7l3.8-3.7c1.6,1.5,3,2.7,4,3.7H268z M281.4,85.5
		c-1.2-1-2.8-2.5-4.5-4h8.3C283.8,83,282.4,84.5,281.4,85.5z M286.7,88.7c1-1,2.1-2.2,3.6-3.8c1.6,1.3,3.1,2.7,4.5,3.8H286.7z
		 M300.6,85.7c-1.1-1-2.7-2.3-5-4.2h9C303.2,83.1,301.7,84.6,300.6,85.7z M306.2,88.7c0.9-1,2-2.1,3.4-3.6l4,3.6H306.2z M319.1,85.6
		l-4.6-4.1h9L319.1,85.6z M324.6,88.7l3.9-3.6l3.8,3.6H324.6z M337.6,85.5l-4.2-4h8.4L337.6,85.5z M343,88.7l4.1-3.9l3.9,3.9H343z
		 M356.7,85.8l-4.3-4.3h8.9L356.7,85.8z M362.4,88.7l3.8-3.6l3.7,3.6H362.4z M375.5,85.8l-4.4-4.3h8.7L375.5,85.8z M381.1,88.7
		l3.8-3.8l4.1,3.8H381.1z M394.6,85.7l-4.5-4.2h8.6L394.6,85.7z M400,88.7l3.7-3.7l4.1,3.7H400z M413.3,85.6l-4.5-4.1h8.8
		L413.3,85.6z M418.8,88.7l3.8-3.6l4,3.6H418.8z M432.1,85.6l-4.5-4.1h8.6L432.1,85.6z M437.5,88.7l3.9-3.9l3.7,3.9H437.5z"/>
	<path class="st2" d="M434.5,95.8h-23.7c-1.7,0-3,1.3-3,3s1.3,3,3,3h8.3v6.9c0,1.3,0.8,2.4,2,2.8c0.2,0.1,1.9,0.8,2.4,3.3
		c0.3,1.2-1,1.7-1.2,1.7c-1.1,0.3-1.6-0.4-1.8-0.8c0-0.1,0.1-0.2,0.1-0.2c0.9-1.4,0.5-3.2-0.9-4.2s-3.2-0.5-4.2,0.9
		c-0.3,0.5-1.7,2.8-0.7,5.5c1.2,3.1,3.9,4.9,6.9,4.9c0.7,0,1.5-0.1,2.3-0.3c3.9-1.2,6.2-4.8,5.3-8.7c-0.7-3.3-2.6-5.5-4.3-6.7v-5.1
		h9.4c1.7,0,3-1.3,3-3S436.2,95.8,434.5,95.8z"/>
</g>
<g>
	<polygon class="st3" points="322.1,64.4 322.1,75.5 316.1,75.5 316.1,62.1 	"/>
	<polygon class="st3" points="401.6,0 401.6,75.5 395.6,75.5 395.6,6 322.1,6 322.1,58 316.1,55.7 316.1,0 	"/>
	<path class="st3" d="M401.6,123.7v-29h-6v29h-11v199.8h-30.5V102.9h-32v-8.3h-6v8.3h-57.5v69.3h-41.5v-52.8h-72.5v210h351.8V123.7
		H401.6z M197.6,323.4h-47v-198h60.5v46.8h-13.5V323.4z M279.1,323.4h-75.5V178.2h75.5V323.4z M348.1,323.4h-63V172.2h-20.5v-63.3
		h83.5V323.4z M490.4,323.4h-99.8V129.7h99.8L490.4,323.4L490.4,323.4z"/>
	<path class="st3" d="M157.5,138.1h45.3c1.7,0,3-1.3,3-3s-1.3-3-3-3h-45.3c-1.7,0-3,1.3-3,3S155.9,138.1,157.5,138.1z"/>
	<path class="st3" d="M157.5,149.3h45.3c1.7,0,3-1.3,3-3s-1.3-3-3-3h-45.3c-1.7,0-3,1.3-3,3S155.9,149.3,157.5,149.3z"/>
	<path class="st3" d="M157.5,160.5h45.3c1.7,0,3-1.3,3-3s-1.3-3-3-3h-45.3c-1.7,0-3,1.3-3,3S155.9,160.5,157.5,160.5z"/>
	<path class="st3" d="M188.8,165.7h-31.3c-1.7,0-3,1.3-3,3s1.3,3,3,3h31.3c1.7,0,3-1.3,3-3S190.4,165.7,188.8,165.7z"/>
	<path class="st3" d="M188.8,176.9h-31.3c-1.7,0-3,1.3-3,3s1.3,3,3,3h31.3c1.7,0,3-1.3,3-3S190.4,176.9,188.8,176.9z"/>
	<path class="st3" d="M188.8,188.1h-31.3c-1.7,0-3,1.3-3,3s1.3,3,3,3h31.3c1.7,0,3-1.3,3-3S190.4,188.1,188.8,188.1z"/>
	<path class="st3" d="M188.8,199.3h-31.3c-1.7,0-3,1.3-3,3s1.3,3,3,3h31.3c1.7,0,3-1.3,3-3S190.4,199.3,188.8,199.3z"/>
	<path class="st3" d="M188.8,210.5h-31.3c-1.7,0-3,1.3-3,3s1.3,3,3,3h31.3c1.7,0,3-1.3,3-3S190.4,210.5,188.8,210.5z"/>
	<path class="st3" d="M188.8,221.6h-31.3c-1.7,0-3,1.3-3,3s1.3,3,3,3h31.3c1.7,0,3-1.3,3-3S190.4,221.6,188.8,221.6z"/>
	<path class="st3" d="M188.8,232.8h-31.3c-1.7,0-3,1.3-3,3s1.3,3,3,3h31.3c1.7,0,3-1.3,3-3S190.4,232.8,188.8,232.8z"/>
	<path class="st3" d="M188.8,244h-31.3c-1.7,0-3,1.3-3,3s1.3,3,3,3h31.3c1.7,0,3-1.3,3-3S190.4,244,188.8,244z"/>
	<path class="st3" d="M188.8,255.2h-31.3c-1.7,0-3,1.3-3,3s1.3,3,3,3h31.3c1.7,0,3-1.3,3-3S190.4,255.2,188.8,255.2z"/>
	<path class="st3" d="M188.8,267.4h-31.3c-1.7,0-3,1.3-3,3s1.3,3,3,3h31.3c1.7,0,3-1.3,3-3S190.4,267.4,188.8,267.4z"/>
	<path class="st3" d="M188.8,278.6h-31.3c-1.7,0-3,1.3-3,3s1.3,3,3,3h31.3c1.7,0,3-1.3,3-3S190.4,278.6,188.8,278.6z"/>
	<path class="st3" d="M188.8,289.8h-31.3c-1.7,0-3,1.3-3,3s1.3,3,3,3h31.3c1.7,0,3-1.3,3-3S190.4,289.8,188.8,289.8z"/>
	<path class="st3" d="M188.8,300.9h-31.3c-1.7,0-3,1.3-3,3s1.3,3,3,3h31.3c1.7,0,3-1.3,3-3S190.4,300.9,188.8,300.9z"/>
	<path class="st3" d="M264,192.5h-45.3c-1.7,0-3,1.3-3,3s1.3,3,3,3H264c1.7,0,3-1.3,3-3S265.6,192.5,264,192.5z"/>
	<path class="st3" d="M334,121.7c-1.7,0-3,1.3-3,3v188.1c0,1.7,1.3,3,3,3s3-1.3,3-3V124.7C337,123.1,335.7,121.7,334,121.7z"/>
	<path class="st3" d="M380.4,17.5v47.3c0,1.7,1.3,3,3,3s3-1.3,3-3V17.5c0-1.7-1.3-3-3-3S380.4,15.8,380.4,17.5z"/>
	<path class="st3" d="M357.4,17.5v47.3c0,1.7,1.3,3,3,3s3-1.3,3-3V17.5c0-1.7-1.3-3-3-3S357.4,15.8,357.4,17.5z"/>
	<path class="st3" d="M372.7,110.4c0-1.7-1.3-3-3-3s-3,1.3-3,3v6.9c0,1.7,1.3,3,3,3s3-1.3,3-3V110.4z"/>
	<path class="st3" d="M372.7,141.8c0-1.7-1.3-3-3-3s-3,1.3-3,3v6.9c0,1.7,1.3,3,3,3s3-1.3,3-3V141.8z"/>
	<path class="st3" d="M372.7,173.2c0-1.7-1.3-3-3-3s-3,1.3-3,3v6.9c0,1.7,1.3,3,3,3s3-1.3,3-3V173.2z"/>
	<path class="st3" d="M372.7,204.6c0-1.7-1.3-3-3-3s-3,1.3-3,3v6.9c0,1.7,1.3,3,3,3s3-1.3,3-3V204.6z"/>
	<path class="st3" d="M372.7,235.9c0-1.7-1.3-3-3-3s-3,1.3-3,3v6.9c0,1.7,1.3,3,3,3s3-1.3,3-3V235.9z"/>
	<path class="st3" d="M372.7,267.3c0-1.7-1.3-3-3-3s-3,1.3-3,3v6.9c0,1.7,1.3,3,3,3s3-1.3,3-3V267.3z"/>
	<path class="st3" d="M369.7,295.7c-1.7,0-3,1.3-3,3v6.9c0,1.7,1.3,3,3,3s3-1.3,3-3v-6.9C372.7,297.1,371.4,295.7,369.7,295.7z"/>
	<path class="st3" d="M334.4,17.5V57c0,1.7,1.3,3,3,3s3-1.3,3-3V17.5c0-1.7-1.3-3-3-3S334.4,15.8,334.4,17.5z"/>
	<path class="st3" d="M314.9,121.7c-1.7,0-3,1.3-3,3v188.1c0,1.7,1.3,3,3,3s3-1.3,3-3V124.7C317.9,123.1,316.6,121.7,314.9,121.7z"
		/>
	<path class="st3" d="M295.9,121.7c-1.7,0-3,1.3-3,3v188.1c0,1.7,1.3,3,3,3s3-1.3,3-3V124.7C298.9,123.1,297.5,121.7,295.9,121.7z"
		/>
	<path class="st3" d="M276.8,121.7c-1.7,0-3,1.3-3,3v38.5c0,1.7,1.3,3,3,3s3-1.3,3-3v-38.5C279.8,123.1,278.4,121.7,276.8,121.7z"/>
	<path class="st3" d="M264,207.6h-45.3c-1.7,0-3,1.3-3,3s1.3,3,3,3H264c1.7,0,3-1.3,3-3S265.6,207.6,264,207.6z"/>
	<path class="st3" d="M264,222.7h-45.3c-1.7,0-3,1.3-3,3s1.3,3,3,3H264c1.7,0,3-1.3,3-3S265.6,222.7,264,222.7z"/>
	<path class="st3" d="M264,237.8h-45.3c-1.7,0-3,1.3-3,3s1.3,3,3,3H264c1.7,0,3-1.3,3-3S265.6,237.8,264,237.8z"/>
	<path class="st3" d="M264,252.9h-45.3c-1.7,0-3,1.3-3,3c0,1.7,1.3,3,3,3H264c1.7,0,3-1.3,3-3S265.6,252.9,264,252.9z"/>
	<path class="st3" d="M264,268.1h-45.3c-1.7,0-3,1.3-3,3s1.3,3,3,3H264c1.7,0,3-1.3,3-3S265.6,268.1,264,268.1z"/>
	<path class="st3" d="M264,283.2h-45.3c-1.7,0-3,1.3-3,3s1.3,3,3,3H264c1.7,0,3-1.3,3-3S265.6,283.2,264,283.2z"/>
	<path class="st3" d="M264,298.3h-45.3c-1.7,0-3,1.3-3,3s1.3,3,3,3H264c1.7,0,3-1.3,3-3S265.6,298.3,264,298.3z"/>
	<path class="st3" d="M402.7,146h75.9c1.7,0,3-1.3,3-3s-1.3-3-3-3h-75.9c-1.7,0-3,1.3-3,3S401.1,146,402.7,146z"/>
	<path class="st3" d="M402.7,178.9h75.9c1.7,0,3-1.3,3-3s-1.3-3-3-3h-75.9c-1.7,0-3,1.3-3,3S401.1,178.9,402.7,178.9z"/>
	<path class="st3" d="M402.7,211.8h75.9c1.7,0,3-1.3,3-3s-1.3-3-3-3h-75.9c-1.7,0-3,1.3-3,3S401.1,211.8,402.7,211.8z"/>
	<path class="st3" d="M402.7,244.8h75.9c1.7,0,3-1.3,3-3s-1.3-3-3-3h-75.9c-1.7,0-3,1.3-3,3S401.1,244.8,402.7,244.8z"/>
	<path class="st3" d="M402.7,277.7h75.9c1.7,0,3-1.3,3-3s-1.3-3-3-3h-75.9c-1.7,0-3,1.3-3,3S401.1,277.7,402.7,277.7z"/>
	<path class="st3" d="M402.7,162.4h75.9c1.7,0,3-1.3,3-3s-1.3-3-3-3h-75.9c-1.7,0-3,1.3-3,3S401.1,162.4,402.7,162.4z"/>
	<path class="st3" d="M402.7,195.4h75.9c1.7,0,3-1.3,3-3s-1.3-3-3-3h-75.9c-1.7,0-3,1.3-3,3S401.1,195.4,402.7,195.4z"/>
	<path class="st3" d="M402.7,228.3h75.9c1.7,0,3-1.3,3-3s-1.3-3-3-3h-75.9c-1.7,0-3,1.3-3,3S401.1,228.3,402.7,228.3z"/>
	<path class="st3" d="M402.7,261.2h75.9c1.7,0,3-1.3,3-3s-1.3-3-3-3h-75.9c-1.7,0-3,1.3-3,3S401.1,261.2,402.7,261.2z"/>
	<path class="st3" d="M402.7,294.2h75.9c1.7,0,3-1.3,3-3s-1.3-3-3-3h-75.9c-1.7,0-3,1.3-3,3S401.1,294.2,402.7,294.2z"/>
	<path class="st3" d="M402.7,310.6h75.9c1.7,0,3-1.3,3-3s-1.3-3-3-3h-75.9c-1.7,0-3,1.3-3,3S401.1,310.6,402.7,310.6z"/>
</g>
	</symbol>

	<symbol id="icon-exclamation" viewBox="0 0 16.1 16.1">
			<path d="M8,0C3.6,0,0,3.6,0,8s3.6,8,8,8c4.4,0,8-3.6,8-8S12.5,0,8,0L8,0z M8,15.5c-4.1,0-7.4-3.3-7.4-7.4c0-4.1,3.3-7.4,7.4-7.4
		c4.1,0,7.4,3.3,7.4,7.4C15.5,12.1,12.1,15.5,8,15.5L8,15.5z M8,15.5"/>
	<path d="M8,3.1c-0.2,0-0.3,0.1-0.3,0.3v6.8c0,0.2,0.1,0.3,0.3,0.3c0.2,0,0.3-0.1,0.3-0.3V3.4C8.4,3.2,8.2,3.1,8,3.1L8,3.1z M8,3.1"
		/>
	<path d="M8,11.4c-0.2,0-0.3,0.1-0.3,0.3v0.6c0,0.2,0.1,0.3,0.3,0.3c0.2,0,0.3-0.1,0.3-0.3v-0.6C8.4,11.6,8.2,11.4,8,11.4L8,11.4z
		 M8,11.4"/>
	</symbol>

	<symbol id="icon-ex1" viewBox="0 0 75.9 87.2">
		<path d="M3,84.2c0.5-12.7,7.9-23.6,18.4-29.3l-0.2,0.3l17.2,11.9l16.2-11.9l-0.2-0.3c10.5,5.7,17.8,16.6,18.4,29.3L3,84.2z
	 M51.8,53.6l-13.3,9.8l-14.3-9.8c4.2-1.8,8.9-2.8,13.8-2.8C42.9,50.8,47.5,51.8,51.8,53.6z M38,47.8c-20.9,0-38,17-38,38v1.5h75.9
	v-1.5C75.9,64.8,58.9,47.8,38,47.8z"/>
<path d="M18.5,21.4c5.4-0.5,8.1-1.6,12.1-3.3l0.5-0.2c2-0.8,3.5-1.8,4.9-2.7c2.2-1.4,4.1-2.6,7.1-2.8c1.1-0.1,4.9,2.2,7.2,3.5
	c2.3,1.4,4.3,2.5,5.6,2.9c0.2,1,0.3,2,0.3,3c0,10.4-8.4,18.8-18.8,18.8s-18.8-8.4-18.8-18.8C18.5,21.7,18.5,21.5,18.5,21.4z M37.3,3
	c8,0,14.8,5,17.5,12.1c-0.9-0.5-2-1.1-3-1.8c-4.2-2.5-7.1-4.1-9-3.9c-3.8,0.3-6,1.8-8.5,3.3c-1.3,0.8-2.7,1.7-4.4,2.4l-0.5,0.2
	c-3.7,1.5-6,2.5-10.6,3C20.5,9.6,28.2,3,37.3,3z M37.3,43.6c12,0,21.8-9.8,21.8-21.8C59.1,9.8,49.4,0,37.3,0
	c-12,0-21.8,9.8-21.8,21.8C15.5,33.8,25.3,43.6,37.3,43.6z"/>
	</symbol>

	<symbol id="icon-ex2" viewBox="0 0 75.5 80.6">
		<path d="M53.5,40.9H37.9c-0.8,0-1.5-0.7-1.5-1.5V25.8c0-0.8,0.7-1.5,1.5-1.5c0.8,0,1.5,0.7,1.5,1.5v12.1H52V25.6
	c0-0.8,0.7-1.5,1.5-1.5s1.5,0.7,1.5,1.5v13.8C55,40.3,54.4,40.9,53.5,40.9z"/>
<path d="M57,29.9c-0.3,0-0.7-0.1-1-0.4l-10.2-8.7l-9.9,8.6c-0.6,0.5-1.6,0.5-2.1-0.1c-0.5-0.6-0.5-1.6,0.1-2.1l10.9-9.5
	c0.6-0.5,1.4-0.5,2,0l11.2,9.5c0.6,0.5,0.7,1.5,0.2,2.1C57.8,29.8,57.4,29.9,57,29.9z"/>
<path d="M46,3c-0.5,0-1.1,0-1.6,0C37.2,3.5,30.7,6.6,26,11.9c-9.7,11-8.7,27.8,2.2,37.5c5.3,4.7,12.2,7.1,19.2,6.6
	c7.1-0.4,13.6-3.6,18.3-8.9c4.7-5.3,7.1-12.1,6.6-19.2c-0.4-7.1-3.6-13.6-8.9-18.3C58.7,5.3,52.5,3,46,3z M45.9,59.2
	c-7.2,0-14.1-2.6-19.6-7.5C14.1,40.9,13,22.2,23.8,10C29,4,36.3,0.5,44.1,0.1C52-0.4,59.6,2.2,65.5,7.5c5.9,5.2,9.4,12.5,9.9,20.4
	c0.5,7.9-2.2,15.5-7.4,21.4c-5.2,5.9-12.5,9.4-20.4,9.9C47.1,59.1,46.5,59.2,45.9,59.2z"/>
<path d="M22.1,58.4c-0.4,0-0.7-0.1-1-0.4c-0.6-0.6-0.7-1.5-0.1-2.1l5.3-6c0.6-0.6,1.5-0.7,2.1-0.1c0.6,0.5,0.7,1.5,0.1,2.1l-5.3,6
	C22.9,58.2,22.5,58.4,22.1,58.4z"/>
<path d="M3.6,74.3l3,2.7l14.7-16.4l-3-2.7L3.6,74.3z M6.7,80.6c-0.4,0-0.7-0.1-1-0.4l-5.2-4.7C-0.1,75-0.2,74,0.4,73.4L17,54.8
	c0.6-0.6,1.5-0.7,2.1-0.1l5.3,4.7c0.3,0.3,0.5,0.6,0.5,1c0,0.4-0.1,0.8-0.4,1.1L7.9,80.1C7.6,80.4,7.2,80.6,6.7,80.6
	C6.8,80.6,6.8,80.6,6.7,80.6z"/>
	</symbol>

	<symbol id="icon-ex3" viewBox="0 0 71.4 84.6">
		<path d="M68.4,81.6H3V3h65.4L68.4,81.6z M69.9,0H1.5C0.7,0,0,0.7,0,1.5v81.6c0,0.8,0.7,1.5,1.5,1.5h68.4c0.8,0,1.5-0.7,1.5-1.5V1.5
	C71.4,0.7,70.8,0,69.9,0z"/>
<path d="M12.3,11.8h47.3v17.5H12.3V11.8z M10.8,32.3h50.3c0.8,0,1.5-0.7,1.5-1.5V10.3c0-0.8-0.7-1.5-1.5-1.5H10.8
	c-0.8,0-1.5,0.7-1.5,1.5v20.5C9.3,31.6,10,32.3,10.8,32.3z"/>
<path d="M20,49.8h-7.2v-7.2H20V49.8z M21.5,39.6H11.3c-0.8,0-1.5,0.7-1.5,1.5v10.2c0,0.8,0.7,1.5,1.5,1.5h10.2
	c0.8,0,1.5-0.7,1.5-1.5V41.1C23,40.3,22.3,39.6,21.5,39.6z"/>
<path d="M20,69.5h-7.2v-7.2H20V69.5z M21.5,59.3H11.3c-0.8,0-1.5,0.7-1.5,1.5V71c0,0.8,0.7,1.5,1.5,1.5h10.2c0.8,0,1.5-0.7,1.5-1.5
	V60.8C23,60,22.3,59.3,21.5,59.3z"/>
<path d="M59.1,49.8h-7.2v-7.2h7.2L59.1,49.8z M60.6,39.6H50.4c-0.8,0-1.5,0.7-1.5,1.5v10.2c0,0.8,0.7,1.5,1.5,1.5h10.2
	c0.8,0,1.5-0.7,1.5-1.5V41.1C62.1,40.3,61.4,39.6,60.6,39.6z"/>
<path d="M59.1,69.5h-7.2v-7.2h7.2L59.1,69.5z M60.6,59.3H50.4c-0.8,0-1.5,0.7-1.5,1.5V71c0,0.8,0.7,1.5,1.5,1.5h10.2
	c0.8,0,1.5-0.7,1.5-1.5V60.8C62.1,60,61.4,59.3,60.6,59.3z"/>
<path d="M39.9,49.4h-7.2v-7.2h7.2V49.4z M41.4,39.3H31.2c-0.8,0-1.5,0.7-1.5,1.5v10.2c0,0.8,0.7,1.5,1.5,1.5h10.2
	c0.8,0,1.5-0.7,1.5-1.5V40.8C42.9,39.9,42.2,39.3,41.4,39.3z"/>
<path d="M39.9,69.2h-7.2V62h7.2V69.2z M41.4,59H31.2c-0.8,0-1.5,0.7-1.5,1.5v10.2c0,0.8,0.7,1.5,1.5,1.5h10.2c0.8,0,1.5-0.7,1.5-1.5
	V60.5C42.9,59.7,42.2,59,41.4,59z"/>
	</symbol>

	<symbol id="icon-ex4" viewBox="0 0 88.1 82.3">
		<path d="M51.6,79.3V55c1.4,0.6,2.9,0.9,4.5,0.9c2.2,0,4.3-0.6,6.2-1.8c1.9,1.2,4,1.8,6.2,1.8c2.1,0,4.2-0.6,6-1.7
	c1.8,1.1,3.9,1.7,6,1.7c1.6,0,3.2-0.3,4.7-1v24.5H51.6z M7.3,18.1h41.3v61.2H7.3V18.1z M3,10.1h4.4h41.4h4.4v5h-3.1H5.8H3V10.1z
	 M8.9,3h38.4v4.1H8.9V3z M55.2,41.8h5.5v9.6c-1.4,0.9-3,1.4-4.7,1.4c-1.5,0-2.9-0.4-4.2-1.1L55.2,41.8z M63.8,41.8h9.2v9.7
	c-1.4,0.9-2.9,1.3-4.5,1.3c-1.7,0-3.3-0.5-4.7-1.4V41.8z M84.8,51.7c-1.3,0.8-2.8,1.2-4.3,1.2c-1.6,0-3.1-0.5-4.5-1.3v-9.7h5.5
	L84.8,51.7z M84,39.8c-0.2-0.6-0.8-1-1.4-1H54.2c-0.6,0-1.2,0.4-1.4,1l-1.1,3.4V18.1h3.1c0.8,0,1.5-0.7,1.5-1.5v-8
	c0-0.8-0.7-1.5-1.5-1.5h-4.4V1.5c0-0.8-0.7-1.5-1.5-1.5H7.4C6.6,0,5.9,0.7,5.9,1.5v5.6H1.5C0.7,7.1,0,7.8,0,8.6v8
	c0,0.8,0.7,1.5,1.5,1.5h2.8v62.7c0,0.8,0.7,1.5,1.5,1.5h44.3h36.5c0.8,0,1.5-0.7,1.5-1.5V52.7C88.3,52.2,84,39.8,84,39.8z"/>
<path d="M33.2,57.8H23V28.9h10.2V57.8z M34.7,25.9H21.5c-0.8,0-1.5,0.7-1.5,1.5v31.9c0,0.8,0.7,1.5,1.5,1.5h13.2
	c0.8,0,1.5-0.7,1.5-1.5V27.4C36.2,26.6,35.5,25.9,34.7,25.9z"/>
	</symbol>

	<symbol id="icon-ex5" viewBox="0 0 74.1 66.8">
		<path d="M69,55.5H33.3l0-4.7H69V55.5z M49.4,63.8H3V3h46.4v8c-4.6,0.8-8.2,4.8-8.2,9.7c0,2.4,0.8,4.6,2.4,6.4
	c-0.1,1.2-0.5,3.3-1.1,4.7c-2.6,6-7.5,5.7-7.7,5.7c0,0-0.1,0-0.1,0c-3.7,0-6.7,3-6.7,6.7v5.1c0,0.8,0.7,1.5,1.5,1.5h0.8l0,6.2
	c0,0.8,0.7,1.5,1.5,1.5h17.6V63.8z M57.9,20.6c0,1.8-0.7,3.6-2,4.9c-0.3,0.3-0.5,0.7-0.4,1.1c0,0.1,0.1,3.3,1.3,6.2
	c3.3,7.7,10.2,7.7,10.7,7.7c2,0,3.7,1.7,3.7,3.7v3.6h-0.4c-0.1,0-0.2,0-0.3,0c-0.1,0-0.2,0-0.3,0H31v-3.6c0-2,1.6-3.7,3.7-3.7
	c0.8,0,7.2,0.1,10.6-7.5c1.2-2.6,1.4-6.2,1.4-6.4c0-0.4-0.1-0.8-0.4-1.2c-1.3-1.3-2-3-2-4.8c0-3.8,3.1-6.8,6.8-6.8
	C54.8,13.8,57.9,16.9,57.9,20.6z M67.5,37.5C67.4,37.5,67.4,37.5,67.5,37.5c-0.1,0-5.4,0.1-8-5.9c-0.7-1.7-0.9-3.5-1-4.5
	c1.6-1.8,2.4-4.1,2.4-6.5c0-5-3.7-9.1-8.5-9.7V1.5c0-0.8-0.7-1.5-1.5-1.5H1.5C0.7,0,0,0.7,0,1.5v63.8c0,0.8,0.7,1.5,1.5,1.5h49.4
	c0.8,0,1.5-0.7,1.5-1.5v-6.9h18.1c0.8,0,1.5-0.7,1.5-1.5v-6.2h0.7c0.8,0,1.5-0.7,1.5-1.5v-5.1C74.1,40.5,71.1,37.5,67.5,37.5z"/>
<path d="M25,13.5H8.4c-0.8,0-1.5,0.7-1.5,1.5c0,0.8,0.7,1.5,1.5,1.5H25c0.8,0,1.5-0.7,1.5-1.5C26.5,14.2,25.8,13.5,25,13.5z"/>
<path d="M25,21H8.4c-0.8,0-1.5,0.7-1.5,1.5S7.5,24,8.4,24H25c0.8,0,1.5-0.7,1.5-1.5S25.8,21,25,21z"/>
	</symbol>

	<symbol id="icon-ex6" viewBox="0 0 84.8 75.6">
		<path d="M79.1,65.9c-3.9,1.7-12.2-5.5-18-18.5c-2.7-6.1-4.3-12.3-4.5-17.3c-0.2-4.5,0.9-7.6,2.8-8.5c0.4-0.2,0.8-0.3,1.3-0.3
	c4.2,0,11.5,7,16.8,18.7c2.7,6.1,4.3,12.3,4.5,17.3C82,61.9,81,65,79.1,65.9z M64.6,72.3c-3.9,1.7-12.2-5.5-18-18.5S41,29.8,44.9,28
	l9.3-4.2c-0.5,1.7-0.7,3.9-0.7,6.3c0.2,5.4,1.9,12,4.8,18.4c4.4,9.9,10.4,17.1,15.7,19.6L64.6,72.3z M27.2,69.6
	C13,69.6,3,64.9,3,60.7c0-0.1,0-0.2,0-0.2c0-0.1,0-0.2,0-0.2V49.7c4.4,3.8,13.4,6.3,24.2,6.3c5.9,0,11.3-0.8,16.1-2.4
	c0.2,0.4,0.4,0.9,0.6,1.4c1.6,3.5,3.3,6.6,5.2,9.4C44.9,67.6,36.4,69.6,27.2,69.6z M3,43.7V33.3c4.4,3.8,13.4,6.3,24.2,6.3
	c4.2,0,8.3-0.4,12-1.2c0.3,3.7,1.3,7.9,3,12.4c-4.4,1.4-9.5,2.2-15,2.2C13,53.1,3,48.4,3,44.1c0-0.1,0-0.2,0-0.2
	C3,43.8,3,43.7,3,43.7z M3,27.2v-9.7c4.4,3.8,13.4,6.3,24.2,6.3c10.8,0,19.8-2.5,24.2-6.3v4.3l-7.8,3.5c-3,1.3-4.5,5-4.6,10.1
	c-3.6,0.8-7.7,1.2-11.8,1.2C13,36.6,3,31.9,3,27.7c0-0.1,0-0.2,0-0.2C3,27.4,3,27.3,3,27.2z M27.2,3c14.3,0,24.2,4.7,24.2,8.9
	c0,4.2-10,8.9-24.2,8.9S3,16.1,3,11.9C3,7.7,13,3,27.2,3z M84.8,57.3c-0.2-5.4-1.9-12-4.8-18.4c-6.3-14.2-15.8-22.8-22-20l-3.6,1.6
	v-8.6C54.5,5.1,42.8,0,27.2,0S0,5.1,0,11.9v15.3c0,0.1,0,0.2,0,0.2c0,0.1,0,0.2,0,0.2c0,0.1,0,0.3,0,0.4c0,0.1,0,0.1,0,0.2v15.3
	c0,0.1,0,0.2,0,0.2C0,44,0,44,0,44.1c0,0.2,0,0.3,0,0.5c0,0.1,0,0.2,0,0.3v15.3c0,0.1,0,0.2,0,0.2c0,0.1,0,0.2,0,0.2
	c0,6.8,11.7,11.9,27.2,11.9c9.8,0,18.8-2.2,23.6-5.8c4.2,5.5,8.8,8.7,12.6,8.7c0.9,0,1.7-0.2,2.5-0.5l14.4-6.4
	C83.4,67.2,85,63.2,84.8,57.3z"/>
	</symbol>

	<symbol id="icon-ex7" viewBox="0 0 96.2 66.6">
		<path class="st0" d="M52.4,47.4c-0.9-0.6-2-0.8-3-0.8c-0.3,0-0.7,0-1,0.1c0.3-2.7-1-5.4-3.4-6.8c0,0,0,0,0,0
	c-2.4-1.4-5.3-1.2-7.5,0.3c-0.4-1.3-1.3-2.5-2.6-3.2c-1.9-1.1-4.2-1.1-5.9-0.1c-0.8,0.4-1.4,1-2,1.8c0.3,1,0,2.2-0.9,2.9l-1.4,1
	l-1.9,3.3l-1.2-0.9L21.5,45c-1.2,0.9-2.8,0.6-3.7-0.5c-0.4-0.6-0.6-1.3-0.5-2c0-0.2,0.1-0.4,0.2-0.6l-2.1-1.5L13,38.7
	c0,0-0.1-0.1-0.1-0.1c0,0-0.1,0-0.1-0.1L2.2,33.4c-0.7-0.4-1.6-0.1-2,0.7c-0.4,0.8-0.1,1.7,0.7,2l10.5,5.1l3.4,2.4l6,4.3l0.7,0.5
	c-0.8,2.6,0.3,5.4,2.7,6.8c1,0.6,2,0.8,3,0.8c0.3,0,0.7,0,1-0.1c-0.3,2.7,1,5.4,3.4,6.9c1.1,0.6,2.3,1,3.5,1c0.6,0,1.3-0.1,1.9-0.3
	c0.8-0.2,1.5-0.6,2.1-1c0.4,1.3,1.3,2.4,2.6,3.2c0.9,0.6,2,0.8,3,0.8c1.7,0,3.4-0.8,4.6-2.1c0.2-0.2,0.4-0.5,0.5-0.8l0.8-1.4
	c0,0,0,0,0,0l-0.1,0c0.2-0.1,0.3-0.3,0.4-0.4l2-3.4l0.4-0.6l0.3-0.5c0,0,0,0,0,0l1-1.6l0.1-0.1C56.2,52.7,55.2,49.1,52.4,47.4z
	 M29.6,51.7c-0.8,1.4-2.6,1.8-4,1c-1.4-0.8-1.9-2.6-1-4l3.1-5.3l1.7-2.9c0-0.1,0.1-0.2,0.2-0.3c0.5-0.8,1.4-1.2,2.3-1.2
	c0.5,0,1,0.1,1.5,0.4c1.4,0.8,1.8,2.6,1,4L29.6,51.7z M38.6,58.7c-0.6,1-1.5,1.7-2.5,2C35,61,33.9,60.8,33,60.3
	c-1.9-1.1-2.5-3.7-1.4-5.7L37.9,44c0.8-1.3,2.2-2.1,3.6-2.1c0.7,0,1.4,0.2,2,0.5c1.9,1.1,2.5,3.7,1.3,5.7L38.6,58.7z M47.8,61
	l-0.2,0.3l-0.5,0.8c-0.2,0.4-0.5,0.7-0.9,0.9c-0.9,0.6-2.1,0.7-3.1,0.1c-1.2-0.7-1.7-2.1-1.3-3.3c0.1-0.2,0.2-0.5,0.3-0.7l4.1-6.9
	l0.8-1.3c0.5-0.9,1.5-1.4,2.5-1.4c0.5,0,1,0.1,1.5,0.4c1.4,0.8,1.8,2.6,1,4l-0.2,0.3l-0.2,0.4l-1,1.8L47.8,61z M96,34.1
	c-0.4-0.8-1.3-1.1-2-0.7l-10.6,5.1l-7.2,3.1c-1.1-0.3-4-1-6.5-1.8l-1.3-0.5c-0.2-0.1-0.4-0.1-0.5-0.1c-0.9-0.3-1.7-0.6-2.2-0.8
	c-2.5-1.1-7-3.7-8.8-5.2c-2-1.8-7.3-8.3-7.4-8.3c-0.5-0.6-1.2-0.7-1.9-0.4c-1.5,0.8-6.2,2.8-8.7,2c-1.3-0.4-3.8-1.7-4.5-2.6
	c-0.5-0.6-0.8-2.6-0.6-3.2c0.5-0.3,2.6,0.1,3.6,0.2c1.7,0.3,3.3,0.6,4.6,0.2c2.4-0.8,7.3-5,8.5-6c1.2-0.4,7-2.4,11-0.8
	c2.1,0.8,4.2,1.1,6.1,1.1c4,0,7-1.4,7.2-1.5l14.7-7.9c0.7-0.4,1-1.3,0.6-2c-0.4-0.7-1.3-1-2-0.6l-14.7,7.8c0,0-5.3,2.4-10.8,0.2
	c-4.8-1.9-11,0-12.9,0.6c-2.1-0.8-8-2.9-10.6-2.5c-2.4,0.4-9.5,0.7-12.4,0.2C25.7,9.7,16.4,4.7,8.4,0.2C7.7-0.2,6.7,0,6.3,0.8
	c-0.4,0.7-0.1,1.6,0.6,2c5.3,3,17.7,9.9,19.4,10.2c3.5,0.7,11.1,0.2,13.5-0.2c1.2-0.2,4.4,0.7,7.2,1.7c-2.1,1.7-4.6,3.6-5.7,4
	c-0.5,0.2-2-0.1-3.2-0.3c-2.4-0.4-4.8-0.8-6.3,0.6c-1.6,1.7-0.6,5.8,0.5,7.2c1.2,1.4,4.3,3,5.9,3.5c3.2,0.9,7.7-0.8,9.8-1.7
	c1.6,1.9,5.2,6.3,7,7.8c2.2,1.9,7.1,4.7,9.5,5.7c0.9,0.4,2.5,0.9,4.2,1.4l7,2.6c0.4,0.2,0.6,0.5,0.8,1.1c0.3,0.9,0.3,2.1-0.2,2.9
	c-0.5,1.1-1.6,1.6-2.7,1.4c-0.2-0.1-0.5-0.2-0.7-0.2l-9.5-4.9c-0.7-0.4-1.6-0.1-2,0.6c-0.4,0.7-0.1,1.6,0.6,2l9.6,5c0,0,0.1,0,0.1,0
	c0.1,0.4,0,0.6-0.1,1c-0.1,0.2-0.2,0.5-0.2,0.8c-0.6,1.2-2,1.7-3.3,1.2l-8-3.5c0,0-0.1,0-0.1,0c0,0-0.1,0-0.1,0c0,0-0.1,0-0.2,0
	c0,0-0.1,0-0.1,0h-0.2c0,0-0.1,0-0.1,0c0,0-0.1,0-0.1,0c-0.1,0-0.1,0-0.1,0c0,0-0.1,0-0.1,0.1s-0.1,0-0.1,0.1c0,0-0.1,0.1-0.1,0.1
	c0,0-0.1,0.1-0.1,0.1c0,0-0.1,0.1-0.1,0.1c0,0-0.1,0.1-0.1,0.1c0,0,0,0.1-0.1,0.1c0,0,0,0.1-0.1,0.1c0,0,0,0,0,0c0,0,0,0,0,0
	c0,0,0,0.1,0,0.1c0,0,0,0.1,0,0.1s0,0.1,0,0.1c0,0,0,0.1,0,0.1s0,0.1,0,0.1c0,0.1,0,0.1,0,0.1c0,0,0,0.1,0,0.1c0,0.1,0,0.1,0,0.1
	c0,0,0,0.1,0.1,0.1s0,0.1,0.1,0.1c0,0,0.1,0.1,0.1,0.1c0,0,0,0.1,0.1,0.1c0,0,0.1,0.1,0.1,0.1c0,0,0.1,0.1,0.1,0.1
	c0,0,0.1,0.1,0.1,0.1c0,0,0.1,0,0.1,0.1l2.2,1.1c1.3,0.6,1.8,2.1,1.2,3.4c-0.3,0.6-0.8,1.1-1.5,1.3c-0.7,0.2-1.3,0.2-2-0.1l-2.1-1
	l-0.4-0.2c0,0,0,0,0,0L56,59.9c-0.2-0.1-0.3-0.1-0.5-0.1c-0.6,0-1.1,0.4-1.4,0.9c0,0,0,0.1,0,0.1c0,0.1-0.1,0.2-0.1,0.2
	c-0.2,0.4-0.4,0.7-0.7,0.9l2.4,1.1l1.9,0.9c0.8,0.4,1.6,0.5,2.4,0.5c0.6,0,1.3-0.1,1.9-0.3c1.4-0.5,2.5-1.5,3.2-2.9
	c0.4-0.9,0.6-1.9,0.5-2.9l1.5,0.7c0.7,0.3,1.5,0.4,2.2,0.4c2.2,0,4.2-1.3,5.1-3.4c0.1-0.2,0.1-0.4,0.1-0.6c0-0.1,0-0.2,0.1-0.3
	c0.1-0.4,0.3-0.8,0.3-1.5c1.8-0.3,3.5-1.4,4.3-3.1c0.8-1.6,0.9-3.6,0.3-5.2c-0.2-0.6-0.5-1-0.8-1.5l6.1-2.6c0,0,0,0,0,0c0,0,0,0,0,0
	l10.6-5.2C96.1,35.8,96.4,34.9,96,34.1z"/>
<path class="st0" d="M29.1,36.8c-0.1-0.2-0.2-0.4-0.4-0.6c-1.7-2.3-5-2.7-7.2-1l-4.7,3.5c-0.6,0.4-1.1,1-1.4,1.6
	c-0.3,0.5-0.5,1.1-0.6,1.8c-0.1,0.5-0.1,1,0,1.5c0.1,0.8,0.5,1.6,1,2.3c1.2,1.6,3.2,2.3,5,2c0.2,0,0.3-0.1,0.5-0.1
	c0.6-0.2,1.2-0.4,1.7-0.8l4.7-3.5c0,0,0,0,0.1-0.1c1-0.8,1.7-2,1.9-3.2C29.8,39.1,29.6,37.9,29.1,36.8z M26.2,41.5l-1.4,1l-3.1,2.4
	L21.5,45c-1.2,0.9-2.8,0.6-3.7-0.5c-0.4-0.6-0.6-1.3-0.5-2c0-0.2,0.1-0.4,0.2-0.6c0.2-0.4,0.5-0.8,0.8-1.1l4.7-3.5
	c0.3-0.2,0.6-0.3,0.9-0.4c0.3-0.1,0.7-0.1,1.1-0.1c0.7,0.1,1.3,0.5,1.8,1c0.2,0.3,0.3,0.6,0.4,0.9C27.4,39.6,27.1,40.8,26.2,41.5z"
	/>
<path class="st0" d="M44.5,52.6c-1.9,0.7-3.2,2.4-3.4,4.5c-0.1,0.7,0.1,1.4,0.3,2.1c0.1,0.3,0.2,0.5,0.3,0.8
	c0.1-0.2,0.2-0.5,0.3-0.7l4.1-6.9C45.6,52.3,45,52.4,44.5,52.6z M56.3,60.1C56.3,60,56.3,60,56.3,60.1L56,59.9
	c-0.2-0.1-0.3-0.1-0.5-0.1c-0.6,0-1.1,0.4-1.4,0.9c0,0,0,0.1,0,0.1c0,0.1-0.1,0.2-0.1,0.2c-0.2,0.4-0.4,0.7-0.7,0.9
	c-0.8,0.6-1.9,0.8-2.8,0.4c0,0,0,0,0,0l-0.1,0L47.8,61l-0.2,0.3l-0.5,0.8c-0.2,0.4-0.5,0.7-0.9,0.9l2.9,1.4l0.3,0.1
	c0.7,0.3,1.5,0.5,2.2,0.5c1.6,0,3.1-0.7,4.1-2c0.1-0.1,0.2-0.3,0.3-0.4c0.1-0.2,0.2-0.4,0.3-0.6v0c0.3-0.5,0.4-1.1,0.4-1.6
	c0-0.1,0-0.1,0-0.2L56.3,60.1z M53.8,55.2l-2-1l-0.2,0.4l-1,1.8l2.3,1c0.2,0.1,0.3,0.2,0.4,0.3l0.3-0.5c0,0,0,0,0,0l1-1.6
	C54.2,55.5,54,55.4,53.8,55.2z"/>
<path class="st0" d="M55.9,60.8c0,0.6-0.4,1.1-0.9,1.3c-0.1,0-0.3,0.1-0.4,0.1c-0.7,0-1.3-0.6-1.3-1.4c0-0.1,0-0.3,0.1-0.4
	c0,0,0-0.1,0-0.1c0.2-0.5,0.7-0.8,1.2-0.8c0.2,0,0.3,0,0.5,0.1l0.2,0.1c0,0,0,0,0,0c0.1,0.1,0.3,0.2,0.4,0.4
	C55.8,60.2,55.9,60.5,55.9,60.8z"/>
	</symbol>

	<symbol id="element-footer" viewBox="0 0 2089.8 335.5">
		<path class="st0" d="M2089.8,335.5H0C323.1,141.1,675.7,0,1044.9,0S1766.7,141.1,2089.8,335.5z"/>
	</symbol>

	<symbol id="icon-sale-open" viewBox="0 0 169 169">
		<g>
	<path d="M72.1,123.8c1.3,0,2.3-1.1,2.3-2.4c0-0.6-0.2-1.2-0.7-1.7s-1-0.7-1.7-0.7c-1.3,0-2.3,1-2.3,2.3
		C69.8,122.7,70.9,123.8,72.1,123.8z"/>
	<path d="M107.5,124.3c1.3,0,2.4-1.1,2.4-2.4s-1.1-2.3-2.4-2.3c-1.3,0-2.3,1.1-2.3,2.3S106.2,124.3,107.5,124.3z"/>
	<path d="M65.2,92.8c0.1,0.2,0.2,0.4,0.2,0.6l2.3,7.9H110l6.6-43.4H54.8L65.2,92.8z"/>
	<path d="M84.5,0C37.8,0,0,37.8,0,84.5S37.8,169,84.5,169S169,131.2,169,84.5S131.2,0,84.5,0z M125.3,54.4l-7.9,51.4
		c-0.3,2-2,3.4-3.9,3.4H70.2l0.6,1.9c0.4-0.1,0.8-0.1,1.3-0.1c2.8,0,5.4,1.1,7.3,3c0.7,0.7,1.2,1.4,1.7,2.2h17.7
		c1.9-2.9,5.1-4.7,8.6-4.7c5.7,0,10.4,4.6,10.4,10.3s-4.6,10.4-10.4,10.4c-4.9,0-9-3.4-10.1-8H82.1c-1.3,4.3-5.2,7.4-9.9,7.4
		c-5.7,0-10.3-4.7-10.3-10.4c0-2.2,0.7-4.3,2-6.1l-2.9-8.9L43.2,47.1h-8.1c-2.2,0-4-1.8-4-4c0-2.2,1.8-4,4-4h11.1
		c1.8,0,3.3,1.1,3.8,2.8l2.3,7.9h68.9c1.2,0,2.3,0.5,3,1.4C125.1,52.1,125.4,53.3,125.3,54.4z"/>
</g>
	</symbol>



	<symbol id="icon-sale-close" viewBox="0 0 68 68">
		<path class="st0" d="M47.7,21.6c-1.1-1.1-2.8-1.1-3.8,0L34,31.5l-9.9-9.9c-1.1-1.1-2.8-1.1-3.8,0c-1.1,1.1-1.1,2.8,0,3.8l9.9,9.9
	l-9.9,9.9c-1.1,1.1-1.1,2.8,0,3.8c0.5,0.5,1.2,0.8,1.9,0.8c0.7,0,1.4-0.3,1.9-0.8l9.9-9.9l9.9,9.9c0.5,0.5,1.2,0.8,1.9,0.8
	c0.7,0,1.4-0.3,1.9-0.8c1.1-1.1,1.1-2.8,0-3.8l-9.9-9.9l9.9-9.9C48.8,24.4,48.8,22.6,47.7,21.6z"/>
<path class="st0" d="M34,62.6C18.2,62.6,5.4,49.8,5.4,34C5.4,18.2,18.2,5.4,34,5.4c15.8,0,28.6,12.8,28.6,28.6
	C62.6,49.8,49.8,62.6,34,62.6z M34,0C15.3,0,0,15.3,0,34c0,18.8,15.3,34,34,34c18.8,0,34-15.3,34-34C68,15.3,52.8,0,34,0z"/>
	</symbol>


</svg>